<svg fill="none" height="32" viewBox="0 0 197 32" width="197" xmlns="http://www.w3.org/2000/svg"><g fill="#0052ff"><path clip-rule="evenodd" d="m70.826 17.5094-2.6922 9.6881h-2.8003l-3.7534-14.1784h3.0754l2.2304 10.2678h.0786l2.653-10.2678h2.5055l2.653 10.2678h.0786l2.2402-10.2678h3.0755l-3.7633 14.1784h-2.8003l-2.6922-9.6881zm13.4317 7.782c1.2479 0 2.2796-.8156 2.2796-1.9554v-.7664l-2.2206.1376c-1.071.0786-1.6802.5601-1.6802 1.3068 0 .7861.6485 1.2774 1.6212 1.2774zm-.9432 2.0732c-2.0045 0-3.5274-1.297-3.5274-3.1934 0-1.916 1.4738-3.0263 4.0973-3.1835l2.6529-.1572v-.6976c0-.9826-.6878-1.5525-1.7686-1.5525-1.071 0-1.749.5306-1.8866 1.3068h-2.6234c.1081-2.0437 1.8472-3.4488 4.6377-3.4488 2.7021 0 4.4609 1.3953 4.4609 3.5176v7.2415h-2.7709v-1.6114h-.0589c-.5896 1.1201-1.8964 1.7785-3.213 1.7785zm7.9588-.1671v-14.1784h2.8691v14.1784zm4.8735 0v-14.1784h2.8691v14.1784zm9.5312-8.6367c-1.258 0-2.162.9531-2.26 2.2697h4.47c-.058-1.3461-.933-2.2697-2.21-2.2697zm2.25 5.4139h2.633c-.314 2.0634-2.201 3.4488-4.805 3.4488-3.242 0-5.188-2.0732-5.188-5.4434 0-3.3604 1.966-5.5417 5.08-5.5417 3.066 0 5.002 2.0732 5.002 5.2764v.8745h-7.262v.1769c0 1.5033.953 2.535 2.417 2.535 1.052 0 1.858-.5208 2.123-1.3265zm4.962-9.7372h2.869v2.4269h1.945v2.1617h-1.945v5.0405c0 .8057.393 1.1889 1.238 1.1889.255 0 .521-.0196.698-.0491v2.1125c-.295.0688-.787.1179-1.366.1179-2.476 0-3.439-.8253-3.439-2.8789v-5.5318h-1.484v-2.1617h1.484zm12.901 13.2057c-4.127 0-6.711-2.761-6.711-7.3398 0-4.5689 2.604-7.33 6.711-7.33 3.409 0 6.003 2.1617 6.229 5.3354h-2.888c-.276-1.7392-1.612-2.8789-3.341-2.8789-2.24 0-3.685 1.8767-3.685 4.8637 0 3.0263 1.425 4.8932 3.695 4.8932 1.759 0 3.026-1.0317 3.34-2.7119h2.889c-.334 3.1638-2.761 5.1683-6.239 5.1683zm12.655-.0197c-3.183 0-5.217-2.0437-5.217-5.5024 0-3.4095 2.063-5.4827 5.217-5.4827s5.218 2.0634 5.218 5.4827c0 3.4685-2.034 5.5024-5.218 5.5024zm0-2.1911c1.405 0 2.3-1.1889 2.3-3.3014 0-2.0929-.904-3.3015-2.3-3.3015-1.395 0-2.309 1.2086-2.309 3.3015 0 2.1125.894 3.3014 2.309 3.3014zm6.692 1.9651v-10.5331h2.77v1.8767h.059c.56-1.3068 1.671-2.0732 3.292-2.0732 2.339 0 3.655 1.4738 3.655 3.9401v6.7895h-2.869v-6.1901c0-1.3756-.648-2.1617-1.936-2.1617-1.287 0-2.102.9433-2.102 2.309v6.0428zm11.594 0v-10.5331h2.771v1.8767h.059c.56-1.3068 1.67-2.0732 3.291-2.0732 2.339 0 3.655 1.4738 3.655 3.9401v6.7895h-2.869v-6.1901c0-1.3756-.648-2.1617-1.935-2.1617s-2.103.9433-2.103 2.309v6.0428zm16.32-8.6367c-1.257 0-2.161.9531-2.26 2.2697h4.471c-.059-1.3461-.933-2.2697-2.211-2.2697zm2.25 5.4139h2.634c-.315 2.0634-2.201 3.4488-4.805 3.4488-3.242 0-5.188-2.0732-5.188-5.4434 0-3.3604 1.965-5.5417 5.08-5.5417 3.066 0 5.001 2.0732 5.001 5.2764v.8745h-7.261v.1769c0 1.5033.953 2.535 2.417 2.535 1.051 0 1.857-.5208 2.122-1.3265zm13.766-3.3898h-2.663c-.167-1.1104-.903-1.8964-2.083-1.8964-1.414 0-2.299 1.1987-2.299 3.2326 0 2.0733.885 3.2523 2.309 3.2523 1.15 0 1.897-.6878 2.073-1.8374h2.673c-.147 2.4859-2.004 4.0875-4.775 4.0875-3.174 0-5.188-2.0634-5.188-5.5024 0-3.38 2.014-5.4827 5.168-5.4827 2.85 0 4.657 1.7588 4.785 4.1465zm2.162-6.3474h2.869v2.4269h1.945v2.1617h-1.945v5.0405c0 .8057.393 1.1889 1.238 1.1889.255 0 .521-.0196.698-.0491v2.1125c-.295.0688-.786.1179-1.366.1179-2.476 0-3.439-.8253-3.439-2.8789v-5.5318h-1.484v-2.1617h1.484z" fill-rule="evenodd"/><path d="m10.6886 6.25752c8.4997-8.32188 22.2804-8.32188 30.78 0l1.023 1.00155c.425.4161.425 1.09072 0 1.50681l-3.4993 3.42612c-.2125.208-.557.208-.7695 0l-1.4077-1.3783c-5.9296-5.80551-15.5434-5.80551-21.4729 0l-1.5076 1.476c-.2125.2081-.557.2081-.7695 0l-3.49926-3.42607c-.42499-.4161-.42499-1.09072 0-1.50681zm38.0169 7.08558 3.1144 3.0492c.425.4161.425 1.0907 0 1.5068l-14.043 13.7495c-.425.4161-1.114.4161-1.539 0l-9.9668-9.7584c-.1063-.104-.2785-.104-.3848 0l-9.9666 9.7584c-.425.4161-1.114.4161-1.539 0l-14.043408-13.7496c-.4249831-.4161-.4249831-1.0908 0-1.5069l3.114388-3.0492c.42499-.4161 1.11402-.4161 1.539 0l9.96702 9.7585c.1062.1041.2785.1041.3847 0l9.9665-9.7585c.425-.4161 1.114-.4161 1.539 0h.0001l9.9669 9.7585c.1063.1041.2785.1041.3848 0l9.9668-9.7583c.425-.4161 1.114-.4161 1.539 0z"/></g></svg>