<?xml version="1.0" encoding="utf-8"?>
<!-- Generator: Adobe Illustrator 23.0.3, SVG Export Plug-In . SVG Version: 6.00 Build 0)  -->
<svg version="1.1" xmlns="http://www.w3.org/2000/svg" xmlns:xlink="http://www.w3.org/1999/xlink" x="0px" y="0px"
	 viewBox="0 0 256 256" style="enable-background:new 0 0 256 256;" xml:space="preserve">
<style type="text/css">
	.st0{display:none;}
	.st1{display:inline;}
</style>
<g id="SOURCE" class="st0">
	<g class="st1">
		<g>
			<path d="M178.4,210.5c-20.8,12.3-45.1,16.4-68.8,11.4c-2.4-0.5-3.4,3.1-1,3.6c24.7,5.2,50,1.1,71.7-11.8
				C182.4,212.5,180.5,209.2,178.4,210.5L178.4,210.5z"/>
		</g>
	</g>
	<path class="st1" d="M103.9,224.2c-1.1,0.7-2.6,0.3-3.3-0.8s-0.3-2.6,0.8-3.3c1.1-0.7,2.6-0.3,3.3,0.8
		C105.3,222,105,223.5,103.9,224.2z"/>
	<g class="st1">
		<g>
			<path d="M237.1,128.6c-0.3,46.9-31,88.7-75.8,102.8c-45.1,14.2-95-4.1-121.3-43c-26.5-39.1-23.2-92.5,6.8-128.8
				c30.1-36.4,82-48.4,125.3-30C211.4,46.4,236.9,86.1,237.1,128.6c0,2.4,3.8,2.4,3.8,0c-0.3-44.1-26.5-84.3-66.9-102.1
				C133.4,8.6,85.3,17.5,53.1,47.5C20.5,77.8,9.8,126.2,25.2,167.7c15.1,40.9,54.1,69,97.3,72c30.6,2.1,61-9.3,83.4-30.1
				c22.4-20.8,34.8-50.6,35-81C240.9,126.1,237.1,126.1,237.1,128.6z"/>
		</g>
	</g>
	<g class="st1">
		<g>
			<path d="M220.1,126c-0.3,21.9-15.6,38.8-33.7,49.2c-22.7,13.1-50.6,16.6-76.3,13c-22.9-3.2-46.2-13-61.3-31.1
				c-13.4-16.1-15.2-37.8-4.5-55.8c9-15.1,25-25.2,41.2-31.3c19.5-7.3,41-9,61.6-6.2C179.2,68.3,219.6,88.9,220.1,126
				c0,2.4,3.8,2.4,3.8,0c-0.6-46.1-55-66.5-93.6-67.2c-38.9-0.7-94,19.2-96.8,64.9C32.3,142.7,43.5,160,58,171.1
				c18.7,14.4,42.3,21,65.7,22c39.2,1.6,94.8-17,99.8-62.6c0.2-1.5,0.2-3,0.2-4.5C223.8,123.6,220.1,123.6,220.1,126z"/>
		</g>
	</g>
	<g class="st1">
		<g>
			<path d="M220.1,106.9c-6.6-17.9-29-22.1-45.7-22.9c-27.1-1.3-55.1,6.4-79.1,18.6c-17.1,8.7-36.2,22.1-42.8,41.1
				c-5.6,16.2,5.6,28.9,20,34.6c15.4,6.1,33.4,5.6,49.5,3.4c19.1-2.5,37.9-8.6,55-17.4c13.3-6.8,26.7-16,35.7-28.1
				C219.1,127.9,223.5,117.4,220.1,106.9c-0.8-2.4-4.6-1.4-3.8,1c6.1,19-14.5,36.2-28.2,45.4c-23.5,15.8-52.7,24.6-80.9,25.8
				c-17.3,0.7-47.8-1.9-52-23.4c-1.6-8.5,3.2-17.2,8.2-23.6c6.9-8.9,16.3-15.9,25.9-21.7c22.6-13.7,49.6-21.6,75.9-22.6
				c16.6-0.7,44.3,1.4,51.2,20.1C217.2,110.3,221,109.3,220.1,106.9z"/>
			<path d="M136.8,157c-13.5,4.2-27.6,6.4-41.8,4.9c-9.2-1-21.2-4.7-23.7-14.8c-2.3-9,5.8-17.9,11.9-23.4c9.9-9,22.6-14.9,35.2-19
				c13.4-4.3,27.7-6.4,41.8-4.9c9.2,1,21.2,4.7,23.7,14.8c2.3,9-5.8,17.9-11.9,23.4C162.1,147,149.4,152.9,136.8,157
				c-2.4,0.8-1.4,4.6,1,3.8c18.5-6,42.9-17.4,49.4-37.6c6.1-19.2-16.9-26.7-31.3-27.7c-25.1-1.8-52.7,7.4-72.5,22.8
				c-11.8,9.1-24.1,27.2-9.6,39.7c6.9,5.9,16.7,7.6,25.4,8.2c13,0.9,26.2-1.6,38.5-5.4C140.2,160,139.2,156.2,136.8,157z"/>
		</g>
	</g>
</g>
<g id="Line_Expand">
	<g>
		<path d="M235.5,94.1c-3.3-9.8-7.8-19-13.5-27.6c-1.3-2-4.6-0.1-3.2,1.9c5.5,8.3,9.9,17.2,13.1,26.7
			C232.6,97.3,236.3,96.4,235.5,94.1z"/>
		<path d="M237.2,128.8c-0.3,46.9-31,88.7-75.8,102.8c-45.1,14.2-95-4.1-121.3-43C13.6,149.5,17,96.1,46.9,59.9
			c32-38.7,88-49.4,132.4-26.6c10.4,5.3,19.8,12.6,27.9,20.9c1.7,1.7,4.3-0.9,2.7-2.7C175.5,16.3,121.7,7.5,78,30
			C38.7,50.3,15.5,93.3,18.5,137.1c3,43.5,32.6,81.4,73.2,96.4c41.7,15.4,89.7,3,119.8-29.3c19-20.4,29.3-47.7,29.5-75.5
			C241,126.3,237.2,126.3,237.2,128.8z"/>
		<path d="M178.4,210.5c-20.8,12.3-45.1,16.4-68.8,11.4c-2.4-0.5-3.4,3.1-1,3.6c24.7,5.2,50,1.1,71.7-11.8
			C182.4,212.5,180.5,209.2,178.4,210.5z"/>
		<path d="M101.4,220.1c-1.1,0.7-1.5,2.1-0.8,3.3s2.1,1.5,3.3,0.8c1.1-0.7,1.5-2.1,0.8-3.3C104,219.8,102.5,219.4,101.4,220.1z"/>
		<path d="M177.8,70.1c-32.9-13.9-73-12.5-104.8,3.6c-2.2,1.1-0.3,4.3,1.9,3.2c25.5-12.9,55.7-15.5,83.4-9.2
			c17.1,3.9,34.5,12,46.8,24.8c-9.2-4.5-20.5-6.1-30-6.6c-27.1-1.3-55.1,6.4-79.1,18.6c-17.1,8.7-36.2,22.1-42.8,41.1
			c-2.4,6.8-1.8,12.9,0.8,18.2c-9.5-9.6-16-21.9-16.2-35.9c0-2.4-3.8-2.4-3.8,0c0.6,46.1,55,66.5,93.6,67.2
			c38.9,0.7,94-19.2,96.8-64.9c0.4-7.4-0.8-14.2-3.4-20.6c-0.1-0.3-0.1-0.5-0.2-0.8c-0.8-2-1.7-3.9-2.9-5.6
			C209.4,88.2,193.5,76.8,177.8,70.1z M64.1,134.2c6.9-8.9,16.3-15.9,25.9-21.7c22.6-13.7,49.6-21.6,75.9-22.6
			c15.4-0.6,40.2,1.1,49.3,16.2c0.7,1.3,1.4,2.7,1.9,4.1c5.9,18.9-14.6,36.1-28.3,45.2c-23.5,15.8-52.7,24.6-80.9,25.8
			c-17.3,0.7-47.8-1.9-52-23.4C54.3,149.3,59.1,140.6,64.1,134.2z M208.3,160c-15.3,18.4-39.9,27.6-63.1,30.6
			c-19.8,2.5-40.5,0.4-59.2-6.7c12.1,2.1,24.9,1.5,36.7-0.1c19.1-2.5,37.9-8.6,55-17.4c14.4-7.3,36.7-22,42.8-39.9
			C220.8,138.4,216.4,150.3,208.3,160z"/>
		<path d="M42.2,108.7c4.3-8.9,10.7-16.3,18.4-22.5c1.9-1.5-0.8-4.2-2.7-2.7C50,90,43.4,97.6,38.9,106.8
			C37.9,109,41.1,110.9,42.2,108.7z"/>
		<path d="M166.1,145.2c-5.3,3.6-10.9,6.7-16.8,9.3c-2.3,1-0.3,4.4,2,3.4c5.9-2.6,11.5-5.7,16.8-9.3
			C170.1,147.2,168.2,143.8,166.1,145.2z"/>
		<path d="M87.5,166.2c11.4,3.2,23.9,2.4,35.4,0.4c5.3-0.9,10.5-2.3,15.7-3.9c2.4-0.7,1.4-4.5-1-3.8c-11.2,3.5-22.8,5.5-34.5,5.4
			c-9-0.1-19.3-1.8-26.3-7.8c-14.5-12.5,5.4-30.5,15.6-37.3c18.8-12.6,43.3-19.4,65.9-17.8c8.4,0.6,18.7,2.9,24.2,10
			c7.4,9.6-1.8,21.4-8.8,28c-1.8,1.7,0.9,4.5,2.8,2.8c7.6-7.2,15.1-17.2,11.7-28.2c-2.3-7.7-10.4-12-17.5-14.2
			c-23.7-7.5-52.8,0.8-73.8,12.3c-13,7.1-34.2,22.9-27.5,40.5C72,160.1,80.1,164.1,87.5,166.2z"/>
	</g>
</g>
<g id="Glyph" class="st0">
	<g class="st1">
		<path d="M129.5,19.1C69,19.1,20,68.1,20,128.6s49,109.5,109.5,109.5S239,189,239,128.6S190,19.1,129.5,19.1z M103.9,224.2
			c-1.1,0.7-2.6,0.3-3.3-0.8s-0.3-2.6,0.8-3.3c1.1-0.7,2.6-0.3,3.3,0.8C105.3,222,105,223.5,103.9,224.2z M180.3,213.7
			c-21.7,12.9-47,17-71.7,11.8c-2.4-0.5-1.4-4.1,1-3.6c23.7,5,47.9,1,68.8-11.4C180.5,209.2,182.4,212.5,180.3,213.7z M128.6,191.4
			c-51.5,0-93.3-29.3-93.3-65.3c0-36.1,41.8-65.3,93.3-65.3c39.6,0,73.5,17.3,87,41.6c-12.1-17.8-51.6-21.9-93.2-8.7
			c-45.3,14.4-75.9,43.9-68.2,66c7.6,22,50.5,28.2,95.8,13.8c44.7-14.2,75-43.1,68.5-65.1c2.2,5.6,3.5,11.5,3.5,17.7
			C221.9,162.1,180.1,191.4,128.6,191.4z M137.3,158.9c-31.9,10.1-62.1,5.8-67.4-9.7c-5.4-15.5,16.1-36.3,48-46.4
			c31.9-10.1,62.1-5.8,67.4,9.7C190.7,128,169.2,148.7,137.3,158.9z"/>
	</g>
</g>
</svg>
