<?xml version="1.0" encoding="utf-8"?>
<!-- Generator: Adobe Illustrator 23.0.3, SVG Export Plug-In . SVG Version: 6.00 Build 0)  -->
<svg version="1.1" xmlns="http://www.w3.org/2000/svg" xmlns:xlink="http://www.w3.org/1999/xlink" x="0px" y="0px"
	 viewBox="0 0 256 256" style="enable-background:new 0 0 256 256;" xml:space="preserve">
<style type="text/css">
	.st0{display:none;}
	.st1{display:inline;}
</style>
<g id="SOURCE" class="st0">
	<g class="st1">
		<g>
			<path d="M135.9,223.7c-0.5,7.9-7.1,8.4-13.1,8.4c-6.1,0-12.1,0-18.2,0c-15.4,0-30.9,0-46.3,0c-8.2,0-20.5,2.1-20.5-9.8
				c0-8.7,0-17.3,0-26c0-31.3,0-62.6,0-93.9c0-10.9,0-21.9,0-32.8c0-1.7,0-3.5,0-5.2c0-7.7,6.9-8.4,12.6-8.4c25.5,0,51.1,0,76.6,0
				c10.7,0,8.9,11.5,8.9,18.7c0,12.6,0,25.1,0,37.7C135.9,149.4,135.9,186.5,135.9,223.7c0,2.5,3.9,2.5,3.9,0c0-49.3,0-98.6,0-148
				c0-7.3,1.5-16.1-5-21.2c-3.4-2.7-7.5-2.4-11.5-2.4c-5.9,0-11.8,0-17.8,0c-15.5,0-31,0-46.5,0c-10.1,0-24.3-1.8-25.1,12.3
				c-0.4,6,0,12,0,18c0,14.1,0,28.2,0,42.3c0,29.2,0,58.4,0,87.6c0,7.3-1.5,16.1,5,21.2c3.4,2.7,7.5,2.4,11.5,2.4
				c5.9,0,11.8,0,17.8,0c15.5,0,31,0,46.5,0c10.1,0,24.3,1.8,25.1-12.3C139.9,221.2,136.1,221.2,135.9,223.7z"/>
		</g>
	</g>
	<g class="st1">
		<g>
			<path d="M123,199.3c-0.7,7.4-9.6,5.8-14.7,5.8c-7.6,0-15.3,0-22.9,0c-7.3,0-14.7,0-22,0c-4.6,0-12.6,1.2-12.6-5.9
				c0-24.3,0-48.6,0-72.8c0-13,0-26,0-38.9c0-2.1,0-4.2,0-6.3c0-7.4,10-5.8,14.7-5.8c15,0,29.9,0,44.9,0c4.6,0,12.6-1.2,12.6,5.9
				c0,2.6,0,5.2,0,7.8C123,125.7,123,162.5,123,199.3c0,2.4,3.8,2.4,3.8,0c0-23.3,0-46.7,0-70c0-13.5,0-26.9,0-40.4
				c0-7.9,0.3-17.4-10.6-17.4c-13.5,0-27,0-40.6,0c-8.2,0-28.6-3.6-28.6,9.6c0,23.7,0,47.3,0,71c0,13.1,0,26.2,0,39.4
				c0,7.9-0.3,17.4,10.6,17.4c13.2,0,26.4,0,39.6,0c6,0,12,0,18,0c6.2,0,11-2.9,11.6-9.6C126.9,196.9,123.2,196.9,123,199.3z"/>
		</g>
	</g>
	<g class="st1">
		<g>
			<path d="M93.1,220.1c-0.4,6.9-10.4,6.9-10.8,0C82,213.2,92.8,213.2,93.1,220.1c0.1,2.4,3.9,2.4,3.8,0c-0.3-5.2-4-8.8-9.1-9.1
				c-5.1-0.3-8.9,4.4-9.1,9.1c-0.3,5.1,4.4,8.9,9.1,9.1c5.1,0.3,8.9-4.4,9.1-9.1C97,217.7,93.3,217.7,93.1,220.1z"/>
		</g>
	</g>
	<g class="st1">
		<g>
			<path d="M65,143.4c5.7-9,11.3-18,17-27c-1.1,0-2.2,0-3.2,0c4.2,8.2,8.3,16.5,12.5,24.7c0.7,1.3,2.5,1.1,3.2,0
				c2.8-4.4,5.7-8.8,8.5-13.2c-1,0.1-2,0.3-2.9,0.4c3.2,3.8,6.3,7.7,9.5,11.5c1.5,1.9,4.2-0.8,2.7-2.7c-3.2-3.8-6.3-7.7-9.5-11.5
				c-0.8-1-2.3-0.6-2.9,0.4c-2.8,4.4-5.7,8.8-8.5,13.2c1.1,0,2.2,0,3.2,0c-4.2-8.2-8.3-16.5-12.5-24.7c-0.7-1.3-2.5-1.1-3.2,0
				c-5.7,9-11.3,18-17,27C60.4,143.6,63.7,145.5,65,143.4L65,143.4z"/>
		</g>
	</g>
	<g class="st1">
		<g>
			<path d="M140.3,171.3c27.8,0,55.7,0,83.5,0c0.8,0,1.6-0.6,1.8-1.4c1.7-8,3.3-16,5-23.9c0.2-1.2-0.5-2.4-1.8-2.4
				c-24.3,0-48.6,0-72.9,0c0.6,0.8,1.2,1.6,1.8,2.4c1.8-8.7,3.6-17.4,5.5-26.1c0.4-2-1.5,0.4,0.3-0.3c1.8-0.8,3.6-1.5,5.4-2.3
				c5.3-2.3,10.6-4.5,15.9-6.8c3.5-1.5,7.2-2.6,8.7-6.5c1-2.7-2.7-9.1-5.6-9.4c-4.1-0.4-8.4,2.3-12.1,3.8c-4.1,1.8-8.3,3.5-12.4,5.3
				c0.9,0.7,1.8,1.4,2.8,2.1c5.5-26.4,11-52.7,16.5-79.1c0.2-1.2-0.5-2.4-1.8-2.4c-9.8,0-19.6,0-29.4,0c-0.8,0-1.6,0.6-1.8,1.4
				c-4.5,21.5-9,43-13.5,64.4c-0.5,2.4,3.1,3.4,3.6,1c4.5-21.5,9-43,13.5-64.4c-0.6,0.5-1.2,0.9-1.8,1.4c9.8,0,19.6,0,29.4,0
				c-0.6-0.8-1.2-1.6-1.8-2.4c-5.5,26.4-11,52.7-16.5,79.1c-0.4,1.7,1.2,2.8,2.8,2.1c6.8-2.9,13.5-6.3,20.5-8.6
				c2.7-0.9,3.4,3.2,4.2,5c0.3,0.8-3.2,2.2-4.2,2.7c-4.2,1.8-8.5,3.6-12.7,5.5c-3.8,1.6-7.6,3.2-11.3,4.9c-2.1,0.9-2,2.6-2.5,4.7
				c-1.7,8-3.3,16-5,24c-0.2,1.2,0.5,2.4,1.8,2.4c24.3,0,48.6,0,72.9,0c-0.6-0.8-1.2-1.6-1.8-2.4c-1.7,8-3.3,16-5,23.9
				c0.6-0.5,1.2-0.9,1.8-1.4c-27.8,0-55.7,0-83.5,0C137.8,167.5,137.8,171.3,140.3,171.3L140.3,171.3z"/>
		</g>
	</g>
</g>
<g id="Line_Expand">
	<g>
		<path d="M116.1,71.5c-13.5,0-27,0-40.6,0c-8.2,0-28.6-3.6-28.6,9.6c0,23.7,0,47.3,0,71c0,13.1,0,26.2,0,39.4
			c0,7.9-0.3,17.4,10.6,17.4c13.2,0,26.4,0,39.6,0c6,0,12,0,18,0c6,0,10.7-2.7,11.5-9.1c0-0.2,0.1-0.3,0.1-0.5c0-23.3,0-46.7,0-70
			c0-13.5,0-26.9,0-40.4C126.7,81.1,127,71.5,116.1,71.5z M108.2,205.1c-7.6,0-15.3,0-22.9,0c-7.3,0-14.7,0-22,0
			c-4.6,0-12.6,1.2-12.6-5.9c0-24.3,0-48.6,0-72.8c0-13,0-26,0-38.9c0-2.1,0-4.2,0-6.3c0-7.4,10-5.8,14.7-5.8c15,0,29.9,0,44.9,0
			c4.6,0,12.6-1.2,12.6,5.9c0,2.6,0,5.2,0,7.8c0,36.8,0,73.6,0,110.4C122.3,206.7,113.4,205.1,108.2,205.1z"/>
		<path d="M96.8,219.5c-0.5-4.9-4.1-8.3-9.1-8.6c-5.1-0.3-8.9,4.4-9.1,9.1c-0.3,5.1,4.4,8.9,9.1,9.1c4.9,0.3,8.6-4,9.1-8.6
			c0-0.2,0.1-0.4,0.1-0.6C96.9,219.9,96.9,219.7,96.8,219.5z M82.4,220.1c-0.4-6.9,10.4-6.9,10.8,0C92.8,227,82.7,227,82.4,220.1z"
			/>
		<path d="M102.7,125.7c-0.8-1-2.3-0.6-2.9,0.4c-2.2,3.5-4.5,6.9-6.7,10.4c-3.7-7.3-7.4-14.6-11.1-21.9c-0.7-1.3-2.5-1.1-3.2,0
			c-5.7,9-11.3,18-17,27c-1.3,2.1,2,3.9,3.2,1.9c5.1-8,10.1-16.1,15.2-24.1c3.7,7.3,7.4,14.6,11.1,21.8c0.7,1.3,2.5,1.1,3.2,0
			c2.4-3.7,4.7-7.3,7.1-11c2.7,3.2,5.3,6.4,8,9.7c1.5,1.9,4.2-0.8,2.7-2.7C109,133.3,105.8,129.5,102.7,125.7z"/>
		<path d="M173.5,52.1c-1.1,5.3-2.2,10.5-3.3,15.8c-0.5,2.4,3.1,3.4,3.6,1c1.1-5.3,2.2-10.5,3.3-15.8
			C177.6,50.7,174,49.7,173.5,52.1z"/>
		<path d="M228.8,143.6c-23.5,0-47,0-70.5,0c1.7-7.9,3.3-15.8,5-23.7c0-0.1,0-0.2,0-0.2c0.1,0,0.2-0.1,0.3-0.1
			c1.8-0.8,3.6-1.5,5.4-2.3c5.3-2.3,10.6-4.5,15.9-6.8c3.5-1.5,7.2-2.6,8.7-6.5c1-2.7-2.7-9.1-5.6-9.4c-4.1-0.4-8.4,2.3-12.1,3.8
			c-3,1.3-5.9,2.5-8.9,3.8c1.5-7.4,3.1-14.8,4.6-22.2c0.5-2.4-3.1-3.4-3.6-1c-1.8,8.6-3.6,17.2-5.4,25.8c-0.4,1.7,1.2,2.8,2.8,2.1
			c6.8-2.9,13.5-6.3,20.5-8.6c2.7-0.9,3.4,3.2,4.2,5c0.3,0.8-3.2,2.2-4.2,2.7c-4.2,1.8-8.5,3.6-12.7,5.5c-3.8,1.6-7.6,3.2-11.3,4.9
			c-2.1,0.9-2,2.6-2.5,4.7c-1.7,8-3.3,16-5,24c-0.2,1.2,0.5,2.4,1.8,2.4c23.5,0,47,0,70.5,0c-1.4,6.7-2.8,13.5-4.2,20.2
			c-18.3,0-36.7,0-55,0c-2.4,0-2.4,3.8,0,3.8c18.8,0,37.7,0,56.5,0c0.8,0,1.6-0.6,1.8-1.4c1.7-8,3.3-16,5-23.9
			C230.8,144.8,230,143.6,228.8,143.6z"/>
		<path d="M154.1,167.5c-4.6,0-9.3,0-13.9,0c-0.2,0-0.3,0-0.5,0.1c0-25.5,0-51,0-76.6c4.4-21,8.8-41.9,13.2-62.9c8.5,0,17,0,25.6,0
			c-0.8,4-1.7,8-2.5,11.9c-0.5,2.4,3.1,3.4,3.6,1c1-4.8,2-9.5,3-14.3c0.2-1.2-0.5-2.4-1.8-2.4c-9.8,0-19.6,0-29.4,0
			c-0.8,0-1.6,0.6-1.8,1.4c-3.3,15.6-6.5,31.1-9.8,46.7c0.2-6.5,0.5-13.6-5-18c-3.4-2.7-7.5-2.4-11.5-2.4c-5.9,0-11.8,0-17.8,0
			c-15.5,0-31,0-46.5,0c-10.1,0-24.3-1.8-25.1,12.3c-0.4,6,0,12,0,18c0,14.1,0,28.2,0,42.3c0,29.2,0,58.4,0,87.6
			c0,7.3-1.5,16.1,5,21.2c3.4,2.7,7.5,2.4,11.5,2.4c5.9,0,11.8,0,17.8,0c15.5,0,31,0,46.5,0c10.1,0,24.3,1.8,25.1-12.3
			c0-17.5,0-35,0-52.5c0.1,0,0.3,0.1,0.5,0.1c4.6,0,9.3,0,13.9,0C156.5,171.3,156.5,167.5,154.1,167.5z M122.8,232.1
			c-6.1,0-12.1,0-18.2,0c-15.4,0-30.9,0-46.3,0c-8.2,0-20.5,2.1-20.5-9.8c0-8.7,0-17.3,0-26c0-31.3,0-62.6,0-93.9
			c0-10.9,0-21.9,0-32.8c0-1.7,0-3.5,0-5.2c0-7.7,6.9-8.4,12.6-8.4c25.5,0,51.1,0,76.6,0c10.7,0,8.9,11.5,8.9,18.7
			c0,12.6,0,25.1,0,37.7c0,37.1,0,74.2,0,111.3C135.4,231.6,128.8,232.1,122.8,232.1z"/>
	</g>
</g>
<g id="Glyph" class="st0">
	<g class="st1">
		<path d="M102.7,125.7c-0.8-1-2.3-0.6-2.9,0.4c-2.2,3.5-4.5,6.9-6.7,10.4c-3.7-7.3-7.4-14.6-11.1-21.9c-0.7-1.3-2.5-1.1-3.2,0
			c-5.7,9-11.3,18-17,27c-1.3,2.1,2,3.9,3.2,1.9c5.1-8,10.1-16.1,15.2-24.1c3.7,7.3,7.4,14.6,11.1,21.8c0.7,1.3,2.5,1.1,3.2,0
			c2.4-3.7,4.7-7.3,7.1-11c2.7,3.2,5.3,6.4,8,9.7c1.5,1.9,4.2-0.8,2.7-2.7C109,133.3,105.8,129.5,102.7,125.7z"/>
		<path d="M155.9,147.3c-1.3,0-2.1-1.2-1.8-2.4c1.7-8,3.3-16,5-24c0.4-2.1,0.4-3.8,2.5-4.7c3.8-1.6,7.6-3.2,11.3-4.9
			c4.3-1.8,8.5-3.6,12.7-5.5c1-0.4,4.5-1.9,4.2-2.7c-0.7-1.7-1.5-5.9-4.2-5c-7,2.3-13.7,5.7-20.5,8.6c-1.5,0.6-3.1-0.4-2.8-2.1
			c5.3-25.6,10.7-51.2,16-76.7c-8.5,0-17,0-25.6,0c-4.4,21-8.8,41.9-13.2,62.9c0,25.5,0,51,0,76.6c0.1,0,0.3-0.1,0.5-0.1
			c27.3,0,54.7,0,82,0c1.4-6.7,2.8-13.5,4.2-20.2C203,147.3,179.4,147.3,155.9,147.3z"/>
		<path d="M127,55.9c-25.5,0-51.1,0-76.6,0c-5.7,0-12.6,0.8-12.6,8.4c0,1.7,0,3.5,0,5.2c0,10.9,0,21.9,0,32.8c0,31.3,0,62.6,0,93.9
			c0,8.7,0,17.3,0,26c0,11.8,12.4,9.8,20.5,9.8c15.4,0,30.9,0,46.3,0c6.1,0,12.1,0,18.2,0c6,0,12.6-0.5,13.1-8.4
			c0-37.1,0-74.2,0-111.3c0-12.6,0-25.1,0-37.7C135.9,67.5,137.6,55.9,127,55.9z M82.4,220.1c-0.4-6.9,10.4-6.9,10.8,0
			C92.8,227,82.7,227,82.4,220.1z M123,88.9c0,36.8,0,73.6,0,110.4c-0.7,7.4-9.6,5.8-14.7,5.8c-7.6,0-15.3,0-22.9,0
			c-7.3,0-14.7,0-22,0c-4.6,0-12.6,1.2-12.6-5.9c0-24.3,0-48.6,0-72.8c0-13,0-26,0-38.9c0-2.1,0-4.2,0-6.3c0-7.4,10-5.8,14.7-5.8
			c15,0,29.9,0,44.9,0c4.6,0,12.6-1.2,12.6,5.9C123,83.8,123,86.3,123,88.9z"/>
	</g>
</g>
</svg>
