<?xml version="1.0" encoding="utf-8"?>
<!-- Generator: Adobe Illustrator 23.0.3, SVG Export Plug-In . SVG Version: 6.00 Build 0)  -->
<svg version="1.1" xmlns="http://www.w3.org/2000/svg" xmlns:xlink="http://www.w3.org/1999/xlink" x="0px" y="0px"
	 viewBox="0 0 256 256" style="enable-background:new 0 0 256 256;" xml:space="preserve">
<style type="text/css">
	.st0{display:none;}
	.st1{display:inline;}
</style>
<g id="SOURCE" class="st0">
	<g class="st1">
		<g>
			<path d="M219.3,128.8c-0.2,24.2-9.3,47.1-25.9,64.7c-1.7,1.8,1,4.4,2.7,2.7c17.2-18.4,26.8-42.2,27-67.4
				C223,126.3,219.3,126.3,219.3,128.8L219.3,128.8z"/>
		</g>
	</g>
	<circle class="st1" cx="191.6" cy="199.6" r="2.4"/>
	<g class="st1">
		<g>
			<path d="M139.3,142.7c-0.3,8.4-6.5,14.6-14.9,14.9c-8.4,0.3-14.6-7-14.9-14.9c-0.3-8.4,7-14.6,14.9-14.9
				C132.7,127.4,138.9,134.8,139.3,142.7c0.1,2.4,3.8,2.4,3.8,0c-0.4-10.5-8.2-18.2-18.7-18.7c-10.5-0.4-18.3,8.8-18.7,18.7
				c-0.4,10.5,8.8,18.3,18.7,18.7c10.5,0.4,18.3-8.8,18.7-18.7C143.1,140.2,139.4,140.3,139.3,142.7z"/>
		</g>
	</g>
	<g class="st1">
		<g>
			<path d="M180.9,140.2c-13.1,0-26.2-0.1-39.3-0.1c0.6,0.5,1.2,0.9,1.8,1.4c-0.6-3.8-2.6-7.4-4.4-10.7c-0.1,0.8-0.2,1.5-0.3,2.3
				c9-9.3,18.1-18.6,27.1-27.9c-0.9,0-1.8,0-2.7,0c9.5,9.6,15,23.7,15.9,37c0.2,2.4,3.9,2.4,3.8,0c-1-14.3-6.8-29.3-17-39.6
				c-0.7-0.7-1.9-0.7-2.7,0c-9,9.3-18.1,18.6-27.1,27.9c-0.6,0.6-0.7,1.5-0.3,2.3c1.7,3.1,3.5,6.3,4.1,9.8c0.1,0.8,1,1.4,1.8,1.4
				c13.1,0,26.2,0.1,39.3,0.1C183.4,143.9,183.4,140.2,180.9,140.2z"/>
		</g>
	</g>
	<g class="st1">
		<g>
			<path d="M76.8,118.3c2.3-4.7,5-9.5,8.7-13.3c-0.9,0-1.8,0-2.7,0c9.2,9,18.4,18.1,27.5,27.1c-0.1-0.8-0.2-1.5-0.3-2.3
				c-2.7,4-4.7,8.8-4.5,13.7c0.6-0.6,1.3-1.3,1.9-1.9c-12.5-0.1-24.9-0.3-37.4-0.4c0.6,0.6,1.3,1.3,1.9,1.9
				C72.5,134.9,73.5,126,76.8,118.3c0.9-2.2-2.3-4.1-3.2-1.9c-3.6,8.3-4.8,17.8-5.4,26.8c-0.1,1,0.9,1.9,1.9,1.9
				c12.5,0.1,24.9,0.3,37.4,0.4c1,0,1.9-0.9,1.9-1.9c-0.2-4.3,1.6-8.4,4-11.9c0.5-0.7,0.3-1.7-0.3-2.3c-9.2-9-18.4-18.1-27.5-27.1
				c-0.7-0.7-1.9-0.7-2.7,0c-3.9,4-6.9,9-9.3,14C72.6,118.6,75.8,120.5,76.8,118.3z"/>
		</g>
	</g>
	<g class="st1">
		<g>
			<path d="M83,104.9c9.2,9.2,18.5,18.4,27.7,27.6c0.7,0.7,2,0.8,2.7,0c2.9-3.3,7.5-4.8,11.7-5.8c0.8-0.2,1.3-1,1.4-1.8
				c0.5-13.1,1-26.1,1.5-39.2c0-1-0.9-1.9-1.9-1.9c-15.7,0.5-32.3,6.8-43.1,18.3c-1.6,1.8,1,4.4,2.7,2.7
				c10.1-10.8,25.7-16.8,40.4-17.2c-0.6-0.6-1.3-1.3-1.9-1.9c-0.5,13.1-1,26.1-1.5,39.2c0.5-0.6,0.9-1.2,1.4-1.8
				c-4.8,1-10,2.9-13.4,6.7c0.9,0,1.8,0,2.7,0c-9.2-9.2-18.5-18.4-27.7-27.6C83.9,100.6,81.3,103.2,83,104.9z"/>
		</g>
	</g>
	<g class="st1">
		<g>
			<path d="M124.1,85.9c-0.6,13-1.1,26-1.7,39.1c0,1,0.9,1.9,1.9,1.9c4.6,0,8.7,3,11.8,6.2c0.7,0.7,2,0.7,2.7,0
				c9.1-9.3,18.2-18.6,27.4-28c0.8-0.8,0.7-1.9,0-2.7c-9.7-11.4-25.1-18.7-40.1-18.4c-2.4,0-2.4,3.8,0,3.8
				c14-0.2,28.3,6.7,37.4,17.3c0-0.9,0-1.8,0-2.7c-9.1,9.3-18.2,18.6-27.4,28c0.9,0,1.8,0,2.7,0c-3.7-3.9-8.8-7.3-14.4-7.3
				c0.6,0.6,1.3,1.3,1.9,1.9c0.6-13,1.1-26,1.7-39.1C127.9,83.5,124.2,83.5,124.1,85.9z"/>
		</g>
	</g>
	<g class="st1">
		<g>
			<path d="M180.9,140.8c-13.1,0-26.2,0.1-39.3,0.1c-1.1,0-1.8,0.9-1.9,1.9c-0.2,3.3-2,6.5-3.5,9.3c-0.4,0.8-0.3,1.6,0.3,2.3
				c8.9,9.3,17.8,18.6,26.6,27.9c0.7,0.7,1.9,0.7,2.7,0c10.4-10.2,16.5-25.3,17-39.6c0.1-2.4-3.7-2.4-3.8,0
				c-0.5,13.4-6.2,27.5-15.9,37c0.9,0,1.8,0,2.7,0c-8.9-9.3-17.8-18.6-26.6-27.9c0.1,0.8,0.2,1.5,0.3,2.3c1.9-3.4,3.8-7.2,4.1-11.2
				c-0.6,0.6-1.3,1.3-1.9,1.9c13.1,0,26.2-0.1,39.3-0.1C183.4,144.5,183.4,140.8,180.9,140.8z"/>
		</g>
	</g>
	<g class="st1">
		<g>
			<path d="M86.4,181.7c8.9-8.8,17.8-17.7,26.6-26.5c0.6-0.6,0.8-1.6,0.3-2.3c-1.8-2.5-4.3-5.8-4-9.1c0.1-1-0.9-1.9-1.9-1.9
				c-12.5,0-24.9,0-37.4,0c-1.1,0-1.8,0.9-1.9,1.9c-1,13.7,7.3,27.6,15.6,37.9c1.5,1.9,4.1-0.8,2.7-2.7
				c-7.7-9.6-15.4-22.6-14.5-35.2c-0.6,0.6-1.3,1.3-1.9,1.9c12.5,0,24.9,0,37.4,0c-0.6-0.6-1.3-1.3-1.9-1.9c-0.3,3.9,2.4,8,4.5,11
				c0.1-0.8,0.2-1.5,0.3-2.3c-8.9,8.8-17.8,17.7-26.6,26.5C82.1,180.7,84.7,183.4,86.4,181.7z"/>
		</g>
	</g>
	<g class="st1">
		<g>
			<path d="M86.6,181.8c8.8-8.8,17.6-17.6,26.4-26.4c-0.9,0-1.8,0-2.7,0c3.7,3.4,8.9,5.1,13.6,6.2c-0.5-0.6-0.9-1.2-1.4-1.8
				c0.4,12.5,0.9,24.9,1.3,37.4c0.6-0.6,1.3-1.3,1.9-1.9c-14.3,0.4-29-6.4-39.2-16.1c-1.8-1.7-4.4,1-2.7,2.7
				c10.9,10.4,26.6,17.6,41.9,17.2c1,0,1.9-0.8,1.9-1.9c-0.4-12.5-0.9-24.9-1.3-37.4c0-0.8-0.5-1.6-1.4-1.8c-4.2-0.9-8.8-2.2-12-5.2
				c-0.7-0.7-1.9-0.7-2.7,0c-8.8,8.8-17.6,17.6-26.4,26.4C82.2,180.8,84.9,183.5,86.6,181.8z"/>
		</g>
	</g>
	<g class="st1">
		<g>
			<path d="M127.8,197.2c-0.6-12.5-1.1-25-1.7-37.5c-0.6,0.6-1.3,1.3-1.9,1.9c5.7,0.1,11-3.2,14.8-7.2c-0.9,0-1.8,0-2.7,0
				c9,9.3,18,18.6,26.9,27.8c0-0.9,0-1.8,0-2.7c-10,9.1-23.9,15.4-37.4,15.8c-2.4,0.1-2.4,3.8,0,3.8c14.6-0.4,29.3-7.1,40-16.9
				c0.8-0.7,0.7-1.9,0-2.7c-9-9.3-18-18.6-26.9-27.8c-0.7-0.7-2-0.7-2.7,0c-3.1,3.3-7.4,6.2-12.2,6.1c-1,0-1.9,0.9-1.9,1.9
				c0.6,12.5,1.1,25,1.7,37.5C124.2,199.6,127.9,199.6,127.8,197.2z"/>
		</g>
	</g>
	<g class="st1">
		<g>
			<path d="M125.8,83.6c-9.7,0.3-19.3,2.9-28,7.2c-5.2,2.6-11.9,6.9-14.4,12.5c1.2,0.3,2.3,0.6,3.5,0.9c0-19.4,0-38.8,0-58.3
				c-1.1,0.4-2.1,0.9-3.2,1.3c13.6,13.2,27.2,26.3,40.7,39.5c1.7,1.7,4.4-1,2.7-2.7C113.5,71,99.9,57.8,86.3,44.7
				c-1.2-1.1-3.2-0.3-3.2,1.3c0,19.4,0,38.8,0,58.3c0,1.8,2.7,2.7,3.5,0.9c2.1-4.7,7.4-8,11.7-10.4c8.1-4.6,18.1-7.2,27.5-7.4
				C128.2,87.3,128.2,83.6,125.8,83.6z"/>
		</g>
	</g>
	<g class="st1">
		<g>
			<path d="M235.1,131.5c-0.3,46.9-31,88.7-75.8,102.8c-45.1,14.2-95-4.1-121.3-43c-26.5-39.1-23.2-92.5,6.8-128.8
				c30.1-36.4,82-48.4,125.3-30C209.4,49.4,234.8,89.1,235.1,131.5c0,2.4,3.8,2.4,3.8,0c-0.3-44.1-26.5-84.3-66.9-102.1
				c-40.5-17.9-88.7-8.9-120.9,21.1C18.5,80.8,7.8,129.2,23.2,170.7c15.1,40.9,54.1,69,97.3,72c30.6,2.1,61-9.3,83.4-30.1
				c22.4-20.8,34.8-50.6,35-81C238.9,129.1,235.1,129.1,235.1,131.5z"/>
		</g>
	</g>
</g>
<g id="Line_Expand">
	<g>
		<path d="M232.5,95.1c-3.3-9.8-7.8-19-13.5-27.6c-1.3-2-4.6-0.1-3.2,1.9c5.5,8.3,9.9,17.2,13.1,26.7
			C229.7,98.3,233.3,97.4,232.5,95.1z"/>
		<path d="M234.3,129.8c-0.3,46.9-31,88.7-75.8,102.8c-45.1,14.2-95-4.1-121.3-43C10.7,150.5,14,97.1,44,60.9
			c32-38.7,88-49.4,132.4-26.6c10.4,5.3,19.8,12.6,27.9,20.9c1.7,1.7,4.3-0.9,2.7-2.7C172.6,17.3,118.7,8.5,75,31
			C35.8,51.3,12.6,94.3,15.6,138.1c3,43.5,32.6,81.4,73.2,96.4c41.7,15.4,89.7,3,119.8-29.3c19-20.4,29.3-47.7,29.5-75.5
			C238,127.3,234.3,127.3,234.3,129.8z"/>
		<path d="M196,196.1c17.2-18.4,26.8-42.2,27-67.4c0-2.4-3.7-2.4-3.8,0c-0.2,24.2-9.3,47.1-25.9,64.7
			C191.7,195.2,194.4,197.9,196,196.1z"/>
		<circle cx="191.6" cy="199.6" r="2.4"/>
		<path d="M166.3,102.9c-0.1-0.1-0.2-0.3-0.3-0.4c-9.5-11.1-24.4-18.3-39-18.4c-0.1-0.1-0.1-0.1-0.2-0.2
			c-13.5-13.1-27-26.2-40.5-39.2c-1.2-1.1-3.2-0.3-3.2,1.3c0,18.7,0,37.4,0,56.1c0,0.1-0.1,0.1-0.2,0.2c0,0,0,0,0,0c0,0,0,0-0.1,0
			c-3.9,4-6.8,9-9.3,14c-1.1,2.2,2.2,4.1,3.2,1.9c2-4.2,4.4-8.4,7.4-11.9c4.7,4.7,9.5,9.3,14.2,14c3.6,3.6,7.2,7.2,10.8,10.8
			c-2,3.2-3.4,6.8-3.7,10.6c-11.8-0.1-23.7-0.3-35.5-0.4c-1.3,0-1.9,1-1.8,2c0,0.1-0.1,0.3-0.1,0.4c-0.7,9.6,3.2,18.7,7.9,26.8
			c1.2,2.1,4.5,0.2,3.2-1.9c-4.1-7.1-7.6-14.8-7.5-23.1c11.3,0,22.5,0,33.8,0c0.2,1.1,0.5,2.2,1,3.3c0.6,1.7,1.5,3.2,2.6,4.6
			c-8.5,8.5-17,16.9-25.5,25.4c-0.9,0.9-0.6,2,0.1,2.7c0,0,0,0,0.1,0.1c10.8,10.2,26.2,17.4,41.3,17.2c0.2,0.1,0.4,0.1,0.7,0.1
			c14.6-0.4,29.3-7.1,40-16.9c0.1-0.1,0.2-0.3,0.3-0.4c10.1-10.1,15.9-25,16.5-39.1c0-0.1,0-0.1,0-0.2c0-0.1,0-0.3,0-0.4
			C181.9,128,176.1,113.2,166.3,102.9z M178.9,140.2c-11.9,0-23.8-0.1-35.8-0.1c-0.7-2.8-2-5.5-3.4-8c8.3-8.5,16.6-17,24.9-25.4
			C172.7,115.7,177.7,128.1,178.9,140.2z M97.8,90.8c-3.6,1.8-7.8,4.3-10.9,7.6c0-16,0-32,0-48c11.5,11.2,23,22.3,34.6,33.5
			C113.2,84.7,105.1,87.2,97.8,90.8z M87.3,103.9c0.4-0.7,0.9-1.4,1.5-2.1c9.5-8.4,22.6-13.3,35.2-14.1c-0.5,11.9-1,23.9-1.6,35.8
			c-1.2,0.3-2.3,0.6-3.5,1.1c-1.9,0.6-3.7,1.5-5.3,2.6c-0.6,0.4-1.1,0.8-1.6,1.2c-3.6-3.6-7.3-7.2-10.9-10.8
			C96.5,113.2,91.9,108.6,87.3,103.9z M111.4,135.2c2.7-4.4,7.7-7.2,13-7.4c8.4-0.3,14.6,7,14.9,14.9c-0.3,8.4-6.5,14.6-14.9,14.9
			c-0.2,0-0.4,0-0.6,0c-3.2-0.7-6.5-1.8-9.2-3.7c-3.1-2.8-5-6.9-5.1-11.2c0-0.4,0-0.8,0-1.1C109.7,139.3,110.4,137.2,111.4,135.2z
			 M111.8,156.5c0.5,0.4,1.1,0.8,1.6,1.1c2.6,1.8,5.7,3.1,9,3.5c0.4,8.8,0.8,17.6,1.2,26.3c0.1,2.6,0.2,5.1,0.3,7.7
			c-13.1-0.2-26.3-6.2-35.9-14.8C95.9,172.4,103.9,164.5,111.8,156.5z M127.4,187.5c-0.3-8.7-0.6-17.4-0.9-26.1
			c1-0.1,2.1-0.4,3.1-0.7c2.6-0.8,5-2.2,7-4c0.4-0.3,0.8-0.7,1.2-1c1.6,1.7,3.2,3.3,4.8,5c6.4,6.7,12.9,13.5,19.3,20.2
			c-9.4,7.9-21.8,13.5-34.1,14.3C127.6,192.6,127.5,190.1,127.4,187.5z M164.6,178.1c-6.5-6.7-13-13.4-19.5-20.1
			c-1.7-1.8-3.4-3.5-5-5.3c1.3-2.5,2.6-5.3,3.1-8.1c11.9,0,23.8-0.1,35.7-0.1C178.1,156.7,173,169.2,164.6,178.1z M162,103.6
			c-8.2,8.5-16.5,17-24.7,25.5c-3-2.8-6.7-5.1-10.8-5.8c0.4-11.8,0.9-23.7,1.3-35.5C140.5,88.2,153.2,94.3,162,103.6z"/>
	</g>
</g>
<g id="Glyph" class="st0">
	<g class="st1">
		<path d="M127.5,22C67,22,18,71.1,18,131.5S67,241,127.5,241S237,192,237,131.5S188,22,127.5,22z M178.9,140.2
			c-11.9,0-23.8-0.1-35.8-0.1c-0.7-2.8-2-5.5-3.4-8c8.3-8.5,16.6-17,24.9-25.4C172.7,115.7,177.7,128.1,178.9,140.2z M127.8,87.8
			c12.7,0.4,25.4,6.5,34.1,15.8c-8.2,8.5-16.5,17-24.7,25.5c-3-2.8-6.7-5.1-10.8-5.8C126.9,111.5,127.4,99.7,127.8,87.8z M86.9,50.4
			c11.5,11.2,23,22.3,34.6,33.5c-8.2,0.8-16.3,3.3-23.6,6.9c-3.6,1.8-7.8,4.3-10.9,7.6C86.9,82.4,86.9,66.4,86.9,50.4z M76.8,118.3
			c2-4.2,4.3-8.4,7.4-11.9c4.7,4.7,9.5,9.4,14.2,14c3.6,3.6,7.2,7.2,10.8,10.8c-2,3.2-3.4,6.8-3.7,10.6c-11.2-0.1-22.4-0.2-33.5-0.4
			C72.7,133.6,73.8,125.4,76.8,118.3z M71.9,145.7c11.3,0,22.5,0,33.8,0c0.4,2.8,2.1,5.6,3.6,7.9c-8,8-16,16-24.1,23.9
			C78.4,168.6,71.8,157.1,71.9,145.7z M88,180.4c7.9-7.9,15.9-15.9,23.8-23.8c3.1,2.3,6.9,3.7,10.6,4.6c0.4,8.8,0.8,17.6,1.2,26.4
			c0.1,2.6,0.2,5.1,0.3,7.7C110.8,194.9,97.6,189,88,180.4z M122.4,123.6c-3.7,0.9-7.5,2.4-10.3,4.9c-3.6-3.6-7.3-7.2-10.9-10.8
			c-4.6-4.6-9.3-9.2-13.9-13.8c0.4-0.7,0.9-1.4,1.5-2.1c9.5-8.4,22.6-13.3,35.2-14.1C123.5,99.7,123,111.7,122.4,123.6z
			 M127.7,195.2c-0.1-2.6-0.2-5.1-0.4-7.7c-0.3-8.7-0.6-17.4-0.9-26.1c4.2-0.6,8.1-2.8,11.2-5.7c1.6,1.7,3.2,3.3,4.8,5
			c6.4,6.7,12.9,13.5,19.3,20.2C152.4,188.8,140,194.4,127.7,195.2z M164.6,178.1c-6.5-6.7-13-13.4-19.5-20.1
			c-1.7-1.8-3.4-3.5-5-5.3c1.3-2.5,2.6-5.3,3.1-8.1c11.9,0,23.8-0.1,35.7-0.1C178.1,156.7,173,169.2,164.6,178.1z M191.6,202
			c-1.3,0-2.4-1.1-2.4-2.4c0-1.3,1.1-2.4,2.4-2.4c1.3,0,2.4,1.1,2.4,2.4C194,200.9,192.9,202,191.6,202z M196,196.1
			c-1.7,1.8-4.3-0.9-2.7-2.7c16.6-17.6,25.7-40.5,25.9-64.7c0-2.4,3.8-2.4,3.8,0C222.8,153.9,213.3,177.8,196,196.1z"/>
	</g>
</g>
</svg>
