<?xml version="1.0" encoding="utf-8"?>
<!-- Generator: Adobe Illustrator 23.0.3, SVG Export Plug-In . SVG Version: 6.00 Build 0)  -->
<svg version="1.1" xmlns="http://www.w3.org/2000/svg" xmlns:xlink="http://www.w3.org/1999/xlink" x="0px" y="0px"
	 viewBox="0 0 256 256" style="enable-background:new 0 0 256 256;" xml:space="preserve">
<style type="text/css">
	.st0{display:none;}
	.st1{display:inline;}
</style>
<g id="SOURCE" class="st0">
	<g class="st1">
		<g>
			<path d="M218.6,127.8c-0.2,24.2-9.3,47.1-25.9,64.7c-1.7,1.8,1,4.4,2.7,2.7c17.2-18.4,26.8-42.2,27-67.4
				C222.3,125.3,218.6,125.3,218.6,127.8L218.6,127.8z"/>
		</g>
	</g>
	<circle class="st1" cx="189.3" cy="198.6" r="2.4"/>
	<g class="st1">
		<g>
			<path d="M233.6,128.6c-0.3,46.9-31,88.7-75.8,102.8c-45.1,14.2-95-4.1-121.3-43C10,149.3,13.3,95.9,43.3,59.7
				c30.1-36.4,82-48.4,125.3-30C207.9,46.4,233.4,86.1,233.6,128.6c0,2.4,3.8,2.4,3.8,0c-0.3-44.1-26.5-84.3-66.9-102.1
				C129.9,8.6,81.8,17.5,49.6,47.5C17,77.8,6.3,126.2,21.7,167.7c15.1,40.9,54.1,69,97.3,72c30.6,2.1,61-9.3,83.4-30.1
				c22.4-20.8,34.8-50.6,35-81C237.4,126.1,233.6,126.1,233.6,128.6z"/>
		</g>
	</g>
	<g class="st1">
		<g>
			<path d="M156.4,193c-0.9,4.9-9.6-1.6-12.3-3.4c-4.2-2.9-8.5-5.8-12.7-8.6c-13-8.8-26-17.7-39-26.5c-10.4-7.1-20.8-14.2-31.2-21.2
				c-1-0.7-1.9-1.3-2.9-2c-2.4-1.6-2.9-7.2-0.3-8.9c2.4-1.7,4.9-3.3,7.3-5c24-16.3,48.1-32.7,72.1-49c3.1-2.1,6.2-4.2,9.3-6.3
				c1.9-1.3,3.7-2.5,5.9-3.4c4.7-1.9,3.8,5.7,3.8,8.2c0,9.2,0,18.5,0,27.7c0,20.5,0,40.9,0,61.4c0,12.4,0.8,25.2,0,37.5
				c-0.2,2.4,3.6,2.4,3.8,0c0.6-8.8,0-17.8,0-26.6c0-14.5,0-29,0-43.5c0-14.8,0-29.5,0-44.3c0-5.3,2-21.8-2.8-24.2
				c-6.1-3.1-19.2,8.5-24.1,11.8c-12.6,8.6-25.2,17.1-37.8,25.7c-11.3,7.7-22.5,15.3-33.8,23c-1.9,1.3-3.8,2.6-5.7,3.9
				c-4.9,3.4-4.2,12.1,0.5,15.3c18.5,12.6,36.9,25.1,55.4,37.7c9.5,6.5,19,12.9,28.5,19.4c4.8,3.2,17.9,12.6,19.7,2.5
				C160.4,191.6,156.8,190.6,156.4,193z"/>
		</g>
	</g>
	<g class="st1">
		<g>
			<path d="M130.7,136.9c-6.1-3.9-12.3-7.8-18.4-11.7c0,1.1,0,2.2,0,3.2c6.1-4.7,12.3-9.4,18.4-14c-0.9-0.5-1.9-1.1-2.8-1.6
				c0,8.6,0,17.1,0,25.7c0,2.4,3.8,2.4,3.8,0c0-8.6,0-17.1,0-25.7c0-1.3-1.6-2.5-2.8-1.6c-6.1,4.7-12.3,9.4-18.4,14
				c-1.1,0.8-1.3,2.4,0,3.2c6.1,3.9,12.3,7.8,18.4,11.7C130.9,141.4,132.8,138.2,130.7,136.9z"/>
		</g>
	</g>
	<g class="st1">
		<g>
			<path d="M131.1,114.2c6.1-5.8,12.1-11.6,18.2-17.4c-1.1-0.4-2.1-0.9-3.2-1.3c-0.2,32.4-0.4,64.8-0.7,97.2c0,2.4,3.7,2.4,3.8,0
				c0.2-32.4,0.4-64.8,0.7-97.2c0-1.7-2-2.4-3.2-1.3c-6.1,5.8-12.1,11.6-18.2,17.4C126.7,113.2,129.3,115.9,131.1,114.2L131.1,114.2
				z"/>
		</g>
	</g>
	<g class="st1">
		<g>
			<path d="M111,124.3c-6.1-3.9-12.3-7.8-18.4-11.7c0,1.1,0,2.2,0,3.2c22.3-16.2,44.6-32.3,66.8-48.5c1.9-1.4,0.1-4.7-1.9-3.2
				c-22.3,16.2-44.6,32.3-66.8,48.5c-1.1,0.8-1.3,2.4,0,3.2c6.1,3.9,12.3,7.8,18.4,11.7C111.1,128.8,113,125.6,111,124.3L111,124.3z
				"/>
		</g>
	</g>
	<g class="st1">
		<g>
			<path d="M127.9,138.7c-0.3,9.6-0.6,19.2-0.9,28.8c0.9-0.5,1.9-1.1,2.8-1.6c-22.5-15.6-44.9-31.2-67.4-46.8
				c-2-1.4-3.9,1.9-1.9,3.2c22.5,15.6,44.9,31.2,67.4,46.8c1.2,0.8,2.8-0.3,2.8-1.6c0.3-9.6,0.6-19.2,0.9-28.8
				C131.7,136.3,128,136.3,127.9,138.7L127.9,138.7z"/>
		</g>
	</g>
</g>
<g id="Line_Expand">
	<g>
		<path d="M231.8,94.1c-3.3-9.8-7.8-19-13.5-27.6c-1.3-2-4.6-0.1-3.2,1.9c5.5,8.3,9.9,17.2,13.1,26.7
			C229,97.3,232.6,96.4,231.8,94.1z"/>
		<path d="M88.1,233.5c41.7,15.4,89.7,3,119.8-29.3c19-20.4,29.3-47.7,29.5-75.5c0-2.4-3.7-2.4-3.8,0c-0.3,46.9-31,88.7-75.8,102.8
			c-45.1,14.2-95-4.1-121.3-43C10,149.5,13.3,96.1,43.2,59.9c32-38.7,88-49.4,132.4-26.6c10.4,5.3,19.8,12.6,27.9,20.9
			c1.7,1.7,4.3-0.9,2.7-2.7C171.9,16.3,118,7.5,74.3,30C35.1,50.3,11.9,93.3,14.9,137.1C17.9,180.6,47.5,218.5,88.1,233.5z"/>
		<path d="M218.6,127.8c-0.2,24.2-9.3,47.1-25.9,64.7c-1.7,1.8,1,4.4,2.7,2.7c17.2-18.4,26.8-42.2,27-67.4
			C222.3,125.3,218.6,125.3,218.6,127.8z"/>
		<circle cx="189.3" cy="198.6" r="2.4"/>
		<path d="M70.2,143.9c-2-1.4-3.9,1.9-1.9,3.2c3.9,2.6,7.7,5.3,11.6,7.9c2,1.4,3.9-1.9,1.9-3.2C77.9,149.1,74.1,146.5,70.2,143.9z"
			/>
		<path d="M159.5,60.8c-4.4-2.3-9.9,2.1-13.4,4.5c-9.4,6.4-18.8,12.8-28.2,19.2c-15,10.2-30,20.4-45,30.6
			c-7.8,5.3-25.1,13-15.2,24.7c1.6,1.8,4.2-0.8,2.7-2.7c-4-4.7-1.6-7.7,1.6-10.1c0.1,0.4,0.3,0.8,0.8,1.2
			c22.5,15.6,44.9,31.2,67.4,46.7c1.2,0.8,2.8-0.3,2.8-1.6c0.3-9.6,0.6-19.2,0.9-28.7c0,0,0,0,0,0c0.4-1.6,0-3.5,0-5
			c0-7,0.1-13.9,0-20.9c0-0.4-0.1-0.7-0.3-1c4.9-4.1,9.8-8.2,14.6-12.3c-0.1,11.6-0.2,23.2-0.2,34.8c0,2.4,3.7,2.4,3.8,0
			c0.1-12.9,0.2-25.9,0.3-38.8c0-1.7-2-2.3-3.2-1.3c-6.2,5.2-12.3,10.3-18.5,15.5c-0.9,0.8-0.7,1.8-0.1,2.5
			c-0.1,0.2-0.1,0.4-0.1,0.6c0.1,5.1,0,10.3,0,15.4c0,2.4,0,4.7,0,7.1c0,0.2,0,0.4,0,0.6c0,0.2,0,0.4,0,0.7c-0.4-0.2-0.7-0.5-1-0.7
			c-5-3.4-9.9-6.7-14.9-10.1c1.2-0.9,2.5-1.8,3.7-2.6c2.3-1.6,4.5-3.2,6.8-4.9c1.9-1.4,0.1-4.6-1.9-3.2c-2.8,2-5.5,4-8.3,5.9
			c-1.3,0.9-2.7,1.7-3.5,2.8c-4.7-3.2-9.3-6.4-14-9.5c20.5-14.9,41-29.7,61.4-44.6c0,0.9,0,1.8,0,2.7c0,28.7,0,57.4,0,86.1
			c0,7.4-0.1,14.8,0.1,22.1c0.1,4.3,0.6,9-0.1,13.2c-0.4,2.3-4.3,0.7-7.1-0.9c0,0,0-0.1,0-0.1c0-6,0.1-12.1,0.1-18.1
			c0-2.4-3.7-2.4-3.8,0c0,5.3-0.1,10.6-0.1,15.9c-3.9-2.6-7.7-5.2-11.6-7.9c-14.4-9.8-28.9-19.6-43.3-29.5c-2-1.4-3.9,1.9-1.9,3.2
			c18.9,12.8,37.8,25.7,56.6,38.5c3.8,2.6,14.2,6.7,14.8-1.5c0.4-5.4,0-10.8,0-16.1c0-10,0-20,0-30c0-26.6,0-53.1,0-79.7
			c0-0.4,0-0.9,0-1.3c0.1-0.4,0.1-0.8,0.1-1.1C162.7,67.3,163.1,62.7,159.5,60.8z M126.7,144.7c0.9,0.6,2.1,1.6,3.3,2
			c-0.2,7.7-0.5,15.5-0.7,23.2c-21.5-14.9-43-29.8-64.6-44.8c4.4-3,8.8-6,13.3-9c13.1-8.9,26.3-17.9,39.4-26.8
			c9.9-6.7,19.9-13.5,29.8-20.2c0.8-0.5,1.5-1,2.3-1.5c1-0.7,2-1.3,3-1.9c5-3,6,1.2,6.1,5.2c-21.9,15.9-43.8,31.8-65.7,47.6
			c-1.2,0.8-1.2,2.4,0,3.2c6.3,4.3,12.6,8.6,18.8,12.8c0.1,0,0.1,0.1,0.2,0.1c1.3,1.2,3.3,2.1,4.5,2.9
			C119.8,140,123.3,142.3,126.7,144.7z"/>
		<path d="M151.6,164.1c0-4.5,0.1-9.1,0.1-13.6c0-2.4-3.7-2.4-3.8,0c0,4.5-0.1,9.1-0.1,13.6C147.8,166.5,151.6,166.5,151.6,164.1z"
			/>
	</g>
</g>
<g id="Glyph" class="st0">
	<g class="st1">
		<g>
			<path d="M126,19.1c-60.5,0-109.5,49-109.5,109.5s49,109.5,109.5,109.5s109.5-49,109.5-109.5S186.5,19.1,126,19.1z M65.2,117.3
				c24-16.3,48.1-32.7,72.1-49c3.1-2.1,6.2-4.2,9.3-6.3c1.9-1.3,3.7-2.5,5.9-3.4c3.7-1.5,3.9,3.1,3.9,6.3
				c-21.9,15.9-43.8,31.8-65.7,47.7c-1.1,0.8-1.3,2.4,0,3.2c6.1,3.9,12.3,7.8,18.4,11.7c0.2,0.2,0.5,0.2,0.7,0.3
				c0.1,0.2,0.3,0.5,0.6,0.6c5.8,3.7,11.6,7.4,17.5,11.1c-0.3,8.2-0.5,16.3-0.8,24.5c-21.5-14.9-43-29.8-64.6-44.8
				C63.4,118.6,64.3,117.9,65.2,117.3z M114.6,126.7c4.4-3.4,8.9-6.7,13.3-10.1c0,6.2,0,12.4,0,18.5
				C123.5,132.3,119.1,129.5,114.6,126.7z M145.4,190.6c-0.6-0.4-1-0.7-1.4-1c-4.2-2.9-8.5-5.8-12.7-8.6c-13-8.8-26-17.7-39-26.5
				c-10.4-7.1-20.8-14.2-31.2-21.2c-1-0.7-1.9-1.3-2.9-2c-2.4-1.6-2.9-7.2-0.3-8.9c0.6-0.4,1.2-0.8,1.8-1.2c0.1,0.5,0.3,0.9,0.8,1.2
				c22.5,15.6,44.9,31.2,67.4,46.8c1.2,0.8,2.8-0.3,2.8-1.6c0.3-9.6,0.6-19.2,0.9-28.8c0,0,0,0,0,0c0-0.1,0-0.1,0-0.2
				c0-8.3,0-16.6,0-24.9c4.8-4.6,9.6-9.1,14.4-13.7C145.8,130.1,145.6,160.3,145.4,190.6z M156.3,193.2c-0.7,2.7-4,1.5-7.2-0.3
				c0,0,0-0.1,0-0.1c0.2-32.4,0.4-64.8,0.7-97.2c0-1.7-2-2.4-3.2-1.3c-5.9,5.7-11.9,11.3-17.8,17c-5.8,4.4-11.7,8.9-17.5,13.3
				c-0.1-0.1-0.2-0.2-0.3-0.3c-5.3-3.4-10.7-6.8-16-10.2c20.5-14.8,40.9-29.7,61.4-44.5c0,8.4,0,16.7,0,25.1c0,20.5,0,40.9,0,61.4
				C156.3,168.3,157.1,181,156.3,193.2z M189.3,201c-1.3,0-2.4-1.1-2.4-2.4c0-1.3,1.1-2.4,2.4-2.4c1.3,0,2.4,1.1,2.4,2.4
				C191.7,199.9,190.6,201,189.3,201z M195.3,195.1c-1.7,1.8-4.3-0.9-2.7-2.7c16.6-17.6,25.7-40.5,25.9-64.7c0-2.4,3.8-2.4,3.8,0
				C222.1,152.9,212.6,176.8,195.3,195.1z"/>
		</g>
	</g>
</g>
</svg>
