<?xml version="1.0" encoding="utf-8"?>
<!-- Generator: Adobe Illustrator 23.0.3, SVG Export Plug-In . SVG Version: 6.00 Build 0)  -->
<svg version="1.1" xmlns="http://www.w3.org/2000/svg" xmlns:xlink="http://www.w3.org/1999/xlink" x="0px" y="0px"
	 viewBox="0 0 256 256" style="enable-background:new 0 0 256 256;" xml:space="preserve">
<style type="text/css">
	.st0{display:none;}
	.st1{display:inline;}
</style>
<g id="SOURCE" class="st0">
	<g class="st1">
		<g>
			<path d="M221.3,128.8c-0.2,24.2-9.3,47.1-25.9,64.7c-1.7,1.8,1,4.4,2.7,2.7c17.2-18.4,26.8-42.2,27-67.4
				C225,126.3,221.3,126.3,221.3,128.8L221.3,128.8z"/>
		</g>
	</g>
	<circle class="st1" cx="193.6" cy="199.6" r="2.4"/>
	<g class="st1">
		<g>
			<path d="M126.3,59.2c23.6,39.6,47.2,79.2,70.9,118.9c0.1,0.2,0.3,0.4,0.4,0.6c1-0.8,2-1.5,2.9-2.3c-23.8-19-47.5-37.9-71.3-56.9
				c-0.9-0.7-1.8-0.7-2.7,0c-23.8,19-47.5,37.9-71.3,56.9c1,0.8,2,1.5,2.9,2.3c23.6-39.6,47.2-79.2,70.9-118.9
				c0.1-0.2,0.3-0.4,0.4-0.6c1.2-2.1-2-4-3.2-1.9C102.7,97,79.1,136.6,55.4,176.2c-0.1,0.2-0.3,0.4-0.4,0.6c-1.2,2,1.4,3.5,2.9,2.3
				c23.8-19,47.5-37.9,71.3-56.9c-0.9,0-1.8,0-2.7,0c23.8,19,47.5,37.9,71.3,56.9c1.6,1.3,4.1-0.3,2.9-2.3
				c-23.6-39.6-47.2-79.2-70.9-118.9c-0.1-0.2-0.3-0.4-0.4-0.6C128.3,55.3,125.1,57.2,126.3,59.2z"/>
		</g>
	</g>
	<g class="st1">
		<g>
			<path d="M101.3,162.2c9.3-9.3,18.6-18.6,27.9-27.9c-0.9,0-1.8,0-2.7,0c9.3,9.3,18.6,18.6,27.9,27.9c0.4-1.1,0.9-2.1,1.3-3.2
				c-18.6,0-37.2,0-55.9,0c-2.4,0-2.4,3.8,0,3.8c18.6,0,37.2,0,55.9,0c1.6,0,2.5-2,1.3-3.2c-9.3-9.3-18.6-18.6-27.9-27.9
				c-0.7-0.7-1.9-0.7-2.7,0c-9.3,9.3-18.6,18.6-27.9,27.9C97,161.3,99.6,163.9,101.3,162.2z"/>
		</g>
	</g>
	<g class="st1">
		<g>
			<path d="M156.3,179.2c-19.1,0-38.3,0-57.4,0c0.6,0.6,1.3,1.3,1.9,1.9c0-3.6,0-7.2,0-10.8c-0.6,0.6-1.3,1.3-1.9,1.9
				c19.1,0,38.3,0,57.4,0c-0.6-0.6-1.3-1.3-1.9-1.9c0,3.6,0,7.2,0,10.8c0,2.4,3.8,2.4,3.8,0c0-3.6,0-7.2,0-10.8c0-1-0.9-1.9-1.9-1.9
				c-19.1,0-38.3,0-57.4,0c-1,0-1.9,0.9-1.9,1.9c0,3.6,0,7.2,0,10.8c0,1,0.9,1.9,1.9,1.9c19.1,0,38.3,0,57.4,0
				C158.7,183,158.7,179.2,156.3,179.2z"/>
		</g>
	</g>
	<g class="st1">
		<g>
			<path d="M236.4,131.5c-0.3,46.9-31,88.7-75.8,102.8c-45.1,14.2-95-4.1-121.3-43c-26.5-39.1-23.2-92.5,6.8-128.8
				c30.1-36.4,82-48.4,125.3-30C210.7,49.4,236.2,89.1,236.4,131.5c0,2.4,3.8,2.4,3.8,0c-0.3-44.1-26.5-84.3-66.9-102.1
				c-40.5-17.9-88.7-8.9-120.9,21.1C19.9,80.8,9.2,129.2,24.5,170.7c15.1,40.9,54.1,69,97.3,72c30.6,2.1,61-9.3,83.4-30.1
				c22.4-20.8,34.8-50.6,35-81C240.2,129.1,236.5,129.1,236.4,131.5z"/>
		</g>
	</g>
</g>
<g id="Line_Expand">
	<g>
		<path d="M234.5,95.1c-3.3-9.8-7.8-19-13.5-27.6c-1.3-2-4.6-0.1-3.2,1.9c5.5,8.3,9.9,17.2,13.1,26.7
			C231.7,98.3,235.3,97.4,234.5,95.1z"/>
		<path d="M90.8,234.5c41.7,15.4,89.7,3,119.8-29.3c19-20.4,29.3-47.7,29.5-75.5c0-2.4-3.7-2.4-3.8,0c-0.3,46.9-31,88.7-75.8,102.8
			c-45.1,14.2-95-4.1-121.3-43C12.7,150.5,16,97.1,46,60.9c32-38.7,88-49.4,132.4-26.6c10.4,5.3,19.8,12.6,27.9,20.9
			c1.7,1.7,4.3-0.9,2.7-2.7C174.6,17.3,120.7,8.5,77,31C37.8,51.3,14.6,94.3,17.6,138.1C20.6,181.6,50.2,219.5,90.8,234.5z"/>
		<path d="M198,196.1c17.2-18.4,26.8-42.2,27-67.4c0-2.4-3.7-2.4-3.8,0c-0.2,24.2-9.3,47.1-25.9,64.7
			C193.7,195.2,196.4,197.9,198,196.1z"/>
		<circle cx="193.6" cy="199.6" r="2.4"/>
		<path d="M200.8,176.9c-23.6-39.6-47.2-79.2-70.9-118.9c-0.1-0.2-0.3-0.4-0.4-0.6c-0.8-1.3-2.5-1.2-3.2,0
			c-9.4,14.2-18.8,28.3-28.2,42.5c-1.3,2,1.9,3.9,3.2,1.9c8.8-13.3,17.7-26.6,26.5-39.9c21.5,36,43,72.1,64.5,108.1
			c-21-16.8-42-33.6-63.1-50.3c-0.9-0.7-1.8-0.7-2.7,0c-21.9,17.5-43.8,35-65.7,52.4c3-7.7,6.1-15.5,9.1-23.2c0.9-2.3-2.7-3.2-3.6-1
			c-3.8,9.8-7.7,19.7-11.5,29.5c-0.8,2,1.9,2.8,3.1,1.8c23.3-18.6,46.6-37.2,69.9-55.8c23.3,18.6,46.6,37.2,69.9,55.8
			C199.4,180.4,202,178.8,200.8,176.9z"/>
		<path d="M79.3,134.9c4.7-7.1,9.4-14.1,14-21.2c1.3-2-1.9-3.9-3.2-1.9c-4.7,7.1-9.4,14.1-14,21.2C74.7,135,78,136.9,79.3,134.9z"/>
		<path d="M99.9,162.8C99.9,162.8,100,162.8,99.9,162.8c0.1,0,0.1,0,0.1,0c18.6,0,37.2,0,55.9,0c1.6,0,2.5-2,1.3-3.2
			c-9.3-9.3-18.6-18.6-27.9-27.9c-0.7-0.7-1.9-0.7-2.7,0c-9.3,9.3-18.6,18.6-27.9,27.9c0,0,0,0,0,0c0,0,0,0,0,0
			c-0.6,0.6-0.6,1.4-0.3,2C98.5,162.3,99.1,162.7,99.9,162.8z M151.3,159c-15.6,0-31.2,0-46.8,0c7.8-7.8,15.6-15.6,23.4-23.4
			C135.7,143.4,143.5,151.2,151.3,159z"/>
		<path d="M97,170.3c0,3.6,0,7.2,0,10.8c0,1,0.9,1.9,1.9,1.9c19.1,0,38.3,0,57.4,0c0.6,0,1-0.2,1.3-0.5c0,0,0,0,0.1-0.1c0,0,0,0,0,0
			c0.3-0.3,0.5-0.7,0.5-1.3c0-3.6,0-7.2,0-10.8c0-1-0.9-1.9-1.9-1.9c-19.1,0-38.3,0-57.4,0C97.8,168.5,97,169.3,97,170.3z
			 M154.4,179.2c-17.9,0-35.8,0-53.7,0c0-2.3,0-4.7,0-7c17.9,0,35.8,0,53.7,0C154.4,174.6,154.4,176.9,154.4,179.2z"/>
	</g>
</g>
<g id="Glyph" class="st0">
	<g class="st1">
		<path d="M128.8,22c-60.5,0-109.5,49-109.5,109.5S68.3,241,128.8,241s109.5-49,109.5-109.5S189.3,22,128.8,22z M127.9,58.3
			l71.3,119.5l-71.3-56.9l-71.3,56.9L127.9,58.3z M155.9,160.9H100l27.9-27.9L155.9,160.9z M156.3,181.1H98.9v-10.8h57.4V181.1z
			 M193.6,202c-1.3,0-2.4-1.1-2.4-2.4c0-1.3,1.1-2.4,2.4-2.4c1.3,0,2.4,1.1,2.4,2.4C196,200.9,194.9,202,193.6,202z M198,196.1
			c-1.7,1.8-4.3-0.9-2.7-2.7c16.6-17.6,25.7-40.5,25.9-64.7c0-2.4,3.8-2.4,3.8,0C224.8,153.9,215.3,177.8,198,196.1z"/>
	</g>
</g>
</svg>
