<?xml version="1.0" encoding="utf-8"?>
<!-- Generator: Adobe Illustrator 23.0.3, SVG Export Plug-In . SVG Version: 6.00 Build 0)  -->
<svg version="1.1" xmlns="http://www.w3.org/2000/svg" xmlns:xlink="http://www.w3.org/1999/xlink" x="0px" y="0px"
	 viewBox="0 0 256 256" style="enable-background:new 0 0 256 256;" xml:space="preserve">
<style type="text/css">
	.st0{display:none;}
	.st1{display:inline;}
</style>
<g id="SOURCE" class="st0">
	<g class="st1">
		<g>
			<g>
				<path d="M151.3,64.4c14.2,3.5,30.8-1.2,39.3-13.7c1.4-2-1.9-3.9-3.2-1.9c-7.5,11.1-22.6,15.1-35.1,12
					C149.9,60.2,148.9,63.9,151.3,64.4L151.3,64.4z"/>
			</g>
		</g>
		<g>
			<g>
				<path d="M169.9,93.8c2.4-10.3-1-21.6-6.7-30.1c-1.3-2-4.6-0.1-3.2,1.9c5.2,7.7,8.6,17.9,6.4,27.2
					C165.7,95.1,169.4,96.1,169.9,93.8L169.9,93.8z"/>
			</g>
		</g>
		<g>
			<g>
				<g>
					<path d="M102.4,52.6c-10.4-13-1.4-31.8,15-32.3c16.9-0.5,24.9,20,14.9,32.4c-1.5,1.9,1.1,4.5,2.7,2.7
						c12.5-15.5,2.4-38.1-17.6-38.8c-8.6-0.3-16.4,5.1-20.6,12.3c-4.9,8.5-3,19,2.9,26.3C101.2,57.1,103.9,54.5,102.4,52.6
						L102.4,52.6z"/>
				</g>
			</g>
			<g>
				<g>
					<path d="M153,98.5c13.4-8.3,30.2,0.4,30.7,16.2c0.5,16.1-18,24.1-30.7,16.2c-2.1-1.3-3.9,2-1.9,3.2
						c15.8,9.8,35.8-0.9,36.3-19.5c0.6-18.9-21.3-28.8-36.3-19.4C149.1,96.6,150.9,99.8,153,98.5L153,98.5z"/>
				</g>
			</g>
			<g>
				<g>
					<path d="M228.9,42.7c-0.3,11-8.7,19.3-19.6,19.6c-10.9,0.3-19.3-9.2-19.6-19.6c-0.3-10.9,9.2-19.3,19.6-19.6
						C220.2,22.8,228.5,32.3,228.9,42.7c0.1,2.4,3.8,2.4,3.8,0c-0.4-13-10.4-23-23.4-23.4c-13-0.4-23,11-23.4,23.4
						c-0.4,13,11,23,23.4,23.4c13,0.4,23-11,23.4-23.4C232.7,40.3,228.9,40.3,228.9,42.7z"/>
				</g>
			</g>
		</g>
	</g>
	<g class="st1">
		<g>
			<path d="M150.1,223.7c-0.5,7.9-7.1,8.4-13.1,8.4c-6.1,0-12.1,0-18.2,0c-15.4,0-30.9,0-46.3,0c-8.2,0-20.5,2.1-20.5-9.8
				c0-8.7,0-17.3,0-26c0-31.3,0-62.6,0-93.9c0-10.9,0-21.9,0-32.8c0-1.7,0-3.5,0-5.2c0-7.7,6.9-8.4,12.6-8.4c25.5,0,51.1,0,76.6,0
				c10.7,0,8.9,11.5,8.9,18.7c0,12.6,0,25.1,0,37.7C150.1,149.4,150.1,186.5,150.1,223.7c0,2.5,3.9,2.5,3.9,0c0-49.3,0-98.6,0-148
				c0-7.3,1.5-16.1-5-21.2c-3.4-2.7-7.5-2.4-11.5-2.4c-5.9,0-11.8,0-17.8,0c-15.5,0-31,0-46.5,0c-10.1,0-24.3-1.8-25.1,12.3
				c-0.4,6,0,12,0,18c0,14.1,0,28.2,0,42.3c0,29.2,0,58.4,0,87.6c0,7.3-1.5,16.1,5,21.2c3.4,2.7,7.5,2.4,11.5,2.4
				c5.9,0,11.8,0,17.8,0c15.5,0,31,0,46.5,0c10.1,0,24.3,1.8,25.1-12.3C154.1,221.2,150.2,221.2,150.1,223.7z"/>
		</g>
	</g>
	<g class="st1">
		<g>
			<path d="M137.1,199.3c-0.7,7.4-9.6,5.8-14.7,5.8c-7.6,0-15.3,0-22.9,0c-7.3,0-14.7,0-22,0c-4.6,0-12.6,1.2-12.6-5.9
				c0-24.3,0-48.6,0-72.8c0-13,0-26,0-38.9c0-2.1,0-4.2,0-6.3c0-7.4,10-5.8,14.7-5.8c15,0,29.9,0,44.9,0c4.6,0,12.6-1.2,12.6,5.9
				c0,2.6,0,5.2,0,7.8C137.1,125.7,137.1,162.5,137.1,199.3c0,2.4,3.8,2.4,3.8,0c0-23.3,0-46.7,0-70c0-13.5,0-26.9,0-40.4
				c0-7.9,0.3-17.4-10.6-17.4c-13.5,0-27,0-40.6,0c-8.2,0-28.6-3.6-28.6,9.6c0,23.7,0,47.3,0,71c0,13.1,0,26.2,0,39.4
				c0,7.9-0.3,17.4,10.6,17.4c13.2,0,26.4,0,39.6,0c6,0,12,0,18,0c6.2,0,11-2.9,11.6-9.6C141.1,196.9,137.3,196.9,137.1,199.3z"/>
		</g>
	</g>
	<g class="st1">
		<g>
			<path d="M107.3,220.1c-0.4,6.9-10.4,6.9-10.8,0C96.2,213.2,106.9,213.2,107.3,220.1c0.1,2.4,3.9,2.4,3.8,0
				c-0.3-5.2-4-8.8-9.1-9.1c-5.1-0.3-8.9,4.4-9.1,9.1c-0.3,5.1,4.4,8.9,9.1,9.1c5.1,0.3,8.9-4.4,9.1-9.1
				C111.2,217.7,107.4,217.7,107.3,220.1z"/>
		</g>
	</g>
	<g class="st1">
		<g>
			<path d="M79.1,143.4c5.7-9,11.3-18,17-27c-1.1,0-2.2,0-3.2,0c4.2,8.2,8.3,16.5,12.5,24.7c0.7,1.3,2.5,1.1,3.2,0
				c2.8-4.4,5.7-8.8,8.5-13.2c-1,0.1-2,0.3-2.9,0.4c3.2,3.8,6.3,7.7,9.5,11.5c1.5,1.9,4.2-0.8,2.7-2.7c-3.2-3.8-6.3-7.7-9.5-11.5
				c-0.8-1-2.3-0.6-2.9,0.4c-2.8,4.4-5.7,8.8-8.5,13.2c1.1,0,2.2,0,3.2,0c-4.2-8.2-8.3-16.5-12.5-24.7c-0.7-1.3-2.5-1.1-3.2,0
				c-5.7,9-11.3,18-17,27C74.6,143.6,77.8,145.5,79.1,143.4L79.1,143.4z"/>
		</g>
	</g>
</g>
<g id="Line_Expand">
	<g>
		<path d="M130.3,71.5c-13.5,0-27,0-40.6,0c-8.2,0-28.6-3.6-28.6,9.6c0,23.7,0,47.3,0,71c0,13.1,0,26.2,0,39.4
			c0,7.9-0.3,17.4,10.6,17.4c13.2,0,26.4,0,39.6,0c6,0,12,0,18,0c6,0,10.7-2.7,11.5-9.1c0-0.2,0.1-0.3,0.1-0.5c0-23.3,0-46.7,0-70
			c0-13.5,0-26.9,0-40.4C140.9,81.1,141.2,71.5,130.3,71.5z M122.4,205.1c-7.6,0-15.3,0-22.9,0c-7.3,0-14.7,0-22,0
			c-4.6,0-12.6,1.2-12.6-5.9c0-24.3,0-48.6,0-72.8c0-13,0-26,0-38.9c0-2.1,0-4.2,0-6.3c0-7.4,10-5.8,14.7-5.8c15,0,29.9,0,44.9,0
			c4.6,0,12.6-1.2,12.6,5.9c0,2.6,0,5.2,0,7.8c0,36.8,0,73.6,0,110.4C136.5,206.7,127.6,205.1,122.4,205.1z"/>
		<path d="M111,219.5c-0.5-4.9-4.1-8.3-9.1-8.6c-5.1-0.3-8.9,4.4-9.1,9.1c-0.3,5.1,4.4,8.9,9.1,9.1c4.9,0.3,8.6-4,9.1-8.6
			c0-0.2,0.1-0.4,0.1-0.6C111.1,219.9,111,219.7,111,219.5z M96.5,220.1c-0.4-6.9,10.4-6.9,10.8,0C106.9,227,96.9,227,96.5,220.1z"
			/>
		<path d="M116.8,125.7c-0.8-1-2.3-0.6-2.9,0.4c-2.2,3.5-4.5,6.9-6.7,10.4c-3.7-7.3-7.4-14.6-11.1-21.9c-0.7-1.3-2.5-1.1-3.2,0
			c-5.7,9-11.3,18-17,27c-1.3,2.1,2,3.9,3.2,1.9c5.1-8,10.1-16.1,15.2-24.1c3.7,7.3,7.4,14.6,11.1,21.8c0.7,1.3,2.5,1.1,3.2,0
			c2.4-3.7,4.7-7.3,7.1-11c2.7,3.2,5.3,6.4,8,9.7c1.5,1.9,4.2-0.8,2.7-2.7C123.2,133.3,120,129.5,116.8,125.7z"/>
		<path d="M180.8,123.4c-1.4,3.3-3.5,6.1-6.3,8.3c-1.9,1.5,0.8,4.2,2.7,2.7c3-2.4,5.4-5.5,6.9-9.1
			C184.9,123.1,181.7,121.2,180.8,123.4z"/>
		<path d="M223.7,31.4c1.5,1.9,4.2-0.8,2.7-2.7c-2.4-3-5.5-5.4-9.1-6.9c-2.2-0.9-4.1,2.3-1.9,3.2C218.7,26.5,221.4,28.6,223.7,31.4z
			"/>
		<path d="M227.7,43.4c-0.5,15.3-16.6,24.3-29.9,16.7c-14-8-11.1-28,2.3-34.7c2.2-1.1,0.3-4.3-1.9-3.2
			c-11.3,5.6-15.4,17.8-12.1,28.2c-0.1,0.1-0.2,0.2-0.2,0.3C179,60.9,165.5,65,153.7,63.4c-0.5-3.4-1.8-6.6-4.8-8.9
			c-3.4-2.7-7.5-2.4-11.5-2.4c-0.5,0-1,0-1.6,0c4.7-9.4,2.8-20.2-5.1-27.6c-7.5-7.1-18.8-7.5-27.5-2.7c-2.1,1.2-0.2,4.4,1.9,3.2
			c17.6-9.7,37,9.8,26.4,27.1c-4,0-7.9,0-11.9,0c-15.5,0-31,0-46.5,0c-10.1,0-24.3-1.8-25.1,12.3c-0.4,6,0,12,0,18
			c0,14.1,0,28.2,0,42.3c0,29.2,0,58.4,0,87.6c0,7.3-1.5,16.1,5,21.2c3.4,2.7,7.5,2.4,11.5,2.4c5.9,0,11.8,0,17.8,0
			c15.5,0,31,0,46.5,0c10.1,0,24.3,1.8,25.1-12.3c0-28.6,0-57.2,0-85.7c2.7,1,5.6,1.6,8.6,1.7c2.4,0,2.4-3.7,0-3.8
			c-2.8,0-5.6-0.6-8.2-1.8c-0.1-0.1-0.3-0.1-0.4-0.1c0-11.8,0-23.6,0-35.4c0,0,0,0,0.1,0c10.3-4.6,21.5-0.2,26.4,9.7
			c1.1,2.2,4.3,0.3,3.2-1.9c-3.2-6.5-8.7-10.7-14.9-12.5c1.6-9.1-1.2-18.8-6-26.6c9.6-1,18.9-5.2,24.9-12.9c1.8,3.5,4.5,6.6,8.2,8.9
			c15.5,10.1,35-2.7,35.5-20C231.6,40.9,227.8,40.9,227.7,43.4z M137,232.1c-6.1,0-12.1,0-18.2,0c-15.4,0-30.9,0-46.3,0
			c-8.2,0-20.5,2.1-20.5-9.8c0-8.7,0-17.3,0-26c0-31.3,0-62.6,0-93.9c0-10.9,0-21.9,0-32.8c0-1.7,0-3.5,0-5.2
			c0-7.7,6.9-8.4,12.6-8.4c25.5,0,51.1,0,76.6,0c10.7,0,8.9,11.5,8.9,18.7c0,12.6,0,25.1,0,37.7c0,37.1,0,74.2,0,111.3
			C149.6,231.6,143,232.1,137,232.1z M165.1,93.2c-3.7-0.4-7.5,0-11.2,1.4c0-6.3,0-12.6,0-18.8c0-2.7,0.2-5.6,0.1-8.5
			c1.5,0.2,3,0.2,4.5,0.2C163.4,74.7,166.7,84.3,165.1,93.2z"/>
		<path d="M93.3,33.5C92,37.2,91.6,41,92,44.9c0.3,2.4,4.1,2.4,3.8,0c-0.5-3.6-0.1-7,1.2-10.4C97.8,32.3,94.2,31.3,93.3,33.5z"/>
	</g>
</g>
<g id="Glyph" class="st0">
	<g class="st1">
		<path d="M207.2,21.2c-11.9,0-21.5,9.6-21.5,21.5c0,2.4,0.4,4.6,1.1,6.7c-8.2,11.3-24.3,14.4-37.5,12.1c-1.1-3.2-3.3-5.6-8.2-5.6
			c-2.3,0-4.7,0-7,0c-0.2,0.1-0.5,0.1-0.7,0c-23,0-45.9,0-68.9,0c-5.7,0-12.6,0.8-12.6,8.4c0,1.7,0,3.5,0,5.2c0,10.9,0,21.9,0,32.8
			c0,31.3,0,62.6,0,93.9c0,8.7,0,17.3,0,26c0,11.8,12.4,9.8,20.5,9.8c15.4,0,30.9,0,46.3,0c6.1,0,12.1,0,18.2,0
			c6,0,12.6-0.5,13.1-8.4c0-37.1,0-74.2,0-111.3c0-12.6,0-25.1,0-37.7c0-2.7,0.2-6.1,0-9.2c3.3,0.5,6.7,0.7,10.2,0.5
			c5.5,8.5,7.8,19.5,6.5,29.6c-4.1-0.6-8.6,0.1-12.7,2.5c0,11.2,0,22.3,0,33.5c12.6,7,30.2-1.1,29.8-16.8c-0.3-9.1-6-15.9-13.4-18.4
			c1.5-10.5-0.5-21.7-5.9-30.8c9.3-1.2,18.1-5.1,24.2-12.2c3.7,6.5,10.7,10.9,18.7,10.9c11.9,0,21.5-9.6,21.5-21.5
			C228.7,30.8,219.1,21.2,207.2,21.2z M96.5,220.1c-0.4-6.9,10.4-6.9,10.8,0C106.9,227,96.9,227,96.5,220.1z M137.1,88.9
			c0,36.8,0,73.6,0,110.4c-0.7,7.4-9.6,5.8-14.7,5.8c-7.6,0-15.3,0-22.9,0c-7.3,0-14.7,0-22,0c-4.6,0-12.6,1.2-12.6-5.9
			c0-24.3,0-48.6,0-72.8c0-13,0-26,0-38.9c0-2.1,0-4.2,0-6.3c0-7.4,10-5.8,14.7-5.8c15,0,29.9,0,44.9,0c4.6,0,12.6-1.2,12.6,5.9
			C137.1,83.8,137.1,86.3,137.1,88.9z"/>
		<path d="M119.7,52.1c4.4,0,8.7,0,13.1,0c9.2-12.4,1.2-32.2-15.4-31.7c-16.2,0.5-25.2,18.7-15.4,31.7
			C107.9,52.1,113.8,52.1,119.7,52.1z"/>
		<path d="M116.8,125.7c-0.8-1-2.3-0.6-2.9,0.4c-2.2,3.5-4.5,6.9-6.7,10.4c-3.7-7.3-7.4-14.6-11.1-21.9c-0.7-1.3-2.5-1.1-3.2,0
			c-5.7,9-11.3,18-17,27c-1.3,2.1,2,3.9,3.2,1.9c5.1-8,10.1-16.1,15.2-24.1c3.7,7.3,7.4,14.6,11.1,21.8c0.7,1.3,2.5,1.1,3.2,0
			c2.4-3.7,4.7-7.3,7.1-11c2.7,3.2,5.3,6.4,8,9.7c1.5,1.9,4.2-0.8,2.7-2.7C123.2,133.3,120,129.5,116.8,125.7z"/>
	</g>
</g>
</svg>
