<?xml version="1.0" encoding="utf-8"?>
<!-- Generator: Adobe Illustrator 23.0.3, SVG Export Plug-In . SVG Version: 6.00 Build 0)  -->
<svg version="1.1" xmlns="http://www.w3.org/2000/svg" xmlns:xlink="http://www.w3.org/1999/xlink" x="0px" y="0px"
	 viewBox="0 0 256 256" style="enable-background:new 0 0 256 256;" xml:space="preserve">
<style type="text/css">
	.st0{display:none;}
	.st1{display:inline;}
</style>
<g id="SOURCE" class="st0">
	<g class="st1">
		<g>
			<path d="M130,185.3c0,11.7,0,23.5,0,35.2c0,6.9-5.5,8.7-11.1,8.7c-5.1,0-10.3,0-15.4,0c-25.2,0-50.4,0-75.6,0
				c-4.7,0-7.8-3.7-8.1-8.1c-0.2-2.4-3.9-2.4-3.8,0c0.9,13.6,14.5,11.9,24.2,11.9c15.4,0,30.7,0,46.1,0c11.5,0,23,0,34.5,0
				c6.4,0,11.5-3.6,12.8-10c1-4.9,0.2-10.8,0.2-15.8c0-7.3,0-14.5,0-21.8C133.7,182.8,130,182.8,130,185.3L130,185.3z"/>
		</g>
	</g>
	<g class="st1">
		<g>
			<path d="M85.7,168.7c0.5-7.9,7.2-8.1,13.2-8.1c6.1,0,12.3,0,18.4,0c4.6,0,9.1,0,13.7,0c8.7,0,9,7.6,9,14.1
				c0,7.9-7.5,8.1-13.2,8.1c-6.1,0-12.3,0-18.4,0c-4.6,0-9.1,0-13.7,0C85.9,182.8,85.7,175.2,85.7,168.7c0-2.4-3.8-2.4-3.8,0
				c0,7.9,0.7,15.8,10,17.7c4.8,1,10.5,0.2,15.4,0.2c7.3,0,14.6,0,21.9,0c6.9,0,12.8-2.7,14.3-10c1.4-6.7,0-16.3-7.3-18.9
				c-4.9-1.7-11-0.9-16.1-0.9c-7.5,0-15.1,0-22.6,0c-5.9,0-12.4,0.9-14.7,7.5c-0.5,1.5-0.7,2.8-0.9,4.4
				C81.8,171.1,85.6,171.1,85.7,168.7z"/>
		</g>
	</g>
	<g class="st1">
		<g>
			<path d="M34.1,116.7c0-4.5,0-9,0-13.5c0-5.9,3.1-9.3,8.7-9.3c10.3,0,20.6,0,30.9,0c10.5,0,21,0,31.5,0c5.2,0,9.1,2.4,9.1,8.5
				c0,4.7,0,9.3,0,14c0,2.4,3.8,2.4,3.8,0c0-8.9,2.6-26.2-10.9-26.2c-11.2,0-22.3,0-33.5,0c-10.9,0-21.8,0-32.7,0
				c-13.4,0-10.7,17.8-10.7,26.6C30.3,119.1,34.1,119.1,34.1,116.7L34.1,116.7z"/>
		</g>
	</g>
	<g class="st1">
		<g>
			<path d="M34.1,103.2c0-7.3-3.3-26.6,7.7-26.6c10.7,0,21.3,0,32,0c10.9,0,21.8,0,32.6,0c6.4,0,8,5.5,8,11c0,5.2,0,10.3,0,15.5
				c0,2.4,3.8,2.4,3.8,0c0-8.6,3.5-30.2-10.3-30.2c-11,0-22.1,0-33.1,0c-11.3,0-22.7,0-34,0c-14,0-10.4,21.6-10.4,30.4
				C30.3,105.6,34.1,105.6,34.1,103.2L34.1,103.2z"/>
		</g>
	</g>
	<g class="st1">
		<g>
			<path d="M45.5,103.9c18.8,0,37.5,0,56.3,0c2.4,0,2.4-3.8,0-3.8c-18.8,0-37.5,0-56.3,0C43.1,100.1,43.1,103.9,45.5,103.9
				L45.5,103.9z"/>
		</g>
	</g>
	<g class="st1">
		<g>
			<path d="M45.5,84.4c18.8,0,37.5,0,56.3,0c2.4,0,2.4-3.8,0-3.8c-18.8,0-37.5,0-56.3,0C43.1,80.6,43.1,84.4,45.5,84.4L45.5,84.4z"
				/>
		</g>
	</g>
	<g class="st1">
		<g>
			<path d="M133.9,158.7c0-5.6,0-11.2,0-16.9c0-5.3,0.9-11.5-0.2-16.7c-2.5-12.3-16.1-10-25.5-10c-26.5,0-53,0-79.6,0
				c-15.8,0-12.5,19-12.5,29.5c0,9.6,0,19.3,0,28.9c0,11.9,0,23.9,0,35.8c0,6-1.2,13.4,2.3,18.7c2.8,4.2,7.6,4.8,12.1,4.8
				c27.3,0,54.5,0,81.8,0c3.2,0,6.3,0,9.5,0c6.9,0,12-5.7,12-12.4c0-11.7,0-23.5,0-35.2c0-2.4-3.8-2.4-3.8,0c0,11.7,0,23.5,0,35.2
				c0,6.9-5.5,8.7-11.1,8.7c-5.1,0-10.3,0-15.4,0c-25.2,0-50.4,0-75.6,0c-10.2,0-8.1-13.1-8.1-19.7c0-4.9,0-9.9,0-14.8
				c0-12.1,0-24.2,0-36.2c0-10.4,0-20.9,0-31.3c0-7.8,7.2-8.1,12.8-8.1c5.7,0,11.4,0,17.1,0c22,0,44.1,0,66.1,0c2,0,4,0,6,0
				c7.1,0,8.3,6.2,8.3,11.7c0,9.4,0,18.8,0,28.2C130.1,161.2,133.9,161.2,133.9,158.7L133.9,158.7z"/>
		</g>
	</g>
	<g class="st1">
		<g>
			<g>
				<path d="M142.2,61c15.8,15.3,45.4,14.9,58.2-4.1c1.4-2-1.9-3.9-3.2-1.9c-11.5,16.9-38.3,16.8-52.3,3.3
					C143.1,56.7,140.4,59.3,142.2,61L142.2,61z"/>
			</g>
		</g>
		<g>
			<g>
				<path d="M179.7,100c2.4-10.3-1-21.6-6.7-30.1c-1.3-2-4.6-0.1-3.2,1.9c5.2,7.7,8.6,17.9,6.4,27.2
					C175.6,101.4,179.2,102.4,179.7,100L179.7,100z"/>
			</g>
		</g>
		<g>
			<g>
				<g>
					<path d="M146.8,46.2c-0.3,11-8.7,19.3-19.6,19.6c-10.9,0.3-19.3-9.2-19.6-19.6c-0.3-10.9,9.2-19.3,19.6-19.6
						C138.2,26.2,146.5,35.8,146.8,46.2c0.1,2.4,3.8,2.4,3.8,0c-0.4-13-10.4-23-23.4-23.4c-13-0.4-23,11-23.4,23.4
						c-0.4,13,11,23,23.4,23.4c13,0.4,23-11,23.4-23.4C150.7,43.8,146.9,43.8,146.8,46.2z"/>
				</g>
			</g>
			<g>
				<g>
					<path d="M193.5,121c-0.3,10.9-8.7,19.3-19.6,19.6c-10.9,0.3-19.3-9.2-19.6-19.6c-0.3-10.9,9.2-19.3,19.6-19.6
						C184.8,101,193.2,110.5,193.5,121c0.1,2.4,3.8,2.4,3.8,0c-0.4-13-10.4-23-23.4-23.4c-13-0.4-23,11-23.4,23.4
						c-0.4,13,11,23,23.4,23.4c13,0.4,23-11,23.4-23.4C197.3,118.6,193.6,118.6,193.5,121z"/>
				</g>
			</g>
			<g>
				<g>
					<path d="M238.7,49c-0.3,11-8.7,19.3-19.6,19.6c-10.9,0.3-19.3-9.2-19.6-19.6c-0.3-10.9,9.2-19.3,19.6-19.6
						C230,29,238.4,38.5,238.7,49c0.1,2.4,3.8,2.4,3.8,0c-0.4-13-10.4-23-23.4-23.4c-13-0.4-23,11-23.4,23.4
						c-0.4,13,11,23,23.4,23.4c13,0.4,23-11,23.4-23.4C242.5,46.5,238.8,46.5,238.7,49z"/>
				</g>
			</g>
		</g>
	</g>
</g>
<g id="Line_Expand">
	<g>
		<path d="M192.1,128.4c-1.4,3.3-3.5,6.1-6.3,8.3c-1.9,1.5,0.8,4.2,2.7,2.7c3-2.4,5.4-5.5,6.9-9.1
			C196.3,128.1,193.1,126.1,192.1,128.4z"/>
		<path d="M228.6,26.8c-2.2-0.9-4.1,2.3-1.9,3.2c3.3,1.4,6.1,3.5,8.3,6.3c1.5,1.9,4.2-0.8,2.7-2.7C235.3,30.7,232.2,28.3,228.6,26.8
			z"/>
		<path d="M239.1,48.3c-0.5,15.3-16.6,24.3-29.9,16.7c-14-8-11.1-28,2.3-34.7c2.2-1.1,0.3-4.3-1.9-3.2
			c-11.3,5.6-15.4,17.8-12.1,28.2c-0.1,0.1-0.2,0.2-0.2,0.3C186,72.2,160,72.4,145.8,59.7c2.6-3.8,4.2-8.6,4.1-13.9
			c-0.3-17.9-20.5-27.3-35.3-19.1c-2.1,1.2-0.2,4.4,1.9,3.2c12.8-7.1,28.5,1.1,29.6,15.9c1.2,16.6-17.9,25.4-30.9,17
			c-2-1.3-3.9,1.9-1.9,3.2c10.4,6.7,22.7,4.2,30.1-3.4c7.2,6.4,16.9,9.7,26.5,9.8c4.9,7.3,8.1,16.9,6.6,25.8
			c-8.4-0.9-17.2,2.6-22.6,10.8c-10.1,15.5,2.7,35,20,35.5c2.4,0.1,2.4-3.7,0-3.8c-15.3-0.5-24.3-16.6-16.7-29.9
			c8-14,28-11.1,34.7,2.3c1.1,2.2,4.3,0.3,3.2-1.9c-3.3-6.6-8.8-10.7-14.9-12.4c1.6-9.1-1.2-18.8-5.9-26.7
			c9.6-0.9,18.8-5.1,24.9-12.9c1.8,3.4,4.5,6.5,8.2,8.9c15.5,10.1,35-2.7,35.5-20C243,45.9,239.2,45.9,239.1,48.3z"/>
		<path d="M104.7,38.5c-1.3,3.7-1.8,7.5-1.3,11.4c0.3,2.4,4.1,2.4,3.8,0c-0.4-3.6-0.1-7,1.2-10.4C109.2,37.2,105.6,36.2,104.7,38.5z
			"/>
		<path d="M19.7,195.8c0-8.2,0-16.3,0-24.5c0-2.4-3.8-2.4-3.8,0c0,8.2,0,16.3,0,24.5C16,198.2,19.7,198.2,19.7,195.8z"/>
		<path d="M133.6,222.8c1-4.9,0.2-10.8,0.2-15.8c0-7,0-14,0-21c4.9-1,8.7-3.9,9.8-9.6c1.4-6.7,0-16.3-7.3-18.9
			c-0.8-0.3-1.7-0.5-2.5-0.6c0-5,0-10.1,0-15.1c0-5.3,0.9-11.5-0.2-16.7c-1.7-8.3-8.4-10-15.5-10.2c0.1-3.5,0.4-8,0-12.2
			c0-8.8,3.4-30-10.3-30c-11,0-22.1,0-33.1,0c-11.3,0-22.7,0-34,0c-13.7,0-10.5,20.8-10.4,29.9c-0.4,4.3-0.1,8.9,0,12.5
			c-0.6,0-1.2,0-1.8,0c-8.7,0-12.5,6.7-12.5,14.5c0,8.3,0,16.6,0,24.9c0,2.4,3.8,2.4,3.8,0c0-5.9,0-11.8,0-17.6c0-6.5-1.7-18,8.2-18
			c9.6,0,19.2,0,28.9,0c15.8,0,31.7,0,47.5,0c5,0,10,0,15,0c5.7,0,10.7,2.4,10.7,9.1c0,9.5,0,19.1,0,28.7c-3.3-0.1-6.7,0.2-9.8,0.2
			c-7.5,0-15.1,0-22.6,0c-5.9,0-12.4,0.9-14.7,7.5c-0.5,1.5-0.7,2.8-0.9,4.4c0,7.9,0.7,15.8,10,17.7c4.8,1,10.5,0.2,15.4,0.2
			c7.3,0,14.6,0,21.9,0c0.2,0,0.4,0,0.7,0c0,11.3,0,22.6,0,33.9c0,6.9-5.5,8.7-11.1,8.7c-5.1,0-10.3,0-15.4,0c-25.2,0-50.4,0-75.6,0
			c-4.7,0-7.8-3.7-8.1-8.1c-0.2-2.4-3.9-2.4-3.8,0c0.9,13.6,14.5,11.9,24.2,11.9c15.4,0,30.7,0,46.1,0c11.5,0,23,0,34.5,0
			C127.1,232.9,132.3,229.3,133.6,222.8z M41.7,76.5c10.7,0,21.3,0,32,0c10.9,0,21.8,0,32.6,0c6.4,0,8,5.5,8,11c0,1.7,0,3.5,0,5.2
			c-1.6-1.6-3.9-2.6-7.2-2.6c-11.2,0-22.3,0-33.5,0c-10.9,0-21.8,0-32.7,0c-3.4,0-5.8,1.2-7.4,3C33.5,85.2,34.4,76.5,41.7,76.5z
			 M34.1,115.1c0-4,0-8,0-11.9c0-5.9,3.1-9.3,8.7-9.3c10.3,0,20.6,0,30.9,0c10.5,0,21,0,31.5,0c5.2,0,9.1,2.4,9.1,8.5
			c0,0.2,0,0.5,0,0.7c0,4,0,8,0,12c-2.2,0-4.3,0.1-6.2,0.1C83.4,115.1,58.7,115.1,34.1,115.1z M126.8,182.8c-6.1,0-12.3,0-18.4,0
			c-4.6,0-9.1,0-13.7,0c-8.7,0-9-7.6-9-14.1c0.5-7.9,7.2-8.1,13.2-8.1c6.1,0,12.3,0,18.4,0c4.6,0,9.1,0,13.7,0c8.7,0,9,7.6,9,14.1
			C140,182.6,132.5,182.8,126.8,182.8z"/>
		<path d="M101.8,100.1c-18.8,0-37.5,0-56.3,0c-2.4,0-2.4,3.8,0,3.8c18.8,0,37.5,0,56.3,0C104.2,103.9,104.2,100.1,101.8,100.1z"/>
		<path d="M45.5,84.4c18.8,0,37.5,0,56.3,0c2.4,0,2.4-3.8,0-3.8c-18.8,0-37.5,0-56.3,0C43.1,80.6,43.1,84.4,45.5,84.4z"/>
	</g>
</g>
<g id="Glyph" class="st0">
	<g class="st1">
		<path d="M41,90.1c10.9,0,21.8,0,32.7,0c11.2,0,22.3,0,33.5,0c3.2,0,5.5,1,7.2,2.6c0-1.7,0-3.5,0-5.2c0-5.5-1.5-11-8-11
			c-10.9,0-21.8,0-32.6,0c-10.7,0-21.3,0-32,0c-7.3,0-8.3,8.7-8.1,16.6C35.3,91.3,37.6,90.1,41,90.1z M45.5,80.6
			c18.8,0,37.5,0,56.3,0c2.4,0,2.4,3.8,0,3.8c-18.8,0-37.5,0-56.3,0C43.1,84.4,43.1,80.6,45.5,80.6z"/>
		<path d="M73.7,93.9c-10.3,0-20.6,0-30.9,0c-5.6,0-8.7,3.4-8.7,9.3c0,4,0,8,0,11.9c24.7,0,49.4,0,74.2,0c1.9,0,4-0.1,6.1-0.1
			c0-4,0-8,0-12c0-0.2,0-0.5,0-0.7c0-6.1-3.9-8.5-9.1-8.5C94.7,93.9,84.2,93.9,73.7,93.9z M101.8,103.9c-18.8,0-37.5,0-56.3,0
			c-2.4,0-2.4-3.8,0-3.8c18.8,0,37.5,0,56.3,0C104.2,100.1,104.2,103.9,101.8,103.9z"/>
		<path d="M107.4,186.5c-4.9,0-10.6,0.8-15.4-0.2c-9.3-1.9-10-9.8-10-17.7c0.1-1.6,0.3-2.9,0.9-4.4c2.3-6.6,8.8-7.5,14.7-7.5
			c7.5,0,15.1,0,22.6,0c3.1,0,6.6-0.3,9.9-0.2c0-8.7,0-17.4,0-26.1c0-5.5-1.2-11.7-8.3-11.7c-2,0-4,0-6,0c-22,0-44.1,0-66.1,0
			c-5.7,0-11.4,0-17.1,0c-5.6,0-12.8,0.3-12.8,8.1c0,10.4,0,20.9,0,31.3c0,12.1,0,24.2,0,36.2c0,4.9,0,9.9,0,14.8
			c0,5-1.2,13.5,2.5,17.5c1.2,1.1,2.7,1.9,4.4,2.1c0.1,0,0.2,0,0.3,0c0,0,0.1,0,0.2,0c0.3,0,0.5,0,0.8,0c25.1,0,50.3,0,75.4,0
			c0,0,0.1,0,0.1,0c5.1,0,10.2,0,15.3,0c5.6,0,11.1-1.8,11.1-8.7c0-11.3,0-22.6,0-33.9c-0.2,0-0.4,0-0.7,0
			C122,186.5,114.7,186.5,107.4,186.5z"/>
		<path d="M131,160.5c-4.6,0-9.1,0-13.7,0c-6.1,0-12.3,0-18.4,0c-5.9,0-12.6,0.2-13.2,8.1c0,6.6,0.2,14.1,9,14.1c4.6,0,9.1,0,13.7,0
			c6.1,0,12.3,0,18.4,0c5.7,0,13.2-0.2,13.2-8.1C140,168.1,139.8,160.5,131,160.5z"/>
	</g>
	<path class="st1" d="M219.1,27.5c-11.9,0-21.5,9.6-21.5,21.5c0,1.8,0.3,3.6,0.7,5.3c-0.4,0.1-0.8,0.3-1.1,0.8
		c-11.4,16.9-38.2,16.8-52.3,3.4c2.4-3.5,3.8-7.7,3.8-12.2c0-11.9-9.6-21.5-21.5-21.5c-11.9,0-21.5,9.6-21.5,21.5
		s9.6,21.5,21.5,21.5c6,0,11.4-2.4,15.3-6.4c7.3,6.8,17.3,10.4,27.3,10.5c5.1,7.7,8.5,17.8,6.3,27.2c0,0.2-0.1,0.4,0,0.6
		c-0.7-0.1-1.4-0.1-2.2-0.1c-11.9,0-21.5,9.6-21.5,21.5c0,11.9,9.6,21.5,21.5,21.5c11.9,0,21.5-9.6,21.5-21.5
		c0-9.9-6.7-18.2-15.8-20.7c0-0.1,0.1-0.2,0.1-0.3c2.3-9.6-0.6-20-5.6-28.3c9.9-0.9,19.3-5.4,25.5-13.6c3.4,7.3,10.8,12.4,19.5,12.4
		c11.9,0,21.5-9.6,21.5-21.5C240.6,37.1,230.9,27.5,219.1,27.5z"/>
</g>
</svg>
