<?xml version="1.0" encoding="utf-8"?>
<!-- Generator: Adobe Illustrator 23.0.3, SVG Export Plug-In . SVG Version: 6.00 Build 0)  -->
<svg version="1.1" xmlns="http://www.w3.org/2000/svg" xmlns:xlink="http://www.w3.org/1999/xlink" x="0px" y="0px"
	 viewBox="0 0 256 256" style="enable-background:new 0 0 256 256;" xml:space="preserve">
<style type="text/css">
	.st0{display:none;}
	.st1{display:inline;}
</style>
<g id="SOURCE" class="st0">
	<g class="st1">
		<g>
			<path d="M132.9,158.7c0-5.6,0-11.2,0-16.9c0-5.3,0.9-11.5-0.2-16.7c-2.5-12.3-16.1-10-25.5-10c-26.5,0-53,0-79.6,0
				c-15.8,0-12.5,19-12.5,29.5c0,9.6,0,19.3,0,28.9c0,11.9,0,23.9,0,35.8c0,6-1.2,13.4,2.3,18.7c2.8,4.2,7.6,4.8,12.1,4.8
				c27.3,0,54.5,0,81.8,0c3.2,0,6.3,0,9.5,0c6.9,0,12-5.7,12-12.4c0-11.7,0-23.5,0-35.2c0-2.4-3.8-2.4-3.8,0c0,11.7,0,23.5,0,35.2
				c0,6.9-5.5,8.7-11.1,8.7c-5.1,0-10.3,0-15.4,0c-25.2,0-50.4,0-75.6,0c-10.2,0-8.1-13.1-8.1-19.7c0-4.9,0-9.9,0-14.8
				c0-12.1,0-24.2,0-36.2c0-10.4,0-20.9,0-31.3c0-7.8,7.2-8.1,12.8-8.1c5.7,0,11.4,0,17.1,0c22,0,44.1,0,66.1,0c2,0,4,0,6,0
				c7.1,0,8.3,6.2,8.3,11.7c0,9.4,0,18.8,0,28.2C129.1,161.2,132.9,161.2,132.9,158.7L132.9,158.7z"/>
		</g>
	</g>
	<g class="st1">
		<g>
			<path d="M84.9,168.7c0.5-7.9,7.2-8.1,13.2-8.1c6.1,0,12.3,0,18.4,0c4.6,0,9.1,0,13.7,0c8.7,0,9,7.6,9,14.1
				c0,7.9-7.5,8.1-13.2,8.1c-6.1,0-12.3,0-18.4,0c-4.6,0-9.1,0-13.7,0C85.1,182.8,84.9,175.2,84.9,168.7c0-2.4-3.8-2.4-3.8,0
				c0,7.9,0.7,15.8,10,17.7c4.8,1,10.5,0.2,15.4,0.2c7.3,0,14.6,0,21.9,0c6.9,0,12.8-2.7,14.3-10c1.4-6.7,0-16.3-7.3-18.9
				c-4.9-1.7-11-0.9-16.1-0.9c-7.5,0-15.1,0-22.6,0c-5.9,0-12.4,0.9-14.7,7.5c-0.5,1.5-0.7,2.8-0.9,4.4
				C81,171.1,84.7,171.1,84.9,168.7z"/>
		</g>
	</g>
	<g class="st1">
		<g>
			<path d="M33.2,116.7c0-4.5,0-9,0-13.5c0-5.9,3.1-9.3,8.7-9.3c10.3,0,20.6,0,30.9,0c10.5,0,21,0,31.5,0c5.2,0,9.1,2.4,9.1,8.5
				c0,4.7,0,9.3,0,14c0,2.4,3.8,2.4,3.8,0c0-8.9,2.6-26.2-10.9-26.2c-11.2,0-22.3,0-33.5,0c-10.9,0-21.8,0-32.7,0
				c-13.4,0-10.7,17.8-10.7,26.6C29.5,119.1,33.2,119.1,33.2,116.7L33.2,116.7z"/>
		</g>
	</g>
	<g class="st1">
		<g>
			<path d="M33.2,103.2c0-7.3-3.3-26.6,7.7-26.6c10.7,0,21.3,0,32,0c10.9,0,21.8,0,32.6,0c6.4,0,8,5.5,8,11c0,5.2,0,10.3,0,15.5
				c0,2.4,3.8,2.4,3.8,0c0-8.6,3.5-30.2-10.3-30.2c-11,0-22.1,0-33.1,0c-11.3,0-22.7,0-34,0c-14,0-10.4,21.6-10.4,30.4
				C29.5,105.6,33.2,105.6,33.2,103.2L33.2,103.2z"/>
		</g>
	</g>
	<g class="st1">
		<g>
			<path d="M44.6,103.9c18.8,0,37.5,0,56.2,0c2.4,0,2.4-3.8,0-3.8c-18.8,0-37.5,0-56.2,0C42.2,100.1,42.2,103.9,44.6,103.9
				L44.6,103.9z"/>
		</g>
	</g>
	<g class="st1">
		<g>
			<path d="M44.6,84.4c18.8,0,37.5,0,56.2,0c2.4,0,2.4-3.8,0-3.8c-18.8,0-37.5,0-56.2,0C42.2,80.6,42.2,84.4,44.6,84.4L44.6,84.4z"
				/>
		</g>
	</g>
	<g class="st1">
		<g>
			<g>
				<path d="M92.9,74c0.1-14.3,0.2-28.5,0.2-42.8c-1.1,0.4-2.1,0.9-3.2,1.3c6.4,6.5,12.9,13,19.3,19.4c1.4,1.4,2.8,2.8,4.2,4.2
					c0.3,0.3,0.6,0.6,1,1c0.9,0.9-0.7-2.2-0.2-0.6c0.5,1.7,3.2,3.5,4.4,4.7c13.1,13.2,26.2,26.4,39.3,39.5c0.7,0.7,2,0.7,2.7,0
					c11.3-12.1,22.6-24.2,33.9-36.4c10.7-11.5,21.1-23.2,32.8-33.7c-1.1-0.4-2.1-0.9-3.2-1.3c-0.3,28-0.6,55.9-0.8,83.9
					c0,1,0.9,1.9,1.9,1.9c8,0,16,0,24,0c-0.6-0.6-1.3-1.3-1.9-1.9c0,8.4,0,16.8,0,25.2c0.6-0.6,1.3-1.3,1.9-1.9
					c-16.4,0-32.7,0-49.1,0c0.6,0.6,1.3,1.3,1.9,1.9c0-0.3,0-0.7,0-1c0-1-0.9-1.9-1.9-1.9c0,0-0.1,0-0.1,0c0.6,0.6,1.3,1.3,1.9,1.9
					c0-14.3,0-28.6,0-43c0-1.6-2.1-2.5-3.2-1.3c-13.5,14.4-26.9,28.9-40.4,43.3c0.9,0,1.8,0,2.7,0c-14.5-14.6-28.9-29.1-43.4-43.7
					c-1.7-1.7-4.4,0.9-2.7,2.7c14.5,14.6,28.9,29.1,43.4,43.7c0.7,0.7,2,0.7,2.7,0c13.5-14.4,26.9-28.9,40.4-43.3
					c-1.1-0.4-2.1-0.9-3.2-1.3c0,14.3,0,28.6,0,43c0,1,0.9,1.9,1.9,1.9c0,0,0.1,0,0.1,0c-0.6-0.6-1.3-1.3-1.9-1.9c0,0.3,0,0.7,0,1
					c0,1,0.9,1.9,1.9,1.9c16.4,0,32.7,0,49.1,0c1,0,1.9-0.9,1.9-1.9c0-8.4,0-16.8,0-25.2c0-1-0.9-1.9-1.9-1.9c-8,0-16,0-24,0
					c0.6,0.6,1.3,1.3,1.9,1.9c0.3-28,0.6-55.9,0.8-83.9c0-1.7-2-2.4-3.2-1.3c-11.7,10.5-22.1,22.2-32.8,33.7
					c-11.3,12.1-22.6,24.2-33.9,36.4c0.9,0,1.8,0,2.7,0c-12.9-13-25.9-26.1-38.8-39.1c-1-1.1-2.1-2.1-3.1-3.2
					c-1.4-1.4-0.6-1.3-0.6,0.2c0-2.1-4.1-4.9-5.4-6.2c-6.6-6.7-13.3-13.3-19.9-20c-1.2-1.2-3.2-0.3-3.2,1.3
					c-0.1,14.3-0.2,28.5-0.2,42.8C89.2,76.4,92.9,76.4,92.9,74L92.9,74z"/>
			</g>
		</g>
	</g>
</g>
<g id="Line_Expand">
	<g>
		<path d="M18.9,195.8c0-8.2,0-16.3,0-24.5c0-2.4-3.8-2.4-3.8,0c0,8.2,0,16.3,0,24.5C15.1,198.2,18.9,198.2,18.9,195.8z"/>
		<path d="M100.9,100.1c-18.8,0-37.5,0-56.2,0c-2.4,0-2.4,3.8,0,3.8c18.8,0,37.5,0,56.2,0C103.3,103.9,103.3,100.1,100.9,100.1z"/>
		<path d="M44.6,84.4c18.8,0,37.5,0,56.2,0c2.4,0,2.4-3.8,0-3.8c-18.8,0-37.5,0-56.2,0C42.2,80.6,42.2,84.4,44.6,84.4z"/>
		<path d="M205.3,47.3c-3.5,3.8-7.1,7.6-10.6,11.4c-1.6,1.8,1,4.4,2.7,2.7c3.5-3.8,7.1-7.6,10.6-11.4
			C209.6,48.2,206.9,45.5,205.3,47.3z"/>
		<path d="M249,111.5c-7.4,0-14.7,0-22.1,0c0.3-27.3,0.5-54.7,0.8-82c0-1.7-2-2.4-3.2-1.3c-2.8,2.5-5.7,5.1-8.5,7.6
			c-1.8,1.6,0.9,4.3,2.7,2.7c1.7-1.6,3.5-3.1,5.2-4.7c-0.3,26.5-0.5,53.1-0.8,79.6c0,1,0.9,1.9,1.9,1.9c7.4,0,14.8,0,22.1,0
			c0,7.1,0,14.3,0,21.4c-15.1,0-30.3,0-45.4,0c0-14,0-28.1,0-42.1c0-1.6-2.1-2.5-3.2-1.3c-13,14-26.1,28-39.1,41.9
			c-13.9-14-27.9-28-41.8-42c0.2-9.4-0.8-20.3-10.7-20.3c-4.7,0-9.3,0-14,0c0.1-12.3,0.1-24.7,0.2-37c5.4,5.4,10.8,10.8,16.1,16.2
			c1.4,1.4,2.8,2.8,4.2,4.2c0.3,0.3,0.6,0.6,1,1c0,0,0,0,0,0c0.8,1.5,3.1,3.1,4.1,4.1c13.1,13.2,26.2,26.4,39.3,39.5
			c0.7,0.7,2,0.7,2.7,0c9-9.6,18-19.3,27-28.9c1.6-1.8-1-4.4-2.7-2.7c-8.6,9.2-17.1,18.4-25.7,27.6c-12.5-12.6-25-25.1-37.5-37.7
			c-1-1.1-2.1-2.1-3.1-3.2c-1.4-1.4-0.6-1.3-0.6,0.2c0-2.1-4.1-4.9-5.4-6.2c-6.6-6.7-13.3-13.3-19.9-20c-1.2-1.2-3.2-0.3-3.2,1.3
			c-0.1,13.9-0.2,27.7-0.2,41.6c-5.1,0-10.2,0-15.3,0c-11.3,0-22.7,0-34,0c-13.7,0-10.5,20.8-10.4,29.9c-0.4,4.3-0.1,8.9,0,12.5
			c-0.6,0-1.2,0-1.8,0c-8.7,0-12.5,6.7-12.5,14.5c0,8.3,0,16.6,0,24.9c0,2.4,3.8,2.4,3.8,0c0-5.9,0-11.8,0-17.6c0-6.5-1.7-18,8.2-18
			c9.6,0,19.2,0,28.9,0c15.8,0,31.7,0,47.5,0c5,0,10,0,15,0c5.7,0,10.7,2.4,10.7,9.1c0,9.5,0,19.1,0,28.7c-3.3-0.1-6.7,0.2-9.8,0.2
			c-7.5,0-15.1,0-22.6,0c-5.9,0-12.4,0.9-14.7,7.5c-0.5,1.5-0.7,2.8-0.9,4.4c0,7.9,0.7,15.8,10,17.7c4.8,1,10.5,0.2,15.4,0.2
			c7.3,0,14.6,0,21.9,0c0.2,0,0.4,0,0.7,0c0,11.3,0,22.6,0,33.9c0,6.9-5.5,8.7-11.1,8.7c-5.1,0-10.3,0-15.4,0c-25.2,0-50.4,0-75.6,0
			c-4.7,0-7.8-3.7-8.1-8.1c-0.2-2.4-3.9-2.4-3.8,0c0.9,13.6,14.5,11.9,24.2,11.9c15.4,0,30.7,0,46.1,0c11.5,0,23,0,34.5,0
			c6.4,0,11.5-3.6,12.8-10c1-4.9,0.2-10.8,0.2-15.8c0-7,0-14,0-21c4.9-1,8.7-3.9,9.8-9.6c1.4-6.7,0-16.3-7.3-18.9
			c-0.8-0.3-1.7-0.5-2.5-0.6c0-5,0-10.1,0-15.1c0-5.3,0.9-11.5-0.2-16.7c-1.7-8.3-8.4-10-15.5-10.2c0.1-3.5,0.4-8,0-12.2
			c0-1.3,0.1-2.9,0.2-4.6c13.6,13.7,27.1,27.3,40.7,41c0.7,0.7,2,0.7,2.7,0c12.4-13.3,24.8-26.6,37.2-39.9c0,12.7,0,25.5,0,38.2
			c0,0.2,0,0.4,0.1,0.6c0,0.1,0,0.2,0,0.4c0,1,0.9,1.9,1.9,1.9c16.4,0,32.7,0,49.1,0c1,0,1.9-0.9,1.9-1.9c0-8.4,0-16.8,0-25.2
			C250.9,112.3,250,111.5,249,111.5z M139.1,174.7c0,7.9-7.5,8.1-13.2,8.1c-6.1,0-12.3,0-18.4,0c-4.6,0-9.1,0-13.7,0
			c-8.7,0-9-7.6-9-14.1c0.5-7.9,7.2-8.1,13.2-8.1c6.1,0,12.3,0,18.4,0c4.6,0,9.1,0,13.7,0C138.9,160.5,139.1,168.1,139.1,174.7z
			 M40.9,76.5c10.7,0,21.3,0,32,0c10.9,0,21.8,0,32.6,0c6.4,0,8,5.5,8,11c0,1.7,0,3.5,0,5.2c-1.6-1.6-3.9-2.6-7.2-2.6
			c-11.2,0-22.3,0-33.5,0c-10.9,0-21.8,0-32.7,0c-3.4,0-5.8,1.2-7.4,3C32.6,85.2,33.6,76.5,40.9,76.5z M33.2,115.1c0-4,0-8,0-11.9
			c0-5.9,3.1-9.3,8.7-9.3c10.3,0,20.6,0,30.9,0c10.5,0,21,0,31.5,0c5.2,0,9.1,2.4,9.1,8.5c0,0.2,0,0.5,0,0.7c0,4,0,8,0,12
			c-2.2,0-4.3,0.1-6.2,0.1C82.6,115.1,57.9,115.1,33.2,115.1z"/>
	</g>
</g>
<g id="Glyph" class="st0">
	<g class="st1">
		<path d="M225,115.2c-1,0-1.9-0.9-1.9-1.9c0.3-26.5,0.5-53,0.8-79.5c-10.4,9.7-19.9,20.3-29.6,30.7c-11.3,12.1-22.6,24.2-33.9,36.4
			c-0.7,0.7-2,0.7-2.7,0c-13.1-13.2-26.2-26.4-39.3-39.5c-1-1-3.3-2.6-4.1-4.1c0,0,0,0,0,0c-0.3-0.3-0.6-0.6-1-1
			c-1.4-1.4-2.8-2.8-4.2-4.2c-5.4-5.4-10.8-10.8-16.1-16.2c-0.1,12.3-0.1,24.7-0.2,37c4.7,0,9.3,0,14,0c9.8,0,10.9,10.9,10.7,20.3
			c13.9,14,27.9,28,41.8,42c13-14,26.1-28,39.1-41.9c1.1-1.2,3.2-0.3,3.2,1.3c0,14,0,28.1,0,42.1c15.1,0,30.3,0,45.4,0
			c0-7.1,0-14.3,0-21.4C239.8,115.2,232.4,115.2,225,115.2z"/>
		<path d="M72.8,93.9c-10.3,0-20.6,0-30.9,0c-5.6,0-8.7,3.4-8.7,9.3c0,4,0,8,0,11.9c24.7,0,49.4,0,74,0c1.9,0,4.1-0.1,6.2-0.1
			c0-4,0-8,0-12c0-0.2,0-0.5,0-0.7c0-6.1-3.9-8.5-9.1-8.5C93.9,93.9,83.3,93.9,72.8,93.9z M100.9,103.9c-18.8,0-37.5,0-56.2,0
			c-2.4,0-2.4-3.8,0-3.8c18.8,0,37.5,0,56.2,0C103.3,100.1,103.3,103.9,100.9,103.9z"/>
		<path d="M40.2,90.1c10.9,0,21.8,0,32.7,0c11.2,0,22.3,0,33.5,0c3.2,0,5.5,1,7.2,2.6c0-1.7,0-3.5,0-5.2c0-5.5-1.5-11-8-11
			c-10.9,0-21.8,0-32.6,0c-10.7,0-21.3,0-32,0c-7.3,0-8.3,8.7-8.1,16.6C34.4,91.3,36.8,90.1,40.2,90.1z M44.6,80.6
			c18.8,0,37.5,0,56.2,0c2.4,0,2.4,3.8,0,3.8c-18.8,0-37.5,0-56.2,0C42.2,84.4,42.2,80.6,44.6,80.6z"/>
		<path d="M106.6,186.5c-4.9,0-10.6,0.8-15.4-0.2c-9.3-1.9-10-9.8-10-17.7c0.1-1.6,0.3-2.9,0.9-4.4c2.3-6.6,8.8-7.5,14.7-7.5
			c7.5,0,15.1,0,22.6,0c3.1,0,6.5-0.3,9.8-0.2c0-8.7,0-17.4,0-26.1c0-5.5-1.2-11.7-8.3-11.7c-2,0-4,0-6,0c-22,0-44.1,0-66.1,0
			c-5.7,0-11.4,0-17.1,0c-5.6,0-12.8,0.3-12.8,8.1c0,10.4,0,20.9,0,31.3c0,12.1,0,24.2,0,36.2c0,4.9,0,9.9,0,14.8
			c0,6.7-2.1,19.7,8.1,19.7c25.2,0,50.4,0,75.6,0c5.1,0,10.3,0,15.4,0c5.6,0,11.1-1.8,11.1-8.7c0-11.3,0-22.6,0-33.9
			c-0.2,0-0.4,0-0.7,0C121.2,186.5,113.9,186.5,106.6,186.5z"/>
		<path d="M130.2,160.5c-4.6,0-9.1,0-13.7,0c-6.1,0-12.3,0-18.4,0c-5.9,0-12.6,0.2-13.2,8.1c0,6.6,0.2,14.1,9,14.1
			c4.6,0,9.1,0,13.7,0c6.1,0,12.3,0,18.4,0c5.7,0,13.2-0.2,13.2-8.1C139.1,168.1,138.9,160.5,130.2,160.5z"/>
	</g>
</g>
</svg>
