<?xml version="1.0" encoding="utf-8"?>
<!-- Generator: Adobe Illustrator 23.0.3, SVG Export Plug-In . SVG Version: 6.00 Build 0)  -->
<svg version="1.1" xmlns="http://www.w3.org/2000/svg" xmlns:xlink="http://www.w3.org/1999/xlink" x="0px" y="0px"
	 viewBox="0 0 256 256" style="enable-background:new 0 0 256 256;" xml:space="preserve">
<style type="text/css">
	.st0{display:none;}
	.st1{display:inline;}
</style>
<g id="SOURCE" class="st0">
	<g class="st1">
		<g>
			<path d="M218.3,128.8c-0.2,24.2-9.3,47.1-25.9,64.7c-1.7,1.8,1,4.4,2.7,2.7c17.2-18.4,26.8-42.2,27-67.4
				C222.1,126.3,218.4,126.3,218.3,128.8L218.3,128.8z"/>
		</g>
	</g>
	<circle class="st1" cx="190.7" cy="199.6" r="2.4"/>
	<g class="st1">
		<g>
			<path d="M78.9,127.5c14.9-14.9,29.9-29.9,44.8-44.8c-0.9,0-1.8,0-2.7,0c5.6,5.6,11.2,11.2,16.8,16.8c0-0.9,0-1.8,0-2.7
				c-15.9,15.9-31.7,31.7-47.6,47.6c-3.6,3.6-7.1,7.1-10.7,10.7c-0.9,0.9-1.9,1.9-2.8,2.8c-1.4,1.4,1.7,0.1-0.2,0.1
				c-10.9,0-21.9,0-32.8,0c0.4,1.1,0.9,2.1,1.3,3.2C56.3,150.1,67.6,138.8,78.9,127.5c1.7-1.7-0.9-4.4-2.7-2.7
				c-11.3,11.3-22.6,22.6-33.8,33.8c-1.2,1.2-0.3,3.2,1.3,3.2c10.9,0,21.9,0,32.8,0c2.1,0,3-1.3,4.4-2.8c3.6-3.6,7.2-7.2,10.8-10.8
				c16.3-16.3,32.5-32.5,48.8-48.8c0.7-0.7,0.7-1.9,0-2.7c-5.6-5.6-11.2-11.2-16.8-16.8c-0.7-0.7-1.9-0.7-2.7,0
				c-14.9,14.9-29.9,29.9-44.8,44.8C74.5,126.6,77.2,129.2,78.9,127.5z"/>
		</g>
	</g>
	<g class="st1">
		<g>
			<path d="M148.5,109.9c17.2,17.2,34.3,34.3,51.5,51.5c0.4-1.1,0.9-2.1,1.3-3.2c-7.4,0-14.8,0-22.2,0c-3.5,0-7,0-10.6,0
				c-1.9,0,0.8,0.9,0.1,0.3c-0.7-0.7-1.4-1.4-2.1-2.1c-10.7-10.7-21.5-21.5-32.2-32.2c0,0.9,0,1.8,0,2.7
				c5.6-5.6,11.2-11.2,16.8-16.8c1.7-1.7-0.9-4.4-2.7-2.7c-5.6,5.6-11.2,11.2-16.8,16.8c-0.7,0.7-0.7,1.9,0,2.7
				c11,11,21.9,21.9,32.9,32.9c3.6,3.6,8.7,2.3,13.6,2.3c7.7,0,15.4,0,23.1,0c1.6,0,2.5-2,1.3-3.2c-17.2-17.2-34.3-34.3-51.5-51.5
				C149.5,105.5,146.8,108.2,148.5,109.9z"/>
		</g>
	</g>
	<g class="st1">
		<g>
			<path d="M100.3,161.3c9.6-9.6,19.1-19.1,28.7-28.7c-0.9,0-1.8,0-2.7,0c9.6,9.6,19.1,19.1,28.7,28.7c0.4-1.1,0.9-2.1,1.3-3.2
				c-19.1,0-38.2,0-57.3,0c-2.4,0-2.4,3.8,0,3.8c19.1,0,38.2,0,57.3,0c1.6,0,2.5-2,1.3-3.2c-9.6-9.6-19.1-19.1-28.7-28.7
				c-0.7-0.7-1.9-0.7-2.7,0c-9.6,9.6-19.1,19.1-28.7,28.7C95.9,160.4,98.6,163.1,100.3,161.3z"/>
		</g>
	</g>
	<g class="st1">
		<g>
			<path d="M234.1,130.5c-0.3,46.9-31,88.7-75.8,102.8c-45.1,14.2-95-4.1-121.3-43c-26.5-39.1-23.2-92.5,6.8-128.8
				c30.1-36.4,82-48.4,125.3-30C208.4,48.4,233.9,88.1,234.1,130.5c0,2.4,3.8,2.4,3.8,0c-0.3-44.1-26.5-84.3-66.9-102.1
				c-40.5-17.9-88.7-8.9-120.9,21.1C17.5,79.8,6.8,128.2,22.2,169.7c15.1,40.9,54.1,69,97.3,72c30.6,2.1,61-9.3,83.4-30.1
				c22.4-20.8,34.8-50.6,35-81C237.9,128.1,234.1,128.1,234.1,130.5z"/>
		</g>
	</g>
</g>
<g id="Line_Expand">
	<g>
		<path d="M231.6,95.1c-3.3-9.8-7.8-19-13.5-27.6c-1.3-2-4.6-0.1-3.2,1.9c5.5,8.3,9.9,17.2,13.1,26.7
			C228.7,98.3,232.4,97.4,231.6,95.1z"/>
		<path d="M233.3,129.8c-0.3,46.9-31,88.7-75.8,102.8c-45.1,14.2-95-4.1-121.3-43C9.7,150.5,13.1,97.1,43,60.9
			c32-38.7,88-49.4,132.4-26.6c10.4,5.3,19.8,12.6,27.9,20.9c1.7,1.7,4.3-0.9,2.7-2.7C171.6,17.3,117.8,8.5,74.1,31
			C34.8,51.3,11.6,94.3,14.7,138.1c3,43.5,32.6,81.4,73.2,96.4c41.7,15.4,89.7,3,119.8-29.3c19-20.4,29.3-47.7,29.5-75.5
			C237.1,127.3,233.4,127.3,233.3,129.8z"/>
		<path d="M195.1,196.1c17.2-18.4,26.8-42.2,27-67.4c0-2.4-3.7-2.4-3.8,0c-0.2,24.2-9.3,47.1-25.9,64.7
			C190.8,195.2,193.4,197.9,195.1,196.1z"/>
		<circle cx="190.7" cy="199.6" r="2.4"/>
		<path d="M63.2,143.2c3-3,6-6,8.9-8.9c1.7-1.7-0.9-4.4-2.7-2.7c-3,3-6,6-8.9,8.9C58.8,142.2,61.5,144.9,63.2,143.2z"/>
		<path d="M50.4,150.6c-2.7,2.7-5.4,5.4-8,8c-1.2,1.2-0.3,3.2,1.3,3.2c10.9,0,21.9,0,32.8,0c2.1,0,3-1.3,4.4-2.8
			c3.6-3.6,7.2-7.2,10.8-10.8c16.3-16.3,32.5-32.5,48.8-48.8c0.7-0.7,0.7-1.9,0-2.7c-5.6-5.6-11.2-11.2-16.8-16.8
			c-0.7-0.7-1.9-0.7-2.7,0c-14.9,14.9-29.9,29.9-44.8,44.8c-1.7,1.7,0.9,4.4,2.7,2.7c14.5-14.5,29-29,43.5-43.5
			c4.7,4.7,9.5,9.5,14.2,14.2c-15.4,15.4-30.9,30.9-46.3,46.3c-3.6,3.6-7.1,7.1-10.7,10.7c-0.9,0.9-1.9,1.9-2.8,2.8
			c0,0-0.1,0.1-0.1,0.1c0,0-0.1,0-0.1,0c-9.4,0-18.8,0-28.2,0c1.6-1.6,3.2-3.2,4.8-4.8C54.8,151.6,52.1,148.9,50.4,150.6z"/>
		<path d="M178.2,161.9c7.7,0,15.4,0,23.1,0c1.6,0,2.5-2,1.3-3.2c-17.2-17.2-34.3-34.3-51.5-51.5c-0.4-0.4-0.8-0.5-1.3-0.5
			c0,0,0,0-0.1,0c0,0-0.1,0-0.1,0c-0.4,0-0.9,0.2-1.3,0.5c-5.6,5.6-11.2,11.2-16.8,16.8c-0.7,0.7-0.7,1.9,0,2.7
			c11,11,21.9,21.9,32.9,32.9C168.2,163.2,173.2,161.9,178.2,161.9z M168.5,158.1c0,0-0.1,0-0.1,0c-0.6-0.6-1.3-1.3-1.9-1.9
			c-10.3-10.3-20.6-20.6-30.9-30.9c4.7-4.7,9.5-9.5,14.2-14.2c15.6,15.6,31.3,31.3,46.9,46.9c-5.9,0-11.8,0-17.7,0
			C175.6,158.1,172.1,158.1,168.5,158.1z"/>
		<path d="M97.3,160.8c0.2,0.6,0.8,1.1,1.6,1.1c0,0,0.1,0,0.1,0c0,0,0,0,0,0c19.1,0,38.2,0,57.3,0c1.6,0,2.5-2,1.3-3.2
			c-9.6-9.6-19.1-19.1-28.7-28.7c-0.7-0.7-1.9-0.7-2.7,0c-9.6,9.6-19.1,19.1-28.7,28.7c0,0,0,0,0,0c0,0,0,0,0,0.1
			C97,159.4,97,160.1,97.3,160.8z M151.8,158.1c-16.1,0-32.2,0-48.3,0c8-8,16.1-16.1,24.1-24.1C135.7,142,143.8,150.1,151.8,158.1z"
			/>
	</g>
</g>
<g id="Glyph" class="st0">
	<g class="st1">
		<path d="M126.5,21C66,21,17,70.1,17,130.5S66,240,126.5,240S236,191,236,130.5S187,21,126.5,21z M43.7,160l8-8l10.1-10.1l8.9-8.9
			l6.7-6.7l44.8-44.8l16.8,16.8L77.4,160H43.7z M99,160l28.7-28.7l28.7,28.7H99z M133,125.4l16.8-16.8l51.5,51.5h-33.7L133,125.4z
			 M190.7,202c-1.3,0-2.4-1.1-2.4-2.4c0-1.3,1.1-2.4,2.4-2.4c1.3,0,2.4,1.1,2.4,2.4C193,200.9,192,202,190.7,202z M195.1,196.1
			c-1.7,1.8-4.3-0.9-2.7-2.7c16.6-17.6,25.7-40.5,25.9-64.7c0-2.4,3.8-2.4,3.8,0C221.9,153.9,212.3,177.8,195.1,196.1z"/>
	</g>
</g>
</svg>
