<?xml version="1.0" encoding="utf-8"?>
<!-- Generator: Adobe Illustrator 23.0.3, SVG Export Plug-In . SVG Version: 6.00 Build 0)  -->
<svg version="1.1" xmlns="http://www.w3.org/2000/svg" xmlns:xlink="http://www.w3.org/1999/xlink" x="0px" y="0px"
	 viewBox="0 0 256 256" style="enable-background:new 0 0 256 256;" xml:space="preserve">
<style type="text/css">
	.st0{display:none;}
	.st1{display:inline;}
</style>
<g id="SOURCE" class="st0">
	<g class="st1">
		<g>
			<path d="M174.2,209.3c-21.4,11.3-45.9,14-69.3,7.8c-2.3-0.6-3.3,3-1,3.6c24.4,6.5,49.8,3.6,72.1-8.1
				C178.2,211.4,176.4,208.1,174.2,209.3L174.2,209.3z"/>
		</g>
	</g>
	<path class="st1" d="M99.9,220.5c-1.2,0.6-2.6,0.2-3.2-1c-0.6-1.2-0.2-2.6,1-3.2c1.2-0.6,2.6-0.2,3.2,1
		C101.4,218.4,101,219.9,99.9,220.5z"/>
	<g class="st1">
		<g>
			<path d="M29,176.9c19.6,0,39.1,0,58.7,0c1,0,1.9-0.9,1.9-1.9c0-8.4,0-16.8,0-25.2c0-1-0.9-1.9-1.9-1.9c-0.1,0-0.1,0-0.2,0
				c0.6,0.6,1.3,1.3,1.9,1.9c0-6.4,0-12.8,0-19.1c-1.1,0.4-2.1,0.9-3.2,1.3c14.5,14.6,28.9,29.1,43.4,43.7c0.7,0.7,2,0.7,2.7,0
				c13.5-14.4,26.9-28.9,40.4-43.3c-1.1-0.4-2.1-0.9-3.2-1.3c0,14.3,0,28.6,0,43c0,1,0.9,1.9,1.9,1.9c0,0,0.1,0,0.1,0
				c-0.6-0.6-1.3-1.3-1.9-1.9c0,0.3,0,0.7,0,1c0,1,0.9,1.9,1.9,1.9c18.5,0,37,0,55.4,0c2.4,0,2.4-3.8,0-3.8c-18.5,0-37,0-55.4,0
				c0.6,0.6,1.3,1.3,1.9,1.9c0-0.3,0-0.7,0-1c0-1-0.9-1.9-1.9-1.9c0,0-0.1,0-0.1,0c0.6,0.6,1.3,1.3,1.9,1.9c0-14.3,0-28.6,0-43
				c0-1.6-2.1-2.5-3.2-1.3c-13.5,14.4-26.9,28.9-40.4,43.3c0.9,0,1.8,0,2.7,0c-14.5-14.6-28.9-29.1-43.4-43.7
				c-1.2-1.2-3.2-0.3-3.2,1.3c0,6.4,0,12.8,0,19.1c0,1,0.9,1.9,1.9,1.9c0.1,0,0.1,0,0.2,0c-0.6-0.6-1.3-1.3-1.9-1.9
				c0,8.4,0,16.8,0,25.2c0.6-0.6,1.3-1.3,1.9-1.9c-19.6,0-39.1,0-58.7,0C26.6,173.1,26.6,176.9,29,176.9L29,176.9z"/>
		</g>
	</g>
	<g class="st1">
		<g>
			<path d="M21.3,151.7c13.7,0,27.3,0,41,0c1,0,1.9-0.9,1.9-1.9c0.2-27.4,0.3-54.7,0.5-82.1c-1.1,0.4-2.1,0.9-3.2,1.3
				c6.4,6.5,12.9,13,19.3,19.4c1.4,1.4,2.8,2.8,4.2,4.2c0.3,0.3,0.6,0.6,1,1c0.9,0.9-0.7-2.2-0.2-0.6c0.5,1.7,3.2,3.5,4.4,4.7
				c13.1,13.2,26.2,26.4,39.3,39.5c0.7,0.7,2,0.7,2.7,0c11.3-12.1,22.6-24.2,33.9-36.4c10.7-11.5,21.1-23.2,32.8-33.7
				c-1.1-0.4-2.1-0.9-3.2-1.3c-0.3,28-0.6,55.9-0.8,83.9c0,1,0.9,1.9,1.9,1.9c13,0,26,0,39-0.1c2.4,0,2.4-3.8,0-3.8
				c-13,0-26,0.1-39,0.1c0.6,0.6,1.3,1.3,1.9,1.9c0.3-28,0.6-55.9,0.8-83.9c0-1.7-2-2.4-3.2-1.3c-11.7,10.5-22.1,22.2-32.8,33.7
				c-11.3,12.1-22.6,24.2-33.9,36.4c0.9,0,1.8,0,2.7,0c-12.9-13-25.9-26.1-38.8-39.1c-1-1.1-2.1-2.1-3.1-3.2
				c-1.4-1.4-0.6-1.3-0.6,0.2c0-2.1-4.1-4.9-5.4-6.2c-6.6-6.7-13.3-13.3-19.9-20c-1.2-1.2-3.2-0.3-3.2,1.3
				c-0.2,27.4-0.3,54.7-0.5,82.1c0.6-0.6,1.3-1.3,1.9-1.9c-13.7,0-27.3,0-41,0C18.9,148,18.9,151.7,21.3,151.7L21.3,151.7z"/>
		</g>
	</g>
	<g class="st1">
		<g>
			<path d="M235.6,128.5c-0.3,46.9-31,88.7-75.8,102.8c-45.1,14.2-95-4.1-121.3-43C12,149.2,15.4,95.9,45.3,59.6
				c30.1-36.4,82-48.4,125.3-30C209.9,46.4,235.4,86,235.6,128.5c0,2.4,3.8,2.4,3.8,0c-0.3-44.1-26.5-84.3-66.9-102.1
				C131.9,8.5,83.8,17.5,51.6,47.5C19,77.8,8.3,126.1,23.7,167.6c15.1,40.9,54.1,69,97.3,72c30.6,2.1,61-9.3,83.4-30.1
				c22.4-20.8,34.8-50.6,35-81C239.4,126.1,235.6,126.1,235.6,128.5z"/>
		</g>
	</g>
</g>
<g id="Line_Expand">
	<g>
		<path d="M173.1,212.5c2.1-1.1,0.2-4.4-1.9-3.2c-21.4,11.3-45.9,14-69.3,7.8c-2.3-0.6-3.3,3-1,3.6
			C125.3,227.1,150.8,224.2,173.1,212.5z"/>
		<path d="M96.9,220.5c1.2-0.6,1.6-2.1,1-3.2c-0.6-1.2-2.1-1.6-3.2-1c-1.2,0.6-1.6,2.1-1,3.2C94.3,220.7,95.7,221.1,96.9,220.5z"/>
		<path d="M227.3,94.3c0.8,2.3,4.4,1.3,3.6-1c-3.3-9.8-7.8-19-13.5-27.6c-1.3-2-4.6-0.1-3.2,1.9C219.7,76,224,84.8,227.3,94.3z"/>
		<path d="M173.8,83.8c-3.5,3.8-7.1,7.6-10.6,11.4c-1.6,1.8,1,4.4,2.7,2.7c3.5-3.8,7.1-7.6,10.6-11.4
			C178.1,84.7,175.4,82,173.8,83.8z"/>
		<path d="M55.5,173.1c-2.4,0-2.4,3.8,0,3.8c4.8,0,9.7,0,14.5,0c2.4,0,2.4-3.8,0-3.8C65.2,173.1,60.3,173.1,55.5,173.1z"/>
		<path d="M16,151.2c1.8,8.4,4.5,16.4,8.2,24.1c0,0.5,0.2,0.9,0.6,1.2c12.6,25.6,34.9,46.2,62.3,56.3c41.7,15.4,89.7,3,119.8-29.3
			c13.7-14.7,22.9-33,27-52.5c0.4-0.5,0.5-1.1,0.3-1.7c1.4-7,2.1-14.1,2.1-21.2c0-2.4-3.7-2.4-3.8,0c0,6.8-0.7,13.4-2,19.9
			c-11.7,0-23.5,0.1-35.2,0.1c0.3-27.3,0.5-54.7,0.8-82c0-1.7-2-2.4-3.2-1.3c-2.8,2.5-5.7,5.1-8.5,7.6c-1.8,1.6,0.9,4.3,2.7,2.7
			c1.7-1.6,3.5-3.1,5.2-4.7c-0.3,26.5-0.5,53.1-0.8,79.6c0,1,0.9,1.9,1.9,1.9c12.1,0,24.2,0,36.3-0.1c-1.7,7.5-4.2,14.7-7.4,21.5
			c-17.4,0-34.8,0-52.2,0c0-14,0-28.1,0-42.1c0-1.6-2.1-2.5-3.2-1.3c-13,14-26.1,28-39.1,41.9c-14-14.1-28-28.2-42-42.3
			c-1.2-1.2-3.2-0.3-3.2,1.3c0,6.4,0,12.8,0,19.1c0,0.3,0.1,0.6,0.2,0.8c0,7.5,0,15,0,22.5c-0.8,0-1.5,0-2.3,0c-2.4,0-2.4,3.8,0,3.8
			c1.4,0,2.8,0,4.2,0c1,0,1.9-0.9,1.9-1.9c0-8.4,0-16.8,0-25.2c0-0.3-0.1-0.6-0.2-0.8c0-4.6,0-9.2,0-13.8
			c13.4,13.5,26.8,27,40.2,40.5c0.7,0.7,2,0.7,2.7,0c12.4-13.3,24.8-26.6,37.2-39.9c0,12.7,0,25.5,0,38.2c0,0.2,0,0.4,0.1,0.6
			c0,0.1,0,0.2,0,0.4c0,1,0.9,1.9,1.9,1.9c17.4,0,34.8,0,52.1,0c-13,25.2-35.6,45.1-63.8,54c-45.1,14.2-95-4.1-121.3-43
			c-2.4-3.6-4.6-7.2-6.5-11c5.1,0,10.1,0,15.2,0c2.4,0,2.4-3.8,0-3.8c-5.7,0-11.3,0-17,0c-3.2-6.9-5.6-14.1-7.2-21.4
			c13.1,0,26.2,0,39.2,0c1,0,1.9-0.9,1.9-1.9c0.1-25.9,0.3-51.7,0.4-77.6c5.4,5.4,10.7,10.8,16.1,16.2c1.4,1.4,2.8,2.8,4.2,4.2
			c0.3,0.3,0.6,0.6,1,1c0,0,0,0,0,0c0.8,1.5,3.1,3.1,4.1,4.1c13.1,13.2,26.2,26.4,39.3,39.5c0.7,0.7,2,0.7,2.7,0
			c9-9.6,18-19.3,27-28.9c1.6-1.8-1-4.4-2.7-2.7c-8.6,9.2-17.1,18.4-25.7,27.6c-12.5-12.6-25-25.1-37.5-37.7c-1-1.1-2.1-2.1-3.1-3.2
			c-1.4-1.4-0.6-1.3-0.6,0.2c0-2.1-4.1-4.9-5.4-6.2c-6.6-6.7-13.3-13.3-19.9-20c-1.2-1.2-3.2-0.3-3.2,1.3
			c-0.1,26.7-0.3,53.5-0.4,80.2c-12.7,0-25.4,0-38.1,0c-5.6-30.9,2.4-63.9,23-88.8c32-38.7,88-49.4,132.4-26.6
			c10.4,5.3,19.8,12.6,27.9,20.9c1.7,1.7,4.3-0.9,2.7-2.7c-34.3-35.2-88.2-44-131.9-21.5C34.1,49.5,10.9,92.6,13.9,136.4
			c0.3,4.3,0.9,8.6,1.7,12.8C15.4,149.8,15.5,150.7,16,151.2z"/>
	</g>
</g>
<g id="Glyph" class="st0">
	<g class="st1">
		<g>
			<path d="M123.2,18C62.7,18,13.7,67,13.7,127.5c0,7.6,0.8,15.1,2.3,22.3h25.4h17.9l0.5-82.1l24.7,24.9l0,0v0l43.1,43.4l27-28.9
				l9.9-10.6l10.6-11.4l10.7-11.5l8.5-7.6l-0.8,83.9h18.3l18.6-0.1c1.5-7.2,2.3-14.6,2.3-22.3C232.7,67,183.6,18,123.2,18z"/>
		</g>
		<g>
			<g>
				<path d="M168.4,175v-1h-0.1v-43l-40.4,43.3l-43.4-43.7v19.1h0.2V175h-4.2H70H55.5H44.3H24.5c17.7,36.7,55.2,62,98.7,62
					s81-25.3,98.7-62H168.4z M96.9,220.5c-1.2,0.6-2.6,0.2-3.2-1c-0.6-1.2-0.2-2.6,1-3.2c1.2-0.6,2.6-0.2,3.2,1
					C98.4,218.4,98,219.9,96.9,220.5z M173.1,212.5c-22.3,11.7-47.8,14.6-72.1,8.1c-2.3-0.6-1.3-4.2,1-3.6
					c23.4,6.2,47.8,3.5,69.3-7.8C173.4,208.1,175.2,211.4,173.1,212.5z"/>
			</g>
		</g>
	</g>
</g>
</svg>
