<?xml version="1.0" encoding="utf-8"?>
<!-- Generator: Adobe Illustrator 23.0.3, SVG Export Plug-In . SVG Version: 6.00 Build 0)  -->
<svg version="1.1" xmlns="http://www.w3.org/2000/svg" xmlns:xlink="http://www.w3.org/1999/xlink" x="0px" y="0px"
	 viewBox="0 0 256 256" style="enable-background:new 0 0 256 256;" xml:space="preserve">
<style type="text/css">
	.st0{display:none;}
	.st1{display:inline;}
</style>
<g id="SOURCE" class="st0">
	<g class="st1">
		<g>
			<path d="M100.8,95.1c-19.3,0-38.5,0-57.8,0c0.6,0.6,1.3,1.3,1.9,1.9c0-5.6,0-11.2,0-16.8c0-1.6-2-2.5-3.2-1.3
				c-9.8,9.8-19.5,19.5-29.3,29.3c-0.7,0.7-0.7,1.9,0,2.7c9.8,9.8,19.5,19.5,29.3,29.3c1.2,1.2,3.2,0.3,3.2-1.3c0-5.1,0-10.2,0-15.3
				c-0.6,0.6-1.3,1.3-1.9,1.9c19.3,0,38.5,0,57.8,0c1,0,1.9-0.9,1.9-1.9c0-8.8,0-17.7,0-26.5c0-2.4-3.8-2.4-3.8,0
				c0,8.8,0,17.7,0,26.5c0.6-0.6,1.3-1.3,1.9-1.9c-19.3,0-38.5,0-57.8,0c-1,0-1.9,0.9-1.9,1.9c0,5.1,0,10.2,0,15.3
				c1.1-0.4,2.1-0.9,3.2-1.3c-9.8-9.8-19.5-19.5-29.3-29.3c0,0.9,0,1.8,0,2.7c9.8-9.8,19.5-19.5,29.3-29.3c-1.1-0.4-2.1-0.9-3.2-1.3
				c0,5.6,0,11.2,0,16.8c0,1,0.9,1.9,1.9,1.9c19.3,0,38.5,0,57.8,0C103.2,98.9,103.2,95.1,100.8,95.1z"/>
		</g>
	</g>
	<g class="st1">
		<g>
			<path d="M15.8,165.9c19.3,0,38.5,0,57.8,0c1,0,1.9-0.9,1.9-1.9c0-5.6,0-11.2,0-16.8c-1.1,0.4-2.1,0.9-3.2,1.3
				c9.8,9.8,19.5,19.5,29.3,29.3c0-0.9,0-1.8,0-2.7c-9.8,9.8-19.5,19.5-29.3,29.3c1.1,0.4,2.1,0.9,3.2,1.3c0-5.1,0-10.2,0-15.3
				c0-1-0.9-1.9-1.9-1.9c-19.3,0-38.5,0-57.8,0c0.6,0.6,1.2,1.3,1.9,1.9c0-8.8,0-17.7,0-26.5c0-2.4-3.7-2.4-3.7,0
				c0,8.8,0,17.7,0,26.5c0,1,0.9,1.9,1.9,1.9c19.3,0,38.5,0,57.8,0c-0.6-0.6-1.3-1.3-1.9-1.9c0,5.1,0,10.2,0,15.3
				c0,1.6,2,2.5,3.2,1.3c9.8-9.8,19.5-19.5,29.3-29.3c0.7-0.7,0.7-1.9,0-2.7c-9.8-9.8-19.5-19.5-29.3-29.3c-1.2-1.2-3.2-0.3-3.2,1.3
				c0,5.6,0,11.2,0,16.8c0.6-0.6,1.3-1.3,1.9-1.9c-19.3,0-38.5,0-57.8,0C13.4,162.1,13.4,165.9,15.8,165.9z"/>
		</g>
	</g>
	<g class="st1">
		<g>
			<path d="M135.8,225.1c-27.5,0-55.1,0-82.6,0c0.6,0.6,1.3,1.3,1.9,1.9c0-11.9,0-23.8,0-35.7c0-2.4-3.8-2.4-3.8,0
				c0,11.9,0,23.8,0,35.7c0,1,0.9,1.9,1.9,1.9c27.5,0,55.1,0,82.6,0C138.2,228.9,138.2,225.1,135.8,225.1L135.8,225.1z"/>
		</g>
	</g>
	<g class="st1">
		<g>
			<path d="M161.7,225.1c-2.8,0-5.7,0-8.5,0c-2.4,0-2.4,3.8,0,3.8c2.8,0,5.7,0,8.5,0C164.2,228.9,164.2,225.1,161.7,225.1
				L161.7,225.1z"/>
		</g>
	</g>
	<g class="st1">
		<g>
			<path d="M55,96.4c0-21.8,0-43.6,0-65.4c-0.6,0.6-1.3,1.3-1.9,1.9c24.7,0,49.3,0,74,0c6,0,11.9,0,17.9,0c1.6,0,3.2,0,4.8,0
				c2.2,0,0.9,0.1,0.5-0.3c8.5,8.3,17,16.6,25.5,24.9c-0.9-0.9-0.5-1.7-0.5,0.1c0,1.2,0,2.4,0,3.6c0,3.7,0,7.3,0,11
				c0,5.3,0,10.6,0,15.9c0,2.4,3.8,2.4,3.8,0c0-5.6,0-11.3,0-16.9c0-3.6,0-7.1,0-10.7c0-1.4,0.5-3.9-0.3-5.2
				c-0.7-1.2-2.1-2.2-3.1-3.1c-2.7-2.6-5.3-5.2-8-7.8c-4.8-4.7-9.6-9.4-14.4-14c-1.6-1.6-3.4-1.2-5.5-1.2c-5.2,0-10.4,0-15.7,0
				c-15.8,0-31.6,0-47.5,0c-10.5,0-21,0-31.6,0c-1,0-1.9,0.9-1.9,1.9c0,21.8,0,43.6,0,65.4C51.3,98.8,55,98.8,55,96.4L55,96.4z"/>
		</g>
	</g>
	<g class="st1">
		<g>
			<path d="M55,163.3c0-13.1,0-26.2,0-39.3c0-2.4-3.8-2.4-3.8,0c0,13.1,0,26.2,0,39.3C51.3,165.7,55,165.7,55,163.3L55,163.3z"/>
		</g>
	</g>
	<g class="st1">
		<g>
			<path d="M176.5,54.1c-8.4,0-16.7,0-25.1,0c0.6,0.6,1.3,1.3,1.9,1.9c0-8.2,0-16.3,0-24.5c-1.1,0.4-2.1,0.9-3.2,1.3
				c8.4,8.2,16.7,16.3,25.1,24.5c1.7,1.7,4.4-1,2.7-2.7c-8.4-8.2-16.7-16.3-25.1-24.5c-1.2-1.1-3.2-0.3-3.2,1.3c0,8.2,0,16.3,0,24.5
				c0,1,0.9,1.9,1.9,1.9c8.4,0,16.7,0,25.1,0C179,57.9,179,54.1,176.5,54.1z"/>
		</g>
	</g>
	<g class="st1">
		<g>
			<path d="M231.7,159.3c-6.7-5.5-12.7-9-21.3-11.1c0,1.2,0,2.4,0,3.6c9.4-2.5,15.4-7.3,21.4-14.9c7.5-9.6,6.4-22.4,0.6-32.4
				c-11.1-19.3-35.5-18.6-54.7-18.6c0.6,0.6,1.3,1.3,1.9,1.9c0-5.1,0-10.1,0-15.2c0-6.2-3.5-9.5-9.6-9.5c-5.7,0-9.6,3-9.6,8.9
				c0,5.3,0,10.5,0,15.8c0.6-0.6,1.3-1.3,1.9-1.9c-3.1,0-6.1,0-9.2,0c0.6,0.6,1.3,1.3,1.9,1.9c0-5.1,0-10.1,0-15.2
				c0-6.2-3.5-9.5-9.6-9.5c-5.7,0-9.6,3-9.6,8.9c0,5.3,0,10.5,0,15.8c0.6-0.6,1.3-1.3,1.9-1.9c-5.3,0-10.7,0-16,0
				c-6.1,0-9.5,3.5-9.5,9.6c0,6.1,3.3,9.6,9.5,9.6c5.3,0,10.7,0,16,0c-0.6-0.6-1.3-1.3-1.9-1.9c0.1,33.8,0.1,67.6,0,101.4
				c0.6-0.6,1.3-1.3,1.9-1.9c-5.3,0-10.7,0-16,0c-6.1,0-9.5,3.5-9.5,9.6c0,6.1,3.3,9.6,9.5,9.6c5.3,0,10.7,0,16,0
				c-0.6-0.6-1.3-1.3-1.9-1.9c0,5.2,0,10.3,0,15.5c0,6.2,3.4,9.5,9.6,9.5c5.7,0,9.6-3,9.6-9c0-5.4,0-10.7,0-16.1
				c-0.6,0.6-1.3,1.3-1.9,1.9c3.1,0,6.1,0,9.2,0c-0.6-0.6-1.3-1.3-1.9-1.9c0,5.2,0,10.3,0,15.5c0,6.2,3.4,9.5,9.6,9.5
				c5.7,0,9.6-3,9.6-9c0-5.4,0-10.7,0-16.1c-0.6,0.6-1.3,1.3-1.9,1.9c17.9,0,36.6-0.3,51.7-11.3
				C246.3,198.3,247.9,173.1,231.7,159.3c-1.8-1.6-4.5,1.1-2.7,2.7c8.2,6.9,11.6,16.4,10,27c-1.5,9.8-8.5,17.2-16.9,21.9
				c-13.5,7.7-29.5,7.4-44.5,7.4c-1,0-1.9,0.9-1.9,1.9c0,3.5,0,7,0,10.5c0,4.9,1,10.7-5.9,10.7c-6.5,0-5.9-5.1-5.9-9.8
				c0-3.8,0-7.7,0-11.5c0-1-0.9-1.9-1.9-1.9c-3.1,0-6.1,0-9.2,0c-1,0-1.9,0.9-1.9,1.9c0,3.5,0,7,0,10.5c0,4.9,1,10.7-5.9,10.7
				c-6.5,0-5.9-5.1-5.9-9.8c0-3.8,0-7.7,0-11.5c0-1-0.9-1.9-1.9-1.9c-3.7,0-7.5,0-11.2,0c-4.8,0-10.5,0.9-10.5-5.9
				c0-6.8,5.7-5.9,10.5-5.9c3.7,0,7.5,0,11.2,0c1,0,1.9-0.9,1.9-1.9c0.1-33.8,0.1-67.6,0-101.4c0-1-0.9-1.9-1.9-1.9
				c-3.7,0-7.5,0-11.2,0c-4.9,0-10.5,0.9-10.5-5.9c0-6.8,5.7-5.9,10.5-5.9c3.7,0,7.5,0,11.2,0c1,0,1.9-0.9,1.9-1.9
				c0-3.4,0-6.9,0-10.3c0-4.9-1-10.6,5.9-10.6c6.5,0,5.9,5,5.9,9.7c0,3.8,0,7.5,0,11.3c0,1,0.9,1.9,1.9,1.9c3.1,0,6.1,0,9.2,0
				c1,0,1.9-0.9,1.9-1.9c0-3.4,0-6.9,0-10.3c0-4.9-1-10.6,5.9-10.6c6.5,0,5.9,5,5.9,9.7c0,3.8,0,7.5,0,11.3c0,1,0.9,1.9,1.9,1.9
				c16.1,0,34.7-1.1,47.1,11c8.7,8.5,11.4,22.1,5,32.6c-4.7,7.7-11.8,12.6-20.3,14.9c-1.8,0.5-1.8,3.2,0,3.6
				c7.9,1.9,13.5,5.1,19.6,10.2C230.9,163.5,233.6,160.9,231.7,159.3z"/>
			<path d="M188.1,99.7c12,5.9,14.9,19.6,10.8,31.6c-4.3,12.8-19.3,14.1-30.6,14.2c0.6,0.6,1.3,1.3,1.9,1.9c0-17.4,0-34.8,0-52.1
				c-0.6,0.6-1.3,1.3-1.9,1.9c6.8,0,13.9,0.1,20.2,2.8c2.2,0.9,3.2-2.7,1-3.6c-6.6-2.8-14.2-2.9-21.2-2.9c-1,0-1.9,0.9-1.9,1.9
				c0,17.4,0,34.8,0,52.1c0,1,0.9,1.9,1.9,1.9c12.8-0.1,28.1-2.1,33.6-15.7c5.6-13.6,1.7-30.4-12-37.1
				C187.8,95.4,185.9,98.6,188.1,99.7z"/>
			<path d="M201.8,198.5c-3.4,6-8.5,9.6-15.1,11.6c-7.7,2.3-16.8,1.3-16.6-8.5c0.1-3.8,0.1-7.7,0.1-11.5c0-11.7,0-23.4,0-35.1
				c-0.6,0.6-1.3,1.3-1.9,1.9c9.7,0,20.7,0.1,28.4,6.8C206.3,172,207.1,187.8,201.8,198.5c-1.1,2.2,2.2,4.1,3.2,1.9
				c5.6-11.2,5.2-26.1-2.7-36.2c-8.3-10.4-21.6-11.2-33.9-11.1c-1,0-1.9,0.9-1.9,1.9c0,13.6,0,27.1,0,40.7c0,6.6-1,13.8,5.6,17.8
				c5.2,3.2,13.5,1.2,18.7-0.7c6.2-2.2,11-6.6,14.2-12.3C206.2,198.3,203,196.4,201.8,198.5z"/>
		</g>
	</g>
</g>
<g id="Line_Expand">
	<g>
		<path d="M135.1,152.8c0,5.6,0,11.1,0,16.7c0,2.4,3.8,2.4,3.8,0c0-5.6,0-11.1,0-16.7C138.9,150.3,135.1,150.3,135.1,152.8z"/>
		<path d="M223.1,92.1c3.7,3.5,6.5,7.7,8.3,12.5c0.8,2.3,4.4,1.3,3.6-1c-2-5.4-5.1-10.2-9.2-14.1C224,87.8,221.4,90.4,223.1,92.1z"
			/>
		<path d="M215.5,142.3c11.5-5,20.8-15.7,21.2-28.8c0.1-2.4-3.7-2.4-3.8,0c-0.4,13.4-11.7,23.8-24,27.1c-1.8,0.5-1.8,3.2,0,3.6
			c10.1,2.5,19.2,7.7,25.4,16.3c7.5,10.4,5.5,25.5-2.5,34.9c-13.2,15.5-36.1,15.4-54.7,15.4c-1,0-1.9,0.9-1.9,1.9c0,3.5,0,7,0,10.5
			c0,4.9,1,10.7-5.9,10.7c-5,0-5.8-3-5.9-6.5c0.1-0.3,0.1-0.7,0-1.1c0-0.7,0-1.5,0-2.3c0-3.8,0-7.7,0-11.5c0-1-0.9-1.9-1.9-1.9
			c-3.1,0-6.1,0-9.2,0c-1,0-1.9,0.9-1.9,1.9c0,3.5,0,7,0,10.5c0,1,0,2,0,2.9c-0.2,0.5-0.2,1.1,0,1.6c-0.1,3.4-1.1,6.2-5.9,6.2
			c-6.5,0-5.9-5.1-5.9-9.8c0-3.8,0-7.7,0-11.5c0-1-0.9-1.9-1.9-1.9c-3.7,0-7.5,0-11.2,0c-4.8,0-10.5,0.9-10.5-5.9
			c0-6.8,5.7-5.9,10.5-5.9c3.7,0,7.5,0,11.2,0c1,0,1.9-0.9,1.9-1.9c0-2.6,0-5.2,0-7.8c0-2.4-3.7-2.4-3.8,0c0,2,0,3.9,0,5.9
			c-4.7,0-9.4,0-14.2,0c-6.1,0-9.5,3.5-9.5,9.6c0,6.1,3.3,9.6,9.5,9.6c4.7,0,9.4,0,14.1,0c0,3.5,0,7,0,10.6c-26.7,0-53.4,0-80,0
			c0-10.9,0-21.8,0-32.8c5.5,0,11.1,0,16.6,0c0,4.5,0,8.9,0,13.4c0,1.6,2,2.5,3.2,1.3c9.8-9.8,19.5-19.5,29.3-29.3
			c0.7-0.7,0.7-1.9,0-2.7c-9.8-9.8-19.5-19.5-29.3-29.3c-1.2-1.2-3.2-0.3-3.2,1.3c0,5,0,9.9,0,14.9c-5.5,0-11.1,0-16.6,0
			c0-12.3,0-24.5,0-36.8c15.3,0,30.6,0,45.8,0c1,0,1.9-0.9,1.9-1.9c0-8.8,0-17.7,0-26.5c0-0.6-0.2-1-0.5-1.3c0,0,0,0,0-0.1
			c0,0,0,0-0.1,0c-0.3-0.3-0.7-0.5-1.3-0.5c-15.3,0-30.5,0-45.8,0c0-20.7,0-41.5,0-62.2c24,0,48.1,0,72.1,0c6,0,11.9,0,17.9,0
			c1.5,0,3,0,4.6,0c0,7.7,0,15.4,0,23.1c0,0.2,0,0.4,0.1,0.6c-1.4-0.7-3.1-1-5-1c-5.7,0-9.6,3-9.6,8.9c0,4.6,0,9.3,0,13.9
			c-4.7,0-9.4,0-14.1,0c-6.1,0-9.5,3.5-9.5,9.6c0,6.1,3.3,9.6,9.5,9.6c4.7,0,9.4,0,14.2,0c0,14.2,0,28.3,0,42.5c0,2.4,3.8,2.4,3.8,0
			c0-14.8,0-29.6,0-44.3c0-1-0.9-1.9-1.9-1.9c-3.7,0-7.5,0-11.2,0c-4.9,0-10.5,0.9-10.5-5.9c0-6.8,5.7-5.9,10.5-5.9
			c3.7,0,7.5,0,11.2,0c1,0,1.9-0.9,1.9-1.9c0-3.4,0-6.9,0-10.3c0-4.9-1-10.6,5.9-10.6c6.5,0,5.9,5,5.9,9.7c0,3.8,0,7.5,0,11.3
			c0,1,0.9,1.9,1.9,1.9c3.1,0,6.1,0,9.2,0c1,0,1.9-0.9,1.9-1.9c0-3.4,0-6.9,0-10.3c0-4.9-1-10.6,5.9-10.6c6.5,0,5.9,5,5.9,9.7
			c0,3.8,0,7.5,0,11.3c0,0.1,0,0.3,0,0.4c0,1.8,0,3.5,0,5.3c-2.5-0.1-5-0.1-7.4-0.2c-1,0-1.9,0.9-1.9,1.9c0,17.4,0,34.8,0,52.1
			c0,1,0.9,1.9,1.9,1.9c12.8-0.1,28.1-2.1,33.6-15.7c5.6-13.6,1.7-30.4-12-37.1c-0.1-0.1-0.2-0.1-0.3-0.1c0,0-0.1,0-0.1-0.1
			c-3.2-1.3-6.6-2.1-10-2.4c0-1.4,0-2.8,0-4.1c11.6,0,24-0.4,34.8,4c2.2,0.9,3.2-2.7,1-3.6c-11.1-4.5-24-4.2-35.8-4.1
			c0-2.4,0-4.9,0-7.3c0-3.6,0-7.1,0-10.7c0-1.4,0.5-3.9-0.3-5.2c-0.7-1.2-2.1-2.2-3.1-3.1c-2.7-2.6-5.3-5.2-8-7.8
			c-4.8-4.7-9.6-9.4-14.4-14c-1.6-1.6-3.4-1.2-5.5-1.2c-5.2,0-10.4,0-15.7,0c-15.8,0-31.6,0-47.5,0c-10.5,0-21,0-31.6,0
			c-1,0-1.9,0.9-1.9,1.9c0,21.4,0,42.8,0,64.1c-2.1,0-4.2,0-6.3,0c0-5,0-9.9,0-14.9c0-1.6-2-2.5-3.2-1.3
			c-9.8,9.8-19.5,19.5-29.3,29.3c-0.7,0.7-0.7,1.9,0,2.7c9.8,9.8,19.5,19.5,29.3,29.3c1.2,1.2,3.2,0.3,3.2-1.3c0-4.5,0-8.9,0-13.4
			c2.1,0,4.2,0,6.3,0c0,12.3,0,24.5,0,36.8c-11.8,0-23.7,0-35.5,0c-0.6,0-1,0.2-1.3,0.5c0,0,0,0-0.1,0c0,0,0,0,0,0.1
			c-0.3,0.3-0.5,0.7-0.5,1.3c0,8.8,0,17.7,0,26.5c0,1,0.9,1.9,1.9,1.9c11.8,0,23.7,0,35.5,0c0,11.5,0,23.1,0,34.6
			c0,1,0.9,1.9,1.9,1.9c27.3,0,54.6,0,81.9,0c0.3,5.7,3.7,8.9,9.6,8.9c5.7,0,9.6-2.9,9.6-8.9c1.8,0,3.6,0,5.5,0
			c0.3,5.7,3.7,8.9,9.6,8.9c5.7,0,9.6-3,9.6-9c0-4.7,0-9.5,0-14.2c21.4-0.1,46.4-1.5,59.1-21.4c6.6-10.2,6-24.5-0.5-34.5
			C232.5,150.9,224.2,145.5,215.5,142.3z M198.4,123.8c-4.1,12.1-17.7,13.9-28.7,14.2c0-16.1,0-32.2,0-48.4c6.1,0,12.3,0.3,18,2.6
			C199.6,98.1,202.5,111.7,198.4,123.8z M153.4,36c6.2,6,12.4,12.1,18.6,18.1c-6.2,0-12.4,0-18.6,0C153.4,48.1,153.4,42,153.4,36z
			 M159.7,64.5c0,4.6,0,9.3,0,13.9c-1.8,0-3.6,0-5.4,0c0-4.4,0-8.9,0-13.3c0-3.2-0.9-5.6-2.7-7.2c3.6,0,7.1,0,10.7,0
			C160.7,59.4,159.7,61.6,159.7,64.5z M41.2,123.5c0,3.6,0,7.2,0,10.8c-8.2-8.2-16.5-16.5-24.7-24.7c8.2-8.2,16.5-16.5,24.7-24.7
			c0,4.1,0,8.1,0,12.2c0,1,0.9,1.9,1.9,1.9c18.6,0,37.3,0,55.9,0c0,7.6,0,15.2,0,22.8c-18.6,0-37.3,0-55.9,0
			C42,121.6,41.2,122.5,41.2,123.5z M17.7,165.9c18.6,0,37.3,0,55.9,0c1,0,1.9-0.9,1.9-1.9c0-4.1,0-8.1,0-12.2
			c8.2,8.2,16.5,16.5,24.7,24.7c-8.2,8.2-16.5,16.5-24.7,24.7c0-3.6,0-7.2,0-10.8c0-1-0.9-1.9-1.9-1.9c-18.6,0-37.3,0-55.9,0
			C17.7,181,17.7,173.5,17.7,165.9z M159.7,225.1c-1.8,0-3.6,0-5.4,0c0-3.5,0-7,0-10.6c1.8,0,3.6,0,5.4,0
			C159.7,218.1,159.7,221.6,159.7,225.1z"/>
		<path d="M167.9,145.6c-1,0-1.9,0.9-1.9,1.9c0,13.6,0,27.1,0,40.7c0,6.6-1,13.8,5.6,17.8c5.2,3.2,13.5,1.2,18.7-0.7
			c6.2-2.2,11-6.6,14.2-12.3c5.6-11.2,5.2-26.1-2.7-36.2C193.5,146.3,180.2,145.6,167.9,145.6z M201.3,191c-3.4,6-8.5,9.6-15.1,11.6
			c-7.7,2.3-16.8,1.3-16.6-8.5c0.1-3.8,0.1-7.7,0.1-11.5c0-11.1,0-22.1,0-33.2c1.8,0,3.7,0,5.5,0.1c0,11,0,22,0,33
			c0,2.4,3.8,2.4,3.8,0c0-10.9,0-21.9,0-32.8c6.3,0.6,12.4,2.2,17.2,6.4C205.8,164.5,206.6,180.3,201.3,191z"/>
	</g>
</g>
<g id="Glyph" class="st0">
	<g class="st1">
		<path d="M112,212.5c0-6.1,3.3-9.6,9.5-9.6c4.7,0,9.4,0,14.2,0c0.1-32.6,0.1-65.1,0-97.7c-4.7,0-9.4,0-14.2,0
			c-6.1,0-9.5-3.5-9.5-9.6c0-6.1,3.3-9.6,9.5-9.6c4.7,0,9.4,0,14.1,0c0-4.6,0-9.3,0-13.9c0-6,3.9-8.9,9.6-8.9c6.1,0,9.6,3.3,9.6,9.5
			c0,4.4,0,8.9,0,13.3c1.8,0,3.6,0,5.4,0c0-4.6,0-9.3,0-13.9c0-6,3.9-8.9,9.6-8.9c2.1,0,4,0.4,5.4,1.2c0-1.1,0-2.1,0-3.2
			c0-1.1,0-2.2,0-3.2c-7.9,0-15.9,0-23.8,0c-1,0-1.9-0.9-1.9-1.9c0-7.7,0-15.4,0-23.1c-1.5,0-3,0-4.6,0c-6,0-11.9,0-17.9,0
			c-24,0-48.1,0-72.1,0c0,20.7,0,41.5,0,62.2c15.3,0,30.5,0,45.8,0c0.6,0,1,0.2,1.3,0.5c0,0,0,0,0.1,0c0,0,0,0,0,0.1
			c0.3,0.3,0.5,0.7,0.5,1.3c0,8.8,0,17.7,0,26.5c0,1-0.9,1.9-1.9,1.9c-15.3,0-30.6,0-45.8,0c0,12.3,0,24.5,0,36.8
			c5.5,0,11.1,0,16.6,0c0-5,0-9.9,0-14.9c0-1.6,2-2.5,3.2-1.3c9.8,9.8,19.5,19.5,29.3,29.3c0.7,0.7,0.7,1.9,0,2.7
			c-9.8,9.8-19.5,19.5-29.3,29.3c-1.2,1.2-3.2,0.3-3.2-1.3c0-4.5,0-8.9,0-13.4c-5.5,0-11.1,0-16.6,0c0,10.9,0,21.8,0,32.8
			c26.8,0,53.7,0,80.5,0c0-1,0-2,0-3c-4.7,0-9.4,0-14.1,0C115.3,222.1,112,218.6,112,212.5z"/>
		<path d="M75.4,190.5c0,3.6,0,7.2,0,10.8c8.2-8.2,16.5-16.5,24.7-24.7c-8.2-8.2-16.5-16.5-24.7-24.7c0,4.1,0,8.1,0,12.2
			c0,1-0.9,1.9-1.9,1.9c-18.6,0-37.3,0-55.9,0c0,7.6,0,15.2,0,22.8c18.6,0,37.3,0,55.9,0C74.6,188.6,75.4,189.5,75.4,190.5z"/>
		<path d="M41.2,123.5c0-1,0.9-1.9,1.9-1.9c18.6,0,37.3,0,55.9,0c0-7.6,0-15.2,0-22.8c-18.6,0-37.3,0-55.9,0c-1,0-1.9-0.9-1.9-1.9
			c0-4.1,0-8.1,0-12.2c-8.2,8.2-16.5,16.5-24.7,24.7c8.2,8.2,16.5,16.5,24.7,24.7C41.2,130.7,41.2,127.1,41.2,123.5z"/>
		<path d="M153.4,36c0,6,0,12.1,0,18.1c6.2,0,12.4,0,18.6,0C165.8,48.1,159.6,42,153.4,36z"/>
		<path d="M154.8,225.1c1.8,0,3.6,0,5.4,0c0-1,0-2,0-3c-1.8,0-3.6,0-5.4,0C154.8,223.1,154.8,224.1,154.8,225.1z"/>
		<path d="M229,162c-6.1-5.1-11.7-8.2-19.6-10.2c-1.8-0.4-1.8-3.1,0-3.6c8.5-2.3,15.7-7.2,20.3-14.9c6.4-10.5,3.7-24.1-5-32.6
			c-12.4-12-30.8-11-46.9-11c-1.1,0.4-2.6-0.2-2.6-1.7c0-5.3,0-10.6,0-15.9c0-0.6,0-1.3,0-1.9c-0.6-1.9-2.1-3.3-5.4-3.3
			c-6.8,0-5.9,5.7-5.9,10.6c0,3.4,0,6.9,0,10.3c0,1-0.9,1.9-1.9,1.9c-3.1,0-6.1,0-9.2,0c-1,0-1.9-0.9-1.9-1.9c0-3.8,0-7.5,0-11.3
			c0-4.7,0.6-9.7-5.9-9.7c-6.8,0-5.9,5.7-5.9,10.6c0,3.4,0,6.9,0,10.3c0,1-0.9,1.9-1.9,1.9c-3.7,0-7.5,0-11.2,0
			c-4.8,0-10.5-0.9-10.5,5.9c0,6.8,5.7,5.9,10.5,5.9c3.7,0,7.5,0,11.2,0c1,0,1.9,0.9,1.9,1.9c0.1,33.8,0.1,67.6,0,101.4
			c0,1-0.9,1.9-1.9,1.9c-3.7,0-7.5,0-11.2,0c-4.9,0-10.5-0.9-10.5,5.9c0,6.8,5.7,5.9,10.5,5.9c3.7,0,7.5,0,11.2,0
			c1,0,1.9,0.9,1.9,1.9c0,3.8,0,7.7,0,11.5c0,4.7-0.6,9.8,5.9,9.8c6.9,0,5.9-5.8,5.9-10.7c0-3.5,0-7,0-10.5c0-1,0.9-1.9,1.9-1.9
			c3.1,0,6.1,0,9.2,0c1,0,1.9,0.9,1.9,1.9c0,3.8,0,7.7,0,11.5c0,4.7-0.6,9.8,5.9,9.8c6.9,0,5.9-5.8,5.9-10.7c0-3.5,0-7,0-10.5
			c0-1,0.9-1.9,1.9-1.9c15,0,31.1,0.2,44.5-7.4c8.3-4.7,15.4-12.1,16.9-21.9C240.6,178.4,237.2,168.9,229,162z M170.2,97.1
			c6.1,0,12.3,0.3,18,2.6c11.9,5.9,14.8,19.5,10.7,31.6c-4.1,12.1-17.7,13.9-28.7,14.2C170.2,129.4,170.2,113.2,170.2,97.1z
			 M201.8,198.5c-3.4,6-8.5,9.6-15.1,11.6c-7.7,2.3-16.8,1.3-16.6-8.5c0.1-3.8,0.1-7.7,0.1-11.5c0-11.1,0-22.1,0-33.2
			c9.2,0,19.3,0.5,26.5,6.8C206.3,172,207.1,187.8,201.8,198.5z"/>
	</g>
</g>
</svg>
