<?xml version="1.0" encoding="utf-8"?>
<!-- Generator: Adobe Illustrator 23.0.3, SVG Export Plug-In . SVG Version: 6.00 Build 0)  -->
<svg version="1.1" xmlns="http://www.w3.org/2000/svg" xmlns:xlink="http://www.w3.org/1999/xlink" x="0px" y="0px"
	 viewBox="0 0 256 256" style="enable-background:new 0 0 256 256;" xml:space="preserve">
<style type="text/css">
	.st0{display:none;}
	.st1{display:inline;}
</style>
<g id="SOURCE" class="st0">
	<g class="st1">
		<g>
			<path d="M122.3,95.1c-19.3,0-38.5,0-57.8,0c0.6,0.6,1.3,1.3,1.9,1.9c0-5.6,0-11.2,0-16.8c0-1.6-2-2.5-3.2-1.3
				c-9.8,9.8-19.5,19.5-29.3,29.3c-0.7,0.7-0.7,1.9,0,2.7c9.8,9.8,19.5,19.5,29.3,29.3c1.2,1.2,3.2,0.3,3.2-1.3c0-5.1,0-10.2,0-15.3
				c-0.6,0.6-1.3,1.3-1.9,1.9c19.3,0,38.5,0,57.8,0c1,0,1.9-0.9,1.9-1.9c0-8.8,0-17.7,0-26.5c0-2.4-3.8-2.4-3.8,0
				c0,8.8,0,17.7,0,26.5c0.6-0.6,1.3-1.3,1.9-1.9c-19.3,0-38.5,0-57.8,0c-1,0-1.9,0.9-1.9,1.9c0,5.1,0,10.2,0,15.3
				c1.1-0.4,2.1-0.9,3.2-1.3c-9.8-9.8-19.5-19.5-29.3-29.3c0,0.9,0,1.8,0,2.7c9.8-9.8,19.5-19.5,29.3-29.3c-1.1-0.4-2.1-0.9-3.2-1.3
				c0,5.6,0,11.2,0,16.8c0,1,0.9,1.9,1.9,1.9c19.3,0,38.5,0,57.8,0C124.8,98.9,124.8,95.1,122.3,95.1z"/>
		</g>
	</g>
	<g class="st1">
		<g>
			<path d="M37.3,165.9c19.3,0,38.5,0,57.7,0c1,0,1.9-0.9,1.9-1.9c0-5.6,0-11.2,0-16.8c-1.1,0.4-2.1,0.9-3.2,1.3
				c9.8,9.8,19.5,19.5,29.3,29.3c0-0.9,0-1.8,0-2.7c-9.8,9.8-19.5,19.5-29.3,29.3c1.1,0.4,2.1,0.9,3.2,1.3c0-5.1,0-10.2,0-15.3
				c0-1-0.9-1.9-1.9-1.9c-19.3,0-38.5,0-57.7,0c0.6,0.6,1.3,1.3,1.9,1.9c0-8.8,0-17.7,0-26.5c0-2.4-3.8-2.4-3.8,0
				c0,8.8,0,17.7,0,26.5c0,1,0.9,1.9,1.9,1.9c19.3,0,38.5,0,57.7,0c-0.6-0.6-1.3-1.3-1.9-1.9c0,5.1,0,10.2,0,15.3
				c0,1.6,2,2.5,3.2,1.3c9.8-9.8,19.5-19.5,29.3-29.3c0.7-0.7,0.7-1.9,0-2.7c-9.8-9.8-19.5-19.5-29.3-29.3c-1.2-1.2-3.2-0.3-3.2,1.3
				c0,5.6,0,11.2,0,16.8c0.6-0.6,1.3-1.3,1.9-1.9c-19.3,0-38.5,0-57.7,0C34.9,162.1,34.9,165.9,37.3,165.9z"/>
		</g>
	</g>
	<g class="st1">
		<g>
			<path d="M76.5,96.4c0-21.8,0-43.6,0-65.4c-0.6,0.6-1.3,1.3-1.9,1.9c24.7,0,49.3,0,74,0c6,0,11.9,0,17.9,0c1.6,0,3.2,0,4.8,0
				c2.2,0,0.9,0.1,0.5-0.3c8.5,8.3,17,16.6,25.5,24.9c-0.7-0.7-0.5-1.9-0.5-0.7c0,0.6,0,1.2,0,1.8c0,2.4,0,4.7,0,7.1
				c0,7.3,0,14.5,0,21.8c0,13.4,0,26.8,0,40.2c0,19.4,0,38.8,0,58.1c0,13.7,0,27.5,0,41.2c0.6-0.6,1.3-1.3,1.9-1.9
				c-41.3,0-82.7,0-124,0c0.6,0.6,1.3,1.3,1.9,1.9c0-11.9,0-23.8,0-35.7c0-2.4-3.8-2.4-3.8,0c0,11.9,0,23.8,0,35.7
				c0,1,0.9,1.9,1.9,1.9c41.3,0,82.7,0,124,0c1,0,1.9-0.9,1.9-1.9c0-43.2,0-86.4,0-129.6c0-13.2,0-26.4,0-39.6
				c0-3.1-1.6-4.1-3.8-6.2c-5.5-5.4-11-10.7-16.4-16.1c-1.7-1.7-5-6.5-7.7-6.5c-3.4,0-6.8,0-10.1,0c-14.9,0-29.7,0-44.6,0
				c-14.4,0-28.8,0-43.2,0c-1,0-1.9,0.9-1.9,1.9c0,21.8,0,43.6,0,65.4C72.8,98.8,76.5,98.8,76.5,96.4L76.5,96.4z"/>
		</g>
	</g>
	<g class="st1">
		<g>
			<path d="M76.5,163.3c0-13.1,0-26.2,0-39.3c0-2.4-3.8-2.4-3.8,0c0,13.1,0,26.2,0,39.3C72.8,165.7,76.5,165.7,76.5,163.3
				L76.5,163.3z"/>
		</g>
	</g>
	<g class="st1">
		<g>
			<path d="M198.1,54.1c-8.4,0-16.7,0-25.1,0c0.6,0.6,1.3,1.3,1.9,1.9c0-8.2,0-16.3,0-24.5c-1.1,0.4-2.1,0.9-3.2,1.3
				c8.4,8.2,16.7,16.3,25.1,24.5c1.7,1.7,4.4-1,2.7-2.7c-8.4-8.2-16.7-16.3-25.1-24.5c-1.2-1.1-3.2-0.3-3.2,1.3c0,8.2,0,16.3,0,24.5
				c0,1,0.9,1.9,1.9,1.9c8.4,0,16.7,0,25.1,0C200.5,57.9,200.5,54.1,198.1,54.1z"/>
		</g>
	</g>
</g>
<g id="Line_Expand">
	<g>
		<path d="M72.8,227c0,1,0.9,1.9,1.9,1.9c41.3,0,82.7,0,124,0c1,0,1.9-0.9,1.9-1.9c0-7.8,0-15.7,0-23.5c0-2.4-3.8-2.4-3.8,0
			c0,7.2,0,14.4,0,21.6c-40.1,0-80.2,0-120.3,0c0-10.9,0-21.8,0-32.8c5.5,0,11.1,0,16.6,0c0,4.5,0,8.9,0,13.4c0,1.6,2,2.5,3.2,1.3
			c9.8-9.8,19.5-19.5,29.3-29.3c0.7-0.7,0.7-1.9,0-2.7c-9.8-9.8-19.5-19.5-29.3-29.3c-1.2-1.2-3.2-0.3-3.2,1.3c0,5,0,9.9,0,14.9
			c-5.5,0-11.1,0-16.6,0c0-12.3,0-24.5,0-36.8c15.3,0,30.6,0,45.8,0c1,0,1.9-0.9,1.9-1.9c0-8.8,0-17.7,0-26.5c0-0.6-0.2-1-0.5-1.3
			c0,0,0,0,0-0.1c0,0,0,0-0.1,0c-0.3-0.3-0.7-0.5-1.3-0.5c-15.3,0-30.5,0-45.8,0c0-20.7,0-41.5,0-62.2c24,0,48.1,0,72.1,0
			c6,0,11.9,0,17.9,0c1.5,0,3,0,4.6,0c0,7.7,0,15.4,0,23.1c0,1,0.9,1.9,1.9,1.9c7.9,0,15.9,0,23.8,0c0,0.3,0,0.7,0,1
			c0,2.7,0,5.4,0,8.1c0,8.4,0,16.9,0,25.3c0,12.4,0,24.8,0,37.3c0,2.4,3.8,2.4,3.8,0c0-23.8,0-47.7,0-71.5c0-3.1-1.1-3.9-3.3-6.1
			c-5.4-5.3-10.9-10.6-16.3-15.9c-1.7-1.7-5.4-7.1-8.2-7.1c-3.2,0-6.4,0-9.6,0c-29.5,0-59,0-88.4,0c-1,0-1.9,0.9-1.9,1.9
			c0,21.4,0,42.8,0,64.1c-2.1,0-4.2,0-6.3,0c0-5,0-9.9,0-14.9c0-1.6-2-2.5-3.2-1.3c-9.8,9.8-19.5,19.5-29.3,29.3
			c-0.7,0.7-0.7,1.9,0,2.7c9.8,9.8,19.5,19.5,29.3,29.3c1.2,1.2,3.2,0.3,3.2-1.3c0-4.5,0-8.9,0-13.4c2.1,0,4.2,0,6.3,0
			c0,12.3,0,24.5,0,36.8c-11.8,0-23.7,0-35.5,0c-0.6,0-1,0.2-1.3,0.5c0,0,0,0-0.1,0c0,0,0,0,0,0.1c-0.3,0.3-0.5,0.7-0.5,1.3
			c0,8.8,0,17.7,0,26.5c0,1,0.9,1.9,1.9,1.9c11.8,0,23.7,0,35.5,0C72.8,203.9,72.8,215.5,72.8,227z M193.5,54.1
			c-6.2,0-12.4,0-18.6,0c0-6,0-12.1,0-18.1C181.1,42,187.3,48.1,193.5,54.1z M62.7,123.5c0,3.6,0,7.2,0,10.8
			c-8.2-8.2-16.5-16.5-24.7-24.7c8.2-8.2,16.5-16.5,24.7-24.7c0,4.1,0,8.1,0,12.2c0,1,0.9,1.9,1.9,1.9c18.6,0,37.3,0,55.9,0
			c0,7.6,0,15.2,0,22.8c-18.6,0-37.3,0-55.9,0C63.6,121.6,62.7,122.5,62.7,123.5z M39.2,165.9c18.6,0,37.2,0,55.9,0
			c1,0,1.9-0.9,1.9-1.9c0-4.1,0-8.1,0-12.2c8.2,8.2,16.5,16.5,24.7,24.7c-8.2,8.2-16.5,16.5-24.7,24.7c0-3.6,0-7.2,0-10.8
			c0-1-0.9-1.9-1.9-1.9c-18.6,0-37.2,0-55.9,0C39.2,181,39.2,173.5,39.2,165.9z"/>
		<path d="M196.8,151c0,10.5,0,21,0,31.5c0,2.4,3.8,2.4,3.8,0c0-10.5,0-21,0-31.5C200.5,148.6,196.8,148.6,196.8,151z"/>
	</g>
</g>
<g id="Glyph" class="st0">
	<path class="st1" d="M174.9,36c6.2,6,12.4,12.1,18.6,18.1c-6.2,0-12.4,0-18.6,0C174.9,48.1,174.9,42,174.9,36z M120.5,121.6
		c-18.6,0-37.3,0-55.9,0c-1,0-1.9,0.9-1.9,1.9c0,3.6,0,7.2,0,10.8c-8.2-8.2-16.5-16.5-24.7-24.7c8.2-8.2,16.5-16.5,24.7-24.7
		c0,4.1,0,8.1,0,12.2c0,1,0.9,1.9,1.9,1.9c18.6,0,37.3,0,55.9,0C120.5,106.5,120.5,114,120.5,121.6z M95.1,165.9
		c1,0,1.9-0.9,1.9-1.9c0-4.1,0-8.1,0-12.2c8.2,8.2,16.5,16.5,24.7,24.7c-8.2,8.2-16.5,16.5-24.7,24.7c0-3.6,0-7.2,0-10.8
		c0-1-0.9-1.9-1.9-1.9c-18.6,0-37.2,0-55.9,0c0-7.6,0-15.2,0-22.8C57.8,165.9,76.4,165.9,95.1,165.9z M93.2,192.4
		c0,4.5,0,8.9,0,13.4c0,1.6,2,2.5,3.2,1.3c9.8-9.8,19.5-19.5,29.3-29.3c0.7-0.7,0.7-1.9,0-2.7c-9.8-9.8-19.5-19.5-29.3-29.3
		c-1.2-1.2-3.2-0.3-3.2,1.3c0,5,0,9.9,0,14.9c-5.5,0-11.1,0-16.6,0c0-12.3,0-24.5,0-36.8c15.3,0,30.6,0,45.8,0c1,0,1.9-0.9,1.9-1.9
		c0-8.8,0-17.7,0-26.5c0-0.6-0.2-1-0.5-1.3c0,0,0,0,0-0.1c0,0,0,0-0.1,0c-0.3-0.3-0.7-0.5-1.3-0.5c-15.3,0-30.5,0-45.8,0
		c0-20.7,0-41.5,0-62.2c24,0,48.1,0,72.1,0c6,0,11.9,0,17.9,0c1.5,0,3,0,4.6,0c0,7.7,0,15.4,0,23.1c0,1,0.9,1.9,1.9,1.9
		c7.9,0,15.9,0,23.8,0c0,0.2,0,0.4,0,0.6c0,2.4,0,4.7,0,7.1c0,7.3,0,14.5,0,21.8c0,13.4,0,26.8,0,40.2c0,19.4,0,38.8,0,58.1
		c0,13.1,0,26.2,0,39.3c-40.1,0-80.2,0-120.3,0c0-10.9,0-21.8,0-32.8C82.1,192.4,87.6,192.4,93.2,192.4z"/>
</g>
</svg>
