<?xml version="1.0" encoding="utf-8"?>
<!-- Generator: Adobe Illustrator 23.0.3, SVG Export Plug-In . SVG Version: 6.00 Build 0)  -->
<svg version="1.1" xmlns="http://www.w3.org/2000/svg" xmlns:xlink="http://www.w3.org/1999/xlink" x="0px" y="0px"
	 viewBox="0 0 256 256" style="enable-background:new 0 0 256 256;" xml:space="preserve">
<style type="text/css">
	.st0{display:none;}
	.st1{display:inline;}
</style>
<g id="SOURCE" class="st0">
	<g class="st1">
		<g>
			<path d="M219.6,128.8c-0.2,24.2-9.3,47.1-25.9,64.7c-1.7,1.8,1,4.4,2.7,2.7c17.2-18.4,26.8-42.2,27-67.4
				C223.3,126.3,219.6,126.3,219.6,128.8L219.6,128.8z"/>
		</g>
	</g>
	<circle class="st1" cx="191.9" cy="199.6" r="2.4"/>
	<g class="st1">
		<g>
			<path d="M100.1,82.9c4.2-4.2,8.4-8.4,12.6-12.6c4.6-4.6,11.6-14,18.6-7c7.1,7.1,14.2,14.2,21.3,21.3
				c10.8,10.8,21.6,21.6,32.4,32.4c2.5,2.5,5,5,7.5,7.5c4.9,4.9,1.8,10.1-2.1,13.9c-18.9,18.9-37.8,37.8-56.8,56.8
				c-3.9,3.9-9,7.5-14.1,2.4c-2.4-2.4-4.8-4.8-7.1-7.1C101.8,179.8,91,169,80.3,158.3c-6.5-6.5-13-13-19.5-19.5
				c-1.9-1.9-3.7-3.5-4.7-6.2c-2-6.1,6-11.7,9.7-15.4C77.3,105.7,88.7,94.3,100.1,82.9c1.7-1.7-0.9-4.4-2.7-2.7
				c-7.5,7.5-15,15-22.4,22.4c-4,4-7.9,7.9-11.9,11.9c-4.9,4.9-11.5,9.5-11,17.3c0.3,4.3,3.4,7.1,6.2,10c4,4,8.1,8.1,12.1,12.1
				c11.2,11.2,22.3,22.3,33.5,33.5c3.7,3.7,7.4,7.4,11.2,11.2c3.3,3.3,7.1,6.3,12.1,5.3c4.3-0.8,6.9-3.6,9.8-6.5
				c4.1-4.1,8.2-8.2,12.4-12.4c11.2-11.2,22.3-22.3,33.5-33.5c6.3-6.3,17.6-13.9,15.6-24c-0.7-3.5-3.8-6.1-6.3-8.5
				c-4.1-4.1-8.2-8.2-12.4-12.4c-11-11-21.9-21.9-32.9-32.9c-5.8-5.8-13.5-17.1-22.8-16.5c-5.8,0.4-10.4,6.6-14.2,10.4
				c-4.2,4.2-8.4,8.4-12.6,12.6C95.8,81.9,98.4,84.6,100.1,82.9z"/>
		</g>
	</g>
	<g class="st1">
		<g>
			<path d="M54.4,128.1c4.9,10.1,17.5,15.3,27.8,17.1c9.5,1.7,18.4,0.6,26.1-5.5c5.8-4.5,7.6-12.6,14.7-15.4
				c9.1-3.5,14.1,8.8,19.5,13.9c6.4,6,15.1,7.5,23.6,7.2c11.6-0.4,25.2-6.3,30.8-17.2c1.1-2.1-2.1-4-3.2-1.9
				c-6.2,12-21.5,16.1-33.9,15.2c-8.5-0.6-14.8-5.4-19.8-12c-3.9-5.2-8.6-11.1-16-9.5c-5.8,1.3-9.1,4.9-12,9.7
				c-5.4,8.9-14.3,12.8-24.5,12.2c-10.6-0.7-24.7-5.4-29.8-15.8C56.6,124,53.3,125.9,54.4,128.1L54.4,128.1z"/>
		</g>
	</g>
	<g class="st1">
		<g>
			<path d="M236.8,130.5c-0.3,46.9-31,88.7-75.8,102.8c-45.1,14.2-95-4.1-121.3-43c-26.5-39.1-23.2-92.5,6.8-128.8
				c30.1-36.4,82-48.4,125.3-30C211.1,48.4,236.5,88.1,236.8,130.5c0,2.4,3.8,2.4,3.8,0c-0.3-44.1-26.5-84.3-66.9-102.1
				C133.1,10.5,85,19.5,52.8,49.5C20.2,79.8,9.5,128.2,24.9,169.7c15.1,40.9,54.1,69,97.3,72c30.6,2.1,61-9.3,83.4-30.1
				c22.4-20.8,34.8-50.6,35-81C240.6,128.1,236.8,128.1,236.8,130.5z"/>
		</g>
	</g>
</g>
<g id="Line_Expand">
	<g>
		<path d="M232.8,95.1c-3.3-9.8-7.8-19-13.5-27.6c-1.3-2-4.6-0.1-3.2,1.9c5.5,8.3,9.9,17.2,13.1,26.7
			C230,98.3,233.6,97.4,232.8,95.1z"/>
		<path d="M89.1,234.5c41.7,15.4,89.7,3,119.8-29.3c19-20.4,29.3-47.7,29.5-75.5c0-2.4-3.7-2.4-3.8,0c-0.3,46.9-31,88.7-75.8,102.8
			c-45.1,14.2-95-4.1-121.3-43C11,150.5,14.3,97.1,44.2,60.9c32-38.7,88-49.4,132.4-26.6c10.4,5.3,19.8,12.6,27.9,20.9
			c1.7,1.7,4.3-0.9,2.7-2.7C172.9,17.3,119,8.5,75.3,31C36.1,51.3,12.9,94.3,15.9,138.1C18.9,181.6,48.5,219.5,89.1,234.5z"/>
		<path d="M196.3,196.1c17.2-18.4,26.8-42.2,27-67.4c0-2.4-3.7-2.4-3.8,0c-0.2,24.2-9.3,47.1-25.9,64.7
			C192,195.2,194.6,197.9,196.3,196.1z"/>
		<circle cx="191.9" cy="199.6" r="2.4"/>
		<path d="M66.1,116.9c1.7-1.7-0.9-4.4-2.7-2.7c-4,4-10.9,8.8-11.3,15c-0.3,5.2,2.2,8.5,5.6,11.9c9.4,9.4,18.8,18.8,28.2,28.2
			c9.5,9.5,19.1,19.1,28.6,28.6c3.2,3.2,6.1,5.7,10.9,6c4.7,0.3,7.9-3,10.9-6c18.9-18.9,37.8-37.8,56.8-56.8c3.4-3.4,6-6.7,5.6-11.9
			c-0.3-4.3-3.4-7.1-6.2-10c-9.7-9.7-19.3-19.3-29-29c-9.9-9.9-19.8-19.8-29.7-29.7c-3.4-3.4-8.2-4.2-12.7-2.7c-3,1-5.3,3.8-7.5,6
			c-5.4,5.4-10.9,10.9-16.3,16.3c-1.7,1.7,0.9,4.4,2.7,2.7c4.2-4.2,8.4-8.4,12.6-12.6c4.6-4.6,11.6-14,18.6-7
			c7.1,7.1,14.2,14.2,21.3,21.3c10.8,10.8,21.6,21.6,32.4,32.4c2.5,2.5,5,5,7.5,7.5c0.5,0.5,0.9,1,1.2,1.5c-0.1,0.1-0.1,0.2-0.2,0.3
			c-6.2,12-21.5,16.1-33.9,15.2c-8.5-0.6-14.8-5.4-19.8-12c-3.9-5.2-8.6-11.1-16-9.5c-5.8,1.3-9.1,4.9-12,9.7
			c-5.4,8.9-14.3,12.8-24.5,12.2c-10.6-0.7-24.7-5.4-29.8-15.8c-0.1-0.2-0.2-0.3-0.3-0.5C59.5,122.4,63.8,119.2,66.1,116.9z
			 M82.2,145.1c9.5,1.7,18.4,0.6,26.1-5.5c5.8-4.5,7.6-12.6,14.7-15.4c9.1-3.5,14.1,8.8,19.5,13.9c6.4,6,15.1,7.5,23.6,7.2
			c10.5-0.4,22.5-5.2,28.9-14.1c-0.5,2.6-2.4,5.1-4.4,7.1c-18.9,18.9-37.8,37.8-56.8,56.8c-3.9,3.9-9,7.5-14.1,2.4
			c-2.4-2.4-4.8-4.8-7.1-7.1C101.8,179.8,91,169,80.3,158.3c-6.6-6.6-13.2-13.2-19.8-19.8c-2.3-2.3-4.4-4.5-4.5-7.8
			C61.6,139,72.8,143.5,82.2,145.1z"/>
		<path d="M78.1,104.9c4.1-4.1,8.2-8.2,12.2-12.2c1.7-1.7-0.9-4.4-2.7-2.7c-4.1,4.1-8.2,8.2-12.2,12.2
			C73.8,103.9,76.4,106.6,78.1,104.9z"/>
	</g>
</g>
<g id="Glyph" class="st0">
	<g class="st1">
		<path d="M129.2,21c-60.5,0-109.5,49-109.5,109.5S68.7,240,129.2,240s109.5-49,109.5-109.5S189.6,21,129.2,21z M65.8,117.2
			c11.4-11.4,22.9-22.9,34.3-34.3c4.2-4.2,8.4-8.4,12.6-12.6c4.6-4.6,11.6-14,18.6-7c7.1,7.1,14.2,14.2,21.3,21.3
			c10.8,10.8,21.6,21.6,32.4,32.4c2.5,2.5,5,5,7.5,7.5c0.5,0.5,0.9,1,1.2,1.5c-0.1,0.1-0.1,0.2-0.2,0.3c-6.2,12-21.5,16.1-33.9,15.2
			c-8.5-0.6-14.8-5.4-19.8-12c-3.9-5.2-8.6-11.1-16-9.5c-5.8,1.3-9.1,4.9-12,9.7c-5.4,8.9-14.3,12.8-24.5,12.2
			c-10.6-0.7-24.7-5.4-29.8-15.8c-0.1-0.1-0.1-0.2-0.2-0.3C59.6,122.5,63.5,119.4,65.8,117.2z M119.7,197.7
			c-2.4-2.4-4.8-4.8-7.1-7.1C101.8,179.8,91,169,80.3,158.3c-6.5-6.5-13-13-19.5-19.5c-1.9-1.9-3.7-3.5-4.7-6.2
			c-0.2-0.7-0.3-1.4-0.3-2c5.6,8.5,16.9,13,26.4,14.6c9.5,1.7,18.4,0.6,26.1-5.5c5.8-4.5,7.6-12.6,14.7-15.4
			c9.1-3.5,14.1,8.8,19.5,13.9c6.4,6,15.1,7.5,23.6,7.2c10.5-0.4,22.5-5.2,28.9-14.1c-0.5,2.6-2.4,5.1-4.4,7.1
			c-18.9,18.9-37.8,37.8-56.8,56.8C129.9,199.1,124.7,202.7,119.7,197.7z M191.9,202c-1.3,0-2.4-1.1-2.4-2.4c0-1.3,1.1-2.4,2.4-2.4
			s2.4,1.1,2.4,2.4C194.3,200.9,193.2,202,191.9,202z M196.3,196.1c-1.7,1.8-4.3-0.9-2.7-2.7c16.6-17.6,25.7-40.5,25.9-64.7
			c0-2.4,3.8-2.4,3.8,0C223.1,153.9,213.6,177.8,196.3,196.1z"/>
	</g>
</g>
</svg>
