<?xml version="1.0" encoding="utf-8"?>
<!-- Generator: Adobe Illustrator 23.0.3, SVG Export Plug-In . SVG Version: 6.00 Build 0)  -->
<svg version="1.1" xmlns="http://www.w3.org/2000/svg" xmlns:xlink="http://www.w3.org/1999/xlink" x="0px" y="0px"
	 viewBox="0 0 256 256" style="enable-background:new 0 0 256 256;" xml:space="preserve">
<style type="text/css">
	.st0{display:none;}
	.st1{display:inline;}
</style>
<g id="SOURCE" class="st0">
	<g class="st1">
		<g>
			<path d="M219.3,128.8c-0.2,24.2-9.3,47.1-25.9,64.7c-1.7,1.8,1,4.4,2.7,2.7c17.2-18.4,26.8-42.2,27-67.4
				C223,126.3,219.3,126.3,219.3,128.8L219.3,128.8z"/>
		</g>
	</g>
	<circle class="st1" cx="191.6" cy="199.6" r="2.4"/>
	<g class="st1">
		<g>
			<path d="M117.4,71.8c1.1-0.6,2.2-1.2,3.3-1.9c0.8-0.5,1.7-0.9,2.5-1.4c2.1-1.2,1.3-0.1-0.2-0.9c1.1,0.6,2.1,1.2,3.2,1.8
				c6.2,3.5,12.5,6.9,18.7,10.4c11.1,6.2,22.1,12.3,33.2,18.5c0-1.1,0-2.2,0-3.2c-18.4,9.7-36.8,19.3-55.1,29
				c1.1-0.6,2.5,0.4,1.4-0.2c-0.5-0.3-1.1-0.6-1.6-0.9c-2.1-1.1-4.1-2.2-6.2-3.3c-6.4-3.4-12.9-6.8-19.3-10.1
				C88.2,104.7,79,99.9,69.8,95c0,1.1,0,2.2,0,3.2C85.7,89.5,101.5,80.6,117.4,71.8c2.1-1.2,0.2-4.4-1.9-3.2
				C99.6,77.4,83.8,86.2,67.9,95c-1.2,0.7-1.2,2.6,0,3.2c9.5,5,19,10,28.5,15c6.3,3.3,12.7,6.7,19,10c2.2,1.1,6,4.3,8.6,4.3
				s6.4-3.1,8.6-4.3c6.3-3.3,12.7-6.7,19-10c9.5-5,19-10,28.5-15c1.2-0.7,1.2-2.6,0-3.2c-11.6-6.5-23.3-12.9-34.9-19.4
				c-6.1-3.4-12.1-6.7-18.2-10.1c-0.9-0.5-2.3-1.6-3.5-1.3c-2.7,0.8-5.5,3-8,4.4C113.4,69.8,115.3,73,117.4,71.8z"/>
		</g>
	</g>
	<g class="st1">
		<g>
			<path d="M183.2,177.2c-18.2-7.4-36.4-14.9-54.7-22.3c0.5,0.6,0.9,1.2,1.4,1.8c0-7.5,0-15,0-22.5c0-1.1-1.9,1.7-0.3,0.8
				c0.9-0.5,1.7-1,2.6-1.5c3.2-1.8,6.5-3.7,9.7-5.5c13.9-7.9,27.8-15.8,41.8-23.7c-0.9-0.5-1.9-1.1-2.8-1.6c0,25.4,0,50.9,0,76.3
				c0,2.4,3.8,2.4,3.8,0c0-25.4,0-50.9,0-76.3c0-1.4-1.6-2.3-2.8-1.6c-18.2,10.3-36.4,20.7-54.7,31c-0.6,0.3-0.9,1-0.9,1.6
				c0,7.7,0,15.3,0,23c0,0.9,0.6,1.5,1.4,1.8c18.2,7.4,36.4,14.9,54.7,22.3C184.4,181.7,185.4,178.1,183.2,177.2z"/>
		</g>
	</g>
	<g class="st1">
		<g>
			<path d="M63.8,169c0,2.7,0,5.3,0,8c0,0.9,0.6,1.6,1.4,1.8c17.9,5.4,35.8,10.9,53.7,16.3c1.2,0.4,2.4-0.6,2.4-1.8
				c0-10.3,0-20.6,0-30.8c0-6.9,0-13.7,0-20.6c0-2,1.1-7.9-0.5-9.6c-2-2-5.6-3.3-8-4.7c-6.3-3.6-12.5-7.2-18.8-10.9
				c-9.1-5.3-18.2-10.5-27.3-15.8c-1.2-0.7-2.8,0.2-2.8,1.6C63.8,124.8,63.8,146.9,63.8,169c0,2.4,3.8,2.4,3.8,0
				c0-22.1,0-44.2,0-66.3c-0.9,0.5-1.9,1.1-2.8,1.6c17.9,10.3,35.7,20.6,53.6,31c-1.4-0.8-0.9-2.3-0.9,0.5c0,2.1,0,4.1,0,6.2
				c0,6.9,0,13.7,0,20.6c0,10.3,0,20.6,0,30.8c0.8-0.6,1.6-1.2,2.4-1.8c-17.9-5.4-35.8-10.9-53.7-16.3c0.5,0.6,0.9,1.2,1.4,1.8
				c0-2.7,0-5.3,0-8C67.5,166.6,63.8,166.6,63.8,169z"/>
		</g>
	</g>
	<g class="st1">
		<g>
			<path d="M237.8,131.5c-0.3,46.9-31,88.7-75.8,102.8c-45.1,14.2-95-4.1-121.3-43c-26.5-39.1-23.2-92.5,6.8-128.8
				c30.1-36.4,82-48.4,125.3-30C212,49.4,237.5,89.1,237.8,131.5c0,2.4,3.8,2.4,3.8,0c-0.3-44.1-26.5-84.3-66.9-102.1
				C134.1,11.5,86,20.5,53.7,50.5c-32.5,30.3-43.2,78.7-27.9,120.1c15.1,40.9,54.1,69,97.3,72c30.6,2.1,61-9.3,83.4-30.1
				c22.4-20.8,34.8-50.6,35-81C241.5,129.1,237.8,129.1,237.8,131.5z"/>
		</g>
	</g>
</g>
<g id="Line_Expand">
	<g>
		<path d="M232.5,95.1c-3.3-9.8-7.8-19-13.5-27.6c-1.3-2-4.6-0.1-3.2,1.9c5.5,8.3,9.9,17.2,13.1,26.7
			C229.7,98.3,233.3,97.4,232.5,95.1z"/>
		<path d="M88.8,234.5c41.7,15.4,89.7,3,119.8-29.3c19-20.4,29.3-47.7,29.5-75.5c0-2.4-3.7-2.4-3.8,0c-0.3,46.9-31,88.7-75.8,102.8
			c-45.1,14.2-95-4.1-121.3-43C10.7,150.5,14,97.1,44,60.9c32-38.7,88-49.4,132.4-26.6c10.4,5.3,19.8,12.6,27.9,20.9
			c1.7,1.7,4.3-0.9,2.7-2.7C172.6,17.3,118.7,8.5,75,31C35.8,51.3,12.6,94.3,15.6,138.1C18.6,181.6,48.2,219.5,88.8,234.5z"/>
		<path d="M196,196.1c17.2-18.4,26.8-42.2,27-67.4c0-2.4-3.7-2.4-3.8,0c-0.2,24.2-9.3,47.1-25.9,64.7
			C191.7,195.2,194.4,197.9,196,196.1z"/>
		<circle cx="191.6" cy="199.6" r="2.4"/>
		<path d="M97,83.1c4.2-2.3,8.4-4.7,12.6-7c2.1-1.2,0.2-4.4-1.9-3.2c-4.2,2.3-8.4,4.7-12.6,7C93,81.1,94.9,84.3,97,83.1z"/>
		<path d="M132.6,123.3c6.3-3.3,12.7-6.7,19-10c9.5-5,19-10,28.5-15c1.2-0.7,1.2-2.6,0-3.2c-11.6-6.5-23.3-12.9-34.9-19.4
			c-6.1-3.4-12.1-6.7-18.2-10.1c-0.9-0.5-2.3-1.6-3.5-1.3c-2.7,0.8-5.5,3-8,4.4c-2.1,1.2-0.2,4.4,1.9,3.2c1.1-0.6,2.2-1.2,3.3-1.9
			c0.8-0.5,1.7-0.9,2.5-1.4c0.3-0.2,0.6-0.3,0.8-0.4c0.8,0.4,1.5,0.8,2.3,1.3c6.2,3.5,12.5,6.9,18.7,10.4
			c10.1,5.6,20.1,11.2,30.2,16.8c-17.1,9-34.1,18-51.2,26.9c-0.4-0.2-0.8-0.4-1.1-0.6c-2.1-1.1-4.1-2.2-6.2-3.3
			c-6.4-3.4-12.9-6.8-19.3-10.1c-8.2-4.3-16.4-8.6-24.6-12.9c4.2-2.3,8.4-4.7,12.6-7c2.1-1.2,0.2-4.4-1.9-3.2
			c-5.2,2.9-10.4,5.8-15.6,8.7c-1.2,0.7-1.2,2.6,0,3.2c9.5,5,19,10,28.5,15c6.3,3.3,12.7,6.7,19,10c2.2,1.1,6,4.3,8.6,4.3
			S130.4,124.4,132.6,123.3z"/>
		<path d="M127.5,158.5c18.2,7.4,36.4,14.9,54.7,22.3c0.9,0.4,1.6,0,1.9-0.6c0.3-0.3,0.4-0.7,0.4-1.2c0-25.4,0-50.9,0-76.3
			c0-1.4-1.6-2.3-2.8-1.6c-18.2,10.3-36.4,20.7-54.7,31c-0.6,0.3-0.9,1-0.9,1.6c0,7.7,0,15.3,0,23
			C126.1,157.6,126.7,158.2,127.5,158.5z M141.9,128c13-7.4,26-14.7,38.9-22.1c0,23.4,0,46.9,0,70.3c-17-6.9-33.9-13.9-50.9-20.8
			c0-6.9,0-13.8,0-20.7c0.8-0.4,1.5-0.9,2.3-1.3C135.4,131.6,138.6,129.8,141.9,128z"/>
		<path d="M67.5,158.8c0-5.2,0-10.3,0-15.5c0-2.4-3.8-2.4-3.8,0c0,5.2,0,10.3,0,15.5C63.8,161.3,67.5,161.3,67.5,158.8z"/>
		<path d="M63.8,177c0,0.9,0.6,1.6,1.4,1.8c17.9,5.4,35.8,10.9,53.7,16.3c1.2,0.4,2.4-0.6,2.4-1.8c0-10.3,0-20.6,0-30.8
			c0-6.9,0-13.7,0-20.6c0-2,1.1-7.9-0.5-9.6c-2-2-5.6-3.3-8-4.7c-6.3-3.6-12.5-7.2-18.8-10.9c-9.1-5.3-18.2-10.5-27.3-15.8
			c-1.2-0.7-2.8,0.2-2.8,1.6c0,10.1,0,20.2,0,30.3c0,2.4,3.8,2.4,3.8,0c0-9,0-18.1,0-27.1c16.6,9.6,33.3,19.2,49.9,28.8
			c0,0.2,0,0.6,0,1c0,2.1,0,4.1,0,6.2c0,6.9,0,13.7,0,20.6c0,9.4,0,18.9,0,28.3c-16.6-5.1-33.3-10.1-49.9-15.2c0-2.2,0-4.4,0-6.6
			c0-2.4-3.8-2.4-3.8,0C63.8,171.7,63.8,174.3,63.8,177z"/>
	</g>
</g>
<g id="Glyph" class="st0">
	<g class="st1">
		<path d="M130.2,22c-60.5,0-109.5,49-109.5,109.5S69.7,241,130.2,241s109.5-49,109.5-109.5S190.6,22,130.2,22z M119.3,193.3
			L65.7,177v-8v-10.2v-15.5V133v-30.3l53.7,31V193.3z M68.8,96.7L84.4,88l11.7-6.5l12.6-7l7.8-4.3L124,66l55.2,30.7l-55.2,29
			L68.8,96.7z M182.7,179L128,156.7v-23l54.7-31V179z M191.6,202c-1.3,0-2.4-1.1-2.4-2.4c0-1.3,1.1-2.4,2.4-2.4
			c1.3,0,2.4,1.1,2.4,2.4C194,200.9,192.9,202,191.6,202z M196,196.1c-1.7,1.8-4.3-0.9-2.7-2.7c16.6-17.6,25.7-40.5,25.9-64.7
			c0-2.4,3.8-2.4,3.8,0C222.8,153.9,213.3,177.8,196,196.1z"/>
	</g>
</g>
</svg>
