<?xml version="1.0" encoding="utf-8"?>
<!-- Generator: Adobe Illustrator 23.0.3, SVG Export Plug-In . SVG Version: 6.00 Build 0)  -->
<svg version="1.1" xmlns="http://www.w3.org/2000/svg" xmlns:xlink="http://www.w3.org/1999/xlink" x="0px" y="0px"
	 viewBox="0 0 256 256" style="enable-background:new 0 0 256 256;" xml:space="preserve">
<style type="text/css">
	.st0{display:none;}
	.st1{display:inline;}
</style>
<g id="SOURCE" class="st0">
	<g class="st1">
		<g>
			<path d="M222.3,128.8c-0.2,24.2-9.3,47.1-25.9,64.7c-1.7,1.8,1,4.4,2.7,2.7c17.2-18.4,26.8-42.2,27-67.4
				C226.1,126.3,222.4,126.3,222.3,128.8L222.3,128.8z"/>
		</g>
	</g>
	<circle class="st1" cx="194.7" cy="199.6" r="2.4"/>
	<g class="st1">
		<g>
			<path d="M121.3,57.5c-14.9,0-29.8,0-44.6,0c-1,0-1.9,0.9-1.9,1.9c0,15.5,0,31,0,46.5c0.6-0.6,1.3-1.3,1.9-1.9
				c-8,0.1-16,0.2-24,0.3c-2.9,0-5.8,0.1-8.8,0.1c-5.2,0.1-6.2,4.3-6.1,8.4c0,3.9-0.4,8.6,4.4,9.9c2.8,0.8,6.3,0.2,9.2,0.2
				c8.4-0.1,16.9-0.2,25.3-0.3c-0.6-0.6-1.3-1.3-1.9-1.9c0,6.7,0,13.4,0,20.2c0.6-0.6,1.3-1.3,1.9-1.9c-8,0.1-16,0.2-24,0.3
				c-2.9,0-5.8,0.1-8.8,0.1c-5.2,0.1-6.2,4.3-6.1,8.4c0,3.9-0.4,8.6,4.4,9.9c2.8,0.8,6.3,0.2,9.2,0.2c8.4-0.1,16.9-0.2,25.3-0.3
				c-0.6-0.6-1.3-1.3-1.9-1.9c0,15.6,0,31.3,0,46.9c0,1,0.9,1.9,1.9,1.9c24.5,0,49.1,0.4,73.6-0.4c8-0.3,16.2-0.7,23.7-4
				c10.2-4.5,17.1-12.7,21.4-22.9c4.5-10.7,4.1-23.2-0.9-33.5c-4.8-9.8-14.4-15.9-24.5-19c0.1,1.1,0.3,2.3,0.4,3.4
				c24.2-11.6,27.7-43.4,7.7-60.8C163.1,54.4,139.6,57.5,121.3,57.5c-2.4,0-2.4,3.8,0,3.8c14.8,0,31.2-1.7,45.3,3.5
				c12.7,4.7,20.7,17.4,21,30.6c0.3,12.9-7.9,24-19.2,29.4c-1.5,0.7-1,3,0.4,3.4c10.9,3.4,19.7,10.1,23.8,20.9
				c4.4,11.7,1.2,25.1-5.5,35.2c-11.3,17.2-32.9,15.9-51,16.1c-19.9,0.3-39.8,0.1-59.6,0.1c0.6,0.6,1.3,1.3,1.9,1.9
				c0-15.6,0-31.3,0-46.9c0-1-0.9-1.9-1.9-1.9c-6.3,0.1-12.5,0.1-18.8,0.2c-3.8,0-7.7,0.1-11.5,0.1c-0.8,0-1.5,0-2.3,0
				c-3.2,0-2.5-3.7-2.5-5.5c0-1.7-0.8-5.6,2.4-5.6c0.7,0,1.5,0,2.2,0c3.7,0,7.5-0.1,11.2-0.1c6.4-0.1,12.9-0.1,19.3-0.2
				c1,0,1.9-0.8,1.9-1.9c0-6.7,0-13.4,0-20.2c0-1-0.9-1.9-1.9-1.9c-6.3,0.1-12.5,0.1-18.8,0.2c-3.8,0-7.7,0.1-11.5,0.1
				c-0.8,0-1.5,0-2.3,0c-3.2,0-2.5-3.7-2.5-5.5c0-1.7-0.8-5.6,2.4-5.6c0.7,0,1.5,0,2.2,0c3.7,0,7.5-0.1,11.2-0.1
				c6.4-0.1,12.9-0.1,19.3-0.2c1,0,1.9-0.8,1.9-1.9c0-15.5,0-31,0-46.5c-0.6,0.6-1.3,1.3-1.9,1.9c14.9,0,29.8,0,44.6,0
				C123.7,61.2,123.7,57.5,121.3,57.5z"/>
			<path d="M105.5,85.1c7.4,0,14.7,0,22.1,0c12,0,31.3-2.6,31.9,14.4c0.6,17.8-23.6,14.9-35,14.9c-6.3,0-12.6,0-18.9,0
				c0.6,0.6,1.3,1.3,1.9,1.9c0-11,0-22.1,0-33.1c0-2.4-3.8-2.4-3.8,0c0,11,0,22.1,0,33.1c0,1,0.9,1.9,1.9,1.9c9.3,0,18.5,0,27.8,0
				c12.9-0.1,28.2-1.1,29.9-17.1c0.8-6.9-2.5-13.5-8.5-17c-4.9-2.8-11.3-2.5-16.8-2.6c-10.8-0.2-21.6-0.1-32.4-0.1
				C103.1,81.3,103.1,85.1,105.5,85.1z"/>
			<path d="M161.3,170.5c-8,8.3-22.4,6-33,6c-7.6,0-15.2,0-22.8,0c0.6,0.6,1.3,1.3,1.9,1.9c0-12.8,0-25.5,0-38.3
				c-0.6,0.6-1.3,1.3-1.9,1.9c7.8,0,15.6,0,23.3,0c8,0,16.7-0.3,24.5,1.8C164.6,146.8,168.4,161.7,161.3,170.5
				c-1.5,1.9,1.1,4.5,2.7,2.7c5.8-7.1,6.1-17.7,1.2-25.4c-4.6-7.3-13.5-8.5-21.3-9.1c-12.7-0.9-25.6-0.4-38.3-0.4
				c-1,0-1.9,0.9-1.9,1.9c0,12.8,0,25.5,0,38.3c0,1,0.9,1.9,1.9,1.9c8.2,0,16.5,0,24.7,0c11.3,0,25.1,1.7,33.7-7.1
				C165.6,171.4,163,168.8,161.3,170.5z"/>
		</g>
	</g>
	<g class="st1">
		<g>
			<path d="M238.1,131.5c-0.3,46.9-31,88.7-75.8,102.8c-45.1,14.2-95-4.1-121.3-43c-26.5-39.1-23.2-92.5,6.8-128.8
				c30.1-36.4,82-48.4,125.3-30C212.4,49.4,237.9,89.1,238.1,131.5c0,2.4,3.8,2.4,3.8,0c-0.3-44.1-26.5-84.3-66.9-102.1
				c-40.5-17.9-88.7-8.9-120.9,21.1c-32.5,30.3-43.2,78.7-27.9,120.1c15.1,40.9,54.1,69,97.3,72c30.6,2.1,61-9.3,83.4-30.1
				c22.4-20.8,34.8-50.6,35-81C241.9,129.1,238.1,129.1,238.1,131.5z"/>
		</g>
	</g>
</g>
<g id="Line_Expand">
	<g>
		<path d="M235.6,95.1c-3.3-9.8-7.8-19-13.5-27.6c-1.3-2-4.6-0.1-3.2,1.9c5.5,8.3,9.9,17.2,13.1,26.7
			C232.7,98.3,236.4,97.4,235.6,95.1z"/>
		<path d="M237.3,129.8c-0.3,46.9-31,88.7-75.8,102.8c-45.1,14.2-95-4.1-121.3-43C13.7,150.5,17.1,97.1,47,60.9
			c32-38.7,88-49.4,132.4-26.6c10.4,5.3,19.8,12.6,27.9,20.9c1.7,1.7,4.3-0.9,2.7-2.7C175.6,17.3,121.8,8.5,78.1,31
			C38.8,51.3,15.6,94.3,18.7,138.1c3,43.5,32.6,81.4,73.2,96.4c41.7,15.4,89.7,3,119.8-29.3c19-20.4,29.3-47.7,29.5-75.5
			C241.1,127.3,237.4,127.3,237.3,129.8z"/>
		<path d="M199.1,196.1c17.2-18.4,26.8-42.2,27-67.4c0-2.4-3.7-2.4-3.8,0c-0.2,24.2-9.3,47.1-25.9,64.7
			C194.8,195.2,197.4,197.9,199.1,196.1z"/>
		<circle cx="194.7" cy="199.6" r="2.4"/>
		<path d="M121.3,57.5c-6.3,0-12.5,0-18.8,0c-2.4,0-2.4,3.8,0,3.8c6.3,0,12.5,0,18.8,0C123.7,61.2,123.7,57.5,121.3,57.5z"/>
		<path d="M76.6,204.4c24.5,0,49.1,0.4,73.6-0.4c8-0.3,16.2-0.7,23.7-4c10.2-4.5,17.1-12.7,21.4-22.9c4.5-10.7,4.1-23.2-0.9-33.5
			c-4.1-8.5-11.9-14.1-20.4-17.5c16.2-10.1,22.3-31.2,12.8-48.4c-10.9-19.6-33.1-20.2-52.9-20.2c-2.4,0-2.4,3.7,0,3.8
			c17.6,0,36.3-0.1,47.8,15.5c12.2,16.6,4.7,39.6-13.2,48.1c-1.5,0.7-1,3,0.4,3.4c10.9,3.4,19.7,10.1,23.8,20.9
			c4.4,11.7,1.2,25.1-5.5,35.2c-11.3,17.2-32.9,15.9-51,16.1c-19.3,0.3-38.5,0.1-57.8,0.1c0-15,0-30,0-45c0-1-0.9-1.9-1.9-1.9
			c-6.3,0.1-12.5,0.1-18.8,0.2c-3.8,0-7.7,0.1-11.5,0.1c-0.8,0-1.5,0-2.3,0c-3.2,0-2.5-3.7-2.5-5.5c0-1.7-0.8-5.6,2.4-5.6
			c0.7,0,1.5,0,2.2,0c3.7,0,7.5-0.1,11.2-0.1c6.4-0.1,12.9-0.1,19.3-0.2c1,0,1.9-0.8,1.9-1.9c0-6.7,0-13.4,0-20.2
			c0-1-0.9-1.9-1.9-1.9c-6.3,0.1-12.5,0.1-18.8,0.2c-3.8,0-7.7,0.1-11.5,0.1c-0.8,0-1.5,0-2.3,0c-3.2,0-2.5-3.7-2.5-5.5
			c0-1.7-0.8-5.6,2.4-5.6c0.7,0,1.5,0,2.2,0c3.7,0,7.5-0.1,11.2-0.1c6.4-0.1,12.9-0.1,19.3-0.2c1,0,1.9-0.8,1.9-1.9
			c0-14.9,0-29.7,0-44.6c2.9,0,5.8,0,8.8,0c2.4,0,2.4-3.8,0-3.8c-3.5,0-7.1,0-10.6,0c-1,0-1.9,0.9-1.9,1.9c0,14.9,0,29.7,0,44.6
			c-7.4,0.1-14.8,0.2-22.1,0.2c-2.9,0-5.8,0.1-8.8,0.1c-5.2,0.1-6.2,4.3-6.1,8.4c0,3.9-0.4,8.6,4.4,9.9c2.8,0.8,6.3,0.2,9.2,0.2
			c7.8-0.1,15.6-0.2,23.5-0.2c0,5.5,0,10.9,0,16.4c-7.4,0.1-14.8,0.2-22.1,0.2c-2.9,0-5.8,0.1-8.8,0.1c-5.2,0.1-6.2,4.3-6.1,8.4
			c0,3.9-0.4,8.6,4.4,9.9c2.8,0.8,6.3,0.2,9.2,0.2c7.8-0.1,15.6-0.2,23.5-0.2c0,15,0,30,0,45C74.7,203.5,75.6,204.4,76.6,204.4z"/>
		<path d="M154.7,84c-4.9-2.8-11.3-2.5-16.8-2.6c-10.8-0.2-21.6-0.1-32.4-0.1c-0.6,0-1,0.2-1.3,0.5c0,0,0,0-0.1,0c0,0,0,0,0,0.1
			c-0.3,0.3-0.5,0.7-0.5,1.3c0,11,0,22.1,0,33.1c0,1,0.9,1.9,1.9,1.9c9.3,0,18.5,0,27.8,0c12.9-0.1,28.2-1.1,29.9-17.1
			C164,94.1,160.7,87.5,154.7,84z M124.5,114.4c-5.7,0-11.4,0-17.1,0c0-9.8,0-19.6,0-29.4c6.7,0,13.5,0,20.2,0
			c12,0,31.3-2.6,31.9,14.4C160.1,117.3,135.9,114.4,124.5,114.4z"/>
		<path d="M105.5,138.2c-1,0-1.9,0.9-1.9,1.9c0,12.8,0,25.5,0,38.3c0,1,0.9,1.9,1.9,1.9c8.2,0,16.5,0,24.7,0
			c11.1,0,24.8,1.7,33.4-6.8c0.1-0.1,0.2-0.2,0.3-0.3c0.1-0.1,0.2-0.3,0.3-0.4c5.5-7.1,5.7-17.4,0.9-25c-4.6-7.3-13.5-8.5-21.3-9.1
			C131.1,137.7,118.2,138.2,105.5,138.2z M161.3,170.5c-8,8.3-22.4,6-33,6c-7,0-13.9,0-20.9,0c0-11.5,0-23,0-34.5
			c7.2,0,14.3,0,21.5,0c8,0,16.7-0.3,24.5,1.8C164.6,146.8,168.4,161.7,161.3,170.5z"/>
	</g>
</g>
<g id="Glyph" class="st0">
	<g class="st1">
		<g>
			<path d="M154.5,142.2c-3.9-1.4-12.5-2.1-25.6-2.1h-23.3v38.3h26.8c10.4,0,17-0.3,19.8-0.9c4.3-0.8,7.8-2.7,10.5-5.7
				c2.7-3,4.1-7.1,4.1-12.2c0-4.3-1-7.9-3.1-10.9C161.4,145.7,158.4,143.5,154.5,142.2z"/>
		</g>
		<g>
			<path d="M145.5,115.8c4.9-0.6,8.8-2.3,11.7-5.1c2.8-2.8,4.2-6.6,4.2-11.2c0-4.4-1.2-8-3.7-10.8c-2.4-2.8-6.1-4.4-10.9-5
				c-2.9-0.3-11.1-0.5-24.7-0.5h-16.6v33.1h18.9C135.7,116.3,142.7,116.1,145.5,115.8z"/>
		</g>
		<g>
			<path d="M130.5,22C70,22,21,71.1,21,131.5S70,241,130.5,241S240,192,240,131.5S191,22,130.5,22z M179.6,194.8
				c-5.2,3.7-11.7,5.9-19.4,6.8c-4.8,0.5-16.4,0.8-34.9,1H76.6v-46.9L44,156c-2.4,0-4.3-1.6-4.3-3.6l-0.1-7.4c0-2,1.9-3.7,4.2-3.7
				l32.8-0.3v-20.2L44,121c-2.4,0-4.3-1.6-4.3-3.6l-0.1-7.4c0-2,1.9-3.7,4.2-3.7l32.8-0.3V59.4h10.6h15.3h18.8h12.6
				c11.3,0,19.8,0.5,25.3,1.4c5.6,0.9,10.5,2.9,14.9,5.9c4.4,3,8.1,7,11,12s4.4,10.6,4.4,16.7c0,6.7-1.8,12.9-5.4,18.5
				c-3.6,5.6-8.5,9.8-14.7,12.6c8.7,2.5,15.4,6.9,20.1,13c4.7,6.1,7,13.3,7,21.6c0,6.5-1.5,12.8-4.5,19
				C189,186.2,184.8,191.1,179.6,194.8z M194.7,202c-1.3,0-2.4-1.1-2.4-2.4c0-1.3,1.1-2.4,2.4-2.4c1.3,0,2.4,1.1,2.4,2.4
				C197,200.9,196,202,194.7,202z M199.1,196.1c-1.7,1.8-4.3-0.9-2.7-2.7c16.6-17.6,25.7-40.5,25.9-64.7c0-2.4,3.8-2.4,3.8,0
				C225.9,153.9,216.3,177.8,199.1,196.1z"/>
		</g>
	</g>
</g>
</svg>
