<?xml version="1.0" encoding="utf-8"?>
<!-- Generator: Adobe Illustrator 23.0.3, SVG Export Plug-In . SVG Version: 6.00 Build 0)  -->
<svg version="1.1" xmlns="http://www.w3.org/2000/svg" xmlns:xlink="http://www.w3.org/1999/xlink" x="0px" y="0px"
	 viewBox="0 0 256 256" style="enable-background:new 0 0 256 256;" xml:space="preserve">
<style type="text/css">
	.st0{display:none;}
	.st1{display:inline;}
</style>
<g id="SOURCE" class="st0">
	<g class="st1">
		<g>
			<path d="M221.6,127.8c-0.2,24.2-9.3,47.1-25.9,64.7c-1.7,1.8,1,4.4,2.7,2.7c17.2-18.4,26.8-42.2,27-67.4
				C225.3,125.3,221.6,125.3,221.6,127.8L221.6,127.8z"/>
		</g>
	</g>
	<circle class="st1" cx="192.3" cy="198.6" r="2.4"/>
	<g class="st1">
		<g>
			<path d="M118.2,173.5c-6.9,0-13.8,0-20.8,0c0.6,0.6,1.3,1.3,1.9,1.9c0-24.1,0-48.2,0-72.3c-0.6,0.6-1.3,1.3-1.9,1.9
				c6.9,0,13.8,0,20.8,0c-0.6-0.6-1.3-1.3-1.9-1.9c0,24.1,0,48.2,0,72.3c0,2.4,3.8,2.4,3.8,0c0-24.1,0-48.2,0-72.3
				c0-1-0.9-1.9-1.9-1.9c-6.9,0-13.8,0-20.8,0c-1,0-1.9,0.9-1.9,1.9c0,24.1,0,48.2,0,72.3c0,1,0.9,1.9,1.9,1.9c6.9,0,13.8,0,20.8,0
				C120.6,177.3,120.6,173.5,118.2,173.5z"/>
		</g>
	</g>
	<g class="st1">
		<g>
			<path d="M80.1,132.8c-6.9,0-13.8,0-20.8,0c-1,0-1.9,0.9-1.9,1.9c0,13.7,0,27.4,0,41.1c0,1,0.9,1.9,1.9,1.9c6.9,0,13.8,0,20.8,0
				c1,0,1.9-0.9,1.9-1.9c0-13.7,0-27.4,0-41.1c0-2.4-3.8-2.4-3.8,0c0,13.7,0,27.4,0,41.1c0.6-0.6,1.3-1.3,1.9-1.9
				c-6.9,0-13.8,0-20.8,0c0.6,0.6,1.3,1.3,1.9,1.9c0-13.7,0-27.4,0-41.1c-0.6,0.6-1.3,1.3-1.9,1.9c6.9,0,13.8,0,20.8,0
				C82.5,136.5,82.5,132.8,80.1,132.8z"/>
		</g>
	</g>
	<g class="st1">
		<g>
			<path d="M189.7,70.1c-6.9,0-13.8,0-20.8,0c-1,0-1.9,0.9-1.9,1.9c0,34.5,0,68.9,0,103.4c0,1,0.9,1.9,1.9,1.9c6.9,0,13.8,0,20.8,0
				c1,0,1.9-0.9,1.9-1.9c0-34.5,0-68.9,0-103.4c0-2.4-3.8-2.4-3.8,0c0,34.5,0,68.9,0,103.4c0.6-0.6,1.3-1.3,1.9-1.9
				c-6.9,0-13.8,0-20.8,0c0.6,0.6,1.3,1.3,1.9,1.9c0-34.5,0-68.9,0-103.4c-0.6,0.6-1.3,1.3-1.9,1.9c6.9,0,13.8,0,20.8,0
				C192.1,73.9,192.1,70.1,189.7,70.1z"/>
		</g>
	</g>
	<g class="st1">
		<g>
			<path d="M134.3,177.7c6.9,0,13.8,0,20.8,0c1,0,1.9-0.9,1.9-1.9c0-13.7,0-27.4,0-41.1c0-1-0.9-1.9-1.9-1.9c-6.9,0-13.8,0-20.8,0
				c-1,0-1.9,0.9-1.9,1.9c0,13.7,0,27.4,0,41.1c0,2.4,3.8,2.4,3.8,0c0-13.7,0-27.4,0-41.1c-0.6,0.6-1.3,1.3-1.9,1.9
				c6.9,0,13.8,0,20.8,0c-0.6-0.6-1.3-1.3-1.9-1.9c0,13.7,0,27.4,0,41.1c0.6-0.6,1.3-1.3,1.9-1.9c-6.9,0-13.8,0-20.8,0
				C131.9,173.9,131.9,177.7,134.3,177.7z"/>
		</g>
	</g>
	<g class="st1">
		<g>
			<path d="M236.6,128.6c-0.3,46.9-31,88.7-75.8,102.8c-45.1,14.2-95-4.1-121.3-43C13,149.3,16.3,95.9,46.3,59.7
				c30.1-36.4,82-48.4,125.3-30C210.9,46.4,236.3,86.1,236.6,128.6c0,2.4,3.8,2.4,3.8,0c-0.3-44.1-26.5-84.3-66.9-102.1
				C132.9,8.6,84.8,17.5,52.6,47.5C20,77.8,9.3,126.2,24.7,167.7c15.1,40.9,54.1,69,97.3,72c30.6,2.1,61-9.3,83.4-30.1
				c22.4-20.8,34.8-50.6,35-81C240.4,126.1,236.6,126.1,236.6,128.6z"/>
		</g>
	</g>
</g>
<g id="Line_Expand">
	<g>
		<path d="M234.8,94.1c-3.3-9.8-7.8-19-13.5-27.6c-1.3-2-4.6-0.1-3.2,1.9c5.5,8.3,9.9,17.2,13.1,26.7
			C232,97.3,235.6,96.4,234.8,94.1z"/>
		<path d="M236.6,128.8c-0.3,46.9-31,88.7-75.8,102.8c-45.1,14.2-95-4.1-121.3-43C13,149.5,16.3,96.1,46.2,59.9
			c32-38.7,88-49.4,132.4-26.6c10.4,5.3,19.8,12.6,27.9,20.9c1.7,1.7,4.3-0.9,2.7-2.7C174.9,16.3,121,7.5,77.3,30
			C38.1,50.3,14.9,93.3,17.9,137.1c3,43.5,32.6,81.4,73.2,96.4c41.7,15.4,89.7,3,119.8-29.3c19-20.4,29.3-47.7,29.5-75.5
			C240.3,126.3,236.6,126.3,236.6,128.8z"/>
		<path d="M198.3,195.1c17.2-18.4,26.8-42.2,27-67.4c0-2.4-3.7-2.4-3.8,0c-0.2,24.2-9.3,47.1-25.9,64.7
			C194,194.2,196.6,196.9,198.3,195.1z"/>
		<circle cx="192.3" cy="198.6" r="2.4"/>
		<path d="M97.4,101.3c-1,0-1.9,0.9-1.9,1.9c0,24.1,0,48.2,0,72.3c0,1,0.9,1.9,1.9,1.9c6.9,0,13.8,0,20.8,0c0.6,0,1-0.2,1.3-0.5
			c0,0,0,0,0,0c0,0,0,0,0.1-0.1c0.3-0.3,0.5-0.7,0.5-1.3c0-24.1,0-48.2,0-72.3c0-1-0.9-1.9-1.9-1.9
			C111.2,101.3,104.3,101.3,97.4,101.3z M116.3,173.5c-5.7,0-11.3,0-17,0c0-22.8,0-45.7,0-68.5c5.7,0,11.3,0,17,0
			C116.3,127.9,116.3,150.7,116.3,173.5z"/>
		<path d="M61.2,136.5c6.3,0,12.6,0,18.9,0c2.4,0,2.4-3.8,0-3.8c-6.9,0-13.8,0-20.8,0c-1,0-1.9,0.9-1.9,1.9c0,13.7,0,27.4,0,41.1
			c0,1,0.9,1.9,1.9,1.9c6.9,0,13.8,0,20.8,0c1,0,1.9-0.9,1.9-1.9c0-8.9,0-17.7,0-26.6c0-2.4-3.8-2.4-3.8,0c0,8.2,0,16.5,0,24.7
			c-5.7,0-11.3,0-17,0C61.2,161.5,61.2,149,61.2,136.5z"/>
		<path d="M189.7,70.1c-6.9,0-13.8,0-20.8,0c-1,0-1.9,0.9-1.9,1.9c0,34.5,0,68.9,0,103.4c0,1,0.9,1.9,1.9,1.9c6.9,0,13.8,0,20.8,0
			c1,0,1.9-0.9,1.9-1.9c0-19.8,0-39.6,0-59.4c0-2.4-3.8-2.4-3.8,0c0,19.2,0,38.4,0,57.5c-5.7,0-11.3,0-17,0c0-33.2,0-66.4,0-99.7
			c6.3,0,12.6,0,18.9,0C192.1,73.9,192.1,70.1,189.7,70.1z"/>
		<path d="M187.8,88.8c0,4.8,0,9.7,0,14.5c0,2.4,3.8,2.4,3.8,0c0-4.8,0-9.7,0-14.5C191.5,86.3,187.8,86.3,187.8,88.8z"/>
		<path d="M153.2,173.9c-6.3,0-12.6,0-18.9,0c-2.4,0-2.4,3.8,0,3.8c6.9,0,13.8,0,20.8,0c1,0,1.9-0.9,1.9-1.9c0-13.7,0-27.4,0-41.1
			c0-1-0.9-1.9-1.9-1.9c-6.9,0-13.8,0-20.8,0c-1,0-1.9,0.9-1.9,1.9c0,8.1,0,16.2,0,24.3c0,2.4,3.8,2.4,3.8,0c0-7.5,0-15,0-22.5
			c5.7,0,11.3,0,17,0C153.2,149,153.2,161.5,153.2,173.9z"/>
	</g>
</g>
<g id="Glyph" class="st0">
	<g class="st1">
		<path d="M129,19.1c-60.5,0-109.5,49-109.5,109.5s49,109.5,109.5,109.5c60.5,0,109.5-49,109.5-109.5S189.5,19.1,129,19.1z
			 M80.1,149.3v26.6H59.3v-41.1h20.8V149.3z M118.2,175.4H97.4v-72.3h20.8V175.4z M155.1,175.8h-20.8V159v-24.3h20.8V175.8z
			 M189.7,88.8v14.5V116v59.4h-20.8V72h20.8V88.8z M192.3,201c-1.3,0-2.4-1.1-2.4-2.4c0-1.3,1.1-2.4,2.4-2.4c1.3,0,2.4,1.1,2.4,2.4
			C194.7,199.9,193.6,201,192.3,201z M198.3,195.1c-1.7,1.8-4.3-0.9-2.7-2.7c16.6-17.6,25.7-40.5,25.9-64.7c0-2.4,3.8-2.4,3.8,0
			C225.1,152.9,215.6,176.8,198.3,195.1z"/>
	</g>
</g>
</svg>
