<?xml version="1.0" encoding="utf-8"?>
<!-- Generator: Adobe Illustrator 23.0.3, SVG Export Plug-In . SVG Version: 6.00 Build 0)  -->
<svg version="1.1" xmlns="http://www.w3.org/2000/svg" xmlns:xlink="http://www.w3.org/1999/xlink" x="0px" y="0px"
	 viewBox="0 0 256 256" style="enable-background:new 0 0 256 256;" xml:space="preserve">
<style type="text/css">
	.st0{display:none;}
	.st1{display:inline;}
</style>
<g id="SOURCE" class="st0">
	<g class="st1">
		<g>
			<g>
				<g>
					<path d="M142.2,163.9c7.4,11-3,21.3-12.1,26.4c-12.6,7.1-27.9,9.2-42.1,9.3c-14.3,0.1-29.4-2.5-42.1-9.3
						C35,184.5,26.6,173.7,35.2,162c1.4-2-1.8-3.8-3.2-1.9c-8.2,11.2-3.2,22.6,6.9,30.2c13.1,9.9,31.4,12.6,47.4,13
						c16.6,0.4,34.7-2.7,48.9-11.7c9.9-6.2,17.7-18.5,10.3-29.6C144.1,160.1,140.9,161.9,142.2,163.9L142.2,163.9z"/>
				</g>
			</g>
			<g>
				<g>
					<path d="M141.4,182.9c7.8,11.8-1,21.6-11.3,27.4c-12.6,7.1-27.9,9.2-42.1,9.3c-14.3,0.1-29.4-2.5-42.1-9.3
						c-10.3-5.5-18.9-15.6-11.5-27.1c1.3-2-1.9-3.9-3.2-1.9c-7.4,11.5-1.4,22.6,8.7,29.7c13.6,9.6,32,12.2,48.2,12.3
						c16.4,0.1,34.3-3.1,48.2-12.3c10.4-7,16-18.7,8.5-30C143.3,179,140.1,180.9,141.4,182.9L141.4,182.9z"/>
				</g>
			</g>
			<g>
				<g>
					<path d="M143.6,154c-0.3,9.4-8.6,15.6-16.2,19.5c-11.7,6.1-25.4,8-38.4,8.1c-12.7,0.1-25.7-2.1-37.2-7.5
						c-8.1-3.8-17.1-10.4-17.4-20.1c-0.3-9.3,9-15.8,16.2-19.5c11.7-6.1,25.4-8,38.4-8.1c12.7-0.1,25.7,2.1,37.2,7.5
						C134.3,137.6,143.3,144.3,143.6,154c0.1,2.4,3.8,2.4,3.8,0c-0.6-20.5-28.1-28.2-44.2-30.4c-21.5-3-50.3-0.4-66.3,16.3
						c-5.2,5.4-7.5,12.8-5.2,20.1c2.7,8.3,10.8,13.8,18.2,17.5c22.1,10.9,51.4,10.7,74,1.8c10.8-4.2,23.1-12.4,23.5-25.2
						C147.4,151.6,143.7,151.6,143.6,154z"/>
				</g>
			</g>
		</g>
		<g>
			<g>
				<path d="M34.5,157.5c3.6-1,7.1-2,10.7-3c2.3-0.7,1.3-4.3-1-3.6c-3.6,1-7.1,2-10.7,3C31.2,154.5,32.2,158.1,34.5,157.5
					L34.5,157.5z"/>
			</g>
		</g>
		<g>
			<g>
				<path d="M142.5,153.9c-3.6-1-7.1-2-10.7-3c-2.3-0.7-3.3,3-1,3.6c3.6,1,7.1,2,10.7,3C143.8,158.1,144.8,154.5,142.5,153.9
					L142.5,153.9z"/>
			</g>
		</g>
		<g>
			<g>
				<path d="M92.2,183.3c0-4.1,0-8.2,0-12.3c0-2.4-3.8-2.4-3.8,0c0,4.1,0,8.2,0,12.3C88.4,185.8,92.2,185.8,92.2,183.3L92.2,183.3z"
					/>
			</g>
		</g>
		<g>
			<g>
				<path d="M47.9,191.8c0-3.4,0-6.9,0-10.3c0-2.4-3.8-2.4-3.8,0c0,3.4,0,6.9,0,10.3C44.2,194.3,47.9,194.3,47.9,191.8L47.9,191.8z"
					/>
			</g>
		</g>
		<g>
			<g>
				<path d="M38.8,204.7c0-3.4,0-6.9,0-10.3c0-2.4-3.8-2.4-3.8,0c0,3.4,0,6.9,0,10.3C35,207.1,38.8,207.1,38.8,204.7L38.8,204.7z"/>
			</g>
		</g>
		<g>
			<g>
				<path d="M67.9,198.1c0-3.4,0-6.9,0-10.3c0-2.4-3.8-2.4-3.8,0c0,3.4,0,6.9,0,10.3C64.2,200.5,67.9,200.5,67.9,198.1L67.9,198.1z"
					/>
			</g>
		</g>
		<g>
			<g>
				<path d="M54.4,213.3c0-3.4,0-6.9,0-10.3c0-2.4-3.8-2.4-3.8,0c0,3.4,0,6.9,0,10.3C50.7,215.7,54.4,215.7,54.4,213.3L54.4,213.3z"
					/>
			</g>
		</g>
		<g>
			<g>
				<path d="M92.7,200.1c0-3.4,0-6.9,0-10.3c0-2.4-3.8-2.4-3.8,0c0,3.4,0,6.9,0,10.3C88.9,202.5,92.7,202.5,92.7,200.1L92.7,200.1z"
					/>
			</g>
		</g>
		<g>
			<g>
				<path d="M77.5,218.6c0-3.4,0-6.9,0-10.3c0-2.4-3.8-2.4-3.8,0c0,3.4,0,6.9,0,10.3C73.8,221,77.5,221,77.5,218.6L77.5,218.6z"/>
			</g>
		</g>
		<g>
			<g>
				<path d="M104.9,218.6c0-3.4,0-6.9,0-10.3c0-2.4-3.8-2.4-3.8,0c0,3.4,0,6.9,0,10.3C101.1,221,104.9,221,104.9,218.6L104.9,218.6z
					"/>
			</g>
		</g>
		<g>
			<g>
				<path d="M128.5,212.8c0-3.9,0-7.8,0-11.8c0-2.4-3.7-2.4-3.7,0c0,3.9,0,7.8,0,11.8C124.8,215.3,128.5,215.3,128.5,212.8
					L128.5,212.8z"/>
			</g>
		</g>
		<g>
			<g>
				<path d="M141.7,204.3c0-3.6,0-7.2,0-10.8c0-2.4-3.8-2.4-3.8,0c0,3.6,0,7.2,0,10.8C137.9,206.8,141.7,206.8,141.7,204.3
					L141.7,204.3z"/>
			</g>
		</g>
		<g>
			<g>
				<path d="M121.2,196.3c0-3.8,0-7.6,0-11.3c0-2.4-3.8-2.4-3.8,0c0,3.8,0,7.6,0,11.3C117.4,198.8,121.2,198.8,121.2,196.3
					L121.2,196.3z"/>
			</g>
		</g>
		<g>
			<g>
				<path d="M137.9,187.6c0-3.4,0-6.9,0-10.3c0-2.4-3.8-2.4-3.8,0c0,3.4,0,6.9,0,10.3C134.2,190,137.9,190,137.9,187.6L137.9,187.6z
					"/>
			</g>
		</g>
		<g>
			<g>
				<path d="M92.2,138.3c0-4.1,0-8.2,0-12.3c0-2.4-3.8-2.4-3.8,0c0,4.1,0,8.2,0,12.3C88.4,140.8,92.2,140.8,92.2,138.3L92.2,138.3z"
					/>
			</g>
		</g>
	</g>
	<g class="st1">
		<g>
			<path d="M108.4,126.4c4.9-2.1,9.8-4.2,14.6-6.3c2.4-1,4.9-1.4,5.5-4.1c2-9.6,4-19.1,6-28.7c4.4-21.1,8.8-42.1,13.2-63.2
				c-0.6,0.5-1.2,0.9-1.8,1.4c9.8,0,19.6,0,29.4,0c-0.6-0.8-1.2-1.6-1.8-2.4c-5.5,26.4-11,52.7-16.5,79.1c-0.4,1.7,1.2,2.8,2.8,2.1
				c6.8-2.9,13.5-6.3,20.5-8.6c2.7-0.9,3.4,3.2,4.2,5c0.3,0.8-3.2,2.2-4.2,2.7c-4.2,1.8-8.5,3.6-12.7,5.5c-3.8,1.6-7.6,3.2-11.3,4.9
				c-2.1,0.9-2,2.6-2.5,4.7c-1.7,8-3.3,16-5,24c-0.2,1.2,0.5,2.4,1.8,2.4c24.3,0,48.6,0,72.9,0c-0.6-0.8-1.2-1.6-1.8-2.4
				c-1.7,8-3.3,16-5,23.9c0.6-0.5,1.2-0.9,1.8-1.4c-23.4,0-46.9,0-70.3,0c-2.4,0-2.4,3.8,0,3.8c23.4,0,46.9,0,70.3,0
				c0.8,0,1.6-0.6,1.8-1.4c1.7-8,3.3-16,5-23.9c0.2-1.2-0.5-2.4-1.8-2.4c-24.3,0-48.6,0-72.9,0c0.6,0.8,1.2,1.6,1.8,2.4
				c1.8-8.7,3.6-17.4,5.5-26.1c0.4-2-1.5,0.4,0.3-0.3c1.8-0.8,3.6-1.5,5.4-2.3c5.3-2.3,10.6-4.5,15.9-6.8c3.5-1.5,7.2-2.6,8.7-6.5
				c1-2.7-2.7-9.1-5.6-9.4c-4.1-0.4-8.4,2.3-12.1,3.8c-4.1,1.8-8.3,3.5-12.4,5.3c0.9,0.7,1.8,1.4,2.8,2.1
				c5.5-26.4,11-52.7,16.5-79.1c0.2-1.2-0.5-2.4-1.8-2.4c-9.8,0-19.6,0-29.4,0c-0.8,0-1.6,0.6-1.8,1.4c-4.3,20.4-8.6,40.9-12.8,61.3
				c-2.1,9.8-4.1,19.6-6.2,29.4c-0.1,0.7-0.3,1.4-0.4,2.1c0.2-1,1.4-1.3,0-0.7c-1.2,0.5-2.4,1-3.6,1.5c-4.9,2.1-9.8,4.2-14.6,6.3
				C104.2,124.1,106.2,127.4,108.4,126.4L108.4,126.4z"/>
		</g>
	</g>
</g>
<g id="Line_Expand">
	<g>
		<path d="M161.8,165c-2.4,0-2.4,3.8,0,3.8c18.8,0,37.7,0,56.5,0c0.8,0,1.6-0.6,1.8-1.4c1.7-8,3.3-16,5-23.9
			c0.2-1.2-0.5-2.4-1.8-2.4c-23.5,0-47,0-70.5,0c1.7-7.9,3.3-15.8,5-23.7c0-0.1,0-0.2,0-0.3c0.1,0,0.2-0.1,0.3-0.1
			c1.8-0.8,3.6-1.5,5.4-2.3c5.3-2.3,10.6-4.5,15.9-6.8c3.5-1.5,7.2-2.6,8.7-6.5c1-2.7-2.7-9.1-5.6-9.4c-4.1-0.4-8.4,2.3-12.1,3.8
			c-3,1.3-5.9,2.5-8.9,3.8c1.5-7.4,3.1-14.8,4.6-22.2c0.5-2.4-3.1-3.4-3.6-1c-1.8,8.6-3.6,17.2-5.4,25.8c-0.4,1.7,1.2,2.8,2.8,2.1
			c6.8-2.9,13.5-6.3,20.5-8.6c2.7-0.9,3.4,3.2,4.2,5c0.3,0.8-3.2,2.2-4.2,2.7c-4.2,1.8-8.5,3.6-12.7,5.5c-3.8,1.6-7.6,3.2-11.3,4.9
			c-2.1,0.9-2,2.6-2.5,4.7c-1.7,8-3.3,16-5,24c-0.2,1.2,0.5,2.4,1.8,2.4c23.5,0,47,0,70.5,0c-1.4,6.7-2.8,13.5-4.2,20.2
			C198.4,165,180.1,165,161.8,165z"/>
		<path d="M128.5,116.1c2-9.6,4-19.1,6-28.7c4.3-20.6,8.6-41.2,12.9-61.8c8.5,0,17,0,25.6,0c-0.8,4-1.7,8-2.5,11.9
			c-0.5,2.4,3.1,3.4,3.6,1c1-4.8,2-9.5,3-14.3c0.2-1.2-0.5-2.4-1.8-2.4c-9.8,0-19.6,0-29.4,0c-0.8,0-1.6,0.6-1.8,1.4
			c-4.3,20.4-8.6,40.9-12.8,61.3c-2.1,9.8-4.1,19.6-6.2,29.4c-0.1,0.4-0.2,0.9-0.3,1.3c0,0-0.1,0-0.1,0.1c-1.2,0.5-2.4,1-3.6,1.5
			c-4.9,2.1-9.8,4.2-14.6,6.3c-0.4,0.2-0.7,0.4-0.8,0.7c-0.8-0.1-1.7-0.3-2.5-0.4c-21.5-3-50.3-0.4-66.3,16.3
			c-5.2,5.4-7.5,12.8-5.2,20.1c0.1,0.2,0.1,0.3,0.2,0.5c-5.3,7.4-4.9,14.9-1,21.4c-7,11.4-1,22.2,9,29.3c13.6,9.6,32,12.2,48.2,12.3
			c16.4,0.1,34.3-3.1,48.2-12.3c10.2-6.8,15.7-18.1,9-29.2c3.7-6,4.8-13.1,0.3-19.8c0,0,0,0,0,0c1.2-2.4,1.9-5.1,1.9-8
			c0-0.2,0-0.3,0-0.4c-0.8-16.9-20.1-25-35.8-28.5c3.8-1.6,7.6-3.3,11.5-4.9C125.4,119.2,127.9,118.8,128.5,116.1z M141.7,200.3
			c0-2.2,0-4.5,0-6.7c0-2.4-3.8-2.4-3.8,0c0,3.6,0,7.2,0,10.8c0,0.1,0,0.2,0,0.3c-2.3,2.2-5,4.1-7.9,5.7c-0.5,0.3-1,0.6-1.6,0.8
			c0-3.4,0-6.7,0-10.1c0-2.4-3.7-2.4-3.7,0c0,3.9,0,7.8,0,11.8c0,0.1,0,0.1,0,0.1c-6.3,2.7-13.1,4.4-19.9,5.4c0-3.4,0-6.8,0-10.2
			c0-2.4-3.8-2.4-3.8,0c0,3.4,0,6.9,0,10.3c0,0.1,0,0.2,0,0.3c-4.4,0.5-8.8,0.7-13.2,0.7c-3.5,0-7-0.1-10.6-0.4
			c0.1-0.2,0.1-0.4,0.1-0.6c0-3.4,0-6.9,0-10.3c0-2.4-3.8-2.4-3.8,0c0,3.4,0,6.9,0,10.3c0,0.1,0,0.1,0,0.2
			c-6.7-0.8-13.3-2.4-19.6-4.7c0.1-0.2,0.2-0.5,0.2-0.9c0-3.4,0-6.9,0-10.3c0-2.4-3.8-2.4-3.8,0c0,3.3,0,6.5,0,9.8
			c-1.6-0.7-3.2-1.5-4.8-2.3c-2.6-1.4-5.1-3.1-7.2-5c0.1-0.2,0.1-0.4,0.1-0.7c0-3.4,0-6.9,0-10.3c0-2.4-3.8-2.4-3.8,0
			c0,2.4,0,4.7,0,7.1c-3.4-4.7-4.7-10.3-1.7-16.3c1.6,1.9,3.5,3.6,5.6,5.2c13.1,9.9,31.4,12.6,47.4,13c16.6,0.4,34.7-2.7,48.9-11.7
			c2.8-1.8,5.4-4,7.5-6.5C145.5,190.8,144.6,195.9,141.7,200.3z M137.9,184.6c0-2.5,0-4.9,0-7.4c0-2.4-3.8-2.4-3.8,0
			c0,3.4,0,6.9,0,10.3c0,0,0,0.1,0,0.1c-1.4,1-2.7,1.9-4.1,2.6c-2.8,1.6-5.8,2.9-8.9,4.1c0-3.1,0-6.3,0-9.4c0-2.4-3.8-2.4-3.8,0
			c0,3.6,0,7.1,0,10.7c-8,2.4-16.5,3.5-24.8,3.8c0-3.3,0-6.5,0-9.8c0-2.4-3.8-2.4-3.8,0c0,3.3,0,6.6,0,9.9c-0.3,0-0.6,0-1,0
			c-6.6,0-13.4-0.5-20-1.7c0-3.4,0-6.8,0-10.1c0-2.4-3.8-2.4-3.8,0c0,3.1,0,6.2,0,9.3c-5.6-1.3-11.1-3.2-16.3-5.7c0-3.3,0-6.6,0-9.9
			c0-2.4-3.8-2.4-3.8,0c0,2.6,0,5.3,0,7.9c-9.3-5.6-16.1-14.8-10.5-25c3.7,5.9,10.1,10,16.1,13c22.1,10.9,51.4,10.7,74,1.8
			c7-2.7,14.7-7.2,19.3-13.5C146.8,172.8,143.3,179.6,137.9,184.6z M143.6,154c0,0.2,0,0.4-0.1,0.7c-0.2-0.4-0.6-0.7-1.1-0.8
			c-3.6-1-7.1-2-10.7-3c-2.3-0.7-3.3,3-1,3.6c3.6,1,7.1,2,10.7,3c0.7,0.2,1.3,0,1.7-0.4c-1.8,7.7-9,12.9-15.8,16.5
			c-10.7,5.6-23.2,7.6-35.2,8c0-3.5,0-7,0-10.6c0-2.4-3.8-2.4-3.8,0c0,3.5,0,7.1,0,10.6c-12.5,0-25.3-2.2-36.7-7.5
			c-7.1-3.3-14.9-8.8-16.9-16.8c3.4-1,6.9-1.9,10.3-2.9c2.3-0.7,1.3-4.3-1-3.6c-3.3,0.9-6.5,1.8-9.8,2.8c0-9,9.1-15.4,16.2-19.2
			c11.5-6,25.1-7.9,37.9-8.1c0,4,0,8,0,11.9c0,2.4,3.8,2.4,3.8,0c0-4,0-8,0-11.9c11.6,0.3,23.5,2.6,34,7.5
			C134.3,137.6,143.3,144.3,143.6,154z"/>
	</g>
</g>
<g id="Glyph" class="st0">
	<path class="st1" d="M50.6,134.5c11.5-6,25.1-7.9,37.9-8.1c0,4,0,8,0,11.9c0,2.4,3.8,2.4,3.8,0c0-4,0-8,0-11.9
		c11.6,0.3,23.5,2.6,34,7.5c8.1,3.8,17.1,10.4,17.4,20.1c0,0.2,0,0.4-0.1,0.7c-0.2-0.4-0.6-0.7-1.1-0.8c-3.6-1-7.1-2-10.7-3
		c-2.3-0.7-3.3,3-1,3.6c3.6,1,7.1,2,10.7,3c0.7,0.2,1.3,0,1.7-0.4c-1.8,7.7-9,12.9-15.8,16.5c-10.7,5.6-23.2,7.6-35.2,8
		c0-3.5,0-7,0-10.6c0-2.4-3.8-2.4-3.8,0c0,3.5,0,7.1,0,10.6c-12.5,0-25.3-2.2-36.7-7.5c-7.1-3.3-14.9-8.8-16.9-16.8
		c3.4-1,6.9-1.9,10.3-2.9c2.3-0.7,1.3-4.3-1-3.6c-3.3,0.9-6.5,1.8-9.8,2.8C34.4,144.6,43.4,138.2,50.6,134.5z M33.7,164.4
		c3.7,5.9,10.1,10,16.1,13c22.1,10.9,51.4,10.7,74,1.8c7-2.7,14.7-7.2,19.3-13.5c3.6,7.1,0.1,13.9-5.3,18.9c0-2.5,0-4.9,0-7.4
		c0-2.4-3.8-2.4-3.8,0c0,3.4,0,6.9,0,10.3c0,0,0,0.1,0,0.1c-1.4,1-2.7,1.9-4.1,2.6c-2.8,1.6-5.8,2.9-8.9,4.1c0-3.1,0-6.3,0-9.4
		c0-2.4-3.8-2.4-3.8,0c0,3.6,0,7.1,0,10.7c-8,2.4-16.5,3.5-24.8,3.8c0-3.3,0-6.5,0-9.8c0-2.4-3.8-2.4-3.8,0c0,3.3,0,6.6,0,9.9
		c-0.3,0-0.6,0-1,0c-6.6,0-13.4-0.5-20-1.7c0-3.4,0-6.8,0-10.1c0-2.4-3.8-2.4-3.8,0c0,3.1,0,6.2,0,9.3c-5.6-1.3-11.1-3.2-16.3-5.7
		c0-3.3,0-6.6,0-9.9c0-2.4-3.8-2.4-3.8,0c0,2.6,0,5.3,0,7.9C34.9,183.8,28.1,174.6,33.7,164.4z M141.7,200.3c0-2.2,0-4.5,0-6.7
		c0-2.4-3.8-2.4-3.8,0c0,3.6,0,7.2,0,10.8c0,0.1,0,0.2,0,0.3c-2.3,2.2-5,4.1-7.9,5.7c-0.5,0.3-1,0.6-1.6,0.8c0-3.4,0-6.7,0-10.1
		c0-2.4-3.7-2.4-3.7,0c0,3.9,0,7.8,0,11.8c0,0.1,0,0.1,0,0.1c-6.3,2.7-13.1,4.4-19.9,5.4c0-3.4,0-6.8,0-10.2c0-2.4-3.8-2.4-3.8,0
		c0,3.4,0,6.9,0,10.3c0,0.1,0,0.2,0,0.3c-4.4,0.5-8.8,0.7-13.2,0.7c-3.5,0-7-0.1-10.6-0.4c0.1-0.2,0.1-0.4,0.1-0.6
		c0-3.4,0-6.9,0-10.3c0-2.4-3.8-2.4-3.8,0c0,3.4,0,6.9,0,10.3c0,0.1,0,0.1,0,0.2c-6.7-0.8-13.3-2.4-19.6-4.7
		c0.1-0.2,0.2-0.5,0.2-0.9c0-3.4,0-6.9,0-10.3c0-2.4-3.8-2.4-3.8,0c0,3.3,0,6.5,0,9.8c-1.6-0.7-3.2-1.5-4.8-2.3
		c-2.6-1.4-5.1-3.1-7.2-5c0.1-0.2,0.1-0.4,0.1-0.7c0-3.4,0-6.9,0-10.3c0-2.4-3.8-2.4-3.8,0c0,2.4,0,4.7,0,7.1
		c-3.4-4.7-4.7-10.3-1.7-16.3c1.6,1.9,3.5,3.6,5.6,5.2c13.1,9.9,31.4,12.6,47.4,13c16.6,0.4,34.7-2.7,48.9-11.7
		c2.8-1.8,5.4-4,7.5-6.5C145.5,190.8,144.6,195.9,141.7,200.3z M216.8,165c-22.9,0-45.8,0-68.8,0c-0.3,0-0.6,0.1-0.9,0.2
		c-0.4-1.1-1-2.1-1.7-3.1c0,0,0,0,0,0c1.2-2.4,1.9-5.1,1.9-8c0-0.2,0-0.3,0-0.4c-0.8-16.9-20.1-25-35.8-28.5
		c3.8-1.6,7.6-3.3,11.5-4.9c2.4-1,4.9-1.4,5.5-4.1c2-9.6,4-19.1,6-28.7c4.3-20.6,8.6-41.2,12.9-61.8c8.5,0,17,0,25.6,0
		c-5.3,25.6-10.7,51.2-16,76.7c-0.4,1.7,1.2,2.8,2.8,2.1c6.8-2.9,13.5-6.3,20.5-8.6c2.7-0.9,3.4,3.2,4.2,5c0.3,0.8-3.2,2.2-4.2,2.7
		c-4.2,1.8-8.5,3.6-12.7,5.5c-3.8,1.6-7.6,3.2-11.3,4.9c-2.1,0.9-2,2.6-2.5,4.7c-1.7,8-3.3,16-5,24c-0.2,1.2,0.5,2.4,1.8,2.4
		c23.5,0,47,0,70.5,0C219.6,151.6,218.2,158.3,216.8,165z"/>
</g>
</svg>
