<svg id="Layer_1" data-name="Layer 1" xmlns="http://www.w3.org/2000/svg" viewBox="0 0 222.93 223.14"><defs><style>.cls-1{fill:#94c973;}</style></defs><g id="Line_Expand" data-name="Line Expand"><path class="cls-1" d="M213.83,78.06c.8,2.3,4.4,1.3,3.6-1a117.78,117.78,0,0,0-13.5-27.6c-1.3-2-4.6-.1-3.2,1.9A120.33,120.33,0,0,1,213.83,78.06Z"/><path class="cls-1" d="M73.63,216.56c41.7,15.4,89.7,3,119.8-29.3,19-20.4,29.3-47.7,29.5-75.5,0-2.4-3.7-2.4-3.8,0a108.73,108.73,0,0,1-75.8,102.8c-45.1,14.2-95-4.1-121.3-43-26.5-39.1-23.2-92.5,6.8-128.8,32-38.7,88-49.4,132.4-26.6a107.87,107.87,0,0,1,27.9,20.9c1.7,1.7,4.3-.9,2.7-2.7a112.8,112.8,0,0,0-131.9-21.5c-39.3,20.4-62.5,63.5-59.5,107.3C3.43,163.56,33,201.46,73.63,216.56Z"/><path class="cls-1" d="M180.93,178.16a99.41,99.41,0,0,0,27-67.4c0-2.4-3.7-2.4-3.8,0a94.89,94.89,0,0,1-25.9,64.7C176.63,177.26,179.23,179.86,180.93,178.16Z"/><circle class="cls-1" cx="175.93" cy="181.66" r="2.4"/><path class="cls-1" d="M70,118.76v16.7c0,2.4,3.8,2.4,3.8,0v-16.7C73.83,116.36,70,116.36,70,118.76Z"/><path class="cls-1" d="M79.63,21.56c-5.7,0-9.6,3-9.6,8.9v13.9H55.93c-6.1,0-9.5,3.5-9.5,9.6s3.3,9.6,9.5,9.6h14.2v42.5c0,2.4,3.8,2.4,3.8,0V61.76a2,2,0,0,0-1.9-1.9H60.83c-4.9,0-10.5.9-10.5-5.9s5.7-5.9,10.5-5.9H72a2,2,0,0,0,1.9-1.9V35.86c0-4.9-1-10.6,5.9-10.6,6.5,0,5.9,5,5.9,9.7v11.3a2,2,0,0,0,1.9,1.9h9.2a2,2,0,0,0,1.9-1.9V36c0-4.9-1-10.6,5.9-10.6,6.5,0,5.9,5,5.9,9.7v11.3a2,2,0,0,0,1.9,1.9c12.1,0,25.3-.7,36.7,4,2.2.9,3.2-2.7,1-3.6-11.1-4.5-24-4.2-35.9-4.1V31.26c0-6.2-3.5-9.5-9.6-9.5-5.7,0-9.6,3-9.6,8.9v13.9h-5.4V31.26C89.23,24.86,85.73,21.56,79.63,21.56Z"/><path class="cls-1" d="M169.93,69.56a37.13,37.13,0,0,0-9.2-14.1c-1.8-1.7-4.4,1-2.7,2.7a33,33,0,0,1,8.3,12.5C167.13,72.86,170.73,71.86,169.93,69.56Z"/><path class="cls-1" d="M104.33,203.76c5.7,0,9.6-3,9.6-9v-14.2c21.4-.1,46.4-1.5,59.1-21.4,6.6-10.2,6-24.5-.5-34.5-5.1-7.8-13.4-13.2-22.1-16.3,11.5-5,20.8-15.7,21.2-28.8.1-2.4-3.7-2.4-3.8,0-.4,13.4-11.7,23.8-24,27.1a1.87,1.87,0,0,0,0,3.6c10.1,2.5,19.2,7.7,25.4,16.3,7.5,10.4,5.5,25.5-2.5,34.9-13.2,15.5-36.1,15.4-54.7,15.4a2,2,0,0,0-1.9,1.9v10.5c0,4.9,1,10.7-5.9,10.7-6.5,0-5.9-5.1-5.9-9.8v-11.5a2,2,0,0,0-1.9-1.9h-9.2a2,2,0,0,0-1.9,1.9v10.5c0,4.9,1,10.7-5.9,10.7-6.5,0-5.9-5.1-5.9-9.8v-11.5a2,2,0,0,0-1.9-1.9H60.43c-4.8,0-10.5.9-10.5-5.9s5.7-5.9,10.5-5.9h11.2a2,2,0,0,0,1.9-1.9v-7.8c0-2.4-3.7-2.4-3.8,0v5.9H55.53c-6.1,0-9.5,3.5-9.5,9.6s3.3,9.6,9.5,9.6h14.1v13.6c0,6.2,3.4,9.5,9.6,9.5,5.7,0,9.6-3,9.6-9v-14.2h5.4v13.6C94.63,200.36,98.13,203.76,104.33,203.76Z"/><path class="cls-1" d="M124.43,54.86a.37.37,0,0,0-.3-.1.1.1,0,0,1-.1-.1c-6.6-2.8-14.2-2.9-21.2-2.9a2,2,0,0,0-1.9,1.9v52.1a2,2,0,0,0,1.9,1.9c12.8-.1,28.1-2.1,33.6-15.7S138.13,61.66,124.43,54.86Zm8.9,34.9c-4.1,12.1-17.7,13.9-28.7,14.2V55.56c6.1,0,12.3.3,18,2.6C134.53,64.06,137.43,77.76,133.33,89.76Z"/><path class="cls-1" d="M102.83,111.56a2,2,0,0,0-1.9,1.9v40.7c0,6.6-1,13.8,5.6,17.8,5.2,3.2,13.5,1.2,18.7-.7a26.39,26.39,0,0,0,14.2-12.3c5.6-11.2,5.2-26.1-2.7-36.2C128.43,112.26,115.13,111.56,102.83,111.56Zm33.4,45.4c-3.4,6-8.5,9.6-15.1,11.6-7.7,2.3-16.8,1.3-16.6-8.5.1-3.8.1-7.7.1-11.5v-33.2c9.2,0,19.3.5,26.5,6.8C140.73,130.46,141.53,146.26,136.23,157Z"/></g></svg>