<?xml version="1.0" encoding="utf-8"?>
<!-- Generator: Adobe Illustrator 23.0.3, SVG Export Plug-In . SVG Version: 6.00 Build 0)  -->
<svg version="1.1" xmlns="http://www.w3.org/2000/svg" xmlns:xlink="http://www.w3.org/1999/xlink" x="0px" y="0px"
	 viewBox="0 0 256 256" style="enable-background:new 0 0 256 256;" xml:space="preserve">
<style type="text/css">
	.st0{display:none;}
	.st1{display:inline;}
</style>
<g id="SOURCE" class="st0">
	<g class="st1">
		<g>
			<g>
				<path d="M153.6,163.8c-9.1-10.4-18.2-20.8-27.3-31.1c-0.4,1.1-0.9,2.1-1.3,3.2c8.2-0.1,16.9-0.4,23.2-6.2
					c6.6-6.1,6.8-16.8,5.7-25c-2.4-17.6-19.7-18.5-34.1-18.5c0.6,0.6,1.3,1.3,1.9,1.9c0-1.7,0-3.5,0-5.2c-0.6,0.6-1.3,1.3-1.9,1.9
					c5.6-0.3,11.1-0.5,16.7-0.3c9.2,0.3,19.2,0.5,27.4,5.2c16.7,9.4,17.4,40.4-2.7,46.4c-1.5,0.4-1.7,2-0.8,3.1
					c9.9,12.8,19.5,25.7,30.3,37.7c0.4-1.1,0.9-2.1,1.3-3.2c-8,0-16.1,0-24.1,0c-1.7,0-3.4,0-5.2,0c-2.5,0,0.5,1.2-0.9-0.4
					C159.1,170,156.3,166.9,153.6,163.8c-1.6-1.8-4.2,0.8-2.7,2.7c2.7,3.1,5.4,6.2,8.2,9.3c1.8,2,3.8,1.5,6.4,1.5
					c8.8,0,17.6,0,26.4,0c1.7,0,2.4-2,1.3-3.2c-10.8-12-20.4-24.9-30.3-37.7c-0.3,1-0.6,2.1-0.8,3.1c19.9-5.9,22.5-32.9,10.6-47.3
					c-6.6-7.9-16.4-10-26.1-11c-9-0.9-17.9-0.9-26.9-0.3c-1,0.1-1.9,0.8-1.9,1.9c0,1.7,0,3.5,0,5.2c0,1,0.9,1.9,1.9,1.9
					c11,0,25.2-0.7,29.5,11.7c2.6,7.4,2,17.1-2.3,23.7c-4.6,7-14.8,6.9-22.1,6.9c-1.7,0-2.4,2-1.3,3.2c9.1,10.4,18.2,20.8,27.3,31.1
					C152.6,168.2,155.2,165.6,153.6,163.8z"/>
			</g>
		</g>
	</g>
	<g class="st1">
		<g>
			<g>
				<path d="M74.5,106.5c-6.2-8-12.5-16-19.3-23.5c-0.4,1.1-0.9,2.1-1.3,3.2c7.8,0,15.5,0,23.3,0c1.8,0,3.7,0,5.5,0
					c2.1,0,1.4,0.5,0.6-0.5c1.4,1.6,2.9,3.3,4.3,4.9c10.7,12.1,21.3,24.3,32,36.4c0.4-1.1,0.9-2.1,1.3-3.2
					c-8.2,0.1-16.9,0.4-23.2,6.2c-6.6,6.1-6.8,16.8-5.7,25c2.4,17.6,19.7,18.5,34.1,18.5c-0.6-0.6-1.3-1.3-1.9-1.9
					c0,1.7,0,3.5,0,5.2c0.6-0.6,1.3-1.3,1.9-1.9c-5.6,0.3-11.1,0.5-16.7,0.3c-9.2-0.3-19.2-0.5-27.4-5.2
					c-16.7-9.4-17.4-40.4,2.7-46.4c1.5-0.4,1.7-2,0.8-3.1C81.8,115.9,78.1,111.2,74.5,106.5c-1.5-1.9-4.1,0.8-2.7,2.7
					c3.7,4.7,7.3,9.4,11,14.1c0.3-1,0.6-2.1,0.8-3.1c-19.9,5.9-22.5,32.9-10.6,47.3c6.6,7.9,16.4,10,26.1,11
					c9,0.9,17.9,0.9,26.9,0.3c1-0.1,1.9-0.8,1.9-1.9c0-1.7,0-3.5,0-5.2c0-1-0.9-1.9-1.9-1.9c-11,0-25.2,0.7-29.5-11.7
					c-2.6-7.4-2-17.1,2.3-23.7c4.6-7,14.8-6.9,22.1-6.9c1.7,0,2.4-2,1.3-3.2c-10.8-12.3-21.6-24.6-32.4-36.9c-1.3-1.5-2.6-3-3.9-4.5
					c-1.2-1.4-5.6-0.6-7.1-0.6c-8.3,0-16.6,0-24.9,0c-1.7,0-2.4,2-1.3,3.2c6.8,7.6,13.1,15.5,19.3,23.5
					C73.3,111,75.9,108.4,74.5,106.5z"/>
			</g>
		</g>
	</g>
	<g class="st1">
		<g>
			<path d="M219.8,128.8c-0.2,24.2-9.3,47.1-25.9,64.7c-1.7,1.8,1,4.4,2.7,2.7c17.2-18.4,26.8-42.2,27-67.4
				C223.5,126.3,219.8,126.3,219.8,128.8L219.8,128.8z"/>
		</g>
	</g>
	<circle class="st1" cx="192.1" cy="199.6" r="2.4"/>
	<g class="st1">
		<g>
			<path d="M235.6,131.5c-0.3,46.9-31,88.7-75.8,102.8c-45.1,14.2-95-4.1-121.3-43C12,152.3,15.4,98.9,45.3,62.6
				c30.1-36.4,82-48.4,125.3-30C209.9,49.4,235.4,89.1,235.6,131.5c0,2.4,3.8,2.4,3.8,0c-0.3-44.1-26.5-84.3-66.9-102.1
				c-40.5-17.9-88.7-8.9-120.9,21.1C19,80.8,8.3,129.2,23.7,170.7c15.1,40.9,54.1,69,97.3,72c30.6,2.1,61-9.3,83.4-30.1
				c22.4-20.8,34.8-50.6,35-81C239.4,129.1,235.6,129.1,235.6,131.5z"/>
		</g>
	</g>
</g>
<g id="Line_Expand">
	<g>
		<path d="M161.3,177.2c10.2,0,20.5,0,30.7,0c1.7,0,2.4-2,1.3-3.2c-10.2-11.3-19.3-23.4-28.6-35.5c17.6-7.4,19.5-32.7,8.1-46.4
			c-6.6-7.9-16.4-10-26.1-11c-9-0.9-17.9-0.9-26.9-0.3c-1,0.1-1.9,0.8-1.9,1.9c0,1.7,0,3.5,0,5.2c0,1,0.9,1.9,1.9,1.9
			c11,0,25.2-0.7,29.5,11.7c2.6,7.4,2,17.1-2.3,23.7c-4.6,7-14.8,6.9-22.1,6.9c-1.7,0-2.4,2-1.3,3.2c3.3,3.7,6.6,7.5,9.8,11.2
			c1.6,1.8,4.2-0.8,2.7-2.7c-2.4-2.7-4.7-5.4-7.1-8.1c6.9-0.2,13.9-1.3,19.2-6.2c6.6-6.1,6.8-16.8,5.7-25
			c-2.3-16.8-18.2-18.4-32.2-18.5c0-0.5,0-1,0-1.6c4.9-0.3,9.8-0.4,14.8-0.2c9.2,0.3,19.2,0.5,27.4,5.2c16.7,9.4,17.4,40.4-2.7,46.4
			c-1.5,0.4-1.7,2-0.8,3.1c9,11.6,17.8,23.4,27.5,34.5c-8.8,0-17.7,0-26.5,0C158.9,173.5,158.9,177.2,161.3,177.2z"/>
		<path d="M141.6,155.8c3.1,3.5,6.2,7.1,9.3,10.6c1.6,1.8,4.2-0.8,2.7-2.7c-3.1-3.5-6.2-7.1-9.3-10.6
			C142.7,151.3,140,154,141.6,155.8z"/>
		<path d="M74.5,106.5c-2.4-3.1-4.9-6.3-7.3-9.4c-1.5-1.9-4.1,0.8-2.7,2.7c2.4,3.1,4.9,6.3,7.3,9.4C73.3,111,75.9,108.4,74.5,106.5z
			"/>
		<path d="M99.1,178.4c9,0.9,17.9,0.9,26.9,0.3c1-0.1,1.9-0.8,1.9-1.9c0-1.7,0-3.5,0-5.2c0-1-0.9-1.9-1.9-1.9
			c-11,0-25.2,0.7-29.5-11.7c-2.6-7.4-2-17.1,2.3-23.7c4.6-7,14.8-6.9,22.1-6.9c1.7,0,2.4-2,1.3-3.2c-10.8-12.3-21.6-24.6-32.4-36.9
			c-1.3-1.5-2.6-3-3.9-4.5c-1.2-1.4-5.6-0.6-7.1-0.6c-8.3,0-16.6,0-24.9,0c-1.7,0-2.4,2-1.3,3.2c1.7,1.8,3.3,3.7,5,5.5
			c1.6,1.8,4.3-0.9,2.7-2.7c-0.7-0.8-1.4-1.5-2.1-2.3c6.4,0,12.7,0,19.1,0c1.8,0,3.7,0,5.5,0c0.5,0,0.8,0,1,0.1
			c1.3,1.5,2.6,2.9,3.9,4.4c9.7,11.1,19.5,22.2,29.2,33.3c-6.9,0.2-13.9,1.3-19.2,6.2c-6.6,6.1-6.8,16.8-5.7,25
			c2.3,16.8,18.2,18.4,32.2,18.5c0,0.5,0,1,0,1.6c-4.9,0.3-9.8,0.4-14.8,0.2c-9.2-0.3-19.2-0.5-27.4-5.2
			c-16.7-9.4-17.4-40.4,2.7-46.4c1.5-0.4,1.7-2,0.8-3.1c-1.6-2.1-3.2-4.2-4.8-6.2c-1.5-1.9-4.1,0.8-2.7,2.7c1,1.3,2.1,2.7,3.1,4
			c-17.6,7.4-19.5,32.7-8.1,46.4C79.5,175.4,89.4,177.5,99.1,178.4z M84,86.3C84.1,86.3,84.1,86.3,84,86.3L84,86.3z"/>
		<path d="M233,95.1c-3.3-9.8-7.8-19-13.5-27.6c-1.3-2-4.6-0.1-3.2,1.9c5.5,8.3,9.9,17.2,13.1,26.7C230.2,98.3,233.8,97.4,233,95.1z
			"/>
		<path d="M234.8,129.8c-0.3,46.9-31,88.7-75.8,102.8c-45.1,14.2-95-4.1-121.3-43c-26.5-39.1-23.2-92.5,6.8-128.8
			c32-38.7,88-49.4,132.4-26.6c10.4,5.3,19.8,12.6,27.9,20.9c1.7,1.7,4.3-0.9,2.7-2.7C173.1,17.3,119.2,8.5,75.5,31
			C36.3,51.3,13.1,94.3,16.1,138.1c3,43.5,32.6,81.4,73.2,96.4c41.7,15.4,89.7,3,119.8-29.3c19-20.4,29.3-47.7,29.5-75.5
			C238.5,127.3,234.8,127.3,234.8,129.8z"/>
		<path d="M196.5,196.1c17.2-18.4,26.8-42.2,27-67.4c0-2.4-3.7-2.4-3.8,0c-0.2,24.2-9.3,47.1-25.9,64.7
			C192.2,195.2,194.9,197.9,196.5,196.1z"/>
		<circle cx="192.1" cy="199.6" r="2.4"/>
	</g>
</g>
<g id="Glyph" class="st0">
	<g class="st1">
		<path d="M128,22c-60.5,0-109.5,49-109.5,109.5S67.5,241,128,241s109.5-49,109.5-109.5S188.5,22,128,22z M126,176.9l-7.3,0.5
			c-12.7,0-25-0.9-30.9-2.6c-5.9-1.8-10.7-5-14.4-9.7c-3.7-4.7-5.6-10.3-5.6-16.6c0-7.7,0.9-12.4,3.5-16.2
			c2.7-3.9,6.4-8.6,12.8-10.2l-4.8-6.2l-6.1-7.9l-7.3-9.4l-7.1-8.6l-5-5.5h30.7l36.3,41.4c-7.2,0-12.6,0.7-16.1,2
			c-3.6,1.3-6.4,3.7-8.4,7.1c-2,3.4-3.1,7.9-3.1,13.4c0,8,1.9,13.9,5.6,17.7c3.7,3.8,12.8,5.7,21.1,5.7h6V176.9z M152.3,165.1
			l-9.3-10.6l-8.2-9.3L125,134c7.2,0,12.6-0.7,16.1-2c3.6-1.3,6.4-3.7,8.4-7.1c2-3.4,3.1-7.9,3.1-13.4c0-8-1.9-13.9-5.6-17.7
			c-3.7-3.8-12.8-5.7-21.1-5.7h-6v-5.2l7.3-0.5c12.7,0,25,0.9,30.9,2.6c5.9,1.8,10.7,5,14.4,9.7c3.7,4.7,5.6,10.3,5.6,16.6
			c0,7.7-0.9,12.4-3.5,16.2c-2.7,3.9-6.4,8.6-12.8,10.2l18.3,23.6c3.3,4.6,5.7,7.5,7.1,8.6l5,5.5h-30.7L152.3,165.1z M192.1,202
			c-1.3,0-2.4-1.1-2.4-2.4c0-1.3,1.1-2.4,2.4-2.4c1.3,0,2.4,1.1,2.4,2.4C194.5,200.9,193.4,202,192.1,202z M196.5,196.1
			c-1.7,1.8-4.3-0.9-2.7-2.7c16.6-17.6,25.7-40.5,25.9-64.7c0-2.4,3.8-2.4,3.8,0C223.3,153.9,213.8,177.8,196.5,196.1z"/>
	</g>
</g>
</svg>
