<?xml version="1.0" encoding="utf-8"?>
<!-- Generator: Adobe Illustrator 23.0.3, SVG Export Plug-In . SVG Version: 6.00 Build 0)  -->
<svg version="1.1" xmlns="http://www.w3.org/2000/svg" xmlns:xlink="http://www.w3.org/1999/xlink" x="0px" y="0px"
	 viewBox="0 0 256 256" style="enable-background:new 0 0 256 256;" xml:space="preserve">
<style type="text/css">
	.st0{display:none;}
	.st1{display:inline;}
</style>
<g id="SOURCE" class="st0">
	<g class="st1">
		<g>
			<path d="M119,98.5c-19.3,0-38.5,0-57.8,0c0.6,0.6,1.3,1.3,1.9,1.9c0-5.6,0-11.2,0-16.8c0-1.6-2-2.5-3.2-1.3
				c-9.8,9.8-19.5,19.5-29.3,29.3c-0.7,0.7-0.7,1.9,0,2.7c9.8,9.8,19.5,19.5,29.3,29.3c1.2,1.2,3.2,0.3,3.2-1.3c0-5.1,0-10.2,0-15.3
				c-0.6,0.6-1.3,1.3-1.9,1.9c19.3,0,38.5,0,57.8,0c1,0,1.9-0.9,1.9-1.9c0-8.8,0-17.7,0-26.5c0-2.4-3.8-2.4-3.8,0
				c0,8.8,0,17.7,0,26.5c0.6-0.6,1.3-1.3,1.9-1.9c-19.3,0-38.5,0-57.8,0c-1,0-1.9,0.9-1.9,1.9c0,5.1,0,10.2,0,15.3
				c1.1-0.4,2.1-0.9,3.2-1.3c-9.8-9.8-19.5-19.5-29.3-29.3c0,0.9,0,1.8,0,2.7C43,104.5,52.8,94.7,62.5,85c-1.1-0.4-2.1-0.9-3.2-1.3
				c0,5.6,0,11.2,0,16.8c0,1,0.9,1.9,1.9,1.9c19.3,0,38.5,0,57.8,0C121.4,102.3,121.4,98.5,119,98.5z"/>
		</g>
	</g>
	<g class="st1">
		<g>
			<path d="M33.9,169.3c19.3,0,38.5,0,57.8,0c1,0,1.9-0.9,1.9-1.9c0-5.6,0-11.2,0-16.8c-1.1,0.4-2.1,0.9-3.2,1.3
				c9.8,9.8,19.5,19.5,29.3,29.3c0-0.9,0-1.8,0-2.7c-9.8,9.8-19.5,19.5-29.3,29.3c1.1,0.4,2.1,0.9,3.2,1.3c0-5.1,0-10.2,0-15.3
				c0-1-0.9-1.9-1.9-1.9c-19.3,0-38.5,0-57.8,0c0.6,0.6,1.3,1.3,1.9,1.9c0-8.8,0-17.7,0-26.5c0-2.4-3.8-2.4-3.8,0
				c0,8.8,0,17.7,0,26.5c0,1,0.9,1.9,1.9,1.9c19.3,0,38.5,0,57.8,0c-0.6-0.6-1.3-1.3-1.9-1.9c0,5.1,0,10.2,0,15.3
				c0,1.6,2,2.5,3.2,1.3c9.8-9.8,19.5-19.5,29.3-29.3c0.7-0.7,0.7-1.9,0-2.7c-9.8-9.8-19.5-19.5-29.3-29.3c-1.2-1.2-3.2-0.3-3.2,1.3
				c0,5.6,0,11.2,0,16.8c0.6-0.6,1.3-1.3,1.9-1.9c-19.3,0-38.5,0-57.8,0C31.5,165.5,31.5,169.3,33.9,169.3z"/>
		</g>
	</g>
	<g class="st1">
		<g>
			<path d="M179.5,228.5c-36.1,0-72.1,0-108.2,0c0.6,0.6,1.3,1.3,1.9,1.9c0-11.9,0-23.8,0-35.7c0-2.4-3.8-2.4-3.8,0
				c0,11.9,0,23.8,0,35.7c0,1,0.9,1.9,1.9,1.9c36.1,0,72.1,0,108.2,0C181.9,232.3,181.9,228.5,179.5,228.5L179.5,228.5z"/>
		</g>
	</g>
	<g class="st1">
		<g>
			<path d="M73.2,99.8c0-21.8,0-43.6,0-65.4c-0.6,0.6-1.3,1.3-1.9,1.9c24.7,0,49.3,0,74,0c6,0,11.9,0,17.9,0c1.6,0,3.2,0,4.8,0
				c2.2,0,0.9,0.1,0.5-0.3c8.5,8.3,17,16.6,25.5,24.9c-1-0.9-0.5-1.6-0.5,0.1c0,1.4,0,2.9,0,4.3c0,2.2,0,4.5,0,6.7
				c0,2.4,3.8,2.4,3.8,0c0-2.9,0-5.8,0-8.7c0-1.6,0.5-4.1-0.8-5.4c-4.4-4.3-8.9-8.7-13.3-13c-4-3.9-8.1-7.9-12.1-11.8
				c-1.3-1.3-5.1-0.6-6.7-0.6c-28.1,0-56.2,0-84.3,0c-2.9,0-5.7,0-8.6,0c-1,0-1.9,0.9-1.9,1.9c0,21.8,0,43.6,0,65.4
				C69.4,102.2,73.2,102.2,73.2,99.8L73.2,99.8z"/>
		</g>
	</g>
	<g class="st1">
		<g>
			<path d="M73.2,166.6c0-13.1,0-26.2,0-39.3c0-2.4-3.8-2.4-3.8,0c0,13.1,0,26.2,0,39.3C69.4,169,73.2,169,73.2,166.6L73.2,166.6z"
				/>
		</g>
	</g>
	<g class="st1">
		<g>
			<path d="M194.7,57.5c-8.4,0-16.7,0-25.1,0c0.6,0.6,1.3,1.3,1.9,1.9c0-8.2,0-16.3,0-24.5c-1.1,0.4-2.1,0.9-3.2,1.3
				c8.4,8.2,16.7,16.3,25.1,24.5c1.7,1.7,4.4-1,2.7-2.7c-8.4-8.2-16.7-16.3-25.1-24.5c-1.2-1.1-3.2-0.3-3.2,1.3c0,8.2,0,16.3,0,24.5
				c0,1,0.9,1.9,1.9,1.9c8.4,0,16.7,0,25.1,0C197.1,61.3,197.1,57.5,194.7,57.5z"/>
		</g>
	</g>
	<g class="st1">
		<g>
			<g>
				<path d="M144.9,131.7c-2.9,4.3-5.7,8.6-8.6,12.9c-0.8,1.3,0.6,3.4,2.1,2.8c17.6-7.4,35.3-14.8,52.9-22.2c-1.2,0.5-0.5,0.2,1,0.8
					c1.9,0.8,3.9,1.6,5.8,2.5c6.1,2.6,12.2,5.1,18.2,7.7c9,3.8,17.9,7.5,26.9,11.3c1.5,0.6,3-1.5,2.1-2.8
					c-17.6-26.6-35.3-53.2-52.9-79.8c-0.8-1.2-2.4-1.2-3.2,0C174.5,87.1,159.7,109.4,144.9,131.7c-1.3,2,1.9,3.9,3.2,1.9
					c14.8-22.3,29.6-44.6,44.4-66.8c-1.1,0-2.2,0-3.2,0c17.6,26.6,35.3,53.2,52.9,79.8c0.7-0.9,1.4-1.8,2.1-2.8
					c-9-3.8-17.9-7.5-26.9-11.3c-6.1-2.6-12.2-5.1-18.2-7.7c-2.2-0.9-5.7-3.3-8.3-3.3c-2.5,0-6,2.4-8.3,3.3
					c-6.1,2.6-12.2,5.1-18.2,7.7c-9,3.8-17.9,7.5-26.9,11.3c0.7,0.9,1.4,1.8,2.1,2.8c2.9-4.3,5.7-8.6,8.6-12.9
					C149.5,131.6,146.3,129.7,144.9,131.7z"/>
			</g>
		</g>
		<g>
			<g>
				<path d="M221.7,203c7.9-11.9,15.8-23.9,23.8-35.8c1-1.6-1-3.5-2.6-2.6c-17.6,11.1-35.3,22.2-52.9,33.3c1.1-0.7,2.5,0.4,1.4-0.3
					c-0.5-0.3-1-0.7-1.6-1c-2-1.2-4-2.5-6-3.7c-6.2-3.9-12.3-7.8-18.5-11.6c-8.8-5.5-17.6-11.1-26.5-16.7c-1.6-1-3.6,1-2.6,2.6
					c17.6,26.6,35.3,53.2,52.9,79.8c0.8,1.2,2.4,1.2,3.2,0C202.3,232.3,212,217.7,221.7,203c1.3-2-1.9-3.9-3.2-1.9
					c-9.7,14.6-19.4,29.3-29.2,43.9c1.1,0,2.2,0,3.2,0c-17.6-26.6-35.3-53.2-52.9-79.8c-0.9,0.9-1.7,1.7-2.6,2.6
					c17.6,11.1,35.3,22.2,52.9,33.3c0.5,0.3,1.3,0.3,1.9,0c17.6-11.1,35.3-22.2,52.9-33.3c-0.9-0.9-1.7-1.7-2.6-2.6
					c-7.9,11.9-15.8,23.9-23.8,35.8C217.1,203.1,220.4,205,221.7,203z"/>
			</g>
		</g>
		<g>
			<g>
				<path d="M192.1,187c-17.4-10.7-34.8-21.5-52.2-32.2c0,1.1,0,2.2,0,3.2c8.7-3.8,17.4-7.6,26.1-11.5c5.9-2.6,11.7-5.2,17.6-7.7
					c2.1-0.9,4.1-1.8,6.2-2.7c0.5-0.2,1.1-0.5,1.6-0.7c1.4-0.6,0.1,0.2-1.1-0.3c17.5,7.6,35,15.3,52.5,22.9c0-1.1,0-2.2,0-3.2
					c-17.5,10.7-35.1,21.5-52.6,32.2c-2.1,1.3-0.2,4.5,1.9,3.2c17.5-10.7,35.1-21.5,52.6-32.2c1.1-0.7,1.4-2.6,0-3.2
					c-8.9-3.9-17.8-7.8-26.7-11.7c-6-2.6-12.1-5.3-18.1-7.9c-2.6-1.1-5.4-2.8-8.2-3.6c-2.1-0.6-6.3,2.3-8,3.1
					c-5.9,2.6-11.9,5.2-17.8,7.8c-9.3,4.1-18.6,8.2-28,12.3c-1.4,0.6-1.1,2.6,0,3.2c17.4,10.7,34.8,21.5,52.2,32.2
					C192.3,191.5,194.2,188.2,192.1,187z"/>
			</g>
		</g>
	</g>
</g>
<g id="Line_Expand">
	<g>
		<path d="M155.2,122.9c3.5-5.2,6.9-10.5,10.4-15.7c1.3-2-1.9-3.9-3.2-1.9c-3.5,5.2-6.9,10.5-10.4,15.7
			C150.7,123.1,153.9,124.9,155.2,122.9z"/>
		<path d="M242.9,164.6c-17.3,10.9-34.7,21.8-52,32.7c-0.4-0.2-0.7-0.4-1.1-0.7c-2-1.2-4-2.5-6-3.7c-6.2-3.9-12.3-7.8-18.5-11.6
			c-8.8-5.5-17.6-11.1-26.5-16.7c-1.6-1-3.6,1-2.6,2.6c13.6,20.4,27.1,40.9,40.7,61.3c-34.6,0-69.3,0-103.9,0c0-10.9,0-21.8,0-32.8
			c5.5,0,11.1,0,16.6,0c0,4.5,0,8.9,0,13.4c0,1.6,2,2.5,3.2,1.3c9.8-9.8,19.5-19.5,29.3-29.3c0.7-0.7,0.7-1.9,0-2.7
			c-9.8-9.8-19.5-19.5-29.3-29.3c-1.2-1.2-3.2-0.3-3.2,1.3c0,5,0,9.9,0,14.9c-5.5,0-11.1,0-16.6,0c0-12.3,0-24.5,0-36.8
			c15.3,0,30.6,0,45.8,0c1,0,1.9-0.9,1.9-1.9c0-8.8,0-17.7,0-26.5c0-0.6-0.2-1-0.5-1.3c0,0,0,0-0.1-0.1c0,0,0,0,0,0
			c-0.3-0.3-0.7-0.5-1.3-0.5c-15.3,0-30.5,0-45.8,0c0-20.7,0-41.5,0-62.2c24,0,48.1,0,72.1,0c6,0,11.9,0,17.9,0c1.5,0,3,0,4.6,0
			c0,7.7,0,15.4,0,23.1c0,1,0.9,1.9,1.9,1.9c7.9,0,15.9,0,23.8,0c0,1.3,0,2.7,0,4c0,0.3,0,0.6,0,0.9c-0.3-0.4-0.6-0.9-0.9-1.3
			c-0.8-1.2-2.4-1.2-3.2,0c-7,10.5-14,21-20.9,31.6c-1.3,2,1.9,3.9,3.2,1.9c6.4-9.7,12.9-19.4,19.3-29.1c16,24.1,32,48.2,48,72.3
			c-7.1-3-14.3-6-21.4-9c-6.1-2.6-12.2-5.1-18.2-7.7c-2.2-0.9-5.7-3.3-8.3-3.3c-2.5,0-6,2.4-8.3,3.3c-6.1,2.6-12.2,5.1-18.2,7.7
			c-7.1,3-14.3,6-21.4,9c1.7-2.6,3.5-5.2,5.2-7.9c1.3-2-1.9-3.9-3.2-1.9c-2.9,4.3-5.7,8.6-8.6,12.9c-0.8,1.3,0.6,3.4,2.1,2.8
			c17.6-7.4,35.3-14.8,52.9-22.2c-1.2,0.5-0.5,0.2,1,0.8c1.9,0.8,3.9,1.6,5.8,2.5c6.1,2.6,12.2,5.1,18.2,7.7
			c9,3.8,17.9,7.5,26.9,11.3c1.5,0.6,3-1.5,2.1-2.8c-16.1-24.3-32.2-48.5-48.3-72.8c0-2.8,0-5.6,0-8.5c0-1.6,0.5-4.1-0.8-5.4
			c-4.4-4.3-8.9-8.7-13.3-13c-4-3.9-8.1-7.9-12.1-11.8c-1.3-1.3-5.1-0.6-6.7-0.6c-28.1,0-56.2,0-84.3,0c-2.9,0-5.7,0-8.6,0
			c-1,0-1.9,0.9-1.9,1.9c0,21.4,0,42.7,0,64.1c-2.1,0-4.2,0-6.3,0c0-5,0-9.9,0-14.9c0-1.6-2-2.5-3.2-1.3
			c-9.8,9.8-19.5,19.5-29.3,29.3c-0.7,0.7-0.7,1.9,0,2.7c9.8,9.8,19.5,19.5,29.3,29.3c1.2,1.2,3.2,0.3,3.2-1.3c0-4.5,0-8.9,0-13.4
			c2.1,0,4.2,0,6.3,0c0,12.3,0,24.5,0,36.8c-11.8,0-23.7,0-35.5,0c-0.6,0-1,0.2-1.3,0.5c0,0,0,0,0,0c0,0,0,0-0.1,0.1
			c-0.3,0.3-0.5,0.7-0.5,1.3c0,8.8,0,17.7,0,26.5c0,1,0.9,1.9,1.9,1.9c11.8,0,23.7,0,35.5,0c0,11.5,0,23.1,0,34.6
			c0,1,0.9,1.9,1.9,1.9c36.1,0,72.1,0,108.2,0c0,0,0,0,0.1,0c3.3,4.9,6.5,9.8,9.8,14.7c0.8,1.2,2.4,1.2,3.2,0c2-3.1,4.1-6.1,6.1-9.2
			c1.3-2-1.9-3.9-3.2-1.9c-1.5,2.2-3,4.5-4.5,6.7c-15.5-23.4-31-46.8-46.5-70.1c15.2,9.6,30.4,19.1,45.6,28.7c0.5,0.3,1.3,0.3,1.9,0
			c15.2-9.6,30.4-19.1,45.6-28.7c-6.3,9.5-12.7,19.1-19,28.6c-1.3,2,1.9,3.9,3.2,1.9c7.9-11.9,15.8-23.9,23.8-35.8
			C246.5,165.6,244.5,163.6,242.9,164.6z M190.1,57.5c-6.2,0-12.4,0-18.6,0c0-6,0-12.1,0-18.1C177.7,45.4,183.9,51.5,190.1,57.5z
			 M59.3,126.9c0,3.6,0,7.2,0,10.8c-8.2-8.2-16.5-16.5-24.7-24.7c8.2-8.2,16.5-16.5,24.7-24.7c0,4.1,0,8.1,0,12.2
			c0,1,0.9,1.9,1.9,1.9c18.6,0,37.3,0,55.9,0c0,7.6,0,15.2,0,22.8c-18.6,0-37.3,0-55.9,0C60.2,125,59.3,125.9,59.3,126.9z
			 M35.8,169.3c18.6,0,37.3,0,55.9,0c1,0,1.9-0.9,1.9-1.9c0-4.1,0-8.1,0-12.2c8.2,8.2,16.5,16.5,24.7,24.7
			c-8.2,8.2-16.5,16.5-24.7,24.7c0-3.6,0-7.2,0-10.8c0-1-0.9-1.9-1.9-1.9c-18.6,0-37.3,0-55.9,0C35.8,184.4,35.8,176.8,35.8,169.3z"
			/>
		<path d="M212.5,210.1c-2.6,4-5.3,8-7.9,12c-1.3,2,1.9,3.9,3.2,1.9c2.6-4,5.3-8,7.9-12C217.1,210,213.8,208.1,212.5,210.1z"/>
		<path d="M218.1,143.1c-6-2.6-12.1-5.3-18.1-7.9c-2.6-1.1-5.4-2.8-8.2-3.6c-2.1-0.6-6.3,2.3-8,3.1c-5.9,2.6-11.9,5.2-17.8,7.8
			c-9.3,4.1-18.6,8.2-28,12.3c-1.4,0.6-1.1,2.6,0,3.2c17.4,10.7,34.8,21.5,52.2,32.2c0,0,0.1,0,0.1,0.1c0,0,0.1,0,0.1,0.1
			c0.1,0,0.1,0.1,0.2,0.1c0.1,0,0.1,0,0.2,0.1c0,0,0.1,0,0.1,0h0c0.3,0,0.5,0,0.7-0.1c0,0,0,0,0,0c0.1,0,0.2-0.1,0.3-0.1
			c0,0,0.1,0,0.1,0c17.5-10.7,35.1-21.5,52.6-32.2c1.1-0.7,1.4-2.6,0-3.2C235.9,150.9,227,147,218.1,143.1z M191.9,135.2
			C192.2,135.1,192.1,135.2,191.9,135.2L191.9,135.2z M166.1,146.6c5.9-2.6,11.7-5.2,17.6-7.7c2.1-0.9,4.1-1.8,6.2-2.7
			c0.5-0.2,0.9-0.4,1.4-0.6c16.2,7.1,32.4,14.1,48.5,21.2c-16.2,9.9-32.4,19.8-48.6,29.7c-16.1-9.9-32.1-19.8-48.2-29.7
			C150.7,153.3,158.4,149.9,166.1,146.6z"/>
	</g>
</g>
<g id="Glyph" class="st0">
	<path class="st1" d="M239.8,156.7c-16.2,9.9-32.4,19.8-48.6,29.7c-16.1-9.9-32.1-19.8-48.2-29.7c7.7-3.4,15.4-6.7,23.1-10.1
		c5.9-2.6,11.7-5.2,17.6-7.7c2.1-0.9,4.1-1.8,6.2-2.7c0.2-0.1,0.4-0.2,0.5-0.2c0.5,0.1,1,0,1.4-0.2
		C207.8,142.7,223.8,149.7,239.8,156.7z M199.2,124.7c-2.2-0.9-5.7-3.3-8.3-3.3c-2.5,0-6,2.4-8.3,3.3c-6.1,2.6-12.2,5.1-18.2,7.7
		c-7.1,3-14.3,6-21.4,9c1.7-2.6,3.5-5.2,5.2-7.9c14.2-21.5,28.5-42.9,42.7-64.4c16,24.1,32,48.2,48,72.3c-7.1-3-14.3-6-21.4-9
		C211.3,129.9,205.3,127.3,199.2,124.7z M171.5,39.4c6.2,6,12.4,12.1,18.6,18.1c-6.2,0-12.4,0-18.6,0
		C171.5,51.5,171.5,45.4,171.5,39.4z M117.1,125c-18.6,0-37.3,0-55.9,0c-1,0-1.9,0.9-1.9,1.9c0,3.6,0,7.2,0,10.8
		c-8.2-8.2-16.5-16.5-24.7-24.7c8.2-8.2,16.5-16.5,24.7-24.7c0,4.1,0,8.1,0,12.2c0,1,0.9,1.9,1.9,1.9c18.6,0,37.3,0,55.9,0
		C117.1,109.8,117.1,117.4,117.1,125z M91.7,169.3c1,0,1.9-0.9,1.9-1.9c0-4.1,0-8.1,0-12.2c8.2,8.2,16.5,16.5,24.7,24.7
		c-8.2,8.2-16.5,16.5-24.7,24.7c0-3.6,0-7.2,0-10.8c0-1-0.9-1.9-1.9-1.9c-18.6,0-37.3,0-55.9,0c0-7.6,0-15.2,0-22.8
		C54.4,169.3,73.1,169.3,91.7,169.3z M73.2,228.5c0-10.9,0-21.8,0-32.8c5.5,0,11.1,0,16.6,0c0,4.5,0,8.9,0,13.4c0,1.6,2,2.5,3.2,1.3
		c9.8-9.8,19.5-19.5,29.3-29.3c0.7-0.7,0.7-1.9,0-2.7c-9.8-9.8-19.5-19.5-29.3-29.3c-1.2-1.2-3.2-0.3-3.2,1.3c0,5,0,9.9,0,14.9
		c-5.5,0-11.1,0-16.6,0c0-12.3,0-24.5,0-36.8c15.3,0,30.6,0,45.8,0c1,0,1.9-0.9,1.9-1.9c0-8.8,0-17.7,0-26.5c0-0.6-0.2-1-0.5-1.3
		c0,0,0,0-0.1-0.1c0,0,0,0,0,0c-0.3-0.3-0.7-0.5-1.3-0.5c-15.3,0-30.5,0-45.8,0c0-20.7,0-41.5,0-62.2c24,0,48.1,0,72.1,0
		c6,0,11.9,0,17.9,0c1.5,0,3,0,4.6,0c0,7.7,0,15.4,0,23.1c0,1,0.9,1.9,1.9,1.9c7.9,0,15.9,0,23.8,0c0,1.3,0,2.7,0,4
		c0,0.3,0,0.6,0,0.9c-0.3-0.4-0.6-0.9-0.9-1.3c-0.8-1.2-2.4-1.2-3.2,0c-14.8,22.3-29.6,44.6-44.4,66.8c-2.9,4.3-5.7,8.6-8.6,12.9
		c-0.8,1.3,0.6,3.4,2.1,2.8c16.8-7.1,33.7-14.2,50.5-21.2c0,2,0,4,0,6c-1.9,0.8-4.1,2.1-5.2,2.6c-5.9,2.6-11.9,5.2-17.8,7.8
		c-9.3,4.1-18.6,8.2-28,12.3c-1.4,0.6-1.1,2.6,0,3.2c17,10.5,34,20.9,50.9,31.4c0,2.2,0,4.5,0,6.7c-1.7-1.1-3.4-2.1-5.1-3.2
		c-6.2-3.9-12.3-7.8-18.5-11.6c-8.8-5.5-17.6-11.1-26.5-16.7c-1.6-1-3.6,1-2.6,2.6c13.6,20.4,27.1,40.9,40.7,61.3
		C142.4,228.5,107.8,228.5,73.2,228.5z M144.4,172.5c15.2,9.6,30.4,19.1,45.6,28.7c0.5,0.3,1.3,0.3,1.9,0
		c15.2-9.6,30.4-19.1,45.6-28.7c-6.3,9.5-12.7,19.1-19,28.6c-9.2,13.8-18.4,27.7-27.5,41.5C175.4,219.2,159.9,195.9,144.4,172.5z"/>
</g>
</svg>
