<?xml version="1.0" encoding="utf-8"?>
<!-- Generator: Adobe Illustrator 23.0.3, SVG Export Plug-In . SVG Version: 6.00 Build 0)  -->
<svg version="1.1" xmlns="http://www.w3.org/2000/svg" xmlns:xlink="http://www.w3.org/1999/xlink" x="0px" y="0px"
	 viewBox="0 0 256 256" style="enable-background:new 0 0 256 256;" xml:space="preserve">
<style type="text/css">
	.st0{display:none;}
	.st1{display:inline;}
</style>
<g id="SOURCE" class="st0">
	<g class="st1">
		<g>
			<path d="M220.6,127c-0.2,24.2-9.3,47.1-25.9,64.7c-1.7,1.8,1,4.4,2.7,2.7c17.2-18.4,26.8-42.2,27-67.4
				C224.4,124.6,220.6,124.6,220.6,127L220.6,127z"/>
		</g>
	</g>
	<circle class="st1" cx="192.9" cy="197.9" r="2.4"/>
	<g class="st1">
		<g>
			<g>
				<path d="M99.4,81.3c-8.7,13.1-17.4,26.2-26.1,39.3c-0.8,1.3,0.6,3.4,2.1,2.8c17.6-7.4,35.3-14.8,52.9-22.2
					c-1.2,0.5-0.5,0.2,1,0.8c1.9,0.8,3.9,1.6,5.8,2.4c6.1,2.6,12.2,5.1,18.2,7.7c9,3.8,17.9,7.5,26.9,11.3c1.5,0.6,3-1.5,2.1-2.8
					c-17.6-26.6-35.3-53.2-52.9-79.8c-0.8-1.2-2.4-1.2-3.2,0C117.3,54.3,108.4,67.8,99.4,81.3c-1.3,2,1.9,3.9,3.2,1.9
					c9-13.5,17.9-27,26.9-40.5c-1.1,0-2.2,0-3.2,0c17.6,26.6,35.3,53.2,52.9,79.8c0.7-0.9,1.4-1.8,2.1-2.8
					c-9-3.8-17.9-7.5-26.9-11.3c-6.1-2.6-12.2-5.1-18.2-7.7c-2.2-0.9-5.7-3.3-8.3-3.3c-2.5,0-6,2.4-8.3,3.3
					c-6.1,2.6-12.2,5.1-18.2,7.7c-9,3.8-17.9,7.5-26.9,11.3c0.7,0.9,1.4,1.8,2.1,2.8c8.7-13.1,17.4-26.2,26.1-39.3
					C104,81.2,100.8,79.3,99.4,81.3z"/>
			</g>
		</g>
		<g>
			<g>
				<path d="M158.7,179c7.9-11.9,15.8-23.9,23.8-35.8c1-1.6-1-3.5-2.6-2.6c-17.6,11.1-35.3,22.2-52.9,33.3c1.1-0.7,2.5,0.4,1.4-0.3
					c-0.5-0.3-1-0.7-1.6-1c-2-1.2-4-2.5-6-3.7c-6.2-3.9-12.3-7.8-18.5-11.6c-8.8-5.6-17.6-11.1-26.5-16.7c-1.6-1-3.6,1-2.6,2.6
					c17.6,26.6,35.3,53.2,52.9,79.8c0.8,1.2,2.4,1.2,3.2,0C139.3,208.3,149,193.7,158.7,179c1.3-2-1.9-3.9-3.2-1.9
					c-9.7,14.6-19.4,29.3-29.2,43.9c1.1,0,2.2,0,3.2,0c-17.6-26.6-35.3-53.2-52.9-79.8c-0.9,0.9-1.7,1.7-2.6,2.6
					c17.6,11.1,35.3,22.2,52.9,33.3c0.5,0.3,1.3,0.3,1.9,0c17.6-11.1,35.3-22.2,52.9-33.3c-0.9-0.9-1.7-1.7-2.6-2.6
					c-7.9,11.9-15.8,23.9-23.8,35.8C154.1,179.1,157.4,181,158.7,179z"/>
			</g>
		</g>
		<g>
			<g>
				<path d="M129.1,163c-17.4-10.7-34.8-21.5-52.2-32.2c0,1.1,0,2.2,0,3.2c8.7-3.8,17.4-7.6,26.1-11.5c5.9-2.6,11.7-5.2,17.6-7.7
					c2.1-0.9,4.1-1.8,6.2-2.7c0.5-0.2,1.1-0.5,1.6-0.7c1.4-0.6,0.1,0.2-1.1-0.3c17.5,7.6,35,15.3,52.5,22.9c0-1.1,0-2.2,0-3.2
					c-17.5,10.7-35.1,21.5-52.6,32.2c-2.1,1.3-0.2,4.5,1.9,3.2c17.5-10.7,35.1-21.5,52.6-32.2c1.1-0.7,1.4-2.6,0-3.2
					c-8.9-3.9-17.8-7.8-26.7-11.7c-6-2.6-12.1-5.3-18.1-7.9c-2.6-1.1-5.4-2.8-8.2-3.6c-2.1-0.6-6.3,2.3-8,3.1
					c-5.9,2.6-11.9,5.2-17.8,7.8c-9.3,4.1-18.6,8.2-28,12.3c-1.4,0.6-1.1,2.6,0,3.2c17.4,10.7,34.8,21.5,52.2,32.2
					C129.3,167.5,131.2,164.2,129.1,163z"/>
			</g>
		</g>
	</g>
	<g class="st1">
		<g>
			<path d="M235.6,128.5c-0.3,46.9-31,88.7-75.8,102.8c-45.1,14.2-95-4.1-121.3-43C12,149.2,15.3,95.9,45.3,59.6
				c30.1-36.4,82-48.4,125.3-30C209.9,46.4,235.3,86,235.6,128.5c0,2.4,3.8,2.4,3.8,0c-0.3-44.1-26.5-84.3-66.9-102.1
				C131.9,8.5,83.8,17.5,51.6,47.5C19,77.8,8.3,126.1,23.7,167.6c15.1,40.9,54.1,69,97.3,72c30.6,2.1,61-9.3,83.4-30.1
				c22.4-20.8,34.8-50.6,35-81C239.4,126.1,235.6,126.1,235.6,128.5z"/>
		</g>
	</g>
</g>
<g id="Line_Expand">
	<g>
		<path d="M230.3,94.3c0.8,2.3,4.4,1.3,3.6-1c-3.3-9.8-7.8-19-13.5-27.6c-1.3-2-4.6-0.1-3.2,1.9C222.7,76,227,84.8,230.3,94.3z"/>
		<path d="M90.1,232.8c41.7,15.4,89.7,3,119.8-29.3c19-20.4,29.3-47.7,29.5-75.5c0-2.4-3.7-2.4-3.8,0c-0.3,46.9-31,88.7-75.8,102.8
			c-45.1,14.2-95-4.1-121.3-43C12,148.7,15.3,95.3,45.3,59.1c32-38.7,88-49.4,132.4-26.6c10.4,5.3,19.8,12.6,27.9,20.9
			c1.7,1.7,4.3-0.9,2.7-2.7c-34.3-35.2-88.2-44-131.9-21.5C37.1,49.5,13.9,92.6,16.9,136.4C19.9,179.8,49.5,217.7,90.1,232.8z"/>
		<path d="M197.4,194.4c17.2-18.4,26.8-42.2,27-67.4c0-2.4-3.7-2.4-3.8,0c-0.2,24.2-9.3,47.1-25.9,64.7
			C193.1,193.5,195.7,196.1,197.4,194.4z"/>
		<circle cx="192.9" cy="197.9" r="2.4"/>
		<path d="M81.9,107.7c-2.9,4.3-5.7,8.6-8.6,12.9c-0.8,1.3,0.6,3.4,2.1,2.8c17.6-7.4,35.3-14.8,52.9-22.2c-1.2,0.5-0.5,0.2,1,0.8
			c1.9,0.8,3.9,1.6,5.8,2.4c6.1,2.6,12.2,5.1,18.2,7.7c9,3.8,17.9,7.5,26.9,11.3c1.5,0.6,3-1.5,2.1-2.8
			c-17.6-26.6-35.3-53.2-52.9-79.8c-0.8-1.2-2.4-1.2-3.2,0c-7,10.5-14,21-20.9,31.6c-1.3,2,1.9,3.9,3.2,1.9
			c6.4-9.7,12.9-19.4,19.3-29.1c16,24.1,32,48.2,48,72.3c-7.1-3-14.3-6-21.4-9c-6.1-2.6-12.2-5.1-18.2-7.7c-2.2-0.9-5.7-3.3-8.3-3.3
			c-2.5,0-6,2.4-8.3,3.3c-6.1,2.6-12.2,5.1-18.2,7.7c-7.1,3-14.3,6-21.4,9c1.7-2.6,3.5-5.2,5.2-7.9
			C86.5,107.6,83.3,105.7,81.9,107.7z"/>
		<path d="M92.2,98.9c3.5-5.2,6.9-10.5,10.4-15.7c1.3-2-1.9-3.9-3.2-1.9C96,86.6,92.5,91.8,89,97C87.7,99.1,90.9,100.9,92.2,98.9z"
			/>
		<path d="M158.7,179c7.9-11.9,15.8-23.9,23.8-35.8c1-1.6-1-3.5-2.6-2.6c-17.3,10.9-34.7,21.8-52,32.7c-0.4-0.2-0.7-0.4-1.1-0.7
			c-2-1.2-4-2.5-6-3.7c-6.2-3.9-12.3-7.8-18.5-11.6c-8.8-5.6-17.6-11.1-26.5-16.7c-1.6-1-3.6,1-2.6,2.6
			c17.6,26.6,35.3,53.2,52.9,79.8c0.8,1.2,2.4,1.2,3.2,0c2-3.1,4.1-6.1,6.1-9.2c1.3-2-1.9-3.9-3.2-1.9c-1.5,2.2-3,4.5-4.5,6.7
			c-15.5-23.4-31-46.8-46.5-70.1c15.2,9.6,30.4,19.1,45.6,28.7c0.5,0.3,1.3,0.3,1.9,0c15.2-9.6,30.4-19.1,45.6-28.7
			c-6.3,9.5-12.7,19.1-19,28.6C154.1,179.1,157.4,181,158.7,179z"/>
		<path d="M149.5,186.1c-2.6,4-5.3,8-7.9,12c-1.3,2,1.9,3.9,3.2,1.9c2.6-4,5.3-8,7.9-12C154.1,186,150.8,184.1,149.5,186.1z"/>
		<path d="M155.1,119.1c-6-2.6-12.1-5.3-18.1-7.9c-2.6-1.1-5.4-2.8-8.2-3.6c-2.1-0.6-6.3,2.3-8,3.1c-5.9,2.6-11.9,5.2-17.8,7.8
			c-9.3,4.1-18.6,8.2-28,12.3c-1.4,0.6-1.1,2.6,0,3.2c17.4,10.7,34.8,21.5,52.2,32.2c0,0,0.1,0,0.1,0.1c0,0,0.1,0,0.1,0.1
			c0.1,0,0.1,0.1,0.2,0.1c0.1,0,0.2,0,0.2,0.1c0,0,0.1,0,0.1,0c0,0,0,0,0,0c0.3,0,0.5,0,0.7-0.1c0,0,0,0,0,0c0.1,0,0.2-0.1,0.3-0.1
			c0,0,0.1,0,0.1,0c17.5-10.7,35.1-21.5,52.6-32.2c1.1-0.7,1.4-2.6,0-3.2C172.9,126.9,164,123,155.1,119.1z M128.9,111.2
			C129.2,111.1,129.1,111.2,128.9,111.2L128.9,111.2z M103.1,122.6c5.9-2.6,11.7-5.2,17.6-7.7c2.1-0.9,4.1-1.8,6.2-2.7
			c0.5-0.2,0.9-0.4,1.4-0.6c16.2,7.1,32.4,14.1,48.5,21.2c-16.2,9.9-32.4,19.8-48.6,29.7c-16.1-9.9-32.1-19.8-48.2-29.7
			C87.7,129.3,95.4,125.9,103.1,122.6z"/>
	</g>
</g>
<g id="Glyph" class="st0">
	<g class="st1">
		<path d="M126.2,18C65.7,18,16.7,67,16.7,127.5S65.7,237,126.2,237s109.5-49,109.5-109.5S186.6,18,126.2,18z M157.1,178.1l-6,9
			l-7.9,12l-9.2,13.8l-6.1,9.2L75,142.2l52.9,33.3l52.9-33.3L157.1,178.1z M128.2,164.6L76,132.4l52.3-22.9l52.6,22.9L128.2,164.6z
			 M127.9,99.3L75,121.5l8.6-12.9L90.6,98l10.4-15.7l5.9-8.9l20.9-31.6l52.9,79.8L127.9,99.3z M192.9,200.3c-1.3,0-2.4-1.1-2.4-2.4
			c0-1.3,1.1-2.4,2.4-2.4c1.3,0,2.4,1.1,2.4,2.4C195.3,199.2,194.2,200.3,192.9,200.3z M197.4,194.4c-1.7,1.8-4.3-0.9-2.7-2.7
			c16.6-17.6,25.7-40.5,25.9-64.7c0-2.4,3.8-2.4,3.8,0C224.2,152.2,214.6,176,197.4,194.4z"/>
	</g>
</g>
</svg>
