<?xml version="1.0" encoding="utf-8"?>
<!-- Generator: Adobe Illustrator 23.0.3, SVG Export Plug-In . SVG Version: 6.00 Build 0)  -->
<svg version="1.1" xmlns="http://www.w3.org/2000/svg" xmlns:xlink="http://www.w3.org/1999/xlink" x="0px" y="0px"
	 viewBox="0 0 256 256" style="enable-background:new 0 0 256 256;" xml:space="preserve">
<style type="text/css">
	.st0{display:none;}
	.st1{display:inline;}
</style>
<g id="SOURCE" class="st0">
	<g class="st1">
		<g>
			<g>
				<path d="M140.7,101c15.8,15.3,45.4,14.9,58.2-4.1c1.4-2-1.9-3.9-3.2-1.9c-11.5,16.9-38.3,16.8-52.3,3.3
					C141.6,96.7,138.9,99.3,140.7,101L140.7,101z"/>
			</g>
		</g>
		<g>
			<g>
				<path d="M178.2,140c2.4-10.3-1-21.6-6.7-30.1c-1.3-2-4.6-0.1-3.2,1.9c5.2,7.7,8.6,17.9,6.4,27.2
					C174.1,141.4,177.7,142.4,178.2,140L178.2,140z"/>
			</g>
		</g>
		<g>
			<g>
				<g>
					<path d="M145.3,86.2c-0.3,11-8.7,19.3-19.6,19.6c-10.9,0.3-19.3-9.2-19.6-19.6c-0.3-10.9,9.2-19.3,19.6-19.6
						C136.7,66.2,145,75.8,145.3,86.2c0.1,2.4,3.8,2.4,3.8,0c-0.4-13-10.4-23-23.4-23.4c-13-0.4-23,11-23.4,23.4
						c-0.4,13,11,23,23.4,23.4c13,0.4,23-11,23.4-23.4C149.2,83.8,145.4,83.8,145.3,86.2z"/>
				</g>
			</g>
			<g>
				<g>
					<path d="M192,161c-0.3,11-8.7,19.3-19.6,19.6c-10.9,0.3-19.3-9.2-19.6-19.6c-0.3-10.9,9.2-19.3,19.6-19.6
						C183.3,141,191.7,150.5,192,161c0.1,2.4,3.8,2.4,3.8,0c-0.4-13-10.4-23-23.4-23.4c-13-0.4-23,11-23.4,23.4
						c-0.4,13,11,23,23.4,23.4c13,0.4,23-11,23.4-23.4C195.8,158.6,192.1,158.6,192,161z"/>
				</g>
			</g>
			<g>
				<g>
					<path d="M237.2,89c-0.3,11-8.7,19.3-19.6,19.6c-10.9,0.3-19.3-9.2-19.6-19.6c-0.3-10.9,9.2-19.3,19.6-19.6
						C228.5,69,236.9,78.5,237.2,89c0.1,2.4,3.8,2.4,3.8,0c-0.4-13-10.4-23-23.4-23.4c-13-0.4-23,11-23.4,23.4
						c-0.4,13,11,23,23.4,23.4c13,0.4,23-11,23.4-23.4C241,86.5,237.3,86.5,237.2,89z"/>
				</g>
			</g>
		</g>
	</g>
	<g class="st1">
		<g>
			<g>
				<g>
					<path d="M136.2,163.9c7.4,11-3,21.3-12.1,26.4c-12.6,7.1-27.9,9.2-42.1,9.3c-14.3,0.1-29.4-2.5-42.1-9.3
						C29,184.5,20.6,173.7,29.2,162c1.4-2-1.8-3.8-3.2-1.9c-8.2,11.2-3.2,22.6,6.9,30.2c13.1,9.9,31.4,12.6,47.4,13
						c16.6,0.4,34.7-2.7,48.9-11.7c9.9-6.2,17.7-18.5,10.3-29.6C138.1,160.1,134.9,161.9,136.2,163.9L136.2,163.9z"/>
				</g>
			</g>
			<g>
				<g>
					<path d="M135.4,182.9c7.8,11.8-1,21.6-11.3,27.4c-12.6,7.1-27.9,9.2-42.1,9.3c-14.3,0.1-29.4-2.5-42.1-9.3
						c-10.3-5.5-18.9-15.6-11.5-27.1c1.3-2-1.9-3.9-3.2-1.9c-7.4,11.5-1.4,22.6,8.7,29.7c13.6,9.6,32,12.2,48.2,12.3
						c16.4,0.1,34.3-3.1,48.2-12.3c10.4-7,16-18.7,8.5-30C137.3,179,134.1,180.9,135.4,182.9L135.4,182.9z"/>
				</g>
			</g>
			<g>
				<g>
					<path d="M137.6,154c-0.3,9.4-8.6,15.6-16.2,19.5c-11.7,6.1-25.4,8-38.4,8.1c-12.7,0.1-25.7-2.1-37.2-7.5
						c-8.1-3.8-17.1-10.4-17.4-20.1c-0.3-9.3,9-15.8,16.2-19.5c11.7-6.1,25.4-8,38.4-8.1c12.7-0.1,25.7,2.1,37.2,7.5
						C128.3,137.6,137.3,144.3,137.6,154c0.1,2.4,3.8,2.4,3.8,0c-0.6-20.5-28.1-28.2-44.2-30.4c-21.5-3-50.3-0.4-66.3,16.3
						c-5.2,5.4-7.5,12.8-5.2,20.1c2.7,8.3,10.8,13.8,18.2,17.5c22.1,10.9,51.4,10.7,74,1.8c10.8-4.2,23.1-12.4,23.5-25.2
						C141.4,151.6,137.7,151.6,137.6,154z"/>
				</g>
			</g>
		</g>
		<g>
			<g>
				<path d="M28.5,157.5c3.6-1,7.1-2,10.7-3c2.3-0.7,1.3-4.3-1-3.6c-3.6,1-7.1,2-10.7,3C25.2,154.5,26.2,158.1,28.5,157.5
					L28.5,157.5z"/>
			</g>
		</g>
		<g>
			<g>
				<path d="M136.5,153.9c-3.6-1-7.1-2-10.7-3c-2.3-0.7-3.3,3-1,3.6c3.6,1,7.1,2,10.7,3C137.8,158.1,138.8,154.5,136.5,153.9
					L136.5,153.9z"/>
			</g>
		</g>
		<g>
			<g>
				<path d="M86.2,183.3c0-4.1,0-8.2,0-12.3c0-2.4-3.8-2.4-3.8,0c0,4.1,0,8.2,0,12.3C82.4,185.8,86.2,185.8,86.2,183.3L86.2,183.3z"
					/>
			</g>
		</g>
		<g>
			<g>
				<path d="M41.9,191.8c0-3.4,0-6.9,0-10.3c0-2.4-3.8-2.4-3.8,0c0,3.4,0,6.9,0,10.3C38.2,194.3,41.9,194.3,41.9,191.8L41.9,191.8z"
					/>
			</g>
		</g>
		<g>
			<g>
				<path d="M32.8,204.7c0-3.4,0-6.9,0-10.3c0-2.4-3.8-2.4-3.8,0c0,3.4,0,6.9,0,10.3C29,207.1,32.8,207.1,32.8,204.7L32.8,204.7z"/>
			</g>
		</g>
		<g>
			<g>
				<path d="M61.9,198.1c0-3.4,0-6.9,0-10.3c0-2.4-3.8-2.4-3.8,0c0,3.4,0,6.9,0,10.3C58.2,200.5,61.9,200.5,61.9,198.1L61.9,198.1z"
					/>
			</g>
		</g>
		<g>
			<g>
				<path d="M48.4,213.3c0-3.4,0-6.9,0-10.3c0-2.4-3.8-2.4-3.8,0c0,3.4,0,6.9,0,10.3C44.7,215.7,48.4,215.7,48.4,213.3L48.4,213.3z"
					/>
			</g>
		</g>
		<g>
			<g>
				<path d="M86.7,200.1c0-3.4,0-6.9,0-10.3c0-2.4-3.8-2.4-3.8,0c0,3.4,0,6.9,0,10.3C82.9,202.5,86.7,202.5,86.7,200.1L86.7,200.1z"
					/>
			</g>
		</g>
		<g>
			<g>
				<path d="M71.5,218.6c0-3.4,0-6.9,0-10.3c0-2.4-3.8-2.4-3.8,0c0,3.4,0,6.9,0,10.3C67.8,221,71.5,221,71.5,218.6L71.5,218.6z"/>
			</g>
		</g>
		<g>
			<g>
				<path d="M98.9,218.6c0-3.4,0-6.9,0-10.3c0-2.4-3.8-2.4-3.8,0c0,3.4,0,6.9,0,10.3C95.1,221,98.9,221,98.9,218.6L98.9,218.6z"/>
			</g>
		</g>
		<g>
			<g>
				<path d="M122.5,212.8c0-3.9,0-7.8,0-11.8c0-2.4-3.8-2.4-3.8,0c0,3.9,0,7.8,0,11.8C118.8,215.3,122.5,215.3,122.5,212.8
					L122.5,212.8z"/>
			</g>
		</g>
		<g>
			<g>
				<path d="M135.7,204.3c0-3.6,0-7.2,0-10.8c0-2.4-3.8-2.4-3.8,0c0,3.6,0,7.2,0,10.8C131.9,206.8,135.7,206.8,135.7,204.3
					L135.7,204.3z"/>
			</g>
		</g>
		<g>
			<g>
				<path d="M115.2,196.3c0-3.8,0-7.6,0-11.3c0-2.4-3.8-2.4-3.8,0c0,3.8,0,7.6,0,11.3C111.4,198.8,115.2,198.8,115.2,196.3
					L115.2,196.3z"/>
			</g>
		</g>
		<g>
			<g>
				<path d="M131.9,187.6c0-3.4,0-6.9,0-10.3c0-2.4-3.8-2.4-3.8,0c0,3.4,0,6.9,0,10.3C128.2,190,131.9,190,131.9,187.6L131.9,187.6z
					"/>
			</g>
		</g>
		<g>
			<g>
				<path d="M86.2,138.3c0-4.1,0-8.2,0-12.3c0-2.4-3.8-2.4-3.8,0c0,4.1,0,8.2,0,12.3C82.4,140.8,86.2,140.8,86.2,138.3L86.2,138.3z"
					/>
			</g>
		</g>
	</g>
</g>
<g id="Line_Expand">
	<g>
		<path d="M190.7,168c-1.4,3.3-3.5,6.1-6.3,8.3c-1.9,1.5,0.8,4.2,2.7,2.7c3-2.4,5.4-5.5,6.9-9.1C194.8,167.7,191.6,165.8,190.7,168z
			"/>
		<path d="M233.6,76c1.5,1.9,4.2-0.8,2.7-2.7c-2.4-3-5.5-5.4-9.1-6.9c-2.2-0.9-4.1,2.3-1.9,3.2C228.6,71.1,231.3,73.2,233.6,76z"/>
		<path d="M237.6,87.9c-0.5,15.3-16.6,24.3-29.9,16.7c-14-8-11.1-28,2.3-34.7c2.2-1.1,0.3-4.3-1.9-3.2C196.9,72.3,192.8,84.5,196,95
			c-0.1,0.1-0.2,0.2-0.2,0.3c-11.2,16.6-37.3,16.8-51.5,4.1c2.6-3.8,4.2-8.6,4.1-13.9c-0.3-17.9-20.5-27.3-35.3-19.1
			c-2.1,1.2-0.2,4.4,1.9,3.2c12.8-7.1,28.5,1.1,29.6,15.9c1.2,16.6-17.9,25.4-30.9,17c-2-1.3-3.9,1.9-1.9,3.2
			c10.4,6.7,22.7,4.2,30.1-3.4c7.2,6.4,16.9,9.7,26.5,9.8c4.9,7.3,8.1,16.9,6.6,25.8c-8.4-0.9-17.2,2.6-22.6,10.8
			c-10.1,15.5,2.7,35,20,35.5c2.4,0.1,2.4-3.7,0-3.8c-15.3-0.5-24.3-16.6-16.7-29.9c8-14,28-11.1,34.7,2.3c1.1,2.2,4.3,0.3,3.2-1.9
			c-3.3-6.6-8.8-10.7-14.9-12.4c1.6-9.1-1.2-18.8-5.9-26.7c9.6-0.9,18.8-5.1,24.9-12.9c1.8,3.4,4.5,6.5,8.2,8.9
			c15.5,10.1,35-2.7,35.5-20C241.5,85.5,237.7,85.5,237.6,87.9z"/>
		<path d="M103.3,78.1c-1.3,3.7-1.8,7.5-1.3,11.4c0.3,2.4,4.1,2.4,3.8,0c-0.4-3.6-0.1-7,1.2-10.4C107.7,76.9,104.1,75.9,103.3,78.1z
			"/>
		<path d="M139.4,162.1C139.4,162,139.4,162,139.4,162.1c1.1-2.5,1.8-5.1,1.9-8.1c0-0.2,0-0.3,0-0.4c-1-20.2-28.2-27.8-44.2-30
			c-21.5-3-50.3-0.4-66.3,16.3c-5.2,5.4-7.5,12.8-5.2,20.1c0.1,0.2,0.1,0.3,0.2,0.5c-5.3,7.4-4.9,14.9-1,21.4c-7,11.4-1,22.2,9,29.3
			c13.6,9.6,32,12.2,48.2,12.3c16.4,0.1,34.3-3.1,48.2-12.3c10.2-6.8,15.7-18.1,9-29.2C142.9,175.9,143.9,168.8,139.4,162.1z
			 M44.6,134.5c11.5-6,25.1-7.9,37.9-8.1c0,4,0,8,0,11.9c0,2.4,3.8,2.4,3.8,0c0-4,0-8,0-11.9c11.6,0.3,23.5,2.6,34,7.5
			c8.1,3.8,17.1,10.4,17.4,20.1c0,0.2,0,0.4-0.1,0.7c-0.2-0.4-0.6-0.7-1.1-0.8c-3.6-1-7.1-2-10.7-3c-2.3-0.7-3.3,3-1,3.6
			c3.6,1,7.1,2,10.7,3c0.7,0.2,1.3,0,1.7-0.4c-1.8,7.7-9,12.9-15.8,16.5c-10.7,5.6-23.2,7.6-35.2,8c0-3.5,0-7,0-10.6
			c0-2.4-3.8-2.4-3.8,0c0,3.5,0,7.1,0,10.6c-12.5,0-25.3-2.2-36.7-7.5c-7.1-3.3-14.9-8.8-16.9-16.8c3.4-1,6.9-1.9,10.3-2.9
			c2.3-0.7,1.3-4.3-1-3.6c-3.3,0.9-6.5,1.8-9.8,2.8C28.4,144.6,37.4,138.2,44.6,134.5z M27.7,164.4c3.7,5.9,10.1,10,16.1,13
			c22.1,10.9,51.4,10.7,74,1.8c7-2.7,14.7-7.2,19.3-13.5c3.6,7.1,0.1,13.9-5.3,18.9c0-2.5,0-4.9,0-7.4c0-2.4-3.8-2.4-3.8,0
			c0,3.4,0,6.9,0,10.3c0,0,0,0.1,0,0.1c-1.4,1-2.7,1.9-4.1,2.6c-2.8,1.6-5.8,2.9-8.9,4.1c0-3.1,0-6.3,0-9.4c0-2.4-3.8-2.4-3.8,0
			c0,3.6,0,7.1,0,10.7c-8,2.4-16.5,3.5-24.8,3.8c0-3.3,0-6.5,0-9.8c0-2.4-3.8-2.4-3.8,0c0,3.3,0,6.6,0,9.9c-0.3,0-0.6,0-1,0
			c-6.6,0-13.4-0.5-20-1.7c0-3.4,0-6.8,0-10.1c0-2.4-3.8-2.4-3.8,0c0,3.1,0,6.2,0,9.3c-5.6-1.3-11.1-3.2-16.2-5.7c0-3.3,0-6.6,0-9.9
			c0-2.4-3.8-2.4-3.8,0c0,2.6,0,5.3,0,7.9C28.9,183.8,22.1,174.6,27.7,164.4z M135.7,200.3c0-2.2,0-4.5,0-6.7c0-2.4-3.8-2.4-3.8,0
			c0,3.6,0,7.2,0,10.8c0,0.1,0,0.2,0,0.3c-2.3,2.2-5,4.1-7.9,5.7c-0.5,0.3-1,0.6-1.6,0.8c0-3.4,0-6.7,0-10.1c0-2.4-3.8-2.4-3.8,0
			c0,3.9,0,7.8,0,11.8c0,0.1,0,0.1,0,0.1c-6.3,2.7-13.1,4.4-19.9,5.4c0-3.4,0-6.8,0-10.2c0-2.4-3.8-2.4-3.8,0c0,3.4,0,6.9,0,10.3
			c0,0.1,0,0.2,0,0.3c-4.4,0.5-8.8,0.7-13.2,0.7c-3.5,0-7-0.1-10.6-0.4c0.1-0.2,0.1-0.4,0.1-0.6c0-3.4,0-6.9,0-10.3
			c0-2.4-3.8-2.4-3.8,0c0,3.4,0,6.9,0,10.3c0,0.1,0,0.1,0,0.2c-6.7-0.8-13.3-2.4-19.6-4.7c0.1-0.2,0.2-0.5,0.2-0.9
			c0-3.4,0-6.9,0-10.3c0-2.4-3.8-2.4-3.8,0c0,3.3,0,6.5,0,9.8c-1.6-0.7-3.2-1.5-4.8-2.3c-2.6-1.4-5.1-3.1-7.2-5
			c0.1-0.2,0.1-0.4,0.1-0.7c0-3.4,0-6.9,0-10.3c0-2.4-3.8-2.4-3.8,0c0,2.4,0,4.7,0,7.1c-3.4-4.7-4.7-10.3-1.7-16.3
			c1.6,1.9,3.5,3.6,5.6,5.2c13.1,9.9,31.4,12.6,47.4,13c16.6,0.4,34.7-2.7,48.9-11.7c2.8-1.8,5.4-4,7.5-6.5
			C139.5,190.8,138.6,195.9,135.7,200.3z"/>
	</g>
</g>
<g id="Glyph" class="st0">
	<g class="st1">
		<path d="M217.6,67.5c-11.9,0-21.5,9.6-21.5,21.5c0,1.8,0.3,3.6,0.7,5.3c-0.4,0.1-0.8,0.3-1.1,0.8c-11.4,16.9-38.2,16.8-52.3,3.4
			c2.4-3.5,3.8-7.7,3.8-12.2c0-11.9-9.6-21.5-21.5-21.5c-11.9,0-21.5,9.6-21.5,21.5s9.6,21.5,21.5,21.5c6,0,11.4-2.4,15.3-6.4
			c7.3,6.8,17.3,10.4,27.3,10.5c5.1,7.7,8.5,17.8,6.3,27.2c0,0.2-0.1,0.4,0,0.6c-0.7-0.1-1.4-0.1-2.2-0.1
			c-11.9,0-21.5,9.6-21.5,21.5c0,11.9,9.6,21.5,21.5,21.5c11.9,0,21.5-9.6,21.5-21.5c0-9.9-6.7-18.2-15.8-20.7
			c0-0.1,0.1-0.2,0.1-0.3c2.3-9.6-0.6-20-5.6-28.3c9.9-0.9,19.3-5.4,25.5-13.6c3.4,7.3,10.8,12.4,19.5,12.4
			c11.9,0,21.5-9.6,21.5-21.5C239.1,77.1,229.4,67.5,217.6,67.5z"/>
	</g>
	<path class="st1" d="M44.6,134.5c11.5-6,25.1-7.9,37.9-8.1c0,4,0,8,0,11.9c0,2.4,3.8,2.4,3.8,0c0-4,0-8,0-11.9
		c11.6,0.3,23.5,2.6,34,7.5c8.1,3.8,17.1,10.4,17.4,20.1c0,0.2,0,0.4-0.1,0.7c-0.2-0.4-0.6-0.7-1.1-0.8c-3.6-1-7.1-2-10.7-3
		c-2.3-0.7-3.3,3-1,3.6c3.6,1,7.1,2,10.7,3c0.7,0.2,1.3,0,1.7-0.4c-1.8,7.7-9,12.9-15.8,16.5c-10.7,5.6-23.2,7.6-35.2,8
		c0-3.5,0-7,0-10.6c0-2.4-3.8-2.4-3.8,0c0,3.5,0,7.1,0,10.6c-12.5,0-25.3-2.2-36.7-7.5c-7.1-3.3-14.9-8.8-16.9-16.8
		c3.4-1,6.9-1.9,10.3-2.9c2.3-0.7,1.3-4.3-1-3.6c-3.3,0.9-6.5,1.8-9.8,2.8C28.4,144.6,37.4,138.2,44.6,134.5z M27.7,164.4
		c3.7,5.9,10.1,10,16.1,13c22.1,10.9,51.4,10.7,74,1.8c7-2.7,14.7-7.2,19.3-13.5c3.6,7.1,0.1,13.9-5.3,18.9c0-2.5,0-4.9,0-7.4
		c0-2.4-3.8-2.4-3.8,0c0,3.4,0,6.9,0,10.3c0,0,0,0.1,0,0.1c-1.4,1-2.7,1.9-4.1,2.6c-2.8,1.6-5.8,2.9-8.9,4.1c0-3.1,0-6.3,0-9.4
		c0-2.4-3.8-2.4-3.8,0c0,3.6,0,7.1,0,10.7c-8,2.4-16.5,3.5-24.8,3.8c0-3.3,0-6.5,0-9.8c0-2.4-3.8-2.4-3.8,0c0,3.3,0,6.6,0,9.9
		c-0.3,0-0.6,0-1,0c-6.6,0-13.4-0.5-20-1.7c0-3.4,0-6.8,0-10.1c0-2.4-3.8-2.4-3.8,0c0,3.1,0,6.2,0,9.3c-5.6-1.3-11.1-3.2-16.2-5.7
		c0-3.3,0-6.6,0-9.9c0-2.4-3.8-2.4-3.8,0c0,2.6,0,5.3,0,7.9C28.9,183.8,22.1,174.6,27.7,164.4z M135.7,200.3c0-2.2,0-4.5,0-6.7
		c0-2.4-3.8-2.4-3.8,0c0,3.6,0,7.2,0,10.8c0,0.1,0,0.2,0,0.3c-2.3,2.2-5,4.1-7.9,5.7c-0.5,0.3-1,0.6-1.6,0.8c0-3.4,0-6.7,0-10.1
		c0-2.4-3.8-2.4-3.8,0c0,3.9,0,7.8,0,11.8c0,0.1,0,0.1,0,0.1c-6.3,2.7-13.1,4.4-19.9,5.4c0-3.4,0-6.8,0-10.2c0-2.4-3.8-2.4-3.8,0
		c0,3.4,0,6.9,0,10.3c0,0.1,0,0.2,0,0.3c-4.4,0.5-8.8,0.7-13.2,0.7c-3.5,0-7-0.1-10.6-0.4c0.1-0.2,0.1-0.4,0.1-0.6
		c0-3.4,0-6.9,0-10.3c0-2.4-3.8-2.4-3.8,0c0,3.4,0,6.9,0,10.3c0,0.1,0,0.1,0,0.2c-6.7-0.8-13.3-2.4-19.6-4.7
		c0.1-0.2,0.2-0.5,0.2-0.9c0-3.4,0-6.9,0-10.3c0-2.4-3.8-2.4-3.8,0c0,3.3,0,6.5,0,9.8c-1.6-0.7-3.2-1.5-4.8-2.3
		c-2.6-1.4-5.1-3.1-7.2-5c0.1-0.2,0.1-0.4,0.1-0.7c0-3.4,0-6.9,0-10.3c0-2.4-3.8-2.4-3.8,0c0,2.4,0,4.7,0,7.1
		c-3.4-4.7-4.7-10.3-1.7-16.3c1.6,1.9,3.5,3.6,5.6,5.2c13.1,9.9,31.4,12.6,47.4,13c16.6,0.4,34.7-2.7,48.9-11.7
		c2.8-1.8,5.4-4,7.5-6.5C139.5,190.8,138.6,195.9,135.7,200.3z"/>
</g>
</svg>
