<?xml version="1.0" encoding="utf-8"?>
<!-- Generator: Adobe Illustrator 23.0.3, SVG Export Plug-In . SVG Version: 6.00 Build 0)  -->
<svg version="1.1" xmlns="http://www.w3.org/2000/svg" xmlns:xlink="http://www.w3.org/1999/xlink" x="0px" y="0px"
	 viewBox="0 0 256 256" style="enable-background:new 0 0 256 256;" xml:space="preserve">
<style type="text/css">
	.st0{display:none;}
	.st1{display:inline;}
</style>
<g id="SOURCE" class="st0">
	<g class="st1">
		<g>
			<path d="M221.3,128c-0.2,24.2-9.3,47.1-25.9,64.7c-1.7,1.8,1,4.4,2.7,2.7c17.2-18.4,26.8-42.2,27-67.4
				C225,125.6,221.3,125.6,221.3,128L221.3,128z"/>
		</g>
	</g>
	<circle class="st1" cx="193.6" cy="198.9" r="2.4"/>
	<g class="st1">
		<g>
			<path d="M100.8,76.5c14.4,0,28.8,0,43.2,0c2.4,0,2.4-3.8,0-3.8c-14.4,0-28.8,0-43.2,0C98.3,72.8,98.3,76.5,100.8,76.5L100.8,76.5
				z"/>
		</g>
	</g>
	<g class="st1">
		<g>
			<path d="M236.4,128.5c-0.3,46.9-31,88.7-75.8,102.8c-45.1,14.2-95-4.1-121.3-43c-26.5-39.1-23.2-92.5,6.8-128.8
				c30.1-36.4,82-48.4,125.3-30C210.7,46.4,236.2,86,236.4,128.5c0,2.4,3.8,2.4,3.8,0c-0.3-44.1-26.5-84.3-66.9-102.1
				C132.8,8.5,84.6,17.5,52.4,47.5C19.9,77.8,9.2,126.1,24.5,167.6c15.1,40.9,54.1,69,97.3,72c30.6,2.1,61-9.3,83.4-30.1
				c22.4-20.8,34.8-50.6,35-81C240.2,126.1,236.5,126.1,236.4,128.5z"/>
		</g>
	</g>
	<g class="st1">
		<g>
			<path d="M132.8,104.8c-0.4,15.7-12.6,28-28.3,28.3c-15.7,0.4-28-13.2-28.3-28.3c-0.4-15.7,13.2-28,28.3-28.3
				C120.2,76.1,132.5,89.6,132.8,104.8c0.1,2.4,3.8,2.4,3.8,0c-0.4-17.8-14.3-31.7-32.1-32.1c-17.8-0.4-31.7,14.9-32.1,32.1
				c-0.4,17.8,14.9,31.7,32.1,32.1c17.8,0.4,31.7-14.9,32.1-32.1C136.6,102.4,132.8,102.4,132.8,104.8z"/>
		</g>
	</g>
	<g class="st1">
		<g>
			<path d="M132.8,173.3c-0.4,15.7-12.6,28-28.3,28.3c-15.7,0.4-28-13.2-28.3-28.3c-0.4-15.7,13.2-28,28.3-28.3
				C120.2,144.6,132.5,158.1,132.8,173.3c0.1,2.4,3.8,2.4,3.8,0c-0.4-17.8-14.3-31.7-32.1-32.1c-17.8-0.4-31.7,14.9-32.1,32.1
				c-0.4,17.8,14.9,31.7,32.1,32.1c17.8,0.4,31.7-14.9,32.1-32.1C136.6,170.9,132.8,170.9,132.8,173.3z"/>
		</g>
	</g>
	<g class="st1">
		<g>
			<path d="M202.8,109.3c-0.4,15.7-12.6,28-28.3,28.3c-15.7,0.4-28-13.2-28.3-28.3c-0.4-15.7,13.2-28,28.3-28.3
				C190.2,80.6,202.5,94.1,202.8,109.3c0.1,2.4,3.8,2.4,3.8,0c-0.4-17.8-14.3-31.7-32.1-32.1c-17.8-0.4-31.7,14.9-32.1,32.1
				c-0.4,17.8,14.9,31.7,32.1,32.1c17.8,0.4,31.7-14.9,32.1-32.1C206.6,106.9,202.8,106.9,202.8,109.3z"/>
		</g>
	</g>
</g>
<g id="Line_Expand">
	<g>
		<path d="M230.9,95.3c0.8,2.3,4.4,1.3,3.6-1c-3.3-9.8-7.8-19-13.5-27.6c-1.3-2-4.6-0.1-3.2,1.9C223.3,77,227.7,85.8,230.9,95.3z"/>
		<path d="M90.8,233.8c41.7,15.4,89.7,3,119.8-29.3c19-20.4,29.3-47.7,29.5-75.5c0-2.4-3.7-2.4-3.8,0c-0.3,46.9-31,88.7-75.8,102.8
			c-45.1,14.2-95-4.1-121.3-43C12.7,149.7,16,96.3,46,60.1c32-38.7,88-49.4,132.4-26.6c10.4,5.3,19.8,12.6,27.9,20.9
			c1.7,1.7,4.3-0.9,2.7-2.7C174.6,16.6,120.7,7.8,77,30.3C37.8,50.5,14.6,93.6,17.6,137.4C20.6,180.8,50.2,218.7,90.8,233.8z"/>
		<path d="M198,195.4c17.2-18.4,26.8-42.2,27-67.4c0-2.4-3.7-2.4-3.8,0c-0.2,24.2-9.3,47.1-25.9,64.7
			C193.7,194.5,196.4,197.1,198,195.4z"/>
		<circle cx="193.6" cy="198.9" r="2.4"/>
		<path d="M138.1,172.6c-0.6-25.5-29-40.6-50.3-26.2c-9.9,6.7-14.7,18.8-13.4,30.5c1.4,11.9,9.9,21.5,20.8,25.8
			c2.3,0.9,3.2-2.7,1-3.6c-21.4-8.4-24.4-37.4-5.5-50.2c18.6-12.6,43.1,2.2,43.6,23.7C134.4,175,138.1,175,138.1,172.6z"/>
		<path d="M128.9,189.2c-4.1,5.3-9.5,9-16,10.7c-2.3,0.6-1.3,4.2,1,3.6c7.1-1.9,13.2-5.9,17.7-11.7C133,190,130.4,187.3,128.9,189.2
			z"/>
		<path d="M168.5,140.5c11.4,2.4,23.1-2.4,30.6-11.1c8.1-9.4,9.1-22.8,4.3-33.9c-1-2.2-4.2-0.3-3.2,1.9c9.2,21.2-9.4,43.9-32,39.2
			c-21.9-4.5-28.4-32.1-13.7-47.5c1.7-1.7-1-4.4-2.7-2.7C134.3,104.8,143.5,135.3,168.5,140.5z"/>
		<path d="M170.1,81.1c6.7-0.8,13,0.4,18.9,3.7c2.1,1.2,4-2,1.9-3.2c-6.4-3.7-13.5-5.1-20.8-4.2C167.7,77.7,167.7,81.4,170.1,81.1z"
			/>
		<path d="M76.9,87.8c-3.7,6.4-5.1,13.5-4.2,20.8c0.3,2.4,4,2.4,3.8,0c-0.8-6.7,0.4-13,3.7-18.9C81.3,87.6,78.1,85.7,76.9,87.8z"/>
		<path d="M142.9,72.8c-11.2,0-22.4,0-33.6,0c-3.1-0.5-6.4-0.4-9.5,0c0,0,0,0-0.1,0c-0.2,0-0.4,0-0.6,0.1c-2.9,0.5-5.8,1.3-8.5,2.5
			c-2.2,1-0.3,4.2,1.9,3.2c2.4-1,4.7-1.7,7.1-2.1c0,0,0,0,0.1,0c2.9,0,5.7,0,8.6,0c15.1,2.4,26.9,17.1,23.5,34
			c-4.5,21.9-32.1,28.4-47.5,13.7c-1.7-1.7-4.4,1-2.7,2.7c18.3,17.5,48.9,8.3,54-16.7c2.4-11.4-2.4-23.1-11.1-30.6
			c-1.4-1.2-2.8-2.2-4.4-3.1c7.6,0,15.1,0,22.7,0C145.3,76.5,145.3,72.8,142.9,72.8z"/>
	</g>
</g>
<g id="Glyph" class="st0">
	<g class="st1">
		<path d="M128.8,19C68.3,19,19.3,68,19.3,128.5S68.3,238,128.8,238s109.5-49,109.5-109.5S189.3,19,128.8,19z M104.5,203.5
			c-16.7,0-30.2-13.5-30.2-30.2s13.5-30.2,30.2-30.2s30.2,13.5,30.2,30.2S121.1,203.5,104.5,203.5z M134.7,104.8
			c0,16.7-13.5,30.2-30.2,30.2s-30.2-13.5-30.2-30.2c0-16.7,13.5-30.2,30.2-30.2c2.9,0,5.8,0.4,8.5,1.2c10.3,0,20.7,0,31,0
			c2.4,0,2.4,3.8,0,3.8c-7.6,0-15.2,0-22.9,0C129.2,84.9,134.7,94.2,134.7,104.8z M144.3,109.3c0-16.7,13.5-30.2,30.2-30.2
			s30.2,13.5,30.2,30.2c0,16.7-13.5,30.2-30.2,30.2S144.3,126,144.3,109.3z M193.6,201.3c-1.3,0-2.4-1.1-2.4-2.4
			c0-1.3,1.1-2.4,2.4-2.4c1.3,0,2.4,1.1,2.4,2.4C196,200.2,194.9,201.3,193.6,201.3z M198,195.4c-1.7,1.8-4.3-0.9-2.7-2.7
			c16.6-17.6,25.7-40.5,25.9-64.7c0-2.4,3.8-2.4,3.8,0C224.8,153.2,215.3,177,198,195.4z"/>
	</g>
</g>
</svg>
