<?xml version="1.0" encoding="utf-8"?>
<!-- Generator: Adobe Illustrator 23.0.3, SVG Export Plug-In . SVG Version: 6.00 Build 0)  -->
<svg version="1.1" xmlns="http://www.w3.org/2000/svg" xmlns:xlink="http://www.w3.org/1999/xlink" x="0px" y="0px"
	 viewBox="0 0 256 256" style="enable-background:new 0 0 256 256;" xml:space="preserve">
<style type="text/css">
	.st0{display:none;}
	.st1{display:inline;}
</style>
<g id="SOURCE" class="st0">
	<g class="st1">
		<g>
			<g>
				<path d="M190.3,70.6c0.8-4.6,1.6-9.1,2.3-13.7c0.2-1.2-0.5-2.4-1.8-2.4c-9.8,0-19.6,0-29.4,0c-0.8,0-1.6,0.6-1.8,1.4
					c-4.9,24.3-9.9,48.6-14.8,72.8c-1.1,5.3-2.1,10.5-3.2,15.8c-0.2,1.1-0.5,2.2-0.7,3.3c-0.2,1,1.1-0.9,0.6-0.7
					c-0.9,0.4-1.7,0.7-2.6,1.1c-6.8,2.9-13.7,5.9-20.5,8.8c-3.7,1.6-11.9,4-9.6,9.5c1.2,2.8,1.7,5.5,4.7,6.8c2.6,1.1,6-0.9,8.4-2
					c6.3-2.7,12.6-5.4,18.9-8.1c-0.9-0.7-1.8-1.4-2.8-2.1c-2.6,12.4-5.2,24.8-7.8,37.3c-0.2,1.2,0.5,2.4,1.8,2.4
					c34.1,0,68.2,0,102.3,0c0.8,0,1.6-0.6,1.8-1.4c1.7-8,3.3-16,5-23.9c0.2-1.2-0.5-2.4-1.8-2.4c-24.3,0-48.6,0-72.9,0
					c0.6,0.8,1.2,1.6,1.8,2.4c1.8-8.7,3.6-17.4,5.5-26.1c0.4-2-1.5,0.4,0.3-0.3c1.8-0.8,3.6-1.5,5.4-2.3c5.3-2.3,10.6-4.5,15.9-6.8
					c3.5-1.5,7.2-2.6,8.7-6.5c1-2.7-2.7-9.1-5.6-9.4c-4.1-0.4-8.4,2.3-12.1,3.8c-4.1,1.8-8.3,3.5-12.4,5.3c0.9,0.7,1.8,1.4,2.8,2.1
					C181.1,113.7,185.8,92.2,190.3,70.6c0.5-2.4-3.1-3.4-3.6-1c-4.5,21.6-9.2,43.2-13.5,64.8c-0.3,1.7,1.2,2.8,2.8,2.1
					c6.8-2.9,13.5-6.3,20.5-8.6c2.7-0.9,3.4,3.2,4.2,5c0.3,0.8-3.2,2.2-4.2,2.7c-4.3,1.8-8.5,3.6-12.7,5.5
					c-3.8,1.6-7.6,3.2-11.3,4.9c-2.1,0.9-2,2.6-2.5,4.7c-1.7,8-3.3,16-5,24c-0.2,1.2,0.5,2.4,1.8,2.4c24.3,0,48.6,0,72.9,0
					c-0.6-0.8-1.2-1.6-1.8-2.4c-1.7,8-3.3,16-5,23.9c0.6-0.5,1.2-0.9,1.8-1.4c-34.1,0-68.2,0-102.3,0c0.6,0.8,1.2,1.6,1.8,2.4
					c2.6-12.4,5.2-24.8,7.8-37.3c0.4-1.7-1.2-2.8-2.8-2.1c-5.6,2.4-11.2,4.8-16.8,7.2c-0.9,0.4-7.3,3.7-8.1,2.1
					c-0.6-1.4-1.2-2.8-1.8-4.2c-0.6-1.3,2.1-2.3,3.2-2.8c6.2-2.7,12.5-5.3,18.7-8c2.1-0.9,9.7-2.6,10.3-5.4
					c5.1-25.3,10.3-50.5,15.4-75.8c1.1-5.4,2.2-10.9,3.3-16.3c-0.6,0.5-1.2,0.9-1.8,1.4c9.8,0,19.6,0,29.4,0
					c-0.6-0.8-1.2-1.6-1.8-2.4c-0.8,4.6-1.6,9.1-2.3,13.7C186.2,71.9,189.9,72.9,190.3,70.6z"/>
			</g>
		</g>
	</g>
	<g class="st1">
		<g>
			<path d="M101.8,95.1c-19.3,0-38.5,0-57.8,0c0.6,0.6,1.3,1.3,1.9,1.9c0-5.6,0-11.2,0-16.8c0-1.6-2-2.5-3.2-1.3
				c-9.8,9.8-19.5,19.5-29.3,29.3c-0.7,0.7-0.7,1.9,0,2.7c9.8,9.8,19.5,19.5,29.3,29.3c1.2,1.2,3.2,0.3,3.2-1.3c0-5.1,0-10.2,0-15.3
				c-0.6,0.6-1.3,1.3-1.9,1.9c19.3,0,38.5,0,57.8,0c1,0,1.9-0.9,1.9-1.9c0-8.8,0-17.7,0-26.5c0-2.4-3.8-2.4-3.8,0
				c0,8.8,0,17.7,0,26.5c0.6-0.6,1.3-1.3,1.9-1.9c-19.3,0-38.5,0-57.8,0c-1,0-1.9,0.9-1.9,1.9c0,5.1,0,10.2,0,15.3
				c1.1-0.4,2.1-0.9,3.2-1.3c-9.8-9.8-19.5-19.5-29.3-29.3c0,0.9,0,1.8,0,2.7c9.8-9.8,19.5-19.5,29.3-29.3c-1.1-0.4-2.1-0.9-3.2-1.3
				c0,5.6,0,11.2,0,16.8c0,1,0.9,1.9,1.9,1.9c19.3,0,38.5,0,57.8,0C104.2,98.9,104.2,95.1,101.8,95.1z"/>
		</g>
	</g>
	<g class="st1">
		<g>
			<path d="M16.8,165.9c19.3,0,38.5,0,57.8,0c1,0,1.9-0.9,1.9-1.9c0-5.6,0-11.2,0-16.8c-1.1,0.4-2.1,0.9-3.2,1.3
				c9.8,9.8,19.5,19.5,29.3,29.3c0-0.9,0-1.8,0-2.7c-9.8,9.8-19.5,19.5-29.3,29.3c1.1,0.4,2.1,0.9,3.2,1.3c0-5.1,0-10.2,0-15.3
				c0-1-0.9-1.9-1.9-1.9c-19.3,0-38.5,0-57.8,0c0.6,0.6,1.3,1.3,1.9,1.9c0-8.8,0-17.7,0-26.5c0-2.4-3.7-2.4-3.7,0
				c0,8.8,0,17.7,0,26.5c0,1,0.9,1.9,1.9,1.9c19.3,0,38.5,0,57.8,0c-0.6-0.6-1.3-1.3-1.9-1.9c0,5.1,0,10.2,0,15.3
				c0,1.6,2,2.5,3.2,1.3c9.8-9.8,19.5-19.5,29.3-29.3c0.7-0.7,0.7-1.9,0-2.7c-9.8-9.8-19.5-19.5-29.3-29.3c-1.2-1.2-3.2-0.3-3.2,1.3
				c0,5.6,0,11.2,0,16.8c0.6-0.6,1.3-1.3,1.9-1.9c-19.3,0-38.5,0-57.8,0C14.4,162.1,14.4,165.9,16.8,165.9z"/>
		</g>
	</g>
	<g class="st1">
		<g>
			<path d="M176.3,199.3c0,9.3,0,18.5,0,27.8c0.6-0.6,1.3-1.3,1.9-1.9c-41.3,0-82.7,0-124,0c0.6,0.6,1.3,1.3,1.9,1.9
				c0-11.9,0-23.8,0-35.7c0-2.4-3.8-2.4-3.8,0c0,11.9,0,23.8,0,35.7c0,1,0.9,1.9,1.9,1.9c41.3,0,82.7,0,124,0c1,0,1.9-0.9,1.9-1.9
				c0-9.3,0-18.5,0-27.8C180,196.8,176.3,196.8,176.3,199.3L176.3,199.3z"/>
		</g>
	</g>
	<g class="st1">
		<g>
			<path d="M176.3,145.7c0,9.6,0,19.2,0,28.8c0,2.4,3.8,2.4,3.8,0c0-9.6,0-19.2,0-28.8C180,143.2,176.3,143.2,176.3,145.7
				L176.3,145.7z"/>
		</g>
	</g>
	<g class="st1">
		<g>
			<path d="M56,96.4c0-21.8,0-43.6,0-65.4c-0.6,0.6-1.3,1.3-1.9,1.9c24.7,0,49.3,0,74,0c6,0,11.9,0,17.9,0c1.6,0,3.2,0,4.8,0
				c2.2,0,0.9,0.1,0.5-0.3c8.5,8.3,17,16.6,25.5,24.9c0,0,0,0,0,0c1.7,1.7,4.4-1,2.7-2.7c-8.4-8.2-16.9-16.5-25.3-24.7
				c-1.5-1.4-3.8-0.9-5.7-0.9c-5.4,0-10.7,0-16.1,0c-26,0-51.9,0-77.9,0c-0.1,0-0.2,0-0.3,0c-1,0-1.9,0.9-1.9,1.9
				c0,21.8,0,43.6,0,65.4C52.3,98.8,56,98.8,56,96.4L56,96.4z"/>
		</g>
	</g>
	<g class="st1">
		<g>
			<path d="M56,163.3c0-13.1,0-26.2,0-39.3c0-2.4-3.8-2.4-3.8,0c0,13.1,0,26.2,0,39.3C52.3,165.7,56,165.7,56,163.3L56,163.3z"/>
		</g>
	</g>
	<g class="st1">
		<g>
			<path d="M177.5,54.1c-8.4,0-16.7,0-25.1,0c0.6,0.6,1.3,1.3,1.9,1.9c0-8.2,0-16.3,0-24.5c-1.1,0.4-2.1,0.9-3.2,1.3
				c8.4,8.2,16.7,16.3,25.1,24.5c1.7,1.7,4.4-1,2.7-2.7c-8.4-8.2-16.7-16.3-25.1-24.5c-1.2-1.1-3.2-0.3-3.2,1.3c0,8.2,0,16.3,0,24.5
				c0,1,0.9,1.9,1.9,1.9c8.4,0,16.7,0,25.1,0C179.9,57.9,179.9,54.1,177.5,54.1z"/>
		</g>
	</g>
</g>
<g id="Line_Expand">
	<g>
		<path d="M184.1,81.6c-1.1,5.3-2.2,10.5-3.3,15.8c-0.5,2.4,3.1,3.4,3.6,1c1.1-5.3,2.2-10.5,3.3-15.8
			C188.2,80.3,184.6,79.3,184.1,81.6z"/>
		<path d="M52.3,227c0,1,0.9,1.9,1.9,1.9c41.3,0,82.7,0,124,0c1,0,1.9-0.9,1.9-1.9c0-8.7,0-17.5,0-26.2c18.1,0,36.3,0,54.4,0
			c0.8,0,1.6-0.6,1.8-1.4c1.7-8,3.3-16,5-23.9c0.2-1.2-0.5-2.4-1.8-2.4c-19.8,0-39.6,0-59.4,0c0-7.4,0-14.7,0-22.1
			c0-2.4-3.8-2.4-3.8,0c0,7.4,0,14.7,0,22.1c-2.5,0-4.9,0-7.4,0c1.7-7.9,3.3-15.8,5-23.7c0-0.1,0-0.2,0-0.2c0.1,0,0.2-0.1,0.3-0.1
			c1.8-0.8,3.6-1.5,5.4-2.3c5.3-2.3,10.6-4.5,15.9-6.8c3.5-1.5,7.2-2.6,8.7-6.5c1-2.7-2.7-9.1-5.6-9.4c-4.1-0.4-8.4,2.3-12.1,3.8
			c-3,1.3-5.9,2.5-8.9,3.8c0.8-4.2,1.7-8.4,2.5-12.6c0.5-2.4-3.1-3.4-3.6-1c-1.1,5.4-2.2,10.8-3.2,16.2c-0.3,1.7,1.2,2.8,2.8,2.1
			c6.8-2.9,13.5-6.3,20.5-8.6c2.7-0.9,3.4,3.2,4.2,5c0.3,0.8-3.2,2.2-4.2,2.7c-4.3,1.8-8.5,3.6-12.7,5.5c-3.8,1.6-7.6,3.2-11.3,4.9
			c-2.1,0.9-2,2.6-2.5,4.7c-1.7,8-3.3,16-5,24c-0.2,1.2,0.5,2.4,1.8,2.4c23.5,0,47,0,70.5,0c-1.4,6.7-2.8,13.5-4.2,20.2
			c-21.3,0-42.6,0-63.9,0c-2.4,0-2.4,3.8,0,3.8c2.4,0,4.8,0,7.3,0c0,8.1,0,16.2,0,24.3c-40.1,0-80.2,0-120.3,0c0-10.9,0-21.8,0-32.8
			c5.5,0,11.1,0,16.6,0c0,4.5,0,8.9,0,13.4c0,1.6,2,2.5,3.2,1.3c9.8-9.8,19.5-19.5,29.3-29.3c0.7-0.7,0.7-1.9,0-2.7
			c-9.8-9.8-19.5-19.5-29.3-29.3c-1.2-1.2-3.2-0.3-3.2,1.3c0,5,0,9.9,0,14.9c-5.5,0-11.1,0-16.6,0c0-12.3,0-24.5,0-36.8
			c15.3,0,30.6,0,45.8,0c1,0,1.9-0.9,1.9-1.9c0-8.8,0-17.7,0-26.5c0-0.6-0.2-1-0.5-1.3c0,0,0,0,0-0.1c0,0,0,0-0.1,0
			c-0.3-0.3-0.7-0.5-1.3-0.5c-15.3,0-30.5,0-45.8,0c0-20.7,0-41.5,0-62.2c24,0,48.1,0,72.1,0c6,0,11.9,0,17.9,0c1.5,0,3,0,4.6,0
			c0,7.7,0,15.4,0,23.1c0,1,0.9,1.9,1.9,1.9c2.2,0,4.5,0,6.7,0c-4.8,23.6-9.6,47.2-14.4,70.9c-1.1,5.3-2.1,10.5-3.2,15.8
			c-0.2,0.9-0.4,1.9-0.6,2.8c-0.7,0.3-1.4,0.6-2.1,0.9c-6.8,2.9-13.7,5.9-20.5,8.8c-3.7,1.6-11.9,4-9.6,9.5c1.2,2.8,1.7,5.5,4.7,6.8
			c2.6,1.1,6-0.9,8.4-2c5.1-2.2,10.3-4.4,15.4-6.6c-2.3,11.2-4.7,22.4-7,33.6c-0.2,1.2,0.5,2.4,1.8,2.4c8.7,0,17.5,0,26.2,0
			c2.4,0,2.4-3.8,0-3.8c-8,0-15.9,0-23.9,0c2.4-11.6,4.9-23.3,7.3-34.9c0.4-1.7-1.2-2.8-2.8-2.1c-5.6,2.4-11.2,4.8-16.8,7.2
			c-0.9,0.4-7.3,3.7-8.1,2.1c-0.6-1.4-1.2-2.8-1.8-4.2c-0.6-1.3,2.1-2.3,3.2-2.8c6.2-2.7,12.5-5.3,18.7-8c2.1-0.9,9.7-2.6,10.3-5.4
			c5.1-25.3,10.3-50.5,15.4-75.8c1-5,2-9.9,3-14.9c8.6,0,17.1,0,25.7,0c-0.6,3.8-1.3,7.5-1.9,11.3c-0.4,2.4,3.2,3.4,3.6,1
			c0.8-4.6,1.6-9.1,2.3-13.7c0.2-1.2-0.5-2.4-1.8-2.4c-3.9,0-7.7,0-11.6,0c-8.3-8.2-16.7-16.3-25-24.5c-1.5-1.4-3.8-0.9-5.7-0.9
			c-5.4,0-10.7,0-16.1,0c-26,0-51.9,0-77.9,0c-0.1,0-0.2,0-0.3,0c-1,0-1.9,0.9-1.9,1.9c0,21.4,0,42.8,0,64.1c-2.1,0-4.2,0-6.3,0
			c0-5,0-9.9,0-14.9c0-1.6-2-2.5-3.2-1.3c-9.8,9.8-19.5,19.5-29.3,29.3c-0.7,0.7-0.7,1.9,0,2.7c9.8,9.8,19.5,19.5,29.3,29.3
			c1.2,1.2,3.2,0.3,3.2-1.3c0-4.5,0-8.9,0-13.4c2.1,0,4.2,0,6.3,0c0,12.3,0,24.5,0,36.8c-11.8,0-23.7,0-35.5,0c-0.6,0-1,0.2-1.3,0.5
			c0,0,0,0-0.1,0c0,0,0,0,0,0.1c-0.3,0.3-0.5,0.7-0.5,1.3c0,8.8,0,17.7,0,26.5c0,1,0.9,1.9,1.9,1.9c11.8,0,23.7,0,35.5,0
			C52.3,203.9,52.3,215.5,52.3,227z M172.9,54.1c-6.2,0-12.4,0-18.6,0c0-6,0-12.1,0-18.1C160.5,42,166.7,48.1,172.9,54.1z
			 M42.2,123.5c0,3.6,0,7.2,0,10.8c-8.2-8.2-16.5-16.5-24.7-24.7c8.2-8.2,16.5-16.5,24.7-24.7c0,4.1,0,8.1,0,12.2
			c0,1,0.9,1.9,1.9,1.9c18.6,0,37.3,0,55.9,0c0,7.6,0,15.2,0,22.8c-18.6,0-37.3,0-55.9,0C43,121.6,42.2,122.5,42.2,123.5z
			 M18.6,165.9c18.6,0,37.3,0,55.9,0c1,0,1.9-0.9,1.9-1.9c0-4.1,0-8.1,0-12.2c8.2,8.2,16.5,16.5,24.7,24.7
			c-8.2,8.2-16.5,16.5-24.7,24.7c0-3.6,0-7.2,0-10.8c0-1-0.9-1.9-1.9-1.9c-18.6,0-37.3,0-55.9,0C18.6,181,18.6,173.5,18.6,165.9z"/>
	</g>
</g>
<g id="Glyph" class="st0">
	<path class="st1" d="M168.8,173.1c1.7-7.9,3.3-15.8,5-23.7c0-0.1,0-0.2,0-0.2c0.1,0,0.2-0.1,0.3-0.1c0.7-0.3,1.4-0.6,2.1-0.9
		c0,8.3,0,16.7,0,25C173.8,173.1,171.3,173.1,168.8,173.1z M154.3,36c6.2,6,12.4,12.1,18.6,18.1c-6.2,0-12.4,0-18.6,0
		C154.3,48.1,154.3,42,154.3,36z M99.9,121.6c-18.6,0-37.3,0-55.9,0c-1,0-1.9,0.9-1.9,1.9c0,3.6,0,7.2,0,10.8
		c-8.2-8.2-16.5-16.5-24.7-24.7c8.2-8.2,16.5-16.5,24.7-24.7c0,4.1,0,8.1,0,12.2c0,1,0.9,1.9,1.9,1.9c18.6,0,37.3,0,55.9,0
		C99.9,106.5,99.9,114,99.9,121.6z M74.5,165.9c1,0,1.9-0.9,1.9-1.9c0-4.1,0-8.1,0-12.2c8.2,8.2,16.5,16.5,24.7,24.7
		c-8.2,8.2-16.5,16.5-24.7,24.7c0-3.6,0-7.2,0-10.8c0-1-0.9-1.9-1.9-1.9c-18.6,0-37.3,0-55.9,0c0-7.6,0-15.2,0-22.8
		C37.3,165.9,55.9,165.9,74.5,165.9z M176.3,225.1c-40.1,0-80.2,0-120.3,0c0-10.9,0-21.8,0-32.8c5.5,0,11.1,0,16.6,0
		c0,4.5,0,8.9,0,13.4c0,1.6,2,2.5,3.2,1.3c9.8-9.8,19.5-19.5,29.3-29.3c0.7-0.7,0.7-1.9,0-2.7c-9.8-9.8-19.5-19.5-29.3-29.3
		c-1.2-1.2-3.2-0.3-3.2,1.3c0,5,0,9.9,0,14.9c-5.5,0-11.1,0-16.6,0c0-12.3,0-24.5,0-36.8c15.3,0,30.6,0,45.8,0c1,0,1.9-0.9,1.9-1.9
		c0-8.8,0-17.7,0-26.5c0-0.6-0.2-1-0.5-1.3c0,0,0,0,0-0.1c0,0,0,0-0.1,0c-0.3-0.3-0.7-0.5-1.3-0.5c-15.3,0-30.5,0-45.8,0
		c0-20.7,0-41.5,0-62.2c24,0,48.1,0,72.1,0c6,0,11.9,0,17.9,0c1.5,0,3,0,4.6,0c0,7.7,0,15.4,0,23.1c0,1,0.9,1.9,1.9,1.9
		c2.2,0,4.5,0,6.7,0c-4.8,23.6-9.6,47.2-14.4,70.9c-1.1,5.3-2.1,10.5-3.2,15.8c-0.2,0.9-0.4,1.9-0.6,2.8c-0.7,0.3-1.4,0.6-2.1,0.9
		c-6.8,2.9-13.7,5.9-20.5,8.8c-3.7,1.6-11.9,4-9.6,9.5c1.2,2.8,1.7,5.5,4.7,6.8c2.6,1.1,6-0.9,8.4-2c5.1-2.2,10.3-4.4,15.4-6.6
		c-2.3,11.2-4.7,22.4-7,33.6c-0.2,1.2,0.5,2.4,1.8,2.4c14.7,0,29.5,0,44.2,0C176.3,208.9,176.3,217,176.3,225.1z M232.9,197
		c-32.8,0-65.7,0-98.5,0c2.4-11.6,4.9-23.3,7.3-34.9c0.4-1.7-1.2-2.8-2.8-2.1c-5.6,2.4-11.2,4.8-16.8,7.2c-0.9,0.4-7.3,3.7-8.1,2.1
		c-0.6-1.4-1.2-2.8-1.8-4.2c-0.6-1.3,2.1-2.3,3.2-2.8c6.2-2.7,12.5-5.3,18.7-8c2.1-0.9,9.7-2.6,10.3-5.4
		c5.1-25.3,10.3-50.5,15.4-75.8c1-5,2-9.9,3-14.9c8.6,0,17.1,0,25.7,0c-0.6,3.8-1.3,7.5-1.9,11.3c-4.5,21.6-9.2,43.2-13.5,64.8
		c-0.3,1.7,1.2,2.8,2.8,2.1c6.8-2.9,13.5-6.3,20.5-8.6c2.7-0.9,3.4,3.2,4.2,5c0.3,0.8-3.2,2.2-4.2,2.7c-4.3,1.8-8.5,3.6-12.7,5.5
		c-3.8,1.6-7.6,3.2-11.3,4.9c-2.1,0.9-2,2.6-2.5,4.7c-1.7,8-3.3,16-5,24c-0.2,1.2,0.5,2.4,1.8,2.4c23.5,0,47,0,70.5,0
		C235.7,183.6,234.3,190.3,232.9,197z"/>
</g>
</svg>
