<?xml version="1.0" encoding="utf-8"?>
<!-- Generator: Adobe Illustrator 23.0.3, SVG Export Plug-In . SVG Version: 6.00 Build 0)  -->
<svg version="1.1" xmlns="http://www.w3.org/2000/svg" xmlns:xlink="http://www.w3.org/1999/xlink" x="0px" y="0px"
	 viewBox="0 0 256 256" style="enable-background:new 0 0 256 256;" xml:space="preserve">
<style type="text/css">
	.st0{display:none;}
	.st1{display:inline;}
</style>
<g id="SOURCE" class="st0">
	<g class="st1">
		<g>
			<g>
				<path d="M75.6,162.3c0-35.3,0-70.6,0-105.9c-0.6,0.6-1.3,1.3-1.9,1.9c12,0,24.1,0,36.1,0c15.4,0,31.9-1.4,46.6,3.7
					c29.7,10.3,36.3,45.4,35.4,72.8c-0.5,14.2-4.1,28.1-11.8,40.2c-7.5,11.7-19.5,18.6-33,21.3c-12.9,2.5-27,1.4-40.2,1.4
					c-11,0-22.1,0-33.1,0c0.6,0.6,1.3,1.3,1.9,1.9C75.6,187.1,75.6,174.7,75.6,162.3c0-2.4-3.8-2.4-3.8,0c0,12.4,0,24.9,0,37.3
					c0,1,0.9,1.9,1.9,1.9c12,0,24,0,36,0c14.7,0,30.3,1.2,44.5-3.1c24.8-7.5,37.5-30.5,40.6-55c3.2-25.4-0.7-54.6-19.3-73.5
					C160,54,138,54.5,117.5,54.5c-14.6,0-29.2,0-43.8,0c-1,0-1.9,0.9-1.9,1.9c0,35.3,0,70.6,0,105.9
					C71.8,164.7,75.6,164.7,75.6,162.3z"/>
				<path d="M142.1,175.9c5.8-1.6,11.7-4.4,15.2-9.5c4.2-6.1,6.2-13.4,7.3-20.7c2.2-14.9,2.5-32.5-3.1-46.7
					c-9.4-24.3-37.8-20.2-59-20.2c-1,0-1.9,0.9-1.9,1.9c0,31.6,0,63.2,0,94.8c0,1,0.9,1.9,1.9,1.9
					C115.8,177.3,129,177.8,142.1,175.9c2.4-0.3,1.4-4-1-3.6c-12.8,1.8-25.7,1.3-38.6,1.3c0.6,0.6,1.3,1.3,1.9,1.9
					c0-31.6,0-63.2,0-94.8c-0.6,0.6-1.3,1.3-1.9,1.9c18.6,0,43.9-4.2,54.2,15.1c6.4,12.1,5.6,28.2,4.7,41.3
					c-0.5,7.1-1.8,14.1-4.7,20.7c-3,6.9-8.7,10.7-15.8,12.6C138.8,172.9,139.8,176.5,142.1,175.9z"/>
			</g>
		</g>
	</g>
	<g class="st1">
		<g>
			<path d="M218.3,128.8c-0.2,24.2-9.3,47.1-25.9,64.7c-1.7,1.8,1,4.4,2.7,2.7c17.2-18.4,26.8-42.2,27-67.4
				C222,126.3,218.3,126.3,218.3,128.8L218.3,128.8z"/>
		</g>
	</g>
	<circle class="st1" cx="190.6" cy="199.6" r="2.4"/>
	<g class="st1">
		<g>
			<path d="M233.8,129.5c-0.3,46.9-31,88.7-75.8,102.8c-45.1,14.2-95-4.1-121.3-43c-26.5-39.1-23.2-92.5,6.8-128.8
				c30.1-36.4,82-48.4,125.3-30C208,47.4,233.5,87.1,233.8,129.5c0,2.4,3.8,2.4,3.8,0c-0.3-44.1-26.5-84.3-66.9-102.1
				C130.1,9.5,82,18.5,49.7,48.5C17.2,78.8,6.5,127.2,21.9,168.7c15.1,40.9,54.1,69,97.3,72c30.6,2.1,61-9.3,83.4-30.1
				c22.4-20.8,34.8-50.6,35-81C237.5,127.1,233.8,127.1,233.8,129.5z"/>
		</g>
	</g>
</g>
<g id="Line_Expand">
	<g>
		<path d="M71.8,199.5c0,1,0.9,1.9,1.9,1.9c12,0,24,0,36,0c14.7,0,30.3,1.2,44.5-3.1c24.8-7.5,37.5-30.5,40.6-55
			c3.2-25.4-0.7-54.6-19.3-73.5C160,54,138,54.5,117.5,54.5c-14.6,0-29.2,0-43.8,0c-1,0-1.9,0.9-1.9,1.9c0,22.9,0,45.7,0,68.6
			c0,2.4,3.8,2.4,3.8,0c0-22.2,0-44.5,0-66.7c11.4,0,22.8,0,34.2,0c15.4,0,31.9-1.4,46.6,3.7c29.7,10.3,36.3,45.4,35.4,72.8
			c-0.5,14.2-4.1,28.1-11.8,40.2c-7.5,11.7-19.5,18.6-33,21.3c-12.9,2.5-27,1.4-40.2,1.4c-10.4,0-20.8,0-31.3,0c0-6.6,0-13.1,0-19.7
			c0-2.4-3.8-2.4-3.8,0C71.8,185.2,71.8,192.4,71.8,199.5z"/>
		<path d="M75.6,162.3c0-7.1,0-14.2,0-21.3c0-2.4-3.8-2.4-3.8,0c0,7.1,0,14.2,0,21.3C71.8,164.7,75.6,164.7,75.6,162.3z"/>
		<path d="M156.9,159.6c-3,6.9-8.7,10.7-15.8,12.6c-2.3,0.6-1.3,4.3,1,3.6c5.8-1.6,11.7-4.4,15.2-9.5c4.2-6.1,6.2-13.4,7.3-20.7
			c2.2-14.9,2.5-32.5-3.1-46.7c-9.4-24.3-37.8-20.2-59-20.2c-1,0-1.9,0.9-1.9,1.9c0,31.6,0,63.2,0,94.8c0,1,0.9,1.9,1.9,1.9
			c3.9,0,7.8,0,11.7,0c2.4,0,2.4-3.8,0-3.8c-3.3,0-6.5,0-9.8,0c0-30.4,0-60.7,0-91.1c18.4-0.2,42.4-3.6,52.4,15.1
			c6.4,12.1,5.6,28.2,4.7,41.3C161.1,146,159.8,153.1,156.9,159.6z"/>
		<path d="M124.2,173.6c-2.4,0-2.4,3.8,0,3.8c3.4,0,6.9-0.1,10.3-0.3c2.4-0.2,2.4-3.9,0-3.8C131.1,173.5,127.6,173.5,124.2,173.6z"
			/>
		<path d="M231.5,95.1c-3.3-9.8-7.8-19-13.5-27.6c-1.3-2-4.6-0.1-3.2,1.9c5.5,8.3,9.9,17.2,13.1,26.7
			C228.7,98.3,232.3,97.4,231.5,95.1z"/>
		<path d="M87.8,234.5c41.7,15.4,89.7,3,119.8-29.3c19-20.4,29.3-47.7,29.5-75.5c0-2.4-3.7-2.4-3.8,0c-0.3,46.9-31,88.7-75.8,102.8
			c-45.1,14.2-95-4.1-121.3-43C9.7,150.5,13,97.1,43,60.9c32-38.7,88-49.4,132.4-26.6c10.4,5.3,19.8,12.6,27.9,20.9
			c1.7,1.7,4.3-0.9,2.7-2.7C171.6,17.3,117.7,8.5,74,31C34.8,51.3,11.6,94.3,14.6,138.1C17.6,181.6,47.2,219.5,87.8,234.5z"/>
		<path d="M195,196.1c17.2-18.4,26.8-42.2,27-67.4c0-2.4-3.7-2.4-3.8,0c-0.2,24.2-9.3,47.1-25.9,64.7
			C190.7,195.2,193.4,197.9,195,196.1z"/>
		<circle cx="190.6" cy="199.6" r="2.4"/>
	</g>
</g>
<g id="Glyph" class="st0">
	<g class="st1">
		<g>
			<path d="M126.2,20c-60.5,0-109.5,49-109.5,109.5S65.7,239,126.2,239s109.5-49,109.5-109.5S186.6,20,126.2,20z M153.7,196.5
				c-6.4,2-14.9,3-25.6,3H73.7V178v-15.8V141v-16V56.4h52.8c11.9,0,21,0.9,27.2,2.7c8.4,2.5,15.6,6.9,21.6,13.2
				c6,6.3,10.5,14,13.7,23.2c3.1,9.1,4.7,20.4,4.7,33.8c0,11.8-1.5,21.9-4.4,30.5c-3.6,10.4-8.7,18.8-15.3,25.3
				C169,190,162.2,193.8,153.7,196.5z M190.6,202c-1.3,0-2.4-1.1-2.4-2.4c0-1.3,1.1-2.4,2.4-2.4c1.3,0,2.4,1.1,2.4,2.4
				C193,200.9,191.9,202,190.6,202z M195,196.1c-1.7,1.8-4.3-0.9-2.7-2.7c16.6-17.6,25.7-40.5,25.9-64.7c0-2.4,3.8-2.4,3.8,0
				C221.8,153.9,212.3,177.8,195,196.1z"/>
		</g>
		<g>
			<path d="M152.7,88.7c-3.5-3.3-8-5.6-13.4-6.7c-4-0.9-11.9-1.4-23.7-1.4h-13v94.8h11.7h9.9c4,0,7.4-0.1,10.3-0.3l7.2-1
				c4.7-1.2,8.6-3.2,11.7-6c3.1-2.8,5.6-7.4,7.6-13.8c2-6.4,2.9-15.2,2.9-26.2c0-11.1-1-19.6-2.9-25.5
				C158.9,96.7,156.2,92,152.7,88.7z"/>
		</g>
	</g>
</g>
</svg>
