<?xml version="1.0" encoding="utf-8"?>
<!-- Generator: Adobe Illustrator 23.0.3, SVG Export Plug-In . SVG Version: 6.00 Build 0)  -->
<svg version="1.1" xmlns="http://www.w3.org/2000/svg" xmlns:xlink="http://www.w3.org/1999/xlink" x="0px" y="0px"
	 viewBox="0 0 256 256" style="enable-background:new 0 0 256 256;" xml:space="preserve">
<style type="text/css">
	.st0{display:none;}
	.st1{display:inline;}
</style>
<g id="SOURCE" class="st0">
	<g class="st1">
		<g>
			<path d="M151.4,158.7c0-5.6,0-11.2,0-16.9c0-5.3,0.9-11.5-0.2-16.7c-2.5-12.3-16.1-10-25.5-10c-26.5,0-53,0-79.6,0
				c-15.8,0-12.5,19-12.5,29.5c0,9.6,0,19.3,0,28.9c0,11.9,0,23.9,0,35.8c0,6-1.2,13.4,2.3,18.7c2.8,4.2,7.6,4.8,12.1,4.8
				c27.3,0,54.5,0,81.8,0c3.2,0,6.3,0,9.5,0c6.9,0,12-5.7,12-12.4c0-11.7,0-23.5,0-35.2c0-2.4-3.7-2.4-3.7,0c0,11.7,0,23.5,0,35.2
				c0,6.9-5.5,8.7-11.1,8.7c-5.1,0-10.3,0-15.4,0c-25.2,0-50.4,0-75.6,0c-10.2,0-8.1-13.1-8.1-19.7c0-4.9,0-9.9,0-14.8
				c0-12.1,0-24.2,0-36.2c0-10.4,0-20.9,0-31.3c0-7.8,7.2-8.1,12.8-8.1c5.7,0,11.4,0,17.1,0c22,0,44.1,0,66.1,0c2,0,4,0,6,0
				c7.1,0,8.3,6.2,8.3,11.7c0,9.4,0,18.8,0,28.2C147.6,161.2,151.4,161.2,151.4,158.7L151.4,158.7z"/>
		</g>
	</g>
	<g class="st1">
		<g>
			<path d="M103.4,168.7c0.5-7.9,7.2-8.1,13.2-8.1c6.1,0,12.3,0,18.4,0c4.6,0,9.1,0,13.7,0c8.7,0,9,7.6,9,14.1
				c0,7.9-7.5,8.1-13.2,8.1c-6.1,0-12.3,0-18.4,0c-4.6,0-9.1,0-13.7,0C103.6,182.8,103.4,175.2,103.4,168.7c0-2.4-3.8-2.4-3.8,0
				c0,7.9,0.7,15.8,10,17.7c4.8,1,10.5,0.2,15.4,0.2c7.3,0,14.6,0,21.9,0c6.9,0,12.8-2.7,14.3-10c1.4-6.7,0-16.3-7.3-18.9
				c-4.9-1.7-11-0.9-16.1-0.9c-7.5,0-15.1,0-22.6,0c-5.9,0-12.4,0.9-14.7,7.5c-0.5,1.5-0.7,2.8-0.9,4.4
				C99.4,171.1,103.2,171.1,103.4,168.7z"/>
		</g>
	</g>
	<g class="st1">
		<g>
			<path d="M51.7,116.7c0-4.5,0-9,0-13.5c0-5.9,3.1-9.3,8.7-9.3c10.3,0,20.6,0,30.9,0c10.5,0,21,0,31.5,0c5.2,0,9.1,2.4,9.1,8.5
				c0,4.7,0,9.3,0,14c0,2.4,3.8,2.4,3.8,0c0-8.9,2.6-26.2-10.9-26.2c-11.2,0-22.3,0-33.5,0c-10.9,0-21.8,0-32.7,0
				c-13.4,0-10.7,17.8-10.7,26.6C47.9,119.1,51.7,119.1,51.7,116.7L51.7,116.7z"/>
		</g>
	</g>
	<g class="st1">
		<g>
			<path d="M51.7,103.2c0-7.3-3.3-26.6,7.7-26.6c10.7,0,21.3,0,32,0c10.9,0,21.8,0,32.6,0c6.4,0,8,5.5,8,11c0,5.2,0,10.3,0,15.5
				c0,2.4,3.8,2.4,3.8,0c0-8.6,3.5-30.2-10.3-30.2c-11,0-22.1,0-33.1,0c-11.3,0-22.7,0-34,0c-14,0-10.4,21.6-10.4,30.4
				C47.9,105.6,51.7,105.6,51.7,103.2L51.7,103.2z"/>
		</g>
	</g>
	<g class="st1">
		<g>
			<path d="M63.1,103.9c18.8,0,37.5,0,56.3,0c2.4,0,2.4-3.8,0-3.8c-18.8,0-37.5,0-56.3,0C60.7,100.1,60.7,103.9,63.1,103.9
				L63.1,103.9z"/>
		</g>
	</g>
	<g class="st1">
		<g>
			<path d="M63.1,84.4c18.8,0,37.5,0,56.3,0c2.4,0,2.4-3.8,0-3.8c-18.8,0-37.5,0-56.3,0C60.7,80.6,60.7,84.4,63.1,84.4L63.1,84.4z"
				/>
		</g>
	</g>
	<g class="st1">
		<g>
			<g>
				<path d="M134.9,80.3c13.1-19,25.9-38.3,38.7-57.6c-1.1,0-2.2,0-3.2,0c17.6,26.6,35.3,53.2,52.9,79.8c0.7-0.9,1.4-1.8,2.1-2.8
					c-16.7-7-33.5-14.1-50.2-21.1c-1.5-0.6-2.8-1.5-4.4-0.9c-3.9,1.7-7.9,3.3-11.8,5c-8.3,3.5-16.7,7-25,10.5
					c-2.2,0.9-1.2,4.6,1,3.6c8-3.4,16.1-6.8,24.1-10.1c4-1.7,8-3.4,12-5.1c1.5-0.6,1.1-0.3,0.5-0.5c1,0.4,2,0.8,3,1.3
					c16.6,7,33.2,13.9,49.7,20.9c1.5,0.6,3-1.5,2.1-2.8c-17.6-26.6-35.3-53.2-52.9-79.8c-0.8-1.2-2.4-1.2-3.2,0
					c-12.8,19.3-25.5,38.6-38.7,57.6C130.3,80.4,133.5,82.3,134.9,80.3L134.9,80.3z"/>
			</g>
		</g>
		<g>
			<g>
				<path d="M156.4,181.6c4.6,7.1,9.3,14.2,13.9,21.3c0.8,1.2,2.4,1.2,3.2,0c17.6-26.6,35.3-53.2,52.9-79.8c1-1.6-1-3.5-2.6-2.6
					c-13.9,8.7-27.8,17.5-41.6,26.2c-3,1.9-5.9,3.7-8.9,5.6c-0.7,0.4-1.4,0.9-2.1,1.3c0.2-0.2,2.5,0.7,0.3-0.7
					c-6.9-4.4-13.8-8.7-20.8-13.1c-2.1-1.3-3.9,2-1.9,3.2c7.4,4.6,14.7,9.3,22.1,13.9c0.5,0.3,1.3,0.3,1.9,0
					c17.6-11.1,35.3-22.2,52.9-33.3c-0.9-0.9-1.7-1.7-2.6-2.6c-17.6,26.6-35.3,53.2-52.9,79.8c1.1,0,2.2,0,3.2,0
					c-4.6-7.1-9.3-14.2-13.9-21.3C158.3,177.7,155,179.6,156.4,181.6L156.4,181.6z"/>
			</g>
		</g>
		<g>
			<g>
				<path d="M135.3,107.7c8-3.5,15.9-7,23.9-10.5c4.1-1.8,8.3-3.6,12.4-5.4c2.2-1,1.4,0-0.1-0.7c0.9,0.4,1.8,0.8,2.6,1.2
					c16.6,7.2,33.2,14.5,49.8,21.7c0-1.1,0-2.2,0-3.2c-13.7,8.4-27.5,16.8-41.2,25.2c-3,1.8-6,3.7-9,5.5c-0.7,0.4-1.4,0.9-2.1,1.3
					c0.3-0.2,2.5,0.7,0.2-0.7c-6.9-4.2-13.8-8.5-20.7-12.7c-2.1-1.3-3.9,2-1.9,3.2c7.4,4.5,14.7,9.1,22.1,13.6
					c0.6,0.3,1.3,0.3,1.9,0c17.5-10.7,35.1-21.5,52.6-32.2c1.1-0.7,1.4-2.6,0-3.2c-16.9-7.4-33.8-14.7-50.6-22.1
					c-1.7-0.7-2.7-1.3-4.5-0.5c-3.9,1.7-7.8,3.4-11.6,5.1c-8.5,3.7-17.1,7.5-25.6,11.2C131.2,105.5,133.1,108.7,135.3,107.7
					L135.3,107.7z"/>
			</g>
		</g>
	</g>
</g>
<g id="Line_Expand">
	<g>
		<path d="M37.4,195.8c0-8.2,0-16.3,0-24.5c0-2.4-3.8-2.4-3.8,0c0,8.2,0,16.3,0,24.5C33.6,198.2,37.4,198.2,37.4,195.8z"/>
		<path d="M119.4,100.1c-18.8,0-37.5,0-56.3,0c-2.4,0-2.4,3.8,0,3.8c18.8,0,37.5,0,56.3,0C121.8,103.9,121.8,100.1,119.4,100.1z"/>
		<path d="M63.1,84.4c18.8,0,37.5,0,56.3,0c2.4,0,2.4-3.8,0-3.8c-18.8,0-37.5,0-56.3,0C60.7,80.6,60.7,84.4,63.1,84.4z"/>
		<path d="M202.7,159c7.9-11.9,15.8-23.9,23.8-35.8c1-1.6-1-3.5-2.6-2.6c-13.9,8.7-27.8,17.5-41.6,26.2c-3,1.9-5.9,3.7-8.9,5.6
			c-0.5,0.3-1,0.6-1.4,0.9c-0.1-0.1-0.2-0.2-0.4-0.3c-6.7-4.2-13.4-8.4-20.1-12.7c0.1-2,0.2-4.2,0.3-6.3c6.5,4,13.1,8.1,19.6,12.1
			c0.6,0.3,1.3,0.3,1.9,0c17.5-10.7,35.1-21.5,52.6-32.2c1.1-0.7,1.4-2.6,0-3.2c-16.9-7.4-33.8-14.7-50.6-22.1
			c-1.7-0.7-2.7-1.3-4.5-0.5c-3.9,1.7-7.8,3.4-11.6,5.1c-7.8,3.4-15.5,6.8-23.3,10.2c0-0.2,0-0.4-0.1-0.7c0-1.7,0.1-3.9,0.3-6.4
			c7.7-3.2,15.4-6.5,23.1-9.7c4-1.7,8-3.4,12-5.1c0.4-0.2,0.7-0.3,0.9-0.3c0.9,0.4,1.8,0.7,2.7,1.1c16.6,7,33.2,13.9,49.7,20.9
			c1.5,0.6,3-1.5,2.1-2.8c-17.6-26.6-35.3-53.2-52.9-79.8c-0.8-1.2-2.4-1.2-3.2,0c-7,10.5-14,21-20.9,31.6c-1.3,2,1.9,3.9,3.2,1.9
			c6.4-9.7,12.9-19.4,19.3-29.1c16,24.1,32,48.2,48,72.3c-14.9-6.3-29.8-12.5-44.7-18.8c-1.5-0.6-2.8-1.5-4.4-0.9
			c-3.9,1.7-7.9,3.3-11.8,5c-7.6,3.2-15.2,6.4-22.8,9.6c0.1-4.1-0.2-8.4-1.3-12c0,0,0,0,0,0c3.9-5.7,7.9-11.4,11.8-17.1
			c1.4-2-1.9-3.9-3.2-1.9c-3.5,5-7,10.1-10.5,15.1c-1.6-2.3-4-3.7-7.6-3.7c-11,0-22.1,0-33.1,0c-11.3,0-22.7,0-34,0
			c-13.7,0-10.5,20.8-10.4,29.9c-0.4,4.3-0.1,8.9,0,12.5c-0.6,0-1.2,0-1.8,0c-8.7,0-12.5,6.7-12.5,14.5c0,8.3,0,16.6,0,24.9
			c0,2.4,3.8,2.4,3.8,0c0-5.9,0-11.8,0-17.6c0-6.5-1.7-18,8.2-18c9.6,0,19.2,0,28.9,0c15.8,0,31.7,0,47.5,0c5,0,10,0,15,0
			c5.7,0,10.7,2.4,10.7,9.1c0,9.5,0,19.1,0,28.7c-3.3-0.1-6.7,0.2-9.8,0.2c-7.5,0-15.1,0-22.6,0c-5.9,0-12.4,0.9-14.7,7.5
			c-0.5,1.5-0.7,2.8-0.9,4.4c0,7.9,0.7,15.8,10,17.7c4.8,1,10.5,0.2,15.4,0.2c7.3,0,14.6,0,21.9,0c0.2,0,0.4,0,0.7,0
			c0,11.3,0,22.6,0,33.9c0,6.9-5.5,8.7-11.1,8.7c-5.1,0-10.3,0-15.4,0c-25.2,0-50.4,0-75.6,0c-4.7,0-7.8-3.7-8.1-8.1
			c-0.2-2.4-3.9-2.4-3.8,0c0.9,13.6,14.5,11.9,24.2,11.9c15.4,0,30.7,0,46.1,0c11.5,0,23,0,34.5,0c6.4,0,11.5-3.6,12.8-10
			c1-4.9,0.2-10.8,0.2-15.8c0-7,0-14,0-21c2.3-0.5,4.4-1.4,6.1-2.8c4.3,6.6,8.6,13.1,12.9,19.7c0.8,1.2,2.4,1.2,3.2,0
			c2-3.1,4.1-6.1,6.1-9.2c1.3-2-1.9-3.9-3.2-1.9c-1.5,2.2-3,4.5-4.5,6.7c-4-6.1-8-12.3-12-18.4c0.6-1.1,1-2.3,1.3-3.7
			c1.4-6.7,0-16.3-7.3-18.9c-0.8-0.3-1.7-0.5-2.5-0.6c0-4.1,0-8.1,0-12.2c6.5,4.1,13.1,8.2,19.6,12.3c0.5,0.3,1.3,0.3,1.9,0
			c15.2-9.6,30.4-19.1,45.6-28.7c-6.3,9.5-12.7,19.1-19,28.6C198.1,159.1,201.4,161,202.7,159z M157.6,174.7c0,7.9-7.5,8.1-13.2,8.1
			c-6.1,0-12.3,0-18.4,0c-4.6,0-9.1,0-13.7,0c-8.7,0-9-7.6-9-14.1c0.5-7.9,7.2-8.1,13.2-8.1c6.1,0,12.3,0,18.4,0c4.6,0,9.1,0,13.7,0
			C157.4,160.5,157.6,168.1,157.6,174.7z M172.8,91.4C173,91.3,172.9,91.4,172.8,91.4L172.8,91.4z M59.4,76.5c10.7,0,21.3,0,32,0
			c10.9,0,21.8,0,32.6,0c6.4,0,8,5.5,8,11c0,1.7,0,3.5,0,5.2c-1.6-1.6-3.9-2.6-7.2-2.6c-11.2,0-22.3,0-33.5,0c-10.9,0-21.8,0-32.7,0
			c-3.4,0-5.8,1.2-7.4,3C51.1,85.2,52.1,76.5,59.4,76.5z M51.7,115.1c0-4,0-8,0-11.9c0-5.9,3.1-9.3,8.7-9.3c10.3,0,20.6,0,30.9,0
			c10.5,0,21,0,31.5,0c5.2,0,9.1,2.4,9.1,8.5c0,0.2,0,0.5,0,0.7c0,4,0,8,0,12c-2.2,0-4.3,0.1-6.2,0.1
			C101,115.1,76.4,115.1,51.7,115.1z M135.7,115c0-2.2,0.2-4.8,0.2-7.5c7.8-3.4,15.5-6.8,23.3-10.2c4.1-1.8,8.3-3.6,12.4-5.4
			c0.3-0.1,0.6-0.2,0.8-0.3c0.6,0.3,1.2,0.5,1.7,0.8c15.6,6.8,31.2,13.6,46.8,20.4c-12.7,7.8-25.4,15.5-38.1,23.3
			c-3,1.8-6,3.7-9,5.5c-0.5,0.3-1,0.6-1.5,0.9c-0.1-0.1-0.3-0.2-0.5-0.3c-6.7-4.1-13.4-8.2-20.1-12.4c-0.1-1.6-0.2-3.1-0.5-4.6
			C149.5,116.8,142.8,115.2,135.7,115z"/>
		<path d="M193.5,166.1c-2.6,4-5.3,8-7.9,12c-1.3,2,1.9,3.9,3.2,1.9c2.6-4,5.3-8,7.9-12C198.1,166,194.8,164.1,193.5,166.1z"/>
	</g>
</g>
<g id="Glyph" class="st0">
	<g class="st1">
		<path d="M58.6,90.1c10.9,0,21.8,0,32.7,0c11.2,0,22.3,0,33.5,0c3.2,0,5.5,1,7.2,2.6c0-1.7,0-3.5,0-5.2c0-5.5-1.5-11-8-11
			c-10.9,0-21.8,0-32.6,0c-10.7,0-21.3,0-32,0c-7.3,0-8.3,8.7-8.1,16.6C52.9,91.3,55.3,90.1,58.6,90.1z M63.1,80.6
			c18.8,0,37.5,0,56.3,0c2.4,0,2.4,3.8,0,3.8c-18.8,0-37.5,0-56.3,0C60.7,84.4,60.7,80.6,63.1,80.6z"/>
		<path d="M172.8,91.4C172.9,91.4,173,91.3,172.8,91.4L172.8,91.4z"/>
		<path d="M171,157.2c-6.5-4.1-13.1-8.2-19.6-12.3c0,4.1,0,8.1,0,12.2c0.9,0.2,1.7,0.4,2.5,0.6c7.4,2.6,8.7,12.2,7.3,18.9
			c-0.3,1.4-0.7,2.6-1.3,3.7c4,6.1,8,12.3,12,18.4c15.5-23.4,31-46.7,46.5-70.1c-15.2,9.6-30.4,19.1-45.6,28.7
			C172.3,157.5,171.5,157.5,171,157.2z"/>
		<path d="M171.5,91.8c-4.1,1.8-8.3,3.6-12.4,5.4c-7.8,3.4-15.5,6.8-23.3,10.2c0,2.7-0.1,5.3-0.2,7.5c7.1,0.2,13.8,1.9,15.5,10.2
			c0.3,1.5,0.4,3,0.5,4.6c6.7,4.1,13.4,8.2,20.1,12.4c0.2,0.1,0.3,0.2,0.5,0.3c0.5-0.3,1-0.6,1.5-0.9c3-1.8,6-3.7,9-5.5
			c12.7-7.8,25.4-15.5,38.1-23.3c-15.6-6.8-31.2-13.6-46.8-20.4c-0.6-0.3-1.2-0.5-1.7-0.8C172.1,91.6,171.9,91.7,171.5,91.8z"/>
		<path d="M136.1,92.3c7.6-3.2,15.2-6.4,22.8-9.6c3.9-1.7,7.9-3.3,11.8-5c1.6-0.7,2.9,0.2,4.4,0.9c14.9,6.3,29.8,12.5,44.7,18.8
			c-16-24.1-32-48.2-48-72.3c-12.2,18.5-24.5,36.9-37.1,55.1c0,0,0,0,0,0C135.9,83.9,136.2,88.2,136.1,92.3z"/>
		<path d="M91.3,93.9c-10.3,0-20.6,0-30.9,0c-5.6,0-8.7,3.4-8.7,9.3c0,4,0,8,0,11.9c24.7,0,49.4,0,74,0c1.9,0,4.1-0.1,6.2-0.1
			c0-4,0-8,0-12c0-0.2,0-0.5,0-0.7c0-6.1-3.9-8.5-9.1-8.5C112.3,93.9,101.8,93.9,91.3,93.9z M119.4,103.9c-18.8,0-37.5,0-56.3,0
			c-2.4,0-2.4-3.8,0-3.8c18.8,0,37.5,0,56.3,0C121.8,100.1,121.8,103.9,119.4,103.9z"/>
		<path d="M125.1,186.5c-4.9,0-10.6,0.8-15.4-0.2c-9.3-1.9-10-9.8-10-17.7c0.1-1.6,0.3-2.9,0.9-4.4c2.3-6.6,8.8-7.5,14.7-7.5
			c7.5,0,15.1,0,22.6,0c3.1,0,6.5-0.3,9.8-0.2c0-8.7,0-17.4,0-26.1c0-5.5-1.2-11.7-8.3-11.7c-2,0-4,0-6,0c-22,0-44.1,0-66.1,0
			c-5.7,0-11.4,0-17.1,0c-5.6,0-12.8,0.3-12.8,8.1c0,10.4,0,20.9,0,31.3c0,12.1,0,24.2,0,36.2c0,4.9,0,9.9,0,14.8
			c0,6.7-2.1,19.7,8.1,19.7c25.2,0,50.4,0,75.6,0c5.1,0,10.3,0,15.4,0c5.6,0,11.1-1.8,11.1-8.7c0-11.3,0-22.6,0-33.9
			c-0.2,0-0.4,0-0.7,0C139.6,186.5,132.4,186.5,125.1,186.5z"/>
		<path d="M148.7,160.5c-4.6,0-9.1,0-13.7,0c-6.1,0-12.3,0-18.4,0c-5.9,0-12.6,0.2-13.2,8.1c0,6.6,0.2,14.1,9,14.1
			c4.6,0,9.1,0,13.7,0c6.1,0,12.3,0,18.4,0c5.7,0,13.2-0.2,13.2-8.1C157.6,168.1,157.4,160.5,148.7,160.5z"/>
	</g>
</g>
</svg>
