<?xml version="1.0" encoding="utf-8"?>
<!-- Generator: Adobe Illustrator 23.0.3, SVG Export Plug-In . SVG Version: 6.00 Build 0)  -->
<svg version="1.1" xmlns="http://www.w3.org/2000/svg" xmlns:xlink="http://www.w3.org/1999/xlink" x="0px" y="0px"
	 viewBox="0 0 256 256" style="enable-background:new 0 0 256 256;" xml:space="preserve">
<style type="text/css">
	.st0{display:none;}
	.st1{display:inline;}
</style>
<g id="SOURCE" class="st0">
	<g class="st1">
		<g>
			<path d="M219.6,127.8c-0.2,24.2-9.3,47.1-25.9,64.7c-1.7,1.8,1,4.4,2.7,2.7c17.2-18.4,26.8-42.2,27-67.4
				C223.3,125.3,219.6,125.3,219.6,127.8L219.6,127.8z"/>
		</g>
	</g>
	<circle class="st1" cx="191.9" cy="198.6" r="2.4"/>
	<g class="st1">
		<g>
			<path d="M178.1,168.5c2.9-2.9,5.7-5.7,8.6-8.6c0.7-0.7,0.8-2,0-2.7c-6.2-5.4-12.4-10.8-18.5-16.2c-0.8-0.7-1.9-0.8-2.7,0
				c-6.1,6.1-12.3,12.3-18.4,18.4c-4.2,4.2-8.3,8.3-12.5,12.5c-3.3,3.3-6.3,7.5-11.7,6.2c-3-0.7-6.2-5.1-8.1-7.1
				c-4.2-4.2-8.5-8.5-12.7-12.7c-6.3-6.3-12.5-12.5-18.8-18.8c-0.7-0.7-1.9-0.7-2.7,0c-6.3,5.9-12.6,11.8-18.9,17.7
				c-0.7,0.7-0.7,1.9,0,2.7c17.2,17.2,34.5,34.5,51.7,51.7c3.2,3.2,5.8,5.9,10.8,6.3c6.5,0.5,12.2-7.7,16.1-11.7
				c7.8-7.8,15.6-15.6,23.3-23.3C168.5,178.1,173.3,173.3,178.1,168.5c1.7-1.7-0.9-4.4-2.7-2.7c-15.4,15.4-30.8,30.8-46.3,46.3
				c-5.6,5.6-10.9-0.9-14.6-4.7c-4.7-4.7-9.4-9.4-14.1-14.1c-10.5-10.5-20.9-20.9-31.4-31.4c-1.6-1.6-3.1-3.1-4.7-4.7
				c0,0.9,0,1.8,0,2.7c6.3-5.9,12.6-11.8,18.9-17.7c-0.9,0-1.8,0-2.7,0c6.7,6.7,13.5,13.5,20.2,20.2c4.3,4.3,8.5,8.5,12.8,12.8
				c3,3,5.4,5.9,9.7,6.9c4.8,1.1,8.4-1.9,11.5-5c4.1-4.1,8.1-8.1,12.2-12.2c7.1-7.1,14.1-14.1,21.2-21.2c-0.9,0-1.8,0-2.7,0
				c6.2,5.4,12.4,10.8,18.5,16.2c0-0.9,0-1.8,0-2.7c-2.9,2.9-5.7,5.7-8.6,8.6C173.8,167.5,176.4,170.2,178.1,168.5z"/>
		</g>
	</g>
	<g class="st1">
		<g>
			<path d="M107.7,69.7c3.1-3.1,6.2-6.2,9.3-9.3c3.7-3.7,8.2-6.1,12.7-1.6c5.6,5.6,11.2,11.2,16.9,16.9
				C159.1,88,171.6,100.5,184,113c0-0.9,0-1.8,0-2.7c-6.2,5.4-12.4,10.8-18.5,16.2c0.9,0,1.8,0,2.7,0c-6.8-6.8-13.7-13.7-20.5-20.5
				c-4.1-4.1-8.1-8.1-12.2-12.2c-3.4-3.4-6.5-6.2-11.7-5.8c-4,0.3-6.7,3.5-9.3,6.1c-4.3,4.3-8.6,8.6-12.9,12.9
				c-7,7-13.9,13.9-20.9,20.9c0.9,0,1.8,0,2.7,0c-6.3-5.9-12.6-11.8-18.9-17.7c0,0.9,0,1.8,0,2.7C78.8,98.6,93.3,84.1,107.7,69.7
				c1.7-1.7-0.9-4.4-2.7-2.7c-14.4,14.4-28.9,28.9-43.3,43.3c-0.7,0.7-0.7,2,0,2.7c6.3,5.9,12.6,11.8,18.9,17.7
				c0.7,0.7,1.9,0.7,2.7,0c12.3-12.3,24.6-24.6,36.9-36.9c5.4-5.4,10.4,0.4,14,4c4.1,4.1,8.2,8.2,12.3,12.3
				c6.4,6.4,12.7,12.7,19.1,19.1c0.8,0.8,1.9,0.7,2.7,0c6.2-5.4,12.4-10.8,18.5-16.2c0.8-0.7,0.7-2,0-2.7
				c-13.7-13.7-27.5-27.5-41.2-41.2c-4.8-4.8-9.5-10.1-14.7-14.5c-9.5-8.1-19.9,6.7-25.7,12.5C103.3,68.8,106,71.4,107.7,69.7z"/>
		</g>
	</g>
	<g class="st1">
		<g>
			<path d="M61.7,152.2c5.1-5.1,10.3-10.3,15.4-15.4c0.7-0.7,0.7-1.9,0-2.7c-5.1-5.1-10.3-10.3-15.4-15.4c-0.7-0.7-1.9-0.7-2.7,0
				c-5.1,5.1-10.3,10.3-15.4,15.4c-0.7,0.7-0.7,1.9,0,2.7c5.1,5.1,10.3,10.3,15.4,15.4c1.7,1.7,4.4-0.9,2.7-2.7
				c-5.1-5.1-10.3-10.3-15.4-15.4c0,0.9,0,1.8,0,2.7c5.1-5.1,10.3-10.3,15.4-15.4c-0.9,0-1.8,0-2.7,0c5.1,5.1,10.3,10.3,15.4,15.4
				c0-0.9,0-1.8,0-2.7c-5.1,5.1-10.3,10.3-15.4,15.4C57.4,151.3,60,154,61.7,152.2z"/>
		</g>
	</g>
	<g class="st1">
		<g>
			<path d="M125.7,151.1c-6.2-6.2-12.4-12.4-18.7-18.7c0,0.9,0,1.8,0,2.7c6.2-6.2,12.4-12.4,18.7-18.7c-0.9,0-1.8,0-2.7,0
				c6.2,6.2,12.4,12.4,18.7,18.7c0-0.9,0-1.8,0-2.7c-6.2,6.2-12.4,12.4-18.7,18.7c-1.7,1.7,0.9,4.4,2.7,2.7
				c6.2-6.2,12.4-12.4,18.7-18.7c0.7-0.7,0.7-1.9,0-2.7c-6.2-6.2-12.4-12.4-18.7-18.7c-0.7-0.7-1.9-0.7-2.7,0
				c-6.2,6.2-12.4,12.4-18.7,18.7c-0.7,0.7-0.7,1.9,0,2.7c6.2,6.2,12.4,12.4,18.7,18.7C124.8,155.5,127.5,152.8,125.7,151.1z"/>
		</g>
	</g>
	<g class="st1">
		<g>
			<path d="M200.8,134.2c-5.1,5.1-10.3,10.3-15.4,15.4c0.9,0,1.8,0,2.7,0c-5.1-5.1-10.3-10.3-15.4-15.4c0,0.9,0,1.8,0,2.7
				c5.1-5.1,10.3-10.3,15.4-15.4c-0.9,0-1.8,0-2.7,0c5.1,5.1,10.3,10.3,15.4,15.4c1.7,1.7,4.4-0.9,2.7-2.7
				c-5.1-5.1-10.3-10.3-15.4-15.4c-0.7-0.7-1.9-0.7-2.7,0c-5.1,5.1-10.3,10.3-15.4,15.4c-0.7,0.7-0.7,1.9,0,2.7
				c5.1,5.1,10.3,10.3,15.4,15.4c0.7,0.7,1.9,0.7,2.7,0c5.1-5.1,10.3-10.3,15.4-15.4C205.1,135.1,202.5,132.5,200.8,134.2z"/>
		</g>
	</g>
	<g class="st1">
		<g>
			<path d="M233.8,128.6c-0.3,46.9-31,88.7-75.8,102.8c-45.1,14.2-95-4.1-121.3-43c-26.5-39.1-23.2-92.5,6.8-128.8
				c30.1-36.4,82-48.4,125.3-30C208.1,46.4,233.5,86.1,233.8,128.6c0,2.4,3.8,2.4,3.8,0c-0.3-44.1-26.5-84.3-66.9-102.1
				C130.1,8.6,82,17.5,49.8,47.5C17.2,77.8,6.5,126.2,21.9,167.7c15.1,40.9,54.1,69,97.3,72c30.6,2.1,61-9.3,83.4-30.1
				c22.4-20.8,34.8-50.6,35-81C237.6,126.1,233.8,126.1,233.8,128.6z"/>
		</g>
	</g>
</g>
<g id="Line_Expand">
	<g>
		<path d="M232.8,94.1c-3.3-9.8-7.8-19-13.5-27.6c-1.3-2-4.6-0.1-3.2,1.9c5.5,8.3,9.9,17.2,13.1,26.7
			C230,97.3,233.6,96.4,232.8,94.1z"/>
		<path d="M89.1,233.5c41.7,15.4,89.7,3,119.8-29.3c19-20.4,29.3-47.7,29.5-75.5c0-2.4-3.7-2.4-3.8,0c-0.3,46.9-31,88.7-75.8,102.8
			c-45.1,14.2-95-4.1-121.3-43C11,149.5,14.3,96.1,44.2,59.9c32-38.7,88-49.4,132.4-26.6c10.4,5.3,19.8,12.6,27.9,20.9
			c1.7,1.7,4.3-0.9,2.7-2.7C172.9,16.3,119,7.5,75.3,30C36.1,50.3,12.9,93.3,15.9,137.1C18.9,180.6,48.5,218.5,89.1,233.5z"/>
		<path d="M196.3,195.1c17.2-18.4,26.8-42.2,27-67.4c0-2.4-3.7-2.4-3.8,0c-0.2,24.2-9.3,47.1-25.9,64.7
			C192,194.2,194.6,196.9,196.3,195.1z"/>
		<circle cx="191.9" cy="198.6" r="2.4"/>
		<path d="M178.1,168.5c2.9-2.9,5.7-5.7,8.6-8.6c0.7-0.7,0.8-2,0-2.7c-6.2-5.4-12.4-10.8-18.5-16.2c-0.8-0.7-1.9-0.8-2.7,0
			c-6.1,6.1-12.3,12.3-18.4,18.4c-4.2,4.2-8.3,8.3-12.5,12.5c-3.3,3.3-6.3,7.5-11.7,6.2c-3-0.7-6.2-5.1-8.1-7.1
			c-4.2-4.2-8.5-8.5-12.7-12.7c-6.3-6.3-12.5-12.5-18.8-18.8c-0.7-0.7-1.9-0.7-2.7,0c-6.3,5.9-12.6,11.8-18.9,17.7
			c-0.7,0.7-0.7,1.9,0,2.7c13.9,14,27.9,27.9,41.8,41.8c4.9,4.9,9.7,11.3,15.7,14.9c5.4,3.3,10.8-0.2,14.6-4
			c3.6-3.6,7.3-7.3,10.9-10.9c1.7-1.7-0.9-4.4-2.7-2.7c-4.9,4.9-15.6,20.2-23.2,12.6c-5.3-5.3-10.6-10.6-15.8-15.8
			c-12.4-12.4-24.9-24.9-37.3-37.3c5.4-5,10.8-10.1,16.1-15.1c6.3,6.3,12.6,12.6,18.9,18.9c4.3,4.3,8.5,8.5,12.8,12.8
			c3,3,5.4,5.9,9.7,6.9c4.8,1.1,8.4-1.9,11.5-5c4.1-4.1,8.1-8.1,12.2-12.2c6.6-6.6,13.3-13.3,19.9-19.9c5.2,4.6,10.5,9.2,15.7,13.7
			c-2.4,2.4-4.8,4.8-7.2,7.2C173.8,167.5,176.4,170.2,178.1,168.5z"/>
		<path d="M165,176.3c-4.2,4.2-8.4,8.4-12.7,12.7c-1.7,1.7,0.9,4.4,2.7,2.7c4.2-4.2,8.4-8.4,12.7-12.7
			C169.3,177.2,166.7,174.6,165,176.3z"/>
		<path d="M85.6,91.8c4.5-4.5,8.9-8.9,13.4-13.4c1.7-1.7-0.9-4.4-2.7-2.7c-4.5,4.5-8.9,8.9-13.4,13.4C81.2,90.9,83.9,93.5,85.6,91.8
			z"/>
		<path d="M72.8,99.3c-3.7,3.7-7.4,7.4-11,11c-0.7,0.7-0.7,2,0,2.7c6.3,5.9,12.6,11.8,18.9,17.7c0.7,0.7,1.9,0.7,2.7,0
			c12.3-12.3,24.6-24.6,36.9-36.9c5.4-5.4,10.4,0.4,14,4c4.1,4.1,8.2,8.2,12.3,12.3c6.4,6.4,12.7,12.7,19.1,19.1
			c0.8,0.8,1.9,0.7,2.7,0c6.2-5.4,12.4-10.8,18.5-16.2c0.8-0.7,0.7-2,0-2.7c-13.7-13.7-27.5-27.5-41.2-41.2
			c-4.8-4.8-9.5-10.1-14.7-14.5c-9.5-8.1-19.9,6.7-25.7,12.5c-1.7,1.7,0.9,4.4,2.7,2.7c3.1-3.1,6.2-6.2,9.3-9.3
			c3.7-3.7,8.2-6.1,12.7-1.6c5.6,5.6,11.2,11.2,16.9,16.9c12,12,24,24,36,36c-5.2,4.6-10.5,9.2-15.7,13.7
			c-6.4-6.4-12.8-12.8-19.3-19.2c-4.1-4.1-8.1-8.1-12.2-12.2c-3.4-3.4-6.5-6.2-11.7-5.8c-4,0.3-6.7,3.5-9.3,6.1
			c-4.3,4.3-8.6,8.6-12.9,12.9c-6.5,6.5-13.1,13.1-19.6,19.6c-5.4-5-10.8-10.1-16.1-15.1c3.2-3.2,6.4-6.4,9.7-9.7
			C77.2,100.2,74.5,97.6,72.8,99.3z"/>
		<path d="M59.1,149.6c-1.7,1.7,0.9,4.4,2.7,2.7c5.1-5.1,10.3-10.3,15.4-15.4c0.7-0.7,0.7-1.9,0-2.7c-5.1-5.1-10.3-10.3-15.4-15.4
			c-0.7-0.7-1.9-0.7-2.7,0c-5.1,5.1-10.3,10.3-15.4,15.4c-0.7,0.7-0.7,1.9,0,2.7c3.2,3.2,6.4,6.4,9.6,9.6c1.7,1.7,4.4-0.9,2.7-2.7
			c-2.8-2.8-5.5-5.5-8.3-8.3c4.3-4.3,8.5-8.5,12.8-12.8c4.3,4.3,8.5,8.5,12.8,12.8C68.5,140.2,63.8,144.9,59.1,149.6z"/>
		<path d="M123.1,113.8c-6.2,6.2-12.4,12.4-18.7,18.7c-0.7,0.7-0.7,1.9,0,2.7c6.2,6.2,12.4,12.4,18.7,18.7c0.4,0.4,0.8,0.5,1.3,0.5
			c0,0,0,0,0.1,0c0,0,0,0,0.1,0c0.4,0,0.9-0.2,1.3-0.5c6.2-6.2,12.4-12.4,18.7-18.7c0.7-0.7,0.7-1.9,0-2.7
			c-6.2-6.2-12.4-12.4-18.7-18.7C125,113,123.8,113,123.1,113.8z M124.4,149.8c-5.3-5.3-10.7-10.7-16-16c5.3-5.3,10.7-10.7,16-16
			c5.3,5.3,10.7,10.7,16,16C135.1,139.1,129.8,144.4,124.4,149.8z"/>
		<path d="M203.4,136.8c0.7-0.7,0.7-1.9,0-2.7c-3.2-3.2-6.4-6.4-9.6-9.6c-1.7-1.7-4.4,0.9-2.7,2.7c2.8,2.8,5.5,5.5,8.3,8.3
			c-4.3,4.3-8.5,8.5-12.8,12.8c-4.3-4.3-8.5-8.5-12.8-12.8c4.7-4.7,9.4-9.4,14.1-14.1c1.7-1.7-0.9-4.4-2.7-2.7
			c-5.1,5.1-10.3,10.3-15.4,15.4c-0.7,0.7-0.7,1.9,0,2.7c5.1,5.1,10.3,10.3,15.4,15.4c0.7,0.7,1.9,0.7,2.7,0
			C193.1,147.1,198.3,142,203.4,136.8z"/>
	</g>
</g>
<g id="Glyph" class="st0">
	<g class="st1">
		<path d="M126.2,19.1c-60.5,0-109.5,49-109.5,109.5s49,109.5,109.5,109.5s109.5-49,109.5-109.5S186.6,19.1,126.2,19.1z M74.1,100.6
			l10.1-10.1l13.4-13.4l8.7-8.8l11.6-11.6c3.5-3.5,9.1-3.5,12.6,0l54.8,54.8l-18.5,16.2l-35.4-35.4c-3.5-3.5-9.1-3.5-12.6,0
			L82,129.3l-18.9-17.7L74.1,100.6z M143.1,133.7l-18.7,18.7l-18.7-18.7l18.7-18.7L143.1,133.7z M45,135.5l15.4-15.4l15.4,15.4
			l-15.4,15.4L45,135.5z M176.8,167.1l-10.5,10.5l-12.7,12.7l-10.2,10.2l-12.9,12.9c-3.5,3.5-9.1,3.5-12.6,0l-54.8-54.8L82,140.9
			l36.9,36.9c3.5,3.5,9.1,3.5,12.6,0l35.4-35.4l18.5,16.2L176.8,167.1z M171.2,135.5l15.4-15.4l15.4,15.4l-15.4,15.4L171.2,135.5z
			 M191.9,201c-1.3,0-2.4-1.1-2.4-2.4c0-1.3,1.1-2.4,2.4-2.4s2.4,1.1,2.4,2.4C194.3,199.9,193.2,201,191.9,201z M196.3,195.1
			c-1.7,1.8-4.3-0.9-2.7-2.7c16.6-17.6,25.7-40.5,25.9-64.7c0-2.4,3.8-2.4,3.8,0C223.1,152.9,213.6,176.8,196.3,195.1z"/>
	</g>
</g>
</svg>
