<?xml version="1.0" encoding="utf-8"?>
<!-- Generator: Adobe Illustrator 23.0.3, SVG Export Plug-In . SVG Version: 6.00 Build 0)  -->
<svg version="1.1" xmlns="http://www.w3.org/2000/svg" xmlns:xlink="http://www.w3.org/1999/xlink" x="0px" y="0px"
	 viewBox="0 0 256 256" style="enable-background:new 0 0 256 256;" xml:space="preserve">
<style type="text/css">
	.st0{display:none;}
	.st1{display:inline;}
</style>
<g id="SOURCE" class="st0">
	<g class="st1">
		<g>
			<g>
				<g>
					<path d="M142.2,163.9c7.4,11-3,21.3-12.1,26.4c-12.6,7.1-27.9,9.2-42.1,9.3c-14.3,0.1-29.4-2.5-42.1-9.3
						C35,184.5,26.6,173.7,35.2,162c1.4-2-1.8-3.8-3.2-1.9c-8.2,11.2-3.2,22.6,6.9,30.2c13.1,9.9,31.4,12.6,47.4,13
						c16.6,0.4,34.7-2.7,48.9-11.7c9.9-6.2,17.7-18.5,10.3-29.6C144.1,160.1,140.9,161.9,142.2,163.9L142.2,163.9z"/>
				</g>
			</g>
			<g>
				<g>
					<path d="M141.4,182.9c7.8,11.8-1,21.6-11.3,27.4c-12.6,7.1-27.9,9.2-42.1,9.3c-14.3,0.1-29.4-2.5-42.1-9.3
						c-10.3-5.5-18.9-15.6-11.5-27.1c1.3-2-1.9-3.9-3.2-1.9c-7.4,11.5-1.4,22.6,8.7,29.7c13.6,9.6,32,12.2,48.2,12.3
						c16.4,0.1,34.3-3.1,48.2-12.3c10.4-7,16-18.7,8.5-30C143.3,179,140.1,180.9,141.4,182.9L141.4,182.9z"/>
				</g>
			</g>
			<g>
				<g>
					<path d="M143.6,154c-0.3,9.4-8.6,15.6-16.2,19.5c-11.7,6.1-25.4,8-38.4,8.1c-12.7,0.1-25.7-2.1-37.2-7.5
						c-8.1-3.8-17.1-10.4-17.4-20.1c-0.3-9.3,9-15.8,16.2-19.5c11.7-6.1,25.4-8,38.4-8.1c12.7-0.1,25.7,2.1,37.2,7.5
						C134.3,137.6,143.3,144.3,143.6,154c0.1,2.4,3.8,2.4,3.8,0c-0.6-20.5-28.1-28.2-44.2-30.4c-21.5-3-50.3-0.4-66.3,16.3
						c-5.2,5.4-7.5,12.8-5.2,20.1c2.7,8.3,10.8,13.8,18.2,17.5c22.1,10.9,51.4,10.7,74,1.8c10.8-4.2,23.1-12.4,23.5-25.2
						C147.4,151.6,143.7,151.6,143.6,154z"/>
				</g>
			</g>
		</g>
		<g>
			<g>
				<path d="M34.5,157.5c3.6-1,7.1-2,10.7-3c2.3-0.7,1.3-4.3-1-3.6c-3.6,1-7.1,2-10.7,3C31.2,154.5,32.2,158.1,34.5,157.5
					L34.5,157.5z"/>
			</g>
		</g>
		<g>
			<g>
				<path d="M142.5,153.9c-3.6-1-7.1-2-10.7-3c-2.3-0.7-3.3,3-1,3.6c3.6,1,7.1,2,10.7,3C143.8,158.1,144.8,154.5,142.5,153.9
					L142.5,153.9z"/>
			</g>
		</g>
		<g>
			<g>
				<path d="M92.2,183.3c0-4.1,0-8.2,0-12.3c0-2.4-3.8-2.4-3.8,0c0,4.1,0,8.2,0,12.3C88.5,185.8,92.2,185.8,92.2,183.3L92.2,183.3z"
					/>
			</g>
		</g>
		<g>
			<g>
				<path d="M48,191.8c0-3.4,0-6.9,0-10.3c0-2.4-3.8-2.4-3.8,0c0,3.4,0,6.9,0,10.3C44.2,194.3,48,194.3,48,191.8L48,191.8z"/>
			</g>
		</g>
		<g>
			<g>
				<path d="M38.8,204.7c0-3.4,0-6.9,0-10.3c0-2.4-3.8-2.4-3.8,0c0,3.4,0,6.9,0,10.3C35,207.1,38.8,207.1,38.8,204.7L38.8,204.7z"/>
			</g>
		</g>
		<g>
			<g>
				<path d="M68,198.1c0-3.4,0-6.9,0-10.3c0-2.4-3.8-2.4-3.8,0c0,3.4,0,6.9,0,10.3C64.2,200.5,68,200.5,68,198.1L68,198.1z"/>
			</g>
		</g>
		<g>
			<g>
				<path d="M54.5,213.3c0-3.4,0-6.9,0-10.3c0-2.4-3.8-2.4-3.8,0c0,3.4,0,6.9,0,10.3C50.7,215.7,54.5,215.7,54.5,213.3L54.5,213.3z"
					/>
			</g>
		</g>
		<g>
			<g>
				<path d="M92.7,200.1c0-3.4,0-6.9,0-10.3c0-2.4-3.8-2.4-3.8,0c0,3.4,0,6.9,0,10.3C89,202.5,92.7,202.5,92.7,200.1L92.7,200.1z"/>
			</g>
		</g>
		<g>
			<g>
				<path d="M77.5,218.6c0-3.4,0-6.9,0-10.3c0-2.4-3.8-2.4-3.8,0c0,3.4,0,6.9,0,10.3C73.8,221,77.5,221,77.5,218.6L77.5,218.6z"/>
			</g>
		</g>
		<g>
			<g>
				<path d="M104.9,218.6c0-3.4,0-6.9,0-10.3c0-2.4-3.8-2.4-3.8,0c0,3.4,0,6.9,0,10.3C101.1,221,104.9,221,104.9,218.6L104.9,218.6z
					"/>
			</g>
		</g>
		<g>
			<g>
				<path d="M128.5,212.8c0-3.9,0-7.8,0-11.8c0-2.4-3.8-2.4-3.8,0c0,3.9,0,7.8,0,11.8C124.8,215.3,128.5,215.3,128.5,212.8
					L128.5,212.8z"/>
			</g>
		</g>
		<g>
			<g>
				<path d="M141.7,204.3c0-3.6,0-7.2,0-10.8c0-2.4-3.8-2.4-3.8,0c0,3.6,0,7.2,0,10.8C138,206.8,141.7,206.8,141.7,204.3
					L141.7,204.3z"/>
			</g>
		</g>
		<g>
			<g>
				<path d="M121.2,196.3c0-3.8,0-7.6,0-11.3c0-2.4-3.8-2.4-3.8,0c0,3.8,0,7.6,0,11.3C117.5,198.8,121.2,198.8,121.2,196.3
					L121.2,196.3z"/>
			</g>
		</g>
		<g>
			<g>
				<path d="M138,187.6c0-3.4,0-6.9,0-10.3c0-2.4-3.8-2.4-3.8,0c0,3.4,0,6.9,0,10.3C134.2,190,138,190,138,187.6L138,187.6z"/>
			</g>
		</g>
		<g>
			<g>
				<path d="M92.2,138.3c0-4.1,0-8.2,0-12.3c0-2.4-3.8-2.4-3.8,0c0,4.1,0,8.2,0,12.3C88.5,140.8,92.2,140.8,92.2,138.3L92.2,138.3z"
					/>
			</g>
		</g>
	</g>
	<g class="st1">
		<g>
			<path d="M147,193.3c0.8,0,1.5,0,2.3,0c-0.6-0.6-1.3-1.3-1.9-1.9c0,5.2,0,10.3,0,15.5c0,6.2,3.4,9.5,9.6,9.5c5.7,0,9.6-3,9.6-9
				c0-5.4,0-10.7,0-16.1c-0.6,0.6-1.3,1.3-1.9,1.9c21.8,0,47.9-1,61-21.4c6.6-10.2,6-24.5-0.5-34.5c-6.1-9.5-17-15.4-27.7-18
				c0,1.2,0,2.4,0,3.6c9.4-2.5,15.4-7.3,21.4-14.9c7.5-9.6,6.4-22.4,0.6-32.4c-11.1-19.3-35.5-18.6-54.7-18.6
				c0.6,0.6,1.3,1.3,1.9,1.9c0-5.1,0-10.1,0-15.2c0-6.2-3.5-9.5-9.6-9.5c-5.7,0-9.6,3-9.6,8.9c0,5.3,0,10.5,0,15.8
				c0.6-0.6,1.3-1.3,1.9-1.9c-3.1,0-6.1,0-9.2,0c0.6,0.6,1.3,1.3,1.9,1.9c0-5.1,0-10.1,0-15.2c0-6.2-3.5-9.5-9.6-9.5
				c-5.7,0-9.6,3-9.6,8.9c0,5.3,0,10.5,0,15.8c0.6-0.6,1.3-1.3,1.9-1.9c-5.3,0-10.7,0-16,0c-6.1,0-9.5,3.5-9.5,9.6
				c0,6.1,3.3,9.6,9.5,9.6c5.3,0,10.7,0,16,0c-0.6-0.6-1.3-1.3-1.9-1.9c0,18.8,0,37.7,0,56.5c0,2.4,3.8,2.4,3.8,0
				c0-18.8,0-37.7,0-56.5c0-1-0.9-1.9-1.9-1.9c-3.7,0-7.5,0-11.2,0c-4.9,0-10.5,0.9-10.5-5.9c0-6.8,5.7-5.9,10.5-5.9
				c3.7,0,7.5,0,11.2,0c1,0,1.9-0.9,1.9-1.9c0-3.4,0-6.9,0-10.3c0-4.9-1-10.6,5.9-10.6c6.5,0,5.9,5,5.9,9.7c0,3.8,0,7.5,0,11.3
				c0,1,0.9,1.9,1.9,1.9c3.1,0,6.1,0,9.2,0c1,0,1.9-0.9,1.9-1.9c0-3.4,0-6.9,0-10.3c0-4.9-1-10.6,5.9-10.6c6.5,0,5.9,5,5.9,9.7
				c0,3.8,0,7.5,0,11.3c0,1,0.9,1.9,1.9,1.9c16.1,0,34.7-1.1,47.1,11c8.7,8.5,11.4,22.1,5,32.6c-4.7,7.7-11.8,12.6-20.3,14.9
				c-1.8,0.5-1.8,3.2,0,3.6c10.1,2.5,19.2,7.7,25.4,16.3c7.5,10.4,5.5,25.5-2.5,34.9c-13.2,15.5-36.1,15.4-54.7,15.4
				c-1,0-1.9,0.9-1.9,1.9c0,3.5,0,7,0,10.5c0,4.9,1,10.7-5.9,10.7c-6.5,0-5.9-5.1-5.9-9.8c0-3.8,0-7.7,0-11.5c0-1-0.9-1.9-1.9-1.9
				c-0.8,0-1.5,0-2.3,0C144.6,189.5,144.6,193.3,147,193.3L147,193.3z"/>
			<path d="M175.3,70.9c12,5.9,14.9,19.6,10.8,31.6c-4.3,12.8-19.3,14.1-30.6,14.2c0.6,0.6,1.3,1.3,1.9,1.9c0-17.4,0-34.8,0-52.1
				c-0.6,0.6-1.3,1.3-1.9,1.9c6.8,0,13.9,0.1,20.2,2.8c2.2,0.9,3.2-2.7,1-3.6c-6.6-2.8-14.2-2.9-21.2-2.9c-1,0-1.9,0.9-1.9,1.9
				c0,17.4,0,34.8,0,52.1c0,1,0.9,1.9,1.9,1.9c12.8-0.1,28.1-2.1,33.6-15.7c5.6-13.6,1.7-30.4-12-37.1
				C175,66.6,173.1,69.8,175.3,70.9z"/>
			<path d="M189,169.7c-3.4,6-8.5,9.6-15.1,11.6c-7.7,2.3-16.8,1.3-16.6-8.5c0.1-3.8,0.1-7.7,0.1-11.5c0-11.7,0-23.4,0-35.1
				c-0.6,0.6-1.3,1.3-1.9,1.9c9.7,0,20.7,0.1,28.4,6.8C193.5,143.2,194.3,159,189,169.7c-1.1,2.2,2.2,4.1,3.2,1.9
				c5.6-11.2,5.2-26.1-2.7-36.2c-8.3-10.4-21.6-11.2-33.9-11.1c-1,0-1.9,0.9-1.9,1.9c0,13.6,0,27.1,0,40.7c0,6.6-1,13.8,5.6,17.8
				c5.2,3.2,13.5,1.2,18.7-0.7c6.2-2.2,11-6.6,14.2-12.3C193.4,169.5,190.2,167.6,189,169.7z"/>
		</g>
	</g>
</g>
<g id="Line_Expand">
	<g>
		<path d="M132.6,37.8c-5.7,0-9.6,3-9.6,8.9c0,4.6,0,9.3,0,13.9c-4.7,0-9.4,0-14.1,0c-6.1,0-9.5,3.5-9.5,9.6c0,6.1,3.3,9.6,9.5,9.6
			c4.7,0,9.4,0,14.2,0c0,14.2,0,28.3,0,42.5c0,2.4,3.8,2.4,3.8,0c0-14.8,0-29.6,0-44.3c0-1-0.9-1.9-1.9-1.9c-3.7,0-7.5,0-11.2,0
			c-4.9,0-10.5,0.9-10.5-5.9c0-6.8,5.7-5.9,10.5-5.9c3.7,0,7.5,0,11.2,0c1,0,1.9-0.9,1.9-1.9c0-3.4,0-6.9,0-10.3
			c0-4.9-1-10.6,5.9-10.6c6.5,0,5.9,5,5.9,9.7c0,3.8,0,7.5,0,11.3c0,1,0.9,1.9,1.9,1.9c3.1,0,6.1,0,9.2,0c1,0,1.9-0.9,1.9-1.9
			c0-3.4,0-6.9,0-10.3c0-4.9-1-10.6,5.9-10.6c6.5,0,5.9,5,5.9,9.7c0,3.8,0,7.5,0,11.3c0,1,0.9,1.9,1.9,1.9c12.1,0,25.3-0.7,36.7,4
			c2.2,0.9,3.2-2.7,1-3.6c-11.1-4.5-24-4.2-35.9-4.1c0-4.4,0-8.9,0-13.3c0-6.2-3.5-9.5-9.6-9.5c-5.7,0-9.6,3-9.6,8.9
			c0,4.6,0,9.3,0,13.9c-1.8,0-3.6,0-5.4,0c0-4.4,0-8.9,0-13.3C142.2,41.1,138.7,37.8,132.6,37.8z"/>
		<path d="M222.9,85.8c-2-5.4-5.1-10.2-9.2-14.1c-1.8-1.7-4.4,1-2.7,2.7c3.7,3.5,6.5,7.7,8.3,12.5C220.1,89.1,223.7,88.1,222.9,85.8
			z"/>
		<path d="M196.8,126.5c10.1,2.5,19.2,7.7,25.4,16.3c7.5,10.4,5.5,25.5-2.5,34.9c-13.2,15.5-36.1,15.4-54.7,15.4
			c-1,0-1.9,0.9-1.9,1.9c0,4.4,0,8.9,0,13.3c0,2.3,0.4,4.8-1.2,6.8c-2.8,3.3-10.2,0.7-10.5-2.9c-0.2-2.4-4-2.4-3.8,0
			c0.9,9.1,14.3,11.1,18.5,3.3c1.4-2.7,0.7-7,0.7-9.9c0-2.9,0-5.8,0-8.7c21.4-0.1,46.4-1.5,59.1-21.4c6.6-10.2,6-24.5-0.5-34.5
			c-5.1-7.8-13.4-13.2-22.1-16.3c11.5-5,20.8-15.7,21.2-28.8c0.1-2.4-3.7-2.4-3.8,0c-0.4,13.4-11.7,23.8-24,27.1
			C195,123.4,195,126.1,196.8,126.5z"/>
		<path d="M155.8,124c12.8-0.1,28.1-2.1,33.6-15.7c5.6-13.6,1.7-30.4-12-37.1c-0.1-0.1-0.2-0.1-0.3-0.1c0,0-0.1,0-0.1-0.1
			c-6.6-2.8-14.2-2.9-21.2-2.9c-1,0-1.9,0.9-1.9,1.9c0,17.4,0,34.8,0,52.1C153.9,123.1,154.7,124,155.8,124z M186.3,106
			c-4.1,12.1-17.7,13.9-28.7,14.2c0-16.1,0-32.2,0-48.4c6.1,0,12.3,0.3,18,2.6C187.5,80.3,190.4,94,186.3,106z"/>
		<path d="M153.9,170.4c0,6.6-1,13.8,5.6,17.8c5.2,3.2,13.5,1.2,18.7-0.7c6.2-2.2,11-6.6,14.2-12.3c5.6-11.2,5.2-26.1-2.7-36.2
			c-8.3-10.4-21.6-11.2-33.9-11.1c-1,0-1.9,0.9-1.9,1.9C153.9,143.3,153.9,156.8,153.9,170.4z M189.2,173.2
			c-3.4,6-8.5,9.6-15.1,11.6c-7.7,2.3-16.8,1.3-16.6-8.5c0.1-3.8,0.1-7.7,0.1-11.5c0-11.1,0-22.1,0-33.2c9.2,0,19.3,0.5,26.5,6.8
			C193.7,146.7,194.5,162.5,189.2,173.2z"/>
		<path d="M39.8,211c13.6,9.6,32,12.2,48.2,12.3c16.4,0.1,34.3-3.1,48.2-12.3c10.2-6.8,15.7-18.1,9-29.2c3.7-6,4.8-13.1,0.3-19.8
			c0,0,0,0,0,0c1.2-2.4,1.9-5.1,1.9-8c0-0.2,0-0.3,0-0.4c-1-20.2-28.2-27.8-44.2-30c-21.5-3-50.3-0.4-66.3,16.3
			c-5.2,5.4-7.5,12.8-5.2,20.1c0.1,0.2,0.1,0.3,0.2,0.5c-5.3,7.4-4.9,14.9-1,21.4C23.9,193.1,29.9,204,39.8,211z M141.7,200.3
			c0-2.2,0-4.5,0-6.7c0-2.4-3.8-2.4-3.8,0c0,3.6,0,7.2,0,10.8c0,0.1,0,0.2,0,0.3c-2.3,2.2-5,4.1-7.9,5.7c-0.5,0.3-1,0.6-1.6,0.8
			c0-3.4,0-6.7,0-10.1c0-2.4-3.8-2.4-3.8,0c0,3.9,0,7.8,0,11.8c0,0.1,0,0.1,0,0.1c-6.3,2.7-13.1,4.4-19.9,5.4c0-3.4,0-6.8,0-10.2
			c0-2.4-3.8-2.4-3.8,0c0,3.4,0,6.9,0,10.3c0,0.1,0,0.2,0,0.3c-4.4,0.5-8.8,0.7-13.2,0.7c-3.5,0-7-0.1-10.6-0.4
			c0.1-0.2,0.1-0.4,0.1-0.6c0-3.4,0-6.9,0-10.3c0-2.4-3.8-2.4-3.8,0c0,3.4,0,6.9,0,10.3c0,0.1,0,0.1,0,0.2
			c-6.7-0.8-13.3-2.4-19.6-4.7c0.1-0.2,0.2-0.5,0.2-0.9c0-3.4,0-6.9,0-10.3c0-2.4-3.8-2.4-3.8,0c0,3.3,0,6.5,0,9.8
			c-1.6-0.7-3.2-1.5-4.8-2.3c-2.6-1.4-5.1-3.1-7.2-5c0.1-0.2,0.1-0.4,0.1-0.7c0-3.4,0-6.9,0-10.3c0-2.4-3.8-2.4-3.8,0
			c0,2.4,0,4.7,0,7.1c-3.4-4.7-4.7-10.3-1.7-16.3c1.6,1.9,3.5,3.6,5.6,5.2c13.1,9.9,31.4,12.6,47.4,13c16.6,0.4,34.7-2.7,48.9-11.7
			c2.8-1.8,5.4-4,7.5-6.5C145.5,190.8,144.6,195.9,141.7,200.3z M50.6,134.5c11.5-6,25.1-7.9,37.9-8.1c0,4,0,8,0,11.9
			c0,2.4,3.8,2.4,3.8,0c0-4,0-8,0-11.9c11.6,0.3,23.5,2.6,34,7.5c8.1,3.8,17.1,10.4,17.4,20.1c0,0.2,0,0.4-0.1,0.7
			c-0.2-0.4-0.6-0.7-1.1-0.8c-3.6-1-7.1-2-10.7-3c-2.3-0.7-3.3,3-1,3.6c3.6,1,7.1,2,10.7,3c0.7,0.2,1.3,0,1.7-0.4
			c-1.8,7.7-9,12.9-15.8,16.5c-10.7,5.6-23.2,7.6-35.2,8c0-3.5,0-7,0-10.6c0-2.4-3.8-2.4-3.8,0c0,3.5,0,7.1,0,10.6
			c-12.5,0-25.3-2.2-36.7-7.5c-7.1-3.3-14.9-8.8-16.9-16.8c3.4-1,6.9-1.9,10.3-2.9c2.3-0.7,1.3-4.3-1-3.6c-3.3,0.9-6.5,1.8-9.8,2.8
			C34.4,144.6,43.5,138.2,50.6,134.5z M33.7,164.4c3.7,5.9,10.1,10,16.1,13c22.1,10.9,51.4,10.7,74,1.8c7-2.7,14.7-7.2,19.3-13.5
			c3.6,7.1,0.1,13.9-5.3,18.9c0-2.5,0-4.9,0-7.4c0-2.4-3.8-2.4-3.8,0c0,3.4,0,6.9,0,10.3c0,0,0,0.1,0,0.1c-1.4,1-2.7,1.9-4.1,2.6
			c-2.8,1.6-5.8,2.9-8.9,4.1c0-3.1,0-6.3,0-9.4c0-2.4-3.8-2.4-3.8,0c0,3.6,0,7.1,0,10.7c-8,2.4-16.5,3.5-24.8,3.8c0-3.3,0-6.5,0-9.8
			c0-2.4-3.8-2.4-3.8,0c0,3.3,0,6.6,0,9.9c-0.3,0-0.6,0-1,0c-6.6,0-13.4-0.5-20-1.7c0-3.4,0-6.8,0-10.1c0-2.4-3.8-2.4-3.8,0
			c0,3.1,0,6.2,0,9.3c-5.6-1.3-11.1-3.2-16.3-5.7c0-3.3,0-6.6,0-9.9c0-2.4-3.8-2.4-3.8,0c0,2.6,0,5.3,0,7.9
			C34.9,183.8,28.1,174.6,33.7,164.4z"/>
	</g>
</g>
<g id="Glyph" class="st0">
	<g class="st1">
		<path d="M123.9,179.2c-22.7,8.8-52,9-74-1.8c-6-2.9-12.4-7.1-16.1-13c-5.7,10.2,1.1,19.5,10.5,25c0-2.6,0-5.3,0-7.9
			c0-2.4,3.8-2.4,3.8,0c0,3.3,0,6.6,0,9.9c5.1,2.5,10.6,4.4,16.3,5.7c0-3.1,0-6.2,0-9.3c0-2.4,3.8-2.4,3.8,0c0,3.4,0,6.8,0,10.1
			c6.6,1.3,13.4,1.8,20,1.7c0.3,0,0.6,0,1,0c0-3.3,0-6.6,0-9.9c0-2.4,3.8-2.4,3.8,0c0,3.3,0,6.5,0,9.8c8.3-0.3,16.8-1.4,24.8-3.8
			c0-3.6,0-7.1,0-10.7c0-2.4,3.8-2.4,3.8,0c0,3.1,0,6.3,0,9.4c3.1-1.1,6.1-2.5,8.9-4.1c1.4-0.8,2.8-1.7,4.1-2.6c0,0,0-0.1,0-0.1
			c0-3.4,0-6.9,0-10.3c0-2.4,3.8-2.4,3.8,0c0,2.5,0,4.9,0,7.4c5.4-5.1,8.9-11.8,5.3-18.9C138.6,172,131,176.5,123.9,179.2z"/>
		<path d="M135.2,191.7c-14.3,9-32.3,12-48.9,11.7c-15.9-0.4-34.2-3.1-47.4-13c-2.1-1.6-4-3.3-5.6-5.2c-3,6-1.7,11.6,1.7,16.3
			c0-2.4,0-4.7,0-7.1c0-2.4,3.8-2.4,3.8,0c0,3.4,0,6.9,0,10.3c0,0.3-0.1,0.5-0.1,0.7c2.2,1.9,4.6,3.6,7.2,5c1.6,0.8,3.2,1.6,4.8,2.3
			c0-3.3,0-6.5,0-9.8c0-2.4,3.8-2.4,3.8,0c0,3.4,0,6.9,0,10.3c0,0.3-0.1,0.6-0.2,0.9c6.3,2.3,12.9,3.9,19.6,4.7c0-0.1,0-0.1,0-0.2
			c0-3.4,0-6.9,0-10.3c0-2.4,3.8-2.4,3.8,0c0,3.4,0,6.9,0,10.3c0,0.2,0,0.4-0.1,0.6c3.5,0.3,7.1,0.5,10.6,0.4
			c4.3,0,8.7-0.3,13.2-0.7c0-0.1,0-0.2,0-0.3c0-3.4,0-6.9,0-10.3c0-2.4,3.8-2.4,3.8,0c0,3.4,0,6.8,0,10.2c6.9-1,13.6-2.7,19.9-5.4
			c0,0,0-0.1,0-0.1c0-3.9,0-7.8,0-11.8c0-2.4,3.8-2.4,3.8,0c0,3.4,0,6.7,0,10.1c0.5-0.3,1.1-0.5,1.6-0.8c2.8-1.6,5.6-3.5,7.9-5.7
			c0-0.1,0-0.2,0-0.3c0-3.6,0-7.2,0-10.8c0-2.4,3.8-2.4,3.8,0c0,2.2,0,4.5,0,6.7c2.9-4.4,3.8-9.5,1-15.1
			C140.6,187.7,137.9,190,135.2,191.7z"/>
		<path d="M45.2,154.5c-3.4,1-6.9,1.9-10.3,2.9c2,7.9,9.8,13.5,16.9,16.8c11.4,5.3,24.2,7.5,36.7,7.5c0-3.5,0-7.1,0-10.6
			c0-2.4,3.8-2.4,3.8,0c0,3.5,0,7,0,10.6c12-0.4,24.5-2.4,35.2-8c6.8-3.5,14-8.8,15.8-16.5c-0.4,0.4-1,0.6-1.7,0.4
			c-3.6-1-7.1-2-10.7-3c-2.3-0.7-1.3-4.3,1-3.6c3.6,1,7.1,2,10.7,3c0.5,0.1,0.9,0.4,1.1,0.8c0-0.2,0-0.4,0.1-0.7
			c-0.3-9.7-9.3-16.4-17.4-20.1c-10.6-4.9-22.4-7.2-34-7.5c0,4,0,8,0,11.9c0,2.4-3.8,2.4-3.8,0c0-4,0-8,0-11.9
			c-12.8,0.2-26.4,2.1-37.9,8.1c-7.1,3.7-16.2,10.1-16.2,19.2c3.3-0.9,6.5-1.8,9.8-2.8C46.5,150.2,47.5,153.8,45.2,154.5z"/>
		<path d="M222,139.3c-6.2-8.6-15.3-13.8-25.4-16.3c-1.8-0.4-1.8-3.1,0-3.6c8.5-2.3,15.7-7.2,20.3-14.9c6.4-10.5,3.7-24.1-5-32.6
			c-12.4-12.1-31-11-47.1-11c-1,0-1.9-0.9-1.9-1.9c0-3.8,0-7.5,0-11.3c0-4.7,0.6-9.7-5.9-9.7c-6.8,0-5.9,5.7-5.9,10.6
			c0,3.4,0,6.9,0,10.3c0,1-0.9,1.9-1.9,1.9c-3.1,0-6.1,0-9.2,0c-1,0-1.9-0.9-1.9-1.9c0-3.8,0-7.5,0-11.3c0-4.7,0.6-9.7-5.9-9.7
			c-6.8,0-5.9,5.7-5.9,10.6c0,3.4,0,6.9,0,10.3c0,1-0.9,1.9-1.9,1.9c-3.7,0-7.5,0-11.2,0c-4.8,0-10.5-0.9-10.5,5.9
			c0,6.8,5.7,5.9,10.5,5.9c3.7,0,7.5,0,11.2,0c1,0,1.9,0.9,1.9,1.9c0,18.4,0,36.9,0,55.3c10.9,4.7,20.2,12.1,20.8,23.8
			c0,0.1,0,0.3,0,0.4c-0.1,2.9-0.8,5.6-1.9,8c0,0,0,0,0,0c4.5,6.7,3.4,13.8-0.3,19.8c1.6,2.6,2.5,5.1,2.8,7.7c0.4,0,0.9,0,1.3,0
			c1,0,1.9,0.9,1.9,1.9c0,3.8,0,7.7,0,11.5c0,4.7-0.6,9.8,5.9,9.8c6.9,0,5.9-5.8,5.9-10.7c0-3.5,0-7,0-10.5c0-1,0.9-1.9,1.9-1.9
			c18.6,0,41.5,0.1,54.7-15.4C227.5,164.7,229.5,149.7,222,139.3z M157.4,68.3c6.1,0,12.3,0.3,18,2.6c11.9,5.9,14.8,19.5,10.7,31.6
			c-4.1,12.1-17.7,13.9-28.7,14.2C157.4,100.5,157.4,84.4,157.4,68.3z M189,169.7c-3.4,6-8.5,9.6-15.1,11.6
			c-7.7,2.3-16.8,1.3-16.6-8.5c0.1-3.8,0.1-7.7,0.1-11.5c0-11.1,0-22.1,0-33.2c9.2,0,19.3,0.5,26.5,6.8
			C193.5,143.2,194.3,159,189,169.7z"/>
	</g>
</g>
</svg>
