<?xml version="1.0" encoding="utf-8"?>
<!-- Generator: Adobe Illustrator 23.0.3, SVG Export Plug-In . SVG Version: 6.00 Build 0)  -->
<svg version="1.1" xmlns="http://www.w3.org/2000/svg" xmlns:xlink="http://www.w3.org/1999/xlink" x="0px" y="0px"
	 viewBox="0 0 256 256" style="enable-background:new 0 0 256 256;" xml:space="preserve">
<style type="text/css">
	.st0{display:none;}
	.st1{display:inline;}
</style>
<g id="SOURCE" class="st0">
	<g class="st1">
		<g>
			<g>
				<path d="M105.4,105.4c16.4-24.7,32.7-49.3,49.1-74c-1.1,0-2.2,0-3.2,0c17.6,26.6,35.3,53.2,52.9,79.8c0.7-0.9,1.4-1.8,2.1-2.8
					c-17.1-7.2-34.2-14.4-51.3-21.6c-1.7-0.7-2.4-0.7-4.2,0c-4.6,1.9-9.2,3.9-13.8,5.8c-8.7,3.7-17.5,7.4-26.2,11
					c-2.2,0.9-1.2,4.6,1,3.6c8.2-3.4,16.3-6.9,24.5-10.3c4.7-2,9.5-4,14.2-6c1-0.4,1.9-0.8,2.9-1.2c-1.2,0.5-0.5,0.2,1,0.8
					c17,7.1,34,14.3,51,21.4c1.5,0.6,3-1.5,2.1-2.8c-17.6-26.6-35.3-53.2-52.9-79.8c-0.8-1.2-2.4-1.2-3.2,0
					c-16.4,24.7-32.7,49.3-49.1,74C100.8,105.6,104.1,107.4,105.4,105.4L105.4,105.4z"/>
			</g>
		</g>
		<g>
			<g>
				<path d="M136.5,189.2c4.9,7.5,9.9,14.9,14.8,22.4c0.8,1.2,2.4,1.2,3.2,0c17.6-26.6,35.3-53.2,52.9-79.8c1-1.6-1-3.5-2.6-2.6
					c-10.2,6.4-20.4,12.9-30.7,19.3c-6.1,3.8-12.1,7.6-18.2,11.4c-1.3,0.8-2.6,1.6-3.9,2.5c-0.7,0.4,0.7-0.5,1.6,0
					c-0.8-0.5-1.6-0.9-2.4-1.4c-1.4-0.8-2.8-1.6-4.2-2.4c-2.1-1.2-4,2-1.9,3.2c2.2,1.3,4.5,2.6,6.7,3.9c0.6,0.3,1.3,0.4,1.9,0
					c17.6-11.1,35.3-22.2,52.9-33.3c-0.9-0.9-1.7-1.7-2.6-2.6c-17.6,26.6-35.3,53.2-52.9,79.8c1.1,0,2.2,0,3.2,0
					c-4.9-7.5-9.9-14.9-14.8-22.4C138.4,185.3,135.1,187.2,136.5,189.2L136.5,189.2z"/>
			</g>
		</g>
		<g>
			<g>
				<path d="M127,111.7c7.2-3.2,14.5-6.3,21.7-9.5c1.5-0.7,3-1.3,4.6-2c2.1-0.9-1.4-0.6-0.6-0.3c2.5,1.1,4.9,2.1,7.4,3.2
					c15,6.5,29.9,13,44.9,19.6c0-1.1,0-2.2,0-3.2c-9.8,6-19.5,11.9-29.3,17.9c-6.1,3.7-12.1,7.4-18.2,11.1c-1.6,1-3.1,1.9-4.7,2.9
					c-1.3,0.8,2.1,0.7,0.9-0.2c-1.4-1-2.7-1.9-4.1-2.9c-2-1.4-3.9,1.9-1.9,3.2c1.6,1.1,3.1,2.2,4.7,3.3c0.5,0.4,1.4,0.3,1.9,0
					c17.5-10.7,35.1-21.5,52.6-32.2c1.1-0.7,1.4-2.6,0-3.2c-15.4-6.7-30.8-13.4-46.1-20.1c-2.1-0.9-4.2-1.8-6.3-2.8
					c-1.8-0.8-4.4,1-6.1,1.8c-7.7,3.4-15.4,6.8-23.1,10.1C122.9,109.4,124.9,112.6,127,111.7L127,111.7z"/>
			</g>
		</g>
	</g>
	<g class="st1">
		<g>
			<g>
				<g>
					<path d="M143.3,143.9c7.4,11-3,21.3-12.1,26.4c-12.6,7.1-27.9,9.2-42.1,9.3c-14.3,0.1-29.4-2.5-42.1-9.3
						c-10.9-5.8-19.3-16.6-10.6-28.3c1.4-2-1.8-3.8-3.2-1.9c-8.2,11.2-3.2,22.6,6.9,30.2c13.1,9.9,31.4,12.6,47.4,13
						c16.6,0.4,34.7-2.7,48.9-11.7c9.9-6.2,17.7-18.5,10.3-29.6C145.2,140.1,142,141.9,143.3,143.9L143.3,143.9z"/>
				</g>
			</g>
			<g>
				<g>
					<path d="M142.5,162.9c7.8,11.8-1,21.6-11.3,27.4c-12.6,7.1-27.9,9.2-42.1,9.3c-14.3,0.1-29.4-2.5-42.1-9.3
						c-10.3-5.5-18.9-15.6-11.5-27.1c1.3-2-1.9-3.9-3.2-1.9c-7.4,11.5-1.4,22.6,8.7,29.7c13.6,9.6,32,12.2,48.2,12.3
						c16.4,0.1,34.3-3.1,48.2-12.3c10.4-7,16-18.7,8.5-30C144.4,159,141.2,160.9,142.5,162.9L142.5,162.9z"/>
				</g>
			</g>
			<g>
				<g>
					<path d="M144.7,134c-0.3,9.4-8.6,15.6-16.2,19.5c-11.7,6.1-25.4,8-38.4,8.1c-12.7,0.1-25.7-2.1-37.2-7.5
						c-8.1-3.8-17.1-10.4-17.4-20.1c-0.3-9.3,9-15.8,16.2-19.5c11.7-6.1,25.4-8,38.4-8.1c12.7-0.1,25.7,2.1,37.2,7.5
						C135.4,117.6,144.4,124.3,144.7,134c0.1,2.4,3.8,2.4,3.8,0c-0.6-20.5-28.1-28.2-44.2-30.4c-21.5-3-50.3-0.4-66.3,16.3
						c-5.2,5.4-7.5,12.8-5.2,20.1c2.7,8.3,10.8,13.8,18.2,17.5c22.1,10.9,51.4,10.7,74,1.8c10.8-4.2,23.1-12.4,23.5-25.2
						C148.6,131.6,144.8,131.6,144.7,134z"/>
				</g>
			</g>
		</g>
		<g>
			<g>
				<path d="M35.6,137.5c3.6-1,7.1-2,10.7-3c2.3-0.7,1.3-4.3-1-3.6c-3.6,1-7.1,2-10.7,3C32.3,134.5,33.3,138.1,35.6,137.5
					L35.6,137.5z"/>
			</g>
		</g>
		<g>
			<g>
				<path d="M143.6,133.9c-3.6-1-7.1-2-10.7-3c-2.3-0.7-3.3,3-1,3.6c3.6,1,7.1,2,10.7,3C144.9,138.1,145.9,134.5,143.6,133.9
					L143.6,133.9z"/>
			</g>
		</g>
		<g>
			<g>
				<path d="M93.3,163.3c0-4.1,0-8.2,0-12.3c0-2.4-3.8-2.4-3.8,0c0,4.1,0,8.2,0,12.3C89.6,165.8,93.3,165.8,93.3,163.3L93.3,163.3z"
					/>
			</g>
		</g>
		<g>
			<g>
				<path d="M49.1,171.8c0-3.4,0-6.9,0-10.3c0-2.4-3.8-2.4-3.8,0c0,3.4,0,6.9,0,10.3C45.3,174.3,49.1,174.3,49.1,171.8L49.1,171.8z"
					/>
			</g>
		</g>
		<g>
			<g>
				<path d="M39.9,184.7c0-3.4,0-6.9,0-10.3c0-2.4-3.8-2.4-3.8,0c0,3.4,0,6.9,0,10.3C36.1,187.1,39.9,187.1,39.9,184.7L39.9,184.7z"
					/>
			</g>
		</g>
		<g>
			<g>
				<path d="M69.1,178.1c0-3.4,0-6.9,0-10.3c0-2.4-3.8-2.4-3.8,0c0,3.4,0,6.9,0,10.3C65.3,180.5,69.1,180.5,69.1,178.1L69.1,178.1z"
					/>
			</g>
		</g>
		<g>
			<g>
				<path d="M55.6,193.3c0-3.4,0-6.9,0-10.3c0-2.4-3.8-2.4-3.8,0c0,3.4,0,6.9,0,10.3C51.8,195.7,55.6,195.7,55.6,193.3L55.6,193.3z"
					/>
			</g>
		</g>
		<g>
			<g>
				<path d="M93.8,180.1c0-3.4,0-6.9,0-10.3c0-2.4-3.8-2.4-3.8,0c0,3.4,0,6.9,0,10.3C90.1,182.5,93.8,182.5,93.8,180.1L93.8,180.1z"
					/>
			</g>
		</g>
		<g>
			<g>
				<path d="M78.6,198.6c0-3.4,0-6.9,0-10.3c0-2.4-3.8-2.4-3.8,0c0,3.4,0,6.9,0,10.3C74.9,201,78.6,201,78.6,198.6L78.6,198.6z"/>
			</g>
		</g>
		<g>
			<g>
				<path d="M106,198.6c0-3.4,0-6.9,0-10.3c0-2.4-3.8-2.4-3.8,0c0,3.4,0,6.9,0,10.3C102.2,201,106,201,106,198.6L106,198.6z"/>
			</g>
		</g>
		<g>
			<g>
				<path d="M129.6,192.8c0-3.9,0-7.8,0-11.8c0-2.4-3.8-2.4-3.8,0c0,3.9,0,7.8,0,11.8C125.9,195.3,129.6,195.3,129.6,192.8
					L129.6,192.8z"/>
			</g>
		</g>
		<g>
			<g>
				<path d="M142.8,184.3c0-3.6,0-7.2,0-10.8c0-2.4-3.8-2.4-3.8,0c0,3.6,0,7.2,0,10.8C139.1,186.8,142.8,186.8,142.8,184.3
					L142.8,184.3z"/>
			</g>
		</g>
		<g>
			<g>
				<path d="M122.3,176.3c0-3.8,0-7.6,0-11.3c0-2.4-3.8-2.4-3.8,0c0,3.8,0,7.6,0,11.3C118.6,178.8,122.3,178.8,122.3,176.3
					L122.3,176.3z"/>
			</g>
		</g>
		<g>
			<g>
				<path d="M139.1,167.6c0-3.4,0-6.9,0-10.3c0-2.4-3.8-2.4-3.8,0c0,3.4,0,6.9,0,10.3C135.3,170,139.1,170,139.1,167.6L139.1,167.6z
					"/>
			</g>
		</g>
		<g>
			<g>
				<path d="M93.3,118.3c0-4.1,0-8.2,0-12.3c0-2.4-3.8-2.4-3.8,0c0,4.1,0,8.2,0,12.3C89.6,120.8,93.3,120.8,93.3,118.3L93.3,118.3z"
					/>
			</g>
		</g>
	</g>
</g>
<g id="Line_Expand">
	<g>
		<path d="M117.2,87.6c3.5-5.2,7-10.5,10.4-15.7c1.3-2-1.9-3.9-3.2-1.9c-3.5,5.2-6.9,10.5-10.4,15.7
			C112.7,87.7,115.9,89.6,117.2,87.6z"/>
		<path d="M183.7,167.7c7.9-11.9,15.8-23.9,23.8-35.8c1-1.6-1-3.5-2.6-2.6c-10.2,6.4-20.4,12.9-30.7,19.3
			c-6.1,3.8-12.1,7.6-18.2,11.4c-1.1,0.7-2.1,1.3-3.2,2c-0.5-0.3-1-0.6-1.5-0.9c-1.2-0.7-2.4-1.4-3.6-2.1c0.9-2,1.5-4,1.7-6.2
			c0.9,0.7,1.9,1.3,2.8,2c0.5,0.4,1.4,0.3,1.9,0c17.5-10.7,35.1-21.5,52.6-32.2c1.1-0.7,1.4-2.6,0-3.2
			c-15.4-6.7-30.8-13.4-46.1-20.1c-2.1-0.9-4.2-1.8-6.3-2.8c-1.8-0.8-4.4,1-6.1,1.8c-7.7,3.4-15.4,6.8-23.1,10.1
			c-0.1,0.1-0.2,0.1-0.3,0.2c-3.1-1.2-6.3-2.1-9.4-2.9c6.9-2.9,13.9-5.8,20.8-8.8c4.7-2,9.5-4,14.2-6c1-0.4,1.9-0.8,2.9-1.2
			c-1.2,0.5-0.5,0.2,1,0.8c17,7.1,34,14.3,51,21.4c1.5,0.6,3-1.5,2.1-2.8c-17.6-26.6-35.3-53.2-52.9-79.8c-0.8-1.2-2.4-1.2-3.2,0
			c-7,10.5-14,21-20.9,31.6c-1.3,2,1.9,3.9,3.2,1.9c6.4-9.7,12.9-19.4,19.3-29.1c16,24.1,32,48.2,48,72.3
			c-15.3-6.4-30.6-12.9-45.9-19.3c-1.7-0.7-2.4-0.7-4.2,0c-4.6,1.9-9.2,3.9-13.8,5.8c-8.7,3.7-17.5,7.4-26.2,11
			c-0.5,0.2-0.8,0.5-1,0.9c-1.2-0.2-2.3-0.4-3.4-0.6c1.2-1.9,2.5-3.8,3.7-5.6c1.3-2-1.9-3.9-3.2-1.9c-1.5,2.3-3.1,4.6-4.6,7
			c-21.3-2.6-48.9,0.4-64.4,16.5c-5.2,5.4-7.5,12.8-5.2,20.1c0.1,0.2,0.1,0.3,0.2,0.5c-5.3,7.4-4.9,14.9-1,21.4
			c-7,11.4-1,22.2,9,29.3c13.6,9.6,32,12.2,48.2,12.3c16.4,0.1,34.3-3.1,48.2-12.3c0.1-0.1,0.2-0.1,0.3-0.2
			c4.6,6.9,9.2,13.8,13.8,20.8c0.8,1.2,2.4,1.2,3.2,0c2-3.1,4.1-6.1,6.1-9.2c1.3-2-1.9-3.9-3.2-1.9c-1.5,2.2-3,4.5-4.5,6.7
			c-4.1-6.2-8.3-12.5-12.4-18.7c7.7-6.6,11.5-16.2,6.3-25.7c1.7,1,3.4,2,5.1,3c0.6,0.3,1.3,0.4,1.9,0c15.2-9.6,30.4-19.1,45.6-28.7
			c-6.3,9.5-12.7,19.1-19,28.6C179.1,167.8,182.4,169.7,183.7,167.7z M148.7,102.2c1.5-0.7,3-1.3,4.6-2c2.3,1,4.5,2,6.8,2.9
			c13.9,6.1,27.8,12.1,41.8,18.2c-8.7,5.3-17.5,10.7-26.2,16c-6.1,3.7-12.1,7.4-18.2,11.1c-1.4,0.8-2.8,1.7-4.1,2.5
			c-1.3-0.9-2.5-1.8-3.8-2.7c-0.1-0.1-0.2-0.1-0.3-0.2c-0.4-2-1.3-4.1-2.6-6.1c0,0,0,0,0,0c1.2-2.4,1.9-5.1,1.9-8c0-0.2,0-0.3,0-0.4
			c-0.5-11-8.9-18.3-18.9-23C135.9,107.8,142.3,105,148.7,102.2z M51.7,114.5c11.5-6,25.1-7.9,37.9-8.1c0,4,0,8,0,11.9
			c0,2.4,3.8,2.4,3.8,0c0-4,0-8,0-11.9c11.6,0.3,23.5,2.6,34,7.5c8.1,3.8,17.1,10.4,17.4,20.1c0,0.2,0,0.4-0.1,0.7
			c-0.2-0.4-0.6-0.7-1.1-0.8c-3.6-1-7.1-2-10.7-3c-2.3-0.7-3.3,3-1,3.6c3.6,1,7.1,2,10.7,3c0.7,0.2,1.3,0,1.7-0.4
			c-1.8,7.7-9,12.9-15.8,16.5c-10.7,5.6-23.2,7.6-35.2,8c0-3.5,0-7,0-10.6c0-2.4-3.8-2.4-3.8,0c0,3.5,0,7.1,0,10.6
			c-12.5,0-25.3-2.2-36.7-7.5c-7.1-3.3-14.9-8.8-16.9-16.8c3.4-1,6.9-1.9,10.3-2.9c2.3-0.7,1.3-4.3-1-3.6c-3.3,0.9-6.5,1.8-9.8,2.8
			C35.5,124.6,44.6,118.2,51.7,114.5z M34.9,144.4c3.7,5.9,10.1,10,16.1,13c22.1,10.9,51.4,10.7,74,1.8c7-2.7,14.7-7.2,19.3-13.5
			c3.6,7.1,0.1,13.9-5.3,18.9c0-2.5,0-4.9,0-7.4c0-2.4-3.8-2.4-3.8,0c0,3.4,0,6.9,0,10.3c0,0,0,0.1,0,0.1c-1.4,1-2.7,1.9-4.1,2.6
			c-2.8,1.6-5.8,2.9-8.9,4.1c0-3.1,0-6.3,0-9.4c0-2.4-3.8-2.4-3.8,0c0,3.6,0,7.1,0,10.7c-8,2.4-16.5,3.5-24.8,3.8c0-3.3,0-6.5,0-9.8
			c0-2.4-3.8-2.4-3.8,0c0,3.3,0,6.6,0,9.9c-0.3,0-0.6,0-1,0c-6.6,0-13.4-0.5-20-1.7c0-3.4,0-6.8,0-10.1c0-2.4-3.8-2.4-3.8,0
			c0,3.1,0,6.2,0,9.3c-5.6-1.3-11.1-3.2-16.3-5.7c0-3.3,0-6.6,0-9.9c0-2.4-3.8-2.4-3.8,0c0,2.6,0,5.3,0,7.9
			C36,163.8,29.2,154.6,34.9,144.4z M142.8,180.3c0-2.2,0-4.5,0-6.7c0-2.4-3.8-2.4-3.8,0c0,3.6,0,7.2,0,10.8c0,0.1,0,0.2,0,0.3
			c-2.3,2.2-5,4.1-7.9,5.7c-0.5,0.3-1,0.6-1.6,0.8c0-3.4,0-6.7,0-10.1c0-2.4-3.8-2.4-3.8,0c0,3.9,0,7.8,0,11.8c0,0.1,0,0.1,0,0.1
			c-6.3,2.7-13.1,4.4-19.9,5.4c0-3.4,0-6.8,0-10.2c0-2.4-3.8-2.4-3.8,0c0,3.4,0,6.9,0,10.3c0,0.1,0,0.2,0,0.3
			c-4.4,0.5-8.8,0.7-13.2,0.7c-3.5,0-7-0.1-10.6-0.4c0.1-0.2,0.1-0.4,0.1-0.6c0-3.4,0-6.9,0-10.3c0-2.4-3.8-2.4-3.8,0
			c0,3.4,0,6.9,0,10.3c0,0.1,0,0.1,0,0.2c-6.7-0.8-13.3-2.4-19.6-4.7c0.1-0.2,0.2-0.5,0.2-0.9c0-3.4,0-6.9,0-10.3
			c0-2.4-3.8-2.4-3.8,0c0,3.3,0,6.5,0,9.8c-1.6-0.7-3.2-1.5-4.8-2.3c-2.6-1.4-5.1-3.1-7.2-5c0.1-0.2,0.1-0.4,0.1-0.7
			c0-3.4,0-6.9,0-10.3c0-2.4-3.8-2.4-3.8,0c0,2.4,0,4.7,0,7.1c-3.4-4.7-4.7-10.3-1.7-16.3c1.6,1.9,3.5,3.6,5.6,5.2
			c13.1,9.9,31.4,12.6,47.4,13c16.6,0.4,34.7-2.7,48.9-11.7c2.8-1.8,5.4-4,7.5-6.5C146.6,170.8,145.7,175.9,142.8,180.3z"/>
		<path d="M174.5,174.8c-2.6,4-5.3,8-7.9,12c-1.3,2,1.9,3.9,3.2,1.9c2.6-4,5.3-8,7.9-12C179.1,174.7,175.8,172.8,174.5,174.8z"/>
	</g>
</g>
<g id="Glyph" class="st0">
	<path class="st1" d="M148.7,102.2c1.5-0.7,3-1.3,4.6-2c2.3,1,4.5,2,6.8,2.9c13.9,6.1,27.8,12.1,41.8,18.2
		c-8.7,5.3-17.5,10.7-26.2,16c-6.1,3.7-12.1,7.4-18.2,11.1c-1.4,0.8-2.8,1.7-4.1,2.5c-1.3-0.9-2.5-1.8-3.8-2.7
		c-0.1-0.1-0.2-0.1-0.3-0.2c-0.4-2-1.3-4.1-2.6-6.1c0,0,0,0,0,0c1.2-2.4,1.9-5.1,1.9-8c0-0.2,0-0.3,0-0.4c-0.5-11-8.9-18.3-18.9-23
		C135.9,107.8,142.3,105,148.7,102.2z M200.9,106.1c-15.3-6.4-30.6-12.9-45.9-19.3c-1.7-0.7-2.4-0.7-4.2,0
		c-4.6,1.9-9.2,3.9-13.8,5.8c-8.7,3.7-17.5,7.4-26.2,11c-0.5,0.2-0.8,0.5-1,0.9c-1.2-0.2-2.3-0.4-3.4-0.6c15.5-23.3,31-46.7,46.5-70
		C168.9,57.9,184.9,82,200.9,106.1z M51.7,114.5c11.5-6,25.1-7.9,37.9-8.1c0,4,0,8,0,11.9c0,2.4,3.8,2.4,3.8,0c0-4,0-8,0-11.9
		c11.6,0.3,23.5,2.6,34,7.5c8.1,3.8,17.1,10.4,17.4,20.1c0,0.2,0,0.4-0.1,0.7c-0.2-0.4-0.6-0.7-1.1-0.8c-3.6-1-7.1-2-10.7-3
		c-2.3-0.7-3.3,3-1,3.6c3.6,1,7.1,2,10.7,3c0.7,0.2,1.3,0,1.7-0.4c-1.8,7.7-9,12.9-15.8,16.5c-10.7,5.6-23.2,7.6-35.2,8
		c0-3.5,0-7,0-10.6c0-2.4-3.8-2.4-3.8,0c0,3.5,0,7.1,0,10.6c-12.5,0-25.3-2.2-36.7-7.5c-7.1-3.3-14.9-8.8-16.9-16.8
		c3.4-1,6.9-1.9,10.3-2.9c2.3-0.7,1.3-4.3-1-3.6c-3.3,0.9-6.5,1.8-9.8,2.8C35.5,124.6,44.6,118.2,51.7,114.5z M34.9,144.4
		c3.7,5.9,10.1,10,16.1,13c22.1,10.9,51.4,10.7,74,1.8c7-2.7,14.7-7.2,19.3-13.5c3.6,7.1,0.1,13.9-5.3,18.9c0-2.5,0-4.9,0-7.4
		c0-2.4-3.8-2.4-3.8,0c0,3.4,0,6.9,0,10.3c0,0,0,0.1,0,0.1c-1.4,1-2.7,1.9-4.1,2.6c-2.8,1.6-5.8,2.9-8.9,4.1c0-3.1,0-6.3,0-9.4
		c0-2.4-3.8-2.4-3.8,0c0,3.6,0,7.1,0,10.7c-8,2.4-16.5,3.5-24.8,3.8c0-3.3,0-6.5,0-9.8c0-2.4-3.8-2.4-3.8,0c0,3.3,0,6.6,0,9.9
		c-0.3,0-0.6,0-1,0c-6.6,0-13.4-0.5-20-1.7c0-3.4,0-6.8,0-10.1c0-2.4-3.8-2.4-3.8,0c0,3.1,0,6.2,0,9.3c-5.6-1.3-11.1-3.2-16.3-5.7
		c0-3.3,0-6.6,0-9.9c0-2.4-3.8-2.4-3.8,0c0,2.6,0,5.3,0,7.9C36,163.8,29.2,154.6,34.9,144.4z M129.6,191.2c0-3.4,0-6.7,0-10.1
		c0-2.4-3.8-2.4-3.8,0c0,3.9,0,7.8,0,11.8c0,0.1,0,0.1,0,0.1c-6.3,2.7-13.1,4.4-19.9,5.4c0-3.4,0-6.8,0-10.2c0-2.4-3.8-2.4-3.8,0
		c0,3.4,0,6.9,0,10.3c0,0.1,0,0.2,0,0.3c-4.4,0.5-8.8,0.7-13.2,0.7c-3.5,0-7-0.1-10.6-0.4c0.1-0.2,0.1-0.4,0.1-0.6
		c0-3.4,0-6.9,0-10.3c0-2.4-3.8-2.4-3.8,0c0,3.4,0,6.9,0,10.3c0,0.1,0,0.1,0,0.2c-6.7-0.8-13.3-2.4-19.6-4.7
		c0.1-0.2,0.2-0.5,0.2-0.9c0-3.4,0-6.9,0-10.3c0-2.4-3.8-2.4-3.8,0c0,3.3,0,6.5,0,9.8c-1.6-0.7-3.2-1.5-4.8-2.3
		c-2.6-1.4-5.1-3.1-7.2-5c0.1-0.2,0.1-0.4,0.1-0.7c0-3.4,0-6.9,0-10.3c0-2.4-3.8-2.4-3.8,0c0,2.4,0,4.7,0,7.1
		c-3.4-4.7-4.7-10.3-1.7-16.3c1.6,1.9,3.5,3.6,5.6,5.2c13.1,9.9,31.4,12.6,47.4,13c16.6,0.4,34.7-2.7,48.9-11.7
		c2.8-1.8,5.4-4,7.5-6.5c2.8,5.6,1.9,10.7-1,15.1c0-2.2,0-4.5,0-6.7c0-2.4-3.8-2.4-3.8,0c0,3.6,0,7.2,0,10.8c0,0.1,0,0.2,0,0.3
		c-2.3,2.2-5,4.1-7.9,5.7C130.7,190.6,130.2,190.9,129.6,191.2z M140.5,188.6c7.7-6.6,11.5-16.2,6.3-25.7c1.7,1,3.4,2,5.1,3
		c0.6,0.3,1.3,0.4,1.9,0c15.2-9.6,30.4-19.1,45.6-28.7c-15.5,23.4-31,46.8-46.5,70.1C148.8,201,144.6,194.8,140.5,188.6z"/>
</g>
</svg>
