<?xml version="1.0" encoding="utf-8"?>
<!-- Generator: Adobe Illustrator 23.0.3, SVG Export Plug-In . SVG Version: 6.00 Build 0)  -->
<svg version="1.1" xmlns="http://www.w3.org/2000/svg" xmlns:xlink="http://www.w3.org/1999/xlink" x="0px" y="0px"
	 viewBox="0 0 256 256" style="enable-background:new 0 0 256 256;" xml:space="preserve">
<style type="text/css">
	.st0{display:none;}
	.st1{display:inline;}
</style>
<g id="SOURCE" class="st0">
	<g class="st1">
		<g>
			<path d="M222.3,128c-0.2,24.2-9.3,47.1-25.9,64.7c-1.7,1.8,1,4.4,2.7,2.7c17.2-18.4,26.8-42.2,27-67.4
				C226,125.6,222.3,125.6,222.3,128L222.3,128z"/>
		</g>
	</g>
	<circle class="st1" cx="194.6" cy="198.9" r="2.4"/>
	<g class="st1">
		<g>
			<path d="M117.2,133.4c13.7-17.1,26.8-35.3,42-51.2c1.1-1.2,0.3-3.2-1.3-3.2c-23.6,0-47.3,0-70.9,0c0.6,0.6,1.3,1.3,1.9,1.9
				c0-5,0-10,0-15c-0.6,0.6-1.3,1.3-1.9,1.9c11.6,0,23.3,0,34.9,0c1,0,1.9-0.9,1.9-1.9c0-3.4-0.1-6.8-0.1-10.3c0-2.1,0-4.2-0.1-6.3
				c0-2.4,0.6-3.5,3-3.5c2.4,0,4-0.3,4.1,2.9c0,1.9,0,3.9,0.1,5.8c0,3.8,0.1,7.5,0.1,11.3c0,1,0.8,1.9,1.9,1.9c15.1,0,30.2,0,45.2,0
				c-0.6-0.6-1.3-1.3-1.9-1.9c0,2.7,0,5.3,0,8c0,1.7,0,3.5,0,5.2c0,1.8-0.4,1.7,0.5,0.6c-1.7,2.1-3.4,4.2-5,6.2
				c-8.6,10.7-17.2,21.3-25.9,32c-14.3,17.6-28.1,35.7-42.9,52.8c-1.7,2-3.4,4-5.1,5.9c-1,1.2-0.4,3.2,1.3,3.2c27,0,54.1,0,81.1,0
				c-0.6-0.6-1.3-1.3-1.9-1.9c0,5,0,10,0,15c0.6-0.6,1.3-1.3,1.9-1.9c-15.8,0-31.6,0-47.4,0c-1,0-1.9,0.9-1.9,1.9
				c0.1,6.7,0.1,13.4,0.2,20.1c0.6-0.6,1.3-1.3,1.9-1.9c-3.6,0.2-7.2,0.3-10.8,0.5c0.6,0.6,1.3,1.3,1.9,1.9
				c-0.1-6.9-0.1-13.7-0.2-20.6c0-1-0.8-1.9-1.9-1.9c-14.1,0-28.1,0-42.2,0c0.6,0.6,1.3,1.3,1.9,1.9c0-3.2,0-6.5,0-9.7
				c0-1.7,0-3.5,0-5.2c0-1-1.2,1.5,0.4-0.5c3.9-4.8,7.7-9.7,11.6-14.5C101.4,153.1,109.3,143.2,117.2,133.4c1.5-1.9-1.1-4.5-2.7-2.7
				c-8.1,10.1-16.2,20.2-24.3,30.3c-3.9,4.9-7.9,9.8-11.8,14.8c-1.3,1.6-0.7,4.5-0.7,6.5c0,3.6,0,7.1,0,10.7c0,1,0.9,1.9,1.9,1.9
				c14.1,0,28.1,0,42.2,0c-0.6-0.6-1.3-1.3-1.9-1.9c0.1,6.9,0.1,13.7,0.2,20.6c0,1,0.8,1.9,1.9,1.9c3.6-0.2,7.2-0.3,10.8-0.5
				c1,0,1.9-0.8,1.9-1.9c-0.1-6.7-0.1-13.4-0.2-20.1c-0.6,0.6-1.3,1.3-1.9,1.9c15.8,0,31.6,0,47.4,0c1,0,1.9-0.9,1.9-1.9
				c0-5,0-10,0-15c0-1-0.9-1.9-1.9-1.9c-27,0-54.1,0-81.1,0c0.4,1.1,0.9,2.1,1.3,3.2c14.2-16.4,27.6-33.4,41.2-50.3
				c9.5-11.7,18.9-23.4,28.4-35.1c2.7-3.3,5.4-6.7,8.1-10c2-2.4,1.9-3.9,1.9-7.2c0-3.6,0-7.2,0-10.8c0-1-0.9-1.9-1.9-1.9
				c-15.1,0-30.2,0-45.2,0c0.6,0.6,1.3,1.2,1.9,1.9c-0.1-5.2-0.1-10.3-0.2-15.5c-0.1-5.1-1.4-8.4-6.9-8.3c-5.5,0.1-7.8,2-7.7,7.8
				c0.1,5.3,0.1,10.7,0.2,16c0.6-0.6,1.3-1.3,1.9-1.9c-11.6,0-23.3,0-34.9,0c-1,0-1.9,0.9-1.9,1.9c0,5,0,10,0,15
				c0,1,0.9,1.9,1.9,1.9c23.6,0,47.3,0,70.9,0c-0.4-1.1-0.9-2.1-1.3-3.2c-15.2,15.8-28.3,34-42,51.2
				C113,132.6,115.7,135.2,117.2,133.4z"/>
		</g>
	</g>
	<g class="st1">
		<g>
			<path d="M237.8,128.5c-0.3,46.9-31,88.7-75.8,102.8c-45.1,14.2-95-4.1-121.3-43c-26.5-39.1-23.2-92.5,6.8-128.8
				c30.1-36.4,82-48.4,125.3-30C212,46.4,237.5,86,237.8,128.5c0,2.4,3.8,2.4,3.8,0c-0.3-44.1-26.5-84.3-66.9-102.1
				C134.1,8.5,86,17.5,53.7,47.5c-32.5,30.3-43.2,78.7-27.9,120.1c15.1,40.9,54.1,69,97.3,72c30.6,2.1,61-9.3,83.4-30.1
				c22.4-20.8,34.8-50.6,35-81C241.5,126.1,237.8,126.1,237.8,128.5z"/>
		</g>
	</g>
</g>
<g id="Line_Expand">
	<g>
		<path d="M231.9,95.3c0.8,2.3,4.4,1.3,3.6-1c-3.3-9.8-7.8-19-13.5-27.6c-1.3-2-4.6-0.1-3.2,1.9C224.3,77,228.7,85.8,231.9,95.3z"/>
		<path d="M91.8,233.8c41.7,15.4,89.7,3,119.8-29.3c19-20.4,29.3-47.7,29.5-75.5c0-2.4-3.7-2.4-3.8,0c-0.3,46.9-31,88.7-75.8,102.8
			c-45.1,14.2-95-4.1-121.3-43C13.7,149.7,17,96.3,47,60.1c32-38.7,88-49.4,132.4-26.6c10.4,5.3,19.8,12.6,27.9,20.9
			c1.7,1.7,4.3-0.9,2.7-2.7C175.6,16.6,121.7,7.8,78,30.3C38.8,50.5,15.6,93.6,18.6,137.4C21.6,180.8,51.2,218.7,91.8,233.8z"/>
		<path d="M199,195.4c17.2-18.4,26.8-42.2,27-67.4c0-2.4-3.7-2.4-3.8,0c-0.2,24.2-9.3,47.1-25.9,64.7
			C194.7,194.5,197.4,197.1,199,195.4z"/>
		<circle cx="194.6" cy="198.9" r="2.4"/>
		<path d="M101.6,152.9c2.8-3.5,5.5-6.9,8.3-10.4c1.5-1.9-1.1-4.5-2.7-2.7c-2.8,3.5-5.5,6.9-8.3,10.4
			C97.4,152.1,100.1,154.8,101.6,152.9z"/>
		<path d="M182,192.9c0-5,0-10,0-15c0-1-0.9-1.9-1.9-1.9c-25.7,0-51.4,0-77,0c13.2-15.4,25.7-31.3,38.4-47.1
			c9.5-11.7,18.9-23.4,28.4-35.1c2.7-3.3,5.4-6.7,8.1-10c2-2.4,1.9-3.9,1.9-7.2c0-3.6,0-7.2,0-10.8c0-1-0.9-1.9-1.9-1.9
			c-14.5,0-28.9,0-43.4,0c0-4.5-0.1-9.1-0.1-13.6c-0.1-5.1-1.4-8.4-6.9-8.3c-5.5,0.1-7.8,2-7.7,7.8c0.1,4.7,0.1,9.4,0.2,14.2
			c-11,0-22,0-33,0c-1,0-1.9,0.9-1.9,1.9c0,5,0,10,0,15c0,1,0.9,1.9,1.9,1.9c22.2,0,44.4,0,66.6,0c-14,15.1-26.3,32-39.1,48
			c-1.5,1.9,1.1,4.5,2.7,2.7c13.7-17.1,26.8-35.3,42-51.2c1.1-1.2,0.3-3.2-1.3-3.2c-23,0-46,0-69,0c0-3.7,0-7.5,0-11.2
			c11,0,22,0,33,0c1,0,1.9-0.9,1.9-1.9c0-3.4-0.1-6.8-0.1-10.3c0-2.1,0-4.2-0.1-6.3c0-2.4,0.6-3.5,3-3.5c2.4,0,4-0.3,4.1,2.9
			c0,1.9,0,3.9,0.1,5.8c0,3.8,0.1,7.5,0.1,11.3c0,1,0.8,1.9,1.9,1.9c14.5,0,28.9,0,43.4,0c0,2,0,4.1,0,6.1c0,1.7,0,3.5,0,5.2
			c0,0.7-0.1,1.1-0.1,1.3c-1.5,1.8-3,3.7-4.5,5.5c-8.6,10.7-17.2,21.3-25.9,32c-14.3,17.6-28.1,35.7-42.9,52.8c-1.7,2-3.4,4-5.1,5.9
			c-1,1.2-0.4,3.2,1.3,3.2c26.4,0,52.8,0,79.2,0c0,3.7,0,7.5,0,11.2c-15.2,0-30.4,0-45.5,0c-1,0-1.9,0.9-1.9,1.9
			c0.1,6.1,0.1,12.2,0.2,18.3c-2.4,0.1-4.7,0.2-7.1,0.3c-0.1-6.2-0.1-12.4-0.2-18.6c0-1-0.8-1.9-1.9-1.9c-13.4,0-26.9,0-40.3,0
			c0-2.3,0-4.6,0-6.9c0-1.7,0-3.4,0-5.1c0-0.4,0-0.7,0-1.1c3.7-4.7,7.5-9.3,11.2-14c1.5-1.9-1.1-4.5-2.7-2.7
			c-3.9,4.9-7.8,9.8-11.7,14.6c-1.3,1.7-0.6,5.3-0.6,7.2c0,3.2,0,6.5,0,9.7c0,1,0.9,1.9,1.9,1.9c13.4,0,26.9,0,40.3,0
			c0.1,6.2,0.1,12.5,0.2,18.7c0,1,0.8,1.9,1.9,1.9c3.6-0.2,7.2-0.3,10.8-0.5c1,0,1.9-0.8,1.9-1.9c-0.1-6.1-0.1-12.1-0.2-18.2
			c15.2,0,30.3,0,45.5,0C181.1,194.8,182,193.9,182,192.9z"/>
	</g>
</g>
<g id="Glyph" class="st0">
	<g class="st1">
		<path d="M130.2,19C69.7,19,20.7,68,20.7,128.5S69.7,238,130.2,238s109.5-49,109.5-109.5S190.6,19,130.2,19z M180.1,192.9h-47.4
			l0.2,20.1l-10.8,0.5l-0.2-20.6H79.7v-15.6l11.8-14.7l8.8-11.1l8.3-10.4l7.3-9.2l28.9-36.1c4.6-5.8,9-10.8,13.2-15.1H87v-15h34.9
			l-0.2-17.6c0-2.4,1.2-4.3,2.7-4.3l5.5-0.1c1.5,0,2.7,1.9,2.7,4.2l0.2,17.7H178v15L106.7,169l-7.7,8.9h81.1V192.9z M194.6,201.3
			c-1.3,0-2.4-1.1-2.4-2.4c0-1.3,1.1-2.4,2.4-2.4c1.3,0,2.4,1.1,2.4,2.4C197,200.2,195.9,201.3,194.6,201.3z M199,195.4
			c-1.7,1.8-4.3-0.9-2.7-2.7c16.6-17.6,25.7-40.5,25.9-64.7c0-2.4,3.8-2.4,3.8,0C225.8,153.2,216.3,177,199,195.4z"/>
	</g>
</g>
</svg>
