<?xml version="1.0" encoding="utf-8"?>
<!-- Generator: Adobe Illustrator 23.0.3, SVG Export Plug-In . SVG Version: 6.00 Build 0)  -->
<svg version="1.1" xmlns="http://www.w3.org/2000/svg" xmlns:xlink="http://www.w3.org/1999/xlink" x="0px" y="0px"
	 viewBox="0 0 256 256" style="enable-background:new 0 0 256 256;" xml:space="preserve">
<style type="text/css">
	.st0{display:none;}
	.st1{display:inline;}
</style>
<g id="SOURCE" class="st0">
	<g class="st1">
		<g>
			<path d="M219.8,128.8c-0.2,24.2-9.3,47.1-25.9,64.7c-1.7,1.8,1,4.4,2.7,2.7c17.2-18.4,26.8-42.2,27-67.4
				C223.5,126.3,219.8,126.3,219.8,128.8L219.8,128.8z"/>
		</g>
	</g>
	<circle class="st1" cx="192.1" cy="199.6" r="2.4"/>
	<g class="st1">
		<g>
			<path d="M80.9,172.6c20.8,25.7,58.2,29.6,84.2,9.4c26.2-20.2,29.2-58.7,9.4-84.2c-0.7-0.9-1.9-0.6-2.7,0
				c-9.2,7.1-18.3,14.2-27.5,21.3c-0.6,0.5-0.7,1.7-0.3,2.3c7.1,9.5,6.2,22-2.5,30.2c-9.3,8.8-23.9,6.3-31.7-3
				c-0.7-0.8-1.9-0.6-2.7,0c-8.8,7.1-17.6,14.3-26.3,21.4c-1.9,1.5,0.8,4.2,2.7,2.7c8.8-7.1,17.6-14.3,26.3-21.4c-0.9,0-1.8,0-2.7,0
				c9,10.7,24.4,12.5,35.6,4.2c11.3-8.5,12.8-24.9,4.5-35.9c-0.1,0.8-0.2,1.5-0.3,2.3c9.2-7.1,18.3-14.2,27.5-21.3
				c-0.9,0-1.8,0-2.7,0c18.9,24.5,14.5,59.5-9.4,78.9c-24.1,19.5-59.9,14-78.9-9.4C82,168.1,79.4,170.7,80.9,172.6z"/>
		</g>
	</g>
	<g class="st1">
		<g>
			<path d="M106.2,143c-7.1-9.5-6.3-21.9,2.4-30.2c9.3-8.8,23.9-6.4,31.7,2.8c0.7,0.8,1.9,0.6,2.7,0c9-7.3,17.9-14.7,26.9-22
				c0.8-0.7,0.6-1.9,0-2.7c-21-25.6-58.3-29.3-84.3-9.1c-26.1,20.3-28.9,58.8-9.1,84.3c0.7,0.9,1.9,0.6,2.7,0
				c8.9-7,17.8-13.9,26.8-20.9c1.9-1.5-0.8-4.1-2.7-2.7c-8.9,7-17.8,13.9-26.8,20.9c0.9,0,1.8,0,2.7,0c-19.1-24.4-14.7-59.4,9.1-79
				c24-19.6,59.8-14.3,79,9.1c0-0.9,0-1.8,0-2.7c-9,7.3-17.9,14.7-26.9,22c0.9,0,1.8,0,2.7,0c-9-10.7-24.4-12.4-35.6-4
				c-11.3,8.5-12.7,24.9-4.4,35.9C104.4,146.8,107.6,145,106.2,143z"/>
		</g>
	</g>
	<g class="st1">
		<g>
			<path d="M198.1,84c-0.7,12.4-18.6,12.4-19.3,0C178.2,71.6,197.5,71.7,198.1,84c0.1,2.4,3.9,2.4,3.8,0c-0.4-7.6-5.8-13-13.4-13.4
				c-7.6-0.4-13,6.4-13.4,13.4c-0.4,7.6,6.4,13,13.4,13.4c7.6,0.4,13-6.4,13.4-13.4C202,81.6,198.3,81.6,198.1,84z"/>
		</g>
	</g>
	<g class="st1">
		<g>
			<path d="M72.1,180c-0.7,12.4-18.6,12.4-19.3,0C52.2,167.6,71.5,167.7,72.1,180c0.1,2.4,3.9,2.4,3.8,0c-0.4-7.6-5.8-13-13.4-13.4
				c-7.6-0.4-13,6.4-13.4,13.4c-0.4,7.6,6.4,13,13.4,13.4c7.6,0.4,13-6.4,13.4-13.4C76,177.6,72.3,177.6,72.1,180z"/>
		</g>
	</g>
	<g class="st1">
		<g>
			<path d="M235.6,131.5c-0.3,46.9-31,88.7-75.8,102.8c-45.1,14.2-95-4.1-121.3-43C12,152.3,15.3,98.9,45.3,62.6
				c30.1-36.4,82-48.4,125.3-30C209.9,49.4,235.3,89.1,235.6,131.5c0,2.4,3.8,2.4,3.8,0c-0.3-44.1-26.5-84.3-66.9-102.1
				c-40.5-17.9-88.7-8.9-120.9,21.1C19,80.8,8.3,129.2,23.7,170.7c15.1,40.9,54.1,69,97.3,72c30.6,2.1,61-9.3,83.4-30.1
				c22.4-20.8,34.8-50.6,35-81C239.4,129.1,235.6,129.1,235.6,131.5z"/>
		</g>
	</g>
</g>
<g id="Line_Expand">
	<g>
		<path d="M233,95.1c-3.3-9.8-7.8-19-13.5-27.6c-1.3-2-4.6-0.1-3.2,1.9c5.5,8.3,9.9,17.2,13.1,26.7C230.2,98.3,233.8,97.4,233,95.1z
			"/>
		<path d="M89.3,234.5c41.7,15.4,89.7,3,119.8-29.3c19-20.4,29.3-47.7,29.5-75.5c0-2.4-3.7-2.4-3.8,0c-0.3,46.9-31,88.7-75.8,102.8
			c-45.1,14.2-95-4.1-121.3-43c-26.5-39.1-23.2-92.5,6.8-128.8c32-38.7,88-49.4,132.4-26.6c10.4,5.3,19.8,12.6,27.9,20.9
			c1.7,1.7,4.3-0.9,2.7-2.7C173.1,17.3,119.2,8.5,75.5,31C36.3,51.3,13.1,94.3,16.1,138.1C19.1,181.6,48.7,219.5,89.3,234.5z"/>
		<path d="M196.5,196.1c17.2-18.4,26.8-42.2,27-67.4c0-2.4-3.7-2.4-3.8,0c-0.2,24.2-9.3,47.1-25.9,64.7
			C192.2,195.2,194.9,197.9,196.5,196.1z"/>
		<circle cx="192.1" cy="199.6" r="2.4"/>
		<path d="M64.2,115.4c-1.3,6-1.7,12-1.3,18.1c0.2,2.4,3.9,2.4,3.8,0c-0.4-5.8,0-11.4,1.2-17.1C68.4,114.1,64.7,113.1,64.2,115.4z"
			/>
		<path d="M78.5,166.2c9-6.9,17.9-13.8,26.9-20.8c0.6-0.5,0.7-1.7,0.3-2.3c-7.1-9.5-6.2-22,2.5-30.2c9.3-8.8,23.9-6.3,31.7,3
			c0.7,0.8,1.9,0.6,2.7,0c9-7.3,18-14.6,27-21.9c0.9-0.7,0.6-1.9,0-2.7c-12.8-15.8-32.5-24.1-52.8-22.3c-21.4,1.9-40.2,16.1-49,35.6
			c-1,2.2,2.3,4.1,3.2,1.9c8.5-19,26.3-32,47.1-33.9c18.1-1.6,35.7,6.2,47.5,19.7c-8,6.5-16.1,13.1-24.1,19.6
			c-9.1-9.6-23.7-10.9-34.5-2.9c-10.9,8.1-12.6,23.6-5.5,34.6c-8,6.2-16,12.3-23.9,18.5c-2.3-3.1-4.2-6.4-5.9-9.9
			c-1.1-2.2-4.3-0.3-3.2,1.9c2,4.1,4.4,8,7.2,11.6C76.3,166.8,77.5,167,78.5,166.2z"/>
		<path d="M80.9,172.6c20.8,25.7,58.2,29.6,84.2,9.4c26.2-20.2,29.2-58.7,9.4-84.2c-0.7-0.9-1.9-0.6-2.7,0
			c-9.2,7.1-18.3,14.2-27.5,21.3c-0.6,0.5-0.7,1.7-0.3,2.3c7.1,9.5,6.2,22-2.5,30.2c-9.3,8.8-23.9,6.3-31.7-3
			c-0.7-0.8-1.9-0.6-2.7,0c-8.8,7.1-17.6,14.3-26.3,21.4c-0.8,0.7-0.8,1.6-0.2,2.3C80.7,172.3,80.8,172.5,80.9,172.6z M142.9,155.3
			c10.9-8.1,12.6-23.6,5.5-34.6c8.2-6.3,16.4-12.7,24.6-19c17.8,24.4,13.1,58.5-10.4,77.6c-23.5,19.1-58.2,14.3-77.6-7.9
			c7.8-6.4,15.7-12.7,23.5-19.1C117.5,162,132.1,163.4,142.9,155.3z"/>
		<path d="M201.8,84.6c0-0.2,0.1-0.4,0.1-0.6c0-0.2,0-0.4-0.1-0.5c-0.6-7.3-5.9-12.4-13.3-12.8c-7.6-0.4-13,6.4-13.4,13.4
			c-0.4,7.6,6.4,13,13.4,13.4C195.9,97.8,201.2,91.3,201.8,84.6z M178.9,84c-0.7-12.4,18.6-12.3,19.3,0
			C197.5,96.4,179.5,96.4,178.9,84z"/>
		<path d="M49.1,180c-0.4,7.6,6.4,13,13.4,13.4c7.4,0.4,12.7-6.1,13.3-12.8c0-0.2,0.1-0.4,0.1-0.6c0-0.2,0-0.4-0.1-0.5
			c-0.6-7.3-5.9-12.4-13.3-12.8C54.9,166.2,49.5,173,49.1,180z M72.1,180c-0.7,12.4-18.6,12.4-19.3,0
			C52.2,167.6,71.5,167.7,72.1,180z"/>
	</g>
</g>
<g id="Glyph" class="st0">
	<g class="st1">
		<path d="M128,22c-60.5,0-109.5,49-109.5,109.5S67.5,241,128,241s109.5-49,109.5-109.5S188.5,22,128,22z M62.5,191.5
			c-6.4,0-11.5-5.1-11.5-11.5s5.1-11.5,11.5-11.5S74,173.6,74,180S68.9,191.5,62.5,191.5z M86.9,83.2c25-20,61.6-16,81.6,9.1
			l-26.9,22c-8.2-10.2-23.1-11.9-33.3-3.7c-10.2,8.2-11.9,23.1-3.7,33.3l-26.8,20.9C57.8,139.8,61.8,103.3,86.9,83.2z M163.8,180.7
			c-25.1,19.9-61.7,15.7-81.6-9.4l26.3-21.4c8.1,10.3,23.1,12,33.3,3.9c10.3-8.1,12-23.1,3.9-33.3l27.5-21.3
			C193.2,124.3,189,160.8,163.8,180.7z M177,84c0-6.4,5.1-11.5,11.5-11.5S200,77.6,200,84c0,6.4-5.1,11.5-11.5,11.5S177,90.4,177,84
			z M192.1,202c-1.3,0-2.4-1.1-2.4-2.4c0-1.3,1.1-2.4,2.4-2.4c1.3,0,2.4,1.1,2.4,2.4C194.5,200.9,193.4,202,192.1,202z M196.5,196.1
			c-1.7,1.8-4.3-0.9-2.7-2.7c16.6-17.6,25.7-40.5,25.9-64.7c0-2.4,3.8-2.4,3.8,0C223.3,153.9,213.8,177.8,196.5,196.1z"/>
	</g>
</g>
</svg>
