<?xml version="1.0" encoding="utf-8"?>
<!-- Generator: Adobe Illustrator 23.0.3, SVG Export Plug-In . SVG Version: 6.00 Build 0)  -->
<svg version="1.1" xmlns="http://www.w3.org/2000/svg" xmlns:xlink="http://www.w3.org/1999/xlink" x="0px" y="0px"
	 viewBox="0 0 256 256" style="enable-background:new 0 0 256 256;" xml:space="preserve">
<style type="text/css">
	.st0{display:none;}
	.st1{display:inline;}
</style>
<g id="SOURCE" class="st0">
	<g class="st1">
		<g>
			<path d="M220.6,127c-0.2,24.2-9.3,47.1-25.9,64.7c-1.7,1.8,1,4.4,2.7,2.7c17.2-18.4,26.8-42.2,27-67.4
				C224.4,124.6,220.6,124.6,220.6,127L220.6,127z"/>
		</g>
	</g>
	<circle class="st1" cx="192.9" cy="197.9" r="2.4"/>
	<g class="st1">
		<g>
			<path d="M121.7,193.8c18.8,0,37.7,0,56.5,0c0.8,0,1.6-0.6,1.8-1.4c1.7-8,3.3-16,5-23.9c0.2-1.2-0.5-2.4-1.8-2.4
				c-24.3,0-48.6,0-72.9,0c0.6,0.8,1.2,1.6,1.8,2.4c1.8-8.7,3.6-17.4,5.5-26.1c0.4-2-1.5,0.4,0.3-0.3c1.8-0.8,3.6-1.5,5.4-2.3
				c5.3-2.3,10.6-4.5,15.9-6.8c3.5-1.5,7.2-2.6,8.7-6.5c1-2.7-2.7-9.1-5.6-9.4c-4.1-0.4-8.4,2.3-12.1,3.8c-4.1,1.8-8.3,3.5-12.4,5.3
				c0.9,0.7,1.8,1.4,2.8,2.1c5.5-26.4,11-52.7,16.5-79.1c0.2-1.2-0.5-2.4-1.8-2.4c-9.8,0-19.6,0-29.4,0c-0.8,0-1.6,0.6-1.8,1.4
				C99,72.5,94,96.7,88.9,121c-1.1,5.4-2.2,10.7-3.4,16.1c-0.2,1.2-0.5,2.4-0.7,3.6c-0.2,1.1-0.1-0.3,0.7-0.6
				c-0.7,0.3-1.4,0.6-2.2,0.9c-6.8,2.9-13.6,5.8-20.3,8.7c-3.6,1.5-12.7,4.1-10.4,9.7c1.2,2.9,1.8,5.7,4.8,7c2.6,1.1,6-0.9,8.4-2
				c6.3-2.7,12.6-5.4,18.9-8.1c-0.9-0.7-1.8-1.4-2.8-2.1c-2.6,12.4-5.2,24.8-7.8,37.3c-0.2,1.2,0.5,2.4,1.8,2.4
				C91.2,193.8,106.5,193.8,121.7,193.8c2.4,0,2.4-3.8,0-3.8c-15.3,0-30.5,0-45.8,0c0.6,0.8,1.2,1.6,1.8,2.4
				c2.6-12.4,5.2-24.8,7.8-37.3c0.4-1.7-1.2-2.8-2.8-2.1c-5.6,2.4-11.2,4.8-16.8,7.2c-0.9,0.4-7.3,3.7-8.1,2.1
				c-0.6-1.4-1.2-2.8-1.8-4.2c-0.6-1.3,2.1-2.3,3.2-2.8c6.2-2.7,12.4-5.3,18.7-8c2.1-0.9,9.7-2.6,10.3-5.4
				c5.3-25.3,10.6-50.5,15.9-75.8c1.2-5.7,2.4-11.3,3.6-17c-0.6,0.5-1.2,0.9-1.8,1.4c9.8,0,19.6,0,29.4,0c-0.6-0.8-1.2-1.6-1.8-2.4
				c-5.5,26.4-11,52.7-16.5,79.1c-0.4,1.7,1.2,2.8,2.8,2.1c6.8-2.9,13.5-6.3,20.5-8.6c2.7-0.9,3.4,3.2,4.1,5
				c0.3,0.8-3.2,2.2-4.2,2.7c-4.2,1.8-8.5,3.6-12.7,5.5c-3.8,1.6-7.6,3.2-11.3,4.9c-2.1,0.9-2,2.6-2.5,4.7c-1.7,8-3.3,16-5,24
				c-0.2,1.2,0.5,2.4,1.8,2.4c24.3,0,48.6,0,72.9,0c-0.6-0.8-1.2-1.6-1.8-2.4c-1.7,8-3.3,16-5,23.9c0.6-0.5,1.2-0.9,1.8-1.4
				c-18.8,0-37.7,0-56.5,0C119.3,190,119.3,193.8,121.7,193.8z"/>
		</g>
	</g>
	<g class="st1">
		<g>
			<path d="M236.1,128.5c-0.3,46.9-31,88.7-75.8,102.8c-45.1,14.2-95-4.1-121.3-43c-26.5-39.1-23.2-92.5,6.8-128.8
				c30.1-36.4,82-48.4,125.3-30C210.4,46.4,235.9,86,236.1,128.5c0,2.4,3.8,2.4,3.8,0c-0.3-44.1-26.5-84.3-66.9-102.1
				C132.4,8.5,84.3,17.5,52.1,47.5C19.5,77.8,8.8,126.1,24.2,167.6c15.1,40.9,54.1,69,97.3,72c30.6,2.1,61-9.3,83.4-30.1
				c22.4-20.8,34.8-50.6,35-81C239.9,126.1,236.1,126.1,236.1,128.5z"/>
		</g>
	</g>
</g>
<g id="Line_Expand">
	<g>
		<path d="M230.3,94.3c0.8,2.3,4.4,1.3,3.6-1c-3.3-9.8-7.8-19-13.5-27.6c-1.3-2-4.6-0.1-3.2,1.9C222.7,76,227,84.8,230.3,94.3z"/>
		<path d="M90.1,232.8c41.7,15.4,89.7,3,119.8-29.3c19-20.4,29.3-47.7,29.5-75.5c0-2.4-3.7-2.4-3.8,0c-0.3,46.9-31,88.7-75.8,102.8
			c-45.1,14.2-95-4.1-121.3-43C12,148.7,15.3,95.3,45.3,59.1c32-38.7,88-49.4,132.4-26.6c10.4,5.3,19.8,12.6,27.9,20.9
			c1.7,1.7,4.3-0.9,2.7-2.7c-34.3-35.2-88.2-44-131.9-21.5C37.1,49.5,13.9,92.6,16.9,136.4C19.9,179.8,49.5,217.7,90.1,232.8z"/>
		<path d="M197.4,194.4c17.2-18.4,26.8-42.2,27-67.4c0-2.4-3.7-2.4-3.8,0c-0.2,24.2-9.3,47.1-25.9,64.7
			C193.1,193.5,195.7,196.1,197.4,194.4z"/>
		<circle cx="192.9" cy="197.9" r="2.4"/>
		<path d="M128,74.6c-1.1,5.3-2.2,10.5-3.3,15.8c-0.5,2.4,3.1,3.4,3.6,1c1.1-5.3,2.2-10.5,3.3-15.8C132.1,73.2,128.5,72.2,128,74.6z
			"/>
		<path d="M121.7,190c-2.4,0-2.4,3.8,0,3.8c18.8,0,37.7,0,56.5,0c0.8,0,1.6-0.6,1.8-1.4c1.7-8,3.3-16,5-23.9
			c0.2-1.2-0.5-2.4-1.8-2.4c-23.5,0-47,0-70.5,0c1.7-7.9,3.3-15.8,5-23.7c0-0.1,0-0.2,0-0.3c0.1,0,0.2-0.1,0.3-0.1
			c1.8-0.8,3.6-1.5,5.4-2.3c5.3-2.3,10.6-4.5,15.9-6.8c3.5-1.5,7.2-2.6,8.7-6.5c1-2.7-2.7-9.1-5.6-9.4c-4.1-0.4-8.4,2.3-12.1,3.8
			c-3,1.3-5.9,2.5-8.9,3.8c1.5-7.4,3.1-14.8,4.6-22.2c0.5-2.4-3.1-3.4-3.6-1c-1.8,8.6-3.6,17.2-5.4,25.8c-0.4,1.7,1.2,2.8,2.8,2.1
			c6.8-2.9,13.5-6.3,20.5-8.6c2.7-0.9,3.4,3.2,4.1,5c0.3,0.8-3.2,2.2-4.2,2.7c-4.2,1.8-8.5,3.6-12.7,5.5c-3.8,1.6-7.6,3.2-11.3,4.9
			c-2.1,0.9-2,2.6-2.5,4.7c-1.7,8-3.3,16-5,24c-0.2,1.2,0.5,2.4,1.8,2.4c23.5,0,47,0,70.5,0c-1.4,6.7-2.8,13.5-4.2,20.2
			C158.4,190,140.1,190,121.7,190z"/>
		<path d="M94.8,193.8c4.6,0,9.3,0,13.9,0c2.4,0,2.4-3.8,0-3.8c-4.6,0-9.3,0-13.9,0C92.3,190,92.3,193.8,94.8,193.8z"/>
		<path d="M59.3,155.3c6.2-2.7,12.4-5.3,18.7-8c2.1-0.9,9.7-2.6,10.3-5.4c5.3-25.3,10.6-50.5,15.9-75.8c1.1-5.2,2.2-10.4,3.3-15.6
			c8.5,0,17,0,25.6,0c-0.8,4-1.7,8-2.5,11.9c-0.5,2.4,3.1,3.4,3.6,1c1-4.8,2-9.5,3-14.3c0.2-1.2-0.5-2.4-1.8-2.4
			c-9.8,0-19.6,0-29.4,0c-0.8,0-1.6,0.6-1.8,1.4C99,72.5,94,96.7,88.9,121c-1.1,5.4-2.2,10.7-3.4,16.1c-0.2,1.1-0.4,2.1-0.7,3.2
			c-0.5,0.2-1,0.4-1.5,0.6c-6.8,2.9-13.6,5.8-20.3,8.7c-3.6,1.5-12.7,4.1-10.4,9.7c1.2,2.9,1.8,5.7,4.8,7c2.6,1.1,6-0.9,8.4-2
			c5.1-2.2,10.3-4.4,15.4-6.6c-2.3,11.2-4.7,22.4-7,33.6c-0.2,1.2,0.5,2.4,1.8,2.4c3.5,0,7,0,10.6,0c2.4,0,2.4-3.8,0-3.8
			c-2.8,0-5.5,0-8.3,0c2.4-11.6,4.9-23.3,7.3-34.9c0.4-1.7-1.2-2.8-2.8-2.1c-5.6,2.4-11.2,4.8-16.8,7.2c-0.9,0.4-7.3,3.7-8.1,2.1
			c-0.6-1.4-1.2-2.8-1.8-4.2C55.5,156.8,58.2,155.8,59.3,155.3z M84.7,141C84.7,141.1,84.7,141.1,84.7,141L84.7,141z"/>
	</g>
</g>
<g id="Glyph" class="st0">
	<g class="st1">
		<path d="M128.2,18C67.7,18,18.7,67,18.7,127.5S67.7,237,128.2,237s109.5-49,109.5-109.5S188.6,18,128.2,18z M178.3,191.9h-56.5
			h-13.1H94.8l-7.5-0.1l-0.8,0.1H75.9l7.8-37.3l-21.7,9.3c-2.6,1.1-5.1,0.9-5.7-0.5l-2.1-5c-0.6-1.4,1-3.4,3.6-4.5l28.6-12.3
			l19.5-92.9h29.4l-3,14.3l-2.5,12.1l-3.3,15.8l-2.3,11.1l-5.4,25.8l19.4-8.3c2.6-1.1,5.1-0.9,5.7,0.5l2.1,5c0.6,1.4-1,3.4-3.6,4.5
			l-26.4,11.3l-5.7,27.2h72.9L178.3,191.9z M192.9,200.3c-1.3,0-2.4-1.1-2.4-2.4c0-1.3,1.1-2.4,2.4-2.4c1.3,0,2.4,1.1,2.4,2.4
			C195.3,199.2,194.2,200.3,192.9,200.3z M197.4,194.4c-1.7,1.8-4.3-0.9-2.7-2.7c16.6-17.6,25.7-40.5,25.9-64.7c0-2.4,3.8-2.4,3.8,0
			C224.2,152.2,214.6,176,197.4,194.4z"/>
	</g>
</g>
</svg>
