<?xml version="1.0" encoding="utf-8"?>
<!-- Generator: Adobe Illustrator 23.0.3, SVG Export Plug-In . SVG Version: 6.00 Build 0)  -->
<svg version="1.1" xmlns="http://www.w3.org/2000/svg" xmlns:xlink="http://www.w3.org/1999/xlink" x="0px" y="0px"
	 viewBox="0 0 256 256" style="enable-background:new 0 0 256 256;" xml:space="preserve">
<style type="text/css">
	.st0{display:none;}
	.st1{display:inline;}
</style>
<g id="SOURCE" class="st0">
	<g class="st1">
		<g>
			<path d="M133.9,223.7c-0.5,7.9-7.1,8.4-13.1,8.4c-6.1,0-12.1,0-18.2,0c-15.4,0-30.9,0-46.3,0c-8.2,0-20.5,2.1-20.5-9.8
				c0-8.7,0-17.3,0-26c0-31.3,0-62.6,0-93.9c0-10.9,0-21.9,0-32.8c0-1.7,0-3.5,0-5.2c0-7.7,6.9-8.4,12.6-8.4c25.5,0,51.1,0,76.6,0
				c10.7,0,8.9,11.5,8.9,18.7c0,12.6,0,25.1,0,37.7C133.9,149.4,133.9,186.5,133.9,223.7c0,2.5,3.9,2.5,3.9,0c0-49.3,0-98.6,0-148
				c0-7.3,1.5-16.1-5-21.2c-3.4-2.7-7.5-2.4-11.5-2.4c-5.9,0-11.8,0-17.8,0c-15.5,0-31,0-46.5,0c-10.1,0-24.3-1.8-25.1,12.3
				c-0.4,6,0,12,0,18c0,14.1,0,28.2,0,42.3c0,29.2,0,58.4,0,87.6c0,7.3-1.5,16.1,5,21.2c3.4,2.7,7.5,2.4,11.5,2.4
				c5.9,0,11.8,0,17.8,0c15.5,0,31,0,46.5,0c10.1,0,24.3,1.8,25.1-12.3C137.9,221.2,134.1,221.2,133.9,223.7z"/>
		</g>
	</g>
	<g class="st1">
		<g>
			<path d="M121,199.3c-0.7,7.4-9.6,5.8-14.7,5.8c-7.6,0-15.3,0-22.9,0c-7.3,0-14.7,0-22,0c-4.6,0-12.6,1.2-12.6-5.9
				c0-24.3,0-48.6,0-72.8c0-13,0-26,0-38.9c0-2.1,0-4.2,0-6.3c0-7.4,10-5.8,14.7-5.8c15,0,29.9,0,44.9,0c4.6,0,12.6-1.2,12.6,5.9
				c0,2.6,0,5.2,0,7.8C121,125.7,121,162.5,121,199.3c0,2.4,3.8,2.4,3.8,0c0-23.3,0-46.7,0-70c0-13.5,0-26.9,0-40.4
				c0-7.9,0.3-17.4-10.6-17.4c-13.5,0-27,0-40.6,0c-8.2,0-28.6-3.6-28.6,9.6c0,23.7,0,47.3,0,71c0,13.1,0,26.2,0,39.4
				c0,7.9-0.3,17.4,10.6,17.4c13.2,0,26.4,0,39.6,0c6,0,12,0,18,0c6.2,0,11-2.9,11.6-9.6C124.9,196.9,121.2,196.9,121,199.3z"/>
		</g>
	</g>
	<g class="st1">
		<g>
			<path d="M91.1,220.1c-0.4,6.9-10.4,6.9-10.8,0C80,213.2,90.8,213.2,91.1,220.1c0.1,2.4,3.9,2.4,3.8,0c-0.3-5.2-4-8.8-9.1-9.1
				c-5.1-0.3-8.9,4.4-9.1,9.1c-0.3,5.1,4.4,8.9,9.1,9.1c5.1,0.3,8.9-4.4,9.1-9.1C95,217.7,91.3,217.7,91.1,220.1z"/>
		</g>
	</g>
	<g class="st1">
		<g>
			<path d="M63,143.4c5.7-9,11.3-18,17-27c-1.1,0-2.2,0-3.2,0c4.2,8.2,8.3,16.5,12.5,24.7c0.7,1.3,2.5,1.1,3.2,0
				c2.8-4.4,5.7-8.8,8.5-13.2c-1,0.1-2,0.3-2.9,0.4c3.2,3.8,6.3,7.7,9.5,11.5c1.5,1.9,4.2-0.8,2.7-2.7c-3.2-3.8-6.3-7.7-9.5-11.5
				c-0.8-1-2.3-0.6-2.9,0.4c-2.8,4.4-5.7,8.8-8.5,13.2c1.1,0,2.2,0,3.2,0c-4.2-8.2-8.3-16.5-12.5-24.7c-0.7-1.3-2.5-1.1-3.2,0
				c-5.7,9-11.3,18-17,27C58.4,143.6,61.7,145.5,63,143.4L63,143.4z"/>
		</g>
	</g>
	<g class="st1">
		<g>
			<g>
				<path d="M131.1,54.2c9.4-12.9,18.8-25.8,28.1-38.7c-1.1,0-2.2,0-3.2,0c17.6,26.6,35.3,53.2,52.9,79.8c0.7-0.9,1.4-1.8,2.1-2.8
					c-14.1-5.9-28.2-11.9-42.3-17.8c-2.9-1.2-9.1-5.5-12.3-4.1c-7,2.9-13.9,5.8-20.9,8.8c-2.2,0.9-1.2,4.6,1,3.6
					c6.7-2.8,13.3-5.6,20-8.4c1.4-0.6,1.7-0.2,0.7-0.6c0.6,0.3,1.2,0.5,1.9,0.8c3.1,1.3,6.3,2.6,9.4,4c13.9,5.8,27.7,11.7,41.6,17.5
					c1.5,0.6,3-1.5,2.1-2.8c-17.6-26.6-35.3-53.2-52.9-79.8c-0.8-1.2-2.4-1.2-3.2,0c-9.4,12.9-18.8,25.8-28.1,38.7
					C126.4,54.2,129.7,56.1,131.1,54.2L131.1,54.2z"/>
			</g>
		</g>
		<g>
			<g>
				<path d="M135.1,164.1c7,10.5,13.9,21,20.9,31.5c0.8,1.2,2.4,1.2,3.2,0c17.6-26.6,35.3-53.2,52.9-79.8c1-1.6-1-3.5-2.6-2.6
					c-13.6,8.6-27.3,17.2-40.9,25.8c-3.1,1.9-6.2,3.9-9.2,5.8c-0.8,0.5-1.5,1-2.3,1.5c-0.9,0.6,2.5,0.9,0.5-0.4
					c-6.7-4.2-13.4-8.4-20.1-12.7c-2.1-1.3-3.9,2-1.9,3.2c7,4.4,14.1,8.9,21.1,13.3c0.5,0.3,1.3,0.3,1.9,0
					c17.6-11.1,35.3-22.2,52.9-33.3c-0.9-0.9-1.7-1.7-2.6-2.6c-17.6,26.6-35.3,53.2-52.9,79.8c1.1,0,2.2,0,3.2,0
					c-7-10.5-13.9-21-20.9-31.5C137,160.2,133.7,162.1,135.1,164.1L135.1,164.1z"/>
			</g>
		</g>
		<g>
			<g>
				<path d="M137.6,94c6.6-3.1,13.1-6.3,19.7-9.4c2.1-1,1.2-0.1-0.2-0.7c0.6,0.3,1.2,0.5,1.8,0.8c3.1,1.4,6.2,2.7,9.4,4.1
					c13.8,6,27.5,12,41.3,18c0-1.1,0-2.2,0-3.2c-13.7,8.4-27.5,16.8-41.2,25.2c-3,1.8-6,3.7-9,5.5c-0.7,0.4-1.4,0.9-2.1,1.3
					c-0.2,0.1,2.5,0.8,0.6-0.5c-6.6-4.5-13.2-8.9-19.8-13.4c-2-1.4-3.9,1.9-1.9,3.2c6.9,4.7,13.9,9.4,20.8,14.1
					c0.5,0.4,1.4,0.3,1.9,0c17.5-10.7,35.1-21.5,52.6-32.2c1.1-0.7,1.4-2.6,0-3.2c-14.3-6.2-28.5-12.4-42.8-18.7
					c-3.1-1.3-9-5.6-12.4-3.9c-6.8,3.3-13.7,6.6-20.5,9.9C133.6,91.8,135.5,95,137.6,94L137.6,94z"/>
			</g>
		</g>
	</g>
</g>
<g id="Line_Expand">
	<g>
		<path d="M114.1,71.5c-13.5,0-27,0-40.6,0c-8.2,0-28.6-3.6-28.6,9.6c0,23.7,0,47.3,0,71c0,13.1,0,26.2,0,39.4
			c0,7.9-0.3,17.4,10.6,17.4c13.2,0,26.4,0,39.6,0c6,0,12,0,18,0c6,0,10.7-2.7,11.5-9.1c0-0.2,0.1-0.3,0.1-0.5c0-23.3,0-46.7,0-70
			c0-13.5,0-26.9,0-40.4C124.7,81.1,125,71.5,114.1,71.5z M106.2,205.1c-7.6,0-15.3,0-22.9,0c-7.3,0-14.7,0-22,0
			c-4.6,0-12.6,1.2-12.6-5.9c0-24.3,0-48.6,0-72.8c0-13,0-26,0-38.9c0-2.1,0-4.2,0-6.3c0-7.4,10-5.8,14.7-5.8c15,0,29.9,0,44.9,0
			c4.6,0,12.6-1.2,12.6,5.9c0,2.6,0,5.2,0,7.8c0,36.8,0,73.6,0,110.4C120.3,206.7,111.4,205.1,106.2,205.1z"/>
		<path d="M94.8,219.5c-0.5-4.9-4.1-8.3-9.1-8.6c-5.1-0.3-8.9,4.4-9.1,9.1c-0.3,5.1,4.4,8.9,9.1,9.1c4.9,0.3,8.6-4,9.1-8.6
			c0-0.2,0.1-0.4,0.1-0.6C94.9,219.9,94.9,219.7,94.8,219.5z M80.4,220.1c-0.4-6.9,10.4-6.9,10.8,0C90.8,227,80.7,227,80.4,220.1z"
			/>
		<path d="M100.7,125.7c-0.8-1-2.3-0.6-2.9,0.4c-2.2,3.5-4.5,6.9-6.7,10.4c-3.7-7.3-7.4-14.6-11.1-21.9c-0.7-1.3-2.5-1.1-3.2,0
			c-5.7,9-11.3,18-17,27c-1.3,2.1,2,3.9,3.2,1.9c5.1-8,10.1-16.1,15.2-24.1c3.7,7.3,7.4,14.6,11.1,21.8c0.7,1.3,2.5,1.1,3.2,0
			c2.4-3.7,4.7-7.3,7.1-11c2.7,3.2,5.3,6.4,8,9.7c1.5,1.9,4.2-0.8,2.7-2.7C107,133.3,103.8,129.5,100.7,125.7z"/>
		<path d="M209.6,113.3c-13.6,8.6-27.3,17.2-40.9,25.8c-3.1,1.9-6.2,3.9-9.2,5.8c-0.6,0.4-1.2,0.8-1.8,1.1c0,0,0,0-0.1,0
			c-6.6-4.1-13.2-8.3-19.8-12.4c0-2.5,0-5.1,0-7.6c6.4,4.3,12.8,8.6,19.2,12.9c0.5,0.4,1.4,0.3,1.9,0c17.5-10.7,35.1-21.5,52.6-32.2
			c1.1-0.7,1.4-2.6,0-3.2c-14.3-6.2-28.5-12.4-42.8-18.7c-3.1-1.3-9-5.6-12.4-3.9c-6.2,3-12.3,5.9-18.5,8.9c0-2.5,0-5,0-7.4
			c6.2-2.6,12.5-5.2,18.7-7.9c0.8-0.3,1.2-0.4,1.3-0.4c0.4,0.2,0.9,0.4,1.3,0.5c3.1,1.3,6.3,2.6,9.4,4c13.9,5.8,27.7,11.7,41.6,17.5
			c1.5,0.6,3-1.5,2.1-2.8c-17.6-26.6-35.3-53.2-52.9-79.8c-0.8-1.2-2.4-1.2-3.2,0c-7,10.5-14,21-20.9,31.6c-1.3,2,1.9,3.9,3.2,1.9
			c6.4-9.7,12.9-19.4,19.3-29.1c16,24.1,32,48.2,48,72.3c-12.3-5.2-24.6-10.3-36.9-15.5c-2.9-1.2-9.1-5.5-12.3-4.1
			c-6.2,2.6-12.4,5.2-18.6,7.8c0-0.9,0-1.7,0-2.6c0-7.3,1.5-16.1-5-21.2c-3.4-2.7-7.5-2.4-11.5-2.4c-5.9,0-11.8,0-17.8,0
			c-15.5,0-31,0-46.5,0c-10.1,0-24.3-1.8-25.1,12.3c-0.4,6,0,12,0,18c0,14.1,0,28.2,0,42.3c0,29.2,0,58.4,0,87.6
			c0,7.3-1.5,16.1,5,21.2c3.4,2.7,7.5,2.4,11.5,2.4c5.9,0,11.8,0,17.8,0c15.5,0,31,0,46.5,0c10.1,0,24.3,1.8,25.1-12.3
			c0-18.5,0-37,0-55.5c6.1,9.1,12.1,18.3,18.2,27.4c0.8,1.2,2.4,1.2,3.2,0c2-3.1,4.1-6.1,6.1-9.2c1.3-2-1.9-3.9-3.2-1.9
			c-1.5,2.2-3,4.5-4.5,6.7c-6.4-9.7-12.9-19.4-19.3-29.1c-0.2-0.2-0.3-0.4-0.5-0.5c0-7.9,0-15.8,0-23.7c6.3,4,12.6,7.9,18.9,11.9
			c0.5,0.3,1.3,0.3,1.9,0c15.2-9.6,30.4-19.1,45.6-28.7c-6.3,9.5-12.7,19.1-19,28.6c-1.3,2,1.9,3.9,3.2,1.9
			c7.9-11.9,15.8-23.9,23.8-35.8C213.2,114.3,211.1,112.3,209.6,113.3z M158.5,84C158.6,84,158.6,84,158.5,84L158.5,84z M157.3,84.5
			c0.3-0.1,0.5-0.2,0.7-0.3c0.3,0.1,0.6,0.3,0.9,0.4c3.1,1.4,6.2,2.7,9.4,4.1c12.7,5.6,25.5,11.1,38.2,16.7
			c-12.7,7.8-25.4,15.5-38.1,23.3c-3,1.8-6,3.7-9,5.5c-0.5,0.3-0.9,0.6-1.4,0.9c0,0-0.1,0-0.1-0.1c-6.6-4.5-13.2-8.9-19.8-13.4
			c-0.1,0-0.1-0.1-0.2-0.1c0-9.2,0-18.4,0-27.5C144.3,90.8,150.8,87.6,157.3,84.5z M120.8,232.1c-6.1,0-12.1,0-18.2,0
			c-15.4,0-30.9,0-46.3,0c-8.2,0-20.5,2.1-20.5-9.8c0-8.7,0-17.3,0-26c0-31.3,0-62.6,0-93.9c0-10.9,0-21.9,0-32.8c0-1.7,0-3.5,0-5.2
			c0-7.7,6.9-8.4,12.6-8.4c25.5,0,51.1,0,76.6,0c10.7,0,8.9,11.5,8.9,18.7c0,12.6,0,25.1,0,37.7c0,37.1,0,74.2,0,111.3
			C133.4,231.6,126.8,232.1,120.8,232.1z"/>
		<path d="M179.2,158.8c-2.6,4-5.3,8-7.9,12c-1.3,2,1.9,3.9,3.2,1.9c2.6-4,5.3-8,7.9-12C183.7,158.7,180.5,156.8,179.2,158.8z"/>
	</g>
</g>
<g id="Glyph" class="st0">
	<path class="st1" d="M137.8,75.7c0,0.9,0,1.7,0,2.6c6.2-2.6,12.4-5.2,18.6-7.8c3.2-1.4,9.5,2.9,12.3,4.1
		c12.3,5.2,24.6,10.3,36.9,15.5c-16-24.1-32-48.2-48-72.4c-8.7,12-17.4,23.9-26,35.9c0.4,0.3,0.9,0.5,1.3,0.9
		C139.2,59.6,137.8,68.4,137.8,75.7z"/>
	<path class="st1" d="M157.3,84.5c-6.5,3.1-13,6.3-19.5,9.4c0,9.2,0,18.4,0,27.5c0.1,0,0.1,0.1,0.2,0.1c6.6,4.5,13.2,8.9,19.8,13.4
		c0,0,0.1,0,0.1,0.1c0.5-0.3,0.9-0.6,1.4-0.9c3-1.8,6-3.7,9-5.5c12.7-7.8,25.4-15.5,38.1-23.3c-12.7-5.6-25.5-11.1-38.2-16.7
		c-3.1-1.4-6.2-2.7-9.4-4.1c-0.3-0.1-0.6-0.3-0.9-0.4C157.8,84.3,157.6,84.4,157.3,84.5z"/>
	<path class="st1" d="M156.6,149.8c-6.3-4-12.6-7.9-18.9-11.9c0,7.9,0,15.8,0,23.7c0.2,0.1,0.4,0.3,0.5,0.5
		c6.4,9.7,12.9,19.4,19.3,29.1c15.5-23.4,31-46.8,46.5-70.1c-15.2,9.6-30.4,19.1-45.6,28.7C158,150.2,157.2,150.2,156.6,149.8z"/>
	<g class="st1">
		<path d="M125,55.9c-25.5,0-51.1,0-76.6,0c-5.7,0-12.6,0.8-12.6,8.4c0,1.7,0,3.5,0,5.2c0,10.9,0,21.9,0,32.8c0,31.3,0,62.6,0,93.9
			c0,8.7,0,17.3,0,26c0,11.8,12.4,9.8,20.5,9.8c15.4,0,30.9,0,46.3,0c6.1,0,12.1,0,18.2,0c6,0,12.6-0.5,13.1-8.4
			c0-37.1,0-74.2,0-111.3c0-12.6,0-25.1,0-37.7C133.9,67.5,135.6,55.9,125,55.9z M80.4,220.1c-0.4-6.9,10.4-6.9,10.8,0
			C90.8,227,80.7,227,80.4,220.1z M121,88.9c0,36.8,0,73.6,0,110.4c-0.7,7.4-9.6,5.8-14.7,5.8c-7.6,0-15.3,0-22.9,0
			c-7.3,0-14.7,0-22,0c-4.6,0-12.6,1.2-12.6-5.9c0-24.3,0-48.6,0-72.8c0-13,0-26,0-38.9c0-2.1,0-4.2,0-6.3c0-7.4,10-5.8,14.7-5.8
			c15,0,29.9,0,44.9,0c4.6,0,12.6-1.2,12.6,5.9C121,83.8,121,86.3,121,88.9z"/>
		<path d="M100.7,125.7c-0.8-1-2.3-0.6-2.9,0.4c-2.2,3.5-4.5,6.9-6.7,10.4c-3.7-7.3-7.4-14.6-11.1-21.9c-0.7-1.3-2.5-1.1-3.2,0
			c-5.7,9-11.3,18-17,27c-1.3,2.1,2,3.9,3.2,1.9c5.1-8,10.1-16.1,15.2-24.1c3.7,7.3,7.4,14.6,11.1,21.8c0.7,1.3,2.5,1.1,3.2,0
			c2.4-3.7,4.7-7.3,7.1-11c2.7,3.2,5.3,6.4,8,9.7c1.5,1.9,4.2-0.8,2.7-2.7C107,133.3,103.8,129.5,100.7,125.7z"/>
	</g>
</g>
</svg>
