<?xml version="1.0" encoding="utf-8"?>
<!-- Generator: Adobe Illustrator 23.0.3, SVG Export Plug-In . SVG Version: 6.00 Build 0)  -->
<svg version="1.1" xmlns="http://www.w3.org/2000/svg" xmlns:xlink="http://www.w3.org/1999/xlink" x="0px" y="0px"
	 viewBox="0 0 256 256" style="enable-background:new 0 0 256 256;" xml:space="preserve">
<style type="text/css">
	.st0{display:none;}
	.st1{display:inline;}
</style>
<g id="SOURCE" class="st0">
	<g class="st1">
		<g>
			<g>
				<path d="M143.4,125.8c15.8,15.3,45.4,14.9,58.2-4.1c1.4-2-1.9-3.9-3.2-1.9c-11.5,16.9-38.3,16.8-52.3,3.3
					C144.3,121.5,141.6,124.1,143.4,125.8L143.4,125.8z"/>
			</g>
		</g>
		<g>
			<g>
				<path d="M180.9,164.8c2.4-10.3-1-21.6-6.7-30.1c-1.3-2-4.6-0.1-3.2,1.9c5.2,7.7,8.6,17.9,6.4,27.2
					C176.7,166.1,180.4,167.1,180.9,164.8L180.9,164.8z"/>
			</g>
		</g>
		<g>
			<g>
				<g>
					<path d="M148,111c-0.3,11-8.7,19.3-19.6,19.6c-10.9,0.3-19.3-9.2-19.6-19.6c-0.3-10.9,9.2-19.3,19.6-19.6
						C139.3,91,147.7,100.5,148,111c0.1,2.4,3.8,2.4,3.8,0c-0.4-13-10.4-23-23.4-23.4c-13-0.4-23,11-23.4,23.4
						c-0.4,13,11,23,23.4,23.4c13,0.4,23-11,23.4-23.4C151.8,108.5,148.1,108.6,148,111z"/>
				</g>
			</g>
			<g>
				<g>
					<path d="M194.7,185.7c-0.3,10.9-8.7,19.3-19.6,19.6c-10.9,0.3-19.3-9.2-19.6-19.6c-0.3-10.9,9.2-19.3,19.6-19.6
						C186,165.8,194.4,175.3,194.7,185.7c0.1,2.4,3.8,2.4,3.8,0c-0.4-13-10.4-23-23.4-23.4c-13-0.4-23,11-23.4,23.4
						c-0.4,13,11,23,23.4,23.4c13,0.4,23-11,23.4-23.4C198.5,183.3,194.8,183.3,194.7,185.7z"/>
				</g>
			</g>
			<g>
				<g>
					<path d="M239.9,113.7c-0.3,11-8.7,19.3-19.6,19.6c-10.9,0.3-19.3-9.2-19.6-19.6c-0.3-10.9,9.2-19.3,19.6-19.6
						C231.2,93.8,239.5,103.3,239.9,113.7c0.1,2.4,3.8,2.4,3.8,0c-0.4-13-10.4-23-23.4-23.4c-13-0.4-23,11-23.4,23.4
						c-0.4,13,11,23,23.4,23.4c13,0.4,23-11,23.4-23.4C243.7,111.3,239.9,111.3,239.9,113.7z"/>
				</g>
			</g>
		</g>
	</g>
	<g class="st1">
		<g>
			<path d="M97.3,95.1c-19.3,0-38.5,0-57.8,0c0.6,0.6,1.3,1.3,1.9,1.9c0-5.6,0-11.2,0-16.8c0-1.6-2-2.5-3.2-1.3
				C28.5,88.7,18.7,98.4,9,108.2c-0.7,0.7-0.7,1.9,0,2.7c9.8,9.8,19.5,19.5,29.3,29.3c1.2,1.2,3.2,0.3,3.2-1.3c0-5.1,0-10.2,0-15.3
				c-0.6,0.6-1.3,1.3-1.9,1.9c19.3,0,38.5,0,57.8,0c1,0,1.9-0.9,1.9-1.9c0-8.8,0-17.7,0-26.5c0-2.4-3.8-2.4-3.8,0
				c0,8.8,0,17.7,0,26.5c0.6-0.6,1.3-1.3,1.9-1.9c-19.3,0-38.5,0-57.8,0c-1,0-1.9,0.9-1.9,1.9c0,5.1,0,10.2,0,15.3
				c1.1-0.4,2.1-0.9,3.2-1.3c-9.8-9.8-19.5-19.5-29.3-29.3c0,0.9,0,1.8,0,2.7c9.8-9.8,19.5-19.5,29.3-29.3c-1.1-0.4-2.1-0.9-3.2-1.3
				c0,5.6,0,11.2,0,16.8c0,1,0.9,1.9,1.9,1.9c19.3,0,38.5,0,57.8,0C99.8,98.9,99.8,95.1,97.3,95.1z"/>
		</g>
	</g>
	<g class="st1">
		<g>
			<path d="M12.3,165.9c19.3,0,38.5,0,57.8,0c1,0,1.9-0.9,1.9-1.9c0-5.6,0-11.2,0-16.8c-1.1,0.4-2.1,0.9-3.2,1.3
				c9.8,9.8,19.5,19.5,29.3,29.3c0-0.9,0-1.8,0-2.7c-9.8,9.8-19.5,19.5-29.3,29.3c1.1,0.4,2.1,0.9,3.2,1.3c0-5.1,0-10.2,0-15.3
				c0-1-0.9-1.9-1.9-1.9c-19.3,0-38.5,0-57.8,0c0.6,0.6,1.3,1.3,1.9,1.9c0-8.8,0-17.7,0-26.5c0-2.4-3.7-2.4-3.7,0
				c0,8.8,0,17.7,0,26.5c0,1,0.9,1.9,1.9,1.9c19.3,0,38.5,0,57.8,0c-0.6-0.6-1.3-1.3-1.9-1.9c0,5.1,0,10.2,0,15.3
				c0,1.6,2,2.5,3.2,1.3c9.8-9.8,19.5-19.5,29.3-29.3c0.7-0.7,0.7-1.9,0-2.7c-9.8-9.8-19.5-19.5-29.3-29.3c-1.2-1.2-3.2-0.3-3.2,1.3
				c0,5.6,0,11.2,0,16.8c0.6-0.6,1.3-1.3,1.9-1.9c-19.3,0-38.5,0-57.8,0C9.9,162.1,9.9,165.9,12.3,165.9z"/>
		</g>
	</g>
	<g class="st1">
		<g>
			<path d="M171.8,209.5c0,5.8,0,11.7,0,17.5c0.6-0.6,1.3-1.3,1.9-1.9c-41.3,0-82.7,0-124,0c0.6,0.6,1.3,1.3,1.9,1.9
				c0-11.9,0-23.8,0-35.7c0-2.4-3.8-2.4-3.8,0c0,11.9,0,23.8,0,35.7c0,1,0.9,1.9,1.9,1.9c41.3,0,82.7,0,124,0c1,0,1.9-0.9,1.9-1.9
				c0-5.8,0-11.7,0-17.5C175.5,207.1,171.8,207.1,171.8,209.5L171.8,209.5z"/>
		</g>
	</g>
	<g class="st1">
		<g>
			<path d="M51.5,96.4c0-21.8,0-43.6,0-65.4c-0.6,0.6-1.3,1.3-1.9,1.9c24.7,0,49.3,0,74,0c6,0,11.9,0,17.9,0c1.6,0,3.2,0,4.8,0
				c2.2,0,0.9,0.1,0.5-0.3c8.5,8.3,17,16.6,25.5,24.9c-0.8-0.8-0.5-1.9-0.5-0.5c0,0.8,0,1.5,0,2.3c0,2.8,0,5.5,0,8.3
				c0,8.8,0,17.6,0,26.4c0,12.9,0,25.8,0,38.8c0,2.4,3.8,2.4,3.8,0c0-24.3,0-48.7,0-73c0-2.7,0.3-4.1-1.7-6.1
				c-5.1-5-10.1-9.9-15.2-14.9c-2.3-2.3-4.7-4.6-7-6.8c-0.9-0.8-2.3-2.8-3.6-2.8c-2.5,0-5,0-7.5,0c-30.3,0-60.5,0-90.8,0
				c-1,0-1.9,0.9-1.9,1.9c0,21.8,0,43.6,0,65.4C47.8,98.8,51.5,98.8,51.5,96.4L51.5,96.4z"/>
		</g>
	</g>
	<g class="st1">
		<g>
			<path d="M51.5,163.3c0-13.1,0-26.2,0-39.3c0-2.4-3.8-2.4-3.8,0c0,13.1,0,26.2,0,39.3C47.8,165.7,51.5,165.7,51.5,163.3
				L51.5,163.3z"/>
		</g>
	</g>
	<g class="st1">
		<g>
			<path d="M173.1,54.1c-8.4,0-16.7,0-25.1,0c0.6,0.6,1.3,1.3,1.9,1.9c0-8.2,0-16.3,0-24.5c-1.1,0.4-2.1,0.9-3.2,1.3
				c8.4,8.2,16.7,16.3,25.1,24.5c1.7,1.7,4.4-1,2.7-2.7c-8.4-8.2-16.7-16.3-25.1-24.5c-1.2-1.1-3.2-0.3-3.2,1.3c0,8.2,0,16.3,0,24.5
				c0,1,0.9,1.9,1.9,1.9c8.4,0,16.7,0,25.1,0C175.5,57.9,175.5,54.1,173.1,54.1z"/>
		</g>
	</g>
</g>
<g id="Line_Expand">
	<g>
		<path d="M188.9,204.9c3-2.4,5.4-5.5,6.9-9.1c0.9-2.2-2.3-4.1-3.2-1.9c-1.4,3.3-3.5,6.1-6.3,8.3C184.4,203.7,187,206.4,188.9,204.9
			z"/>
		<path d="M229.1,92.3c-2.2-0.9-4.1,2.3-1.9,3.2c3.3,1.4,6.1,3.5,8.3,6.3c1.5,1.9,4.2-0.8,2.7-2.7C235.7,96.2,232.6,93.8,229.1,92.3
			z"/>
		<path d="M239.5,113.8c-0.5,15.3-16.6,24.3-29.9,16.7c-14-8-11.1-28,2.3-34.7c2.2-1.1,0.3-4.3-1.9-3.2
			c-11.3,5.6-15.4,17.8-12.1,28.2c-0.1,0.1-0.2,0.2-0.2,0.3c-11.2,16.6-37.3,16.8-51.5,4.1c2.6-3.8,4.2-8.6,4.1-13.9
			c-0.3-17.9-20.5-27.3-35.3-19.1c-2.1,1.2-0.2,4.4,1.9,3.2c12.8-7.1,28.5,1.1,29.6,15.9c1.2,16.6-17.9,25.4-30.9,17
			c-2-1.3-3.9,1.9-1.9,3.2c10.4,6.7,22.7,4.2,30.1-3.4c7.2,6.4,16.9,9.7,26.5,9.8c4.9,7.3,8.1,16.9,6.6,25.8
			c-8.4-0.9-17.2,2.6-22.6,10.8c-9.6,14.7,1.5,33.1,17.5,35.3c0,5.1,0,10.2,0,15.4c-40.1,0-80.2,0-120.3,0c0-10.9,0-21.8,0-32.8
			c5.5,0,11.1,0,16.6,0c0,4.5,0,8.9,0,13.4c0,1.6,2,2.5,3.2,1.3c9.8-9.8,19.5-19.5,29.3-29.3c0.7-0.7,0.7-1.9,0-2.7
			c-9.8-9.8-19.5-19.5-29.3-29.3c-1.2-1.2-3.2-0.3-3.2,1.3c0,5,0,9.9,0,14.9c-5.5,0-11.1,0-16.6,0c0-12.3,0-24.5,0-36.8
			c15.3,0,30.6,0,45.8,0c1,0,1.9-0.9,1.9-1.9c0-8.8,0-17.7,0-26.5c0-0.6-0.2-1-0.5-1.3c0,0,0,0,0-0.1c0,0,0,0-0.1,0
			c-0.3-0.3-0.7-0.5-1.3-0.5c-15.3,0-30.5,0-45.8,0c0-20.7,0-41.5,0-62.2c24,0,48.1,0,72.1,0c6,0,11.9,0,17.9,0c1.5,0,3,0,4.6,0
			c0,7.7,0,15.4,0,23.1c0,1,0.9,1.9,1.9,1.9c7.9,0,15.9,0,23.8,0c0,0.3,0,0.7,0,1c0,2.7,0,5.4,0,8.1c0,8.4,0,16.9,0,25.3
			c0,12.4,0,24.8,0,37.3c0,2.4,3.8,2.4,3.8,0c0-23.8,0-47.7,0-71.5c0-3.1-1.1-3.9-3.3-6.1c-5.4-5.3-10.9-10.6-16.3-15.9
			c-1.7-1.7-5.4-7.1-8.2-7.1c-3.2,0-6.4,0-9.6,0c-29.5,0-59,0-88.4,0c-1,0-1.9,0.9-1.9,1.9c0,21.4,0,42.8,0,64.1c-2.1,0-4.2,0-6.3,0
			c0-5,0-9.9,0-14.9c0-1.6-2-2.5-3.2-1.3C28.5,88.7,18.7,98.4,9,108.2c-0.7,0.7-0.7,1.9,0,2.7c9.8,9.8,19.5,19.5,29.3,29.3
			c1.2,1.2,3.2,0.3,3.2-1.3c0-4.5,0-8.9,0-13.4c2.1,0,4.2,0,6.3,0c0,12.3,0,24.5,0,36.8c-11.8,0-23.7,0-35.5,0c-0.6,0-1,0.2-1.3,0.5
			c0,0,0,0-0.1,0c0,0,0,0,0,0.1c-0.3,0.3-0.5,0.7-0.5,1.3c0,8.8,0,17.7,0,26.5c0,1,0.9,1.9,1.9,1.9c11.8,0,23.7,0,35.5,0
			c0,11.5,0,23.1,0,34.6c0,1,0.9,1.9,1.9,1.9c41.3,0,82.7,0,124,0c1,0,1.9-0.9,1.9-1.9c0-5.8,0-11.6,0-17.4c1-1,0.6-3.3-1.2-3.3
			c-15.3-0.5-24.3-16.6-16.7-29.9c8-14,28-11.1,34.7,2.3c1.1,2.2,4.3,0.3,3.2-1.9c-3.3-6.6-8.8-10.7-14.9-12.4
			c1.6-9.1-1.2-18.8-5.9-26.7c9.6-0.9,18.8-5.1,24.9-12.9c1.8,3.4,4.5,6.5,8.2,8.9c15.5,10.1,35-2.7,35.5-20
			C243.4,111.4,239.6,111.4,239.5,113.8z M168.5,54.1c-6.2,0-12.4,0-18.6,0c0-6,0-12.1,0-18.1C156.1,42,162.3,48.1,168.5,54.1z
			 M37.7,123.5c0,3.6,0,7.2,0,10.8c-8.2-8.2-16.5-16.5-24.7-24.7c8.2-8.2,16.5-16.5,24.7-24.7c0,4.1,0,8.1,0,12.2
			c0,1,0.9,1.9,1.9,1.9c18.6,0,37.3,0,55.9,0c0,7.6,0,15.2,0,22.8c-18.6,0-37.3,0-55.9,0C38.6,121.6,37.7,122.5,37.7,123.5z
			 M14.2,165.9c18.6,0,37.3,0,55.9,0c1,0,1.9-0.9,1.9-1.9c0-4.1,0-8.1,0-12.2c8.2,8.2,16.5,16.5,24.7,24.7
			c-8.2,8.2-16.5,16.5-24.7,24.7c0-3.6,0-7.2,0-10.8c0-1-0.9-1.9-1.9-1.9c-18.6,0-37.3,0-55.9,0C14.2,181,14.2,173.5,14.2,165.9z"/>
		<path d="M105.1,104c-1.3,3.7-1.8,7.5-1.3,11.4c0.3,2.4,4.1,2.4,3.8,0c-0.4-3.6-0.1-7,1.2-10.4C109.6,102.7,106,101.7,105.1,104z"
			/>
	</g>
</g>
<g id="Glyph" class="st0">
	<g class="st1">
		<path d="M149.9,36c0,6,0,12.1,0,18.1c6.2,0,12.4,0,18.6,0C162.3,48.1,156.1,42,149.9,36z"/>
		<path d="M71.9,190.5c0,3.6,0,7.2,0,10.8c8.2-8.2,16.5-16.5,24.7-24.7c-8.2-8.2-16.5-16.5-24.7-24.7c0,4.1,0,8.1,0,12.2
			c0,1-0.9,1.9-1.9,1.9c-18.6,0-37.3,0-55.9,0c0,7.6,0,15.2,0,22.8c18.6,0,37.3,0,55.9,0C71.1,188.6,71.9,189.5,71.9,190.5z"/>
		<path d="M151.7,185.7c0.4-12.4,10.4-23.8,23.4-23.4c0.8,0,1.7,0.1,2.5,0.2c1.6-9-1.6-18.6-6.5-26c-9.4-0.1-18.9-3.3-26-9.4
			c-4.2,4.5-10,7.3-16.6,7.1C116,134,104.6,124,105,111c0.4-12.4,10.4-23.8,23.4-23.4c12.9,0.4,22.7,10.1,23.3,22.9
			c0,0.1,0,0.3,0,0.4c-0.2,4.8-1.8,9.5-4.4,13.4c6.6,5.7,15.6,8.6,24.5,8.6c0-0.1,0-0.2,0-0.2c0-12.9,0-25.8,0-38.8
			c0-8.8,0-17.6,0-26.4c0-2.8,0-5.5,0-8.3c0-0.5,0-0.9,0-1.4c-7.9,0-15.9,0-23.8,0c-1,0-1.9-0.9-1.9-1.9c0-7.7,0-15.4,0-23.1
			c-1.5,0-3,0-4.6,0c-6,0-11.9,0-17.9,0c-24,0-48.1,0-72.1,0c0,20.7,0,41.5,0,62.2c15.3,0,30.5,0,45.8,0c0.6,0,1,0.2,1.3,0.5
			c0,0,0,0,0.1,0c0,0,0,0,0,0.1c0.3,0.3,0.5,0.7,0.5,1.3c0,8.8,0,17.7,0,26.5c0,1-0.9,1.9-1.9,1.9c-15.3,0-30.6,0-45.8,0
			c0,12.3,0,24.5,0,36.8c5.5,0,11.1,0,16.6,0c0-5,0-9.9,0-14.9c0-1.6,2-2.5,3.2-1.3c9.8,9.8,19.5,19.5,29.3,29.3
			c0.7,0.7,0.7,1.9,0,2.7c-9.8,9.8-19.5,19.5-29.3,29.3c-1.2,1.2-3.2,0.3-3.2-1.3c0-4.5,0-8.9,0-13.4c-5.5,0-11.1,0-16.6,0
			c0,10.9,0,21.8,0,32.8c40.1,0,80.2,0,120.3,0c0-5.2,0-10.4,0-15.6c0-0.3,0.1-0.5,0.1-0.7C160.8,207,151.3,197.6,151.7,185.7z"/>
		<path d="M37.7,123.5c0-1,0.9-1.9,1.9-1.9c18.6,0,37.3,0,55.9,0c0-7.6,0-15.2,0-22.8c-18.6,0-37.3,0-55.9,0c-1,0-1.9-0.9-1.9-1.9
			c0-4.1,0-8.1,0-12.2C29.5,93,21.2,101.3,13,109.5c8.2,8.2,16.5,16.5,24.7,24.7C37.7,130.7,37.7,127.1,37.7,123.5z"/>
		<path d="M175.1,166.1c-10.4,0.3-20,8.7-19.6,19.6c0.3,10.4,8.7,20,19.6,19.6c10.9-0.3,19.3-8.7,19.6-19.6
			C194.4,175.3,186,165.8,175.1,166.1z"/>
		<path d="M128.4,91.3c-10.4,0.3-20,8.7-19.6,19.6c0.3,10.4,8.7,20,19.6,19.6c5.9-0.2,11-2.7,14.5-6.6c0.2-0.4,0.5-0.8,0.9-1.1
			c2.5-3.3,4.1-7.4,4.2-11.9C147.7,100.5,139.3,91,128.4,91.3z"/>
		<path d="M220.2,94.1c-10.4,0.3-20,8.7-19.6,19.6c0.3,10.4,8.7,20,19.6,19.6c11-0.3,19.3-8.7,19.6-19.6
			C239.5,103.3,231.2,93.8,220.2,94.1z"/>
		<path d="M175.5,132.7C175.5,132.7,175.5,132.7,175.5,132.7L175.5,132.7C175.5,132.7,175.5,132.7,175.5,132.7z"/>
		<path d="M175.5,132.7l1,3.6c8.8-1.1,17.1-4.9,22.9-11.8l-1.7-3.9C192.5,127.8,184.3,131.8,175.5,132.7z"/>
	</g>
</g>
</svg>
