<?xml version="1.0" encoding="utf-8"?>
<!-- Generator: Adobe Illustrator 23.0.3, SVG Export Plug-In . SVG Version: 6.00 Build 0)  -->
<svg version="1.1" xmlns="http://www.w3.org/2000/svg" xmlns:xlink="http://www.w3.org/1999/xlink" x="0px" y="0px"
	 viewBox="0 0 256 256" style="enable-background:new 0 0 256 256;" xml:space="preserve">
<style type="text/css">
	.st0{display:none;}
	.st1{display:inline;}
</style>
<g id="SOURCE" class="st0">
	<g class="st1">
		<g>
			<path d="M150.7,165.8c1,0,2,0,2.9,0c-0.6-0.6-1.3-1.3-1.9-1.9c0,5.2,0,10.3,0,15.5c0,6.2,3.4,9.5,9.6,9.5c5.7,0,9.6-3,9.6-9
				c0-5.4,0-10.7,0-16.1c-0.6,0.6-1.3,1.3-1.9,1.9c21.8,0,47.9-1,61-21.4c6.6-10.2,6-24.5-0.5-34.5c-6.1-9.5-17-15.4-27.7-18
				c0,1.2,0,2.4,0,3.6c10.9-2.9,20.1-10.2,24.7-20.7c4-8.9,1.3-20.2-3.7-28.1c-4-6.2-11.7-11.6-18.6-13.9
				c-11.1-3.7-23.6-3.2-35.2-3.2c0.6,0.6,1.3,1.3,1.9,1.9c0-5.1,0-10.1,0-15.2c0-6.2-3.5-9.5-9.6-9.5c-5.7,0-9.6,3-9.6,8.9
				c0,5.3,0,10.5,0,15.8c0.6-0.6,1.3-1.3,1.9-1.9c-3.1,0-6.1,0-9.2,0c0.6,0.6,1.3,1.3,1.9,1.9c0-5.1,0-10.1,0-15.2
				c0-6.2-3.5-9.5-9.6-9.5c-5.7,0-9.6,3-9.6,8.9c0,5.3,0,10.5,0,15.8c0.6-0.6,1.3-1.3,1.9-1.9c-5.3,0-10.7,0-16,0
				c-6.1,0-9.5,3.5-9.5,9.6c0,6.1,3.3,9.6,9.5,9.6c5.3,0,10.7,0,16,0c-0.6-0.6-1.3-1.3-1.9-1.9c0,2.3,0,4.5,0,6.8
				c0,2.4,3.8,2.4,3.8,0c0-2.3,0-4.5,0-6.8c0-1-0.9-1.9-1.9-1.9c-3.7,0-7.5,0-11.2,0c-4.9,0-10.5,0.9-10.5-5.9
				c0-6.8,5.7-5.9,10.5-5.9c3.7,0,7.5,0,11.2,0c1,0,1.9-0.9,1.9-1.9c0-3.4,0-6.9,0-10.3c0-4.9-1-10.6,5.9-10.6c6.5,0,5.9,5,5.9,9.7
				c0,3.8,0,7.5,0,11.3c0,1,0.9,1.9,1.9,1.9c3.1,0,6.1,0,9.2,0c1,0,1.9-0.9,1.9-1.9c0-3.4,0-6.9,0-10.3c0-4.9-1-10.6,5.9-10.6
				c6.5,0,5.9,5,5.9,9.7c0,3.8,0,7.5,0,11.3c0,1,0.9,1.9,1.9,1.9c16,0,34.7-1,47.1,11c6.6,6.4,10,17,8,26.1
				c-2.4,10.8-13.3,18.8-23.3,21.5c-1.8,0.5-1.8,3.2,0,3.6c10.1,2.5,19.2,7.7,25.4,16.3c7.5,10.4,5.5,25.5-2.5,34.9
				c-13.2,15.5-36.1,15.4-54.7,15.4c-1,0-1.9,0.9-1.9,1.9c0,3.5,0,7,0,10.5c0,4.9,1,10.7-5.9,10.7c-6.5,0-5.9-5.1-5.9-9.8
				c0-3.8,0-7.7,0-11.5c0-1-0.9-1.9-1.9-1.9c-1,0-2,0-2.9,0C148.3,162,148.3,165.8,150.7,165.8L150.7,165.8z"/>
			<path d="M179.6,43.4c12,5.9,14.9,19.6,10.8,31.6c-4.3,12.8-19.3,14.1-30.6,14.2c0.6,0.6,1.3,1.3,1.9,1.9c0-17.4,0-34.8,0-52.1
				c-0.6,0.6-1.3,1.3-1.9,1.9c6.8,0,13.9,0.1,20.2,2.8c2.2,0.9,3.2-2.7,1-3.6c-6.6-2.8-14.2-2.9-21.2-2.9c-1,0-1.9,0.9-1.9,1.9
				c0,17.4,0,34.8,0,52.1c0,1,0.9,1.9,1.9,1.9c12.8-0.1,28.1-2.1,33.6-15.7c5.6-13.6,1.7-30.4-12-37.1
				C179.4,39.1,177.5,42.3,179.6,43.4z"/>
			<path d="M193.3,142.2c-3.4,6-8.5,9.6-15.1,11.6c-7.7,2.3-16.8,1.3-16.6-8.5c0.1-3.8,0.1-7.7,0.1-11.5c0-11.7,0-23.4,0-35.1
				c-0.6,0.6-1.3,1.3-1.9,1.9c9.7,0,20.7,0.1,28.4,6.8C197.8,115.7,198.6,131.5,193.3,142.2c-1.1,2.2,2.2,4.1,3.2,1.9
				c5.6-11.2,5.2-26.1-2.7-36.2c-8.3-10.4-21.6-11.2-33.9-11.1c-1,0-1.9,0.9-1.9,1.9c0,13.6,0,27.1,0,40.7c0,6.6-1,13.8,5.6,17.8
				c5.2,3.2,13.5,1.2,18.7-0.7c6.2-2.2,11-6.6,14.2-12.3C197.8,142,194.5,140.1,193.3,142.2z"/>
		</g>
	</g>
	<g class="st1">
		<g>
			<path d="M146.1,223.7c-0.5,7.9-7.1,8.4-13.1,8.4c-6.1,0-12.1,0-18.2,0c-15.4,0-30.9,0-46.3,0c-8.2,0-20.5,2.1-20.5-9.8
				c0-8.7,0-17.3,0-26c0-31.3,0-62.6,0-93.9c0-10.9,0-21.9,0-32.8c0-1.7,0-3.5,0-5.2c0-7.7,6.9-8.4,12.6-8.4c25.5,0,51.1,0,76.6,0
				c10.7,0,8.9,11.5,8.9,18.7c0,12.6,0,25.1,0,37.7C146.1,149.4,146.1,186.5,146.1,223.7c0,2.5,3.9,2.5,3.9,0c0-49.3,0-98.6,0-148
				c0-7.3,1.5-16.1-5-21.2c-3.4-2.7-7.5-2.4-11.5-2.4c-5.9,0-11.8,0-17.8,0c-15.5,0-31,0-46.5,0c-10.1,0-24.3-1.8-25.1,12.3
				c-0.4,6,0,12,0,18c0,14.1,0,28.2,0,42.3c0,29.2,0,58.4,0,87.6c0,7.3-1.5,16.1,5,21.2c3.4,2.7,7.5,2.4,11.5,2.4
				c5.9,0,11.8,0,17.8,0c15.5,0,31,0,46.5,0c10.1,0,24.3,1.8,25.1-12.3C150.1,221.2,146.2,221.2,146.1,223.7z"/>
		</g>
	</g>
	<g class="st1">
		<g>
			<path d="M133.1,199.3c-0.7,7.4-9.6,5.8-14.7,5.8c-7.6,0-15.3,0-22.9,0c-7.3,0-14.7,0-22,0c-4.6,0-12.6,1.2-12.6-5.9
				c0-24.3,0-48.6,0-72.8c0-13,0-26,0-38.9c0-2.1,0-4.2,0-6.3c0-7.4,10-5.8,14.7-5.8c15,0,29.9,0,44.9,0c4.6,0,12.6-1.2,12.6,5.9
				c0,2.6,0,5.2,0,7.8C133.1,125.7,133.1,162.5,133.1,199.3c0,2.4,3.8,2.4,3.8,0c0-23.3,0-46.7,0-70c0-13.5,0-26.9,0-40.4
				c0-7.9,0.3-17.4-10.6-17.4c-13.5,0-27,0-40.6,0c-8.2,0-28.6-3.6-28.6,9.6c0,23.7,0,47.3,0,71c0,13.1,0,26.2,0,39.4
				c0,7.9-0.3,17.4,10.6,17.4c13.2,0,26.4,0,39.6,0c6,0,12,0,18,0c6.2,0,11-2.9,11.6-9.6C137.1,196.9,133.3,196.9,133.1,199.3z"/>
		</g>
	</g>
	<g class="st1">
		<g>
			<path d="M103.3,220.1c-0.4,6.9-10.4,6.9-10.8,0C92.2,213.2,102.9,213.2,103.3,220.1c0.1,2.4,3.9,2.4,3.8,0
				c-0.3-5.2-4-8.8-9.1-9.1c-5.1-0.3-8.9,4.4-9.1,9.1c-0.3,5.1,4.4,8.9,9.1,9.1c5.1,0.3,8.9-4.4,9.1-9.1
				C107.2,217.7,103.4,217.7,103.3,220.1z"/>
		</g>
	</g>
	<g class="st1">
		<g>
			<path d="M75.1,143.4c5.7-9,11.3-18,17-27c-1.1,0-2.2,0-3.2,0c4.2,8.2,8.3,16.5,12.5,24.7c0.7,1.3,2.5,1.1,3.2,0
				c2.8-4.4,5.7-8.8,8.5-13.2c-1,0.1-2,0.3-2.9,0.4c3.2,3.8,6.3,7.7,9.5,11.5c1.5,1.9,4.2-0.8,2.7-2.7c-3.2-3.8-6.3-7.7-9.5-11.5
				c-0.8-1-2.3-0.6-2.9,0.4c-2.8,4.4-5.7,8.8-8.5,13.2c1.1,0,2.2,0,3.2,0c-4.2-8.2-8.3-16.5-12.5-24.7c-0.7-1.3-2.5-1.1-3.2,0
				c-5.7,9-11.3,18-17,27C70.6,143.6,73.8,145.5,75.1,143.4L75.1,143.4z"/>
		</g>
	</g>
</g>
<g id="Line_Expand">
	<g>
		<path d="M215.1,43.3c3.7,3.5,6.5,7.7,8.3,12.5c0.8,2.3,4.4,1.3,3.6-1c-2-5.4-5.1-10.2-9.2-14.1C216,39,213.4,41.6,215.1,43.3z"/>
		<path d="M207.5,93.5c11.5-5,20.8-15.7,21.2-28.8c0.1-2.4-3.7-2.4-3.8,0c-0.4,13.4-11.7,23.8-24,27.1c-1.8,0.5-1.8,3.2,0,3.6
			c10.1,2.5,19.2,7.7,25.4,16.3c7.5,10.4,5.5,25.5-2.5,34.9c-13.2,15.5-36.1,15.4-54.7,15.4c-1,0-1.9,0.9-1.9,1.9c0,3.5,0,7,0,10.5
			c0,4.9,1,10.7-5.9,10.7c-6.5,0-5.9-5.1-5.9-9.8c0-3.8,0-7.7,0-11.5c0-1-0.9-1.9-1.9-1.9c-1,0-2,0-2.9,0c-0.3,0-0.5,0.1-0.8,0.2
			c0-28.8,0-57.7,0-86.5c0-7.3,1.5-16.1-5-21.2c-3.4-2.7-7.5-2.4-11.5-2.4c-0.9,0-1.7,0-2.6,0c0-1.7,0-3.4,0-5.1
			c0-1-0.9-1.9-1.9-1.9c-3.7,0-7.5,0-11.2,0c-4.9,0-10.5,0.9-10.5-5.9c0-6.8,5.7-5.9,10.5-5.9c3.7,0,7.5,0,11.2,0
			c1,0,1.9-0.9,1.9-1.9c0-3.4,0-6.9,0-10.3c0-4.9-1-10.6,5.9-10.6c6.5,0,5.9,5,5.9,9.7c0,3.8,0,7.5,0,11.3c0,1,0.9,1.9,1.9,1.9
			c3.1,0,6.1,0,9.2,0c1,0,1.9-0.9,1.9-1.9c0-3.4,0-6.9,0-10.3c0-4.9-1-10.6,5.9-10.6c6.5,0,5.9,5,5.9,9.7c0,3.8,0,7.5,0,11.3
			c0,1,0.9,1.9,1.9,1.9c12.1,0,25.3-0.7,36.7,4c2.2,0.9,3.2-2.7,1-3.6c-11.1-4.5-24-4.2-35.9-4.1c0-4.4,0-8.9,0-13.3
			c0-6.2-3.5-9.5-9.6-9.5c-5.7,0-9.6,3-9.6,8.9c0,4.6,0,9.3,0,13.9c-1.8,0-3.6,0-5.4,0c0-4.4,0-8.9,0-13.3c0-6.2-3.5-9.5-9.6-9.5
			c-5.7,0-9.6,3-9.6,8.9c0,4.6,0,9.3,0,13.9c-4.7,0-9.4,0-14.1,0c-6.1,0-9.5,3.5-9.5,9.6c0,6.1,3.3,9.6,9.5,9.6c4.7,0,9.4,0,14.2,0
			c0,1.1,0,2.1,0,3.2c-3.8,0-7.6,0-11.4,0c-15.5,0-31,0-46.5,0c-10.1,0-24.3-1.8-25.1,12.3c-0.4,6,0,12,0,18c0,14.1,0,28.2,0,42.3
			c0,29.2,0,58.4,0,87.6c0,7.3-1.5,16.1,5,21.2c3.4,2.7,7.5,2.4,11.5,2.4c5.9,0,11.8,0,17.8,0c15.5,0,31,0,46.5,0
			c10.1,0,24.3,1.8,25.1-12.3c0-19.3,0-38.7,0-58c0.2,0.1,0.5,0.2,0.8,0.2c0.4,0,0.7,0,1.1,0c0,4.5,0,9.1,0,13.6
			c0,6.2,3.4,9.5,9.6,9.5c5.7,0,9.6-3,9.6-9c0-4.7,0-9.5,0-14.2c21.4-0.1,46.4-1.5,59.1-21.4c6.6-10.2,6-24.5-0.5-34.5
			C224.5,102.1,216.2,96.7,207.5,93.5z M133,232.1c-6.1,0-12.1,0-18.2,0c-15.4,0-30.9,0-46.3,0c-8.2,0-20.5,2.1-20.5-9.8
			c0-8.7,0-17.3,0-26c0-31.3,0-62.6,0-93.9c0-10.9,0-21.9,0-32.8c0-1.7,0-3.5,0-5.2c0-7.7,6.9-8.4,12.6-8.4c25.5,0,51.1,0,76.6,0
			c10.7,0,8.9,11.5,8.9,18.7c0,12.6,0,25.1,0,37.7c0,37.1,0,74.2,0,111.3C145.6,231.6,139,232.1,133,232.1z"/>
		<path d="M181.5,40.1c-0.1-0.1-0.2-0.1-0.3-0.1c0,0-0.1,0-0.1-0.1c-6.6-2.8-14.2-2.9-21.2-2.9c-1,0-1.9,0.9-1.9,1.9
			c0,17.4,0,34.8,0,52.1c0,1,0.9,1.9,1.9,1.9c12.8-0.1,28.1-2.1,33.6-15.7C199.1,63.6,195.3,46.8,181.5,40.1z M190.4,75
			c-4.1,12.1-17.7,13.9-28.7,14.2c0-16.1,0-32.2,0-48.4c6.1,0,12.3,0.3,18,2.6C191.6,49.3,194.5,62.9,190.4,75z"/>
		<path d="M159.9,96.8c-1,0-1.9,0.9-1.9,1.9c0,13.6,0,27.1,0,40.7c0,6.6-1,13.8,5.6,17.8c5.2,3.2,13.5,1.2,18.7-0.7
			c6.2-2.2,11-6.6,14.2-12.3c5.6-11.2,5.2-26.1-2.7-36.2C185.6,97.5,172.2,96.8,159.9,96.8z M193.3,142.2c-3.4,6-8.5,9.6-15.1,11.6
			c-7.7,2.3-16.8,1.3-16.6-8.5c0.1-3.8,0.1-7.7,0.1-11.5c0-11.1,0-22.1,0-33.2c9.2,0,19.3,0.5,26.5,6.8
			C197.8,115.7,198.6,131.5,193.3,142.2z"/>
		<path d="M126.3,71.5c-13.5,0-27,0-40.6,0c-8.2,0-28.6-3.6-28.6,9.6c0,23.7,0,47.3,0,71c0,13.1,0,26.2,0,39.4
			c0,7.9-0.3,17.4,10.6,17.4c13.2,0,26.4,0,39.6,0c6,0,12,0,18,0c6,0,10.7-2.7,11.5-9.1c0-0.2,0.1-0.3,0.1-0.5c0-23.3,0-46.7,0-70
			c0-13.5,0-26.9,0-40.4C136.9,81.1,137.2,71.5,126.3,71.5z M118.4,205.1c-7.6,0-15.3,0-22.9,0c-7.3,0-14.7,0-22,0
			c-4.6,0-12.6,1.2-12.6-5.9c0-24.3,0-48.6,0-72.8c0-13,0-26,0-38.9c0-2.1,0-4.2,0-6.3c0-7.4,10-5.8,14.7-5.8c15,0,29.9,0,44.9,0
			c4.6,0,12.6-1.2,12.6,5.9c0,2.6,0,5.2,0,7.8c0,36.8,0,73.6,0,110.4C132.5,206.7,123.6,205.1,118.4,205.1z"/>
		<path d="M107,219.5c-0.5-4.9-4.1-8.3-9.1-8.6c-5.1-0.3-8.9,4.4-9.1,9.1c-0.3,5.1,4.4,8.9,9.1,9.1c4.9,0.3,8.6-4,9.1-8.6
			c0-0.2,0.1-0.4,0.1-0.6C107.1,219.9,107,219.7,107,219.5z M92.5,220.1c-0.4-6.9,10.4-6.9,10.8,0C102.9,227,92.9,227,92.5,220.1z"
			/>
		<path d="M112.8,125.7c-0.8-1-2.3-0.6-2.9,0.4c-2.2,3.5-4.5,6.9-6.7,10.4c-3.7-7.3-7.4-14.6-11.1-21.9c-0.7-1.3-2.5-1.1-3.2,0
			c-5.7,9-11.3,18-17,27c-1.3,2.1,2,3.9,3.2,1.9c5.1-8,10.1-16.1,15.2-24.1c3.7,7.3,7.4,14.6,11.1,21.8c0.7,1.3,2.5,1.1,3.2,0
			c2.4-3.7,4.7-7.3,7.1-11c2.7,3.2,5.3,6.4,8,9.7c1.5,1.9,4.2-0.8,2.7-2.7C119.2,133.3,116,129.5,112.8,125.7z"/>
	</g>
</g>
<g id="Glyph" class="st0">
	<g class="st1">
		<path d="M137.1,55.9c-25.5,0-51.1,0-76.6,0c-5.7,0-12.6,0.8-12.6,8.4c0,1.7,0,3.5,0,5.2c0,10.9,0,21.9,0,32.8
			c0,31.3,0,62.6,0,93.9c0,8.7,0,17.3,0,26c0,11.8,12.4,9.8,20.5,9.8c15.4,0,30.9,0,46.3,0c6.1,0,12.1,0,18.2,0
			c6,0,12.6-0.5,13.1-8.4c0-37.1,0-74.2,0-111.3c0-12.6,0-25.1,0-37.7C146.1,67.5,147.8,55.9,137.1,55.9z M92.5,220.1
			c-0.4-6.9,10.4-6.9,10.8,0C102.9,227,92.9,227,92.5,220.1z M133.1,88.9c0,36.8,0,73.6,0,110.4c-0.7,7.4-9.6,5.8-14.7,5.8
			c-7.6,0-15.3,0-22.9,0c-7.3,0-14.7,0-22,0c-4.6,0-12.6,1.2-12.6-5.9c0-24.3,0-48.6,0-72.8c0-13,0-26,0-38.9c0-2.1,0-4.2,0-6.3
			c0-7.4,10-5.8,14.7-5.8c15,0,29.9,0,44.9,0c4.6,0,12.6-1.2,12.6,5.9C133.1,83.8,133.1,86.3,133.1,88.9z"/>
		<path d="M112.8,125.7c-0.8-1-2.3-0.6-2.9,0.4c-2.2,3.5-4.5,6.9-6.7,10.4c-3.7-7.3-7.4-14.6-11.1-21.9c-0.7-1.3-2.5-1.1-3.2,0
			c-5.7,9-11.3,18-17,27c-1.3,2.1,2,3.9,3.2,1.9c5.1-8,10.1-16.1,15.2-24.1c3.7,7.3,7.4,14.6,11.1,21.8c0.7,1.3,2.5,1.1,3.2,0
			c2.4-3.7,4.7-7.3,7.1-11c2.7,3.2,5.3,6.4,8,9.7c1.5,1.9,4.2-0.8,2.7-2.7C119.2,133.3,116,129.5,112.8,125.7z"/>
		<path d="M226.4,111.8c-6.2-8.6-15.3-13.8-25.4-16.3c-1.8-0.4-1.8-3.1,0-3.6c10-2.7,20.8-10.7,23.3-21.5c2-9.1-1.4-19.7-8-26.1
			c-12.4-12-31.1-11-47.1-11c-1,0-1.9-0.9-1.9-1.9c0-3.8,0-7.5,0-11.3c0-4.7,0.6-9.7-5.9-9.7c-6.8,0-5.9,5.7-5.9,10.6
			c0,3.4,0,6.9,0,10.3c0,1-0.9,1.9-1.9,1.9c-3.1,0-6.1,0-9.2,0c-1,0-1.9-0.9-1.9-1.9c0-3.8,0-7.5,0-11.3c0-4.7,0.6-9.7-5.9-9.7
			c-6.8,0-5.9,5.7-5.9,10.6c0,3.4,0,6.9,0,10.3c0,1-0.9,1.9-1.9,1.9c-3.7,0-7.5,0-11.2,0c-4.8,0-10.5-0.9-10.5,5.9
			c0,6.8,5.7,5.9,10.5,5.9c3.7,0,7.5,0,11.2,0c1,0,1.9,0.9,1.9,1.9c0,1.7,0,3.4,0,5.1c0.9,0,1.7,0,2.6,0c4,0,8.1-0.3,11.5,2.4
			c6.5,5.1,5,13.9,5,21.2c0,28.8,0,57.7,0,86.5c0.2-0.1,0.5-0.2,0.8-0.2c1,0,2,0,2.9,0c1,0,1.9,0.9,1.9,1.9c0,3.8,0,7.7,0,11.5
			c0,4.7-0.6,9.8,5.9,9.8c6.9,0,5.9-5.8,5.9-10.7c0-3.5,0-7,0-10.5c0-1,0.9-1.9,1.9-1.9c18.6,0,41.5,0.1,54.7-15.4
			C231.8,137.2,233.9,122.2,226.4,111.8z M161.8,40.8c6.1,0,12.3,0.3,18,2.6c11.9,5.9,14.8,19.5,10.7,31.6
			c-4.1,12.1-17.7,13.9-28.7,14.2C161.8,73,161.8,56.9,161.8,40.8z M193.3,142.2c-3.4,6-8.5,9.6-15.1,11.6
			c-7.7,2.3-16.8,1.3-16.6-8.5c0.1-3.8,0.1-7.7,0.1-11.5c0-11.1,0-22.1,0-33.2c9.2,0,19.3,0.5,26.5,6.8
			C197.8,115.7,198.6,131.5,193.3,142.2z"/>
	</g>
</g>
</svg>
