<?xml version="1.0" encoding="utf-8"?>
<!-- Generator: Adobe Illustrator 23.0.3, SVG Export Plug-In . SVG Version: 6.00 Build 0)  -->
<svg version="1.1" xmlns="http://www.w3.org/2000/svg" xmlns:xlink="http://www.w3.org/1999/xlink" x="0px" y="0px"
	 viewBox="0 0 256 256" style="enable-background:new 0 0 256 256;" xml:space="preserve">
<style type="text/css">
	.st0{display:none;}
	.st1{display:inline;}
</style>
<g id="SOURCE" class="st0">
	<g class="st1">
		<g>
			<path d="M220.3,128.8c-0.2,24.2-9.3,47.1-25.9,64.7c-1.7,1.8,1,4.4,2.7,2.7c17.2-18.4,26.8-42.2,27-67.4
				C224,126.3,220.3,126.3,220.3,128.8L220.3,128.8z"/>
		</g>
	</g>
	<circle class="st1" cx="192.6" cy="199.6" r="2.4"/>
	<g class="st1">
		<g>
			<path d="M235.8,131.5c-0.3,46.9-31,88.7-75.8,102.8c-45.1,14.2-95-4.1-121.3-43c-26.5-39.1-23.2-92.5,6.8-128.8
				c30.1-36.4,82-48.4,125.3-30C210,49.4,235.5,89.1,235.8,131.5c0,2.4,3.8,2.4,3.8,0c-0.3-44.1-26.5-84.3-66.9-102.1
				C132.1,11.5,84,20.5,51.7,50.5C19.2,80.8,8.5,129.2,23.9,170.7c15.1,40.9,54.1,69,97.3,72c30.6,2.1,61-9.3,83.4-30.1
				c22.4-20.8,34.8-50.6,35-81C239.5,129.1,235.8,129.1,235.8,131.5z"/>
		</g>
	</g>
	<g class="st1">
		<g>
			<g>
				<path d="M99.5,89.2c-7.8-0.5-14.3,4.4-16.9,11.7c-3,8.2,0.5,15.7,4.6,22.8c5.4,9.4,12.3,19,10.4,30.4c-0.9,5.6-4.9,10.8-9,14.6
					c-5.7,5.3-13.6,5.7-20.8,3.6c0.4,0.8,0.9,1.5,1.3,2.3c0.7-2.1,1.4-4.2,2.1-6.2c-0.6,1.9,2.5,0,3.5-0.5c2.2-1,4.4-2.1,6.3-3.7
					c7.4-6,8.7-15.2,5.3-23.8c-4-9.9-11.3-18-14-28.4c-2-7.7,0.9-14.9,6.1-20.5c4.9-5.2,11.8-6.5,18.6-5.7c-0.6-0.5-1.2-0.9-1.8-1.4
					c0.8,2.4,1.7,4.7,2.5,7.1c0.8,2.3,4.4,1.3,3.6-1c-0.8-2.4-1.7-4.7-2.5-7.1c-0.3-0.9-0.9-1.3-1.8-1.4C85.5,80.8,76.2,86,70.5,96
					c-5.5,9.7-1.5,20.8,3.4,29.8c5.7,10.5,17.1,24,5.5,35c-2,1.9-4.8,3.2-7.4,4.3c-1.2,0.5-3.5,0.5-4.3,1.8c-1.2,2-1.6,4.7-2.3,6.8
					c-0.3,1,0.4,2,1.3,2.3c8.9,2.5,17.2,1.3,24.4-4.6c7.3-6,11.2-15.5,10.2-24.8c-1-9.6-7.2-18-11.9-26.1c-2.7-4.7-5.1-9.8-4.4-15.4
					c1-7.2,7.2-12.5,14.3-12.1C101.9,93.1,101.9,89.3,99.5,89.2z"/>
			</g>
		</g>
		<g>
			<g>
				<path d="M145.8,79.5c-10.7-0.8-18,6.8-21.1,16.5c-3.3,10.5,4.4,21.6,9.5,30c6.9,11.4,13.5,24.6,7.6,37.9
					c-6.2,14.1-20,21-34.7,16.6c0.4,0.8,0.9,1.5,1.3,2.3c0.9-2.5,1.7-5.1,2.6-7.6c-0.6,1.8,0.7,0.7,1.8,0.3c0.9-0.3,1.9-0.7,2.8-1.1
					c2.6-1.2,5.2-2.5,7.5-4.3c8.9-7.2,10.7-18.6,6.3-28.8c-5.5-12.9-15.9-23.9-17.6-38.3c-1-8.2,2.8-15.7,8.3-21.4
					c6-6.2,14.4-7.9,22.7-7c-0.6-0.5-1.2-0.9-1.8-1.4c1,2.9,2,5.8,3.1,8.6c0.8,2.3,4.4,1.3,3.6-1c-1-2.9-2-5.8-3.1-8.6
					c-0.3-0.9-0.9-1.3-1.8-1.4c-14-1.6-25.8,5.1-32.2,17.6c-6.3,12.3-0.5,25.9,5.7,36.9c7.1,12.5,19.1,28.6,5.2,41.2
					c-2.4,2.2-5.5,3.7-8.5,4.9c-1.4,0.6-4.4,0.7-5.3,2.2c-1.4,2.4-1.9,5.6-2.8,8.2c-0.3,1,0.4,2,1.3,2.3c10.3,3,20.2,1.7,28.8-5
					c8.8-6.9,14.4-18.9,12.8-30.1c-1.7-12.3-9-22.2-14.9-32.8c-3.3-5.9-6-12.4-4.5-19.3c1.8-8.3,9-14.3,17.5-13.7
					C148.2,83.4,148.2,79.6,145.8,79.5z"/>
			</g>
		</g>
		<g>
			<g>
				<path d="M183.8,88.9c-7.8-0.5-14.3,4.4-16.9,11.7c-3,8.2,0.5,15.7,4.6,22.8c5.4,9.4,12.3,19,10.4,30.4c-0.9,5.6-4.9,10.8-9,14.6
					c-5.7,5.3-13.6,5.7-20.8,3.6c0.4,0.8,0.9,1.5,1.3,2.3c0.7-2.1,1.4-4.2,2.1-6.2c-0.6,1.9,2.5,0,3.5-0.5c2.2-1,4.4-2.1,6.3-3.7
					c7.4-6,8.7-15.2,5.3-23.8c-4-9.9-11.3-18-14-28.4c-2-7.7,0.9-14.9,6.1-20.5c4.9-5.2,11.8-6.5,18.6-5.7c-0.6-0.5-1.2-0.9-1.8-1.4
					c0.8,2.4,1.7,4.7,2.5,7.1c0.8,2.3,4.4,1.3,3.6-1c-0.8-2.4-1.7-4.7-2.5-7.1c-0.3-0.9-0.9-1.3-1.8-1.4c-11.4-1.3-20.8,4-26.4,13.9
					c-5.5,9.7-1.5,20.8,3.4,29.8c5.7,10.5,17.1,24,5.5,35c-2,1.9-4.8,3.2-7.4,4.3c-1.2,0.5-3.5,0.5-4.3,1.8c-1.2,2-1.6,4.7-2.3,6.8
					c-0.3,1,0.4,2,1.3,2.3c8.9,2.5,17.2,1.3,24.4-4.6c7.3-6,11.2-15.5,10.2-24.8c-1-9.6-7.2-18-11.9-26.1c-2.7-4.7-5.1-9.8-4.4-15.4
					c1-7.2,7.2-12.5,14.3-12.1C186.2,92.8,186.2,89,183.8,88.9z"/>
			</g>
		</g>
	</g>
</g>
<g id="Line_Expand">
	<g>
		<path d="M233.5,95.1c-3.3-9.8-7.8-19-13.5-27.6c-1.3-2-4.6-0.1-3.2,1.9c5.5,8.3,9.9,17.2,13.1,26.7
			C230.7,98.3,234.3,97.4,233.5,95.1z"/>
		<path d="M89.8,234.5c41.7,15.4,89.7,3,119.8-29.3c19-20.4,29.3-47.7,29.5-75.5c0-2.4-3.7-2.4-3.8,0c-0.3,46.9-31,88.7-75.8,102.8
			c-45.1,14.2-95-4.1-121.3-43C11.7,150.5,15,97.1,45,60.9c32-38.7,88-49.4,132.4-26.6c10.4,5.3,19.8,12.6,27.9,20.9
			c1.7,1.7,4.3-0.9,2.7-2.7C173.6,17.3,119.7,8.5,76,31C36.8,51.3,13.6,94.3,16.6,138.1C19.6,181.6,49.2,219.5,89.8,234.5z"/>
		<path d="M197,196.1c17.2-18.4,26.8-42.2,27-67.4c0-2.4-3.7-2.4-3.8,0c-0.2,24.2-9.3,47.1-25.9,64.7
			C192.7,195.2,195.4,197.9,197,196.1z"/>
		<circle cx="192.6" cy="199.6" r="2.4"/>
		<path d="M101.7,151.9c0.2-10.5-5.1-19.5-10.4-28.1c-3-4.8-5.8-9.9-6.2-15.6c-0.6-8.1,6.7-15.2,14.5-14.7c1.2,0.1,2.2-1.3,1.8-2.4
			c-0.8-2.4-1.7-4.7-2.5-7.1c-0.3-0.9-0.9-1.3-1.8-1.4c-11.4-1.3-20.8,4-26.4,13.9c-5.5,9.7-1.5,20.8,3.4,29.8
			c5.7,10.5,17.1,24,5.5,35c-2,1.9-4.8,3.2-7.4,4.3c-1.2,0.5-3.5,0.5-4.3,1.8c-1.2,2-1.6,4.7-2.3,6.8c-0.3,1,0.4,2,1.3,2.3
			c3.7,1.1,7.3,1.6,11.2,1.3c2.4-0.2,2.4-3.9,0-3.8c-2.8,0.2-5.5-0.1-8.2-0.7c0.5-1.5,1-2.9,1.5-4.4c-0.6,1.9,2.5,0,3.5-0.5
			c2.2-1,4.4-2.1,6.3-3.7c7.4-6,8.7-15.2,5.3-23.8c-4-9.9-11.3-18-14-28.4c-2-7.7,0.9-14.9,6.1-20.5c4.5-4.8,10.9-6.3,17.2-5.8
			c0.4,1.2,0.8,2.3,1.3,3.5c-10.5,1-16.8,11.8-15.1,22.1c1,6.1,5.1,11.8,8.2,16.9c4.3,7.1,8.1,14.6,8,23.1
			C98,154.4,101.7,154.4,101.7,151.9z"/>
		<path d="M94.6,162.1c-2.1,3.3-4.5,6.4-7.8,8.6c-2,1.4-0.1,4.6,1.9,3.2c3.8-2.6,6.7-6.1,9.1-9.9C99.1,162,95.8,160.1,94.6,162.1z"
			/>
		<path d="M111.7,98.8c0.4-3.9,1.7-7.4,3.7-10.7c1.3-2.1-2-4-3.2-1.9c-2.3,3.9-3.7,8.1-4.2,12.6C107.8,101.2,111.5,101.2,111.7,98.8
			z"/>
		<path d="M106.3,184.7c10.3,3,20.2,1.7,28.8-5c8.8-6.9,14.4-18.9,12.8-30.1c-1.7-12.3-9-22.2-14.9-32.8c-3.3-5.9-6-12.4-4.5-19.3
			c1.8-8.3,9-14.3,17.5-13.7c1.2,0.1,2.2-1.3,1.8-2.4c-1-2.9-2-5.8-3.1-8.6c-0.3-0.9-0.9-1.3-1.8-1.4c-6.2-0.7-11.9,0-17.6,2.5
			c-2.2,1-0.3,4.2,1.9,3.2c4.7-2.1,9.4-2.6,14.4-2.2c0.6,1.7,1.2,3.3,1.8,5c-9.2,0.5-15.7,7.6-18.4,16.5c-3.3,10.5,4.4,21.6,9.5,30
			c6.9,11.4,13.5,24.6,7.6,37.9c-5.9,13.5-18.8,20.3-32.8,17.1c0.4-1.1,0.8-2.3,1.1-3.4c0.3-0.8,0.5-1.6,0.8-2.4
			c-0.7,2,2.9-0.1,4.1-0.6c6.8-2.8,12.6-7.5,15.2-14.5c6.5-17.7-11.3-33.7-16.8-49.2c-0.8-2.3-4.4-1.3-3.6,1
			c2.9,8.2,7.7,15.3,12,22.8c4.5,7.9,8.4,16.4,4.4,25.4c-1.9,4.2-5,7-9,9.3c-2.8,1.6-6.3,2-9,3.6c-2.1,1.2-2.7,6.7-3.5,8.9
			C104.6,183.3,105.3,184.4,106.3,184.7z"/>
		<path d="M166.1,158.4c-2,2.8-4.7,4.5-7.7,6c-1.6,0.8-4.7,1-5.9,2.3c-1.5,1.5-1.9,5.2-2.6,7.2c-0.3,1,0.4,2,1.3,2.3
			c8.9,2.5,17.2,1.3,24.4-4.6c7.3-6,11.2-15.5,10.2-24.8c-1-9.6-7.2-18-11.9-26.1c-2.7-4.7-5.1-9.8-4.4-15.4
			c1-7.2,7.2-12.5,14.3-12.1c1.2,0.1,2.2-1.3,1.8-2.4c-0.8-2.4-1.7-4.7-2.5-7.1c-0.3-0.9-0.9-1.3-1.8-1.4c-12-1.3-22,4.6-27.1,15.4
			c-5.2,11.1,1,23.2,6.7,32.6c1.3,2.1,4.5,0.2,3.2-1.9c-4.8-7.9-9.5-16.6-7.6-26.1c2.3-11.1,13-17,23.4-16.4
			c0.4,1.2,0.8,2.3,1.2,3.5c-6.6,0.6-12,5.2-14.3,11.6c-3,8.2,0.5,15.7,4.6,22.8c5.4,9.4,12.3,19,10.4,30.4
			c-0.9,5.6-4.9,10.8-9,14.6c-5.2,4.9-12.2,5.6-18.9,4.1c0.2-0.6,0.4-1.2,0.6-1.8c0.2-0.7,0.5-1.5,0.7-2.2c0.2-0.7,0.2-0.5-0.2,0.5
			c0.7-0.2,1.5-0.4,2.2-0.7c4.7-1.7,9-4.5,11.9-8.6C170.8,158.3,167.5,156.4,166.1,158.4z"/>
		<path d="M172.7,151c0.2-3.2-0.5-6.3-1.6-9.3c-0.8-2.2-4.5-1.3-3.6,1c1,2.7,1.6,5.4,1.4,8.3C168.8,153.4,172.5,153.4,172.7,151z"/>
	</g>
</g>
<g id="Glyph" class="st0">
	<g class="st1">
		<path d="M128.2,22c-60.5,0-109.5,49-109.5,109.5S67.7,241,128.2,241s109.5-49,109.5-109.5S188.6,22,128.2,22z M99.7,151.4
			c-0.2,3.7-1.4,7.4-3.7,11.1c-2.6,4.1-5.4,7.2-8.4,9.2c-3.1,2-6.3,3.2-9.7,3.6c-3.4,0.4-7,0-10.7-1.2l2.1-6.4
			c3.9-0.9,11.1-4.1,13.9-8.7c1.8-2.9,2.8-5.7,3.1-8.4c0.2-2.6-0.3-5.6-1.5-8.8c-1.2-3.2-3.5-7.5-6.8-12.8
			c-3.2-5.1-5.4-9.6-6.7-13.4c-1.3-3.8-1.8-7.4-1.6-10.8c0.3-3.4,1.3-6.6,3.2-9.6c2.7-4.4,6.1-7.6,10.2-9.5c4.1-2,8.6-2.6,13.7-1.9
			l2.5,7.1c-2.6-0.3-5.1,0.1-7.4,1.3c-2.4,1.2-4.4,3.1-6,5.7c-1.7,2.8-2.7,5.5-2.9,8c-0.2,2.5,0.3,5.3,1.4,8.3c1.1,3,3.1,6.8,6,11.4
			c3.5,5.6,5.9,10.4,7.3,14.3C99.3,143.8,99.9,147.6,99.7,151.4z M146.1,154.6c-0.2,4.5-1.7,9-4.5,13.5c-3.1,5-6.5,8.8-10.2,11.2
			c-3.7,2.5-7.7,3.9-11.8,4.4c-4.1,0.4-8.5-0.1-12.9-1.5l2.6-7.8c4.8-1.1,13.5-4.9,16.9-10.5c2.2-3.6,3.5-7,3.7-10.2
			c0.3-3.2-0.3-6.8-1.8-10.6c-1.5-3.9-4.2-9.1-8.2-15.5c-3.9-6.2-6.6-11.7-8.2-16.3c-1.6-4.7-2.2-9-1.9-13.1c0.3-4.1,1.6-8,3.9-11.6
			c3.3-5.3,7.4-9.2,12.4-11.6c4.9-2.4,10.5-3.1,16.7-2.3l3.1,8.6c-3.2-0.4-6.2,0.1-9.1,1.6c-2.9,1.4-5.3,3.7-7.3,6.9
			c-2.1,3.4-3.3,6.6-3.5,9.7c-0.2,3.1,0.3,6.4,1.7,10c1.3,3.6,3.8,8.2,7.3,13.8c4.2,6.8,7.2,12.6,8.9,17.3
			C145.5,145.5,146.3,150.1,146.1,154.6z M184,151c-0.2,3.7-1.4,7.4-3.7,11.1c-2.6,4.1-5.4,7.2-8.4,9.2c-3.1,2-6.3,3.2-9.7,3.6
			c-3.4,0.4-7,0-10.7-1.2l2.1-6.4c3.9-0.9,11.1-4.1,13.9-8.7c1.8-2.9,2.8-5.7,3.1-8.4c0.2-2.6-0.3-5.6-1.5-8.8
			c-1.2-3.2-3.5-7.5-6.8-12.8c-3.2-5.1-5.4-9.6-6.7-13.4c-1.3-3.8-1.8-7.4-1.6-10.8c0.3-3.4,1.3-6.6,3.2-9.6
			c2.7-4.4,6.1-7.6,10.2-9.5c4.1-2,8.6-2.6,13.7-1.9l2.5,7.1c-2.6-0.3-5.1,0.1-7.4,1.3c-2.4,1.2-4.4,3.1-6,5.7
			c-1.7,2.8-2.7,5.5-2.9,8c-0.2,2.5,0.3,5.3,1.4,8.3c1.1,3,3.1,6.8,6,11.4c3.5,5.6,5.9,10.4,7.3,14.3
			C183.5,143.5,184.2,147.3,184,151z M192.6,202c-1.3,0-2.4-1.1-2.4-2.4c0-1.3,1.1-2.4,2.4-2.4c1.3,0,2.4,1.1,2.4,2.4
			C195,200.9,193.9,202,192.6,202z M197,196.1c-1.7,1.8-4.3-0.9-2.7-2.7c16.6-17.6,25.7-40.5,25.9-64.7c0-2.4,3.8-2.4,3.8,0
			C223.8,153.9,214.3,177.8,197,196.1z"/>
	</g>
</g>
</svg>
