<?xml version="1.0" encoding="utf-8"?>
<!-- Generator: Adobe Illustrator 23.0.3, SVG Export Plug-In . SVG Version: 6.00 Build 0)  -->
<svg version="1.1" xmlns="http://www.w3.org/2000/svg" xmlns:xlink="http://www.w3.org/1999/xlink" x="0px" y="0px"
	 viewBox="0 0 256 256" style="enable-background:new 0 0 256 256;" xml:space="preserve">
<style type="text/css">
	.st0{display:none;}
	.st1{display:inline;}
</style>
<g id="SOURCE" class="st0">
	<g class="st1">
		<g>
			<path d="M164.2,93.2c-16.9,0-33.7,0-50.6,0c0.5,0.5,1.1,1.1,1.6,1.6c0-4.9,0-9.8,0-14.7c0-1.4-1.8-2.2-2.8-1.2
				c-8.6,8.6-17.1,17.1-25.7,25.7c-0.6,0.6-0.6,1.7,0,2.3c8.6,8.6,17.1,17.1,25.7,25.7c1,1,2.8,0.3,2.8-1.2c0-4.5,0-8.9,0-13.4
				c-0.5,0.5-1.1,1.1-1.6,1.6c16.9,0,33.7,0,50.6,0c0.9,0,1.6-0.7,1.6-1.6c0-7.7,0-15.5,0-23.2c0-2.1-3.3-2.1-3.3,0
				c0,7.7,0,15.5,0,23.2c0.5-0.5,1.1-1.1,1.6-1.6c-16.9,0-33.7,0-50.6,0c-0.9,0-1.6,0.7-1.6,1.6c0,4.5,0,8.9,0,13.4
				c0.9-0.4,1.9-0.8,2.8-1.2c-8.6-8.6-17.1-17.1-25.7-25.7c0,0.8,0,1.5,0,2.3c8.6-8.6,17.1-17.1,25.7-25.7c-0.9-0.4-1.9-0.8-2.8-1.2
				c0,4.9,0,9.8,0,14.7c0,0.9,0.7,1.6,1.6,1.6c16.9,0,33.7,0,50.6,0C166.3,96.5,166.3,93.2,164.2,93.2z"/>
		</g>
	</g>
	<g class="st1">
		<g>
			<path d="M89.7,155.2c16.9,0,33.7,0,50.6,0c0.9,0,1.6-0.7,1.6-1.6c0-4.9,0-9.8,0-14.7c-0.9,0.4-1.9,0.8-2.8,1.2
				c8.6,8.6,17.1,17.1,25.7,25.7c0-0.8,0-1.5,0-2.3c-8.6,8.6-17.1,17.1-25.7,25.7c0.9,0.4,1.9,0.8,2.8,1.2c0-4.5,0-8.9,0-13.4
				c0-0.9-0.7-1.6-1.6-1.6c-16.9,0-33.7,0-50.6,0c0.5,0.5,1.1,1.1,1.6,1.6c0-7.7,0-15.5,0-23.2c0-2.1-3.3-2.1-3.3,0
				c0,7.7,0,15.5,0,23.2c0,0.9,0.7,1.6,1.6,1.6c16.9,0,33.7,0,50.6,0c-0.5-0.5-1.1-1.1-1.6-1.6c0,4.5,0,8.9,0,13.4
				c0,1.4,1.8,2.2,2.8,1.2c8.6-8.6,17.1-17.1,25.7-25.7c0.6-0.6,0.6-1.7,0-2.3c-8.6-8.6-17.1-17.1-25.7-25.7c-1-1-2.8-0.3-2.8,1.2
				c0,4.9,0,9.8,0,14.7c0.5-0.5,1.1-1.1,1.6-1.6c-16.9,0-33.7,0-50.6,0C87.6,151.9,87.6,155.2,89.7,155.2z"/>
		</g>
	</g>
	<g class="st1">
		<g>
			<path d="M69.8,82.3c-0.3,10.7-8.4,18.8-19.1,19.1c-10.7,0.3-18.8-9-19.1-19.1c-0.3-10.7,9-18.8,19.1-19.1
				C61.3,62.9,69.5,72.2,69.8,82.3c0.1,2.4,3.8,2.4,3.8,0c-0.4-12.8-10.1-22.5-22.9-22.9C37.9,59,28.2,70.2,27.8,82.3
				c-0.4,12.7,10.7,22.5,22.9,22.9c12.7,0.4,22.5-10.7,22.9-22.9C73.6,79.9,69.9,79.9,69.8,82.3z"/>
		</g>
	</g>
	<g class="st1">
		<g>
			<path d="M72.1,177.7c-0.7,10.3-12.8,8.1-20,8.1c-6.1,0-13,0.9-19-0.3c-7.3-1.5-6-10.5-6-15.9c0-7.7,0-15.4,0-23.1
				c0-6.8,0-13.7,0-20.5c0-1.2,0-2.4,0-3.6c0-5.6,4.7-8.1,9.6-8.1c7.2,0,14.5,0,21.7,0c6.6,0,13.6,0.6,13.6,9.2
				C72.1,141.5,72.1,159.6,72.1,177.7c0,2.4,3.8,2.4,3.8,0c0-12,0-24,0-36c0-9.2,3.6-30.1-10.5-31.1c-6-0.4-12.1-0.1-18.2-0.1
				c-5.7,0-12.6-1-17.8,1.6c-5.4,2.7-5.9,8.6-5.9,13.9c0,6.8,0,13.7,0,20.5c0,9,0,18,0,27c0,7,1.8,15.4,10.5,16
				c7.9,0.5,15.9,0.1,23.7,0.1c2.6,0,5.6,0.4,8.1-0.2c6-1.2,9.6-5.7,10-11.7C76,175.3,72.3,175.3,72.1,177.7z"/>
		</g>
	</g>
	<g class="st1">
		<g>
			<path d="M41,114.5c5.7,0,11.3,0,17,0c-0.6-0.6-1.3-1.3-1.9-1.9c0,10.7,0,21.5,0,32.2c0,4,0,8,0,12.1c0-1.5-0.2-0.3-0.8,0.7
				c-1,1.5-2,3-3,4.5c-1.4,2-2.7,4-4.1,6.1c1.1,0,2.2,0,3.2,0c-2.8-4.1-5.6-8.1-8.3-12.2c0.5,0.7,0.2,1.1,0.2,0.2c0-0.8,0-1.7,0-2.5
				c0-2.7-0.1-5.3-0.1-8c-0.1-11-0.2-22-0.4-33c0-2.4-3.8-2.4-3.8,0c0.1,11.3,0.3,22.6,0.4,33.9c0,2.5,0.1,5.1,0.1,7.6
				c0,0.9-0.3,2.8,0.3,3.6c2.8,4.1,5.6,8.2,8.4,12.3c0.8,1.2,2.4,1.2,3.2,0c2.7-4,5.4-8.1,8.1-12.1c0.5-0.8,0.3-2.3,0.3-3.1
				c0-2.7,0-5.4,0-8.2c0-11.3,0-22.7,0-34c0-1-0.9-1.9-1.9-1.9c-5.7,0-11.3,0-17,0C38.6,110.8,38.6,114.5,41,114.5z"/>
		</g>
	</g>
	<g class="st1">
		<g>
			<path d="M227.8,82.3c-0.3,10.7-8.4,18.8-19.1,19.1c-10.7,0.3-18.8-9-19.1-19.1c-0.3-10.7,9-18.8,19.1-19.1
				C219.3,62.9,227.5,72.2,227.8,82.3c0.1,2.4,3.8,2.4,3.8,0c-0.4-12.8-10.1-22.5-22.9-22.9c-12.7-0.4-22.5,10.7-22.9,22.9
				c-0.4,12.7,10.7,22.5,22.9,22.9c12.7,0.4,22.5-10.7,22.9-22.9C231.6,79.9,227.9,79.9,227.8,82.3z"/>
		</g>
	</g>
	<g class="st1">
		<g>
			<path d="M230.1,177.7c-0.7,10.3-12.8,8.1-20,8.1c-6.1,0-13,0.9-19-0.3c-7.3-1.5-6-10.5-6-15.9c0-7.7,0-15.4,0-23.1
				c0-6.8,0-13.7,0-20.5c0-1.2,0-2.4,0-3.6c0-5.6,4.7-8.1,9.6-8.1c7.2,0,14.5,0,21.7,0c6.6,0,13.6,0.6,13.6,9.2
				C230.1,141.5,230.1,159.6,230.1,177.7c0,2.4,3.8,2.4,3.8,0c0-12,0-24,0-36c0-9.2,3.6-30.1-10.5-31.1c-6-0.4-12.1-0.1-18.2-0.1
				c-5.7,0-12.6-1-17.8,1.6c-5.4,2.7-5.9,8.6-5.9,13.9c0,6.8,0,13.7,0,20.5c0,9,0,18,0,27c0,7,1.8,15.4,10.5,16
				c7.9,0.5,15.9,0.1,23.7,0.1c2.6,0,5.6,0.4,8.1-0.2c6-1.2,9.6-5.7,10-11.7C234,175.3,230.3,175.3,230.1,177.7z"/>
		</g>
	</g>
	<g class="st1">
		<g>
			<path d="M199,114.5c5.7,0,11.3,0,17,0c-0.6-0.6-1.3-1.3-1.9-1.9c0,10.7,0,21.5,0,32.2c0,4,0,8,0,12.1c0-1.5-0.2-0.3-0.8,0.7
				c-1,1.5-2,3-3,4.5c-1.4,2-2.7,4-4.1,6.1c1.1,0,2.2,0,3.2,0c-2.8-4.1-5.6-8.1-8.3-12.2c0.5,0.7,0.2,1.1,0.2,0.2c0-0.8,0-1.7,0-2.5
				c0-2.7-0.1-5.3-0.1-8c-0.1-11-0.2-22-0.4-33c0-2.4-3.8-2.4-3.8,0c0.1,11.3,0.3,22.6,0.4,33.9c0,2.5,0.1,5.1,0.1,7.6
				c0,0.9-0.3,2.8,0.3,3.6c2.8,4.1,5.6,8.2,8.4,12.3c0.8,1.2,2.4,1.2,3.2,0c2.7-4,5.4-8.1,8.1-12.1c0.5-0.8,0.3-2.3,0.3-3.1
				c0-2.7,0-5.4,0-8.2c0-11.3,0-22.7,0-34c0-1-0.9-1.9-1.9-1.9c-5.7,0-11.3,0-17,0C196.6,110.8,196.6,114.5,199,114.5z"/>
		</g>
	</g>
</g>
<g id="Line_Expand">
	<g>
		<path d="M115.2,131.4c0-3.9,0-7.8,0-11.8c16.3,0,32.6,0,49,0c0.9,0,1.6-0.7,1.6-1.6c0-7.7,0-15.5,0-23.2c0-0.5-0.2-0.8-0.4-1.1
			c0,0,0,0,0-0.1c0,0,0,0,0,0c-0.3-0.3-0.6-0.4-1.1-0.4c-16.3,0-32.6,0-49,0c0-4.3,0-8.7,0-13c0-1.4-1.8-2.2-2.8-1.2
			c-8.6,8.6-17.1,17.1-25.7,25.7c-0.6,0.6-0.6,1.7,0,2.3c8.6,8.6,17.1,17.1,25.7,25.7C113.4,133.6,115.2,132.9,115.2,131.4z
			 M113.6,96.5c16.3,0,32.6,0,49,0c0,6.6,0,13.3,0,19.9c-16.3,0-32.6,0-49,0c-0.9,0-1.6,0.7-1.6,1.6c0,3.1,0,6.3,0,9.4
			c-7.2-7.2-14.5-14.5-21.7-21.7c7.2-7.2,14.5-14.5,21.7-21.7c0,3.6,0,7.1,0,10.7C112,95.7,112.7,96.5,113.6,96.5z"/>
		<path d="M141.5,137.7c-1-1-2.8-0.3-2.8,1.2c0,4.3,0,8.7,0,13c-16.3,0-32.6,0-49,0c-0.5,0-0.9,0.2-1.1,0.4c0,0,0,0,0,0
			c0,0,0,0,0,0.1c-0.3,0.3-0.4,0.6-0.4,1.1c0,7.7,0,15.5,0,23.2c0,0.9,0.7,1.6,1.6,1.6c16.3,0,32.6,0,49,0c0,3.9,0,7.8,0,11.8
			c0,1.4,1.8,2.2,2.8,1.2c8.6-8.6,17.1-17.1,25.7-25.7c0.6-0.6,0.6-1.7,0-2.3C158.6,154.8,150,146.3,141.5,137.7z M140.3,175.1
			c-16.3,0-32.6,0-49,0c0-6.6,0-13.3,0-19.9c16.3,0,32.6,0,49,0c0.9,0,1.6-0.7,1.6-1.6c0-3.6,0-7.1,0-10.7
			c7.2,7.2,14.5,14.5,21.7,21.7c-7.2,7.2-14.5,14.5-21.7,21.7c0-3.1,0-6.3,0-9.4C142,175.9,141.2,175.1,140.3,175.1z"/>
		<path d="M50.7,105.2c12.7,0.4,22.5-10.7,22.9-22.9c0-0.2,0-0.3,0-0.4c-0.6-12.5-10.2-22-22.8-22.4C37.9,59,28.2,70.2,27.8,82.3
			C27.4,95.1,38.5,104.8,50.7,105.2z M50.7,63.2c10.7-0.3,18.8,9,19.1,19.1c-0.3,10.7-8.4,18.8-19.1,19.1
			c-10.7,0.3-18.8-9-19.1-19.1C31.2,71.7,40.5,63.5,50.7,63.2z"/>
		<path d="M65.4,110.6c-6-0.4-12.1-0.1-18.2-0.1c-5.7,0-12.6-1-17.8,1.6c-5.4,2.7-5.9,8.6-5.9,13.9c0,6.8,0,13.7,0,20.5
			c0,9,0,18,0,27c0,7,1.8,15.4,10.5,16c7.9,0.5,15.9,0.1,23.7,0.1c2.6,0,5.6,0.4,8.1-0.2c5.8-1.2,9.4-5.5,10-11.3c0-0.1,0-0.3,0-0.4
			c0-12,0-24,0-36C75.9,132.4,79.5,111.5,65.4,110.6z M49.9,165.8c-2.2-3.2-4.3-6.3-6.5-9.5c0,0,0-0.1,0-0.1c0-0.8,0-1.7,0-2.5
			c0-2.7-0.1-5.3-0.1-8c-0.1-10.4-0.2-20.8-0.4-31.2c4.4,0,8.8,0,13.2,0c0,10.1,0,20.2,0,30.4c0,4,0,8,0,12.1c0-1.5-0.2-0.3-0.8,0.7
			c-1,1.5-2,3-3,4.5C51.5,163.3,50.7,164.6,49.9,165.8z M43.4,156.4C43.5,156.8,43.4,156.9,43.4,156.4L43.4,156.4z M52.2,185.8
			c-6.1,0-13,0.9-19-0.3c-7.3-1.5-6-10.5-6-15.9c0-7.7,0-15.4,0-23.1c0-6.8,0-13.7,0-20.5c0-1.2,0-2.4,0-3.6c0-5.6,4.7-8.1,9.6-8.1
			c0.8,0,1.5,0,2.3,0c0.1,10.8,0.2,21.6,0.4,32.4c0,2.5,0.1,5.1,0.1,7.6c0,0.9-0.3,2.8,0.3,3.6c2.8,4.1,5.6,8.2,8.4,12.3
			c0.8,1.2,2.4,1.2,3.2,0c2.7-4,5.4-8.1,8.1-12.1c0.5-0.8,0.3-2.3,0.3-3.1c0-2.7,0-5.4,0-8.2c0-10.8,0-21.6,0-32.4
			c6.2,0.1,12.3,1.2,12.3,9.2c0,18.1,0,36.1,0,54.2C71.4,187.9,59.3,185.8,52.2,185.8z"/>
		<path d="M185.8,82.3c-0.4,12.7,10.7,22.5,22.9,22.9c12.7,0.4,22.5-10.7,22.9-22.9c0-0.2,0-0.3,0-0.4c-0.6-12.5-10.2-22-22.8-22.4
			C195.9,59,186.2,70.2,185.8,82.3z M208.7,63.2c10.7-0.3,18.8,9,19.1,19.1c-0.3,10.7-8.4,18.8-19.1,19.1
			c-10.7,0.3-18.8-9-19.1-19.1C189.2,71.7,198.5,63.5,208.7,63.2z"/>
		<path d="M223.4,110.6c-6-0.4-12.1-0.1-18.2-0.1c-5.7,0-12.6-1-17.8,1.6c-5.4,2.7-5.9,8.6-5.9,13.9c0,6.8,0,13.7,0,20.5
			c0,9,0,18,0,27c0,7,1.8,15.4,10.5,16c7.9,0.5,15.9,0.1,23.7,0.1c2.6,0,5.6,0.4,8.1-0.2c5.8-1.2,9.4-5.5,10-11.3c0-0.1,0-0.3,0-0.4
			c0-12,0-24,0-36C233.9,132.4,237.5,111.5,223.4,110.6z M207.9,165.8c-2.2-3.2-4.3-6.3-6.5-9.5c0,0,0-0.1,0-0.1c0-0.8,0-1.7,0-2.5
			c0-2.7-0.1-5.3-0.1-8c-0.1-10.4-0.2-20.8-0.4-31.2c4.4,0,8.8,0,13.2,0c0,10.1,0,20.2,0,30.4c0,4,0,8,0,12.1c0-1.5-0.2-0.3-0.8,0.7
			c-1,1.5-2,3-3,4.5C209.5,163.3,208.7,164.6,207.9,165.8z M201.4,156.4C201.5,156.8,201.4,156.9,201.4,156.4L201.4,156.4z
			 M210.2,185.8c-6.1,0-13,0.9-19-0.3c-7.3-1.5-6-10.5-6-15.9c0-7.7,0-15.4,0-23.1c0-6.8,0-13.7,0-20.5c0-1.2,0-2.4,0-3.6
			c0-5.6,4.7-8.1,9.6-8.1c0.8,0,1.5,0,2.3,0c0.1,10.8,0.2,21.6,0.4,32.4c0,2.5,0.1,5.1,0.1,7.6c0,0.9-0.3,2.8,0.3,3.6
			c2.8,4.1,5.6,8.2,8.4,12.3c0.8,1.2,2.4,1.2,3.2,0c2.7-4,5.4-8.1,8.1-12.1c0.5-0.8,0.3-2.3,0.3-3.1c0-2.7,0-5.4,0-8.2
			c0-10.8,0-21.6,0-32.4c6.2,0.1,12.3,1.2,12.3,9.2c0,18.1,0,36.1,0,54.2C229.4,187.9,217.3,185.8,210.2,185.8z"/>
	</g>
</g>
<g id="Glyph" class="st0">
	<g class="st1">
		<polygon points="164.2,94.8 113.6,94.8 113.6,80.1 87.9,105.8 113.6,131.4 113.6,118 164.2,118 		"/>
	</g>
	<g class="st1">
		<polygon points="89.7,153.5 140.3,153.5 140.3,138.9 166,164.5 140.3,190.2 140.3,176.8 89.7,176.8 		"/>
	</g>
	<g class="st1">
		<path d="M50.7,63.2c10.7-0.3,18.8,9,19.1,19.1c-0.3,10.7-8.4,18.8-19.1,19.1c-10.7,0.3-18.8-9-19.1-19.1
			C31.2,71.7,40.5,63.5,50.7,63.2z"/>
		<path d="M49.9,165.8c-2.2-3.2-4.3-6.3-6.5-9.5c0,0,0-0.1,0-0.1c0-0.8,0-1.7,0-2.5c0-2.7-0.1-5.3-0.1-8
			c-0.1-10.4-0.2-20.8-0.4-31.2c4.4,0,8.8,0,13.2,0c0,10.1,0,20.2,0,30.4c0,4,0,8,0,12.1c0-1.5-0.2-0.3-0.8,0.7c-1,1.5-2,3-3,4.5
			C51.5,163.3,50.7,164.6,49.9,165.8z M43.4,156.4C43.5,156.8,43.4,156.9,43.4,156.4L43.4,156.4z M52.2,185.8c-6.1,0-13,0.9-19-0.3
			c-7.3-1.5-6-10.5-6-15.9c0-7.7,0-15.4,0-23.1c0-6.8,0-13.7,0-20.5c0-1.2,0-2.4,0-3.6c0-5.6,4.7-8.1,9.6-8.1c0.8,0,1.5,0,2.3,0
			c0.1,10.8,0.2,21.6,0.4,32.4c0,2.5,0.1,5.1,0.1,7.6c0,0.9-0.3,2.8,0.3,3.6c2.8,4.1,5.6,8.2,8.4,12.3c0.8,1.2,2.4,1.2,3.2,0
			c2.7-4,5.4-8.1,8.1-12.1c0.5-0.8,0.3-2.3,0.3-3.1c0-2.7,0-5.4,0-8.2c0-10.8,0-21.6,0-32.4c6.2,0.1,12.3,1.2,12.3,9.2
			c0,18.1,0,36.1,0,54.2C71.4,187.9,59.3,185.8,52.2,185.8z"/>
		<path d="M208.7,63.2c10.7-0.3,18.8,9,19.1,19.1c-0.3,10.7-8.4,18.8-19.1,19.1c-10.7,0.3-18.8-9-19.1-19.1
			C189.2,71.7,198.5,63.5,208.7,63.2z"/>
		<path d="M207.9,165.8c-2.2-3.2-4.3-6.3-6.5-9.5c0,0,0-0.1,0-0.1c0-0.8,0-1.7,0-2.5c0-2.7-0.1-5.3-0.1-8
			c-0.1-10.4-0.2-20.8-0.4-31.2c4.4,0,8.8,0,13.2,0c0,10.1,0,20.2,0,30.4c0,4,0,8,0,12.1c0-1.5-0.2-0.3-0.8,0.7c-1,1.5-2,3-3,4.5
			C209.5,163.3,208.7,164.6,207.9,165.8z M201.4,156.4C201.5,156.8,201.4,156.9,201.4,156.4L201.4,156.4z M210.2,185.8
			c-6.1,0-13,0.9-19-0.3c-7.3-1.5-6-10.5-6-15.9c0-7.7,0-15.4,0-23.1c0-6.8,0-13.7,0-20.5c0-1.2,0-2.4,0-3.6c0-5.6,4.7-8.1,9.6-8.1
			c0.8,0,1.5,0,2.3,0c0.1,10.8,0.2,21.6,0.4,32.4c0,2.5,0.1,5.1,0.1,7.6c0,0.9-0.3,2.8,0.3,3.6c2.8,4.1,5.6,8.2,8.4,12.3
			c0.8,1.2,2.4,1.2,3.2,0c2.7-4,5.4-8.1,8.1-12.1c0.5-0.8,0.3-2.3,0.3-3.1c0-2.7,0-5.4,0-8.2c0-10.8,0-21.6,0-32.4
			c6.2,0.1,12.3,1.2,12.3,9.2c0,18.1,0,36.1,0,54.2C229.4,187.9,217.3,185.8,210.2,185.8z"/>
	</g>
</g>
</svg>
