<?xml version="1.0" encoding="utf-8"?>
<!-- Generator: Adobe Illustrator 23.0.3, SVG Export Plug-In . SVG Version: 6.00 Build 0)  -->
<svg version="1.1" xmlns="http://www.w3.org/2000/svg" xmlns:xlink="http://www.w3.org/1999/xlink" x="0px" y="0px"
	 viewBox="0 0 256 256" style="enable-background:new 0 0 256 256;" xml:space="preserve">
<style type="text/css">
	.st0{display:none;}
	.st1{display:inline;}
</style>
<g id="SOURCE" class="st0">
	<g class="st1">
		<g>
			<path d="M220.6,127c-0.2,24.2-9.3,47.1-25.9,64.7c-1.7,1.8,1,4.4,2.7,2.7c17.2-18.4,26.8-42.2,27-67.4
				C224.4,124.6,220.6,124.6,220.6,127L220.6,127z"/>
		</g>
	</g>
	<circle class="st1" cx="192.9" cy="197.9" r="2.4"/>
	<g class="st1">
		<g>
			<path d="M238.1,128.5c-0.3,46.9-31,88.7-75.8,102.8c-45.1,14.2-95-4.1-121.3-43c-26.5-39.1-23.2-92.5,6.8-128.8
				c30.1-36.4,82-48.4,125.3-30C212.4,46.4,237.8,86,238.1,128.5c0,2.4,3.8,2.4,3.8,0c-0.3-44.1-26.5-84.3-66.9-102.1
				C134.4,8.5,86.3,17.5,54.1,47.5c-32.5,30.3-43.2,78.7-27.9,120.1c15.1,40.9,54.1,69,97.3,72c30.6,2.1,61-9.3,83.4-30.1
				c22.4-20.8,34.8-50.6,35-81C241.9,126.1,238.1,126.1,238.1,128.5z"/>
		</g>
	</g>
	<g class="st1">
		<g>
			<path d="M201.6,95c-4-15-12.6-28.1-26.7-35.2c-11.9-6-25.6-5.6-38.5-5.7c-13.5,0-27,0-40.4,0c-0.7,0-1.5,0.5-1.7,1.3
				c-4.8,23.1-9.7,46.2-14.5,69.3c0.6-0.4,1.1-0.8,1.7-1.3c-7.1,0.1-14.2,0.1-21.3,0.2c-5.1,0.1-13.9-1.4-13.8,6
				c0,2.9-0.5,6.7,3.1,7.9c2.7,0.9,5.7,0.5,8.5,0.5c7.1-0.1,14.1-0.1,21.2-0.2c-0.6-0.7-1.1-1.5-1.7-2.2c-4.4,21-8.8,42-13.2,63
				c-0.2,1.1,0.5,2.2,1.7,2.2c10.7,0,21.4,0,32.1,0c13.4,0,26.9,0.5,40.2-1.1C187.2,194,212.1,139.5,201.6,95
				c-0.5-2.2-3.8-1.2-3.3,0.9c5.7,24.3,0.6,50.4-13.1,71.1c-12.7,19.1-32.5,28.6-55.1,30c-21.3,1.3-42.8,0.3-64.1,0.3
				c0.6,0.7,1.1,1.5,1.7,2.2c4.4-21,8.8-42,13.2-63c0.2-1.1-0.5-2.2-1.7-2.2c-5.3,0.1-10.5,0.1-15.8,0.2c-3.1,0-6.3,0.1-9.4,0.1
				c-0.5,0-1,0-1.5,0c-3.5,0-2.6-2.8-2.6-5c0-4,12.5-2.5,15.1-2.6c5.5-0.1,11-0.1,16.5-0.2c0.7,0,1.5-0.5,1.7-1.3
				c4.8-23.1,9.7-46.2,14.5-69.3c-0.6,0.4-1.1,0.8-1.7,1.3c12.7,0,25.4,0,38,0c10.8,0,21.7-0.3,32.2,2.6
				c17.1,4.7,27.8,19.3,32.1,35.8C198.9,98.1,202.2,97.2,201.6,95z"/>
			<path d="M165.2,144.6c-3.6,7.8-8.1,14.9-14.4,20.7c-6.3,5.9-14,7.8-22.3,8.5c-9.3,0.8-18.8,0.4-28.2,0.4c0.6,0.7,1.1,1.5,1.7,2.2
				c2.8-13.4,5.6-26.8,8.4-40.2c-0.6,0.4-1.1,0.8-1.7,1.3c4.9-0.1,9.7-0.1,14.6-0.2c3.8,0,8.9-0.2,8.9-5.2c0-4.9-0.1-9.2-6.4-9.1
				c-4.9,0.1-9.8,0.1-14.8,0.2c0.6,0.7,1.1,1.5,1.7,2.2c3.2-15.1,6.3-30.2,9.5-45.4c-0.6,0.4-1.1,0.8-1.7,1.3
				c11,0,24.1-1.6,34.7,1.7c11.2,3.5,14.9,16,15.7,26.3C171.7,121.1,170,133.6,165.2,144.6c-0.9,2,2.1,3.8,3,1.7
				c4.9-11.2,6.5-23.2,6.1-35.4c-0.3-10.5-3.1-20.5-11.4-27.5c-7-5.9-17-5.6-25.7-5.6c-5.6,0-11.2,0-16.8,0c-0.7,0-1.5,0.5-1.7,1.3
				c-3.2,15.1-6.3,30.2-9.5,45.4c-0.2,1.1,0.5,2.2,1.7,2.2c3.3,0,6.6-0.1,10-0.1c1.6,0,3.2,0,4.8-0.1c3.7,0,2.9,2.5,2.9,5
				c0,4.3-16.7,2.6-20,2.6c-0.7,0-1.5,0.5-1.7,1.3c-2.8,13.4-5.6,26.8-8.4,40.2c-0.2,1.1,0.5,2.2,1.7,2.2c11.1,0,22.4,0.5,33.4-1
				c16.9-2.3,27.7-15.7,34.5-30.4C169.1,144.3,166.1,142.6,165.2,144.6z"/>
		</g>
	</g>
</g>
<g id="Line_Expand">
	<g>
		<path d="M230.2,94.3c0.8,2.3,4.4,1.3,3.6-1c-3.3-9.8-7.8-19-13.5-27.6c-1.3-2-4.6-0.1-3.2,1.9C222.6,76,227,84.8,230.2,94.3z"/>
		<path d="M235.6,128c-0.3,46.9-31,88.7-75.8,102.8c-45.1,14.2-95-4.1-121.3-43C12,148.7,15.3,95.3,45.3,59.1
			c32-38.7,88-49.4,132.4-26.6c10.4,5.3,19.8,12.6,27.9,20.9c1.7,1.7,4.3-0.9,2.7-2.7c-34.3-35.2-88.2-44-131.9-21.5
			C37.1,49.5,13.9,92.6,16.9,136.4c3,43.5,32.6,81.4,73.2,96.4c41.7,15.4,89.7,3,119.8-29.3c19-20.4,29.3-47.7,29.5-75.5
			C239.4,125.6,235.6,125.6,235.6,128z"/>
		<path d="M197.4,194.4c17.2-18.4,26.8-42.2,27-67.4c0-2.4-3.7-2.4-3.8,0c-0.2,24.2-9.3,47.1-25.9,64.7
			C193,193.5,195.7,196.1,197.4,194.4z"/>
		<circle cx="192.9" cy="197.9" r="2.4"/>
		<path d="M65.7,199.3c12.3,0,24.5,0,36.8,0c15.8,0,32,0.9,47.3-3.6c24.3-7,41.2-27.4,49.2-50.9c8.5-25,7.1-57.8-11.9-77.6
			c-14.5-15.1-35.6-14.6-54.8-14.6c-12.2,0-24.4,0-36.6,0c-0.7,0-1.5,0.5-1.7,1.3c-0.6,3-1.2,5.9-1.9,8.9c-0.5,2.2,2.9,3.1,3.3,0.9
			c0.5-2.5,1.1-5.1,1.6-7.6c11.7,0,23.5,0,35.2,0c7.5,0,15.1-0.2,22.6,0.5c16.2,1.6,29.6,9.5,37.8,23.7c7.9,13.7,8.5,30.7,6.9,46
			c-1.5,14.7-7.2,28.4-15.5,40.5c-7.9,11.5-18.8,19.9-31.9,24.5c-11.5,4.1-23.8,4.4-35.9,4.4c-16.1,0-32.2,0-48.3,0
			c4.2-20.3,8.5-40.5,12.7-60.8c0.2-1.1-0.5-2.2-1.7-2.2c-5.3,0.1-10.5,0.1-15.8,0.2c-3.1,0-6.3,0.1-9.4,0.1c-0.5,0-1,0-1.5,0
			c-3.5,0-2.6-2.8-2.6-5c0-4,12.5-2.5,15.1-2.6c5.5-0.1,11-0.1,16.5-0.2c0.7,0,1.5-0.5,1.7-1.3C84.9,114.1,87,104,89.1,94
			c0.5-2.2-2.9-3.1-3.3-0.9c-2,9.6-4,19.3-6.1,28.9c-6.6,0.1-13.2,0.1-19.9,0.2c-5.1,0.1-13.9-1.4-13.8,6c0,2.9-0.5,6.7,3.1,7.9
			c2.7,0.9,5.7,0.5,8.5,0.5c6.4-0.1,12.7-0.1,19.1-0.2c-4.2,20.3-8.5,40.5-12.7,60.8C63.8,198.2,64.5,199.3,65.7,199.3z"/>
		<path d="M91.1,84.5c0.8-4,1.7-8,2.5-12c0.5-2.2-2.9-3.1-3.3-0.9c-0.8,4-1.7,8-2.5,12C87.4,85.7,90.7,86.6,91.1,84.5z"/>
		<path d="M138,170.8c-4.5,1.2-9.2,1.5-13.8,1.7c-2.2,0.1-2.2,3.6,0,3.4c4.9-0.2,9.9-0.6,14.7-1.9C141,173.6,140.1,170.3,138,170.8z
			"/>
		<path d="M108.4,132.5c-0.7,0-1.5,0.5-1.7,1.3c-2.8,13.4-5.6,26.8-8.4,40.2c-0.2,1.1,0.5,2.2,1.7,2.2c5,0,10,0,14.9,0
			c2.2,0,2.2-3.4,0-3.4c-4.3,0-8.6,0-12.8,0c2.6-12.3,5.1-24.5,7.7-36.8c4.4,0,8.8-0.1,13.2-0.1c3.8,0,8.9-0.2,8.9-5.2
			c0-4.9-0.1-9.2-6.4-9.1c-4.2,0-8.4,0.1-12.7,0.1c2.9-14,5.8-27.9,8.7-41.9c5.1,0,10.3,0,15.4,0c12.1,0,22.7,0.7,29.6,12
			c6.6,10.9,4.7,28,2.2,39.8c-2.9,13.5-10.8,27.7-22.4,35.5c-1.8,1.2-0.1,4.2,1.7,3c11.7-7.9,19.3-21.1,23.2-34.4
			c3.7-12.8,5.1-29.9-0.3-42.5c-2.3-5.4-6.1-9.9-11.1-13.1c-4.7-3-10.6-3.3-15.9-3.6c-7.9-0.4-15.9-0.1-23.9-0.1
			c-0.7,0-1.5,0.5-1.7,1.3c-3.2,15.1-6.3,30.2-9.5,45.4c-0.2,1.1,0.5,2.2,1.7,2.2c3.3,0,6.6-0.1,10-0.1c1.6,0,3.2,0,4.8-0.1
			c3.7,0,2.9,2.5,2.9,5C128.4,134.2,111.6,132.5,108.4,132.5z"/>
	</g>
</g>
<g id="Glyph" class="st0">
	<g class="st1">
		<g>
			<path d="M155.3,79.8c-3.4-1.2-9.4-1.8-18.1-1.8h-17.1l-9.5,45.4l15.1-0.2c2.4,0,4.3,1.2,4.3,2.7l0.1,5.5c0,1.5-1.9,2.7-4.2,2.7
				l-17.5,0.2l-8.4,40.2h14.9l9.2-0.2c6.2-0.3,11-0.6,14.3-1.8c2.3-0.8,8.7-3.9,8.7-3.9c1.6-1,3.1-2.2,4.6-3.5
				c5.8-5.3,10.7-12.3,14.6-21.1c4-8.8,6-19.1,6-31.1c0-10.2-1.6-17.8-4.9-22.9C164.1,84.9,160.1,81.5,155.3,79.8z"/>
		</g>
		<g>
			<path d="M131.2,18C70.7,18,21.7,67,21.7,127.5S70.7,237,131.2,237s109.5-49,109.5-109.5S191.6,18,131.2,18z M170.9,183.3
				c-6.8,5.5-15.7,9.5-26.5,12.1c-6.1,1.4-15.5,2.1-28.2,2.1H65.7l13.2-63l-26.7,0.3c-2.4,0-4.3-1.2-4.3-2.7l-0.1-5.5
				c0-1.5,1.9-2.7,4.2-2.7l29.1-0.3l6.3-30.2l2-9.5L92,72l1.8-8.7l1.9-8.9h38.6c10.7,0,17.6,0.2,20.6,0.5c5.9,0.6,11.2,1.8,15.9,3.6
				c4.7,1.8,8.9,4.4,12.7,7.7c3.8,3.3,7.1,7.2,9.9,11.9c2.8,4.6,4.9,9.9,6.4,16c1.5,6,2.2,12.6,2.2,19.8c0,15.4-2.9,29.1-8.8,41.1
				C187.2,166.8,179.8,176.2,170.9,183.3z M192.9,200.3c-1.3,0-2.4-1.1-2.4-2.4c0-1.3,1.1-2.4,2.4-2.4s2.4,1.1,2.4,2.4
				C195.3,199.2,194.2,200.3,192.9,200.3z M197.4,194.4c-1.7,1.8-4.3-0.9-2.7-2.7c16.6-17.6,25.7-40.5,25.9-64.7
				c0-2.4,3.8-2.4,3.8,0C224.1,152.2,214.6,176,197.4,194.4z"/>
		</g>
	</g>
</g>
</svg>
