<?xml version="1.0" encoding="utf-8"?>
<!-- Generator: Adobe Illustrator 23.0.3, SVG Export Plug-In . SVG Version: 6.00 Build 0)  -->
<svg version="1.1" xmlns="http://www.w3.org/2000/svg" xmlns:xlink="http://www.w3.org/1999/xlink" x="0px" y="0px"
	 viewBox="0 0 256 256" style="enable-background:new 0 0 256 256;" xml:space="preserve">
<style type="text/css">
	.st0{display:none;}
	.st1{display:inline;}
</style>
<g id="SOURCE" class="st0">
	<g class="st1">
		<g>
			<path d="M133.9,223.7c-0.5,7.9-7.1,8.4-13.1,8.4c-6.1,0-12.1,0-18.2,0c-15.4,0-30.9,0-46.3,0c-8.2,0-20.5,2.1-20.5-9.8
				c0-8.7,0-17.3,0-26c0-31.3,0-62.6,0-93.9c0-10.9,0-21.9,0-32.8c0-1.7,0-3.5,0-5.2c0-7.7,6.9-8.4,12.6-8.4c25.5,0,51.1,0,76.6,0
				c10.7,0,8.9,11.5,8.9,18.7c0,12.6,0,25.1,0,37.7C133.9,149.4,133.9,186.5,133.9,223.7c0,2.5,3.9,2.5,3.9,0c0-49.3,0-98.6,0-148
				c0-7.3,1.5-16.1-5-21.2c-3.4-2.7-7.5-2.4-11.5-2.4c-5.9,0-11.8,0-17.8,0c-15.5,0-31,0-46.5,0c-10.1,0-24.3-1.8-25.1,12.3
				c-0.4,6,0,12,0,18c0,14.1,0,28.2,0,42.3c0,29.2,0,58.4,0,87.6c0,7.3-1.5,16.1,5,21.2c3.4,2.7,7.5,2.4,11.5,2.4
				c5.9,0,11.8,0,17.8,0c15.5,0,31,0,46.5,0c10.1,0,24.3,1.8,25.1-12.3C137.9,221.2,134.1,221.2,133.9,223.7z"/>
		</g>
	</g>
	<g class="st1">
		<g>
			<path d="M121,199.3c-0.7,7.4-9.6,5.8-14.7,5.8c-7.6,0-15.3,0-22.9,0c-7.3,0-14.7,0-22,0c-4.6,0-12.6,1.2-12.6-5.9
				c0-24.3,0-48.6,0-72.8c0-13,0-26,0-38.9c0-2.1,0-4.2,0-6.3c0-7.4,10-5.8,14.7-5.8c15,0,29.9,0,44.9,0c4.6,0,12.6-1.2,12.6,5.9
				c0,2.6,0,5.2,0,7.8C121,125.7,121,162.5,121,199.3c0,2.4,3.8,2.4,3.8,0c0-23.3,0-46.7,0-70c0-13.5,0-26.9,0-40.4
				c0-7.9,0.3-17.4-10.6-17.4c-13.5,0-27,0-40.6,0c-8.2,0-28.6-3.6-28.6,9.6c0,23.7,0,47.3,0,71c0,13.1,0,26.2,0,39.4
				c0,7.9-0.3,17.4,10.6,17.4c13.2,0,26.4,0,39.6,0c6,0,12,0,18,0c6.2,0,11-2.9,11.6-9.6C124.9,196.9,121.2,196.9,121,199.3z"/>
		</g>
	</g>
	<g class="st1">
		<g>
			<path d="M91.1,220.1c-0.4,6.9-10.4,6.9-10.8,0C80,213.2,90.8,213.2,91.1,220.1c0.1,2.4,3.9,2.4,3.8,0c-0.3-5.2-4-8.8-9.1-9.1
				c-5.1-0.3-8.9,4.4-9.1,9.1c-0.3,5.1,4.4,8.9,9.1,9.1c5.1,0.3,8.9-4.4,9.1-9.1C95,217.7,91.3,217.7,91.1,220.1z"/>
		</g>
	</g>
	<g class="st1">
		<g>
			<path d="M63,143.4c5.7-9,11.3-18,17-27c-1.1,0-2.2,0-3.2,0c4.2,8.2,8.3,16.5,12.5,24.7c0.7,1.3,2.5,1.1,3.2,0
				c2.8-4.4,5.7-8.8,8.5-13.2c-1,0.1-2,0.3-2.9,0.4c3.2,3.8,6.3,7.7,9.5,11.5c1.5,1.9,4.2-0.8,2.7-2.7c-3.2-3.8-6.3-7.7-9.5-11.5
				c-0.8-1-2.3-0.6-2.9,0.4c-2.8,4.4-5.7,8.8-8.5,13.2c1.1,0,2.2,0,3.2,0c-4.2-8.2-8.3-16.5-12.5-24.7c-0.7-1.3-2.5-1.1-3.2,0
				c-5.7,9-11.3,18-17,27C58.4,143.6,61.7,145.5,63,143.4L63,143.4z"/>
		</g>
	</g>
	<g class="st1">
		<g>
			<g>
				<path d="M100,53c0.1-11.8,0.1-23.5,0.2-35.3C99.1,18.2,98,18.6,97,19c6.4,6.5,12.9,13,19.3,19.4c1.4,1.4,2.8,2.8,4.2,4.2
					c0.3,0.3,0.6,0.6,0.9,1c0.9,0.9-0.7-2.2-0.2-0.6c0.5,1.7,3.2,3.5,4.4,4.7c13.1,13.2,26.2,26.4,39.3,39.5c0.7,0.7,2,0.7,2.7,0
					c11.3-12.1,22.6-24.2,33.9-36.4c10.7-11.5,21.1-23.2,32.8-33.7c-1.1-0.4-2.1-0.9-3.2-1.3c-0.3,28-0.6,55.9-0.8,83.9
					c0,1,0.9,1.9,1.9,1.9c6.3,0,12.6,0,18.8,0c-0.6-0.6-1.3-1.3-1.9-1.9c-0.1,8.4-0.2,16.8-0.3,25.2c0.6-0.6,1.3-1.3,1.9-1.9
					c-14.5,0-29,0-43.6,0c0.6,0.6,1.3,1.3,1.9,1.9c0-0.3,0-0.7,0-1c0-1-0.9-1.9-1.9-1.9c0,0-0.1,0-0.1,0c0.6,0.6,1.3,1.3,1.9,1.9
					c0-14.3,0-28.6,0-43c0-1.6-2.1-2.5-3.2-1.3c-13.5,14.4-26.9,28.9-40.4,43.3c0.9,0,1.8,0,2.7,0c-9.6-9.7-19.3-19.4-28.9-29.1
					c-1.7-1.7-4.4,0.9-2.7,2.7c9.6,9.7,19.3,19.4,28.9,29.1c0.7,0.7,2,0.7,2.7,0c13.5-14.4,26.9-28.9,40.4-43.3
					c-1.1-0.4-2.1-0.9-3.2-1.3c0,14.3,0,28.6,0,43c0,1,0.9,1.9,1.9,1.9c0,0,0.1,0,0.1,0c-0.6-0.6-1.3-1.3-1.9-1.9c0,0.3,0,0.7,0,1
					c0,1,0.9,1.9,1.9,1.9c14.5,0,29,0,43.6,0c1,0,1.9-0.9,1.9-1.9c0.1-8.4,0.2-16.8,0.3-25.2c0-1-0.9-1.9-1.9-1.9
					c-6.3,0-12.6,0-18.8,0c0.6,0.6,1.3,1.3,1.9,1.9c0.3-28,0.6-55.9,0.8-83.9c0-1.7-2-2.4-3.2-1.3c-11.7,10.5-22.1,22.2-32.8,33.7
					c-11.3,12.1-22.6,24.2-33.9,36.4c0.9,0,1.8,0,2.7,0c-12.9-13-25.9-26.1-38.8-39.1c-1-1.1-2.1-2.1-3.1-3.2
					c-1.4-1.4-0.6-1.3-0.6,0.2c0-2.1-4.1-4.9-5.4-6.2c-6.6-6.7-13.3-13.3-19.9-20c-1.2-1.2-3.2-0.3-3.2,1.3
					c-0.1,11.8-0.1,23.5-0.2,35.3C96.2,55.4,99.9,55.4,100,53L100,53z"/>
			</g>
		</g>
	</g>
</g>
<g id="Line_Expand">
	<g>
		<path d="M114.1,71.5c-13.5,0-27,0-40.6,0c-8.2,0-28.6-3.6-28.6,9.6c0,23.7,0,47.3,0,71c0,13.1,0,26.2,0,39.4
			c0,7.9-0.3,17.4,10.6,17.4c13.2,0,26.4,0,39.6,0c6,0,12,0,18,0c6,0,10.7-2.7,11.5-9.1c0-0.2,0.1-0.3,0.1-0.5c0-23.3,0-46.7,0-70
			c0-13.5,0-26.9,0-40.4C124.7,81.1,125,71.5,114.1,71.5z M106.2,205.1c-7.6,0-15.3,0-22.9,0c-7.3,0-14.7,0-22,0
			c-4.6,0-12.6,1.2-12.6-5.9c0-24.3,0-48.6,0-72.8c0-13,0-26,0-38.9c0-2.1,0-4.2,0-6.3c0-7.4,10-5.8,14.7-5.8c15,0,29.9,0,44.9,0
			c4.6,0,12.6-1.2,12.6,5.9c0,2.6,0,5.2,0,7.8c0,36.8,0,73.6,0,110.4C120.3,206.7,111.4,205.1,106.2,205.1z"/>
		<path d="M94.8,219.5c-0.5-4.9-4.1-8.3-9.1-8.6c-5.1-0.3-8.9,4.4-9.1,9.1c-0.3,5.1,4.4,8.9,9.1,9.1c4.9,0.3,8.6-4,9.1-8.6
			c0-0.2,0.1-0.4,0.1-0.6C94.9,219.9,94.9,219.7,94.8,219.5z M80.4,220.1c-0.4-6.9,10.4-6.9,10.8,0C90.8,227,80.7,227,80.4,220.1z"
			/>
		<path d="M100.7,125.7c-0.8-1-2.3-0.6-2.9,0.4c-2.2,3.5-4.5,6.9-6.7,10.4c-3.7-7.3-7.4-14.6-11.1-21.9c-0.7-1.3-2.5-1.1-3.2,0
			c-5.7,9-11.3,18-17,27c-1.3,2.1,2,3.9,3.2,1.9c5.1-8,10.1-16.1,15.2-24.1c3.7,7.3,7.4,14.6,11.1,21.8c0.7,1.3,2.5,1.1,3.2,0
			c2.4-3.7,4.7-7.3,7.1-11c2.7,3.2,5.3,6.4,8,9.7c1.5,1.9,4.2-0.8,2.7-2.7C107,133.3,103.8,129.5,100.7,125.7z"/>
		<path d="M212.3,33.8c-3.5,3.8-7.1,7.6-10.6,11.4c-1.6,1.8,1,4.4,2.7,2.7c3.5-3.8,7.1-7.6,10.6-11.4
			C216.6,34.7,213.9,32,212.3,33.8z"/>
		<path d="M250.8,98c-5.6,0-11.3,0-16.9,0c0.3-27.3,0.5-54.7,0.8-82c0-1.7-2-2.4-3.2-1.3c-2.8,2.5-5.7,5.1-8.5,7.6
			c-1.8,1.6,0.9,4.3,2.7,2.7c1.7-1.6,3.5-3.1,5.2-4.7c-0.3,26.5-0.5,53.1-0.8,79.6c0,1,0.9,1.9,1.9,1.9c5.6,0,11.3,0,16.9,0
			c-0.1,7.1-0.2,14.3-0.3,21.4c-13.3,0-26.6,0-39.9,0c0-14,0-28.1,0-42.1c0-1.6-2.1-2.5-3.2-1.3c-13,14-26.1,28-39.1,41.9
			c-9.2-9.2-18.4-18.5-27.6-27.7c-0.3-0.3-0.7-0.5-1-0.5c0-5.9,0-11.8,0-17.7c0-5.7,0.9-12.3-1.8-17.4c9.6,9.7,19.2,19.4,28.8,29
			c0.7,0.7,2,0.7,2.7,0c9-9.6,18-19.3,27-28.9c1.6-1.8-1-4.4-2.7-2.7c-8.6,9.2-17.1,18.4-25.7,27.6c-12.5-12.6-25-25.1-37.5-37.7
			c-1-1.1-2.1-2.1-3.1-3.2c-1.4-1.4-0.6-1.3-0.6,0.2c0-2.1-4.1-4.9-5.4-6.2c-6.6-6.7-13.3-13.3-19.9-20c-1.2-1.2-3.2-0.3-3.2,1.3
			c-0.1,11.5-0.1,22.9-0.2,34.3c-13.1,0-26.1,0-39.2,0c-10.1,0-24.3-1.8-25.1,12.3c-0.4,6,0,12,0,18c0,14.1,0,28.2,0,42.3
			c0,29.2,0,58.4,0,87.6c0,7.3-1.5,16.1,5,21.2c3.4,2.7,7.5,2.4,11.5,2.4c5.9,0,11.8,0,17.8,0c15.5,0,31,0,46.5,0
			c10.1,0,24.3,1.8,25.1-12.3c0-41.8,0-83.6,0-125.5c9.1,9.2,18.2,18.3,27.3,27.5c0.7,0.7,2,0.7,2.7,0
			c12.4-13.3,24.8-26.6,37.2-39.9c0,12.7,0,25.5,0,38.2c0,0.2,0,0.4,0.1,0.6c0,0.1,0,0.2,0,0.4c0,1,0.9,1.9,1.9,1.9
			c14.5,0,29,0,43.6,0c1,0,1.9-0.9,1.9-1.9c0.1-8.4,0.2-16.8,0.3-25.2C252.7,98.8,251.8,98,250.8,98z M100.1,22.2
			c5.4,5.4,10.8,10.8,16.1,16.2c1.4,1.4,2.8,2.8,4.2,4.2c0.3,0.3,0.6,0.6,0.9,1c0,0,0,0,0,0c0.8,1.5,3.1,3.1,4.1,4.1
			c1.8,1.9,3.7,3.7,5.5,5.6c-3-1.5-6.4-1.3-9.8-1.3c-5.9,0-11.8,0-17.8,0c-1.2,0-2.4,0-3.6,0C100,42.1,100.1,32.2,100.1,22.2z
			 M120.8,232.1c-6.1,0-12.1,0-18.2,0c-15.4,0-30.9,0-46.3,0c-8.2,0-20.5,2.1-20.5-9.8c0-8.7,0-17.3,0-26c0-31.3,0-62.6,0-93.9
			c0-10.9,0-21.9,0-32.8c0-1.7,0-3.5,0-5.2c0-7.7,6.9-8.4,12.6-8.4c25.5,0,51.1,0,76.6,0c10.7,0,8.9,11.5,8.9,18.7
			c0,12.6,0,25.1,0,37.7c0,37.1,0,74.2,0,111.3C133.4,231.6,126.8,232.1,120.8,232.1z"/>
	</g>
</g>
<g id="Glyph" class="st0">
	<g class="st1">
		<path d="M121.3,52.1c3.4,0,6.8-0.2,9.8,1.3c-1.8-1.9-3.7-3.7-5.5-5.6c-1-1-3.3-2.6-4.1-4.1c0,0,0,0,0,0c-0.3-0.3-0.6-0.6-0.9-1
			c-1.4-1.4-2.8-2.8-4.2-4.2c-5.4-5.4-10.8-10.8-16.1-16.2c-0.1,9.9-0.1,19.9-0.2,29.8c1.2,0,2.4,0,3.6,0
			C109.5,52.1,115.4,52.1,121.3,52.1z"/>
		<path d="M232,101.7c-1,0-1.9-0.9-1.9-1.9c0.3-26.5,0.5-53,0.8-79.5C220.5,30,211.1,40.6,201.4,51c-11.3,12.1-22.6,24.2-33.9,36.4
			c-0.7,0.7-2,0.7-2.7,0c-9.6-9.7-19.2-19.4-28.8-29c2.7,5.1,1.8,11.6,1.8,17.4c0,5.9,0,11.8,0,17.7c0.4,0,0.7,0.2,1,0.5
			c9.2,9.2,18.4,18.5,27.6,27.7c13-14,26.1-28,39.1-41.9c1.1-1.2,3.2-0.3,3.2,1.3c0,14,0,28.1,0,42.1c13.3,0,26.6,0,39.9,0
			c0.1-7.1,0.2-14.3,0.3-21.4C243.3,101.7,237.6,101.7,232,101.7z"/>
		<g>
			<path d="M125,55.9c-25.5,0-51.1,0-76.6,0c-5.7,0-12.6,0.8-12.6,8.4c0,1.7,0,3.5,0,5.2c0,10.9,0,21.9,0,32.8c0,31.3,0,62.6,0,93.9
				c0,8.7,0,17.3,0,26c0,11.8,12.4,9.8,20.5,9.8c15.4,0,30.9,0,46.3,0c6.1,0,12.1,0,18.2,0c6,0,12.6-0.5,13.1-8.4
				c0-37.1,0-74.2,0-111.3c0-12.6,0-25.1,0-37.7C133.9,67.5,135.6,55.9,125,55.9z M80.4,220.1c-0.4-6.9,10.4-6.9,10.8,0
				C90.8,227,80.7,227,80.4,220.1z M121,88.9c0,36.8,0,73.6,0,110.4c-0.7,7.4-9.6,5.8-14.7,5.8c-7.6,0-15.3,0-22.9,0
				c-7.3,0-14.7,0-22,0c-4.6,0-12.6,1.2-12.6-5.9c0-24.3,0-48.6,0-72.8c0-13,0-26,0-38.9c0-2.1,0-4.2,0-6.3c0-7.4,10-5.8,14.7-5.8
				c15,0,29.9,0,44.9,0c4.6,0,12.6-1.2,12.6,5.9C121,83.8,121,86.3,121,88.9z"/>
			<path d="M100.7,125.7c-0.8-1-2.3-0.6-2.9,0.4c-2.2,3.5-4.5,6.9-6.7,10.4c-3.7-7.3-7.4-14.6-11.1-21.9c-0.7-1.3-2.5-1.1-3.2,0
				c-5.7,9-11.3,18-17,27c-1.3,2.1,2,3.9,3.2,1.9c5.1-8,10.1-16.1,15.2-24.1c3.7,7.3,7.4,14.6,11.1,21.8c0.7,1.3,2.5,1.1,3.2,0
				c2.4-3.7,4.7-7.3,7.1-11c2.7,3.2,5.3,6.4,8,9.7c1.5,1.9,4.2-0.8,2.7-2.7C107,133.3,103.8,129.5,100.7,125.7z"/>
		</g>
	</g>
</g>
</svg>
