<?xml version="1.0" encoding="utf-8"?>
<!-- Generator: Adobe Illustrator 23.0.3, SVG Export Plug-In . SVG Version: 6.00 Build 0)  -->
<svg version="1.1" xmlns="http://www.w3.org/2000/svg" xmlns:xlink="http://www.w3.org/1999/xlink" x="0px" y="0px"
	 viewBox="0 0 256 256" style="enable-background:new 0 0 256 256;" xml:space="preserve">
<style type="text/css">
	.st0{display:none;}
	.st1{display:inline;}
</style>
<g id="SOURCE" class="st0">
	<g class="st1">
		<g>
			<g>
				<g>
					<path d="M123,165.9c7.4,11-3,21.3-12.1,26.4c-12.6,7.1-27.9,9.2-42.1,9.3c-14.3,0.1-29.4-2.5-42.1-9.3
						c-10.9-5.8-19.3-16.6-10.6-28.3c1.4-2-1.8-3.8-3.2-1.9c-8.2,11.2-3.2,22.6,6.9,30.2c13.1,9.9,31.4,12.6,47.4,13
						c16.6,0.4,34.7-2.7,48.9-11.7c9.9-6.2,17.8-18.5,10.3-29.6C124.9,162.1,121.7,163.9,123,165.9L123,165.9z"/>
				</g>
			</g>
			<g>
				<g>
					<path d="M122.2,184.9c7.8,11.8-1,21.6-11.3,27.4c-12.6,7.1-27.9,9.2-42.1,9.3c-14.3,0.1-29.4-2.5-42.1-9.3
						c-10.3-5.5-18.9-15.6-11.5-27.1c1.3-2-1.9-3.9-3.2-1.9c-7.4,11.5-1.4,22.6,8.7,29.7c13.6,9.6,32,12.2,48.2,12.3
						c16.4,0.1,34.3-3.1,48.2-12.3c10.4-7,16-18.7,8.5-30C124.2,181,120.9,182.9,122.2,184.9L122.2,184.9z"/>
				</g>
			</g>
			<g>
				<g>
					<path d="M124.5,156c-0.3,9.4-8.6,15.6-16.2,19.5c-11.7,6.1-25.4,8-38.4,8.1c-12.7,0.1-25.7-2.1-37.2-7.5
						c-8.1-3.8-17.1-10.4-17.4-20.1c-0.3-9.3,9-15.8,16.2-19.5c11.7-6.1,25.4-8,38.4-8.1c12.7-0.1,25.7,2.1,37.2,7.5
						C115.1,139.6,124.2,146.3,124.5,156c0.1,2.4,3.8,2.4,3.8,0c-0.6-20.5-28.1-28.2-44.2-30.4c-21.5-3-50.3-0.4-66.3,16.3
						c-5.2,5.4-7.5,12.8-5.2,20.1c2.7,8.3,10.8,13.8,18.2,17.5c22.1,10.9,51.4,10.7,74,1.8c10.8-4.2,23.1-12.4,23.5-25.2
						C128.3,153.6,124.5,153.6,124.5,156z"/>
				</g>
			</g>
		</g>
		<g>
			<g>
				<path d="M15.3,159.5c3.6-1,7.1-2,10.7-3c2.3-0.7,1.3-4.3-1-3.6c-3.6,1-7.1,2-10.7,3C12,156.5,13,160.1,15.3,159.5L15.3,159.5z"
					/>
			</g>
		</g>
		<g>
			<g>
				<path d="M123.3,155.9c-3.6-1-7.1-2-10.7-3c-2.3-0.7-3.3,3-1,3.6c3.6,1,7.1,2,10.7,3C124.7,160.1,125.7,156.5,123.3,155.9
					L123.3,155.9z"/>
			</g>
		</g>
		<g>
			<g>
				<path d="M73,185.3c0-4.1,0-8.2,0-12.3c0-2.4-3.8-2.4-3.8,0c0,4.1,0,8.2,0,12.3C69.3,187.8,73,187.8,73,185.3L73,185.3z"/>
			</g>
		</g>
		<g>
			<g>
				<path d="M28.8,193.8c0-3.4,0-6.9,0-10.3c0-2.4-3.8-2.4-3.8,0c0,3.4,0,6.9,0,10.3C25,196.3,28.8,196.3,28.8,193.8L28.8,193.8z"/>
			</g>
		</g>
		<g>
			<g>
				<path d="M19.6,206.7c0-3.4,0-6.9,0-10.3c0-2.4-3.8-2.4-3.8,0c0,3.4,0,6.9,0,10.3C15.9,209.1,19.6,209.1,19.6,206.7L19.6,206.7z"
					/>
			</g>
		</g>
		<g>
			<g>
				<path d="M48.8,200.1c0-3.4,0-6.9,0-10.3c0-2.4-3.8-2.4-3.8,0c0,3.4,0,6.9,0,10.3C45,202.5,48.8,202.5,48.8,200.1L48.8,200.1z"/>
			</g>
		</g>
		<g>
			<g>
				<path d="M35.3,215.3c0-3.4,0-6.9,0-10.3c0-2.4-3.8-2.4-3.8,0c0,3.4,0,6.9,0,10.3C31.5,217.7,35.3,217.7,35.3,215.3L35.3,215.3z"
					/>
			</g>
		</g>
		<g>
			<g>
				<path d="M73.5,202.1c0-3.4,0-6.9,0-10.3c0-2.4-3.8-2.4-3.8,0c0,3.4,0,6.9,0,10.3C69.8,204.5,73.5,204.5,73.5,202.1L73.5,202.1z"
					/>
			</g>
		</g>
		<g>
			<g>
				<path d="M58.4,220.6c0-3.4,0-6.9,0-10.3c0-2.4-3.8-2.4-3.8,0c0,3.4,0,6.9,0,10.3C54.6,223,58.4,223,58.4,220.6L58.4,220.6z"/>
			</g>
		</g>
		<g>
			<g>
				<path d="M85.7,220.6c0-3.4,0-6.9,0-10.3c0-2.4-3.8-2.4-3.8,0c0,3.4,0,6.9,0,10.3C82,223,85.7,223,85.7,220.6L85.7,220.6z"/>
			</g>
		</g>
		<g>
			<g>
				<path d="M109.4,214.8c0-3.9,0-7.8,0-11.8c0-2.4-3.8-2.4-3.8,0c0,3.9,0,7.8,0,11.8C105.6,217.3,109.4,217.3,109.4,214.8
					L109.4,214.8z"/>
			</g>
		</g>
		<g>
			<g>
				<path d="M122.5,206.3c0-3.6,0-7.2,0-10.8c0-2.4-3.8-2.4-3.8,0c0,3.6,0,7.2,0,10.8C118.8,208.8,122.5,208.8,122.5,206.3
					L122.5,206.3z"/>
			</g>
		</g>
		<g>
			<g>
				<path d="M102,198.3c0-3.8,0-7.6,0-11.3c0-2.4-3.8-2.4-3.8,0c0,3.8,0,7.6,0,11.3C98.3,200.8,102,200.8,102,198.3L102,198.3z"/>
			</g>
		</g>
		<g>
			<g>
				<path d="M118.8,189.6c0-3.4,0-6.9,0-10.3c0-2.4-3.8-2.4-3.8,0c0,3.4,0,6.9,0,10.3C115,192,118.8,192,118.8,189.6L118.8,189.6z"
					/>
			</g>
		</g>
		<g>
			<g>
				<path d="M73,140.3c0-4.1,0-8.2,0-12.3c0-2.4-3.8-2.4-3.8,0c0,4.1,0,8.2,0,12.3C69.3,142.8,73,142.8,73,140.3L73,140.3z"/>
			</g>
		</g>
	</g>
	<g class="st1">
		<g>
			<path d="M80.7,125.8c0.2-24.7,0.3-49.4,0.5-74.1C80.1,52.2,79,52.6,78,53c6.4,6.5,12.9,13,19.3,19.4c1.4,1.4,2.8,2.8,4.2,4.2
				c0.3,0.3,0.6,0.6,0.9,1c0.9,0.9-0.7-2.2-0.2-0.6c0.5,1.7,3.2,3.5,4.4,4.7c13.1,13.2,26.2,26.4,39.3,39.5c0.7,0.7,2,0.7,2.7,0
				c11.3-12.1,22.6-24.2,33.9-36.4c10.7-11.5,21.1-23.2,32.8-33.7c-1.1-0.4-2.1-0.9-3.2-1.3c-0.3,28-0.6,55.9-0.8,83.9
				c0,1,0.9,1.9,1.9,1.9c10.8,0,21.7,0,32.5-0.1c-0.6-0.6-1.3-1.3-1.9-1.9c0,8.4-0.1,16.8-0.1,25.3c0.6-0.6,1.3-1.3,1.9-1.9
				c-19.1,0-38.3,0-57.4,0c0.6,0.6,1.3,1.3,1.9,1.9c0-0.3,0-0.7,0-1c0-1-0.9-1.9-1.9-1.9c0,0-0.1,0-0.1,0c0.6,0.6,1.3,1.3,1.9,1.9
				c0-14.3,0-28.6,0-43c0-1.6-2.1-2.5-3.2-1.3c-13.5,14.4-26.9,28.9-40.4,43.3c0.9,0,1.8,0,2.7,0c-14.5-14.6-28.9-29.1-43.4-43.7
				c-1.2-1.2-3.2-0.3-3.2,1.3c0,5.7,0,11.4,0,17.1c0,2.4,3.8,2.4,3.8,0c0-5.7,0-11.4,0-17.1c-1.1,0.4-2.1,0.9-3.2,1.3
				c14.5,14.6,28.9,29.1,43.4,43.7c0.7,0.7,2,0.7,2.7,0c13.5-14.4,26.9-28.9,40.4-43.3c-1.1-0.4-2.1-0.9-3.2-1.3c0,14.3,0,28.6,0,43
				c0,1,0.9,1.9,1.9,1.9c0,0,0.1,0,0.1,0c-0.6-0.6-1.3-1.3-1.9-1.9c0,0.3,0,0.7,0,1c0,1,0.9,1.9,1.9,1.9c19.1,0,38.3,0,57.4,0
				c1,0,1.9-0.9,1.9-1.9c0-8.4,0.1-16.8,0.1-25.3c0-1-0.9-1.9-1.9-1.9c-10.8,0.1-21.7,0.1-32.5,0.1c0.6,0.6,1.3,1.3,1.9,1.9
				c0.3-28,0.6-55.9,0.8-83.9c0-1.7-2-2.4-3.2-1.3c-11.7,10.5-22.1,22.2-32.8,33.7c-11.3,12.1-22.6,24.2-33.9,36.4
				c0.9,0,1.8,0,2.7,0c-12.9-13-25.9-26.1-38.8-39.1c-1-1.1-2.1-2.1-3.1-3.2c-1.4-1.4-0.6-1.3-0.6,0.2c0-2.1-4.1-4.9-5.4-6.2
				c-6.6-6.7-13.3-13.3-19.9-20c-1.2-1.2-3.2-0.3-3.2,1.3c-0.2,24.7-0.3,49.4-0.5,74.1C76.9,128.2,80.7,128.2,80.7,125.8L80.7,125.8
				z"/>
		</g>
	</g>
</g>
<g id="Line_Expand">
	<g>
		<path d="M20.7,213c13.6,9.6,32,12.2,48.2,12.3c16.4,0.1,34.3-3.1,48.2-12.3c10.2-6.8,15.7-18.1,9-29.2c3.7-6,4.8-13.1,0.3-19.8
			c0,0,0,0,0,0c1.2-2.4,1.9-5.1,1.9-8c0-0.2,0-0.3,0-0.4c-0.6-12.2-10.8-19.8-22.3-24.4c0-4,0-7.9,0-11.9
			c13.4,13.5,26.8,27,40.2,40.5c0.7,0.7,2,0.7,2.7,0c12.4-13.3,24.8-26.6,37.2-39.9c0,12.7,0,25.5,0,38.2c0,0.2,0,0.4,0.1,0.6
			c0,0.1,0,0.2,0,0.4c0,1,0.9,1.9,1.9,1.9c19.1,0,38.3,0,57.4,0c1,0,1.9-0.9,1.9-1.9c0-8.4,0.1-16.8,0.1-25.3c0-1-0.9-1.9-1.9-1.9
			c-10.2,0.1-20.4,0.1-30.6,0.1c0.3-27.3,0.5-54.7,0.8-82c0-1.7-2-2.4-3.2-1.3c-2.8,2.5-5.7,5.1-8.5,7.6c-1.8,1.6,0.9,4.3,2.7,2.7
			c1.7-1.6,3.5-3.1,5.2-4.7c-0.3,26.5-0.5,53.1-0.8,79.6c0,1,0.9,1.9,1.9,1.9c10.2,0,20.4,0,30.6-0.1c0,7.2-0.1,14.3-0.1,21.5
			c-17.9,0-35.9,0-53.8,0c0-14,0-28.1,0-42.1c0-1.6-2.1-2.5-3.2-1.3c-13,14-26.1,28-39.1,41.9c-14-14.1-28-28.2-42-42.3
			c-1.2-1.2-3.2-0.3-3.2,1.3c0,5,0,10.1,0,15.1c-6.4-2.2-12.9-3.5-18.1-4.2c-1.1-0.1-2.2-0.3-3.3-0.4c0.1-23,0.3-45.9,0.4-68.9
			c5.4,5.4,10.8,10.8,16.1,16.2c1.4,1.4,2.8,2.8,4.2,4.2c0.3,0.3,0.6,0.6,0.9,1c0,0,0,0,0,0c0.8,1.5,3.1,3.1,4.1,4.1
			c13.1,13.2,26.2,26.4,39.3,39.5c0.7,0.7,2,0.7,2.7,0c9-9.6,18-19.3,27-28.9c1.6-1.8-1-4.4-2.7-2.7c-8.6,9.2-17.1,18.4-25.7,27.6
			c-12.5-12.6-25-25.1-37.5-37.7c-1-1.1-2.1-2.1-3.1-3.2c-1.4-1.4-0.6-1.3-0.6,0.2c0-2.1-4.1-4.9-5.4-6.2
			c-6.6-6.7-13.3-13.3-19.9-20c-1.2-1.2-3.2-0.3-3.2,1.3c-0.2,24.4-0.3,48.7-0.5,73.1c-20.4-1.5-45,2.1-59.3,17
			c-5.2,5.4-7.5,12.8-5.2,20.1c0.1,0.2,0.1,0.3,0.2,0.5c-5.3,7.4-4.9,14.9-1,21.4C4.7,195.1,10.7,206,20.7,213z M122.5,202.3
			c0-2.2,0-4.5,0-6.7c0-2.4-3.8-2.4-3.8,0c0,3.6,0,7.2,0,10.8c0,0.1,0,0.2,0,0.3c-2.3,2.2-5,4.1-7.9,5.7c-0.5,0.3-1,0.6-1.6,0.8
			c0-3.4,0-6.7,0-10.1c0-2.4-3.8-2.4-3.8,0c0,3.9,0,7.8,0,11.8c0,0.1,0,0.1,0,0.1c-6.3,2.7-13.1,4.4-19.9,5.4c0-3.4,0-6.8,0-10.2
			c0-2.4-3.8-2.4-3.8,0c0,3.4,0,6.9,0,10.3c0,0.1,0,0.2,0,0.3c-4.4,0.5-8.8,0.7-13.2,0.7c-3.5,0-7-0.1-10.6-0.4
			c0.1-0.2,0.1-0.4,0.1-0.6c0-3.4,0-6.9,0-10.3c0-2.4-3.8-2.4-3.8,0c0,3.4,0,6.9,0,10.3c0,0.1,0,0.1,0,0.2
			c-6.7-0.8-13.3-2.4-19.6-4.7c0.1-0.2,0.2-0.5,0.2-0.9c0-3.4,0-6.9,0-10.3c0-2.4-3.8-2.4-3.8,0c0,3.3,0,6.5,0,9.8
			c-1.6-0.7-3.2-1.5-4.8-2.3c-2.6-1.4-5.1-3.1-7.2-5c0.1-0.2,0.1-0.4,0.1-0.7c0-3.4,0-6.9,0-10.3c0-2.4-3.8-2.4-3.8,0
			c0,2.4,0,4.7,0,7.1c-3.4-4.7-4.7-10.3-1.7-16.3c1.6,1.9,3.5,3.6,5.6,5.2c13.1,9.9,31.4,12.6,47.4,13c16.6,0.4,34.7-2.7,48.9-11.7
			c2.8-1.8,5.4-4,7.5-6.5C126.3,192.8,125.4,197.9,122.5,202.3z M31.4,136.5c11.5-6,25.1-7.9,37.9-8.1c0,4,0,8,0,11.9
			c0,2.4,3.8,2.4,3.8,0c0-4,0-8,0-11.9c11.6,0.3,23.5,2.6,34,7.5c8.1,3.8,17.1,10.4,17.4,20.1c0,0.2,0,0.4-0.1,0.7
			c-0.2-0.4-0.6-0.7-1.1-0.8c-3.6-1-7.1-2-10.7-3c-2.3-0.7-3.3,3-1,3.6c3.6,1,7.1,2,10.7,3c0.7,0.2,1.3,0,1.7-0.4
			c-1.8,7.7-9,12.9-15.8,16.5c-10.7,5.6-23.2,7.6-35.2,8c0-3.5,0-7,0-10.6c0-2.4-3.8-2.4-3.8,0c0,3.5,0,7.1,0,10.6
			c-12.5,0-25.3-2.2-36.7-7.5c-7.1-3.3-14.9-8.8-16.9-16.8c3.4-1,6.9-1.9,10.3-2.9c2.3-0.7,1.3-4.3-1-3.6c-3.3,0.9-6.5,1.8-9.8,2.8
			C15.2,146.6,24.3,140.2,31.4,136.5z M14.6,166.4c3.7,5.9,10.1,10,16.1,13c22.1,10.9,51.4,10.7,74,1.8c7-2.7,14.7-7.2,19.3-13.5
			c3.6,7.1,0.1,13.9-5.3,18.9c0-2.5,0-4.9,0-7.4c0-2.4-3.8-2.4-3.8,0c0,3.4,0,6.9,0,10.3c0,0,0,0.1,0,0.1c-1.4,1-2.7,1.9-4.1,2.6
			c-2.8,1.6-5.8,2.9-8.9,4.1c0-3.1,0-6.3,0-9.4c0-2.4-3.8-2.4-3.8,0c0,3.6,0,7.1,0,10.7c-8,2.4-16.5,3.5-24.8,3.8c0-3.3,0-6.5,0-9.8
			c0-2.4-3.8-2.4-3.8,0c0,3.3,0,6.6,0,9.9c-0.3,0-0.6,0-1,0c-6.6,0-13.4-0.5-20-1.7c0-3.4,0-6.8,0-10.1c0-2.4-3.8-2.4-3.8,0
			c0,3.1,0,6.2,0,9.3c-5.6-1.3-11.1-3.2-16.3-5.7c0-3.3,0-6.6,0-9.9c0-2.4-3.8-2.4-3.8,0c0,2.6,0,5.3,0,7.9
			C15.7,185.8,8.9,176.6,14.6,166.4z"/>
		<path d="M193.3,67.8c-3.5,3.8-7.1,7.6-10.6,11.4c-1.6,1.8,1,4.4,2.7,2.7c3.5-3.8,7.1-7.6,10.6-11.4
			C197.6,68.7,194.9,66,193.3,67.8z"/>
	</g>
</g>
<g id="Glyph" class="st0">
	<path class="st1" d="M122.5,202.3c0-2.2,0-4.5,0-6.7c0-2.4-3.8-2.4-3.8,0c0,3.6,0,7.2,0,10.8c0,0.1,0,0.2,0,0.3
		c-2.3,2.2-5,4.1-7.9,5.7c-0.5,0.3-1,0.6-1.6,0.8c0-3.4,0-6.7,0-10.1c0-2.4-3.8-2.4-3.8,0c0,3.9,0,7.8,0,11.8c0,0.1,0,0.1,0,0.1
		c-6.3,2.7-13.1,4.4-19.9,5.4c0-3.4,0-6.8,0-10.2c0-2.4-3.8-2.4-3.8,0c0,3.4,0,6.9,0,10.3c0,0.1,0,0.2,0,0.3
		c-4.4,0.5-8.8,0.7-13.2,0.7c-3.5,0-7-0.1-10.6-0.4c0.1-0.2,0.1-0.4,0.1-0.6c0-3.4,0-6.9,0-10.3c0-2.4-3.8-2.4-3.8,0
		c0,3.4,0,6.9,0,10.3c0,0.1,0,0.1,0,0.2c-6.7-0.8-13.3-2.4-19.6-4.7c0.1-0.2,0.2-0.5,0.2-0.9c0-3.4,0-6.9,0-10.3
		c0-2.4-3.8-2.4-3.8,0c0,3.3,0,6.5,0,9.8c-1.6-0.7-3.2-1.5-4.8-2.3c-2.6-1.4-5.1-3.1-7.2-5c0.1-0.2,0.1-0.4,0.1-0.7
		c0-3.4,0-6.9,0-10.3c0-2.4-3.8-2.4-3.8,0c0,2.4,0,4.7,0,7.1c-3.4-4.7-4.7-10.3-1.7-16.3c1.6,1.9,3.5,3.6,5.6,5.2
		c13.1,9.9,31.4,12.6,47.4,13c16.6,0.4,34.7-2.7,48.9-11.7c2.8-1.8,5.4-4,7.5-6.5C126.3,192.8,125.4,197.9,122.5,202.3z
		 M118.8,186.6c0-2.5,0-4.9,0-7.4c0-2.4-3.8-2.4-3.8,0c0,3.4,0,6.9,0,10.3c0,0,0,0.1,0,0.1c-1.4,1-2.7,1.9-4.1,2.6
		c-2.8,1.6-5.8,2.9-8.9,4.1c0-3.1,0-6.3,0-9.4c0-2.4-3.8-2.4-3.8,0c0,3.6,0,7.1,0,10.7c-8,2.4-16.5,3.5-24.8,3.8c0-3.3,0-6.5,0-9.8
		c0-2.4-3.8-2.4-3.8,0c0,3.3,0,6.6,0,9.9c-0.3,0-0.6,0-1,0c-6.6,0-13.4-0.5-20-1.7c0-3.4,0-6.8,0-10.1c0-2.4-3.8-2.4-3.8,0
		c0,3.1,0,6.2,0,9.3c-5.6-1.3-11.1-3.2-16.3-5.7c0-3.3,0-6.6,0-9.9c0-2.4-3.8-2.4-3.8,0c0,2.6,0,5.3,0,7.9
		c-9.3-5.6-16.1-14.8-10.5-25c3.7,5.9,10.1,10,16.1,13c22.1,10.9,51.4,10.7,74,1.8c7-2.7,14.7-7.2,19.3-13.5
		C127.7,174.8,124.2,181.6,118.8,186.6z M124.5,156c0,0.2,0,0.4-0.1,0.7c-0.2-0.4-0.6-0.7-1.1-0.8c-3.6-1-7.1-2-10.7-3
		c-2.3-0.7-3.3,3-1,3.6c3.6,1,7.1,2,10.7,3c0.7,0.2,1.3,0,1.7-0.4c-1.8,7.7-9,12.9-15.8,16.5c-10.7,5.6-23.2,7.6-35.2,8
		c0-3.5,0-7,0-10.6c0-2.4-3.8-2.4-3.8,0c0,3.5,0,7.1,0,10.6c-12.5,0-25.3-2.2-36.7-7.5c-7.1-3.3-14.9-8.8-16.9-16.8
		c3.4-1,6.9-1.9,10.3-2.9c2.3-0.7,1.3-4.3-1-3.6c-3.3,0.9-6.5,1.8-9.8,2.8c0-9,9.1-15.4,16.2-19.2c11.5-6,25.1-7.9,37.9-8.1
		c0,4,0,8,0,11.9c0,2.4,3.8,2.4,3.8,0c0-4,0-8,0-11.9c11.6,0.3,23.5,2.6,34,7.5C115.1,139.6,124.2,146.3,124.5,156z M105.3,113.4
		c-1.2-1.2-3.2-0.3-3.2,1.3c0,5,0,10.1,0,15.1c-6.4-2.2-12.9-3.5-18.1-4.2c-1.1-0.1-2.2-0.3-3.3-0.4c0.1-23,0.3-45.9,0.4-68.9
		c5.4,5.4,10.8,10.8,16.1,16.2c1.4,1.4,2.8,2.8,4.2,4.2c0.3,0.3,0.6,0.6,0.9,1c0,0,0,0,0,0c0.8,1.5,3.1,3.1,4.1,4.1
		c13.1,13.2,26.2,26.4,39.3,39.5c0.7,0.7,2,0.7,2.7,0c11.3-12.1,22.6-24.2,33.9-36.4c9.7-10.4,19.2-21,29.6-30.7
		c-0.3,26.5-0.5,53-0.8,79.6c0,1,0.9,1.9,1.9,1.9c10.2,0,20.4,0,30.6-0.1c0,7.2-0.1,14.3-0.1,21.5c-17.9,0-35.9,0-53.8,0
		c0-14,0-28.1,0-42.1c0-1.6-2.1-2.5-3.2-1.3c-13,14-26.1,28-39.1,41.9C133.4,141.6,119.3,127.5,105.3,113.4z"/>
</g>
</svg>
