<?xml version="1.0" encoding="utf-8"?>
<!-- Generator: Adobe Illustrator 23.0.3, SVG Export Plug-In . SVG Version: 6.00 Build 0)  -->
<svg version="1.1" xmlns="http://www.w3.org/2000/svg" xmlns:xlink="http://www.w3.org/1999/xlink" x="0px" y="0px"
	 viewBox="0 0 256 256" style="enable-background:new 0 0 256 256;" xml:space="preserve">
<style type="text/css">
	.st0{display:none;}
	.st1{display:inline;}
</style>
<g id="SOURCE" class="st0">
	<g class="st1">
		<g>
			<path d="M220.8,128c-0.2,24.2-9.3,47.1-25.9,64.7c-1.7,1.8,1,4.4,2.7,2.7c17.2-18.4,26.8-42.2,27-67.4
				C224.5,125.6,220.8,125.6,220.8,128L220.8,128z"/>
		</g>
	</g>
	<circle class="st1" cx="193.1" cy="198.9" r="2.4"/>
	<g class="st1">
		<g>
			<path d="M117.3,141.4c3.5,1.7,6.9,3.4,10.4,5.1c1.6,0.8,2.7,0,4.1-0.7c7.1-3.5,14.2-6.9,21.3-10.4c14.2-6.9,28.3-13.9,42.5-20.8
				c1.2-0.6,1.2-2.7,0-3.2c-21.4-10.1-42.9-20.2-64.3-30.3c-2.2-1-3.3-0.6-5.4,0.4c-5.1,2.4-10.2,4.8-15.3,7.2
				c-13.7,6.5-27.4,12.9-41.1,19.4c-2.3,1.1-4.6,2.2-6.9,3.3c-1.2,0.6-1.2,2.6,0,3.2C80.7,123.5,99,132.5,117.3,141.4
				c2.2,1.1,4.1-2.2,1.9-3.2c-18.3-8.9-36.6-17.9-54.9-26.8c0,1.1,0,2.2,0,3.2c21.4-10.1,42.9-20.2,64.3-30.3c2.2-1,0.1-0.3-0.4-0.5
				c1.3,0.6,2.7,1.3,4,1.9c5.8,2.7,11.6,5.5,17.4,8.2c13.2,6.2,26.4,12.4,39.6,18.7c1.4,0.7,2.9,1.3,4.3,2c0-1.1,0-2.2,0-3.2
				c-13.3,6.5-26.6,13-39.9,19.5c-7.5,3.6-14.9,7.3-22.4,10.9c-0.9,0.4-1.7,0.8-2.6,1.3c-1.7,0.8,1.1,0.3,0.8,0.2
				c-3.5-1.7-6.9-3.4-10.4-5.1C117,137.1,115.1,140.3,117.3,141.4z"/>
		</g>
	</g>
	<g class="st1">
		<g>
			<path d="M193.7,131.7c-21.4,10.4-42.7,20.9-64.1,31.3c-2.2,1.1-1,0.1,0.2,0.7c-1.2-0.6-2.4-1.2-3.6-1.8
				c-5.6-2.7-11.2-5.5-16.8-8.2c-13.3-6.5-26.6-13-39.9-19.5c-1.5-0.7-3-1.4-4.4-2.2c-0.2-0.1-0.5-0.2-0.7-0.4
				c1.4,0.7,0.9,2.3,0.9-0.4c0-6.1,0-12.3,0-18.4c0-2.4-3.8-2.4-3.8,0c0,6.8,0,13.6,0,20.4c0,0.6,0.3,1.3,0.9,1.6
				c21.4,10.4,42.7,20.9,64.1,31.3c2.1,1,3.1,0.9,5.3-0.2c4.9-2.4,9.8-4.8,14.6-7.2c13.7-6.7,27.4-13.4,41.1-20.1
				c2.7-1.3,5.3-2.6,8-3.9C197.7,133.9,195.8,130.7,193.7,131.7L193.7,131.7z"/>
		</g>
	</g>
	<g class="st1">
		<g>
			<path d="M62.4,155.3c21.4,10.4,42.7,20.9,64.1,31.3c3.6,1.8,6.3-0.7,9.8-2.4c5.2-2.6,10.5-5.1,15.7-7.7c8.9-4.3,17.7-8.7,26.6-13
				c5.7-2.8,11.3-5.5,17-8.3c0.6-0.3,0.9-1,0.9-1.6c0-6.8,0-13.6,0-20.4c0-2.4-3.8-2.4-3.8,0c0,6.1,0,12.3,0,18.4
				c0,2.7-0.5,1.1,0.9,0.4c-0.8,0.4-1.6,0.8-2.4,1.2c-3.6,1.8-7.2,3.5-10.8,5.3c-9.2,4.5-18.5,9-27.7,13.5
				c-4.5,2.2-8.9,4.4-13.4,6.5c-3.2,1.6-6.4,3.1-9.6,4.7c-2.2,1.1-1.3,0.1,0.2,0.8c-0.4-0.2-0.8-0.4-1.2-0.6
				c-11.7-5.7-23.4-11.4-35.1-17.2c-9.7-4.8-19.5-9.5-29.2-14.3C62.2,151,60.3,154.3,62.4,155.3L62.4,155.3z"/>
		</g>
	</g>
	<g class="st1">
		<g>
			<path d="M235.8,128.5c-0.3,46.9-31,88.7-75.8,102.8c-45.1,14.2-95-4.1-121.3-43c-26.5-39.1-23.2-92.5,6.8-128.8
				c30.1-36.4,82-48.4,125.3-30C210,46.4,235.5,86,235.8,128.5c0,2.4,3.8,2.4,3.8,0c-0.3-44.1-26.5-84.3-66.9-102.1
				C132.1,8.5,84,17.5,51.7,47.5C19.2,77.8,8.5,126.1,23.9,167.6c15.1,40.9,54.1,69,97.3,72c30.6,2.1,61-9.3,83.4-30.1
				c22.4-20.8,34.8-50.6,35-81C239.5,126.1,235.8,126.1,235.8,128.5z"/>
		</g>
	</g>
</g>
<g id="Line_Expand">
	<g>
		<path d="M230.4,95.3c0.8,2.3,4.4,1.3,3.6-1c-3.3-9.8-7.8-19-13.5-27.6c-1.3-2-4.6-0.1-3.2,1.9C222.8,77,227.2,85.8,230.4,95.3z"/>
		<path d="M90.3,233.8c41.7,15.4,89.7,3,119.8-29.3c19-20.4,29.3-47.7,29.5-75.5c0-2.4-3.7-2.4-3.8,0c-0.3,46.9-31,88.7-75.8,102.8
			c-45.1,14.2-95-4.1-121.3-43c-26.5-39.1-23.2-92.5,6.8-128.8c32-38.7,88-49.4,132.4-26.6c10.4,5.3,19.8,12.6,27.9,20.9
			c1.7,1.7,4.3-0.9,2.7-2.7c-34.3-35.2-88.2-44-131.9-21.5C37.3,50.5,14.1,93.6,17.1,137.4C20.1,180.8,49.7,218.7,90.3,233.8z"/>
		<path d="M197.5,195.4c17.2-18.4,26.8-42.2,27-67.4c0-2.4-3.7-2.4-3.8,0c-0.2,24.2-9.3,47.1-25.9,64.7
			C193.2,194.5,195.9,197.1,197.5,195.4z"/>
		<circle cx="193.1" cy="198.9" r="2.4"/>
		<path d="M89.9,123.8c-2.2-1.1-4.1,2.2-1.9,3.2c5.1,2.5,10.1,4.9,15.2,7.4c2.2,1.1,4.1-2.2,1.9-3.2
			C100,128.8,94.9,126.3,89.9,123.8z"/>
		<path d="M191.2,153.3c-2.2,1.1-4.3,2.1-6.5,3.2c-3,1.5-6,2.9-8.9,4.4c-2.2,1.1-0.3,4.3,1.9,3.2c6-2.9,11.9-5.8,17.9-8.7
			c0.6-0.3,0.9-1,0.9-1.6c0-6.6,0-13.3,0-19.9c0-0.2,0-0.5,0-0.7c-0.1-1-0.8-1.5-1.6-1.6c-0.4-0.1-0.8,0-1.2,0.2
			c-21.4,10.4-42.7,20.9-64.1,31.3c-0.2,0.1-0.4,0.2-0.6,0.3c-0.9-0.5-1.9-0.9-2.8-1.4c-5.6-2.7-11.2-5.5-16.8-8.2
			c-13.3-6.5-26.6-13-39.9-19.5c-1.4-0.7-2.8-1.4-4.2-2.1c0-0.2,0-0.5,0-0.8c0-5.1,0-10.3,0-15.4c4.9,2.4,9.7,4.7,14.6,7.1
			c2.2,1.1,4.1-2.2,1.9-3.2c-4.7-2.3-9.3-4.6-14-6.8c20.3-9.6,40.6-19.2,61-28.7c0.1-0.1,0.2-0.1,0.3-0.2c1.1,0.5,2.2,1.1,3.3,1.6
			c5.8,2.7,11.6,5.5,17.4,8.2c13.2,6.2,26.4,12.4,39.6,18.7c0.3,0.1,0.6,0.3,0.9,0.4c-12.2,6-24.4,11.9-36.5,17.9
			c-7.5,3.6-14.9,7.3-22.4,10.9c-0.8,0.4-1.6,0.8-2.4,1.2c-3.3-1.6-6.5-3.2-9.8-4.8c-2.2-1.1-4.1,2.2-1.9,3.2
			c3.5,1.7,6.9,3.4,10.4,5.1c1.6,0.8,2.7,0,4.1-0.7c7.1-3.5,14.2-6.9,21.3-10.4c14.2-6.9,28.3-13.9,42.5-20.8c1.2-0.6,1.2-2.7,0-3.2
			c-21.4-10.1-42.9-20.2-64.3-30.3c-2.2-1-3.3-0.6-5.4,0.4c-5.1,2.4-10.2,4.8-15.3,7.2c-13.7,6.5-27.4,12.9-41.1,19.4
			c-2.3,1.1-4.6,2.2-6.9,3.3c-0.2,0.1-0.4,0.3-0.6,0.5c0,0,0,0,0,0.1c0,0.1-0.1,0.1-0.1,0.2c-0.1,0.2-0.2,0.5-0.2,0.9
			c0,6.8,0,13.6,0,20.4c0,0.6,0.3,1.3,0.9,1.6c21.4,10.4,42.7,20.9,64.1,31.3c2.1,1,3.1,0.9,5.3-0.2c4.9-2.4,9.8-4.8,14.6-7.2
			c13.7-6.7,27.4-13.4,41.1-20.1c1.7-0.8,3.5-1.7,5.2-2.5c0,5.4,0,10.8,0,16.2C192.2,152.8,191.7,153,191.2,153.3z"/>
		<path d="M165.9,165.6c-4.4,2.2-8.8,4.3-13.2,6.5c-2.2,1.1-0.3,4.3,1.9,3.2c4.4-2.2,8.8-4.3,13.2-6.5
			C170,167.8,168.1,164.6,165.9,165.6z"/>
		<path d="M141.6,177.5c-3.5,1.7-7,3.4-10.6,5.2c-0.7,0.3-1.4,0.7-2.1,1c-0.3-0.1-0.6-0.3-0.9-0.4c-7.1-3.5-14.2-6.9-21.3-10.4
			c-14.2-6.9-28.3-13.9-42.5-20.8c-2.2-1.1-4.1,2.2-1.9,3.2c14.7,7.2,29.5,14.4,44.2,21.6c6.8,3.3,13.6,6.6,20.4,10
			c1.8,0.9,2.7,0.6,4.5-0.3c4-1.9,7.9-3.9,11.9-5.8C145.7,179.7,143.8,176.5,141.6,177.5z"/>
	</g>
</g>
<g id="Glyph" class="st0">
	<g class="st1">
		<path d="M127.8,19C67.4,19,18.3,68,18.3,128.5S67.4,238,127.8,238s109.5-49,109.5-109.5S188.3,19,127.8,19z M154.3,175.5
			c-4.8,2.4-9.7,4.7-14.5,7.1c-2.9,1.4-9,6.2-12.3,4.5c-20.7-10.6-41.4-21.2-62-31.8c-2.2-1.1-0.3-4.3,1.9-3.2
			c8.7,4.4,17.3,8.9,26,13.3c11.8,6,23.5,12.1,35.3,18.1c0.1,0.1,0.2,0.1,0.3,0.2c0.2-0.1,0.4-0.2,0.7-0.3c3.2-1.6,6.4-3.1,9.6-4.7
			c4.5-2.2,8.9-4.4,13.4-6.5c9.2-4.5,18.5-9,27.7-13.5c3.6-1.8,7.2-3.5,10.8-5.3c0.5-0.2,1-0.5,1.5-0.7c0-0.2,0-0.5,0-0.8
			c0-5.1,0-10.3,0-15.4c-1.3,0.7-2.7,1.3-4,2c-13.6,6.6-27.1,13.3-40.7,19.9c-5.2,2.5-10.4,5.1-15.5,7.6c-2.1,1-3.3,1.8-5.4,0.7
			c-21-10.5-42-21-63-31.6c-0.6-0.3-0.9-1-0.9-1.6c0-6.4,0-12.8,0-19.3c0-0.4,1.2-1.8,1.7-1.8L129,82l65.6,30.9L129,145l-10.8-5.3
			l-14.1-6.9l-15.2-7.4l-8.2-4l-13.9-6.8c0,5.5,0,11,0,16.5c0,0.4,0,0.8,0,1c1.1,0.6,2.2,1.1,3.3,1.7c13,6.5,26,13,39.1,19.6
			c5.6,2.8,11.2,5.6,16.9,8.5c1,0.5,1.9,1,2.9,1.4c0.2-0.1,0.3-0.2,0.6-0.3c21.4-10.4,42.7-20.9,64.1-31.3c0.4-0.2,0.8-0.2,1.2-0.2
			c0.8,0.1,1.5,0.6,1.6,1.6c0.1,0.2,0.1,0.5,0,0.7c0,6.6,0,13.3,0,19.9c0,0.6-0.3,1.3-0.9,1.6c-4.9,2.4-9.8,4.8-14.7,7.2
			C172,166.9,163.1,171.2,154.3,175.5z M193.1,201.3c-1.3,0-2.4-1.1-2.4-2.4c0-1.3,1.1-2.4,2.4-2.4c1.3,0,2.4,1.1,2.4,2.4
			C195.5,200.2,194.4,201.3,193.1,201.3z M197.5,195.4c-1.7,1.8-4.3-0.9-2.7-2.7c16.6-17.6,25.7-40.5,25.9-64.7c0-2.4,3.8-2.4,3.8,0
			C224.3,153.2,214.8,177,197.5,195.4z"/>
	</g>
</g>
</svg>
