<?xml version="1.0" encoding="utf-8"?>
<!-- Generator: Adobe Illustrator 23.0.3, SVG Export Plug-In . SVG Version: 6.00 Build 0)  -->
<svg version="1.1" xmlns="http://www.w3.org/2000/svg" xmlns:xlink="http://www.w3.org/1999/xlink" x="0px" y="0px"
	 viewBox="0 0 256 256" style="enable-background:new 0 0 256 256;" xml:space="preserve">
<style type="text/css">
	.st0{display:none;}
	.st1{display:inline;}
</style>
<g id="SOURCE" class="st0">
	<g class="st1">
		<g>
			<path d="M140.9,158.7c0-5.6,0-11.2,0-16.9c0-5.3,0.9-11.5-0.2-16.7c-2.5-12.3-16.1-10-25.5-10c-26.5,0-53,0-79.6,0
				c-15.8,0-12.5,19-12.5,29.5c0,9.6,0,19.3,0,28.9c0,11.9,0,23.9,0,35.8c0,6-1.2,13.4,2.3,18.7c2.8,4.2,7.6,4.8,12.1,4.8
				c27.3,0,54.5,0,81.8,0c3.2,0,6.3,0,9.5,0c6.9,0,12-5.7,12-12.4c0-11.7,0-23.5,0-35.2c0-2.4-3.8-2.4-3.8,0c0,11.7,0,23.5,0,35.2
				c0,6.9-5.5,8.7-11.1,8.7c-5.1,0-10.3,0-15.4,0c-25.2,0-50.4,0-75.6,0c-10.2,0-8.1-13.1-8.1-19.7c0-4.9,0-9.9,0-14.8
				c0-12.1,0-24.2,0-36.2c0-10.4,0-20.9,0-31.3c0-7.8,7.2-8.1,12.8-8.1c5.7,0,11.4,0,17.1,0c22,0,44.1,0,66.1,0c2,0,4,0,6,0
				c7.1,0,8.3,6.2,8.3,11.7c0,9.4,0,18.8,0,28.2C137.1,161.2,140.9,161.2,140.9,158.7L140.9,158.7z"/>
		</g>
	</g>
	<g class="st1">
		<g>
			<path d="M92.9,168.7c0.5-7.9,7.2-8.1,13.2-8.1c6.1,0,12.3,0,18.4,0c4.6,0,9.1,0,13.7,0c8.7,0,9,7.6,9,14.1
				c0,7.9-7.5,8.1-13.2,8.1c-6.1,0-12.3,0-18.4,0c-4.6,0-9.1,0-13.7,0C93.1,182.8,92.9,175.2,92.9,168.7c0-2.4-3.8-2.4-3.8,0
				c0,7.9,0.7,15.8,10,17.7c4.8,1,10.5,0.2,15.4,0.2c7.3,0,14.6,0,21.9,0c6.9,0,12.8-2.7,14.3-10c1.4-6.7,0-16.3-7.3-18.9
				c-4.9-1.7-11-0.9-16.1-0.9c-7.5,0-15.1,0-22.6,0c-5.9,0-12.4,0.9-14.7,7.5c-0.5,1.5-0.7,2.8-0.9,4.4
				C89,171.1,92.7,171.1,92.9,168.7z"/>
		</g>
	</g>
	<g class="st1">
		<g>
			<path d="M41.2,116.7c0-4.5,0-9,0-13.5c0-5.9,3.1-9.3,8.7-9.3c10.3,0,20.6,0,30.9,0c10.5,0,21,0,31.5,0c5.2,0,9.1,2.4,9.1,8.5
				c0,4.7,0,9.3,0,14c0,2.4,3.8,2.4,3.8,0c0-8.9,2.6-26.2-10.9-26.2c-11.2,0-22.3,0-33.5,0c-10.9,0-21.8,0-32.7,0
				c-13.4,0-10.7,17.8-10.7,26.6C37.5,119.1,41.2,119.1,41.2,116.7L41.2,116.7z"/>
		</g>
	</g>
	<g class="st1">
		<g>
			<path d="M41.2,103.2c0-7.3-3.3-26.6,7.7-26.6c10.7,0,21.3,0,32,0c10.9,0,21.8,0,32.6,0c6.4,0,8,5.5,8,11c0,5.2,0,10.3,0,15.5
				c0,2.4,3.8,2.4,3.8,0c0-8.6,3.5-30.2-10.3-30.2c-11,0-22.1,0-33.1,0c-11.3,0-22.7,0-34,0c-14,0-10.4,21.6-10.4,30.4
				C37.5,105.6,41.2,105.6,41.2,103.2L41.2,103.2z"/>
		</g>
	</g>
	<g class="st1">
		<g>
			<path d="M52.6,103.9c18.7,0,37.5,0,56.2,0c2.4,0,2.4-3.8,0-3.8c-18.8,0-37.5,0-56.2,0C50.2,100.1,50.2,103.9,52.6,103.9
				L52.6,103.9z"/>
		</g>
	</g>
	<g class="st1">
		<g>
			<path d="M52.6,84.4c18.7,0,37.5,0,56.2,0c2.4,0,2.4-3.8,0-3.8c-18.8,0-37.5,0-56.2,0C50.2,80.6,50.2,84.4,52.6,84.4L52.6,84.4z"
				/>
		</g>
	</g>
	<g class="st1">
		<g>
			<path d="M134.2,118.2c5.5-26.3,11-52.7,16.6-79c-0.6,0.5-1.2,0.9-1.8,1.4c9.8,0,19.6,0,29.4,0c-0.6-0.8-1.2-1.6-1.8-2.4
				c-5.5,26.4-11,52.7-16.5,79.1c-0.4,1.7,1.2,2.8,2.8,2.1c6.8-2.9,13.5-6.3,20.5-8.6c2.7-0.9,3.4,3.2,4.1,5
				c0.3,0.8-3.2,2.2-4.2,2.7c-4.2,1.8-8.5,3.6-12.7,5.5c-3.8,1.6-7.6,3.2-11.3,4.9c-2.1,0.9-2,2.6-2.5,4.7c-1.7,8-3.3,16-5,24
				c-0.2,1.2,0.5,2.4,1.8,2.4c24.3,0,48.6,0,72.9,0c-0.6-0.8-1.2-1.6-1.8-2.4c-1.7,8-3.3,16-5,23.9c0.6-0.5,1.2-0.9,1.8-1.4
				c-25.1,0-50.2,0-75.3,0c-2.4,0-2.4,3.8,0,3.8c25.1,0,50.2,0,75.3,0c0.8,0,1.6-0.6,1.8-1.4c1.7-8,3.3-16,5-23.9
				c0.2-1.2-0.5-2.4-1.8-2.4c-24.3,0-48.6,0-72.9,0c0.6,0.8,1.2,1.6,1.8,2.4c1.8-8.7,3.6-17.4,5.5-26.1c0.4-2-1.5,0.4,0.3-0.3
				c1.8-0.8,3.6-1.5,5.4-2.3c5.3-2.3,10.6-4.5,15.9-6.8c3.5-1.5,7.2-2.6,8.7-6.5c1-2.7-2.7-9.1-5.6-9.4c-4.1-0.4-8.4,2.3-12.1,3.8
				c-4.1,1.8-8.3,3.5-12.4,5.3c0.9,0.7,1.8,1.4,2.8,2.1c5.5-26.4,11-52.7,16.5-79.1c0.2-1.2-0.5-2.4-1.8-2.4c-9.8,0-19.6,0-29.4,0
				c-0.8,0-1.6,0.6-1.8,1.4c-5.5,26.3-11,52.7-16.6,79C130.1,119.6,133.7,120.6,134.2,118.2L134.2,118.2z"/>
		</g>
	</g>
</g>
<g id="Line_Expand">
	<g>
		<path d="M26.9,195.8c0-8.2,0-16.3,0-24.5c0-2.4-3.8-2.4-3.8,0c0,8.2,0,16.3,0,24.5C23.1,198.2,26.9,198.2,26.9,195.8z"/>
		<path d="M47.3,232.9c15.4,0,30.7,0,46.1,0c11.5,0,23,0,34.5,0c6.4,0,11.5-3.6,12.8-10c1-4.9,0.2-10.8,0.2-15.8c0-7,0-14,0-21
			c4.9-1,8.7-3.9,9.8-9.6c1.4-6.7,0-16.3-7.3-18.9c-0.8-0.3-1.7-0.5-2.5-0.6c0-5,0-10.1,0-15.1c0-5.3,0.9-11.5-0.2-16.7
			c-0.9-4.4-3.2-6.9-6.2-8.4c5.3-25.4,10.6-50.8,16-76.2c8.5,0,17,0,25.6,0c-0.8,4-1.7,8-2.5,11.9c-0.5,2.4,3.1,3.4,3.6,1
			c1-4.8,2-9.5,3-14.3c0.2-1.2-0.5-2.4-1.8-2.4c-9.8,0-19.6,0-29.4,0c-0.8,0-1.6,0.6-1.8,1.4c-5.4,25.8-10.8,51.6-16.2,77.4
			c-1.8-0.4-3.7-0.6-5.7-0.6c0.1-3.5,0.4-8,0-12.2c0-8.8,3.4-30-10.3-30c-11,0-22.1,0-33.1,0c-11.3,0-22.7,0-34,0
			c-13.7,0-10.5,20.8-10.4,29.9c-0.4,4.3-0.1,8.9,0,12.5c-0.6,0-1.2,0-1.8,0c-8.7,0-12.5,6.7-12.5,14.5c0,8.3,0,16.6,0,24.9
			c0,2.4,3.8,2.4,3.8,0c0-5.9,0-11.8,0-17.6c0-6.5-1.7-18,8.2-18c9.6,0,19.2,0,28.9,0c15.8,0,31.7,0,47.5,0c5,0,10,0,15,0
			c5.7,0,10.7,2.4,10.7,9.1c0,9.5,0,19.1,0,28.7c-3.3-0.1-6.7,0.2-9.8,0.2c-7.5,0-15.1,0-22.6,0c-5.9,0-12.4,0.9-14.7,7.5
			c-0.5,1.5-0.7,2.8-0.9,4.4c0,7.9,0.7,15.8,10,17.7c4.8,1,10.5,0.2,15.4,0.2c7.3,0,14.6,0,21.9,0c0.2,0,0.4,0,0.7,0
			c0,11.3,0,22.6,0,33.9c0,6.9-5.5,8.7-11.1,8.7c-5.1,0-10.3,0-15.4,0c-25.2,0-50.4,0-75.6,0c-4.7,0-7.8-3.7-8.1-8.1
			c-0.2-2.4-3.9-2.4-3.8,0C24,234.6,37.6,232.9,47.3,232.9z M48.9,76.5c10.7,0,21.3,0,32,0c10.9,0,21.8,0,32.6,0c6.4,0,8,5.5,8,11
			c0,1.7,0,3.5,0,5.2c-1.6-1.6-3.9-2.6-7.2-2.6c-11.2,0-22.3,0-33.5,0c-10.9,0-21.8,0-32.7,0c-3.4,0-5.8,1.2-7.4,3
			C40.6,85.2,41.6,76.5,48.9,76.5z M41.2,115.1c0-4,0-8,0-11.9c0-5.9,3.1-9.3,8.7-9.3c10.3,0,20.6,0,30.9,0c10.5,0,21,0,31.5,0
			c5.2,0,9.1,2.4,9.1,8.5c0,0.2,0,0.5,0,0.7c0,4,0,8,0,12c-2.2,0-4.3,0.1-6.2,0.1C90.6,115.1,65.9,115.1,41.2,115.1z M134,182.8
			c-6.1,0-12.3,0-18.4,0c-4.6,0-9.1,0-13.7,0c-8.7,0-9-7.6-9-14.1c0.5-7.9,7.2-8.1,13.2-8.1c6.1,0,12.3,0,18.4,0c4.6,0,9.1,0,13.7,0
			c8.7,0,9,7.6,9,14.1C147.1,182.6,139.7,182.8,134,182.8z"/>
		<path d="M108.9,100.1c-18.8,0-37.5,0-56.2,0c-2.4,0-2.4,3.8,0,3.8c18.7,0,37.5,0,56.2,0C111.3,103.9,111.3,100.1,108.9,100.1z"/>
		<path d="M52.6,84.4c18.7,0,37.5,0,56.2,0c2.4,0,2.4-3.8,0-3.8c-18.8,0-37.5,0-56.2,0C50.2,80.6,50.2,84.4,52.6,84.4z"/>
		<path d="M171,64.6c-1.1,5.3-2.2,10.5-3.3,15.8c-0.5,2.4,3.1,3.4,3.6,1c1.1-5.3,2.2-10.5,3.3-15.8C175.1,63.2,171.5,62.2,171,64.6z
			"/>
		<path d="M226.3,156.1c-23.5,0-47,0-70.5,0c1.7-7.9,3.3-15.8,5-23.7c0-0.1,0-0.2,0-0.2c0.1,0,0.2-0.1,0.3-0.1
			c1.8-0.8,3.6-1.5,5.4-2.3c5.3-2.3,10.6-4.5,15.9-6.8c3.5-1.5,7.2-2.6,8.7-6.5c1-2.7-2.7-9.1-5.6-9.4c-4.1-0.4-8.4,2.3-12.1,3.8
			c-3,1.3-5.9,2.5-8.9,3.8c1.5-7.4,3.1-14.8,4.6-22.2c0.5-2.4-3.1-3.4-3.6-1c-1.8,8.6-3.6,17.2-5.4,25.8c-0.4,1.7,1.2,2.8,2.8,2.1
			c6.8-2.9,13.5-6.3,20.5-8.6c2.7-0.9,3.4,3.2,4.1,5c0.3,0.8-3.2,2.2-4.2,2.7c-4.2,1.8-8.5,3.6-12.7,5.5c-3.8,1.6-7.6,3.2-11.3,4.9
			c-2.1,0.9-2,2.6-2.5,4.7c-1.7,8-3.3,16-5,24c-0.2,1.2,0.5,2.4,1.8,2.4c23.5,0,47,0,70.5,0c-1.4,6.7-2.8,13.5-4.2,20.2
			c-18.3,0-36.7,0-55,0c-2.4,0-2.4,3.8,0,3.8c18.8,0,37.7,0,56.5,0c0.8,0,1.6-0.6,1.8-1.4c1.7-8,3.3-16,5-23.9
			C228.3,157.3,227.5,156.1,226.3,156.1z"/>
	</g>
</g>
<g id="Glyph" class="st0">
	<g class="st1">
		<path d="M80.8,93.9c-10.3,0-20.6,0-30.9,0c-5.6,0-8.7,3.4-8.7,9.3c0,4,0,8,0,11.9c24.7,0,49.4,0,74,0c1.9,0,4.1-0.1,6.2-0.1
			c0-4,0-8,0-12c0-0.2,0-0.5,0-0.7c0-6.1-3.9-8.5-9.1-8.5C101.9,93.9,91.3,93.9,80.8,93.9z M108.9,103.9c-18.8,0-37.5,0-56.2,0
			c-2.4,0-2.4-3.8,0-3.8c18.7,0,37.5,0,56.2,0C111.3,100.1,111.3,103.9,108.9,103.9z"/>
		<path d="M48.2,90.1c10.9,0,21.8,0,32.7,0c11.2,0,22.3,0,33.5,0c3.2,0,5.5,1,7.2,2.6c0-1.7,0-3.5,0-5.2c0-5.5-1.5-11-8-11
			c-10.9,0-21.8,0-32.6,0c-10.7,0-21.3,0-32,0c-7.3,0-8.3,8.7-8.1,16.6C42.4,91.3,44.8,90.1,48.2,90.1z M52.6,80.6
			c18.7,0,37.5,0,56.2,0c2.4,0,2.4,3.8,0,3.8c-18.8,0-37.5,0-56.2,0C50.2,84.4,50.2,80.6,52.6,80.6z"/>
		<path d="M114.6,186.5c-4.9,0-10.6,0.8-15.4-0.2c-9.3-1.9-10-9.8-10-17.7c0.1-1.6,0.3-2.9,0.9-4.4c2.3-6.6,8.8-7.5,14.7-7.5
			c7.5,0,15.1,0,22.6,0c3.1,0,6.5-0.3,9.8-0.2c0-8.7,0-17.4,0-26.1c0-4.4-0.8-9.2-4.6-11c-0.4,0-0.9-0.2-1.2-0.4
			c-0.7-0.2-1.5-0.3-2.4-0.3c-2,0-4,0-6,0c-22,0-44.1,0-66.1,0c-5.7,0-11.4,0-17.1,0c-5.6,0-12.8,0.3-12.8,8.1c0,10.4,0,20.9,0,31.3
			c0,12.1,0,24.2,0,36.2c0,4.9,0,9.9,0,14.8c0,6.7-2.1,19.7,8.1,19.7c25.2,0,50.4,0,75.6,0c5.1,0,10.3,0,15.4,0
			c5.6,0,11.1-1.8,11.1-8.7c0-11.3,0-22.6,0-33.9c-0.2,0-0.4,0-0.7,0C129.2,186.5,121.9,186.5,114.6,186.5z"/>
		<path d="M153.4,159.8c-1.3,0-2.1-1.2-1.8-2.4c1.7-8,3.3-16,5-24c0.4-2.1,0.4-3.8,2.5-4.7c3.8-1.6,7.6-3.2,11.3-4.9
			c4.2-1.8,8.5-3.6,12.7-5.5c1-0.4,4.5-1.9,4.2-2.7c-0.7-1.7-1.5-5.9-4.1-5c-7,2.3-13.7,5.7-20.5,8.6c-1.5,0.6-3.1-0.4-2.8-2.1
			c5.3-25.6,10.7-51.2,16-76.7c-8.5,0-17,0-25.6,0c-5.3,25.4-10.6,50.8-16,76.2c3,1.4,5.3,4,6.2,8.4c1.1,5.2,0.2,11.4,0.2,16.7
			c0,5,0,10.1,0,15.1c0.9,0.2,1.7,0.4,2.5,0.6c7.4,2.6,8.7,12.2,7.3,18.9c-0.3,1.3-0.7,2.5-1.2,3.5c23.4,0,46.8,0,70.3,0
			c1.4-6.7,2.8-13.5,4.2-20.2C200.5,159.8,176.9,159.8,153.4,159.8z"/>
		<path d="M138.2,160.5c-4.6,0-9.1,0-13.7,0c-6.1,0-12.3,0-18.4,0c-5.9,0-12.6,0.2-13.2,8.1c0,6.6,0.2,14.1,9,14.1
			c4.6,0,9.1,0,13.7,0c6.1,0,12.3,0,18.4,0c5.7,0,13.2-0.2,13.2-8.1C147.1,168.1,146.9,160.5,138.2,160.5z"/>
	</g>
</g>
</svg>
