<?xml version="1.0" encoding="utf-8"?>
<!-- Generator: Adobe Illustrator 23.0.3, SVG Export Plug-In . SVG Version: 6.00 Build 0)  -->
<svg version="1.1" xmlns="http://www.w3.org/2000/svg" xmlns:xlink="http://www.w3.org/1999/xlink" x="0px" y="0px"
	 viewBox="0 0 256 256" style="enable-background:new 0 0 256 256;" xml:space="preserve">
<style type="text/css">
	.st0{display:none;}
	.st1{display:inline;}
</style>
<g id="SOURCE" class="st0">
	<g class="st1">
		<g>
			<path d="M37.3,46.8c9.9,8,19.8,16,29.7,24c1.9,1.5,4.5-1.1,2.7-2.7c-9.9-8-19.8-16-29.7-24C38.1,42.6,35.4,45.3,37.3,46.8
				L37.3,46.8z"/>
		</g>
	</g>
	<g class="st1">
		<g>
			<path d="M39.1,42.2c12.7-0.8,25.4-1.7,38.1-2.5c2.4-0.2,2.4-3.9,0-3.8c-12.7,0.8-25.4,1.7-38.1,2.5
				C36.7,38.6,36.7,42.4,39.1,42.2L39.1,42.2z"/>
		</g>
	</g>
	<g class="st1">
		<g>
			<path d="M30.4,81c12.9-3.4,25.7-6.9,38.6-10.3c2.3-0.6,1.3-4.2-1-3.6c-12.9,3.4-25.7,6.9-38.6,10.3C27.1,78,28,81.6,30.4,81
				L30.4,81z"/>
		</g>
	</g>
	<g class="st1">
		<g>
			<path d="M28.8,40c2.5-4.9,9.6-2.3,8.1,3c-0.7,2.4-3.4,3.2-5.5,2.7c-2.7-0.7-3.3-3.8-2.4-6.1c0.9-2.3-2.8-3.2-3.6-1
				c-1.5,4,0.2,8.4,4,10.3c4,2,8.8,0,10.8-3.8c2-4,0-8.8-3.8-10.8c-4-2-8.8,0-10.8,3.8C24.4,40.3,27.7,42.2,28.8,40z"/>
		</g>
	</g>
	<g class="st1">
		<g>
			<path d="M19,79.9c0.3-5.6,8.4-5.6,8.7,0C28,85.4,19.3,85.4,19,79.9c-0.1-2.4-3.9-2.4-3.8,0c0.2,4.6,3.5,7.8,8.1,8.1
				c4.6,0.2,7.9-3.9,8.1-8.1c0.2-4.6-3.9-7.9-8.1-8.1c-4.6-0.2-7.9,3.9-8.1,8.1C15.2,82.3,18.9,82.3,19,79.9z"/>
		</g>
	</g>
	<g class="st1">
		<g>
			<path d="M78.9,35.8c0.3-5.6,8.4-5.6,8.7,0C87.9,41.4,79.2,41.4,78.9,35.8c-0.1-2.4-3.9-2.4-3.8,0c0.2,4.6,3.5,7.8,8.1,8.1
				c4.6,0.2,7.9-3.9,8.1-8.1c0.2-4.6-3.9-7.9-8.1-8.1c-4.6-0.2-7.9,3.9-8.1,8.1C75.1,38.2,78.8,38.2,78.9,35.8z"/>
		</g>
	</g>
	<g class="st1">
		<g>
			<path d="M216.1,218.6c-8.2-9.7-16.5-19.4-24.7-29.1c-1.6-1.8-4.2,0.8-2.7,2.7c8.2,9.7,16.5,19.4,24.7,29.1
				C215,223.1,217.6,220.4,216.1,218.6L216.1,218.6z"/>
		</g>
	</g>
	<g class="st1">
		<g>
			<path d="M213.3,223c-12.6-1.5-25.3-3.1-37.9-4.6c-2.4-0.3-2.4,3.5,0,3.8c12.6,1.5,25.3,3.1,37.9,4.6
				C215.7,227.1,215.7,223.3,213.3,223L213.3,223z"/>
		</g>
	</g>
	<g class="st1">
		<g>
			<path d="M229.6,186.5c-13.3,1-26.6,2-39.8,3c-2.4,0.2-2.4,3.9,0,3.8c13.3-1,26.6-2,39.8-3C232,190.1,232,186.4,229.6,186.5
				L229.6,186.5z"/>
		</g>
	</g>
	<g class="st1">
		<g>
			<path d="M223.2,227.4c-3.4,4.5-9.9-0.5-7-5.2c1.3-2.1,4.2-2.1,6.1-0.9C224.4,222.6,224.4,225.5,223.2,227.4
				c-1.3,2.1,2,3.9,3.2,1.9c2.4-3.9,1.3-8.5-2.2-11.2c-3.7-2.8-8.7-1.1-11.2,2.2c-2.8,3.7-1.1,8.7,2.2,11.2
				c3.7,2.8,8.7,1.1,11.2-2.2C227.9,227.3,224.6,225.5,223.2,227.4z"/>
		</g>
	</g>
	<g class="st1">
		<g>
			<path d="M240.4,189.6c-1.3,5.3-8.7,4.4-8.6-1.1c0.1-2.5,2.6-3.9,4.8-3.8c2.9,0.1,4.1,3.1,3.7,5.5c-0.3,2.4,3.4,2.4,3.8,0
				c0.6-4.3-2.2-8-6.3-9.1c-4.4-1.1-8.5,2.1-9.6,6.3c-1.1,4.4,2.1,8.5,6.3,9.6c4.4,1.1,8.5-2.1,9.6-6.3
				C244.6,188.3,241,187.3,240.4,189.6z"/>
		</g>
	</g>
	<g class="st1">
		<g>
			<path d="M173.3,221.8c-1.3,5.3-8.7,4.4-8.6-1.1c0.1-2.5,2.6-3.9,4.8-3.8c2.9,0.1,4.1,3.1,3.7,5.5c-0.3,2.4,3.4,2.4,3.8,0
				c0.6-4.3-2.2-8-6.3-9.1c-4.4-1.1-8.5,2.1-9.6,6.3c-1.1,4.4,2.1,8.5,6.3,9.6c4.4,1.1,8.5-2.1,9.6-6.3
				C177.5,220.4,173.9,219.4,173.3,221.8z"/>
		</g>
	</g>
	<g class="st1">
		<g>
			<path d="M199.7,164.8c-6.5,23.1-22,42.3-43.1,53.5c-21.4,11.4-47.1,12.4-69.7,4.2c-45.7-16.7-67.4-70.7-48.2-114.8
				c15.5-35.4,53.9-55.7,91.8-50c2.4,0.4,3.4-3.3,1-3.6c-45-6.8-88.4,20.7-100.7,64.7c-11.9,42.4,10.9,88.9,51.4,105.9
				c23.8,9.9,50.6,9.2,73.8-1.8c23.2-11,40.4-32.4,47.3-57C204,163.4,200.3,162.4,199.7,164.8L199.7,164.8z"/>
		</g>
	</g>
	<g class="st1">
		<g>
			<path d="M115.2,170.5c0,19.1,0,38.2,0,57.3c0,2.4,3.8,2.4,3.8,0c0-19.1,0-38.2,0-57.3C118.9,168.1,115.2,168.1,115.2,170.5
				L115.2,170.5z"/>
		</g>
	</g>
	<g class="st1">
		<g>
			<path d="M115.2,70.5c0,28.3,0,56.6,0,84.8c0,2.4,3.8,2.4,3.8,0c0-28.3,0-56.6,0-84.8C118.9,68.1,115.2,68.1,115.2,70.5
				L115.2,70.5z"/>
		</g>
	</g>
	<g class="st1">
		<g>
			<path d="M131.4,142.3c-33.7,0-67.4,0-101.2,0c-2.4,0-2.4,3.8,0,3.8c33.7,0,67.4,0,101.2,0C133.8,146,133.8,142.3,131.4,142.3
				L131.4,142.3z"/>
		</g>
	</g>
	<g class="st1">
		<g>
			<path d="M88.1,59.3c-4.3,5.7-7.3,12.5-10,19c-7.5,18.1-10.8,37.7-11.6,57.2c-0.9,22,2.3,44,9.6,64.8c3.1,8.8,6.8,17.8,11.9,25.6
				c1.3,2,4.6,0.1,3.2-1.9c-4.8-7.2-8.2-15.5-11.2-23.6c-7.6-20.8-10.5-42.8-9.8-64.9c0.6-18.9,4.1-37.7,11.1-55.3
				c2.6-6.5,5.7-13.4,9.9-19C92.8,59.3,89.6,57.4,88.1,59.3L88.1,59.3z"/>
		</g>
	</g>
	<g class="st1">
		<g>
			<path d="M156.3,190.3c-3.4,11.6-7.8,23.6-14.5,33.7c-1.3,2,1.9,3.9,3.2,1.9c6.9-10.4,11.3-22.8,14.8-34.6
				C160.6,189,157,188,156.3,190.3L156.3,190.3z"/>
		</g>
	</g>
	<g class="st1">
		<g>
			<path d="M154.1,186.8c-27.7,5.5-56.5,4.8-83.7-2.9c-11.8-3.3-24.1-7.8-34.4-14.6c-2-1.3-3.9,1.9-1.9,3.2
				c11,7.2,24.1,11.9,36.6,15.4c27.3,7.7,56.7,8.1,84.4,2.5C157.4,189.9,156.4,186.3,154.1,186.8L154.1,186.8z"/>
		</g>
	</g>
	<g class="st1">
		<g>
			<path d="M198.7,169.2c-9.4,7.1-21.3,11.2-32.4,14.5c-2.3,0.7-1.3,4.3,1,3.6c11.4-3.4,23.7-7.7,33.3-14.9
				C202.5,171,200.7,167.8,198.7,169.2L198.7,169.2z"/>
		</g>
	</g>
	<g class="st1">
		<g>
			<path d="M130.6,90.4c-23.4-1.7-46.8,1-69.1,8.4c-9.6,3.2-19.5,7.1-27.9,12.7c-2,1.3-0.1,4.6,1.9,3.2c7.9-5.2,17-8.8,25.9-12
				c22.2-7.8,45.8-10.3,69.2-8.6C133,94.3,133,90.5,130.6,90.4L130.6,90.4z"/>
		</g>
	</g>
	<g class="st1">
		<g>
			<path d="M212,117.3c-5.7-4.8-11-7.8-18.3-9.6c0,1.2,0,2.4,0,3.6c7.7-2.1,13.1-5.9,17.9-12.2c6.3-8.2,6.4-18.1,1.9-27.2
				c-8.9-18-30.9-17.5-47.9-17.5c0.6,0.6,1.3,1.3,1.9,1.9c0-7.3,2.9-21.4-8.1-21.4c-5,0-8.9,2.2-8.9,7.7c0,4.6,0,9.1,0,13.7
				c0.6-0.6,1.3-1.3,1.9-1.9c-2.6,0-5.2,0-7.9,0c0.6,0.6,1.3,1.3,1.9,1.9c0-7.3,2.9-21.4-8.1-21.4c-5,0-8.9,2.2-8.9,7.7
				c0,4.6,0,9.1,0,13.7c0.6-0.6,1.3-1.3,1.9-1.9c-7.4,0-22.1-3.1-22.1,8.1c0,5,2.2,8.9,7.7,8.9c4.8,0,9.6,0,14.4,0
				c-0.6-0.6-1.3-1.3-1.9-1.9c0.1,28.9,0.1,57.9,0,86.8c0.6-0.6,1.3-1.3,1.9-1.9c-7.4,0-22.1-3.1-22.1,8.1c0,5,2.2,8.9,7.7,8.9
				c4.8,0,9.6,0,14.3,0c-0.6-0.6-1.3-1.3-1.9-1.9c0,7.3-3,21.7,8.1,21.7c5,0,8.9-2.2,8.9-7.7c0-4.7,0-9.3,0-14
				c-0.6,0.6-1.3,1.3-1.9,1.9c2.6,0,5.2,0,7.9,0c-0.6-0.6-1.3-1.3-1.9-1.9c0,7.3-3,21.7,8.1,21.7c5,0,8.9-2.2,8.9-7.7
				c0-4.7,0-9.3,0-14c-0.6,0.6-1.3,1.3-1.9,1.9c15.3,0,31.3-0.3,44.2-9.6C224.7,151.1,226,129.2,212,117.3c-1.8-1.6-4.5,1.1-2.7,2.7
				c6.6,5.6,9.3,12.8,8.7,21.3c-0.6,8.9-6.9,15.7-14.3,20c-11.5,6.7-25.3,6.5-38.2,6.5c-1,0-1.9,0.9-1.9,1.9
				c0,4.1,2.4,17.9-4.3,17.9c-7.9,0-5.2-12.8-5.2-17.9c0-1-0.9-1.9-1.9-1.9c-2.6,0-5.2,0-7.9,0c-1,0-1.9,0.9-1.9,1.9
				c0,4.1,2.4,17.9-4.3,17.9c-7.9,0-5.2-12.8-5.2-17.9c0-1-0.9-1.9-1.9-1.9c-4.2,0-18.3,2.5-18.3-4.3c0-7.9,13.1-5.2,18.3-5.2
				c1,0,1.9-0.9,1.9-1.9c0.1-28.9,0.1-57.9,0-86.8c0-1-0.9-1.9-1.9-1.9c-4.2,0-18.3,2.5-18.3-4.3c0-7.9,13.1-5.2,18.3-5.2
				c1,0,1.9-0.9,1.9-1.9c0-4.1-2.4-17.7,4.3-17.7c7.8,0,5.2,12.5,5.2,17.7c0,1,0.9,1.9,1.9,1.9c2.6,0,5.2,0,7.9,0
				c1,0,1.9-0.9,1.9-1.9c0-4.1-2.4-17.7,4.3-17.7c7.8,0,5.2,12.5,5.2,17.7c0,1,0.9,1.9,1.9,1.9c14,0,29.9-0.9,40.5,9.8
				c7,7.1,9.1,18.2,4.1,26.9c-3.9,6.7-10.2,11-17.4,12.9c-1.8,0.5-1.8,3.2,0,3.6c6.7,1.7,11.5,4.3,16.7,8.6
				C211.2,121.5,213.9,118.8,212,117.3z"/>
			<path d="M174.4,66.7c10.1,5,12.4,16.2,9.2,26.4c-3.5,11.1-16.4,12.3-26,12.3c0.6,0.6,1.3,1.3,1.9,1.9c0-14.9,0-29.7,0-44.6
				c-0.6,0.6-1.3,1.3-1.9,1.9c5.8,0,11.8,0.1,17.2,2.4c2.2,0.9,3.2-2.7,1-3.6c-5.7-2.4-12.2-2.5-18.2-2.5c-1,0-1.9,0.9-1.9,1.9
				c0,14.9,0,29.7,0,44.6c0,1,0.9,1.9,1.9,1.9c11.1-0.1,24.5-1.9,29.1-13.9c4.6-11.8,1.3-26-10.5-31.8
				C174.1,62.3,172.2,65.6,174.4,66.7z"/>
			<path d="M186,150.9c-3.4,5.8-8.5,8.9-15,10.3c-6.4,1.3-11.7-0.6-11.6-7.7c0.1-3.3,0.1-6.7,0.1-10c0-9.9,0-19.8,0-29.7
				c-0.6,0.6-1.3,1.3-1.9,1.9c8,0,17.1,0,23.6,5.3C189.8,127.9,190.6,141.6,186,150.9c-1.1,2.2,2.2,4.1,3.2,1.9
				c4.8-9.8,4.6-22.8-2.5-31.5c-7.2-8.8-18.5-9.4-29.1-9.4c-1,0-1.9,0.9-1.9,1.9c0,11.8,0,23.7,0,35.5c0,5.4-0.7,12.4,5.4,14.9
				c10.3,4.3,22.9-2.5,28.1-11.4C190.5,150.7,187.2,148.8,186,150.9z"/>
		</g>
	</g>
</g>
<g id="Line_Expand">
	<g>
		<path d="M237.7,181c-4.1-1-8.1,1.8-9.4,5.6c-11.8,0.9-23.6,1.8-35.4,2.6c4.5-7.3,8-15.2,10.3-23.5c0,0,0-0.1,0-0.1
			c2.2-1.1,4.4-2.3,6.5-3.8c14.9-10.7,16.3-32.6,2.2-44.5c-4.2-3.5-8.2-6.1-12.9-7.9c5-2.2,8.9-5.6,12.5-10.3
			c6.3-8.2,6.4-18.1,1.9-27.2c-8.5-17.3-29.2-17.6-46-17.5c0.3-7.6,2-19.5-8.1-19.5c-5,0-8.9,2.2-8.9,7.7c0,3.9,0,7.9,0,11.8
			c-1.4,0-2.7,0-4.1,0c0.3-7.6,2-19.5-8.1-19.5c-5,0-8.9,2.2-8.9,7.7c0,3.7,0,7.5,0,11.2c-21.6-2.7-42.7,2.4-60.1,13.4
			C69,67,68.6,67,68.2,67C59,59.5,49.7,52,40.4,44.5c0.3-0.8,0.5-1.6,0.5-2.4c11.8-0.8,23.6-1.5,35.4-2.3c1.4,2.4,3.9,3.9,6.9,4.1
			c4.6,0.2,7.9-3.9,8.1-8.1c0.2-4.6-3.9-7.9-8.1-8.1c-4.4-0.2-7.5,3.5-8,7.5c0,0.2-0.1,0.4-0.1,0.6c0,0.1,0,0.2,0,0.3
			c-11.7,0.8-23.4,1.5-35,2.3c-0.8-1.7-2.1-3.2-3.9-4c-4-2-8.8,0-10.8,3.8c-0.1,0.1-0.1,0.2-0.1,0.3c0,0,0,0.1-0.1,0.1
			c-1.5,4,0.2,8.4,4,10.3c3,1.5,6.5,0.8,8.9-1.4c8.5,6.9,17,13.8,25.5,20.6C52.8,71.1,41.9,74,31,76.9c-1.2-3-4.4-5-7.6-5.2
			c-4.4-0.2-7.5,3.5-8,7.5c0,0.2-0.1,0.4-0.1,0.6c0,0.2,0,0.4,0.1,0.6c0.5,4.3,3.6,7.3,8,7.5c4.2,0.2,7.4-3.3,8-7.2
			c10-2.7,20.1-5.4,30.1-8.1c-14.4,11.4-25.4,27.2-30.7,46.1c-11.9,42.4,10.9,88.9,51.4,105.9c23.8,9.9,50.6,9.2,73.8-1.8
			c1.7-0.8,3.4-1.7,5-2.6c-0.6,4.1,2.4,7.9,6.4,8.9c4.4,1.1,8.5-2.1,9.6-6.3c0-0.2,0.1-0.3,0.1-0.5c11.6,1.4,23.3,2.8,34.9,4.3
			c0.5,1.9,1.7,3.7,3.3,4.9c3.5,2.7,8.3,1.2,10.9-1.8c0.1-0.1,0.2-0.2,0.3-0.4c0.1-0.1,0.2-0.3,0.2-0.4c2.1-3.8,0.9-8.1-2.5-10.8
			c-2.7-2-6-1.7-8.6-0.1c-7.1-8.4-14.2-16.7-21.3-25.1c11.3-0.8,22.6-1.7,33.9-2.5c0.6,3.1,3.2,5.7,6.3,6.5c4.4,1.1,8.5-2.1,9.6-6.3
			c0-0.2,0.1-0.3,0.1-0.5c0,0,0,0,0,0C244.6,185.8,241.9,182.1,237.7,181z M198.1,169.7c-9,6.6-20.1,10.6-30.7,13.8c0-4,0-8,0-12
			c10.6,0,21.5-0.4,31.4-3.9C198.6,168.2,198.4,168.9,198.1,169.7z M137.4,38.6c7.8,0,5.2,12.5,5.2,17.7c0,1,0.9,1.9,1.9,1.9
			c2.6,0,5.2,0,7.9,0c1,0,1.9-0.9,1.9-1.9c0-4.1-2.4-17.7,4.3-17.7c7.8,0,5.2,12.5,5.2,17.7c0,1,0.9,1.9,1.9,1.9
			c14,0,29.9-0.9,40.5,9.8c7,7.1,9.1,18.2,4.1,26.9c-3.9,6.7-10.2,11-17.4,12.9c-1.8,0.5-1.8,3.2,0,3.6c6.7,1.7,11.5,4.3,16.7,8.6
			c6.6,5.6,9.3,12.8,8.7,21.3c-0.6,8.9-6.9,15.7-14.3,20c-11.5,6.7-25.3,6.5-38.2,6.5c-1,0-1.9,0.9-1.9,1.9c0,4.1,2.4,17.9-4.3,17.9
			c-7.9,0-5.2-12.8-5.2-17.9c0-1-0.9-1.9-1.9-1.9c-2.6,0-5.2,0-7.9,0c-1,0-1.9,0.9-1.9,1.9c0,4.1,2.4,17.9-4.3,17.9
			c-7.9,0-5.2-12.8-5.2-17.9c0-1-0.9-1.9-1.9-1.9c-4.2,0-18.3,2.5-18.3-4.3c0-7.9,13.1-5.2,18.3-5.2c1,0,1.9-0.9,1.9-1.9
			c0-3.9,0-7.7,0-11.6c0.1-0.4,0.1-0.8,0-1.1c0-24.7,0-49.4,0-74.1c0-1-0.9-1.9-1.9-1.9c-4.2,0-18.3,2.5-18.3-4.3
			c0-7.9,13.1-5.2,18.3-5.2c1,0,1.9-0.9,1.9-1.9C133.1,52.1,130.7,38.6,137.4,38.6z M141.6,224.4c-7.4,2.2-15,3.3-22.7,3.5
			c0,0,0,0,0,0c0-11.2,0-22.5,0-33.7c12-0.1,24-1.4,35.8-3.7c0.4,0.2,0.9,0.4,1.4,0.5c-3.4,11.4-7.7,23.1-14.2,33.1
			C141.7,224.1,141.7,224.3,141.6,224.4z M91.3,223.9c-4.7-7.2-8.2-15.5-11.1-23.6c-1.3-3.6-2.5-7.3-3.6-11
			c12.6,3,25.5,4.5,38.5,4.7c0,11.2,0,22.5,0,33.7c0,0,0,0,0,0C107.1,227.6,99.1,226.3,91.3,223.9z M31.8,146c11.6,0,23.2,0,34.7,0
			c0.2,12.9,1.9,25.7,4.9,38.1c-0.4-0.1-0.7-0.2-1.1-0.3c-11.7-3.3-23.9-7.8-34.1-14.5C33.7,161.9,32.2,154,31.8,146z M91.6,60.7
			c6.3-2,12.8-3.2,19.4-3.7c-1.2,1.3-1.9,3-1.9,5.4c0,4.5,1.7,8.1,6,8.8c0,6.2,0,12.5,0,18.7c-13,0.1-25.9,1.6-38.6,4.6
			c1.4-4.8,3-9.6,4.8-14.3c2.6-6.5,5.7-13.4,9.9-19C91.5,61.1,91.6,60.9,91.6,60.7z M129.4,154.4c-3.1-0.1-6.9-0.5-10.5-0.2
			c0-2.7,0-5.4,0-8.1c3.5,0,7,0,10.5,0C129.4,148.8,129.4,151.6,129.4,154.4z M118.9,93.7c3.5,0,7,0.2,10.5,0.4
			c0,16.1,0,32.1,0,48.2c-3.5,0-7,0-10.5,0C118.9,126.1,118.9,109.9,118.9,93.7z M129.4,71.4c0,6.3,0,12.6,0,18.9
			c-3.5-0.2-7-0.4-10.5-0.4c0-6.2,0-12.3,0-18.5C122.4,71.4,125.9,71.4,129.4,71.4z M115.2,93.7c0,16.2,0,32.4,0,48.6
			c-15,0-29.9,0-44.9,0c0-2.2,0-4.5,0.1-6.7c0.4-12.4,2.1-24.9,5.1-36.9C88.5,95.4,101.8,93.8,115.2,93.7z M70.3,146
			c14.9,0,29.9,0,44.8,0c0,2.9,0,5.8,0,8.7c-3.5,1-6,3.1-6,7.8c0,4.5,1.7,8.1,6,8.8c0,6.3,0,12.7,0,19c-13.3-0.2-26.6-1.9-39.6-5.1
			C72.3,172.4,70.6,159.3,70.3,146z M132.4,189.8c-4.5,0.4-9,0.5-13.5,0.6c0-6.3,0-12.6,0-18.9c3.5,0,6.9,0,10.4,0
			C129,177.5,127.9,186.3,132.4,189.8z M146.3,183.6c0-4,0-8.1,0-12.1c1.4,0,2.7,0,4.1,0c-0.2,4.9-1,11.6,1.1,15.8
			c-2.2,0.4-4.4,0.8-6.7,1.1C145.8,187.2,146.3,185.6,146.3,183.6z M87.6,35.8c0.3,5.6-8.4,5.6-8.7,0C79.2,30.2,87.3,30.2,87.6,35.8
			z M31.4,45.7c-2.6-0.7-3.2-3.6-2.5-5.8c2.6-4.6,9.5-2.1,8,3.2C36.3,45.5,33.5,46.3,31.4,45.7z M19,79.9c0.3-5.6,8.4-5.6,8.7,0
			C28,85.4,19.3,85.4,19,79.9z M85.8,62.8c-3.1,4.9-5.4,10.3-7.6,15.5c-2.3,5.6-4.2,11.4-5.8,17.2c-3.6,0.9-7.3,2-10.9,3.2
			c-7.9,2.6-16,5.8-23.3,9.9c0.1-0.3,0.3-0.7,0.4-1.1C47.9,86.6,65.2,70.9,85.8,62.8z M36.1,114.4c7.8-5,16.6-8.6,25.3-11.6
			c3.3-1.2,6.6-2.2,10-3.1c-2.8,11.7-4.2,23.8-4.7,35.9c-0.1,2.2-0.1,4.5-0.1,6.7c-11.6,0-23.2,0-34.8,0
			C31.6,132.9,33,123.5,36.1,114.4z M38.3,175.1c10,5.8,21.4,9.7,32.3,12.8c0.6,0.2,1.3,0.3,1.9,0.5c1.1,4,2.3,8,3.7,11.9
			c2.6,7.4,5.6,14.9,9.6,21.7C63.4,213.5,46.9,196,38.3,175.1z M147.1,222.5c5.7-9.7,9.6-20.6,12.7-31.2c0,0,0-0.1,0-0.1
			c3-0.3,5.4-1.4,6.6-3.7c0.2,0,0.5,0,0.8-0.1c9.5-2.8,19.7-6.3,28.4-11.6c-7.8,18.1-21.6,33.1-39.2,42.5
			C153.5,219.9,150.4,221.3,147.1,222.5z M190,193.7c7.6,8.9,15.2,17.9,22.8,26.8c-0.5,0.7-0.8,1.5-1,2.3
			c-11.7-1.4-23.4-2.9-35.1-4.3c-0.8-2.4-2.8-4.3-5.4-5.1C178.5,207.8,184.8,201.2,190,193.7z M164.7,220.6c0.1-2.5,2.6-3.9,4.8-3.8
			c2.7,0.1,3.9,2.7,3.8,5.1C171.9,227.1,164.6,226.1,164.7,220.6z M222.3,221.3c2.1,1.3,2.1,4.2,0.9,6.1c-3.4,4.5-9.9-0.5-7-5.2
			C217.5,220.1,220.4,220.1,222.3,221.3z M231.8,188.5c0.1-2.5,2.6-3.9,4.8-3.8c2.7,0.1,3.9,2.7,3.8,5
			C239,194.9,231.6,193.9,231.8,188.5z"/>
		<path d="M157.6,109.1c11.1-0.1,24.5-1.9,29.1-13.9c4.6-11.8,1.3-26-10.5-31.8c-0.1-0.1-0.2-0.1-0.3-0.1c0,0-0.1,0-0.1-0.1
			c-5.7-2.4-12.2-2.5-18.2-2.5c-1,0-1.9,0.9-1.9,1.9c0,14.9,0,29.7,0,44.6C155.8,108.2,156.6,109.1,157.6,109.1z M183.7,93
			c-3.2,10.4-14.8,12.1-24.1,12.3c0-13.6,0-27.2,0-40.8c5.1,0,10.3,0.3,15,2.2C184.5,71.7,186.8,82.9,183.7,93z"/>
		<path d="M161.1,164.2c10.3,4.3,22.9-2.5,28.1-11.4c0.1-0.1,0.1-0.3,0.2-0.4c4.6-9.7,4.3-22.5-2.7-31.1c-7.2-8.8-18.5-9.4-29.1-9.4
			c-1,0-1.9,0.9-1.9,1.9c0,11.8,0,23.7,0,35.5C155.8,154.6,155.1,161.6,161.1,164.2z M186,150.9c-3.4,5.8-8.5,8.9-15,10.3
			c-6.4,1.3-11.7-0.6-11.6-7.7c0.1-3.3,0.1-6.7,0.1-10c0-9.3,0-18.6,0-27.8c7.5,0,15.7,0.4,21.8,5.3
			C189.8,127.9,190.6,141.6,186,150.9z"/>
	</g>
</g>
<g id="Glyph" class="st0">
	<g class="st1">
		<path d="M80.9,27.9c-3.4,0-6.2,2.8-6.2,6.2c0,0.1,0,0.1,0,0.2c-12.6,0.8-25.2,1.6-37.8,2.5c-0.6-0.9-1.5-1.7-2.6-2.2
			c-3.1-1.4-6.8,0-8.2,3.1c-1.4,3.1,0,6.8,3.1,8.2c2,0.9,4.3,0.6,6-0.5c9,7.3,18,14.6,27,21.8c-11.7,2.8-23.4,5.7-35.2,8.5
			c-0.1,0-0.2,0.1-0.3,0.1C25.8,73.6,23.6,72,21,72c-3.4,0-6.2,2.8-6.2,6.2c0,3.4,2.8,6.2,6.2,6.2c3,0,5.6-2.2,6.1-5.1
			c0.3,0.1,0.6,0.1,0.9,0c12.8-3.1,25.7-6.2,38.5-9.4c1-0.3,1.4-1.1,1.3-1.9c0.1-0.5,0-1.1-0.6-1.5c-9.9-8-19.8-16-29.7-24
			c0,0,0,0-0.1,0c0.2-0.6,0.4-1.3,0.4-2c12.3-0.8,24.6-1.6,37-2.4c0.4,0,0.7-0.2,1-0.3c1.1,1.6,3,2.6,5.1,2.6c3.4,0,6.2-2.8,6.2-6.2
			C87.1,30.7,84.4,27.9,80.9,27.9z"/>
	</g>
	<path class="st1" d="M240.2,183.9c-3-0.6-5.9,1.1-6.9,3.8c-0.2-0.1-0.5-0.2-0.8-0.2c-12.6-0.1-25.3-0.2-37.9-0.2
		c-1.3,0-2.5,1.6-1.6,2.8c7.5,10.4,15.1,20.7,22.6,31.1c-0.1,0.1-0.1,0.1-0.2,0.2c-0.5,0.7-0.8,1.6-1,2.4
		c-11.7-1.4-23.4-2.9-35.2-4.3c-0.5-2.4-2.4-4.3-4.9-4.8c-3.4-0.6-6.6,1.6-7.2,4.9c-0.6,3.4,1.6,6.6,4.9,7.2c2.9,0.6,5.8-1,6.9-3.7
		c12,1.5,24,2.9,36,4.4c0.4,0.9,1.1,1.8,2.1,2.4c2.8,2,6.7,1.3,8.6-1.6c2-2.8,1.2-6.7-1.6-8.6c-1.6-1.1-3.6-1.4-5.4-0.8
		c-6.8-9.3-13.6-18.6-20.3-28c11.4,0.1,22.8,0.1,34.3,0.2c0.2,0,0.3,0,0.5,0c0.5,2.4,2.4,4.3,4.9,4.8c3.4,0.6,6.6-1.6,7.2-4.9
		C245.8,187.7,243.6,184.5,240.2,183.9z"/>
	<g class="st1">
		<path d="M154.7,190.5c-11.7,2.3-23.7,3.6-35.8,3.7c0,11.2,0,22.5,0,33.7c0,0,0,0,0,0c7.7-0.1,15.3-1.3,22.7-3.5
			c0-0.1,0.1-0.2,0.2-0.3c6.6-10,10.8-21.7,14.2-33.1C155.6,190.8,155.1,190.7,154.7,190.5z"/>
		<path d="M72.5,188.4c-0.6-0.2-1.3-0.3-1.9-0.5c-10.9-3.1-22.3-7-32.3-12.8c8.6,20.9,25.1,38.4,47.4,46.9c-3.9-6.8-7-14.4-9.6-21.7
			C74.8,196.4,73.6,192.4,72.5,188.4z"/>
		<path d="M66.6,135.5c0.5-12,1.9-24.1,4.7-35.9c-3.4,0.9-6.7,1.9-10,3.1c-8.7,3-17.5,6.6-25.3,11.6c-3.1,9.1-4.5,18.6-4.4,27.9
			c11.6,0,23.2,0,34.8,0C66.5,140,66.5,137.8,66.6,135.5z"/>
		<path d="M115.2,194.1c-13-0.2-25.9-1.7-38.5-4.7c1,3.7,2.2,7.4,3.6,11c3,8.1,6.4,16.3,11.1,23.6c7.7,2.4,15.8,3.7,23.8,3.9
			c0,0,0,0,0,0C115.2,216.6,115.2,205.4,115.2,194.1z"/>
		<path d="M71.4,184.2c-3-12.5-4.7-25.3-4.9-38.1c-11.6,0-23.2,0-34.7,0c0.4,8,1.9,15.8,4.4,23.4c10.3,6.7,22.4,11.2,34.1,14.5
			C70.7,184,71.1,184.1,71.4,184.2z"/>
		<path d="M115.2,154.7c0-2.9,0-5.8,0-8.7c-14.9,0-29.9,0-44.8,0c0.3,13.2,2,26.4,5.2,39.2c13,3.2,26.3,4.9,39.6,5.1
			c0-6.3,0-12.7,0-19c-4.3-0.7-6-4.3-6-8.8C109.1,157.9,111.7,155.7,115.2,154.7z"/>
		<path d="M72.4,95.6c1.6-5.9,3.5-11.6,5.8-17.2c2.2-5.2,4.5-10.6,7.6-15.5c-20.5,8.1-37.9,23.8-47.1,44.8c-0.2,0.3-0.3,0.7-0.4,1.1
			c7.3-4.1,15.4-7.3,23.3-9.9C65.1,97.6,68.7,96.5,72.4,95.6z"/>
		<path d="M76.6,94.5c12.6-3,25.6-4.5,38.6-4.6c0-6.2,0-12.5,0-18.7c-4.3-0.7-6-4.3-6-8.8c0-2.4,0.7-4.2,1.9-5.4
			c-6.6,0.5-13.1,1.8-19.4,3.7c-0.1,0.2-0.1,0.3-0.3,0.5c-4.3,5.6-7.4,12.5-9.9,19C79.6,84.9,78,89.7,76.6,94.5z"/>
		<path d="M115.2,93.7c-13.4,0.1-26.7,1.7-39.6,4.9c-3.1,12.1-4.7,24.5-5.1,36.9c-0.1,2.2-0.1,4.5-0.1,6.7c15,0,29.9,0,44.9,0
			C115.2,126.1,115.2,109.9,115.2,93.7z"/>
		<path d="M118.9,154.1c3.5-0.3,7.4,0.1,10.5,0.2c0-2.8,0-5.6,0-8.4c-3.5,0-7,0-10.5,0C118.9,148.7,118.9,151.4,118.9,154.1z"/>
		<path d="M209.4,119.9c-5.2-4.3-10-7-16.7-8.6c-1.8-0.4-1.8-3.1,0-3.6c7.3-2,13.6-6.3,17.4-12.9c5-8.7,3-19.8-4.1-26.9
			c-10.6-10.7-26.5-9.8-40.5-9.8c-1,0-1.9-0.9-1.9-1.9c0-5.1,2.6-17.7-5.2-17.7c-6.7,0-4.3,13.5-4.3,17.7c0,1-0.9,1.9-1.9,1.9
			c-2.6,0-5.2,0-7.9,0c-1,0-1.9-0.9-1.9-1.9c0-5.1,2.6-17.7-5.2-17.7c-6.7,0-4.3,13.5-4.3,17.7c0,1-0.9,1.9-1.9,1.9
			c-5.2,0-18.3-2.7-18.3,5.2c0,6.8,14.2,4.3,18.3,4.3c1,0,1.9,0.9,1.9,1.9c0.1,24.7,0.1,49.4,0,74.1c0.1,0.4,0.1,0.8,0,1.1
			c0,3.9,0,7.7,0,11.6c0,1-0.9,1.9-1.9,1.9c-5.2,0-18.3-2.7-18.3,5.2c0,6.8,14.1,4.3,18.3,4.3c1,0,1.9,0.9,1.9,1.9
			c0,5.2-2.7,17.9,5.2,17.9c6.8,0,4.3-13.8,4.3-17.9c0-1,0.9-1.9,1.9-1.9c2.6,0,5.2,0,7.9,0c1,0,1.9,0.9,1.9,1.9
			c0,5.2-2.7,17.9,5.2,17.9c6.8,0,4.3-13.8,4.3-17.9c0-1,0.9-1.9,1.9-1.9c12.9,0,26.7,0.2,38.2-6.5c7.3-4.3,13.6-11.1,14.3-20
			C218.7,132.7,216,125.5,209.4,119.9z M159.5,64.5c5.1,0,10.3,0.3,15,2.2c9.9,5,12.3,16.1,9.1,26.3c-3.2,10.4-14.8,12.1-24.1,12.3
			C159.5,91.7,159.5,78.1,159.5,64.5z M186,150.9c-3.4,5.8-8.5,8.9-15,10.3c-6.4,1.3-11.7-0.6-11.6-7.7c0.1-3.3,0.1-6.7,0.1-10
			c0-9.3,0-18.6,0-27.8c7.5,0,15.7,0.4,21.8,5.3C189.8,127.9,190.6,141.6,186,150.9z"/>
		<path d="M118.9,171.4c0,6.3,0,12.6,0,18.9c4.5,0,9-0.2,13.5-0.6c-4.5-3.5-3.4-12.3-3.2-18.3C125.8,171.4,122.4,171.4,118.9,171.4z
			"/>
		<path d="M118.9,142.3c3.5,0,7,0,10.5,0c0-16.1,0-32.1,0-48.2c-3.5-0.2-7-0.4-10.5-0.4C118.9,109.9,118.9,126.1,118.9,142.3z"/>
		<path d="M146.3,171.4c0,4,0,8.1,0,12.1c0,2-0.5,3.6-1.5,4.8c2.2-0.3,4.4-0.7,6.7-1.1c-2.1-4.2-1.3-10.9-1.1-15.8
			C149,171.4,147.7,171.4,146.3,171.4z"/>
		<path d="M118.9,71.4c0,6.2,0,12.3,0,18.5c3.5,0,7,0.2,10.5,0.4c0-6.3,0-12.6,0-18.9C125.9,71.4,122.4,71.4,118.9,71.4z"/>
		<path d="M166.5,187.4c-1.2,2.3-3.7,3.5-6.6,3.7c0,0,0,0.1,0,0.1c-3.1,10.6-7.1,21.6-12.7,31.2c3.2-1.2,6.3-2.6,9.4-4.2
			c17.7-9.4,31.4-24.4,39.2-42.5c-8.7,5.3-18.9,8.8-28.4,11.6C167.1,187.5,166.8,187.5,166.5,187.4z"/>
		<path d="M167.4,183.4c10.6-3.2,21.7-7.2,30.7-13.8c0.2-0.7,0.5-1.4,0.7-2.2c-9.9,3.6-20.8,3.9-31.4,3.9
			C167.4,175.4,167.4,179.4,167.4,183.4z"/>
	</g>
</g>
</svg>
