<?xml version="1.0" encoding="utf-8"?>
<!-- Generator: Adobe Illustrator 23.0.3, SVG Export Plug-In . SVG Version: 6.00 Build 0)  -->
<svg version="1.1" xmlns="http://www.w3.org/2000/svg" xmlns:xlink="http://www.w3.org/1999/xlink" x="0px" y="0px"
	 viewBox="0 0 256 256" style="enable-background:new 0 0 256 256;" xml:space="preserve">
<style type="text/css">
	.st0{display:none;}
	.st1{display:inline;}
</style>
<g id="SOURCE" class="st0">
	<g class="st1">
		<g>
			<path d="M210.5,83.8c-16.9,0-33.7,0-50.6,0c0.5,0.5,1.1,1.1,1.6,1.6c0-4.9,0-9.8,0-14.7c0-1.4-1.8-2.2-2.8-1.2
				c-8.6,8.6-17.1,17.1-25.7,25.7c-0.6,0.6-0.6,1.7,0,2.3c8.6,8.6,17.1,17.1,25.7,25.7c1,1,2.8,0.3,2.8-1.2c0-4.5,0-8.9,0-13.4
				c-0.5,0.5-1.1,1.1-1.6,1.6c16.9,0,33.7,0,50.6,0c0.9,0,1.6-0.7,1.6-1.6c0-7.7,0-15.5,0-23.2c0-2.1-3.3-2.1-3.3,0
				c0,7.7,0,15.5,0,23.2c0.5-0.5,1.1-1.1,1.6-1.6c-16.9,0-33.7,0-50.6,0c-0.9,0-1.6,0.7-1.6,1.6c0,4.5,0,8.9,0,13.4
				c0.9-0.4,1.9-0.8,2.8-1.2c-8.6-8.6-17.1-17.1-25.7-25.7c0,0.8,0,1.5,0,2.3c8.6-8.6,17.1-17.1,25.7-25.7c-0.9-0.4-1.9-0.8-2.8-1.2
				c0,4.9,0,9.8,0,14.7c0,0.9,0.7,1.6,1.6,1.6c16.9,0,33.7,0,50.6,0C212.7,87.1,212.7,83.8,210.5,83.8z"/>
		</g>
	</g>
	<g class="st1">
		<g>
			<path d="M136,145.9c16.9,0,33.7,0,50.6,0c0.9,0,1.6-0.7,1.6-1.6c0-4.9,0-9.8,0-14.7c-0.9,0.4-1.9,0.8-2.8,1.2
				c8.6,8.6,17.1,17.1,25.7,25.7c0-0.8,0-1.5,0-2.3c-8.6,8.6-17.1,17.1-25.7,25.7c0.9,0.4,1.9,0.8,2.8,1.2c0-4.5,0-8.9,0-13.4
				c0-0.9-0.7-1.6-1.6-1.6c-16.9,0-33.7,0-50.6,0c0.5,0.5,1.1,1.1,1.6,1.6c0-7.7,0-15.5,0-23.2c0-2.1-3.3-2.1-3.3,0
				c0,7.7,0,15.5,0,23.2c0,0.9,0.7,1.6,1.6,1.6c16.9,0,33.7,0,50.6,0c-0.5-0.5-1.1-1.1-1.6-1.6c0,4.5,0,8.9,0,13.4
				c0,1.4,1.8,2.2,2.8,1.2c8.6-8.6,17.1-17.1,25.7-25.7c0.6-0.6,0.6-1.7,0-2.3c-8.6-8.6-17.1-17.1-25.7-25.7c-1-1-2.8-0.3-2.8,1.2
				c0,4.9,0,9.8,0,14.7c0.5-0.5,1.1-1.1,1.6-1.6c-16.9,0-33.7,0-50.6,0C133.9,142.6,133.9,145.9,136,145.9z"/>
		</g>
	</g>
	<g class="st1">
		<g>
			<path d="M65,161.1c14.7,21.4,34.8,41.2,59.2,51.1c1.8,0.7,3.9-0.5,5.5-1.1c4.8-1.8,9.5-4.1,14-6.7c15.2-8.7,27.8-21.3,37.2-35.9
				c1.3-2-1.9-3.9-3.2-1.9c-9.2,14.2-21.3,26-35.9,34.6c-4,2.3-8.2,4.4-12.6,6.1c-1.2,0.4-2.3,0.9-3.5,1.2c-0.2,0.1-0.5,0.1-0.7,0.2
				c0.6-0.2,0.7,0-1.1-0.7c-22.8-9.7-41.9-28.8-55.7-48.8C66.9,157.3,63.6,159.1,65,161.1L65,161.1z"/>
		</g>
	</g>
	<g class="st1">
		<g>
			<path d="M197.4,109c-1.4,8.9-3.4,17.9-5.8,26.6c-0.7,2.3,3,3.3,3.6,1c2.5-8.7,4.4-17.6,5.8-26.6
				C201.4,107.6,197.8,106.6,197.4,109L197.4,109z"/>
		</g>
	</g>
	<g class="st1">
		<g>
			<path d="M50.4,106.3c-0.6-5.3-1.1-10.5-0.8-15.8c0.1-1.9-0.1-1.9,0.7-2.8c3.3-3.7,7.9-6.4,11.9-9.2c13.2-9.1,27-17.4,40.7-25.6
				c5.3-3.2,10.6-6.3,15.9-9.5c1.3-0.8,2.6-1.5,3.9-2.3c1.9-1.1-1.9-0.9-0.5-0.1c11.9,6.6,23.8,13.4,35.6,20.3
				c12.9,7.6,26.5,15,38.3,24.3c1.9,1.5,4.6-1.2,2.7-2.7c-12.7-10-27.2-17.9-41-26c-11.2-6.6-22.5-13-33.9-19.4
				c-1.9-1-4.1,1-5.7,1.9c-5,2.9-9.9,5.9-14.8,8.8c-13.8,8.3-27.6,16.6-40.9,25.6c-5,3.4-10.6,6.8-14.8,11.2
				c-1.3,1.3-1.5,2.4-1.6,3.4c-0.8,5.9-0.1,12,0.6,17.9C46.9,108.7,50.7,108.7,50.4,106.3L50.4,106.3z"/>
		</g>
	</g>
	<g class="st1">
		<g>
			<path d="M162.2,166.8c-7.3,9.3-16.1,17-26.6,22.4c-2.7,1.4-5.5,2.6-8.4,3.5c-0.5,0.2-1.1,0.3-1.6,0.5c0.5-0.1,1.3,0.2,0.2-0.2
				c-16.5-6.3-31.8-18.1-41.1-33.1c-1.3-2-4.5-0.2-3.2,1.9c9.9,15.9,25.9,28.1,43.3,34.9c3.1,1.2,8.2-2,10.9-3.3
				c11.5-5.4,21.3-13.9,29.1-23.8C166.3,167.6,163.7,164.9,162.2,166.8L162.2,166.8z"/>
		</g>
	</g>
	<g class="st1">
		<g>
			<path d="M183.4,109.7c-1.5,11.4-4,22.6-8.2,33.3c-0.9,2.3,2.7,3.2,3.6,1c4.3-11.1,6.8-22.5,8.3-34.3
				C187.5,107.3,183.7,107.3,183.4,109.7L183.4,109.7z"/>
		</g>
	</g>
	<g class="st1">
		<g>
			<path d="M66.3,104.5c0-2.8-0.9-6.1,1.2-8c4-3.8,9.1-6.8,13.8-9.8c7.5-4.8,15-9.5,22.6-14.1c6.9-4.2,13.9-8.4,20.9-12.4
				c-1,0.6-2.4-0.4-1.3,0.2c0.5,0.3,1,0.6,1.5,0.9c2.3,1.3,4.5,2.5,6.8,3.8c7.2,4.1,14.4,8.2,21.6,12.5c2.1,1.2,4-2,1.9-3.2
				c-7.2-4.2-14.4-8.4-21.6-12.5c-2.4-1.4-6.9-5.2-9.8-5.2c-1,0-2.2,1-3,1.5c-3.4,2-6.8,4-10.2,6c-3.1,1.8-6.1,3.7-9.2,5.5
				c-8.2,5-16.4,10-24.4,15.3c-4.2,2.8-11.3,6.3-14,10.8c-1.4,2.4-0.6,6.1-0.6,8.7C62.6,106.9,66.3,106.9,66.3,104.5L66.3,104.5z"/>
		</g>
	</g>
	<g class="st1">
		<g>
			<path d="M113.7,157.1c-25.3,0-50.7,0-76,0c0.6,0.6,1.3,1.3,1.9,1.9c0-17.3,0-34.7,0-52c-0.6,0.6-1.3,1.3-1.9,1.9
				c25.3,0,50.7,0,76,0c-0.6-0.6-1.3-1.3-1.9-1.9c0,17.3,0,34.7,0,52c0,2.4,3.8,2.4,3.8,0c0-17.3,0-34.7,0-52c0-1-0.9-1.9-1.9-1.9
				c-25.3,0-50.7,0-76,0c-1,0-1.9,0.9-1.9,1.9c0,17.3,0,34.7,0,52c0,1,0.9,1.9,1.9,1.9c25.3,0,50.7,0,76,0
				C116.1,160.9,116.1,157.1,113.7,157.1z"/>
		</g>
	</g>
	<g class="st1">
		<g>
			<path d="M45,122.2c20.1,0,40.2,0,60.3,0c2.4,0,2.4-3.8,0-3.8c-20.1,0-40.2,0-60.3,0C42.6,118.5,42.6,122.2,45,122.2L45,122.2z"/>
		</g>
	</g>
</g>
<g id="Line_Expand">
	<g>
		<path d="M195.4,135.9c2.3-8.4,4.2-17,5.6-25.6c3.2,0,6.4,0,9.6,0c0.9,0,1.6-0.7,1.6-1.6c0-7.7,0-15.5,0-23.2
			c0-0.5-0.2-0.8-0.4-1.1c0,0,0,0,0-0.1c0,0,0,0,0,0c-0.3-0.3-0.6-0.4-1.1-0.4c-3.7,0-7.4,0-11.1,0c-0.1-0.3-0.3-0.7-0.6-1
			c-12.7-10-27.2-17.9-41-26c-11.2-6.6-22.5-13-33.9-19.4c-1.9-1-4.1,1-5.7,1.9c-5,2.9-9.9,5.9-14.8,8.8
			c-13.8,8.3-27.6,16.6-40.9,25.6c-5,3.4-10.6,6.8-14.8,11.2c-1.3,1.3-1.5,2.4-1.6,3.4c-0.7,5.5-0.2,11.2,0.5,16.7
			c-2.9,0-5.9,0-8.8,0c-1,0-1.9,0.9-1.9,1.9c0,17.3,0,34.7,0,52c0,1,0.9,1.9,1.9,1.9c9.1,0,18.1,0,27.2,0c0,0.1,0.1,0.2,0.1,0.3
			c9.7,15.7,22.6,29,37.7,39.4c2,1.4,3.9-1.9,1.9-3.2c-14.1-9.7-26.1-22-35.4-36.4c4,0,8,0,11.9,0c0,0.3,0.1,0.6,0.3,0.8
			c2.1,2.9,4.3,5.7,6.7,8.4c1.6,1.8,4.2-0.8,2.7-2.7c-1.9-2.1-3.6-4.3-5.3-6.6c9.4,0,18.7,0,28.1,0c0.6,0,1-0.2,1.3-0.5c0,0,0,0,0,0
			c0,0,0,0,0.1-0.1c0.3-0.3,0.5-0.7,0.5-1.3c0-17.3,0-34.7,0-52c0-1-0.9-1.9-1.9-1.9c-21.1,0-42.3,0-63.4,0
			c-0.6-4.9-0.9-9.7-0.6-14.6c0.1-1.9-0.1-1.9,0.7-2.8c3.3-3.7,7.9-6.4,11.9-9.2c13.2-9.1,27-17.4,40.7-25.6
			c5.3-3.2,10.6-6.3,15.9-9.5c1.3-0.8,2.6-1.5,3.8-2.2c11.8,6.6,23.5,13.3,35.2,20.1c12.1,7.1,24.8,14.1,36.1,22.6
			c-10.8,0-21.6,0-32.4,0c0-4.3,0-8.7,0-13c0-1.4-1.8-2.2-2.8-1.2c-1.4,1.4-2.8,2.8-4.2,4.2c-9.4-5.5-18.8-10.9-28.3-16.2
			c-1.3-0.7-2.3-1.4-3.7-0.6c-4,2.3-8,4.7-11.9,7c-2.1,1.2-0.2,4.5,1.9,3.2c3.6-2.2,7.3-4.3,10.9-6.5c0.2-0.1,0.3-0.2,0.4-0.3
			c0.6,0.3,1.2,0.7,1.8,1c8.8,4.9,17.5,9.9,26.2,15c-6.2,6.2-12.5,12.5-18.7,18.7c-0.6,0.6-0.6,1.7,0,2.3
			c8.6,8.6,17.1,17.1,25.7,25.7c1,1,2.8,0.3,2.8-1.2c0-3.9,0-7.8,0-11.8c7.3,0,14.5,0,21.8,0c-1.5,11.1-3.9,21.8-7.9,32.2
			c-13.1,0-26.3,0-39.4,0c-0.5,0-0.9,0.2-1.1,0.4c0,0,0,0,0,0c0,0,0,0,0,0.1c-0.3,0.3-0.4,0.6-0.4,1.1c0,7.7,0,15.5,0,23.2
			c0,0.9,0.7,1.6,1.6,1.6c8.1,0,16.2,0,24.3,0c-8.2,9.8-18.5,18-30.5,22.7c-1.2,0.5-2.4,0.9-3.7,1.2c-0.1,0-0.1,0-0.2,0.1
			c-0.1-0.1-0.2-0.1-0.5-0.2c-6.6-2.7-12.8-6.6-18.5-10.7c-2-1.4-3.8,1.8-1.9,3.2c6.1,4.3,12.5,8.2,19.4,11c1.9,0.8,3.8-0.2,5.7-0.8
			c13.8-5,25.6-14.7,34.6-26.1c0.1-0.1,0.2-0.3,0.2-0.4c3.7,0,7.4,0,11.1,0c-9.2,13.4-21,24.6-35.2,32.7c-4.1,2.3-8.3,4.3-12.7,5.9
			c-0.9,0.3-1.9,0.7-2.8,1c-0.1,0-0.1,0-0.2-0.1c-1.4-0.5-2.7-1.2-4.1-1.8c-2.2-1-4.1,2.2-1.9,3.2c3.4,1.6,5.3,2.9,8.7,1.7
			c4.5-1.5,8.9-3.6,13.1-5.8c16.1-8.6,29.6-21.6,39.5-36.9c1.5,0,2.9,0,4.4,0c0,3.9,0,7.8,0,11.8c0,1.4,1.8,2.2,2.8,1.2
			c8.6-8.6,17.1-17.1,25.7-25.7c0.6-0.6,0.6-1.7,0-2.3C207.4,148,201.4,142,195.4,135.9z M111.8,157.1c-24.1,0-48.2,0-72.3,0
			c0-16.1,0-32.2,0-48.3c24.1,0,48.2,0,72.3,0C111.8,125,111.8,141,111.8,157.1z M186.6,165.8c-16.3,0-32.6,0-49,0
			c0-6.6,0-13.3,0-19.9c16.3,0,32.6,0,49,0c0.9,0,1.6-0.7,1.6-1.6c0-3.6,0-7.1,0-10.7c1.1,1.1,2.3,2.3,3.4,3.4
			c0.2,0.3,0.4,0.5,0.7,0.7c5.9,5.9,11.7,11.7,17.6,17.6c-7.2,7.2-14.5,14.5-21.7,21.7c0-3.1,0-6.3,0-9.4
			C188.3,166.5,187.5,165.8,186.6,165.8z M159.9,107.1c-0.9,0-1.6,0.7-1.6,1.6c0,3.1,0,6.3,0,9.4c-7.2-7.2-14.5-14.5-21.7-21.7
			c7.2-7.2,14.5-14.5,21.7-21.7c0,3.6,0,7.1,0,10.7c0,0.9,0.7,1.6,1.6,1.6c16.3,0,32.6,0,49,0c0,6.6,0,13.3,0,19.9
			C192.6,107.1,176.3,107.1,159.9,107.1z M187.1,110.4c3.4,0,6.7,0,10.1,0c-1.2,7.6-2.9,15.1-4.9,22.5c-1.5-1.5-3-3-4.5-4.5
			c-1-1-2.8-0.3-2.8,1.2c0,4.3,0,8.7,0,13c-1.9,0-3.7,0-5.6,0C183.3,132.2,185.7,121.4,187.1,110.4z"/>
		<path d="M100.7,70c-4.1,2.5-8.2,5-12.2,7.6c-2,1.3-0.2,4.5,1.9,3.2c4.1-2.5,8.1-5.1,12.2-7.6C104.6,72,102.8,68.8,100.7,70z"/>
		<path d="M78.7,83.9c-3.8,2.5-7.6,5-11.2,7.8c-1.6,1.2-4.5,3-4.8,5.2c-0.4,2.4,3.2,3.4,3.6,1c0.2-1.3,3.2-3,4.1-3.7
			c3.3-2.5,6.8-4.8,10.2-7.1C82.6,85.8,80.7,82.5,78.7,83.9z"/>
		<path d="M45,122.2c20.1,0,40.2,0,60.3,0c2.4,0,2.4-3.8,0-3.8c-20.1,0-40.2,0-60.3,0C42.6,118.5,42.6,122.2,45,122.2z"/>
	</g>
</g>
<g id="Glyph" class="st0">
	<g class="st1">
		<path d="M208.7,87.4c-16.2,0-32.5,0-48.7,0c-1,0-1.9-0.9-1.9-1.9c0-3.4,0-6.8,0-10.2c-7,7-14.1,14.1-21.1,21.1
			c7,7,14.1,14.1,21.1,21.1c0-3,0-5.9,0-8.9c0-1,0.9-1.9,1.9-1.9c16.2,0,32.5,0,48.7,0C208.7,100.4,208.7,93.9,208.7,87.4z"/>
		<path d="M62.7,105.1c-0.1-0.2-0.1-0.4-0.1-0.6c0-2.6-0.8-6.4,0.6-8.7c2.6-4.6,9.8-8.1,14-10.8c8-5.3,16.2-10.4,24.4-15.3
			c3.1-1.8,6.1-3.7,9.2-5.5c3.4-2,6.8-4,10.2-6c0.8-0.5,2-1.5,3-1.5c2.9,0,7.4,3.9,9.8,5.2c6.9,3.9,13.9,7.9,20.7,12
			c1.4-1.4,2.8-2.8,4.2-4.2c1.2-1.2,3.2-0.3,3.2,1.3c0,4.3,0,8.5,0,12.8c10.6,0,21.2,0,31.8,0c-11.2-8.4-23.7-15.3-35.8-22.3
			c-11.7-6.8-23.4-13.5-35.2-20.1c-1.3,0.7-2.6,1.5-3.8,2.2c-5.3,3.1-10.6,6.3-15.9,9.5c-13.7,8.3-27.5,16.6-40.7,25.6
			c-4,2.8-8.6,5.5-11.9,9.2c-0.8,0.9-0.6,0.9-0.7,2.8c-0.3,4.9,0.1,9.8,0.6,14.6C54.4,105.1,58.5,105.1,62.7,105.1z"/>
		<path d="M184.8,129.5c0-1.6,2-2.5,3.2-1.3c1.5,1.5,2.9,2.9,4.4,4.4c1.9-7.3,3.5-14.6,4.8-22c-3.4,0-6.7,0-10.1,0
			c-1.4,10.9-3.7,21.5-7.6,31.7c1.8,0,3.5,0,5.3,0C184.8,138.1,184.8,133.8,184.8,129.5z"/>
		<path d="M134.7,142.9C134.7,142.9,134.7,142.9,134.7,142.9c0.1-0.1,0.1-0.1,0.1-0.1c0.3-0.3,0.7-0.5,1.3-0.5c13.2,0,26.3,0,39.5,0
			c4-10.3,6.3-20.9,7.8-31.7c-7.2,0-14.3,0-21.5,0c0,3.8,0,7.7,0,11.5c0,1.6-2,2.5-3.2,1.3c-8.6-8.6-17.1-17.1-25.7-25.7
			c-0.7-0.7-0.7-1.9,0-2.7c6.2-6.2,12.5-12.5,18.7-18.7c-6.6-3.9-13.2-7.7-19.9-11.5c-2.3-1.3-4.5-2.5-6.8-3.8
			c-0.4-0.2-0.7-0.4-1.1-0.6c-6.7,3.9-13.4,7.9-20,11.9c-7.6,4.6-15.1,9.3-22.6,14.1c-4.7,3-9.7,6-13.8,9.8c-2.1,2-1.2,5.2-1.2,8
			c0,0.2,0,0.4-0.1,0.6c15.8,0,31.6,0,47.5,0c1,0,1.9,0.9,1.9,1.9c0,17.3,0,34.7,0,52c0,0.6-0.2,1-0.5,1.3c0,0,0,0-0.1,0.1
			c0,0,0,0,0,0c-0.3,0.3-0.7,0.5-1.3,0.5c-9.4,0-18.8,0-28.2,0c9.4,14.5,24.3,26,40.4,32.1c0.1,0,0.1,0.1,0.2,0.1
			c0.4-0.1,0.8-0.2,1.2-0.3c2.9-0.9,5.7-2.1,8.4-3.5c9.5-4.9,17.7-11.7,24.5-19.9c-8,0-16.1,0-24.1,0c-1,0-1.9-0.9-1.9-1.9
			c0-7.7,0-15.5,0-23.2C134.2,143.7,134.4,143.2,134.7,142.9z"/>
		<path d="M209.6,155.2c-7-7-14.1-14.1-21.1-21.1c0,3.4,0,6.8,0,10.2c0,1-0.9,1.9-1.9,1.9c-16.2,0-32.5,0-48.7,0c0,6.5,0,13,0,19.5
			c16.2,0,32.5,0,48.7,0c1,0,1.9,0.9,1.9,1.9c0,3,0,5.9,0,8.9C195.6,169.3,202.6,162.2,209.6,155.2z"/>
		<path d="M164.8,169.5c-7.8,9.9-17.6,18.5-29.1,23.8c-2.7,1.2-7.8,4.5-10.9,3.3c-17.4-6.8-33.4-18.9-43.3-34.9
			c-0.2-0.3-0.3-0.6-0.3-0.8c-4,0-7.9,0-11.9,0c13.7,19.5,32.3,37.8,54.5,47.2c1.1,0.4,1.5,0.6,1.5,0.6c0.1,0,0.2-0.1,0.3-0.1
			c1.2-0.4,2.4-0.8,3.5-1.2c4.3-1.7,8.6-3.7,12.6-6.1c13.7-8,25.2-18.9,34.2-32c-3.7,0-7.4,0-11,0
			C164.9,169.4,164.9,169.4,164.8,169.5z"/>
		<path d="M111.8,108.9c-24.1,0-48.2,0-72.3,0c0,16.1,0,32.2,0,48.3c24.1,0,48.2,0,72.3,0C111.8,141,111.8,125,111.8,108.9z
			 M105.3,122.2c-20.1,0-40.2,0-60.3,0c-2.4,0-2.4-3.8,0-3.8c20.1,0,40.2,0,60.3,0C107.8,118.5,107.8,122.2,105.3,122.2z"/>
	</g>
</g>
</svg>
