<?xml version="1.0" encoding="utf-8"?>
<!-- Generator: Adobe Illustrator 23.0.3, SVG Export Plug-In . SVG Version: 6.00 Build 0)  -->
<svg version="1.1" xmlns="http://www.w3.org/2000/svg" xmlns:xlink="http://www.w3.org/1999/xlink" x="0px" y="0px"
	 viewBox="0 0 256 256" style="enable-background:new 0 0 256 256;" xml:space="preserve">
<style type="text/css">
	.st0{display:none;}
	.st1{display:inline;}
</style>
<g id="SOURCE" class="st0">
	<g class="st1">
		<g>
			<path d="M147.4,205.9c0-5.7,0-11.4,0-17.2c-0.6,0.6-1.3,1.3-1.9,1.9c3.1,0,6.1,0,9.2,0c-0.6-0.6-1.3-1.3-1.9-1.9
				c0,5.2,0,10.3,0,15.5c0,6.2,3.4,9.5,9.6,9.5c5.7,0,9.6-3,9.6-9c0-5.4,0-10.7,0-16.1c-0.6,0.6-1.3,1.3-1.9,1.9
				c21.8,0,47.9-1,61-21.4c6.6-10.2,6-24.5-0.5-34.5c-6.1-9.5-17-15.4-27.7-18c0,1.2,0,2.4,0,3.6c10.9-2.9,20.1-10.2,24.7-20.7
				c4-8.9,1.3-20.2-3.7-28.1c-4-6.2-11.7-11.6-18.6-13.9c-11.1-3.7-23.6-3.2-35.2-3.2c0.6,0.6,1.3,1.3,1.9,1.9c0-5.1,0-10.1,0-15.2
				c0-6.2-3.5-9.5-9.6-9.5c-5.7,0-9.6,3-9.6,8.9c0,5.3,0,10.5,0,15.8c0.6-0.6,1.3-1.3,1.9-1.9c-3.1,0-6.1,0-9.2,0
				c0.6,0.6,1.3,1.3,1.9,1.9c0-5.1,0-10.1,0-15.2c0-6.2-3.5-9.5-9.6-9.5c-5.7,0-9.6,3-9.6,8.9c0,5.3,0,10.5,0,15.8
				c0.6-0.6,1.3-1.3,1.9-1.9c-8.7,0-24.3-3.5-25.5,8.9c-0.2,2.4,3.5,2.4,3.8,0c0.6-6.5,6.9-5.1,11.5-5.1c3.4,0,6.8,0,10.3,0
				c1,0,1.9-0.9,1.9-1.9c0-3.4,0-6.9,0-10.3c0-4.9-1-10.6,5.9-10.6c6.5,0,5.9,5,5.9,9.7c0,3.8,0,7.5,0,11.3c0,1,0.9,1.9,1.9,1.9
				c3.1,0,6.1,0,9.2,0c1,0,1.9-0.9,1.9-1.9c0-3.4,0-6.9,0-10.3c0-4.9-1-10.6,5.9-10.6c6.5,0,5.9,5,5.9,9.7c0,3.8,0,7.5,0,11.3
				c0,1,0.9,1.9,1.9,1.9c16,0,34.7-1,47.1,11c6.6,6.4,10,17,8,26.1c-2.4,10.8-13.3,18.8-23.3,21.5c-1.8,0.5-1.8,3.2,0,3.6
				c10.1,2.5,19.2,7.7,25.4,16.3c7.5,10.4,5.5,25.5-2.5,34.9c-13.2,15.5-36.1,15.4-54.7,15.4c-1,0-1.9,0.9-1.9,1.9c0,3.5,0,7,0,10.5
				c0,4.9,1,10.7-5.9,10.7c-6.5,0-5.9-5.1-5.9-9.8c0-3.8,0-7.7,0-11.5c0-1-0.9-1.9-1.9-1.9c-3.1,0-6.1,0-9.2,0c-1,0-1.9,0.9-1.9,1.9
				c0,5.7,0,11.4,0,17.2C143.6,208.3,147.4,208.3,147.4,205.9L147.4,205.9z"/>
			<path d="M180.7,68.2c12,5.9,14.9,19.6,10.8,31.6c-4.3,12.8-19.3,14.1-30.6,14.2c0.6,0.6,1.3,1.3,1.9,1.9c0-17.4,0-34.8,0-52.1
				c-0.6,0.6-1.3,1.3-1.9,1.9c6.8,0,13.9,0.1,20.2,2.8c2.2,0.9,3.2-2.7,1-3.6c-6.6-2.8-14.2-2.9-21.2-2.9c-1,0-1.9,0.9-1.9,1.9
				c0,17.4,0,34.8,0,52.1c0,1,0.9,1.9,1.9,1.9c12.8-0.1,28.1-2.1,33.6-15.7c5.6-13.6,1.7-30.4-12-37.1
				C180.4,63.9,178.5,67.1,180.7,68.2z"/>
			<path d="M194.4,167.1c-3.4,6-8.5,9.6-15.1,11.6c-7.7,2.3-16.8,1.3-16.6-8.5c0.1-3.8,0.1-7.7,0.1-11.5c0-11.7,0-23.4,0-35.1
				c-0.6,0.6-1.3,1.3-1.9,1.9c9.7,0,20.7,0.1,28.4,6.8C198.9,140.5,199.7,156.3,194.4,167.1c-1.1,2.2,2.2,4.1,3.2,1.9
				c5.6-11.2,5.2-26.1-2.7-36.2c-8.3-10.4-21.6-11.2-33.9-11.1c-1,0-1.9,0.9-1.9,1.9c0,13.6,0,27.1,0,40.7c0,6.6-1,13.8,5.6,17.8
				c5.2,3.2,13.5,1.2,18.7-0.7c6.2-2.2,11-6.6,14.2-12.3C198.8,166.8,195.6,165,194.4,167.1z"/>
		</g>
	</g>
	<g class="st1">
		<g>
			<path d="M143.5,175.3c0,11.7,0,23.5,0,35.2c0,6.9-5.5,8.7-11.1,8.7c-5.1,0-10.3,0-15.4,0c-25.2,0-50.4,0-75.6,0
				c-4.7,0-7.8-3.7-8.1-8.1c-0.2-2.4-3.9-2.4-3.7,0c0.9,13.6,14.5,11.9,24.2,11.9c15.4,0,30.7,0,46.1,0c11.5,0,23,0,34.5,0
				c6.4,0,11.5-3.6,12.8-10c1-4.9,0.2-10.8,0.2-15.8c0-7.3,0-14.5,0-21.8C147.2,172.8,143.5,172.8,143.5,175.3L143.5,175.3z"/>
		</g>
	</g>
	<g class="st1">
		<g>
			<path d="M99.2,158.7c0.5-7.9,7.2-8.1,13.2-8.1c6.1,0,12.3,0,18.4,0c4.6,0,9.1,0,13.7,0c8.7,0,9,7.6,9,14.1
				c0,7.9-7.5,8.1-13.2,8.1c-6.1,0-12.3,0-18.4,0c-4.6,0-9.1,0-13.7,0C99.4,172.8,99.2,165.2,99.2,158.7c0-2.4-3.8-2.4-3.8,0
				c0,7.9,0.7,15.8,10,17.7c4.8,1,10.5,0.2,15.4,0.2c7.3,0,14.6,0,21.9,0c6.9,0,12.8-2.7,14.3-10c1.4-6.7,0-16.3-7.3-18.9
				c-4.9-1.7-11-0.9-16.1-0.9c-7.5,0-15.1,0-22.6,0c-5.9,0-12.4,0.9-14.7,7.5c-0.5,1.5-0.7,2.8-0.9,4.4
				C95.3,161.1,99.1,161.1,99.2,158.7z"/>
		</g>
	</g>
	<g class="st1">
		<g>
			<path d="M47.6,106.7c0-4.5,0-9,0-13.5c0-5.9,3.1-9.3,8.7-9.3c10.3,0,20.6,0,30.9,0c10.5,0,21,0,31.5,0c5.2,0,9.1,2.4,9.1,8.5
				c0,4.7,0,9.3,0,14c0,2.4,3.7,2.4,3.7,0c0-8.9,2.6-26.2-10.9-26.2c-11.2,0-22.3,0-33.5,0c-10.9,0-21.8,0-32.7,0
				c-13.4,0-10.7,17.8-10.7,26.6C43.8,109.1,47.6,109.1,47.6,106.7L47.6,106.7z"/>
		</g>
	</g>
	<g class="st1">
		<g>
			<path d="M47.6,93.2c0-7.3-3.3-26.6,7.7-26.6c10.7,0,21.3,0,32,0c10.9,0,21.8,0,32.6,0c6.4,0,8,5.5,8,11c0,5.2,0,10.3,0,15.5
				c0,2.4,3.7,2.4,3.7,0c0-8.6,3.5-30.2-10.3-30.2c-11,0-22.1,0-33.1,0c-11.3,0-22.7,0-34,0c-14,0-10.4,21.6-10.4,30.4
				C43.8,95.6,47.6,95.6,47.6,93.2L47.6,93.2z"/>
		</g>
	</g>
	<g class="st1">
		<g>
			<path d="M59,93.9c18.8,0,37.5,0,56.3,0c2.4,0,2.4-3.8,0-3.8c-18.8,0-37.5,0-56.3,0C56.6,90.1,56.6,93.9,59,93.9L59,93.9z"/>
		</g>
	</g>
	<g class="st1">
		<g>
			<path d="M59,74.4c18.8,0,37.5,0,56.3,0c2.4,0,2.4-3.8,0-3.8c-18.8,0-37.5,0-56.3,0C56.6,70.6,56.6,74.4,59,74.4L59,74.4z"/>
		</g>
	</g>
	<g class="st1">
		<g>
			<path d="M146.9,148.7c0-5.6,0-11.2,0-16.9c0-5.3,0.9-11.5-0.2-16.7c-2.5-12.3-16.1-10-25.5-10c-26.5,0-53,0-79.6,0
				c-15.8,0-12.5,19-12.5,29.5c0,9.6,0,19.3,0,28.9c0,11.9,0,23.9,0,35.8c0,6-1.2,13.4,2.3,18.7c2.8,4.2,7.6,4.8,12.1,4.8
				c27.3,0,54.5,0,81.8,0c3.2,0,6.3,0,9.5,0c6.9,0,12-5.7,12-12.4c0-11.7,0-23.5,0-35.2c0-2.4-3.8-2.4-3.8,0c0,11.7,0,23.5,0,35.2
				c0,6.9-5.5,8.7-11.1,8.7c-5.1,0-10.3,0-15.4,0c-25.2,0-50.4,0-75.6,0c-10.2,0-8.1-13.1-8.1-19.7c0-4.9,0-9.9,0-14.8
				c0-12.1,0-24.2,0-36.2c0-10.4,0-20.9,0-31.3c0-7.8,7.2-8.1,12.8-8.1c5.7,0,11.4,0,17.1,0c22,0,44.1,0,66.1,0c2,0,4,0,6,0
				c7.1,0,8.3,6.2,8.3,11.7c0,9.4,0,18.8,0,28.2C143.1,151.2,146.9,151.2,146.9,148.7L146.9,148.7z"/>
		</g>
	</g>
</g>
<g id="Line_Expand">
	<g>
		<path d="M216.2,68.2c3.7,3.5,6.5,7.7,8.3,12.5c0.8,2.3,4.4,1.3,3.6-1c-2-5.4-5.1-10.2-9.2-14.1C217.1,63.8,214.4,66.5,216.2,68.2z
			"/>
		<path d="M182.6,65c-0.1-0.1-0.2-0.1-0.3-0.1c0,0-0.1,0-0.1-0.1c-6.6-2.8-14.2-2.9-21.2-2.9c-1,0-1.9,0.9-1.9,1.9
			c0,17.4,0,34.8,0,52.1c0,1,0.9,1.9,1.9,1.9c12.8-0.1,28.1-2.1,33.6-15.7C200.2,88.4,196.3,71.7,182.6,65z M191.5,99.8
			c-4.1,12.1-17.7,13.9-28.7,14.2c0-16.1,0-32.2,0-48.4c6.1,0,12.3,0.3,18,2.6C192.7,74.1,195.6,87.8,191.5,99.8z"/>
		<path d="M160.9,121.6c-1,0-1.9,0.9-1.9,1.9c0,13.6,0,27.1,0,40.7c0,6.6-1,13.8,5.6,17.8c5.2,3.2,13.5,1.2,18.7-0.7
			c6.2-2.2,11-6.6,14.2-12.3c5.6-11.2,5.2-26.1-2.7-36.2C186.6,122.4,173.3,121.6,160.9,121.6z M194.4,167.1
			c-3.4,6-8.5,9.6-15.1,11.6c-7.7,2.3-16.8,1.3-16.6-8.5c0.1-3.8,0.1-7.7,0.1-11.5c0-11.1,0-22.1,0-33.2c9.2,0,19.3,0.5,26.5,6.8
			C198.9,140.5,199.7,156.3,194.4,167.1z"/>
		<path d="M33.2,185.8c0-8.2,0-16.3,0-24.5c0-2.4-3.7-2.4-3.7,0c0,8.2,0,16.3,0,24.5C29.5,188.2,33.2,188.2,33.2,185.8z"/>
		<path d="M53.7,222.9c15.4,0,30.7,0,46.1,0c11.5,0,23,0,34.5,0c6.4,0,11.5-3.6,12.8-10c0.7-3.5,0.5-7.4,0.3-11.1
			c0-3.7,0-7.4,0-11.1c1.8,0,3.6,0,5.4,0c0,4.5,0,9.1,0,13.6c0,6.2,3.4,9.5,9.6,9.5c5.7,0,9.6-3,9.6-9c0-4.7,0-9.5,0-14.2
			c21.4-0.1,46.4-1.5,59.1-21.4c6.6-10.2,6-24.5-0.5-34.5c-5.1-7.8-13.4-13.2-22.1-16.3c11.5-5,20.8-15.7,21.2-28.8
			c0.1-2.4-3.7-2.4-3.8,0c-0.4,13.4-11.7,23.8-24,27.1c-1.8,0.5-1.8,3.2,0,3.6c10.1,2.5,19.2,7.7,25.4,16.3
			c7.5,10.4,5.5,25.5-2.5,34.9c-13.2,15.5-36.1,15.4-54.7,15.4c-1,0-1.9,0.9-1.9,1.9c0,3.5,0,7,0,10.5c0,4.9,1,10.7-5.9,10.7
			c-6.5,0-5.9-5.1-5.9-9.8c0-3.8,0-7.7,0-11.5c0-1-0.9-1.9-1.9-1.9c-2.5,0-5,0-7.5,0c0-3.6,0-7.2,0-10.8c4.9-1,8.7-3.9,9.8-9.6
			c1.4-6.7,0-16.3-7.3-18.9c-0.8-0.3-1.7-0.5-2.5-0.6c0-5,0-10.1,0-15.1c0-5.3,0.9-11.5-0.2-16.7c-1.7-8.3-8.4-10-15.5-10.2
			c0.1-3.5,0.4-8,0-12.2c0-8.8,3.4-30-10.3-30c-4.3,0-8.6,0-12.9,0c0.9-5.8,7-4.6,11.4-4.6c3.4,0,6.8,0,10.3,0c1,0,1.9-0.9,1.9-1.9
			c0-3.4,0-6.9,0-10.3c0-4.9-1-10.6,5.9-10.6c6.5,0,5.9,5,5.9,9.7c0,3.8,0,7.5,0,11.3c0,1,0.9,1.9,1.9,1.9c3.1,0,6.1,0,9.2,0
			c1,0,1.9-0.9,1.9-1.9c0-3.4,0-6.9,0-10.3c0-4.9-1-10.6,5.9-10.6c6.5,0,5.9,5,5.9,9.7c0,3.8,0,7.5,0,11.3c0,1,0.9,1.9,1.9,1.9
			c12.1,0,25.3-0.7,36.7,4c2.2,0.9,3.2-2.7,1-3.6c-11.1-4.5-24-4.2-35.9-4.1c0-4.4,0-8.9,0-13.3c0-6.2-3.5-9.5-9.6-9.5
			c-5.7,0-9.6,3-9.6,8.9c0,4.6,0,9.3,0,13.9c-1.8,0-3.6,0-5.4,0c0-4.4,0-8.9,0-13.3c0-6.2-3.5-9.5-9.6-9.5c-5.7,0-9.6,3-9.6,8.9
			c0,4.6,0,9.2,0,13.8c-8.8-0.4-22-2.5-23.5,8.4c-5.5,0-11,0-16.4,0c-11.3,0-22.7,0-34,0c-13.7,0-10.5,20.8-10.4,29.9
			c-0.4,4.3-0.1,8.9,0,12.5c-0.6,0-1.2,0-1.8,0c-8.7,0-12.5,6.7-12.5,14.5c0,8.3,0,16.6,0,24.9c0,2.4,3.7,2.4,3.7,0
			c0-5.9,0-11.8,0-17.6c0-6.5-1.7-18,8.2-18c9.6,0,19.2,0,28.9,0c15.8,0,31.7,0,47.5,0c5,0,10,0,15,0c5.7,0,10.7,2.4,10.7,9.1
			c0,9.5,0,19.1,0,28.7c-3.3-0.1-6.7,0.2-9.8,0.2c-7.5,0-15.1,0-22.6,0c-5.9,0-12.4,0.9-14.7,7.5c-0.5,1.5-0.7,2.8-0.9,4.4
			c0,7.9,0.7,15.8,10,17.7c4.8,1,10.5,0.2,15.4,0.2c7.3,0,14.6,0,21.9,0c0.2,0,0.4,0,0.7,0c0,11.3,0,22.6,0,33.9
			c0,6.9-5.5,8.7-11.1,8.7c-5.1,0-10.3,0-15.4,0c-25.2,0-50.4,0-75.6,0c-4.7,0-7.8-3.7-8.1-8.1c-0.2-2.4-3.9-2.4-3.7,0
			C30.4,224.6,43.9,222.9,53.7,222.9z M55.2,66.5c10.7,0,21.3,0,32,0c10.9,0,21.8,0,32.6,0c6.4,0,8,5.5,8,11c0,1.7,0,3.5,0,5.2
			c-1.6-1.6-3.9-2.6-7.2-2.6c-11.2,0-22.3,0-33.5,0c-10.9,0-21.8,0-32.7,0c-3.4,0-5.8,1.2-7.4,3C47,75.2,47.9,66.5,55.2,66.5z
			 M47.6,105.1c0-4,0-8,0-11.9c0-5.9,3.1-9.3,8.7-9.3c10.3,0,20.6,0,30.9,0c10.5,0,21,0,31.5,0c5.2,0,9.1,2.4,9.1,8.5
			c0,0.2,0,0.5,0,0.7c0,4,0,8,0,12c-2.2,0-4.3,0.1-6.2,0.1C96.9,105.1,72.2,105.1,47.6,105.1z M140.3,172.8c-6.1,0-12.3,0-18.4,0
			c-4.6,0-9.1,0-13.7,0c-8.7,0-9-7.6-9-14.1c0.5-7.9,7.2-8.1,13.2-8.1c6.1,0,12.3,0,18.4,0c4.6,0,9.1,0,13.7,0c8.7,0,9,7.6,9,14.1
			C153.5,172.6,146,172.8,140.3,172.8z"/>
		<path d="M115.3,90.1c-18.8,0-37.5,0-56.3,0c-2.4,0-2.4,3.8,0,3.8c18.8,0,37.5,0,56.3,0C117.7,93.9,117.7,90.1,115.3,90.1z"/>
		<path d="M59,74.4c18.8,0,37.5,0,56.3,0c2.4,0,2.4-3.8,0-3.8c-18.8,0-37.5,0-56.3,0C56.6,70.6,56.6,74.4,59,74.4z"/>
	</g>
</g>
<g id="Glyph" class="st0">
	<g class="st1">
		<g>
			<path d="M54.5,80.1c10.9,0,21.8,0,32.7,0c11.2,0,22.3,0,33.5,0c3.2,0,5.5,1,7.2,2.6c0-1.7,0-3.5,0-5.2c0-5.5-1.5-11-8-11
				c-10.9,0-21.8,0-32.6,0c-10.7,0-21.3,0-32,0c-7.3,0-8.3,8.7-8.1,16.6C48.8,81.3,51.1,80.1,54.5,80.1z M59,70.6
				c18.8,0,37.5,0,56.3,0c2.4,0,2.4,3.8,0,3.8c-18.8,0-37.5,0-56.3,0C56.6,74.4,56.6,70.6,59,70.6z"/>
			<path d="M87.2,83.9c-10.3,0-20.6,0-30.9,0c-5.6,0-8.7,3.4-8.7,9.3c0,4,0,8,0,11.9c24.6,0,49.1,0,73.7,0c2,0,4.3-0.1,6.6-0.2
				c0-4,0-8,0-12c0-0.2,0-0.5,0-0.7c0-6.1-3.9-8.5-9.1-8.5C108.2,83.9,97.7,83.9,87.2,83.9z M115.3,93.9c-18.8,0-37.5,0-56.3,0
				c-2.4,0-2.4-3.8,0-3.8c18.8,0,37.5,0,56.3,0C117.7,90.1,117.7,93.9,115.3,93.9z"/>
			<path d="M112.4,150.5c-5.9,0-12.6,0.2-13.2,8.1c0,6.6,0.2,14.1,9,14.1c4.6,0,9.1,0,13.7,0c6.1,0,12.3,0,18.4,0
				c5.7,0,13.2-0.2,13.2-8.1c0-6.4-0.2-13.8-8.4-14.1c-0.1,0-0.3,0-0.4,0c0,0-0.1,0-0.1,0c-4.6,0-9.1,0-13.7,0
				C124.7,150.5,118.5,150.5,112.4,150.5z"/>
			<path d="M120.9,176.5c-4.9,0-10.6,0.8-15.4-0.2c-9.3-1.9-10-9.8-10-17.7c0.1-1.6,0.3-2.9,0.9-4.4c2.3-6.6,8.8-7.5,14.7-7.5
				c7.5,0,15.1,0,22.6,0c3,0,6.2-0.3,9.4-0.2c0-8.7,0-17.4,0-26c0-5.5-1.2-11.7-8.3-11.7c-2,0-4,0-6,0c-22,0-44.1,0-66.1,0
				c-5.7,0-11.4,0-17.1,0c-5.6,0-12.8,0.3-12.8,8.1c0,10.4,0,20.9,0,31.3c0,12.1,0,24.2,0,36.2c0,4.9,0,9.9,0,14.8
				c0,2.9-0.4,6.9,0,10.6c0.2,0.3,0.3,0.6,0.4,1c0.3,4.4,3.5,8.1,8.1,8.1c25.1,0,50.2,0,75.2,0c0.1,0,0.2,0,0.4,0c5,0,10.1,0,15.1,0
				c5.6,0,11.1-1.8,11.1-8.7c0-11.3,0-22.6,0-33.9c-0.1,0-0.2,0-0.3,0C135.5,176.5,128.2,176.5,120.9,176.5z"/>
			<path d="M227.4,136.6c-6.2-8.6-15.3-13.8-25.4-16.3c-1.8-0.4-1.8-3.1,0-3.6c10-2.7,20.8-10.7,23.3-21.5c2-9.1-1.4-19.7-8-26.1
				c-12.4-12-31.1-11-47.1-11c-1,0-1.9-0.9-1.9-1.9c0-3.8,0-7.5,0-11.3c0-4.7,0.6-9.7-5.9-9.7c-6.8,0-5.9,5.7-5.9,10.6
				c0,3.4,0,6.9,0,10.3c0,1-0.9,1.9-1.9,1.9c-3.1,0-6.1,0-9.2,0c-1,0-1.9-0.9-1.9-1.9c0-3.8,0-7.5,0-11.3c0-4.7,0.6-9.7-5.9-9.7
				c-6.8,0-5.9,5.7-5.9,10.6c0,3.4,0,6.9,0,10.3c0,1-0.9,1.9-1.9,1.9c-3.4,0-6.8,0-10.3,0c-4.4,0-10.4-1.3-11.4,4.6
				c4.3,0,8.6,0,12.9,0c13.7,0,10.3,21.3,10.3,30c0.4,4.2,0.1,8.6,0,12.2c6.9,0.2,13.5,2,15.1,10.2c1.1,5.2,0.2,11.4,0.2,16.7
				c0,5,0,10,0,15c1,0.2,2,0.4,2.9,0.7c7.4,2.6,8.7,12.2,7.3,18.9c-1.2,5.7-5,8.6-9.8,9.6c0,3.6,0,7.2,0,10.8c2.5,0,5,0,7.5,0
				c1,0,1.9,0.9,1.9,1.9c0,3.8,0,7.7,0,11.5c0,4.7-0.6,9.8,5.9,9.8c6.9,0,5.9-5.8,5.9-10.7c0-3.5,0-7,0-10.5c0-1,0.9-1.9,1.9-1.9
				c18.6,0,41.5,0.1,54.7-15.4C232.9,162.1,234.9,147,227.4,136.6z M162.8,65.6c6.1,0,12.3,0.3,18,2.6c11.9,5.9,14.8,19.5,10.7,31.6
				c-4.1,12.1-17.7,13.9-28.7,14.2C162.8,97.9,162.8,81.8,162.8,65.6z M194.4,167.1c-3.4,6-8.5,9.6-15.1,11.6
				c-7.7,2.3-16.8,1.3-16.6-8.5c0.1-3.8,0.1-7.7,0.1-11.5c0-11.1,0-22.1,0-33.2c9.2,0,19.3,0.5,26.5,6.8
				C198.9,140.5,199.7,156.3,194.4,167.1z"/>
		</g>
	</g>
</g>
</svg>
