<?xml version="1.0" encoding="utf-8"?>
<!-- Generator: Adobe Illustrator 23.0.3, SVG Export Plug-In . SVG Version: 6.00 Build 0)  -->
<svg version="1.1" xmlns="http://www.w3.org/2000/svg" xmlns:xlink="http://www.w3.org/1999/xlink" x="0px" y="0px"
	 viewBox="0 0 256 256" style="enable-background:new 0 0 256 256;" xml:space="preserve">
<style type="text/css">
	.st0{display:none;}
	.st1{display:inline;}
</style>
<g id="SOURCE" class="st0">
	<g class="st1">
		<g>
			<path d="M97.3,95.1c-19.3,0-38.5,0-57.8,0c0.6,0.6,1.3,1.3,1.9,1.9c0-5.6,0-11.2,0-16.8c0-1.6-2-2.5-3.2-1.3
				C28.5,88.7,18.7,98.4,9,108.2c-0.7,0.7-0.7,1.9,0,2.7c9.8,9.8,19.5,19.5,29.3,29.3c1.2,1.2,3.2,0.3,3.2-1.3c0-5.1,0-10.2,0-15.3
				c-0.6,0.6-1.3,1.3-1.9,1.9c19.3,0,38.5,0,57.8,0c1,0,1.9-0.9,1.9-1.9c0-8.8,0-17.7,0-26.5c0-2.4-3.8-2.4-3.8,0
				c0,8.8,0,17.7,0,26.5c0.6-0.6,1.3-1.3,1.9-1.9c-19.3,0-38.5,0-57.8,0c-1,0-1.9,0.9-1.9,1.9c0,5.1,0,10.2,0,15.3
				c1.1-0.4,2.1-0.9,3.2-1.3c-9.8-9.8-19.5-19.5-29.3-29.3c0,0.9,0,1.8,0,2.7c9.8-9.8,19.5-19.5,29.3-29.3c-1.1-0.4-2.1-0.9-3.2-1.3
				c0,5.6,0,11.2,0,16.8c0,1,0.9,1.9,1.9,1.9c19.3,0,38.5,0,57.8,0C99.8,98.9,99.8,95.1,97.3,95.1z"/>
		</g>
	</g>
	<g class="st1">
		<g>
			<path d="M12.3,165.9c19.3,0,38.5,0,57.8,0c1,0,1.9-0.9,1.9-1.9c0-5.6,0-11.2,0-16.8c-1.1,0.4-2.1,0.9-3.2,1.3
				c9.8,9.8,19.5,19.5,29.3,29.3c0-0.9,0-1.8,0-2.7c-9.8,9.8-19.5,19.5-29.3,29.3c1.1,0.4,2.1,0.9,3.2,1.3c0-5.1,0-10.2,0-15.3
				c0-1-0.9-1.9-1.9-1.9c-19.3,0-38.5,0-57.8,0c0.6,0.6,1.3,1.3,1.9,1.9c0-8.8,0-17.7,0-26.5c0-2.4-3.8-2.4-3.8,0
				c0,8.8,0,17.7,0,26.5c0,1,0.9,1.9,1.9,1.9c19.3,0,38.5,0,57.8,0c-0.6-0.6-1.3-1.3-1.9-1.9c0,5.1,0,10.2,0,15.3
				c0,1.6,2,2.5,3.2,1.3c9.8-9.8,19.5-19.5,29.3-29.3c0.7-0.7,0.7-1.9,0-2.7c-9.8-9.8-19.5-19.5-29.3-29.3c-1.2-1.2-3.2-0.3-3.2,1.3
				c0,5.6,0,11.2,0,16.8c0.6-0.6,1.3-1.3,1.9-1.9c-19.3,0-38.5,0-57.8,0C9.9,162.1,9.9,165.9,12.3,165.9z"/>
		</g>
	</g>
	<g class="st1">
		<g>
			<path d="M47.8,191.3c0,11.9,0,23.8,0,35.7c0,1,0.9,1.9,1.9,1.9c41.3,0,82.7,0,124,0c1,0,1.9-0.9,1.9-1.9c0-23.2,0-46.3,0-69.5
				c0-2.4-3.8-2.4-3.8,0c0,23.2,0,46.3,0,69.5c0.6-0.6,1.3-1.3,1.9-1.9c-41.3,0-82.7,0-124,0c0.6,0.6,1.3,1.3,1.9,1.9
				c0-11.9,0-23.8,0-35.7C51.5,188.9,47.8,188.9,47.8,191.3L47.8,191.3z"/>
		</g>
	</g>
	<g class="st1">
		<g>
			<path d="M51.5,96.4c0-21.8,0-43.6,0-65.4c-0.6,0.6-1.3,1.3-1.9,1.9c24.7,0,49.3,0,74,0c6,0,11.9,0,17.9,0c1.6,0,3.2,0,4.8,0
				c2.2,0,0.9,0.1,0.5-0.3c8.5,8.3,17,16.6,25.5,24.9c-0.7-0.7-0.5-1.9-0.5-0.8c0,0.6,0,1.2,0,1.9c0,2.3,0,4.7,0,7
				c0,7.3,0,14.5,0,21.8c0,10.4,0,20.8,0,31.2c0,2.4,3.8,2.4,3.8,0c0-11.4,0-22.8,0-34.2c0-7.2,0-14.4,0-21.6c0-2,0.9-6.5-0.8-8.2
				c-8.5-8.3-17-16.6-25.5-24.9c-1.3-1.3-5.1-0.6-6.7-0.6c-5.7,0-11.5,0-17.2,0c-25.2,0-50.5,0-75.7,0c-1,0-1.9,0.9-1.9,1.9
				c0,21.8,0,43.6,0,65.4C47.8,98.8,51.5,98.8,51.5,96.4L51.5,96.4z"/>
		</g>
	</g>
	<g class="st1">
		<g>
			<path d="M51.5,163.3c0-13.1,0-26.2,0-39.3c0-2.4-3.8-2.4-3.8,0c0,13.1,0,26.2,0,39.3C47.8,165.7,51.5,165.7,51.5,163.3
				L51.5,163.3z"/>
		</g>
	</g>
	<g class="st1">
		<g>
			<path d="M173.1,54.1c-8.4,0-16.7,0-25.1,0c0.6,0.6,1.3,1.3,1.9,1.9c0-8.2,0-16.3,0-24.5c-1.1,0.4-2.1,0.9-3.2,1.3
				c8.4,8.2,16.7,16.3,25.1,24.5c1.7,1.7,4.4-1,2.7-2.7c-8.4-8.2-16.7-16.3-25.1-24.5c-1.2-1.1-3.2-0.3-3.2,1.3c0,8.2,0,16.3,0,24.5
				c0,1,0.9,1.9,1.9,1.9c8.4,0,16.7,0,25.1,0C175.5,57.9,175.5,54.1,173.1,54.1z"/>
		</g>
	</g>
	<g class="st1">
		<g>
			<path d="M57.2,162c0-6.9,0-13.8,0-20.7c-0.6,0.6-1.3,1.3-1.9,1.9c14,0,28,0,42,0c1,0,1.9-0.9,1.9-1.9c0.2-27.4,0.3-54.7,0.5-82.1
				c-1.1,0.4-2.1,0.9-3.2,1.3c6.4,6.5,12.9,13,19.3,19.4c1.4,1.4,2.8,2.8,4.2,4.2c0.3,0.3,0.6,0.6,1,1c0.9,0.9-0.7-2.2-0.2-0.6
				c0.5,1.7,3.2,3.5,4.4,4.7c13.1,13.2,26.2,26.4,39.3,39.5c0.7,0.7,2,0.7,2.7,0c11.3-12.1,22.6-24.2,33.9-36.4
				C211.6,81,222,69.3,233.7,58.8c-1.1-0.4-2.1-0.9-3.2-1.3c-0.3,28-0.6,55.9-0.8,83.9c0,1,0.9,1.9,1.9,1.9c6.1,0,12.2,0,18.3,0
				c-0.6-0.6-1.3-1.3-1.9-1.9c0.1,8.4,0.2,16.8,0.2,25.2c0.6-0.6,1.3-1.3,1.9-1.9c-14.5,0-29,0-43.6,0c0.6,0.6,1.3,1.3,1.9,1.9
				c0-0.3,0-0.7,0-1c0-1-0.9-1.9-1.9-1.9c0,0-0.1,0-0.1,0c0.6,0.6,1.3,1.3,1.9,1.9c0-14.3,0-28.6,0-43c0-1.6-2.1-2.5-3.2-1.3
				c-13.5,14.4-26.9,28.9-40.4,43.3c0.9,0,1.8,0,2.7,0c-14.5-14.6-28.9-29.1-43.4-43.7c-1.2-1.2-3.2-0.3-3.2,1.3
				c0,6.4,0,12.8,0,19.1c0,1,0.9,1.9,1.9,1.9c0.1,0,0.1,0,0.2,0c-0.6-0.6-1.3-1.3-1.9-1.9c0,8.4,0,16.8,0,25.2
				c0.6-0.6,1.3-1.3,1.9-1.9c-10.9,0-21.8,0-32.7,0c-2.4,0-2.4,3.8,0,3.8c10.9,0,21.8,0,32.7,0c1,0,1.9-0.9,1.9-1.9
				c0-8.4,0-16.8,0-25.2c0-1-0.9-1.9-1.9-1.9c-0.1,0-0.1,0-0.2,0c0.6,0.6,1.3,1.3,1.9,1.9c0-6.4,0-12.8,0-19.1
				c-1.1,0.4-2.1,0.9-3.2,1.3c14.5,14.6,28.9,29.1,43.4,43.7c0.7,0.7,2,0.7,2.7,0c13.5-14.4,26.9-28.9,40.4-43.3
				c-1.1-0.4-2.1-0.9-3.2-1.3c0,14.3,0,28.6,0,43c0,1,0.9,1.9,1.9,1.9c0,0,0.1,0,0.1,0c-0.6-0.6-1.3-1.3-1.9-1.9c0,0.3,0,0.7,0,1
				c0,1,0.9,1.9,1.9,1.9c14.5,0,29,0,43.6,0c1,0,1.9-0.9,1.9-1.9c-0.1-8.4-0.2-16.8-0.2-25.2c0-1-0.8-1.9-1.9-1.9
				c-6.1,0-12.2,0-18.3,0c0.6,0.6,1.3,1.3,1.9,1.9c0.3-28,0.6-55.9,0.8-83.9c0-1.7-2-2.4-3.2-1.3c-11.7,10.5-22.1,22.2-32.8,33.7
				c-11.3,12.1-22.6,24.2-33.9,36.4c0.9,0,1.8,0,2.7,0c-12.9-13-25.9-26.1-38.8-39.1c-1-1.1-2.1-2.1-3.1-3.2
				c-1.4-1.4-0.6-1.3-0.6,0.2c0-2.1-4.1-4.9-5.4-6.2c-6.6-6.7-13.3-13.3-19.9-20c-1.2-1.2-3.2-0.3-3.2,1.3
				c-0.2,27.4-0.3,54.7-0.5,82.1c0.6-0.6,1.3-1.3,1.9-1.9c-14,0-28,0-42,0c-1,0-1.9,0.9-1.9,1.9c0,6.9,0,13.8,0,20.7
				C53.5,164.4,57.2,164.4,57.2,162L57.2,162z"/>
		</g>
	</g>
</g>
<g id="Line_Expand">
	<g>
		<path d="M47.8,227c0,1,0.9,1.9,1.9,1.9c41.3,0,82.7,0,124,0c1,0,1.9-0.9,1.9-1.9c0-7.8,0-15.7,0-23.5c0-2.4-3.8-2.4-3.8,0
			c0,7.2,0,14.4,0,21.6c-40.1,0-80.2,0-120.3,0c0-10.9,0-21.8,0-32.8c5.5,0,11.1,0,16.6,0c0,4.5,0,8.9,0,13.4c0,1.6,2,2.5,3.2,1.3
			c9.8-9.8,19.5-19.5,29.3-29.3c0.7-0.7,0.7-1.9,0-2.7c-2.3-2.3-4.5-4.5-6.8-6.8c4.7,0,9.4,0,14.2,0c2.4,0,2.4-3.8,0-3.8
			c-6,0-11.9,0-17.9,0c-6.2-6.2-12.5-12.5-18.7-18.7c-1.2-1.2-3.2-0.3-3.2,1.3c0,5,0,9.9,0,14.9c-3.7,0-7.3,0-11,0c0,0,0-0.1,0-0.1
			c0-6.3,0-12.5,0-18.8c13.4,0,26.7,0,40.1,0c1,0,1.9-0.9,1.9-1.9c0.1-25.9,0.3-51.7,0.4-77.6c5.4,5.4,10.8,10.8,16.1,16.2
			c1.4,1.4,2.8,2.8,4.2,4.2c0.3,0.3,0.6,0.6,1,1c0,0,0,0,0,0c0.8,1.5,3.1,3.1,4.1,4.1c13.1,13.2,26.2,26.4,39.3,39.5
			c0.7,0.7,2,0.7,2.7,0c9-9.6,18-19.3,27-28.9c1.6-1.8-1-4.4-2.7-2.7c-5.2,5.6-10.5,11.2-15.7,16.9c0-9.9,0-19.9,0-29.8
			c0-7.2,0-14.4,0-21.6c0-2,0.9-6.5-0.8-8.2c-8.5-8.3-17-16.6-25.5-24.9c-1.3-1.3-5.1-0.6-6.7-0.6c-5.7,0-11.5,0-17.2,0
			c-25.2,0-50.5,0-75.7,0c-1,0-1.9,0.9-1.9,1.9c0,21.4,0,42.8,0,64.1c-2.1,0-4.2,0-6.3,0c0-5,0-9.9,0-14.9c0-1.6-2-2.5-3.2-1.3
			C28.5,88.7,18.7,98.4,9,108.2c-0.7,0.7-0.7,1.9,0,2.7c9.8,9.8,19.5,19.5,29.3,29.3c1.2,1.2,3.2,0.3,3.2-1.3c0-4.5,0-8.9,0-13.4
			c2.1,0,4.2,0,6.3,0c0,12.3,0,24.5,0,36.8c-11.8,0-23.7,0-35.5,0c-0.6,0-1,0.2-1.3,0.5c0,0,0,0-0.1,0c0,0,0,0,0,0.1
			c-0.3,0.3-0.5,0.7-0.5,1.3c0,8.8,0,17.7,0,26.5c0,1,0.9,1.9,1.9,1.9c11.8,0,23.7,0,35.5,0C47.8,203.9,47.8,215.5,47.8,227z
			 M14.2,165.9c18.6,0,37.3,0,55.9,0c1,0,1.9-0.9,1.9-1.9c0-4.1,0-8.1,0-12.2c8.2,8.2,16.5,16.5,24.7,24.7
			c-8.2,8.2-16.5,16.5-24.7,24.7c0-3.6,0-7.2,0-10.8c0-1-0.9-1.9-1.9-1.9c-18.6,0-37.3,0-55.9,0C14.2,181,14.2,173.5,14.2,165.9z
			 M39.6,121.6c-1,0-1.9,0.9-1.9,1.9c0,3.6,0,7.2,0,10.8c-8.2-8.2-16.5-16.5-24.7-24.7c8.2-8.2,16.5-16.5,24.7-24.7
			c0,4.1,0,8.1,0,12.2c0,1,0.9,1.9,1.9,1.9c18.6,0,37.3,0,55.9,0c0,7.6,0,15.2,0,22.8C76.8,121.6,58.2,121.6,39.6,121.6z M149.9,36
			c6.2,6,12.4,12.1,18.6,18.1c-6.2,0-12.4,0-18.6,0C149.9,48.1,149.9,42,149.9,36z M51.5,32.9c24,0,48.1,0,72.1,0c6,0,11.9,0,17.9,0
			c1.5,0,3,0,4.6,0c0,7.7,0,15.4,0,23.1c0,1,0.9,1.9,1.9,1.9c7.9,0,15.9,0,23.8,0c0,0.2,0,0.4,0,0.6c0,2.3,0,4.7,0,7
			c0,7.3,0,14.5,0,21.8c0,10.3,0,20.6,0,30.9c-2.1,2.2-4.1,4.4-6.2,6.7c-12.5-12.6-25-25.1-37.5-37.7c-1-1.1-2.1-2.1-3.1-3.2
			c-1.4-1.4-0.6-1.3-0.6,0.2c0-2.1-4.1-4.9-5.4-6.2c-6.6-6.7-13.3-13.3-19.9-20c-1.2-1.2-3.2-0.3-3.2,1.3c-0.1,12-0.1,23.9-0.2,35.9
			c-14.7,0-29.4,0-44.2,0C51.5,74.4,51.5,53.6,51.5,32.9z M51.5,125.4c14.7,0,29.4,0,44,0c0,4.7-0.1,9.4-0.1,14.1
			c-13.4,0-26.8,0-40.1,0c-1,0-1.9,0.9-1.9,1.9c0,6.9,0,13.8,0,20.7c0,0,0,0.1,0,0.1c-0.6,0-1.3,0-1.9,0
			C51.5,149.9,51.5,137.6,51.5,125.4z"/>
		<path d="M203.8,89.3c3.5-3.8,7.1-7.6,10.6-11.4c1.6-1.8-1-4.4-2.7-2.7c-3.5,3.8-7.1,7.6-10.6,11.4
			C199.5,88.4,202.2,91.1,203.8,89.3z"/>
		<path d="M251.6,141.3c0-1-0.8-1.9-1.9-1.9c-5.5,0-10.9,0-16.4,0c0.3-27.3,0.5-54.7,0.8-82c0-1.7-2-2.4-3.2-1.3
			c-2.8,2.5-5.7,5.1-8.5,7.6c-1.8,1.6,0.9,4.3,2.7,2.7c1.7-1.6,3.5-3.1,5.2-4.7c-0.3,26.5-0.5,53.1-0.8,79.6c0,1,0.9,1.9,1.9,1.9
			c5.5,0,10.9,0,16.4,0c0.1,7.1,0.1,14.3,0.2,21.4c-13.3,0-26.6,0-39.9,0c0-14,0-28.1,0-42.1c0-1.6-2.1-2.5-3.2-1.3
			c-10.8,11.6-21.7,23.2-32.5,34.9c-0.1,0.1-0.3,0.2-0.4,0.4c-2.1,2.2-4.1,4.4-6.2,6.7c-14-14.1-28-28.2-42-42.3
			c-1.2-1.2-3.2-0.3-3.2,1.3c0,6.4,0,12.8,0,19.1c0,0.3,0.1,0.6,0.2,0.8c0,7.5,0,15,0,22.5c-0.8,0-1.5,0-2.3,0c-2.4,0-2.4,3.8,0,3.8
			c1.4,0,2.8,0,4.2,0c1,0,1.9-0.9,1.9-1.9c0-8.4,0-16.8,0-25.2c0-0.3-0.1-0.6-0.2-0.8c0-4.6,0-9.2,0-13.8
			c13.4,13.5,26.8,27,40.2,40.5c0.7,0.7,2,0.7,2.7,0c1.5-1.6,3-3.3,4.6-4.9c0,6.7,0,13.5,0,20.2c0,2.4,3.8,2.4,3.8,0
			c0-8.1,0-16.1,0-24.2c9.6-10.3,19.3-20.7,28.9-31c0,12.7,0,25.5,0,38.2c0,0.2,0,0.4,0.1,0.6c0,0.1,0,0.2,0,0.4
			c0,1,0.9,1.9,1.9,1.9c14.5,0,29,0,43.6,0c1,0,1.9-0.9,1.9-1.9C251.8,158.1,251.7,149.7,251.6,141.3z"/>
	</g>
</g>
<g id="Glyph" class="st0">
	<path class="st1" d="M200.8,92.5c9.7-10.4,19.2-21,29.6-30.7c-0.3,26.5-0.5,53-0.8,79.5c0,1,0.9,1.9,1.9,1.9c5.5,0,10.9,0,16.4,0
		c0.1,7.1,0.1,14.3,0.2,21.4c-13.3,0-26.6,0-39.9,0c0-14,0-28.1,0-42.1c0-1.6-2.1-2.5-3.2-1.3c-10.8,11.6-21.7,23.2-32.5,34.9
		c-0.1,0.1-0.3,0.2-0.4,0.4c-2.1,2.2-4.1,4.4-6.2,6.7c-14-14.1-28-28.2-42-42.3c-1.2-1.2-3.2-0.3-3.2,1.3c0,6.4,0,12.8,0,19.1
		c0,0.3,0.1,0.6,0.2,0.8c0,7.5,0,15,0,22.5c-10.2,0-20.5,0-30.7,0c-6.2-6.2-12.5-12.5-18.7-18.7c-1.2-1.2-3.2-0.3-3.2,1.3
		c0,5,0,9.9,0,14.9c-3.7,0-7.3,0-11,0c0,0,0-0.1,0-0.1c0-6.3,0-12.5,0-18.8c13.4,0,26.7,0,40.1,0c1,0,1.9-0.9,1.9-1.9
		c0.1-25.9,0.3-51.7,0.4-77.6c5.4,5.4,10.8,10.8,16.1,16.2c1.4,1.4,2.8,2.8,4.2,4.2c0.3,0.3,0.6,0.6,1,1c0,0,0,0,0,0
		c0.8,1.5,3.1,3.1,4.1,4.1c13.1,13.2,26.2,26.4,39.3,39.5c0.7,0.7,2,0.7,2.7,0C178.2,116.7,189.5,104.6,200.8,92.5z M70.1,188.6
		c-18.6,0-37.3,0-55.9,0c0-7.6,0-15.2,0-22.8c18.6,0,37.3,0,55.9,0c1,0,1.9-0.9,1.9-1.9c0-4.1,0-8.1,0-12.2
		c8.2,8.2,16.5,16.5,24.7,24.7c-8.2,8.2-16.5,16.5-24.7,24.7c0-3.6,0-7.2,0-10.8C71.9,189.5,71.1,188.6,70.1,188.6z M39.6,121.6
		c-1,0-1.9,0.9-1.9,1.9c0,3.6,0,7.2,0,10.8c-8.2-8.2-16.5-16.5-24.7-24.7c8.2-8.2,16.5-16.5,24.7-24.7c0,4.1,0,8.1,0,12.2
		c0,1,0.9,1.9,1.9,1.9c18.6,0,37.3,0,55.9,0c0,7.6,0,15.2,0,22.8C76.8,121.6,58.2,121.6,39.6,121.6z M149.9,36
		c6.2,6,12.4,12.1,18.6,18.1c-6.2,0-12.4,0-18.6,0C149.9,48.1,149.9,42,149.9,36z M51.5,32.9c24,0,48.1,0,72.1,0c6,0,11.9,0,17.9,0
		c1.5,0,3,0,4.6,0c0,7.7,0,15.4,0,23.1c0,1,0.9,1.9,1.9,1.9c7.9,0,15.9,0,23.8,0c0,0.2,0,0.4,0,0.6c0,2.3,0,4.7,0,7
		c0,7.3,0,14.5,0,21.8c0,10.3,0,20.6,0,30.9c-2.1,2.2-4.1,4.4-6.2,6.7c-12.5-12.6-25-25.1-37.5-37.7c-1-1.1-2.1-2.1-3.1-3.2
		c-1.4-1.4-0.6-1.3-0.6,0.2c0-2.1-4.1-4.9-5.4-6.2c-6.6-6.7-13.3-13.3-19.9-20c-1.2-1.2-3.2-0.3-3.2,1.3c-0.1,12-0.1,23.9-0.2,35.9
		c-14.7,0-29.4,0-44.2,0C51.5,74.4,51.5,53.6,51.5,32.9z M51.5,125.4c14.7,0,29.4,0,44,0c0,4.7-0.1,9.4-0.1,14.1
		c-13.4,0-26.8,0-40.1,0c-1,0-1.9,0.9-1.9,1.9c0,6.9,0,13.8,0,20.7c0,0,0,0.1,0,0.1c-0.6,0-1.3,0-1.9,0
		C51.5,149.9,51.5,137.6,51.5,125.4z M171.8,225.1c-40.1,0-80.2,0-120.3,0c0-10.9,0-21.8,0-32.8c5.5,0,11.1,0,16.6,0
		c0,4.5,0,8.9,0,13.4c0,1.6,2,2.5,3.2,1.3c9.8-9.8,19.5-19.5,29.3-29.3c0.7-0.7,0.7-1.9,0-2.7c-2.3-2.3-4.5-4.5-6.8-6.8
		c9.6,0,19.2,0,28.9,0c1,0,1.9-0.9,1.9-1.9c0-8.4,0-16.8,0-25.2c0-0.3-0.1-0.6-0.2-0.8c0-4.6,0-9.2,0-13.8
		c13.4,13.5,26.8,27,40.2,40.5c0.7,0.7,2,0.7,2.7,0c1.5-1.6,3-3.3,4.6-4.9C171.8,183.2,171.8,204.2,171.8,225.1z"/>
</g>
</svg>
