<?xml version="1.0" encoding="utf-8"?>
<!-- Generator: Adobe Illustrator 23.0.3, SVG Export Plug-In . SVG Version: 6.00 Build 0)  -->
<svg version="1.1" xmlns="http://www.w3.org/2000/svg" xmlns:xlink="http://www.w3.org/1999/xlink" x="0px" y="0px"
	 viewBox="0 0 256 256" style="enable-background:new 0 0 256 256;" xml:space="preserve">
<style type="text/css">
	.st0{display:none;}
	.st1{display:inline;}
</style>
<g id="SOURCE" class="st0">
	<g class="st1">
		<g>
			<g>
				<path d="M88.5,155.8c0-23,0-46.1,0-69.1c-0.6,0.6-1.3,1.3-1.9,1.9c6.9,0,13.9,0,20.8,0c-0.6-0.6-1.3-1.3-1.9-1.9
					c0,13.5,0,27,0,40.5c0,1,0.9,1.9,1.9,1.9c13.6,0,27.2,0,40.7,0c1,0,1.9-0.9,1.9-1.9c0-13.5,0-27,0-40.5
					c-0.6,0.6-1.3,1.3-1.9,1.9c6.9,0,13.9,0,20.8,0c-0.6-0.6-1.3-1.3-1.9-1.9c0,34.3,0,68.7,0,103c0.6-0.6,1.3-1.3,1.9-1.9
					c-6.9,0-13.9,0-20.8,0c0.6,0.6,1.3,1.3,1.9,1.9c0-15,0-30,0-45c0-1-0.9-1.9-1.9-1.9c-13.6,0-27.2,0-40.7,0c-1,0-1.9,0.9-1.9,1.9
					c0,15,0,30,0,45c0.6-0.6,1.3-1.3,1.9-1.9c-6.9,0-13.9,0-20.8,0c0.6,0.6,1.3,1.3,1.9,1.9C88.5,178.4,88.5,167.1,88.5,155.8
					c0-2.4-3.8-2.4-3.8,0c0,11.3,0,22.6,0,33.9c0,1,0.9,1.9,1.9,1.9c6.9,0,13.9,0,20.8,0c1,0,1.9-0.9,1.9-1.9c0-15,0-30,0-45
					c-0.6,0.6-1.3,1.3-1.9,1.9c13.6,0,27.2,0,40.7,0c-0.6-0.6-1.3-1.3-1.9-1.9c0,15,0,30,0,45c0,1,0.9,1.9,1.9,1.9
					c6.9,0,13.9,0,20.8,0c1,0,1.9-0.9,1.9-1.9c0-34.3,0-68.7,0-103c0-1-0.9-1.9-1.9-1.9c-6.9,0-13.9,0-20.8,0c-1,0-1.9,0.9-1.9,1.9
					c0,13.5,0,27,0,40.5c0.6-0.6,1.3-1.3,1.9-1.9c-13.6,0-27.2,0-40.7,0c0.6,0.6,1.3,1.3,1.9,1.9c0-13.5,0-27,0-40.5
					c0-1-0.9-1.9-1.9-1.9c-6.9,0-13.9,0-20.8,0c-1,0-1.9,0.9-1.9,1.9c0,23,0,46.1,0,69.1C84.8,158.2,88.5,158.2,88.5,155.8z"/>
			</g>
		</g>
	</g>
	<g class="st1">
		<g>
			<path d="M219.6,127.8c-0.2,24.2-9.3,47.1-25.9,64.7c-1.7,1.8,1,4.4,2.7,2.7c17.2-18.4,26.8-42.2,27-67.4
				C223.3,125.3,219.6,125.3,219.6,127.8L219.6,127.8z"/>
		</g>
	</g>
	<circle class="st1" cx="190.3" cy="198.6" r="2.4"/>
	<g class="st1">
		<g>
			<path d="M169.4,177.4c2.7,0,5.3,0,8,0c1.9,0,2.7-1.9,3.6-3.3c3.4-4.7,6.7-9.4,10.1-14.2c1.4-2-1.8-3.8-3.2-1.9
				c-3.9,5.5-7.8,11-11.8,16.5c0.5-0.3,1.1-0.6,1.6-0.9c-2.8,0-5.6,0-8.3,0C167,173.6,167,177.4,169.4,177.4L169.4,177.4z"/>
		</g>
	</g>
	<g class="st1">
		<g>
			<path d="M107.8,177.3c13.3,0,26.6,0,39.9,0c2.4,0,2.4-3.7,0-3.8c-13.3,0-26.6,0-39.9,0C105.3,173.6,105.3,177.3,107.8,177.3
				L107.8,177.3z"/>
		</g>
	</g>
	<g class="st1">
		<g>
			<path d="M85.8,101.6c-3.6,0-8.2-1.1-11.2,1.2c-4.5,3.6-9,7.1-13.4,10.7c-9.3,7.4-18.7,14.9-28,22.3c-0.8,0.6-0.7,2,0,2.7
				c9.3,8.2,18.5,16.4,27.8,24.6c4.7,4.1,9.4,8.3,14,12.4c3.1,2.7,7.3,1.7,11.3,1.7c2.4,0,2.4-3.7,0-3.8c-2.7,0-5.5,0-8.2,0
				c-1.1,0,1.5,1.1,0.4,0.2c-0.6-0.5-1.2-1.1-1.8-1.6c-4.8-4.3-9.7-8.6-14.5-12.9c-8.8-7.8-17.6-15.6-26.4-23.3c0,0.9,0,1.8,0,2.7
				c8.6-6.9,17.2-13.7,25.8-20.6c4.8-3.8,9.6-7.7,14.5-11.5c0.5-0.4,1.1-0.9,1.6-1.3c1.2-0.9-1.5,0.2-0.4,0.2c2.8,0,5.6,0,8.5,0
				C88.2,105.4,88.2,101.6,85.8,101.6L85.8,101.6z"/>
		</g>
	</g>
	<g class="st1">
		<g>
			<path d="M107.5,105.4c13.6,0,27.2,0,40.7,0c2.4,0,2.4-3.7,0-3.8c-13.6,0-27.2,0-40.7,0C105.1,101.6,105.1,105.4,107.5,105.4
				L107.5,105.4z"/>
		</g>
	</g>
	<g class="st1">
		<g>
			<path d="M189.6,120.6c-3.2-6-6.4-12-9.6-17.9c-0.3-0.6-1-0.9-1.6-0.9c-3,0-6,0-8.9,0c-2.4,0-2.4,3.7,0,3.8c3,0,6,0,8.9,0
				c-0.5-0.3-1.1-0.6-1.6-0.9c3.2,6,6.4,12,9.6,17.9C187.5,124.6,190.8,122.7,189.6,120.6L189.6,120.6z"/>
		</g>
	</g>
	<g class="st1">
		<g>
			<path d="M234.1,128.6c-0.3,46.9-31,88.7-75.8,102.8c-45.1,14.2-95-4.1-121.3-43c-26.5-39.1-23.2-92.5,6.8-128.8
				c30.1-36.4,82-48.4,125.3-30C208.4,46.4,233.9,86.1,234.1,128.6c0,2.4,3.8,2.4,3.8,0c-0.3-44.1-26.5-84.3-66.9-102.1
				C130.4,8.6,82.3,17.5,50.1,47.5C17.5,77.8,6.8,126.2,22.2,167.7c15.1,40.9,54.1,69,97.3,72c30.6,2.1,61-9.3,83.4-30.1
				c22.4-20.8,34.8-50.6,35-81C237.9,126.1,234.1,126.1,234.1,128.6z"/>
		</g>
	</g>
</g>
<g id="Line_Expand">
	<g>
		<path d="M146.2,191.6c6.9,0,13.9,0,20.8,0c1,0,1.9-0.9,1.9-1.9c0-4.1,0-8.2,0-12.3c2.2,0,4.3,0,6.5,0c1.9,0,2.7-1.9,3.6-3.3
			c3.4-4.7,6.7-9.4,10.1-14.2c1.4-2-1.8-3.8-3.2-1.9c-3.7,5.2-7.4,10.4-11.1,15.6c-2,0-3.9,0-5.9,0c0-22.7,0-45.5,0-68.2
			c2.1,0,4.3,0,6.4,0c3,5.7,6,11.3,9.1,17c1.1,2.1,4.4,0.2,3.2-1.9c-3.2-6-6.4-12-9.6-17.9c-0.3-0.6-1-0.9-1.6-0.9c-2.5,0-5,0-7.6,0
			c0-5,0-10,0-15c0-1-0.9-1.9-1.9-1.9c-6.9,0-13.9,0-20.8,0c-1,0-1.9,0.9-1.9,1.9c0,5,0,10,0,15c-2.8,0-5.6,0-8.3,0
			c-2.4,0-2.4,3.7,0,3.8c2.8,0,5.6,0,8.3,0c0,6.7,0,13.3,0,20c-12.3,0-24.7,0-37,0c0-6.7,0-13.3,0-20c7.5,0,14.9,0,22.4,0
			c2.4,0,2.4-3.7,0-3.8c-7.5,0-14.9,0-22.4,0c0-5,0-10,0-14.9c0-1-0.9-1.9-1.9-1.9c-6.9,0-13.9,0-20.8,0c-1,0-1.9,0.9-1.9,1.9
			c0,5,0,9.9,0,14.9c-3.4-0.1-7.5-0.9-10.2,1.3c-4.5,3.6-9,7.1-13.4,10.7c-9.3,7.4-18.7,14.9-28,22.3c-0.8,0.6-0.7,2,0,2.7
			c9.3,8.2,18.5,16.4,27.8,24.6c4.7,4.1,9.4,8.3,14,12.4c2.7,2.4,6.3,1.9,9.8,1.7c0,4.1,0,8.2,0,12.4c0,1,0.9,1.9,1.9,1.9
			c6.9,0,13.9,0,20.8,0c1,0,1.9-0.9,1.9-1.9c0-4.1,0-8.3,0-12.4c12.3,0,24.7,0,37,0c0,4.1,0,8.2,0,12.3
			C144.3,190.7,145.2,191.6,146.2,191.6z M76.3,173.5c-0.5-0.5-1.1-1-1.6-1.4c-4.8-4.3-9.7-8.6-14.5-12.9
			c-8.3-7.3-16.5-14.6-24.8-21.9c8.1-6.4,16.1-12.9,24.2-19.3c4.8-3.8,9.6-7.7,14.5-11.5c0.5-0.4,0.9-0.7,1.4-1.1c2.5,0,4.9,0,7.4,0
			c0,8,0,16.1,0,24.1c0,2.4,3.8,2.4,3.8,0c0-13.6,0-27.3,0-40.9c5.7,0,11.4,0,17,0c0,12.9,0,25.8,0,38.7c0,1,0.9,1.9,1.9,1.9
			c13.6,0,27.2,0,40.7,0c1,0,1.9-0.9,1.9-1.9c0-12.9,0-25.8,0-38.7c5.7,0,11.4,0,17,0c0,33.1,0,66.2,0,99.2c-5.7,0-11.4,0-17,0
			c0-14.4,0-28.8,0-43.2c0-1-0.9-1.9-1.9-1.9c-13.6,0-27.2,0-40.7,0c-1,0-1.9,0.9-1.9,1.9c0,14.4,0,28.8,0,43.2c-5.7,0-11.4,0-17,0
			c0-7.5,0-15,0-22.5c0-2.4-3.8-2.4-3.8,0c0,2.7,0,5.5,0,8.2C80.6,173.5,78.5,173.5,76.3,173.5z M107.3,173.6c0-9,0-18,0-27
			c12.3,0,24.7,0,37,0c0,9,0,18,0,27.1C132,173.6,119.7,173.6,107.3,173.6z"/>
		<path d="M86.5,155.8c0-5.3,0-10.6,0-15.8c0-2.4-3.8-2.4-3.8,0c0,5.3,0,10.6,0,15.8C82.8,158.2,86.5,158.2,86.5,155.8z"/>
		<path d="M230.8,94.1c-3.3-9.8-7.8-19-13.5-27.6c-1.3-2-4.6-0.1-3.2,1.9c5.5,8.3,9.9,17.2,13.1,26.7
			C228,97.3,231.6,96.4,230.8,94.1z"/>
		<path d="M87.1,233.5c41.7,15.4,89.7,3,119.8-29.3c19-20.4,29.3-47.7,29.5-75.5c0-2.4-3.7-2.4-3.8,0c-0.3,46.9-31,88.7-75.8,102.8
			c-45.1,14.2-95-4.1-121.3-43C9,149.5,12.3,96.1,42.2,59.9c32-38.7,88-49.4,132.4-26.6c10.4,5.3,19.8,12.6,27.9,20.9
			c1.7,1.7,4.3-0.9,2.7-2.7C170.9,16.3,117,7.5,73.3,30C34.1,50.3,10.9,93.3,13.9,137.1C16.9,180.6,46.5,218.5,87.1,233.5z"/>
		<path d="M217.6,127.8c-0.2,24.2-9.3,47.1-25.9,64.7c-1.7,1.8,1,4.4,2.7,2.7c17.2-18.4,26.8-42.2,27-67.4
			C221.3,125.3,217.6,125.3,217.6,127.8z"/>
		<circle cx="188.3" cy="198.6" r="2.4"/>
	</g>
</g>
<g id="Glyph" class="st0">
	<g class="st1">
		<path d="M126.5,19.1C66,19.1,17,68.1,17,128.6s49,109.5,109.5,109.5S236,189,236,128.6S187,19.1,126.5,19.1z M169.5,101.7
			c3,0,6,0,8.9,0c0.6,0,1.3,0.4,1.6,0.9c3.2,6,6.4,12,9.6,17.9c1.1,2.1-2.1,4-3.2,1.9c-3-5.7-6-11.3-9.1-17c-2.6,0-5.2,0-7.8,0
			C167.1,105.4,167.1,101.7,169.5,101.7z M107.5,101.6c13.6,0,27.2,0,40.7,0c2.4,0,2.4,3.8,0,3.8c-13.6,0-27.2,0-40.7,0
			C105.1,105.4,105.1,101.6,107.5,101.6z M86.3,177.3c-4,0-8.2,1-11.3-1.7c-4.7-4.1-9.4-8.3-14-12.4c-9.3-8.2-18.5-16.4-27.8-24.6
			c-0.7-0.6-0.8-2,0-2.7c9.3-7.4,18.7-14.9,28-22.3c4.5-3.6,9-7.1,13.4-10.7c2.9-2.3,7.6-1.2,11.2-1.2c2.4,0,2.4,3.8,0,3.8
			c-2.8,0-5.6,0-8.3,0c-0.5,0.4-0.9,0.7-1.4,1.1c-4.8,3.8-9.6,7.7-14.5,11.5c-8.1,6.4-16.1,12.9-24.2,19.3
			c8.3,7.3,16.5,14.6,24.8,21.9c4.8,4.3,9.7,8.6,14.5,12.9c0.5,0.5,1.1,1,1.6,1.4c2.7,0,5.3,0,8,0C88.8,173.6,88.8,177.3,86.3,177.3
			z M147.7,177.4c-13.3,0-26.6,0-39.9,0c-2.4,0-2.4-3.8,0-3.8c13.3,0,26.6,0,39.9,0C150.1,173.6,150.1,177.4,147.7,177.4z
			 M167.1,187.8c-5.7,0-11.4,0-17,0c0-14.4,0-28.8,0-43.2c0-1-0.9-1.9-1.9-1.9c-13.6,0-27.2,0-40.7,0c-1,0-1.9,0.9-1.9,1.9
			c0,14.4,0,28.8,0,43.2c-5.7,0-11.4,0-17,0c0-10.7,0-21.3,0-32c0-22.4,0-44.8,0-67.3c5.7,0,11.4,0,17,0c0,12.9,0,25.8,0,38.7
			c0,1,0.9,1.9,1.9,1.9c13.6,0,27.2,0,40.7,0c1,0,1.9-0.9,1.9-1.9c0-12.9,0-25.8,0-38.7c5.7,0,11.4,0,17,0
			C167.1,121.7,167.1,154.7,167.1,187.8z M177.4,177.4c-2.7,0-5.3,0-8,0c-2.4,0-2.4-3.8,0-3.8c2.5,0,4.9,0,7.4,0
			c3.7-5.2,7.4-10.4,11.1-15.6c1.4-2,4.6-0.1,3.2,1.9c-3.4,4.7-6.7,9.4-10.1,14.2C180.1,175.4,179.2,177.4,177.4,177.4z M190.3,201
			c-1.3,0-2.4-1.1-2.4-2.4c0-1.3,1.1-2.4,2.4-2.4c1.3,0,2.4,1.1,2.4,2.4C192.7,199.9,191.6,201,190.3,201z M196.3,195.1
			c-1.7,1.8-4.3-0.9-2.7-2.7c16.6-17.6,25.7-40.5,25.9-64.7c0-2.4,3.8-2.4,3.8,0C223.1,152.9,213.6,176.8,196.3,195.1z"/>
	</g>
</g>
</svg>
