<?xml version="1.0" encoding="utf-8"?>
<!-- Generator: Adobe Illustrator 23.0.3, SVG Export Plug-In . SVG Version: 6.00 Build 0)  -->
<svg version="1.1" xmlns="http://www.w3.org/2000/svg" xmlns:xlink="http://www.w3.org/1999/xlink" x="0px" y="0px"
	 viewBox="0 0 256 256" style="enable-background:new 0 0 256 256;" xml:space="preserve">
<style type="text/css">
	.st0{display:none;}
	.st1{display:inline;}
</style>
<g id="SOURCE" class="st0">
	<g class="st1">
		<g>
			<path d="M217.2,127c-0.2,24.2-9.3,47.1-25.9,64.7c-1.7,1.8,1,4.4,2.7,2.7c17.2-18.4,26.8-42.2,27-67.4
				C220.9,124.6,217.2,124.6,217.2,127L217.2,127z"/>
		</g>
	</g>
	<circle class="st1" cx="189.5" cy="197.9" r="2.4"/>
	<g class="st1">
		<g>
			<g>
				<path d="M93.6,122c15.8,15.3,45.4,14.9,58.2-4.1c1.4-2-1.9-3.9-3.2-1.9c-11.5,16.9-38.3,16.8-52.3,3.3
					C94.5,117.6,91.8,120.3,93.6,122L93.6,122z"/>
			</g>
		</g>
		<g>
			<g>
				<path d="M131.1,160.9c2.4-10.3-1-21.6-6.7-30.1c-1.3-2-4.6-0.1-3.2,1.9c5.2,7.7,8.6,17.9,6.4,27.2
					C127,162.3,130.6,163.3,131.1,160.9L131.1,160.9z"/>
			</g>
		</g>
		<g>
			<g>
				<g>
					<path d="M98.2,107.1c-0.3,11-8.7,19.3-19.6,19.6c-10.9,0.3-19.3-9.2-19.6-19.6c-0.3-10.9,9.2-19.3,19.6-19.6
						C89.6,87.2,97.9,96.7,98.2,107.1c0.1,2.4,3.8,2.4,3.8,0c-0.4-13-10.4-23-23.4-23.4c-13-0.4-23,11-23.4,23.4
						c-0.4,13,11,23,23.4,23.4c13,0.4,23-11,23.4-23.4C102.1,104.7,98.3,104.7,98.2,107.1z"/>
				</g>
			</g>
			<g>
				<g>
					<path d="M144.9,181.9c-0.3,11-8.7,19.3-19.6,19.6c-10.9,0.3-19.3-9.2-19.6-19.6c-0.3-10.9,9.2-19.3,19.6-19.6
						C136.2,162,144.6,171.5,144.9,181.9c0.1,2.4,3.8,2.4,3.8,0c-0.4-13-10.4-23-23.4-23.4c-13-0.4-23,11-23.4,23.4
						c-0.4,13,11,23,23.4,23.4c13,0.4,23-11,23.4-23.4C148.7,179.5,145,179.5,144.9,181.9z"/>
				</g>
			</g>
			<g>
				<g>
					<path d="M190.1,109.9c-0.3,11-8.7,19.3-19.6,19.6c-10.9,0.3-19.3-9.2-19.6-19.6c-0.3-10.9,9.2-19.3,19.6-19.6
						C181.4,89.9,189.8,99.5,190.1,109.9c0.1,2.4,3.8,2.4,3.8,0c-0.4-13-10.4-23-23.4-23.4c-13-0.4-23,11-23.4,23.4
						c-0.4,13,11,23,23.4,23.4c13,0.4,23-11,23.4-23.4C193.9,107.5,190.2,107.5,190.1,109.9z"/>
				</g>
			</g>
		</g>
	</g>
	<g class="st1">
		<g>
			<path d="M232.1,127.5c-0.3,46.9-31,88.7-75.8,102.8c-45.1,14.2-95-4.1-121.3-43C8.5,148.2,11.9,94.9,41.8,58.6
				c30.1-36.4,82-48.4,125.3-30C206.4,45.4,231.9,85,232.1,127.5c0,2.4,3.8,2.4,3.8,0c-0.3-44.1-26.5-84.3-66.9-102.1
				C128.4,7.5,80.3,16.5,48.1,46.5C15.5,76.8,4.8,125.1,20.2,166.6c15.1,40.9,54.1,69,97.3,72c30.6,2.1,61-9.3,83.4-30.1
				c22.4-20.8,34.8-50.6,35-81C235.9,125.1,232.1,125.1,232.1,127.5z"/>
		</g>
	</g>
</g>
<g id="Line_Expand">
	<g>
		<path d="M226.8,94.3c0.8,2.3,4.4,1.3,3.6-1c-3.3-9.8-7.8-19-13.5-27.6c-1.3-2-4.6-0.1-3.2,1.9C219.2,76,223.6,84.8,226.8,94.3z"/>
		<path d="M86.7,232.8c41.7,15.4,89.7,3,119.8-29.3c19-20.4,29.3-47.7,29.5-75.5c0-2.4-3.7-2.4-3.8,0c-0.3,46.9-31,88.7-75.8,102.8
			c-45.1,14.2-95-4.1-121.3-43C8.6,148.7,11.9,95.3,41.8,59.1c32-38.7,88-49.4,132.4-26.6c10.4,5.3,19.8,12.6,27.9,20.9
			c1.7,1.7,4.3-0.9,2.7-2.7c-34.3-35.2-88.2-44-131.9-21.5C33.7,49.5,10.5,92.6,13.5,136.4C16.5,179.8,46.1,217.7,86.7,232.8z"/>
		<path d="M193.9,194.4c17.2-18.4,26.8-42.2,27-67.4c0-2.4-3.7-2.4-3.8,0c-0.2,24.2-9.3,47.1-25.9,64.7
			C189.6,193.5,192.2,196.1,193.9,194.4z"/>
		<circle cx="189.5" cy="197.9" r="2.4"/>
		<path d="M143.4,188.8c-1.4,3.3-3.5,6.1-6.3,8.3c-1.9,1.5,0.8,4.2,2.7,2.7c3-2.4,5.4-5.5,6.9-9.1
			C147.6,188.5,144.4,186.6,143.4,188.8z"/>
		<path d="M186.4,96.7c1.5,1.9,4.2-0.8,2.7-2.7c-2.4-3-5.5-5.4-9.1-6.9c-2.2-0.9-4.1,2.3-1.9,3.2C181.3,91.8,184.1,93.9,186.4,96.7z
			"/>
		<path d="M56,98.9c-1.3,3.7-1.8,7.5-1.3,11.4c0.3,2.4,4.1,2.4,3.8,0c-0.4-3.6-0.1-7,1.2-10.4C60.5,97.6,56.8,96.6,56,98.9z"/>
		<path d="M150.4,119.7c1.8,3.4,4.5,6.5,8.2,8.9c15.5,10.1,35-2.7,35.5-20c0.1-2.4-3.7-2.4-3.8,0c-0.5,15.3-16.6,24.3-29.9,16.7
			c-14-8-11.1-28,2.3-34.7c2.2-1.1,0.3-4.3-1.9-3.2c-11.3,5.6-15.4,17.8-12.1,28.2c-0.1,0.1-0.2,0.2-0.2,0.3
			c-11.2,16.6-37.2,16.8-51.5,4.1c2.6-3.8,4.2-8.6,4.1-13.9C101,88.3,80.7,78.9,66,87c-2.1,1.2-0.2,4.4,1.9,3.2
			c12.8-7.1,28.5,1.1,29.6,15.9c1.2,16.6-17.9,25.4-30.9,17c-2-1.3-3.9,1.9-1.9,3.2c10.4,6.7,22.7,4.2,30.1-3.4
			c7.2,6.4,16.9,9.7,26.5,9.8c4.9,7.3,8.1,16.9,6.6,25.8c-8.4-0.9-17.2,2.6-22.6,10.8c-10.1,15.5,2.7,35,20,35.5
			c2.4,0.1,2.4-3.7,0-3.8c-15.3-0.5-24.3-16.6-16.7-29.9c8-14,28-11.1,34.7,2.3c1.1,2.2,4.3,0.3,3.2-1.9
			c-3.3-6.6-8.8-10.7-14.9-12.4c1.6-9.1-1.2-18.8-5.9-26.7C135.1,131.7,144.3,127.5,150.4,119.7z"/>
	</g>
</g>
<g id="Glyph" class="st0">
	<g class="st1">
		<path d="M125.2,18C64.7,18,15.7,67,15.7,127.5S64.7,237,125.2,237s109.5-49,109.5-109.5S185.6,18,125.2,18z M168.8,130
			c-7.8,0-14.5-4.3-18.1-10.6c-6.1,8-15.4,12.3-25.1,13.2c5,8.3,7.8,18.7,5.6,28.3c-0.2,0.7-0.6,1.1-1.1,1.3
			c8.9,2.3,15.5,10.4,15.5,20.1c0,11.5-9.3,20.8-20.8,20.8s-20.8-9.3-20.8-20.8s9.3-20.8,20.8-20.8c1.2,0,2.3,0.1,3.4,0.3
			c-0.5-0.4-0.8-1.1-0.6-1.9c2.2-9.3-1.2-19.5-6.3-27.2c-10.1-0.1-20.3-3.8-27.6-10.8c-0.1-0.1-0.2-0.3-0.3-0.4
			c-3.8,4-9.1,6.5-15,6.5c-11.5,0-20.8-9.3-20.8-20.8s9.3-20.8,20.8-20.8S99,95.8,99,107.3c0,4.3-1.3,8.3-3.5,11.6
			c0.3,0.1,0.5,0.2,0.8,0.5c14,13.5,40.9,13.6,52.3-3.3c0.1-0.2,0.3-0.3,0.4-0.4c-0.6-2-1-4.1-1-6.3c0-11.5,9.3-20.8,20.8-20.8
			s20.8,9.3,20.8,20.8S180.2,130,168.8,130z M189.5,200.3c-1.3,0-2.4-1.1-2.4-2.4c0-1.3,1.1-2.4,2.4-2.4c1.3,0,2.4,1.1,2.4,2.4
			C191.8,199.2,190.8,200.3,189.5,200.3z M193.9,194.4c-1.7,1.8-4.3-0.9-2.7-2.7c16.6-17.6,25.7-40.5,25.9-64.7c0-2.4,3.8-2.4,3.8,0
			C220.7,152.2,211.2,176,193.9,194.4z"/>
	</g>
</g>
</svg>
